<?xml version="1.0" standalone="no"?>
<!DOCTYPE svg PUBLIC "-//W3C//DTD SVG 1.1//EN" "http://www.w3.org/Graphics/SVG/1.1/DTD/svg11.dtd" >
<svg xmlns="http://www.w3.org/2000/svg" xmlns:xlink="http://www.w3.org/1999/xlink" version="1.1">
<metadata>
Created by FontForge 20190801 at Thu Sep 13 21:38:53 2018
 By Jimmy Wärting
Copyright \(c\) 2014-2018 by Hannes von Doehren, Livius Dietzel. All rights reserved.
</metadata>
<defs>
<font id="BrixSans-BoldItalic" horiz-adv-x="560" >
  <font-face 
    font-family="Brix Sans"
    font-weight="700"
    font-style="italic"
    font-stretch="normal"
    units-per-em="1000"
    panose-1="2 11 8 0 0 0 0 0 0 0"
    ascent="720"
    descent="-280"
    x-height="456"
    cap-height="676"
    bbox="-434 -231 1132 992"
    underline-thickness="85"
    underline-position="-58"
    slope="-10"
    stemh="110"
    stemv="120"
    unicode-range="U+0020-FB02"
  />
<missing-glyph horiz-adv-x="513" 
d="M59 656h413v-656h-413v656zM434 38v580h-337v-580h337z" />
    <glyph glyph-name="fi" unicode="fi" horiz-adv-x="558" 
d="M406 354h-176l-100 -570h-120l101 570h-68l16 92l69 10l13 68c20 109 73 166 179 166h72l-18 -102h-55c-37 0 -51 -22 -59 -65l-12 -67h296l-81 -456h-119zM498 543c-36 0 -61 16 -61 55c0 59 38 86 85 86c32 0 60 -19 60 -58c0 -60 -43 -83 -84 -83z" />
    <glyph glyph-name="fl" unicode="fl" horiz-adv-x="583" 
d="M374 588h-55c-37 0 -51 -22 -59 -65l-12 -67h110l-18 -102h-110l-100 -570h-120l101 570h-68l16 92l69 10l13 68c20 109 73 166 179 166h72zM587 690l-96 -542c-5 -32 2 -42 28 -42h22l-20 -111h-52c-91 0 -113 57 -100 135l98 560h120z" />
    <glyph glyph-name="f_f" unicode="ff" horiz-adv-x="626" 
d="M667 588h-55c-37 0 -51 -22 -59 -65l-12 -67h110l-17 -102h-111l-100 -570h-120l101 570h-174l-100 -570h-120l101 570h-68l16 92l69 10l13 68c20 109 73 166 179 166h72l-18 -102h-55c-37 0 -51 -22 -59 -65l-12 -67h173l13 68c20 109 74 166 179 166h72z" />
    <glyph glyph-name=".notdef" horiz-adv-x="513" 
d="M59 656h413v-656h-413v656zM434 38v580h-337v-580h337z" />
    <glyph glyph-name=".null" horiz-adv-x="0" 
 />
    <glyph glyph-name="space" unicode=" " horiz-adv-x="196" 
 />
    <glyph glyph-name="exclam" unicode="!" horiz-adv-x="249" 
d="M74 225l59 451h143l-102 -451h-100zM87 -6c-40 0 -69 30 -69 66c0 50 40 84 90 84c39 0 67 -30 67 -66c0 -50 -39 -84 -88 -84z" />
    <glyph glyph-name="quotedbl" unicode="&#x22;" horiz-adv-x="375" 
d="M124 676h113l-55 -244h-89zM296 676h110l-55 -244h-90z" />
    <glyph glyph-name="numbersign" unicode="#" horiz-adv-x="622" 
d="M22 173l35 106h94l39 128h-92l34 106h93l52 163h114l-53 -163h93l53 163h113l-51 -163h96l-36 -106h-96l-40 -128h96l-35 -106h-97l-55 -173h-114l56 173h-92l-56 -173h-115l57 173h-93zM264 279h93l39 128h-92z" />
    <glyph glyph-name="dollar" unicode="$" horiz-adv-x="528" 
d="M355 377c69 -27 132 -70 132 -162c0 -125 -85 -211 -225 -224l-17 -94h-68l16 93c-121 10 -167 76 -184 126l97 70c15 -43 38 -80 107 -86l33 189l-29 11c-68 27 -123 78 -123 162c0 114 71 212 222 223l13 74h68l-13 -75c90 -9 140 -52 163 -98l-97 -69
c-14 30 -44 50 -86 57l-33 -188zM228 474c0 -27 15 -47 40 -61l28 159c-46 -12 -68 -49 -68 -98zM282 104c48 13 72 46 72 95c0 31 -18 50 -44 65z" />
    <glyph glyph-name="percent" unicode="%" horiz-adv-x="819" 
d="M268 681c87 0 127 -54 127 -136c0 -135 -50 -239 -183 -239c-89 0 -128 57 -128 136c0 138 54 239 184 239zM234 0h-98l499 676h101zM219 375c53 0 87 49 87 170c0 42 -13 67 -45 67c-50 0 -87 -47 -87 -170c0 -42 13 -67 45 -67zM664 370c87 0 127 -54 127 -136
c0 -135 -51 -240 -183 -240c-90 0 -128 57 -128 137c0 138 54 239 184 239zM615 64c52 0 87 48 87 170c0 41 -13 67 -45 67c-50 0 -88 -47 -88 -170c0 -42 14 -67 46 -67z" />
    <glyph glyph-name="ampersand" unicode="&#x26;" horiz-adv-x="621" 
d="M495 181l-24 -28l101 -144l-2 -9h-127l-50 74c-56 -48 -123 -85 -210 -85c-104 0 -165 63 -165 141c0 112 99 168 173 217l10 7l-7 11c-21 29 -62 84 -62 140c0 98 81 182 212 182c98 0 161 -72 161 -150c0 -82 -59 -135 -151 -197l-10 -7l67 -95l10 12l95 112l78 -65z
M281 422l6 -9l14 9c57 39 90 65 90 107c0 29 -21 58 -57 58c-51 0 -89 -39 -89 -82c0 -28 16 -56 36 -83zM192 90c54 0 100 29 143 68l-79 116l-19 -13c-66 -46 -103 -71 -103 -117c0 -31 22 -54 58 -54z" />
    <glyph glyph-name="quotesingle" unicode="'" horiz-adv-x="204" 
d="M125 676h111l-55 -244h-89z" />
    <glyph glyph-name="parenleft" unicode="(" horiz-adv-x="292" 
d="M109 -222c-46 94 -77 219 -77 335c0 261 84 425 228 591l93 -35c-112 -173 -197 -335 -197 -566c0 -85 15 -198 44 -290z" />
    <glyph glyph-name="parenright" unicode=")" horiz-adv-x="290" 
d="M-54 -187c158 236 192 374 192 551c0 93 -17 214 -42 305l92 35c43 -99 77 -217 77 -338c0 -242 -88 -428 -237 -588z" />
    <glyph glyph-name="asterisk" unicode="*" horiz-adv-x="448" 
d="M86 368l106 107l-113 18l42 103l112 -40l16 140h111l-33 -139l130 35l2 -107l-120 -12l59 -107l-94 -62l-50 119l-106 -119z" />
    <glyph glyph-name="plus" unicode="+" 
d="M43 320h186v196h113v-196h190v-102h-190v-195h-113v195h-186v102z" />
    <glyph glyph-name="comma" unicode="," horiz-adv-x="235" 
d="M68 -109h-89l69 254h128z" />
    <glyph glyph-name="hyphen" unicode="-" horiz-adv-x="408" 
d="M354 321v-101h-286v101h286z" />
    <glyph glyph-name="period" unicode="." horiz-adv-x="246" 
d="M88 -6c-44 0 -74 32 -74 70c0 53 42 91 97 91c41 0 72 -32 72 -71c0 -53 -43 -90 -95 -90z" />
    <glyph glyph-name="slash" unicode="/" horiz-adv-x="378" 
d="M112 0h-126l317 676h129z" />
    <glyph glyph-name="zero" unicode="0" horiz-adv-x="595" 
d="M377 687c132 0 198 -109 198 -245c0 -276 -96 -453 -318 -453c-132 0 -198 105 -198 246c0 277 98 452 318 452zM274 96c98 0 171 102 171 346c0 84 -25 138 -85 138c-98 0 -172 -102 -172 -345c0 -85 26 -139 86 -139z" />
    <glyph glyph-name="one" unicode="1" horiz-adv-x="391" 
d="M154 0l95 541l-169 -66l-15 110l227 91h109l-120 -676h-127z" />
    <glyph glyph-name="two" unicode="2" horiz-adv-x="504" 
d="M318 687c114 0 187 -73 187 -176c0 -114 -79 -187 -170 -277l-134 -130h238l-18 -104h-414l16 88l232 222c73 70 118 123 118 195c0 46 -23 75 -64 75c-61 0 -93 -44 -103 -112h-121c13 130 92 219 233 219z" />
    <glyph glyph-name="three" unicode="3" horiz-adv-x="524" 
d="M380 340c47 -13 93 -58 93 -134c0 -129 -99 -217 -254 -217c-154 0 -208 80 -189 188h121c-9 -50 20 -81 79 -81c64 0 114 42 114 113c0 51 -34 84 -101 84h-62l18 103h62c80 0 127 40 127 113c0 42 -27 71 -73 71c-55 0 -90 -33 -98 -80h-122c12 105 84 187 230 187
c119 0 195 -70 195 -167c0 -103 -78 -168 -140 -180z" />
    <glyph glyph-name="four" unicode="4" horiz-adv-x="552" 
d="M501 134h-74l-23 -134h-126l23 134h-292l17 91l364 451h133l-77 -439h73zM320 237l44 254l-194 -254h150z" />
    <glyph glyph-name="five" unicode="5" horiz-adv-x="512" 
d="M474 255c0 -152 -99 -266 -263 -266c-154 0 -207 84 -187 194h120c-9 -53 19 -87 76 -87c85 0 122 70 122 146c0 50 -27 87 -81 87c-36 0 -68 -16 -93 -34l-98 16l106 365h347l-18 -104h-245l-44 -155c16 9 47 19 81 19c96 0 177 -58 177 -181z" />
    <glyph glyph-name="six" unicode="6" horiz-adv-x="557" 
d="M426 500c8 49 -17 80 -68 80c-83 0 -132 -82 -151 -194c24 22 76 47 134 47c103 0 179 -68 179 -179c0 -161 -100 -265 -264 -265c-135 0 -199 111 -199 244c0 230 84 454 310 454c146 0 199 -84 181 -187h-122zM186 261c-2 -13 -3 -27 -4 -38c-3 -75 21 -127 82 -127
c80 0 123 65 123 148c0 52 -27 87 -82 87c-51 0 -94 -35 -119 -70z" />
    <glyph glyph-name="seven" unicode="7" horiz-adv-x="468" 
d="M357 572h-269l18 104h419l-15 -89l-338 -587h-145z" />
    <glyph glyph-name="eight" unicode="8" 
d="M244 -11c-127 0 -209 63 -209 172s72 170 149 191c-48 19 -81 58 -81 126c0 128 101 209 254 209c118 0 197 -61 197 -167c0 -100 -60 -155 -133 -178c39 -16 89 -55 89 -135c0 -140 -107 -218 -266 -218zM343 580c-65 0 -111 -40 -111 -109c0 -48 32 -73 78 -73
c60 0 110 36 110 110c0 46 -28 72 -77 72zM257 96c74 0 124 43 124 118c0 54 -37 81 -89 81c-66 0 -125 -40 -125 -119c0 -51 35 -80 90 -80z" />
    <glyph glyph-name="nine" unicode="9" horiz-adv-x="556" 
d="M170 176c-8 -49 17 -80 68 -80c83 0 131 82 151 194c-24 -22 -77 -47 -134 -47c-103 0 -179 68 -179 179c0 161 100 265 263 265c136 0 200 -111 200 -244c0 -230 -84 -454 -310 -454c-146 0 -200 84 -181 187h122zM410 415c2 13 3 27 4 38c3 75 -21 127 -82 127
c-81 0 -123 -65 -123 -148c0 -52 27 -87 82 -87c51 0 94 35 119 70z" />
    <glyph glyph-name="colon" unicode=":" horiz-adv-x="255" 
d="M147 315c-41 0 -69 31 -69 66c0 51 38 85 90 85c38 0 67 -30 67 -66c0 -50 -40 -85 -88 -85zM89 -6c-40 0 -68 30 -68 65c0 50 40 85 90 85c39 0 67 -30 67 -65c0 -50 -40 -85 -89 -85z" />
    <glyph glyph-name="semicolon" unicode=";" horiz-adv-x="252" 
d="M147 315c-40 0 -68 31 -68 66c0 51 40 85 89 85c39 0 68 -30 68 -66c0 -50 -40 -85 -89 -85zM74 -109h-90l69 254h128z" />
    <glyph glyph-name="less" unicode="&#x3c;" 
d="M60 331l425 160v-109l-324 -113l324 -112v-108l-425 160v122z" />
    <glyph glyph-name="equal" unicode="=" 
d="M498 439v-102h-426v102h426zM498 203v-102h-426v102h426z" />
    <glyph glyph-name="greater" unicode="&#x3e;" 
d="M512 209l-425 -160v108l325 112l-325 113v109l425 -160v-122z" />
    <glyph glyph-name="question" unicode="?" horiz-adv-x="436" 
d="M283 686c103 0 175 -58 175 -144c0 -163 -172 -192 -194 -317h-123c29 160 195 197 195 295c0 30 -19 56 -58 56c-50 0 -82 -31 -88 -65l-108 12c13 85 73 163 201 163zM163 -6c-40 0 -66 28 -66 63c0 50 41 87 92 87c39 0 65 -28 65 -63c0 -50 -41 -87 -91 -87z" />
    <glyph glyph-name="at" unicode="@" horiz-adv-x="883" 
d="M487 71c-36 -36 -77 -59 -140 -59c-70 0 -120 54 -120 136c0 150 111 296 233 296c55 0 85 -20 102 -43l12 34h101l-87 -257c-20 -57 -23 -91 10 -91c75 0 169 114 169 298c0 104 -61 186 -217 186c-268 0 -427 -230 -427 -454c0 -130 69 -208 213 -208
c64 0 125 11 181 36l4 -81c-56 -25 -117 -44 -190 -44c-203 0 -303 123 -303 291c0 292 212 549 528 549c208 0 306 -127 306 -273c0 -229 -139 -386 -280 -386c-66 0 -96 29 -95 70zM536 324c-17 15 -37 29 -69 29c-76 0 -134 -104 -134 -189c0 -41 18 -58 47 -58
c30 0 68 14 92 35z" />
    <glyph glyph-name="A" unicode="A" horiz-adv-x="596" 
d="M404 154h-228l-72 -154h-144l343 676h148l105 -676h-134zM227 260h165l-33 283z" />
    <glyph glyph-name="B" unicode="B" horiz-adv-x="577" 
d="M147 676h221c118 0 188 -55 188 -156c0 -94 -57 -152 -118 -169c53 -16 97 -59 97 -138c0 -159 -112 -213 -283 -213h-224zM307 402c90 0 112 47 112 103c0 39 -23 65 -83 65h-78l-30 -168h79zM269 106c105 0 133 46 133 115c0 44 -28 75 -99 75h-94l-33 -190h93z" />
    <glyph glyph-name="C" unicode="C" horiz-adv-x="576" 
d="M192 262c0 -96 37 -162 119 -162c55 0 102 37 132 81l93 -68c-55 -70 -126 -123 -242 -123c-155 0 -238 111 -238 268c0 265 122 428 345 428c110 0 180 -54 208 -128l-105 -60c-15 44 -54 78 -109 78c-134 0 -203 -126 -203 -314z" />
    <glyph glyph-name="D" unicode="D" horiz-adv-x="639" 
d="M147 676h194c178 0 280 -85 280 -245c0 -299 -118 -431 -377 -431h-216zM242 106c141 0 243 64 243 313c0 102 -47 151 -161 151h-66l-82 -464h66z" />
    <glyph glyph-name="E" unicode="E" horiz-adv-x="527" 
d="M467 106l-19 -106h-420l119 676h417l-18 -106h-288l-31 -177h247l-18 -106h-248l-32 -181h291z" />
    <glyph glyph-name="F" unicode="F" horiz-adv-x="506" 
d="M147 676h402l-19 -106h-272l-35 -194h229l-19 -106h-228l-47 -270h-130z" />
    <glyph glyph-name="G" unicode="G" horiz-adv-x="633" 
d="M359 368h260c-1 -22 -3 -49 -5 -60c-20 -164 -103 -318 -314 -318c-150 0 -244 100 -244 260c0 298 143 436 359 436c113 0 180 -52 207 -123l-103 -60c-18 45 -53 73 -116 73c-134 0 -213 -107 -213 -320c0 -107 43 -156 122 -156c100 0 151 78 162 162h-134z" />
    <glyph glyph-name="H" unicode="H" horiz-adv-x="659" 
d="M542 676h129l-120 -676h-129l53 297h-265l-52 -297h-130l119 676h130l-49 -273h265z" />
    <glyph glyph-name="I" unicode="I" horiz-adv-x="265" 
d="M147 676h130l-119 -676h-130z" />
    <glyph glyph-name="J" unicode="J" horiz-adv-x="469" 
d="M96 160c9 -36 29 -60 75 -60c65 0 97 41 113 132l78 444h123l-80 -453c-28 -158 -101 -233 -244 -233c-96 0 -153 46 -171 110z" />
    <glyph glyph-name="K" unicode="K" horiz-adv-x="598" 
d="M194 208l-36 -208h-130l119 676h130l-51 -285l284 285l161 -2l-278 -282l156 -392h-142l-114 304z" />
    <glyph glyph-name="L" unicode="L" horiz-adv-x="462" 
d="M428 106l-19 -106h-381l119 676h130l-101 -570h252z" />
    <glyph glyph-name="M" unicode="M" horiz-adv-x="823" 
d="M618 676h176l-52 -676h-122l49 525l-229 -525h-141l-36 520l-143 -520h-122l194 676h168l35 -517z" />
    <glyph glyph-name="N" unicode="N" horiz-adv-x="656" 
d="M538 676h130l-120 -676h-138l-171 461l-80 -461h-132l121 676h142l168 -455z" />
    <glyph glyph-name="O" unicode="O" horiz-adv-x="646" 
d="M629 425c0 -237 -91 -435 -341 -435c-151 0 -231 105 -231 256c0 244 88 440 341 440c163 0 231 -114 231 -261zM190 246c0 -82 29 -146 110 -146c112 0 195 97 195 325c0 85 -29 151 -109 151c-127 0 -196 -122 -196 -330z" />
    <glyph glyph-name="P" unicode="P" horiz-adv-x="561" 
d="M201 247l-43 -247h-130l119 676h225c128 0 200 -71 200 -183c0 -161 -101 -246 -273 -246h-98zM219 354h87c103 0 131 61 131 133c0 48 -25 83 -92 83h-87z" />
    <glyph glyph-name="Q" unicode="Q" horiz-adv-x="644" 
d="M636 425c0 -123 -25 -236 -83 -316l36 -43l-83 -77l-36 44c-47 -27 -105 -43 -175 -43c-151 0 -231 105 -231 256c0 244 88 440 341 440c163 0 231 -114 231 -261zM307 100c32 0 62 8 88 25l-124 151l80 73l115 -136c23 51 36 121 36 212c0 85 -29 151 -109 151
c-127 0 -196 -122 -196 -330c0 -82 29 -146 110 -146z" />
    <glyph glyph-name="R" unicode="R" horiz-adv-x="583" 
d="M147 676h239c134 0 207 -69 207 -171c0 -128 -77 -198 -184 -219l108 -286h-139l-95 276h-77l-48 -276h-130zM457 498c0 43 -25 72 -98 72h-101l-34 -188h101c94 0 132 39 132 116z" />
    <glyph glyph-name="S" unicode="S" horiz-adv-x="525" 
d="M448 517c-18 37 -56 59 -114 59c-64 0 -105 -41 -105 -102c0 -34 22 -58 59 -71l64 -26c70 -27 133 -70 133 -162c0 -136 -100 -226 -263 -226c-144 0 -197 73 -215 127l97 70c15 -47 43 -87 128 -87c73 0 116 37 116 100c0 38 -27 59 -65 74l-69 27
c-67 27 -122 78 -122 162c0 121 80 224 252 224c114 0 175 -48 200 -100z" />
    <glyph glyph-name="T" unicode="T" horiz-adv-x="524" 
d="M576 676l-19 -106h-170l-100 -570h-130l100 570h-170l18 106h471z" />
    <glyph glyph-name="U" unicode="U" horiz-adv-x="622" 
d="M280 -10c-152 0 -246 79 -213 268l74 418h130l-73 -415c-19 -109 6 -161 91 -161c83 0 127 52 147 161l72 415h130l-73 -418c-33 -189 -135 -268 -285 -268z" />
    <glyph glyph-name="V" unicode="V" horiz-adv-x="582" 
d="M655 676l-322 -676h-166l-81 676h131l52 -543l244 543h142z" />
    <glyph glyph-name="W" unicode="W" horiz-adv-x="927" 
d="M612 676l33 -531l210 531h138l-285 -676h-159l-38 500l-214 -500h-158l-48 676h130l24 -531l219 531h148z" />
    <glyph glyph-name="X" unicode="X" horiz-adv-x="572" 
d="M232 676l84 -243l171 243h151l-245 -328l131 -348h-138l-87 255l-176 -255h-153l253 348l-130 328h139z" />
    <glyph glyph-name="Y" unicode="Y" horiz-adv-x="570" 
d="M180 0l46 263l-144 413h136l88 -296l190 296h150l-290 -413l-46 -263h-130z" />
    <glyph glyph-name="Z" unicode="Z" horiz-adv-x="502" 
d="M522 582l-352 -476h278l-19 -106h-438l17 91l352 479h-254l18 106h415z" />
    <glyph glyph-name="bracketleft" unicode="[" horiz-adv-x="321" 
d="M380 690l-17 -100h-116l-124 -706h114l-16 -100h-241l159 906h241z" />
    <glyph glyph-name="backslash" unicode="\" horiz-adv-x="365" 
d="M103 676h120l79 -676h-118z" />
    <glyph glyph-name="bracketright" unicode="]" horiz-adv-x="321" 
d="M345 690l-160 -906h-240l18 100h115l124 706h-115l18 100h240z" />
    <glyph glyph-name="asciicircum" unicode="^" 
d="M364 700l203 -259l-85 -80l-137 178l-200 -177l-76 79z" />
    <glyph glyph-name="underscore" unicode="_" horiz-adv-x="460" 
d="M377 -31l-14 -78h-380l14 78h380z" />
    <glyph glyph-name="grave" unicode="`" horiz-adv-x="570" 
d="M436 696l40 -164h-100l-53 164h113z" />
    <glyph glyph-name="a" unicode="a" horiz-adv-x="507" 
d="M372 456h119l-80 -456h-113l6 37c-29 -29 -66 -47 -117 -47c-97 0 -153 66 -153 183c0 191 94 293 219 293c56 0 95 -25 113 -44zM158 189c0 -51 19 -90 73 -90c37 0 65 15 85 32l33 194c-12 14 -35 31 -72 31c-91 0 -119 -82 -119 -167z" />
    <glyph glyph-name="b" unicode="b" horiz-adv-x="505" 
d="M209 422c22 22 63 44 113 44c101 0 151 -73 151 -174c0 -182 -81 -302 -232 -302c-68 0 -105 25 -124 49l-44 -39h-58l122 690h120zM349 269c0 49 -19 87 -75 87c-40 0 -68 -19 -82 -32l-33 -187c11 -19 37 -38 70 -38c79 0 120 64 120 170z" />
    <glyph glyph-name="c" unicode="c" horiz-adv-x="437" 
d="M32 173c0 161 81 293 241 293c84 0 144 -34 167 -101l-89 -57c-13 33 -39 53 -78 53c-87 0 -118 -90 -118 -174c0 -52 21 -93 72 -93c39 0 70 23 94 56l75 -62c-44 -64 -108 -98 -188 -98c-119 0 -176 83 -176 183z" />
    <glyph glyph-name="d" unicode="d" horiz-adv-x="507" 
d="M414 690h119l-122 -690h-113l6 37c-29 -29 -66 -47 -117 -47c-97 0 -153 66 -153 183c0 191 94 293 219 293c56 0 95 -25 113 -44zM158 189c0 -51 19 -90 73 -90c37 0 65 15 85 32l33 194c-12 14 -35 31 -72 31c-91 0 -119 -82 -119 -167z" />
    <glyph glyph-name="e" unicode="e" horiz-adv-x="457" 
d="M229 90c36 0 75 15 112 43l44 -82c-39 -35 -95 -61 -165 -61c-132 0 -189 77 -189 188c0 162 100 288 239 288c112 0 165 -76 165 -158c0 -44 -15 -92 -25 -118h-259c-8 -61 16 -100 78 -100zM321 275c2 6 5 13 5 32c0 42 -27 63 -62 63c-54 0 -86 -42 -98 -95h155z" />
    <glyph glyph-name="f" unicode="f" horiz-adv-x="333" 
d="M374 588h-55c-37 0 -51 -22 -59 -65l-12 -67h110l-18 -102h-110l-100 -570h-120l101 570h-68l16 92l69 10l13 68c20 109 73 166 179 166h72z" />
    <glyph glyph-name="g" unicode="g" horiz-adv-x="505" 
d="M491 456l-86 -484c-19 -107 -99 -178 -220 -178c-122 0 -179 63 -164 150h103c-4 -28 14 -56 68 -56c51 0 83 28 93 77l11 66c-22 -21 -61 -41 -104 -41c-110 0 -158 70 -158 183c0 185 88 293 223 293c59 0 96 -24 114 -48l7 38h113zM157 188c0 -48 18 -89 72 -89
c31 0 64 14 85 32l34 195c-11 14 -36 30 -73 30c-76 0 -118 -63 -118 -168z" />
    <glyph glyph-name="h" unicode="h" horiz-adv-x="502" 
d="M137 690h120l-47 -270c24 21 68 46 126 46c99 0 145 -64 125 -181l-50 -285h-120l49 272c9 57 -6 84 -62 84c-31 0 -67 -18 -87 -34l-56 -322h-120z" />
    <glyph glyph-name="i" unicode="i" horiz-adv-x="229" 
d="M169 543c-36 0 -61 16 -61 55c0 59 38 86 85 86c32 0 60 -19 60 -58c0 -60 -44 -83 -84 -83zM95 456h120l-81 -456h-120z" />
    <glyph glyph-name="j" unicode="j" horiz-adv-x="230" 
d="M170 543c-36 0 -62 17 -62 55c0 59 39 86 87 86c31 0 59 -19 59 -58c0 -60 -43 -83 -84 -83zM-92 -146c55 29 93 68 103 129l84 473h120l-79 -450c-18 -100 -68 -181 -166 -232z" />
    <glyph glyph-name="k" unicode="k" horiz-adv-x="479" 
d="M308 0l-77 207l-71 -62l-25 -145h-120l122 690h120l-69 -392l172 158h156l-194 -170l108 -286h-122z" />
    <glyph glyph-name="l" unicode="l" horiz-adv-x="250" 
d="M254 690l-96 -542c-5 -32 2 -42 28 -42h22l-20 -111h-52c-91 0 -113 57 -100 135l98 560h120z" />
    <glyph glyph-name="m" unicode="m" horiz-adv-x="779" 
d="M95 456h116l-8 -45c25 27 66 55 121 55c70 0 101 -29 120 -67c29 33 85 67 162 67c109 0 153 -58 133 -171l-52 -295h-120l51 285c8 47 -7 71 -58 71c-37 0 -70 -16 -91 -34l-57 -322h-118l54 312c-9 26 -30 44 -69 44c-35 0 -63 -16 -88 -34l-57 -322h-120z" />
    <glyph glyph-name="n" unicode="n" horiz-adv-x="501" 
d="M95 456h116l-8 -44c25 25 68 54 133 54c96 0 146 -62 125 -181l-51 -285h-119l48 272c10 57 -6 84 -62 84c-31 0 -67 -17 -86 -34l-57 -322h-120z" />
    <glyph glyph-name="o" unicode="o" horiz-adv-x="488" 
d="M277 466c125 0 179 -79 179 -192c0 -159 -90 -284 -245 -284c-125 0 -178 82 -178 192c0 158 88 284 244 284zM220 97c69 0 114 79 114 177c0 56 -21 85 -67 85c-69 0 -112 -77 -112 -177c0 -55 20 -85 65 -85z" />
    <glyph glyph-name="p" unicode="p" horiz-adv-x="510" 
d="M96 -216h-120l119 672h113l-6 -37c25 24 70 47 120 47c96 0 154 -71 154 -185c0 -178 -82 -291 -221 -291c-59 0 -99 22 -115 43zM352 266c0 49 -19 90 -75 90c-38 0 -67 -15 -86 -32l-34 -194c13 -14 36 -31 75 -31c93 0 120 83 120 167z" />
    <glyph glyph-name="q" unicode="q" horiz-adv-x="501" 
d="M291 25c-22 -17 -53 -35 -101 -35c-103 0 -157 69 -157 180c0 174 86 296 223 296c68 0 111 -26 129 -49l44 39h57l-118 -672h-119zM157 185c0 -50 20 -86 72 -86c41 0 67 18 81 31l33 188c-12 19 -35 38 -68 38c-80 0 -118 -68 -118 -171z" />
    <glyph glyph-name="r" unicode="r" horiz-adv-x="347" 
d="M200 393c17 34 62 73 118 73c24 0 44 -4 56 -8l-30 -125c-18 6 -40 10 -61 10c-38 0 -78 -23 -98 -56l-51 -287h-120l81 456h115l-11 -63h1z" />
    <glyph glyph-name="s" unicode="s" horiz-adv-x="421" 
d="M339 329c-21 28 -58 48 -100 48c-43 0 -65 -24 -65 -52c0 -20 11 -34 42 -43l55 -19c69 -21 105 -61 105 -117c0 -75 -54 -156 -205 -156c-94 0 -150 43 -172 78l76 68c20 -29 53 -58 105 -58c40 0 72 18 72 51c0 21 -12 33 -47 44l-60 21c-57 20 -93 59 -93 114
c0 70 51 158 199 158c79 0 135 -36 161 -67z" />
    <glyph glyph-name="t" unicode="t" horiz-adv-x="337" 
d="M198 149c-7 -35 8 -50 38 -50c14 0 34 4 52 8l-17 -103c-22 -8 -54 -14 -85 -14c-94 0 -125 61 -110 143l39 222h-78l16 91l79 10l20 111l123 19l-23 -130h95l-18 -101h-95z" />
    <glyph glyph-name="u" unicode="u" horiz-adv-x="501" 
d="M406 0h-115l7 44c-25 -25 -68 -54 -132 -54c-97 0 -146 62 -125 181l50 285h120l-49 -272c-9 -57 6 -84 62 -84c31 0 68 17 87 34l57 322h119z" />
    <glyph glyph-name="v" unicode="v" horiz-adv-x="477" 
d="M507 456l-235 -456h-145l-77 456h124l41 -340l159 340h133z" />
    <glyph glyph-name="w" unicode="w" horiz-adv-x="738" 
d="M462 456l32 -330l143 330h128l-213 -456h-130l-39 304l-146 -304h-130l-53 456h119l28 -330l148 330h113z" />
    <glyph glyph-name="x" unicode="x" horiz-adv-x="466" 
d="M413 0h-131l-56 148l-109 -148h-143l184 229l-104 227h131l57 -148l108 148h144l-185 -228z" />
    <glyph glyph-name="y" unicode="y" horiz-adv-x="472" 
d="M225 158l147 298h133l-371 -672h-126l138 241l-99 431h129z" />
    <glyph glyph-name="z" unicode="z" horiz-adv-x="403" 
d="M392 378l-221 -276h172l-17 -102h-332l14 78l225 276h-168l17 102h324z" />
    <glyph glyph-name="braceleft" unicode="{" horiz-adv-x="312" 
d="M247 352c-18 -101 -52 -109 -79 -115c26 -14 51 -53 37 -118l-35 -198c-7 -39 8 -51 43 -51l-15 -86c-120 0 -167 47 -149 146l31 180c10 59 -18 82 -77 82l17 90c58 0 96 30 107 95l32 181c19 105 66 132 199 132l-17 -95c-36 0 -54 -13 -61 -51z" />
    <glyph glyph-name="bar" unicode="|" horiz-adv-x="254" 
d="M90 -216v906h78v-906h-78z" />
    <glyph glyph-name="braceright" unicode="}" horiz-adv-x="311" 
d="M69 126c18 101 52 113 80 120c-26 14 -53 48 -39 113l34 194c8 39 -8 51 -43 51l16 86c120 0 168 -52 150 -151l-32 -175c-10 -59 18 -82 76 -82l-16 -90c-58 0 -93 -20 -105 -86l-34 -191c-19 -106 -66 -131 -199 -131l17 95c35 0 54 13 61 51z" />
    <glyph glyph-name="asciitilde" unicode="~" 
d="M453 214c-24 19 -51 29 -79 29c-57 0 -124 -57 -196 -57c-37 0 -64 11 -80 23l22 117c21 -19 39 -28 70 -28c60 0 114 60 200 60c41 0 66 -13 85 -27z" />
    <glyph glyph-name="Agrave" unicode="&#xc0;" horiz-adv-x="596" 
d="M399 900l40 -164h-100l-54 164h114zM404 154h-228l-72 -154h-144l343 676h148l105 -676h-134zM227 260h165l-33 283z" />
    <glyph glyph-name="Aacute" unicode="&#xc1;" horiz-adv-x="596" 
d="M550 900l-111 -164h-110l98 164h123zM404 154h-228l-72 -154h-144l343 676h148l105 -676h-134zM227 260h165l-33 283z" />
    <glyph glyph-name="Acircumflex" unicode="&#xc2;" horiz-adv-x="596" 
d="M477 900l66 -164h-103l-32 89l-65 -89h-109l125 164h118zM404 154h-228l-72 -154h-144l343 676h148l105 -676h-134zM227 260h165l-33 283z" />
    <glyph glyph-name="Atilde" unicode="&#xc3;" horiz-adv-x="596" 
d="M536 768c-19 15 -41 26 -66 26c-42 0 -97 -42 -155 -42c-29 0 -52 12 -63 22l17 88c14 -17 33 -24 62 -24c39 0 86 40 153 40c35 0 53 -10 70 -21zM404 154h-228l-72 -154h-144l343 676h148l105 -676h-134zM227 260h165l-33 283z" />
    <glyph glyph-name="Adieresis" unicode="&#xc4;" horiz-adv-x="596" 
d="M297 737c-39 0 -63 19 -63 57c0 55 34 84 81 84c31 0 63 -19 63 -58c0 -60 -41 -83 -81 -83zM484 737c-38 0 -62 19 -62 57c0 55 33 84 81 84c31 0 63 -19 63 -58c0 -60 -41 -83 -82 -83zM404 154h-228l-72 -154h-144l343 676h148l105 -676h-134zM227 260h165l-33 283z
" />
    <glyph glyph-name="Amacron" unicode="&#x100;" horiz-adv-x="596" 
d="M554 857l-17 -95h-286l17 95h286zM404 154h-228l-72 -154h-144l343 676h148l105 -676h-134zM227 260h165l-33 283z" />
    <glyph glyph-name="Abreve" unicode="&#x102;" horiz-adv-x="596" 
d="M564 892c-15 -84 -76 -151 -175 -151c-96 0 -135 67 -120 151h75c-1 -38 23 -66 59 -66c38 0 70 28 83 66h78zM404 154h-228l-72 -154h-144l343 676h148l105 -676h-134zM227 260h165l-33 283z" />
    <glyph glyph-name="Aring" unicode="&#xc5;" horiz-adv-x="596" 
d="M297 799c0 57 41 114 119 114c63 0 94 -43 94 -87c0 -56 -43 -113 -124 -113c-59 0 -89 44 -89 86zM363 806c0 -17 10 -33 31 -33c31 0 48 24 48 46c0 17 -11 33 -34 33c-28 0 -45 -24 -45 -46zM404 154h-228l-72 -154h-144l343 676h148l105 -676h-134zM227 260h165
l-33 283z" />
    <glyph glyph-name="Aringacute" unicode="&#x1fa;" horiz-adv-x="596" 
d="M289 800c0 47 29 90 80 105l65 87h113l-80 -95c22 -15 34 -45 34 -72c0 -58 -48 -111 -122 -111c-63 0 -90 45 -90 86zM353 805c0 -17 11 -33 32 -33c33 0 50 23 50 48c0 18 -11 34 -35 34c-29 0 -47 -24 -47 -49zM404 154h-228l-72 -154h-144l343 676h148l105 -676h-134
zM227 260h165l-33 283z" />
    <glyph glyph-name="Aogonek" unicode="&#x104;" horiz-adv-x="596" 
d="M446 -100c0 -12 7 -23 26 -23c17 0 44 11 68 27l-17 -97c-30 -14 -59 -23 -101 -23c-62 0 -104 32 -104 82c0 48 26 75 82 119l22 17l-18 152h-228l-72 -154h-144l343 676h148l105 -676l-73 -50c-22 -16 -37 -31 -37 -50zM227 260h165l-33 283z" />
    <glyph glyph-name="AE" unicode="&#xc6;" horiz-adv-x="913" 
d="M-40 0l499 676h491l-19 -106h-288l-31 -177h248l-19 -106h-247l-33 -186h290l-17 -101h-421l27 156h-214l-112 -156h-154zM459 259l53 301l-215 -301h162z" />
    <glyph glyph-name="AEacute" unicode="&#x1fc;" horiz-adv-x="913" 
d="M847 901l-111 -165h-109l98 165h122zM-40 0l499 676h491l-19 -106h-288l-31 -177h248l-19 -106h-247l-33 -186h290l-17 -101h-421l27 156h-214l-112 -156h-154zM459 259l53 301l-215 -301h162z" />
    <glyph glyph-name="Cacute" unicode="&#x106;" horiz-adv-x="576" 
d="M572 900l-111 -164h-110l98 164h123zM192 262c0 -96 37 -162 119 -162c55 0 102 37 132 81l93 -68c-55 -70 -126 -123 -242 -123c-155 0 -238 111 -238 268c0 265 122 428 345 428c110 0 180 -54 208 -128l-105 -60c-15 44 -54 78 -109 78c-134 0 -203 -126 -203 -314z
" />
    <glyph glyph-name="Ccircumflex" unicode="&#x108;" horiz-adv-x="576" 
d="M503 901l66 -165h-103l-33 90l-65 -90h-108l124 165h119zM192 262c0 -96 37 -162 119 -162c55 0 102 37 132 81l93 -68c-55 -70 -126 -123 -242 -123c-155 0 -238 111 -238 268c0 265 122 428 345 428c110 0 180 -54 208 -128l-105 -60c-15 44 -54 78 -109 78
c-134 0 -203 -126 -203 -314z" />
    <glyph glyph-name="Ccaron" unicode="&#x10c;" horiz-adv-x="576" 
d="M355 736l-67 165h103l33 -90l65 90h108l-124 -165h-118zM192 262c0 -96 37 -162 119 -162c55 0 102 37 132 81l93 -68c-55 -70 -126 -123 -242 -123c-155 0 -238 111 -238 268c0 265 122 428 345 428c110 0 180 -54 208 -128l-105 -60c-15 44 -54 78 -109 78
c-134 0 -203 -126 -203 -314z" />
    <glyph glyph-name="Cdotaccent" unicode="&#x10a;" horiz-adv-x="576" 
d="M419 738c-36 0 -65 15 -65 57c0 59 38 84 86 84c31 0 60 -22 60 -61c0 -57 -40 -80 -81 -80zM192 262c0 -96 37 -162 119 -162c55 0 102 37 132 81l93 -68c-55 -70 -126 -123 -242 -123c-155 0 -238 111 -238 268c0 265 122 428 345 428c110 0 180 -54 208 -128l-105 -60
c-15 44 -54 78 -109 78c-134 0 -203 -126 -203 -314z" />
    <glyph glyph-name="Ccedilla" unicode="&#xc7;" horiz-adv-x="576" 
d="M311 100c55 0 102 37 132 81l93 -68c-52 -66 -118 -117 -222 -122l-21 -39c44 0 75 -20 75 -67c0 -68 -53 -101 -125 -101c-39 0 -70 9 -94 23l13 71c21 -16 51 -27 79 -27c22 0 34 9 34 25c0 14 -12 19 -35 19h-44l-4 7l49 93c-121 22 -185 125 -185 263
c0 265 122 428 345 428c110 0 180 -54 208 -128l-105 -60c-15 44 -54 78 -109 78c-134 0 -203 -126 -203 -314c0 -96 37 -162 119 -162z" />
    <glyph glyph-name="Dcaron" unicode="&#x10e;" horiz-adv-x="639" 
d="M318 736l-67 165h102l33 -90l65 90h109l-124 -165h-118zM147 676h194c178 0 280 -85 280 -245c0 -299 -118 -431 -377 -431h-216zM242 106c141 0 243 64 243 313c0 102 -47 151 -161 151h-66l-82 -464h66z" />
    <glyph glyph-name="Dcroat" unicode="&#x110;" horiz-adv-x="645" 
d="M86 305h-57l13 79h59l51 292h195c178 0 279 -85 279 -245c0 -299 -117 -431 -376 -431h-217zM248 106c141 0 243 64 243 313c0 102 -48 151 -161 151h-66l-34 -186h106l-13 -79h-107l-34 -199h66z" />
    <glyph glyph-name="Eth" unicode="&#xd0;" horiz-adv-x="645" 
d="M86 305h-57l13 79h59l51 292h195c178 0 279 -85 279 -245c0 -299 -117 -431 -376 -431h-217zM248 106c141 0 243 64 243 313c0 102 -48 151 -161 151h-66l-34 -186h106l-13 -79h-107l-34 -199h66z" />
    <glyph glyph-name="Egrave" unicode="&#xc8;" horiz-adv-x="527" 
d="M385 901l40 -164h-100l-53 164h113zM467 106l-19 -106h-420l119 676h417l-18 -106h-288l-31 -177h247l-18 -106h-248l-32 -181h291z" />
    <glyph glyph-name="Eacute" unicode="&#xc9;" horiz-adv-x="527" 
d="M531 901l-111 -165h-110l98 165h123zM467 106l-19 -106h-420l119 676h417l-18 -106h-288l-31 -177h247l-18 -106h-248l-32 -181h291z" />
    <glyph glyph-name="Ecircumflex" unicode="&#xca;" horiz-adv-x="527" 
d="M455 901l66 -165h-103l-33 90l-65 -90h-108l124 165h119zM467 106l-19 -106h-420l119 676h417l-18 -106h-288l-31 -177h247l-18 -106h-248l-32 -181h291z" />
    <glyph glyph-name="Ecaron" unicode="&#x11a;" horiz-adv-x="527" 
d="M308 736l-67 165h103l33 -90l65 90h108l-124 -165h-118zM467 106l-19 -106h-420l119 676h417l-18 -106h-288l-31 -177h247l-18 -106h-248l-32 -181h291z" />
    <glyph glyph-name="Edieresis" unicode="&#xcb;" horiz-adv-x="527" 
d="M277 738c-39 0 -63 18 -63 56c0 56 33 85 81 85c31 0 63 -19 63 -59c0 -60 -41 -82 -81 -82zM464 738c-38 0 -62 18 -62 56c0 56 33 85 81 85c31 0 63 -19 63 -59c0 -60 -41 -82 -82 -82zM467 106l-19 -106h-420l119 676h417l-18 -106h-288l-31 -177h247l-18 -106h-248
l-32 -181h291z" />
    <glyph glyph-name="Emacron" unicode="&#x112;" horiz-adv-x="527" 
d="M532 857l-17 -95h-286l16 95h287zM467 106l-19 -106h-420l119 676h417l-18 -106h-288l-31 -177h247l-18 -106h-248l-32 -181h291z" />
    <glyph glyph-name="Ebreve" unicode="&#x114;" horiz-adv-x="527" 
d="M542 892c-15 -84 -76 -151 -175 -151c-96 0 -134 67 -120 151h75c-1 -38 24 -66 59 -66c38 0 71 28 84 66h77zM467 106l-19 -106h-420l119 676h417l-18 -106h-288l-31 -177h247l-18 -106h-248l-32 -181h291z" />
    <glyph glyph-name="Edotaccent" unicode="&#x116;" horiz-adv-x="527" 
d="M372 738c-36 0 -64 15 -64 57c0 59 37 84 85 84c31 0 60 -22 60 -61c0 -57 -40 -80 -81 -80zM467 106l-19 -106h-420l119 676h417l-18 -106h-288l-31 -177h247l-18 -106h-248l-32 -181h291z" />
    <glyph glyph-name="Eogonek" unicode="&#x118;" horiz-adv-x="528" 
d="M546 570h-288l-31 -177h247l-18 -106h-248l-32 -181h291l-19 -106l-73 -50c-22 -16 -38 -31 -38 -50c0 -12 8 -23 26 -23s45 11 68 27l-16 -97c-30 -14 -60 -23 -101 -23c-63 0 -104 32 -104 82c0 48 26 75 82 119l19 15h-283l119 676h417z" />
    <glyph glyph-name="Gcircumflex" unicode="&#x11c;" horiz-adv-x="633" 
d="M513 901l67 -165h-103l-33 90l-65 -90h-109l125 165h118zM359 368h260c-1 -22 -3 -49 -5 -60c-20 -164 -103 -318 -314 -318c-150 0 -244 100 -244 260c0 298 143 436 359 436c113 0 180 -52 207 -123l-103 -60c-18 45 -53 73 -116 73c-134 0 -213 -107 -213 -320
c0 -107 43 -156 122 -156c100 0 151 78 162 162h-134z" />
    <glyph glyph-name="Gbreve" unicode="&#x11e;" horiz-adv-x="633" 
d="M603 892c-15 -84 -76 -151 -175 -151c-96 0 -134 67 -120 151h75c-1 -38 24 -66 59 -66c38 0 71 28 84 66h77zM359 368h260c-1 -22 -3 -49 -5 -60c-20 -164 -103 -318 -314 -318c-150 0 -244 100 -244 260c0 298 143 436 359 436c113 0 180 -52 207 -123l-103 -60
c-18 45 -53 73 -116 73c-134 0 -213 -107 -213 -320c0 -107 43 -156 122 -156c100 0 151 78 162 162h-134z" />
    <glyph glyph-name="Gdotaccent" unicode="&#x120;" horiz-adv-x="633" 
d="M432 738c-36 0 -64 15 -64 57c0 59 38 84 85 84c31 0 60 -22 60 -61c0 -57 -40 -80 -81 -80zM359 368h260c-1 -22 -3 -49 -5 -60c-20 -164 -103 -318 -314 -318c-150 0 -244 100 -244 260c0 298 143 436 359 436c113 0 180 -52 207 -123l-103 -60c-18 45 -53 73 -116 73
c-134 0 -213 -107 -213 -320c0 -107 43 -156 122 -156c100 0 151 78 162 162h-134z" />
    <glyph glyph-name="uni0122" unicode="&#x122;" horiz-adv-x="633" 
d="M359 368h260c-1 -22 -3 -49 -5 -60c-20 -164 -103 -318 -314 -318c-150 0 -244 100 -244 260c0 298 143 436 359 436c113 0 180 -52 207 -123l-103 -60c-18 45 -53 73 -116 73c-134 0 -213 -107 -213 -320c0 -107 43 -156 122 -156c100 0 151 78 162 162h-134zM269 -216
h-91l51 153h129z" />
    <glyph glyph-name="Hcircumflex" unicode="&#x124;" horiz-adv-x="659" 
d="M507 901l66 -165h-103l-33 90l-65 -90h-108l124 165h119zM542 676h129l-120 -676h-129l53 297h-265l-52 -297h-130l119 676h130l-49 -273h265z" />
    <glyph glyph-name="Hbar" unicode="&#x126;" horiz-adv-x="660" 
d="M130 581l17 95h130l-17 -95h265l17 95h129l-17 -95h43l-14 -77h-43l-89 -504h-129l53 297h-265l-52 -297h-130l88 504h-41l14 77h41zM511 504h-265l-17 -101h265z" />
    <glyph glyph-name="Igrave" unicode="&#xcc;" horiz-adv-x="265" 
d="M233 901l40 -164h-100l-53 164h113zM147 676h130l-119 -676h-130z" />
    <glyph glyph-name="Iacute" unicode="&#xcd;" horiz-adv-x="265" 
d="M373 901l-111 -164h-110l98 164h123zM147 676h130l-119 -676h-130z" />
    <glyph glyph-name="Ibreve" unicode="&#x12c;" horiz-adv-x="265" 
d="M396 893c-15 -85 -76 -152 -175 -152c-95 0 -134 67 -120 152h75c0 -39 24 -66 59 -66c38 0 71 27 84 66h77zM147 676h130l-119 -676h-130z" />
    <glyph glyph-name="Icircumflex" unicode="&#xce;" horiz-adv-x="265" 
d="M310 901l66 -164h-103l-32 89l-65 -89h-109l125 164h118zM147 676h130l-119 -676h-130z" />
    <glyph glyph-name="Itilde" unicode="&#x128;" horiz-adv-x="265" 
d="M365 769c-20 14 -41 25 -67 25c-41 0 -97 -41 -154 -41c-29 0 -52 11 -63 22l17 88c14 -17 32 -25 61 -25c40 0 87 41 154 41c35 0 53 -11 70 -22zM147 676h130l-119 -676h-130z" />
    <glyph glyph-name="Idieresis" unicode="&#xcf;" horiz-adv-x="265" 
d="M130 738c-39 0 -63 19 -63 57c0 55 34 84 81 84c31 0 63 -19 63 -58c0 -60 -41 -83 -81 -83zM317 738c-38 0 -62 19 -62 57c0 55 33 84 81 84c31 0 63 -19 63 -58c0 -60 -41 -83 -82 -83zM147 676h130l-119 -676h-130z" />
    <glyph glyph-name="Imacron" unicode="&#x12a;" horiz-adv-x="265" 
d="M390 857l-17 -95h-286l16 95h287zM147 676h130l-119 -676h-130z" />
    <glyph glyph-name="Idotaccent" unicode="&#x130;" horiz-adv-x="265" 
d="M226 738c-36 0 -65 15 -65 58c0 58 38 83 86 83c31 0 60 -21 60 -61c0 -57 -40 -80 -81 -80zM147 676h130l-119 -676h-130z" />
    <glyph glyph-name="Iogonek" unicode="&#x12e;" horiz-adv-x="265" 
d="M85 -50c-23 -16 -38 -31 -38 -50c0 -12 7 -23 26 -23c18 0 44 11 68 27l-17 -97c-30 -14 -59 -23 -101 -23c-62 0 -103 32 -103 82c0 48 25 75 82 119l27 21l118 670h130l-119 -676z" />
    <glyph glyph-name="Jcircumflex" unicode="&#x134;" horiz-adv-x="469" 
d="M523 900l66 -164h-103l-33 89l-65 -89h-108l124 164h119zM96 160c9 -36 29 -60 75 -60c65 0 97 41 113 132l78 444h123l-80 -453c-28 -158 -101 -233 -244 -233c-96 0 -153 46 -171 110z" />
    <glyph glyph-name="uni0136" unicode="&#x136;" horiz-adv-x="598" 
d="M194 208l-36 -208h-130l119 676h130l-51 -285l284 285l161 -2l-278 -282l156 -392h-142l-114 304zM209 -216h-91l51 153h129z" />
    <glyph glyph-name="Lacute" unicode="&#x139;" horiz-adv-x="462" 
d="M370 899l-111 -164h-110l98 164h123zM428 106l-19 -106h-381l119 676h130l-101 -570h252z" />
    <glyph glyph-name="Lcaron" unicode="&#x13d;" horiz-adv-x="462" 
d="M465 524h-91l52 153h129zM428 106l-19 -106h-381l119 676h130l-101 -570h252z" />
    <glyph glyph-name="uni013B" unicode="&#x13b;" horiz-adv-x="462" 
d="M428 106l-19 -106h-381l119 676h130l-101 -570h252zM181 -216h-91l51 153h129z" />
    <glyph glyph-name="Lslash" unicode="&#x141;" horiz-adv-x="484" 
d="M450 106l-19 -106h-382l44 248l-78 -33l16 92l78 33l59 336h130l-49 -278l89 38l-16 -92l-89 -38l-35 -200h252z" />
    <glyph glyph-name="Ldot" unicode="&#x13f;" horiz-adv-x="462" 
d="M428 106l-19 -106h-381l119 676h130l-101 -570h252zM376 307c-45 0 -75 32 -75 70c0 54 42 92 97 92c41 0 72 -32 72 -72c0 -53 -43 -90 -94 -90z" />
    <glyph glyph-name="Nacute" unicode="&#x143;" horiz-adv-x="656" 
d="M581 901l-111 -164h-110l98 164h123zM538 676h130l-120 -676h-138l-171 461l-80 -461h-132l121 676h142l168 -455z" />
    <glyph glyph-name="Ncaron" unicode="&#x147;" horiz-adv-x="656" 
d="M360 736l-67 165h103l33 -90l65 90h108l-124 -165h-118zM538 676h130l-120 -676h-138l-171 461l-80 -461h-132l121 676h142l168 -455z" />
    <glyph glyph-name="Ntilde" unicode="&#xd1;" horiz-adv-x="656" 
d="M567 768c-20 15 -42 26 -67 26c-41 0 -97 -42 -154 -42c-30 0 -53 12 -63 22l17 88c14 -17 32 -24 61 -24c40 0 87 40 154 40c35 0 53 -10 69 -21zM538 676h130l-120 -676h-138l-171 461l-80 -461h-132l121 676h142l168 -455z" />
    <glyph glyph-name="uni0145" unicode="&#x145;" horiz-adv-x="656" 
d="M538 676h130l-120 -676h-138l-171 461l-80 -461h-132l121 676h142l168 -455zM259 -216h-91l52 153h129z" />
    <glyph glyph-name="Ograve" unicode="&#xd2;" horiz-adv-x="646" 
d="M428 900l40 -164h-100l-53 164h113zM629 425c0 -237 -91 -435 -341 -435c-151 0 -231 105 -231 256c0 244 88 440 341 440c163 0 231 -114 231 -261zM190 246c0 -82 29 -146 110 -146c112 0 195 97 195 325c0 85 -29 151 -109 151c-127 0 -196 -122 -196 -330z" />
    <glyph glyph-name="Oacute" unicode="&#xd3;" horiz-adv-x="646" 
d="M579 901l-111 -165h-110l98 165h123zM629 425c0 -237 -91 -435 -341 -435c-151 0 -231 105 -231 256c0 244 88 440 341 440c163 0 231 -114 231 -261zM190 246c0 -82 29 -146 110 -146c112 0 195 97 195 325c0 85 -29 151 -109 151c-127 0 -196 -122 -196 -330z" />
    <glyph glyph-name="Ocircumflex" unicode="&#xd4;" horiz-adv-x="646" 
d="M501 901l67 -165h-103l-33 90l-65 -90h-109l125 165h118zM629 425c0 -237 -91 -435 -341 -435c-151 0 -231 105 -231 256c0 244 88 440 341 440c163 0 231 -114 231 -261zM190 246c0 -82 29 -146 110 -146c112 0 195 97 195 325c0 85 -29 151 -109 151
c-127 0 -196 -122 -196 -330z" />
    <glyph glyph-name="Otilde" unicode="&#xd5;" horiz-adv-x="646" 
d="M561 768c-20 15 -42 26 -67 26c-41 0 -97 -42 -154 -42c-29 0 -52 12 -63 22l17 88c14 -17 32 -24 61 -24c40 0 87 40 154 40c35 0 53 -10 70 -21zM629 425c0 -237 -91 -435 -341 -435c-151 0 -231 105 -231 256c0 244 88 440 341 440c163 0 231 -114 231 -261zM190 246
c0 -82 29 -146 110 -146c112 0 195 97 195 325c0 85 -29 151 -109 151c-127 0 -196 -122 -196 -330z" />
    <glyph glyph-name="Odieresis" unicode="&#xd6;" horiz-adv-x="646" 
d="M323 738c-38 0 -63 18 -63 56c0 56 34 85 82 85c31 0 63 -19 63 -59c0 -60 -41 -82 -82 -82zM511 738c-38 0 -63 18 -63 56c0 56 34 85 82 85c31 0 63 -19 63 -59c0 -60 -41 -82 -82 -82zM629 425c0 -237 -91 -435 -341 -435c-151 0 -231 105 -231 256
c0 244 88 440 341 440c163 0 231 -114 231 -261zM190 246c0 -82 29 -146 110 -146c112 0 195 97 195 325c0 85 -29 151 -109 151c-127 0 -196 -122 -196 -330z" />
    <glyph glyph-name="Omacron" unicode="&#x14c;" horiz-adv-x="646" 
d="M580 857l-17 -95h-286l16 95h287zM629 425c0 -237 -91 -435 -341 -435c-151 0 -231 105 -231 256c0 244 88 440 341 440c163 0 231 -114 231 -261zM190 246c0 -82 29 -146 110 -146c112 0 195 97 195 325c0 85 -29 151 -109 151c-127 0 -196 -122 -196 -330z" />
    <glyph glyph-name="Obreve" unicode="&#x14e;" horiz-adv-x="646" 
d="M590 892c-15 -84 -76 -151 -175 -151c-96 0 -135 67 -120 151h75c-1 -38 23 -66 59 -66c38 0 70 28 83 66h78zM629 425c0 -237 -91 -435 -341 -435c-151 0 -231 105 -231 256c0 244 88 440 341 440c163 0 231 -114 231 -261zM190 246c0 -82 29 -146 110 -146
c112 0 195 97 195 325c0 85 -29 151 -109 151c-127 0 -196 -122 -196 -330z" />
    <glyph glyph-name="Ohungarumlaut" unicode="&#x150;" horiz-adv-x="646" 
d="M491 901l-112 -165h-108l98 165h122zM666 901l-113 -165h-108l97 165h124zM629 425c0 -237 -91 -435 -341 -435c-151 0 -231 105 -231 256c0 244 88 440 341 440c163 0 231 -114 231 -261zM190 246c0 -82 29 -146 110 -146c112 0 195 97 195 325c0 85 -29 151 -109 151
c-127 0 -196 -122 -196 -330z" />
    <glyph glyph-name="Oslash" unicode="&#xd8;" horiz-adv-x="646" 
d="M705 676l-102 -113c18 -40 26 -87 26 -138c0 -237 -91 -435 -341 -435c-64 0 -115 19 -153 52l-37 -42h-109l96 108c-18 39 -28 86 -28 138c0 244 88 440 341 440c68 0 119 -20 156 -53l39 43h112zM190 246c0 -7 0 -14 1 -20l277 310c-17 25 -44 40 -82 40
c-127 0 -196 -122 -196 -330zM495 425v17l-275 -307c17 -22 43 -35 80 -35c112 0 195 97 195 325z" />
    <glyph glyph-name="Oslashacute" unicode="&#x1fe;" horiz-adv-x="646" 
d="M579 901l-111 -165h-110l98 165h123zM705 676l-102 -113c18 -40 26 -87 26 -138c0 -237 -91 -435 -341 -435c-64 0 -115 19 -153 52l-37 -42h-109l96 108c-18 39 -28 86 -28 138c0 244 88 440 341 440c68 0 119 -20 156 -53l39 43h112zM190 246c0 -7 0 -14 1 -20l277 310
c-17 25 -44 40 -82 40c-127 0 -196 -122 -196 -330zM495 425v17l-275 -307c17 -22 43 -35 80 -35c112 0 195 97 195 325z" />
    <glyph glyph-name="OE" unicode="&#x152;" horiz-adv-x="859" 
d="M799 106l-19 -106h-420c-24 -6 -46 -10 -74 -10c-161 0 -229 118 -229 259c0 211 71 437 343 437c28 0 58 -4 79 -10h418l-18 -106h-289l-31 -177h247l-18 -106h-247l-32 -181h290zM300 100c31 0 58 5 80 14l78 439c-17 13 -42 23 -72 23c-124 0 -196 -119 -196 -330
c0 -82 29 -146 110 -146z" />
    <glyph glyph-name="Racute" unicode="&#x154;" horiz-adv-x="583" 
d="M530 900l-111 -164h-110l98 164h123zM147 676h239c134 0 207 -69 207 -171c0 -128 -77 -198 -184 -219l108 -286h-139l-95 276h-77l-48 -276h-130zM457 498c0 43 -25 72 -98 72h-101l-34 -188h101c94 0 132 39 132 116z" />
    <glyph glyph-name="Rcaron" unicode="&#x158;" horiz-adv-x="583" 
d="M309 736l-67 165h103l33 -90l65 90h108l-124 -165h-118zM147 676h239c134 0 207 -69 207 -171c0 -128 -77 -198 -184 -219l108 -286h-139l-95 276h-77l-48 -276h-130zM457 498c0 43 -25 72 -98 72h-101l-34 -188h101c94 0 132 39 132 116z" />
    <glyph glyph-name="uni0156" unicode="&#x156;" horiz-adv-x="583" 
d="M147 676h239c134 0 207 -69 207 -171c0 -128 -77 -198 -184 -219l108 -286h-139l-95 276h-77l-48 -276h-130zM457 498c0 43 -25 72 -98 72h-101l-34 -188h101c94 0 132 39 132 116zM212 -216h-91l51 153h129z" />
    <glyph glyph-name="Sacute" unicode="&#x15a;" horiz-adv-x="525" 
d="M515 901l-111 -164h-110l98 164h123zM448 517c-18 37 -56 59 -114 59c-64 0 -105 -41 -105 -102c0 -34 22 -58 59 -71l64 -26c70 -27 133 -70 133 -162c0 -136 -100 -226 -263 -226c-144 0 -197 73 -215 127l97 70c15 -47 43 -87 128 -87c73 0 116 37 116 100
c0 38 -27 59 -65 74l-69 27c-67 27 -122 78 -122 162c0 121 80 224 252 224c114 0 175 -48 200 -100z" />
    <glyph glyph-name="Scircumflex" unicode="&#x15c;" horiz-adv-x="525" 
d="M442 901l66 -165h-103l-32 90l-65 -90h-109l125 165h118zM448 517c-18 37 -56 59 -114 59c-64 0 -105 -41 -105 -102c0 -34 22 -58 59 -71l64 -26c70 -27 133 -70 133 -162c0 -136 -100 -226 -263 -226c-144 0 -197 73 -215 127l97 70c15 -47 43 -87 128 -87
c73 0 116 37 116 100c0 38 -27 59 -65 74l-69 27c-67 27 -122 78 -122 162c0 121 80 224 252 224c114 0 175 -48 200 -100z" />
    <glyph glyph-name="Scaron" unicode="&#x160;" horiz-adv-x="525" 
d="M294 736l-66 165h102l33 -90l65 90h109l-124 -165h-119zM448 517c-18 37 -56 59 -114 59c-64 0 -105 -41 -105 -102c0 -34 22 -58 59 -71l64 -26c70 -27 133 -70 133 -162c0 -136 -100 -226 -263 -226c-144 0 -197 73 -215 127l97 70c15 -47 43 -87 128 -87
c73 0 116 37 116 100c0 38 -27 59 -65 74l-69 27c-67 27 -122 78 -122 162c0 121 80 224 252 224c114 0 175 -48 200 -100z" />
    <glyph glyph-name="Scedilla" unicode="&#x15e;" horiz-adv-x="525" 
d="M352 377c70 -27 133 -70 133 -162c0 -128 -88 -215 -235 -225l-21 -38c44 0 75 -20 75 -67c0 -68 -52 -101 -125 -101c-38 0 -69 9 -93 23l13 71c20 -16 51 -27 79 -27c22 0 34 9 34 25c0 14 -13 19 -36 19h-43l-5 7l48 90c-110 14 -153 76 -169 124l97 70
c15 -47 43 -87 128 -87c73 0 116 37 116 100c0 38 -27 59 -65 74l-69 27c-67 27 -122 78 -122 162c0 121 80 224 252 224c114 0 175 -48 200 -100l-96 -69c-18 37 -56 59 -114 59c-64 0 -105 -41 -105 -102c0 -34 22 -58 59 -71z" />
    <glyph glyph-name="uni0218" unicode="&#x218;" horiz-adv-x="525" 
d="M448 517c-18 37 -56 59 -114 59c-64 0 -105 -41 -105 -102c0 -34 22 -58 59 -71l64 -26c70 -27 133 -70 133 -162c0 -136 -100 -226 -263 -226c-144 0 -197 73 -215 127l97 70c15 -47 43 -87 128 -87c73 0 116 37 116 100c0 38 -27 59 -65 74l-69 27
c-67 27 -122 78 -122 162c0 121 80 224 252 224c114 0 175 -48 200 -100zM193 -216h-91l52 153h129z" />
    <glyph glyph-name="Tcaron" unicode="&#x164;" horiz-adv-x="524" 
d="M293 736l-67 164h102l33 -90l65 90h109l-124 -164h-118zM576 676l-19 -106h-170l-100 -570h-130l100 570h-170l18 106h471z" />
    <glyph glyph-name="uni021A" unicode="&#x21a;" horiz-adv-x="524" 
d="M576 676l-19 -106h-170l-100 -570h-130l100 570h-170l18 106h471zM183 -216h-91l52 153h129z" />
    <glyph glyph-name="Tbar" unicode="&#x166;" horiz-adv-x="524" 
d="M221 365l36 205h-170l18 106h471l-19 -106h-170l-36 -205h81l-13 -78h-81l-51 -287h-130l51 287h-83l13 78h83z" />
    <glyph glyph-name="Thorn" unicode="&#xde;" horiz-adv-x="556" 
d="M179 125l-21 -125h-130l119 677h129l-21 -123h91c130 0 205 -69 205 -177c0 -161 -92 -252 -269 -252h-103zM198 231h87c102 0 130 62 130 134c0 48 -25 83 -92 83h-87z" />
    <glyph glyph-name="Ugrave" unicode="&#xd9;" horiz-adv-x="622" 
d="M413 900l40 -164h-100l-53 164h113zM280 -10c-152 0 -246 79 -213 268l74 418h130l-73 -415c-19 -109 6 -161 91 -161c83 0 127 52 147 161l72 415h130l-73 -418c-33 -189 -135 -268 -285 -268z" />
    <glyph glyph-name="Uacute" unicode="&#xda;" horiz-adv-x="622" 
d="M566 901l-111 -165h-110l98 165h123zM280 -10c-152 0 -246 79 -213 268l74 418h130l-73 -415c-19 -109 6 -161 91 -161c83 0 127 52 147 161l72 415h130l-73 -418c-33 -189 -135 -268 -285 -268z" />
    <glyph glyph-name="Ucircumflex" unicode="&#xdb;" horiz-adv-x="622" 
d="M489 901l67 -165h-103l-33 90l-65 -90h-109l125 165h118zM280 -10c-152 0 -246 79 -213 268l74 418h130l-73 -415c-19 -109 6 -161 91 -161c83 0 127 52 147 161l72 415h130l-73 -418c-33 -189 -135 -268 -285 -268z" />
    <glyph glyph-name="Utilde" unicode="&#x168;" horiz-adv-x="622" 
d="M548 768c-19 15 -41 26 -66 26c-42 0 -97 -42 -155 -42c-29 0 -52 12 -63 22l17 88c14 -17 32 -24 61 -24c40 0 87 40 154 40c35 0 53 -10 70 -21zM280 -10c-152 0 -246 79 -213 268l74 418h130l-73 -415c-19 -109 6 -161 91 -161c83 0 127 52 147 161l72 415h130
l-73 -418c-33 -189 -135 -268 -285 -268z" />
    <glyph glyph-name="Udieresis" unicode="&#xdc;" horiz-adv-x="622" 
d="M311 738c-39 0 -63 18 -63 56c0 56 33 85 81 85c31 0 63 -19 63 -59c0 -60 -41 -82 -81 -82zM498 738c-38 0 -62 18 -62 56c0 56 33 85 81 85c31 0 63 -19 63 -59c0 -60 -41 -82 -82 -82zM280 -10c-152 0 -246 79 -213 268l74 418h130l-73 -415c-19 -109 6 -161 91 -161
c83 0 127 52 147 161l72 415h130l-73 -418c-33 -189 -135 -268 -285 -268z" />
    <glyph glyph-name="Umacron" unicode="&#x16a;" horiz-adv-x="622" 
d="M566 857l-17 -95h-286l16 95h287zM280 -10c-152 0 -246 79 -213 268l74 418h130l-73 -415c-19 -109 6 -161 91 -161c83 0 127 52 147 161l72 415h130l-73 -418c-33 -189 -135 -268 -285 -268z" />
    <glyph glyph-name="Ubreve" unicode="&#x16c;" horiz-adv-x="622" 
d="M574 892c-15 -84 -76 -151 -175 -151c-95 0 -134 67 -120 151h75c0 -38 24 -66 59 -66c39 0 71 28 84 66h77zM280 -10c-152 0 -246 79 -213 268l74 418h130l-73 -415c-19 -109 6 -161 91 -161c83 0 127 52 147 161l72 415h130l-73 -418c-33 -189 -135 -268 -285 -268z
" />
    <glyph glyph-name="Uring" unicode="&#x16e;" horiz-adv-x="622" 
d="M310 811c0 57 42 114 120 114c63 0 93 -43 93 -87c0 -56 -43 -113 -123 -113c-60 0 -90 44 -90 86zM377 818c0 -17 9 -33 31 -33c31 0 47 24 47 46c0 17 -10 33 -33 33c-29 0 -45 -24 -45 -46zM280 -10c-152 0 -246 79 -213 268l74 418h130l-73 -415
c-19 -109 6 -161 91 -161c83 0 127 52 147 161l72 415h130l-73 -418c-33 -189 -135 -268 -285 -268z" />
    <glyph glyph-name="Uhungarumlaut" unicode="&#x170;" horiz-adv-x="622" 
d="M480 901l-112 -165h-108l98 165h122zM654 901l-112 -165h-108l97 165h123zM280 -10c-152 0 -246 79 -213 268l74 418h130l-73 -415c-19 -109 6 -161 91 -161c83 0 127 52 147 161l72 415h130l-73 -418c-33 -189 -135 -268 -285 -268z" />
    <glyph glyph-name="Uogonek" unicode="&#x172;" horiz-adv-x="622" 
d="M508 676h130l-73 -418c-27 -157 -103 -238 -214 -261l-68 -47c-23 -16 -38 -31 -38 -50c0 -12 7 -23 26 -23c18 0 44 11 68 27l-16 -97c-30 -14 -60 -23 -101 -23c-63 0 -104 32 -104 82c0 48 26 75 82 119l14 11c-112 21 -175 102 -147 262l74 418h130l-73 -415
c-19 -109 6 -161 91 -161c83 0 127 52 147 161z" />
    <glyph glyph-name="Wacute" unicode="&#x1e82;" horiz-adv-x="927" 
d="M715 900l-111 -164h-110l98 164h123zM612 676l33 -531l210 531h138l-285 -676h-159l-38 500l-214 -500h-158l-48 676h130l24 -531l219 531h148z" />
    <glyph glyph-name="Wcircumflex" unicode="&#x174;" horiz-adv-x="927" 
d="M639 901l66 -165h-103l-33 90l-65 -90h-108l124 165h119zM612 676l33 -531l210 531h138l-285 -676h-159l-38 500l-214 -500h-158l-48 676h130l24 -531l219 531h148z" />
    <glyph glyph-name="Wdieresis" unicode="&#x1e84;" horiz-adv-x="927" 
d="M459 738c-38 0 -62 18 -62 56c0 56 33 85 81 85c31 0 63 -19 63 -59c0 -60 -41 -82 -82 -82zM647 738c-38 0 -62 18 -62 56c0 56 33 85 81 85c31 0 63 -19 63 -59c0 -60 -41 -82 -82 -82zM612 676l33 -531l210 531h138l-285 -676h-159l-38 500l-214 -500h-158l-48 676
h130l24 -531l219 531h148z" />
    <glyph glyph-name="Wgrave" unicode="&#x1e80;" horiz-adv-x="927" 
d="M558 901l39 -165h-99l-54 165h114zM612 676l33 -531l210 531h138l-285 -676h-159l-38 500l-214 -500h-158l-48 676h130l24 -531l219 531h148z" />
    <glyph glyph-name="Yacute" unicode="&#xdd;" horiz-adv-x="570" 
d="M535 916l-111 -164h-110l98 164h123zM180 0l46 263l-144 413h136l88 -296l190 296h150l-290 -413l-46 -263h-130z" />
    <glyph glyph-name="Ycircumflex" unicode="&#x176;" horiz-adv-x="570" 
d="M453 901l66 -165h-103l-33 90l-64 -90h-109l125 165h118zM180 0l46 263l-144 413h136l88 -296l190 296h150l-290 -413l-46 -263h-130z" />
    <glyph glyph-name="Ydieresis" unicode="&#x178;" horiz-adv-x="570" 
d="M267 738c-38 0 -62 18 -62 56c0 56 33 85 81 85c31 0 63 -19 63 -59c0 -60 -41 -82 -82 -82zM455 738c-38 0 -62 18 -62 56c0 56 33 85 81 85c31 0 63 -19 63 -59c0 -60 -41 -82 -82 -82zM180 0l46 263l-144 413h136l88 -296l190 296h150l-290 -413l-46 -263h-130z" />
    <glyph glyph-name="Ygrave" unicode="&#x1ef2;" horiz-adv-x="570" 
d="M375 901l40 -165h-100l-54 165h114zM180 0l46 263l-144 413h136l88 -296l190 296h150l-290 -413l-46 -263h-130z" />
    <glyph glyph-name="Zacute" unicode="&#x179;" horiz-adv-x="502" 
d="M501 916l-111 -164h-110l98 164h123zM522 582l-352 -476h278l-19 -106h-438l17 91l352 479h-254l18 106h415z" />
    <glyph glyph-name="Zcaron" unicode="&#x17d;" horiz-adv-x="502" 
d="M281 736l-66 165h102l33 -90l65 90h109l-124 -165h-119zM522 582l-352 -476h278l-19 -106h-438l17 91l352 479h-254l18 106h415z" />
    <glyph glyph-name="Zdotaccent" unicode="&#x17b;" horiz-adv-x="502" 
d="M346 738c-36 0 -64 15 -64 57c0 59 37 84 85 84c31 0 60 -22 60 -61c0 -57 -40 -80 -81 -80zM522 582l-352 -476h278l-19 -106h-438l17 91l352 479h-254l18 106h415z" />
    <glyph glyph-name="agrave" unicode="&#xe0;" horiz-adv-x="507" 
d="M325 696l40 -164h-100l-53 164h113zM372 456h119l-80 -456h-113l6 37c-29 -29 -66 -47 -117 -47c-97 0 -153 66 -153 183c0 191 94 293 219 293c56 0 95 -25 113 -44zM158 189c0 -51 19 -90 73 -90c37 0 65 15 85 32l33 194c-12 14 -35 31 -72 31
c-91 0 -119 -82 -119 -167z" />
    <glyph glyph-name="aacute" unicode="&#xe1;" horiz-adv-x="507" 
d="M465 696l-111 -164h-110l98 164h123zM372 456h119l-80 -456h-113l6 37c-29 -29 -66 -47 -117 -47c-97 0 -153 66 -153 183c0 191 94 293 219 293c56 0 95 -25 113 -44zM158 189c0 -51 19 -90 73 -90c37 0 65 15 85 32l33 194c-12 14 -35 31 -72 31
c-91 0 -119 -82 -119 -167z" />
    <glyph glyph-name="acircumflex" unicode="&#xe2;" horiz-adv-x="507" 
d="M402 696l66 -164h-103l-32 89l-65 -89h-109l125 164h118zM372 456h119l-80 -456h-113l6 37c-29 -29 -66 -47 -117 -47c-97 0 -153 66 -153 183c0 191 94 293 219 293c56 0 95 -25 113 -44zM158 189c0 -51 19 -90 73 -90c37 0 65 15 85 32l33 194c-12 14 -35 31 -72 31
c-91 0 -119 -82 -119 -167z" />
    <glyph glyph-name="atilde" unicode="&#xe3;" horiz-adv-x="507" 
d="M457 564c-20 14 -41 25 -67 25c-41 0 -97 -41 -154 -41c-29 0 -52 11 -63 22l17 88c14 -17 32 -25 61 -25c40 0 87 41 154 41c35 0 53 -11 70 -22zM372 456h119l-80 -456h-113l6 37c-29 -29 -66 -47 -117 -47c-97 0 -153 66 -153 183c0 191 94 293 219 293
c56 0 95 -25 113 -44zM158 189c0 -51 19 -90 73 -90c37 0 65 15 85 32l33 194c-12 14 -35 31 -72 31c-91 0 -119 -82 -119 -167z" />
    <glyph glyph-name="adieresis" unicode="&#xe4;" horiz-adv-x="507" 
d="M222 533c-39 0 -63 19 -63 57c0 55 34 84 81 84c31 0 63 -19 63 -58c0 -60 -41 -83 -81 -83zM409 533c-38 0 -62 19 -62 57c0 55 33 84 81 84c31 0 63 -19 63 -58c0 -60 -41 -83 -82 -83zM372 456h119l-80 -456h-113l6 37c-29 -29 -66 -47 -117 -47
c-97 0 -153 66 -153 183c0 191 94 293 219 293c56 0 95 -25 113 -44zM158 189c0 -51 19 -90 73 -90c37 0 65 15 85 32l33 194c-12 14 -35 31 -72 31c-91 0 -119 -82 -119 -167z" />
    <glyph glyph-name="amacron" unicode="&#x101;" horiz-adv-x="507" 
d="M482 652l-17 -95h-286l16 95h287zM372 456h119l-80 -456h-113l6 37c-29 -29 -66 -47 -117 -47c-97 0 -153 66 -153 183c0 191 94 293 219 293c56 0 95 -25 113 -44zM158 189c0 -51 19 -90 73 -90c37 0 65 15 85 32l33 194c-12 14 -35 31 -72 31c-91 0 -119 -82 -119 -167
z" />
    <glyph glyph-name="abreve" unicode="&#x103;" horiz-adv-x="507" 
d="M488 688c-15 -85 -76 -152 -175 -152c-95 0 -134 67 -120 152h75c0 -39 24 -66 59 -66c38 0 71 27 84 66h77zM372 456h119l-80 -456h-113l6 37c-29 -29 -66 -47 -117 -47c-97 0 -153 66 -153 183c0 191 94 293 219 293c56 0 95 -25 113 -44zM158 189c0 -51 19 -90 73 -90
c37 0 65 15 85 32l33 194c-12 14 -35 31 -72 31c-91 0 -119 -82 -119 -167z" />
    <glyph glyph-name="aring" unicode="&#xe5;" horiz-adv-x="507" 
d="M218 606c0 58 42 114 119 114c64 0 94 -43 94 -86c0 -56 -43 -114 -123 -114c-60 0 -90 45 -90 86zM285 613c0 -16 9 -32 31 -32c31 0 47 23 47 46c0 17 -10 33 -33 33c-29 0 -45 -24 -45 -47zM372 456h119l-80 -456h-113l6 37c-29 -29 -66 -47 -117 -47
c-97 0 -153 66 -153 183c0 191 94 293 219 293c56 0 95 -25 113 -44zM158 189c0 -51 19 -90 73 -90c37 0 65 15 85 32l33 194c-12 14 -35 31 -72 31c-91 0 -119 -82 -119 -167z" />
    <glyph glyph-name="aringacute" unicode="&#x1fb;" horiz-adv-x="507" 
d="M218 598c0 50 33 98 95 108l49 76h111l-77 -87c22 -15 34 -45 34 -73c0 -57 -47 -110 -122 -110c-63 0 -90 44 -90 86zM282 602c0 -17 11 -32 32 -32c33 0 50 23 50 47c0 18 -11 35 -35 35c-29 0 -47 -25 -47 -50zM372 456h119l-80 -456h-113l6 37
c-29 -29 -66 -47 -117 -47c-97 0 -153 66 -153 183c0 191 94 293 219 293c56 0 95 -25 113 -44zM158 189c0 -51 19 -90 73 -90c37 0 65 15 85 32l33 194c-12 14 -35 31 -72 31c-91 0 -119 -82 -119 -167z" />
    <glyph glyph-name="aogonek" unicode="&#x105;" horiz-adv-x="507" 
d="M372 456h119l-80 -456h-9l-72 -50c-23 -16 -38 -31 -38 -50c0 -12 7 -23 26 -23c17 0 44 11 68 27l-17 -97c-30 -14 -59 -23 -101 -23c-62 0 -104 32 -104 82c0 48 30 79 90 119l47 32l3 20c-29 -29 -66 -47 -117 -47c-97 0 -153 66 -153 183c0 191 94 293 219 293
c56 0 95 -25 113 -44zM231 99c37 0 65 15 85 32l33 194c-12 14 -35 31 -72 31c-91 0 -119 -82 -119 -167c0 -51 19 -90 73 -90z" />
    <glyph glyph-name="ae" unicode="&#xe6;" horiz-adv-x="687" 
d="M453 90c34 0 75 15 112 44l44 -83c-41 -35 -98 -62 -167 -62c-77 0 -124 25 -151 68c-43 -37 -100 -68 -178 -68c-82 0 -132 48 -132 113c0 117 89 162 235 173l52 4l5 30c7 38 -3 63 -56 63c-43 0 -72 -19 -77 -44l-2 -18h-100c1 9 2 21 4 31c13 74 83 125 193 125
c59 0 106 -16 129 -50c34 33 80 50 135 50c112 0 160 -79 160 -158c0 -44 -15 -92 -25 -118h-259c-9 -62 16 -100 78 -100zM545 275c2 6 6 13 6 32c0 42 -29 63 -63 63c-54 0 -85 -42 -98 -95h155zM105 119c0 -25 17 -39 45 -39c31 0 65 17 90 40l16 86l-47 -6
c-69 -10 -104 -35 -104 -81z" />
    <glyph glyph-name="aeacute" unicode="&#x1fd;" horiz-adv-x="687" 
d="M587 696l-111 -164h-109l97 164h123zM453 90c34 0 75 15 112 44l44 -83c-41 -35 -98 -62 -167 -62c-77 0 -124 25 -151 68c-43 -37 -100 -68 -178 -68c-82 0 -132 48 -132 113c0 117 89 162 235 173l52 4l5 30c7 38 -3 63 -56 63c-43 0 -72 -19 -77 -44l-2 -18h-100
c1 9 2 21 4 31c13 74 83 125 193 125c59 0 106 -16 129 -50c34 33 80 50 135 50c112 0 160 -79 160 -158c0 -44 -15 -92 -25 -118h-259c-9 -62 16 -100 78 -100zM545 275c2 6 6 13 6 32c0 42 -29 63 -63 63c-54 0 -85 -42 -98 -95h155zM105 119c0 -25 17 -39 45 -39
c31 0 65 17 90 40l16 86l-47 -6c-69 -10 -104 -35 -104 -81z" />
    <glyph glyph-name="cacute" unicode="&#x107;" horiz-adv-x="437" 
d="M430 696l-111 -164h-110l98 164h123zM32 173c0 161 81 293 241 293c84 0 144 -34 167 -101l-89 -57c-13 33 -39 53 -78 53c-87 0 -118 -90 -118 -174c0 -52 21 -93 72 -93c39 0 70 23 94 56l75 -62c-44 -64 -108 -98 -188 -98c-119 0 -176 83 -176 183z" />
    <glyph glyph-name="ccircumflex" unicode="&#x109;" horiz-adv-x="437" 
d="M388 696l66 -164h-103l-33 89l-65 -89h-109l125 164h119zM32 173c0 161 81 293 241 293c84 0 144 -34 167 -101l-89 -57c-13 33 -39 53 -78 53c-87 0 -118 -90 -118 -174c0 -52 21 -93 72 -93c39 0 70 23 94 56l75 -62c-44 -64 -108 -98 -188 -98
c-119 0 -176 83 -176 183z" />
    <glyph glyph-name="ccaron" unicode="&#x10d;" horiz-adv-x="437" 
d="M242 532l-66 164h102l33 -90l65 90h108l-123 -164h-119zM32 173c0 161 81 293 241 293c84 0 144 -34 167 -101l-89 -57c-13 33 -39 53 -78 53c-87 0 -118 -90 -118 -174c0 -52 21 -93 72 -93c39 0 70 23 94 56l75 -62c-44 -64 -108 -98 -188 -98c-119 0 -176 83 -176 183
z" />
    <glyph glyph-name="cdotaccent" unicode="&#x10b;" horiz-adv-x="437" 
d="M308 533c-36 0 -64 15 -64 58c0 58 38 83 85 83c31 0 60 -21 60 -61c0 -57 -40 -80 -81 -80zM32 173c0 161 81 293 241 293c84 0 144 -34 167 -101l-89 -57c-13 33 -39 53 -78 53c-87 0 -118 -90 -118 -174c0 -52 21 -93 72 -93c39 0 70 23 94 56l75 -62
c-44 -64 -108 -98 -188 -98c-119 0 -176 83 -176 183z" />
    <glyph glyph-name="ccedilla" unicode="&#xe7;" horiz-adv-x="437" 
d="M227 94c39 0 70 23 94 56l75 -62c-37 -54 -88 -86 -151 -95l-22 -41c44 0 75 -20 75 -67c0 -68 -53 -101 -125 -101c-39 0 -70 9 -94 23l13 71c20 -16 51 -27 79 -27c22 0 34 9 34 25c0 14 -12 19 -35 19h-44l-5 7l49 91c-93 16 -138 91 -138 180c0 161 81 293 241 293
c84 0 144 -34 167 -101l-89 -57c-13 33 -39 53 -78 53c-87 0 -118 -90 -118 -174c0 -52 21 -93 72 -93z" />
    <glyph glyph-name="dcaron" unicode="&#x10f;" horiz-adv-x="507" 
d="M414 690h119l-122 -690h-113l6 37c-29 -29 -66 -47 -117 -47c-97 0 -153 66 -153 183c0 191 94 293 219 293c56 0 95 -25 113 -44zM634 537h-91l52 153h129zM158 189c0 -51 19 -90 73 -90c37 0 65 15 85 32l33 194c-12 14 -35 31 -72 31c-91 0 -119 -82 -119 -167z" />
    <glyph glyph-name="dcroat" unicode="&#x111;" horiz-adv-x="507" 
d="M569 603l-13 -78h-52l-93 -525h-113l6 37c-29 -29 -66 -47 -117 -47c-97 0 -153 66 -153 183c0 191 94 293 219 293c56 0 95 -25 113 -44l18 103h-84l14 78h84l16 87h119l-15 -87h51zM316 131l33 194c-12 14 -35 31 -72 31c-91 0 -119 -82 -119 -167c0 -51 19 -90 73 -90
c37 0 65 15 85 32z" />
    <glyph glyph-name="eth" unicode="&#xf0;" horiz-adv-x="519" 
d="M535 584l-57 -24c13 -48 20 -101 20 -155c0 -202 -80 -416 -283 -416c-121 0 -183 79 -183 185c0 167 94 273 223 273c72 0 111 -36 128 -70c6 45 -1 93 -14 138l-69 -28l-24 70l67 27c-19 40 -42 77 -66 106h141c13 -16 25 -37 36 -60l59 24zM227 93
c70 0 116 76 131 166c-12 43 -43 76 -92 76c-77 0 -115 -68 -115 -152c0 -50 22 -90 76 -90z" />
    <glyph glyph-name="egrave" unicode="&#xe8;" horiz-adv-x="457" 
d="M300 696l40 -164h-100l-53 164h113zM229 90c36 0 75 15 112 43l44 -82c-39 -35 -95 -61 -165 -61c-132 0 -189 77 -189 188c0 162 100 288 239 288c112 0 165 -76 165 -158c0 -44 -15 -92 -25 -118h-259c-8 -61 16 -100 78 -100zM321 275c2 6 5 13 5 32
c0 42 -27 63 -62 63c-54 0 -86 -42 -98 -95h155z" />
    <glyph glyph-name="eacute" unicode="&#xe9;" horiz-adv-x="457" 
d="M455 696l-111 -164h-110l98 164h123zM229 90c36 0 75 15 112 43l44 -82c-39 -35 -95 -61 -165 -61c-132 0 -189 77 -189 188c0 162 100 288 239 288c112 0 165 -76 165 -158c0 -44 -15 -92 -25 -118h-259c-8 -61 16 -100 78 -100zM321 275c2 6 5 13 5 32
c0 42 -27 63 -62 63c-54 0 -86 -42 -98 -95h155z" />
    <glyph glyph-name="ecircumflex" unicode="&#xea;" horiz-adv-x="457" 
d="M385 696l66 -164h-102l-33 89l-65 -89h-109l125 164h118zM229 90c36 0 75 15 112 43l44 -82c-39 -35 -95 -61 -165 -61c-132 0 -189 77 -189 188c0 162 100 288 239 288c112 0 165 -76 165 -158c0 -44 -15 -92 -25 -118h-259c-8 -61 16 -100 78 -100zM321 275
c2 6 5 13 5 32c0 42 -27 63 -62 63c-54 0 -86 -42 -98 -95h155z" />
    <glyph glyph-name="ecaron" unicode="&#x11b;" horiz-adv-x="457" 
d="M239 532l-67 164h103l33 -90l65 90h108l-124 -164h-118zM229 90c36 0 75 15 112 43l44 -82c-39 -35 -95 -61 -165 -61c-132 0 -189 77 -189 188c0 162 100 288 239 288c112 0 165 -76 165 -158c0 -44 -15 -92 -25 -118h-259c-8 -61 16 -100 78 -100zM321 275
c2 6 5 13 5 32c0 42 -27 63 -62 63c-54 0 -86 -42 -98 -95h155z" />
    <glyph glyph-name="edieresis" unicode="&#xeb;" horiz-adv-x="457" 
d="M208 533c-39 0 -63 19 -63 57c0 55 34 84 81 84c31 0 63 -19 63 -58c0 -60 -41 -83 -81 -83zM396 533c-39 0 -63 19 -63 57c0 55 33 84 81 84c31 0 63 -19 63 -58c0 -60 -40 -83 -81 -83zM229 90c36 0 75 15 112 43l44 -82c-39 -35 -95 -61 -165 -61
c-132 0 -189 77 -189 188c0 162 100 288 239 288c112 0 165 -76 165 -158c0 -44 -15 -92 -25 -118h-259c-8 -61 16 -100 78 -100zM321 275c2 6 5 13 5 32c0 42 -27 63 -62 63c-54 0 -86 -42 -98 -95h155z" />
    <glyph glyph-name="emacron" unicode="&#x113;" horiz-adv-x="457" 
d="M462 652l-18 -95h-285l16 95h287zM229 90c36 0 75 15 112 43l44 -82c-39 -35 -95 -61 -165 -61c-132 0 -189 77 -189 188c0 162 100 288 239 288c112 0 165 -76 165 -158c0 -44 -15 -92 -25 -118h-259c-8 -61 16 -100 78 -100zM321 275c2 6 5 13 5 32c0 42 -27 63 -62 63
c-54 0 -86 -42 -98 -95h155z" />
    <glyph glyph-name="ebreve" unicode="&#x115;" horiz-adv-x="457" 
d="M469 688c-15 -85 -76 -152 -175 -152c-95 0 -134 67 -120 152h75c0 -39 24 -66 59 -66c39 0 71 27 84 66h77zM229 90c36 0 75 15 112 43l44 -82c-39 -35 -95 -61 -165 -61c-132 0 -189 77 -189 188c0 162 100 288 239 288c112 0 165 -76 165 -158c0 -44 -15 -92 -25 -118
h-259c-8 -61 16 -100 78 -100zM321 275c2 6 5 13 5 32c0 42 -27 63 -62 63c-54 0 -86 -42 -98 -95h155z" />
    <glyph glyph-name="edotaccent" unicode="&#x117;" horiz-adv-x="457" 
d="M307 533c-36 0 -64 15 -64 58c0 58 38 83 85 83c31 0 60 -21 60 -61c0 -57 -40 -80 -81 -80zM229 90c36 0 75 15 112 43l44 -82c-39 -35 -95 -61 -165 -61c-132 0 -189 77 -189 188c0 162 100 288 239 288c112 0 165 -76 165 -158c0 -44 -15 -92 -25 -118h-259
c-8 -61 16 -100 78 -100zM321 275c2 6 5 13 5 32c0 42 -27 63 -62 63c-54 0 -86 -42 -98 -95h155z" />
    <glyph glyph-name="eogonek" unicode="&#x119;" horiz-adv-x="457" 
d="M410 190h-259c-8 -61 16 -100 78 -100c36 0 75 15 112 43l44 -82c-10 -9 -21 -17 -33 -25l-42 -40c-47 -44 -61 -66 -61 -85c0 -14 10 -24 24 -24c15 0 46 11 70 27l-17 -97c-30 -13 -62 -23 -104 -23c-62 0 -100 29 -100 79c0 38 21 67 82 127c-121 7 -173 82 -173 188
c0 162 100 288 239 288c112 0 165 -76 165 -158c0 -44 -15 -92 -25 -118zM264 370c-54 0 -86 -42 -98 -95h155c2 6 5 13 5 32c0 42 -27 63 -62 63z" />
    <glyph glyph-name="gcircumflex" unicode="&#x11d;" horiz-adv-x="505" 
d="M401 696l66 -164h-103l-33 89l-65 -89h-108l124 164h119zM491 456l-86 -484c-19 -107 -99 -178 -220 -178c-122 0 -179 63 -164 150h103c-4 -28 14 -56 68 -56c51 0 83 28 93 77l11 66c-22 -21 -61 -41 -104 -41c-110 0 -158 70 -158 183c0 185 88 293 223 293
c59 0 96 -24 114 -48l7 38h113zM157 188c0 -48 18 -89 72 -89c31 0 64 14 85 32l34 195c-11 14 -36 30 -73 30c-76 0 -118 -63 -118 -168z" />
    <glyph glyph-name="gbreve" unicode="&#x11f;" horiz-adv-x="505" 
d="M491 688c-14 -85 -75 -152 -175 -152c-95 0 -134 67 -120 152h75c0 -39 24 -66 59 -66c39 0 71 27 84 66h77zM491 456l-86 -484c-19 -107 -99 -178 -220 -178c-122 0 -179 63 -164 150h103c-4 -28 14 -56 68 -56c51 0 83 28 93 77l11 66c-22 -21 -61 -41 -104 -41
c-110 0 -158 70 -158 183c0 185 88 293 223 293c59 0 96 -24 114 -48l7 38h113zM157 188c0 -48 18 -89 72 -89c31 0 64 14 85 32l34 195c-11 14 -36 30 -73 30c-76 0 -118 -63 -118 -168z" />
    <glyph glyph-name="gdotaccent" unicode="&#x121;" horiz-adv-x="505" 
d="M321 533c-36 0 -64 15 -64 58c0 58 37 83 85 83c31 0 60 -21 60 -61c0 -57 -40 -80 -81 -80zM491 456l-86 -484c-19 -107 -99 -178 -220 -178c-122 0 -179 63 -164 150h103c-4 -28 14 -56 68 -56c51 0 83 28 93 77l11 66c-22 -21 -61 -41 -104 -41
c-110 0 -158 70 -158 183c0 185 88 293 223 293c59 0 96 -24 114 -48l7 38h113zM157 188c0 -48 18 -89 72 -89c31 0 64 14 85 32l34 195c-11 14 -36 30 -73 30c-76 0 -118 -63 -118 -168z" />
    <glyph glyph-name="uni0123" unicode="&#x123;" horiz-adv-x="505" 
d="M359 734h92l-71 -185h-131zM491 456l-86 -484c-19 -107 -99 -178 -220 -178c-122 0 -179 63 -164 150h103c-4 -28 14 -56 68 -56c51 0 83 28 93 77l11 66c-22 -21 -61 -41 -104 -41c-110 0 -158 70 -158 183c0 185 88 293 223 293c59 0 96 -24 114 -48l7 38h113zM157 188
c0 -48 18 -89 72 -89c31 0 64 14 85 32l34 195c-11 14 -36 30 -73 30c-76 0 -118 -63 -118 -168z" />
    <glyph glyph-name="hcircumflex" unicode="&#x125;" horiz-adv-x="502" 
d="M437 893l66 -164h-103l-32 89l-65 -89h-109l125 164h118zM137 690h120l-47 -270c24 21 68 46 126 46c99 0 145 -64 125 -181l-50 -285h-120l49 272c9 57 -6 84 -62 84c-31 0 -67 -18 -87 -34l-56 -322h-120z" />
    <glyph glyph-name="hbar" unicode="&#x127;" horiz-adv-x="502" 
d="M336 466c99 0 145 -64 125 -181l-50 -285h-120l49 272c9 57 -6 84 -62 84c-31 0 -67 -18 -87 -34l-56 -322h-120l93 525h-46l14 78h46l15 87h120l-15 -87h88l-13 -78h-89l-18 -105c24 21 68 46 126 46z" />
    <glyph glyph-name="dotlessi" unicode="&#x131;" horiz-adv-x="229" 
d="M95 456h120l-81 -456h-120z" />
    <glyph glyph-name="igrave" unicode="&#xec;" horiz-adv-x="229" 
d="M182 696l40 -164h-100l-53 164h113zM95 456h120l-81 -456h-120z" />
    <glyph glyph-name="iacute" unicode="&#xed;" horiz-adv-x="229" 
d="M328 696l-112 -164h-109l98 164h123zM95 456h120l-81 -456h-120z" />
    <glyph glyph-name="ibreve" unicode="&#x12d;" horiz-adv-x="229" 
d="M341 688c-14 -85 -75 -152 -175 -152c-95 0 -134 67 -119 152h74c0 -39 24 -66 59 -66c39 0 71 27 84 66h77zM95 456h120l-81 -456h-120z" />
    <glyph glyph-name="icircumflex" unicode="&#xee;" horiz-adv-x="229" 
d="M257 696l66 -164h-103l-33 89l-65 -89h-109l125 164h119zM95 456h120l-81 -456h-120z" />
    <glyph glyph-name="itilde" unicode="&#x129;" horiz-adv-x="229" 
d="M312 564c-19 14 -41 25 -66 25c-42 0 -97 -41 -155 -41c-29 0 -52 11 -63 22l17 88c14 -17 33 -25 62 -25c39 0 86 41 153 41c35 0 53 -11 70 -22zM95 456h120l-81 -456h-120z" />
    <glyph glyph-name="idieresis" unicode="&#xef;" horiz-adv-x="229" 
d="M77 533c-39 0 -63 19 -63 57c0 55 34 84 81 84c31 0 63 -19 63 -58c0 -60 -40 -83 -81 -83zM265 533c-39 0 -63 19 -63 57c0 55 33 84 81 84c31 0 63 -19 63 -58c0 -60 -40 -83 -81 -83zM95 456h120l-81 -456h-120z" />
    <glyph glyph-name="imacron" unicode="&#x12b;" horiz-adv-x="229" 
d="M330 652l-17 -95h-286l17 95h286zM95 456h120l-81 -456h-120z" />
    <glyph glyph-name="iogonek" unicode="&#x12f;" horiz-adv-x="230" 
d="M193 684c32 0 60 -19 60 -58c0 -60 -44 -83 -84 -83c-36 0 -61 16 -61 55c0 59 38 86 85 86zM95 456h120l-81 -456h1l-73 -50c-23 -16 -38 -31 -38 -50c0 -12 7 -23 26 -23c18 0 44 11 68 27l-17 -97c-30 -14 -59 -23 -101 -23c-62 0 -103 32 -103 82c0 48 25 75 82 119
l38 30z" />
    <glyph glyph-name="uni0237" unicode="&#x237;" horiz-adv-x="230" 
d="M-92 -146c55 29 93 68 103 129l84 473h120l-79 -450c-18 -100 -68 -181 -166 -232z" />
    <glyph glyph-name="jcircumflex" unicode="&#x135;" horiz-adv-x="230" 
d="M256 696l67 -164h-103l-33 89l-65 -89h-109l125 164h118zM-92 -146c55 29 93 68 103 129l84 473h120l-79 -450c-18 -100 -68 -181 -166 -232z" />
    <glyph glyph-name="uni0137" unicode="&#x137;" horiz-adv-x="479" 
d="M308 0l-77 207l-71 -62l-25 -145h-120l122 690h120l-69 -392l172 158h156l-194 -170l108 -286h-122zM178 -216h-90l51 153h129z" />
    <glyph glyph-name="kgreenlandic" unicode="&#x138;" horiz-adv-x="486" 
d="M304 0l-75 195l-72 -63l-23 -132h-120l81 456h120l-31 -168l183 168h159l-204 -180l107 -276h-125z" />
    <glyph glyph-name="lacute" unicode="&#x13a;" horiz-adv-x="250" 
d="M365 893l-111 -164h-110l98 164h123zM254 690l-96 -542c-5 -32 2 -42 28 -42h22l-20 -111h-52c-91 0 -113 57 -100 135l98 560h120z" />
    <glyph glyph-name="lcaron" unicode="&#x13e;" horiz-adv-x="247" 
d="M261 690l-96 -542c-5 -32 2 -42 28 -42h22l-20 -111h-52c-90 0 -113 57 -100 135l98 560h120zM372 537h-91l51 153h129z" />
    <glyph glyph-name="uni013C" unicode="&#x13c;" horiz-adv-x="247" 
d="M261 690l-96 -542c-6 -32 1 -42 28 -42h22l-20 -111h-52c-91 0 -114 57 -100 135l98 560h120zM80 -216h-91l51 153h129z" />
    <glyph glyph-name="lslash" unicode="&#x142;" horiz-adv-x="266" 
d="M213 343l-35 -195c-5 -32 2 -42 29 -42h21l-19 -111h-53c-90 0 -113 57 -100 135l28 157l-60 -26l17 92l59 26l55 311h119l-45 -254l59 26l-16 -93z" />
    <glyph glyph-name="ldot" unicode="&#x140;" horiz-adv-x="398" 
d="M261 690l-96 -542c-5 -32 2 -42 28 -42h22l-20 -111h-52c-90 0 -113 57 -100 135l98 560h120zM330 291c-44 0 -74 32 -74 70c0 54 42 91 97 91c41 0 71 -32 71 -71c0 -53 -42 -90 -94 -90z" />
    <glyph glyph-name="nacute" unicode="&#x144;" horiz-adv-x="501" 
d="M462 696l-111 -164h-110l98 164h123zM95 456h116l-8 -44c25 25 68 54 133 54c96 0 146 -62 125 -181l-51 -285h-119l48 272c10 57 -6 84 -62 84c-31 0 -67 -17 -86 -34l-57 -322h-120z" />
    <glyph glyph-name="ncaron" unicode="&#x148;" horiz-adv-x="499" 
d="M254 532l-66 164h102l33 -90l65 90h108l-123 -164h-119zM102 456h116l-8 -44c26 25 68 54 133 54c96 0 146 -62 125 -181l-51 -285h-119l48 272c10 57 -6 84 -62 84c-31 0 -67 -17 -86 -34l-57 -322h-120z" />
    <glyph glyph-name="ntilde" unicode="&#xf1;" horiz-adv-x="499" 
d="M455 564c-20 14 -42 25 -67 25c-41 0 -97 -41 -154 -41c-29 0 -52 11 -63 22l17 88c14 -17 32 -25 61 -25c40 0 87 41 154 41c35 0 53 -11 69 -22zM95 456h116l-8 -44c25 25 68 54 133 54c96 0 146 -62 125 -181l-51 -285h-119l48 272c10 57 -6 84 -62 84
c-31 0 -67 -17 -86 -34l-57 -322h-120z" />
    <glyph glyph-name="uni0146" unicode="&#x146;" horiz-adv-x="499" 
d="M95 456h116l-8 -44c25 25 68 54 133 54c96 0 146 -62 125 -181l-51 -285h-119l48 272c10 57 -6 84 -62 84c-31 0 -67 -17 -86 -34l-57 -322h-120zM179 -216h-91l51 153h129z" />
    <glyph glyph-name="napostrophe" unicode="&#x149;" horiz-adv-x="501" 
d="M107 544h-91l52 153h129zM95 456h116l-8 -44c25 25 68 54 133 54c96 0 146 -62 125 -181l-51 -285h-119l48 272c10 57 -6 84 -62 84c-31 0 -67 -17 -86 -34l-57 -322h-120z" />
    <glyph glyph-name="ograve" unicode="&#xf2;" horiz-adv-x="488" 
d="M315 696l40 -164h-100l-53 164h113zM277 466c125 0 179 -79 179 -192c0 -159 -90 -284 -245 -284c-125 0 -178 82 -178 192c0 158 88 284 244 284zM220 97c69 0 114 79 114 177c0 56 -21 85 -67 85c-69 0 -112 -77 -112 -177c0 -55 20 -85 65 -85z" />
    <glyph glyph-name="oacute" unicode="&#xf3;" horiz-adv-x="486" 
d="M459 696l-111 -164h-109l98 164h122zM277 466c125 0 179 -79 179 -192c0 -159 -90 -284 -245 -284c-125 0 -178 82 -178 192c0 158 88 284 244 284zM220 97c69 0 114 79 114 177c0 56 -21 85 -67 85c-69 0 -112 -77 -112 -177c0 -55 20 -85 65 -85z" />
    <glyph glyph-name="ocircumflex" unicode="&#xf4;" horiz-adv-x="486" 
d="M387 696l67 -164h-103l-33 89l-65 -89h-109l125 164h118zM277 466c125 0 179 -79 179 -192c0 -159 -90 -284 -245 -284c-125 0 -178 82 -178 192c0 158 88 284 244 284zM220 97c69 0 114 79 114 177c0 56 -21 85 -67 85c-69 0 -112 -77 -112 -177c0 -55 20 -85 65 -85z
" />
    <glyph glyph-name="otilde" unicode="&#xf5;" horiz-adv-x="486" 
d="M447 564c-19 14 -41 25 -66 25c-42 0 -97 -41 -155 -41c-29 0 -52 11 -63 22l18 88c14 -17 32 -25 61 -25c39 0 87 41 154 41c34 0 52 -11 69 -22zM277 466c125 0 179 -79 179 -192c0 -159 -90 -284 -245 -284c-125 0 -178 82 -178 192c0 158 88 284 244 284zM220 97
c69 0 114 79 114 177c0 56 -21 85 -67 85c-69 0 -112 -77 -112 -177c0 -55 20 -85 65 -85z" />
    <glyph glyph-name="odieresis" unicode="&#xf6;" horiz-adv-x="486" 
d="M209 533c-39 0 -63 19 -63 57c0 55 34 84 81 84c31 0 63 -19 63 -58c0 -60 -41 -83 -81 -83zM396 533c-38 0 -62 19 -62 57c0 55 33 84 81 84c31 0 63 -19 63 -58c0 -60 -41 -83 -82 -83zM277 466c125 0 179 -79 179 -192c0 -159 -90 -284 -245 -284
c-125 0 -178 82 -178 192c0 158 88 284 244 284zM220 97c69 0 114 79 114 177c0 56 -21 85 -67 85c-69 0 -112 -77 -112 -177c0 -55 20 -85 65 -85z" />
    <glyph glyph-name="omacron" unicode="&#x14d;" horiz-adv-x="486" 
d="M464 652l-17 -95h-286l16 95h287zM277 466c125 0 179 -79 179 -192c0 -159 -90 -284 -245 -284c-125 0 -178 82 -178 192c0 158 88 284 244 284zM220 97c69 0 114 79 114 177c0 56 -21 85 -67 85c-69 0 -112 -77 -112 -177c0 -55 20 -85 65 -85z" />
    <glyph glyph-name="obreve" unicode="&#x14f;" horiz-adv-x="486" 
d="M473 688c-15 -85 -76 -152 -175 -152c-95 0 -134 67 -120 152h75c0 -39 24 -66 59 -66c38 0 71 27 84 66h77zM277 466c125 0 179 -79 179 -192c0 -159 -90 -284 -245 -284c-125 0 -178 82 -178 192c0 158 88 284 244 284zM220 97c69 0 114 79 114 177c0 56 -21 85 -67 85
c-69 0 -112 -77 -112 -177c0 -55 20 -85 65 -85z" />
    <glyph glyph-name="ohungarumlaut" unicode="&#x151;" horiz-adv-x="486" 
d="M368 696l-112 -164h-108l98 164h122zM543 696l-112 -164h-109l97 164h124zM277 466c125 0 179 -79 179 -192c0 -159 -90 -284 -245 -284c-125 0 -178 82 -178 192c0 158 88 284 244 284zM220 97c69 0 114 79 114 177c0 56 -21 85 -67 85c-69 0 -112 -77 -112 -177
c0 -55 20 -85 65 -85z" />
    <glyph glyph-name="oslash" unicode="&#xf8;" horiz-adv-x="488" 
d="M500 456l-67 -73c16 -30 23 -67 23 -109c0 -159 -90 -284 -245 -284c-45 0 -81 11 -109 30l-18 -20h-88l62 69c-17 31 -25 70 -25 113c0 158 88 284 244 284c47 0 85 -11 112 -32l20 22h91zM155 182v-6l154 170c-10 9 -24 13 -42 13c-69 0 -112 -77 -112 -177zM334 274
l-152 -166c10 -7 22 -11 38 -11c69 0 114 79 114 177z" />
    <glyph glyph-name="oslashacute" unicode="&#x1ff;" horiz-adv-x="487" 
d="M433 696l-111 -164h-110l98 164h123zM500 456l-67 -73c16 -30 23 -67 23 -109c0 -159 -90 -284 -245 -284c-45 0 -81 11 -109 30l-18 -20h-88l62 69c-17 31 -25 70 -25 113c0 158 88 284 244 284c47 0 85 -11 112 -32l20 22h91zM155 182v-6l154 170c-10 9 -24 13 -42 13
c-69 0 -112 -77 -112 -177zM334 274l-152 -166c10 -7 22 -11 38 -11c69 0 114 79 114 177z" />
    <glyph glyph-name="oe" unicode="&#x153;" horiz-adv-x="759" 
d="M530 90c36 0 76 16 112 44l45 -83c-40 -35 -99 -61 -168 -61c-74 0 -122 24 -149 66c-40 -41 -94 -66 -163 -66c-115 0 -174 84 -174 190c0 158 77 286 250 286c70 0 112 -28 137 -70c39 42 92 70 156 70c114 0 160 -83 160 -164c0 -44 -14 -86 -25 -112h-259
c-9 -62 16 -100 78 -100zM622 275c2 6 6 13 6 32c0 42 -29 63 -62 63c-55 0 -86 -42 -99 -95h155zM221 97c78 0 113 74 113 173c0 56 -22 89 -68 89c-77 0 -111 -74 -111 -174c0 -56 22 -88 66 -88z" />
    <glyph glyph-name="racute" unicode="&#x155;" horiz-adv-x="347" 
d="M385 696l-111 -164h-110l98 164h123zM200 393c17 34 62 73 118 73c24 0 44 -4 56 -8l-30 -125c-18 6 -40 10 -61 10c-38 0 -78 -23 -98 -56l-51 -287h-120l81 456h115l-11 -63h1z" />
    <glyph glyph-name="rcaron" unicode="&#x159;" horiz-adv-x="347" 
d="M173 532l-67 164h102l33 -90l65 90h109l-124 -164h-118zM200 393c17 34 62 73 118 73c24 0 44 -4 56 -8l-30 -125c-18 6 -40 10 -61 10c-38 0 -78 -23 -98 -56l-51 -287h-120l81 456h115l-11 -63h1z" />
    <glyph glyph-name="uni0157" unicode="&#x157;" horiz-adv-x="347" 
d="M200 393c17 34 62 73 118 73c24 0 44 -4 56 -8l-30 -125c-18 6 -40 10 -61 10c-38 0 -78 -23 -98 -56l-51 -287h-120l81 456h115l-11 -63h1zM40 -216h-91l52 153h129z" />
    <glyph glyph-name="sacute" unicode="&#x15b;" horiz-adv-x="421" 
d="M421 696l-111 -164h-110l98 164h123zM339 329c-21 28 -58 48 -100 48c-43 0 -65 -24 -65 -52c0 -20 11 -34 42 -43l55 -19c69 -21 105 -61 105 -117c0 -75 -54 -156 -205 -156c-94 0 -150 43 -172 78l76 68c20 -29 53 -58 105 -58c40 0 72 18 72 51c0 21 -12 33 -47 44
l-60 21c-57 20 -93 59 -93 114c0 70 51 158 199 158c79 0 135 -36 161 -67z" />
    <glyph glyph-name="scircumflex" unicode="&#x15d;" horiz-adv-x="421" 
d="M355 696l67 -164h-103l-33 89l-65 -89h-109l125 164h118zM339 329c-21 28 -58 48 -100 48c-43 0 -65 -24 -65 -52c0 -20 11 -34 42 -43l55 -19c69 -21 105 -61 105 -117c0 -75 -54 -156 -205 -156c-94 0 -150 43 -172 78l76 68c20 -29 53 -58 105 -58c40 0 72 18 72 51
c0 21 -12 33 -47 44l-60 21c-57 20 -93 59 -93 114c0 70 51 158 199 158c79 0 135 -36 161 -67z" />
    <glyph glyph-name="scaron" unicode="&#x161;" horiz-adv-x="421" 
d="M209 532l-66 164h102l33 -90l65 90h108l-123 -164h-119zM339 329c-21 28 -58 48 -100 48c-43 0 -65 -24 -65 -52c0 -20 11 -34 42 -43l55 -19c69 -21 105 -61 105 -117c0 -75 -54 -156 -205 -156c-94 0 -150 43 -172 78l76 68c20 -29 53 -58 105 -58c40 0 72 18 72 51
c0 21 -12 33 -47 44l-60 21c-57 20 -93 59 -93 114c0 70 51 158 199 158c79 0 135 -36 161 -67z" />
    <glyph glyph-name="scedilla" unicode="&#x15f;" horiz-adv-x="421" 
d="M271 263c69 -21 105 -61 105 -117c0 -69 -46 -144 -173 -155l-22 -39c44 0 75 -20 75 -67c0 -68 -52 -101 -125 -101c-38 0 -69 9 -93 23l13 71c20 -16 51 -27 79 -27c22 0 34 9 34 25c0 14 -12 19 -36 19h-43l-5 7l49 91c-69 11 -112 46 -130 75l76 68
c20 -29 53 -58 105 -58c40 0 72 18 72 51c0 21 -12 33 -47 44l-60 21c-57 20 -93 59 -93 114c0 70 51 158 199 158c79 0 135 -36 161 -67l-73 -70c-21 28 -58 48 -100 48c-43 0 -65 -24 -65 -52c0 -20 11 -34 42 -43z" />
    <glyph glyph-name="uni0219" unicode="&#x219;" horiz-adv-x="421" 
d="M339 329c-21 28 -58 48 -100 48c-43 0 -65 -24 -65 -52c0 -20 11 -34 42 -43l55 -19c69 -21 105 -61 105 -117c0 -75 -54 -156 -205 -156c-94 0 -150 43 -172 78l76 68c20 -29 53 -58 105 -58c40 0 72 18 72 51c0 21 -12 33 -47 44l-60 21c-57 20 -93 59 -93 114
c0 70 51 158 199 158c79 0 135 -36 161 -67zM146 -216h-91l51 153h129z" />
    <glyph glyph-name="germandbls" unicode="&#xdf;" horiz-adv-x="542" 
d="M101 489c24 139 100 211 225 211c113 0 173 -70 173 -153c0 -105 -107 -168 -107 -207c0 -14 10 -30 27 -44l27 -25c30 -30 59 -63 59 -116c0 -102 -75 -166 -180 -166c-55 0 -90 10 -126 30l52 96c18 -15 40 -30 70 -30c37 0 62 28 62 64c0 21 -10 39 -30 58l-32 28
c-32 29 -52 51 -52 88c0 85 104 124 104 208c0 40 -23 65 -63 65c-63 0 -82 -46 -94 -109l-124 -703h-116z" />
    <glyph glyph-name="tcaron" unicode="&#x165;" horiz-adv-x="337" 
d="M436 537h-91l51 153h129zM198 149c-7 -35 8 -50 38 -50c14 0 34 4 52 8l-17 -103c-22 -8 -54 -14 -85 -14c-94 0 -125 61 -110 143l39 222h-78l16 91l79 10l20 111l123 19l-23 -130h95l-18 -101h-95z" />
    <glyph glyph-name="uni021B" unicode="&#x21b;" horiz-adv-x="335" 
d="M205 149c-7 -35 8 -50 38 -50c14 0 34 4 52 8l-17 -103c-22 -8 -54 -14 -85 -14c-94 0 -125 61 -110 143l39 222h-78l16 91l80 10l19 111l123 19l-23 -130h95l-18 -101h-95zM129 -216h-90l51 153h129z" />
    <glyph glyph-name="tbar" unicode="&#x167;" horiz-adv-x="337" 
d="M338 355h-95l-13 -73h66l-13 -79h-67l-9 -54c-7 -35 8 -50 38 -50c14 0 34 4 52 8l-17 -103c-22 -8 -54 -14 -86 -14c-93 0 -124 61 -109 143l12 70h-70l14 79h70l13 73h-78l15 91l80 10l20 111l123 19l-23 -130h95z" />
    <glyph glyph-name="thorn" unicode="&#xfe;" horiz-adv-x="511" 
d="M97 -216h-120l157 891h120l-44 -247c31 27 63 38 116 38c95 0 151 -74 151 -183c0 -177 -79 -294 -224 -294c-55 0 -97 23 -113 44zM353 266c0 50 -20 90 -75 90c-38 0 -67 -15 -86 -32l-35 -194c14 -14 36 -31 76 -31c97 0 120 89 120 167z" />
    <glyph glyph-name="ugrave" unicode="&#xf9;" horiz-adv-x="501" 
d="M318 696l39 -164h-99l-54 164h114zM406 0h-115l7 44c-25 -25 -68 -54 -132 -54c-97 0 -146 62 -125 181l50 285h120l-49 -272c-9 -57 6 -84 62 -84c31 0 68 17 87 34l57 322h119z" />
    <glyph glyph-name="uacute" unicode="&#xfa;" horiz-adv-x="501" 
d="M460 696l-111 -164h-110l98 164h123zM406 0h-115l7 44c-25 -25 -68 -54 -132 -54c-97 0 -146 62 -125 181l50 285h120l-49 -272c-9 -57 6 -84 62 -84c31 0 68 17 87 34l57 322h119z" />
    <glyph glyph-name="ucircumflex" unicode="&#xfb;" horiz-adv-x="501" 
d="M391 696l66 -164h-103l-32 89l-65 -89h-109l125 164h118zM406 0h-115l7 44c-25 -25 -68 -54 -132 -54c-97 0 -146 62 -125 181l50 285h120l-49 -272c-9 -57 6 -84 62 -84c31 0 68 17 87 34l57 322h119z" />
    <glyph glyph-name="utilde" unicode="&#x169;" horiz-adv-x="501" 
d="M446 564c-20 14 -41 25 -67 25c-41 0 -97 -41 -154 -41c-29 0 -52 11 -63 22l17 88c14 -17 32 -25 61 -25c40 0 87 41 154 41c35 0 53 -11 70 -22zM406 0h-115l7 44c-25 -25 -68 -54 -132 -54c-97 0 -146 62 -125 181l50 285h120l-49 -272c-9 -57 6 -84 62 -84
c31 0 68 17 87 34l57 322h119z" />
    <glyph glyph-name="udieresis" unicode="&#xfc;" horiz-adv-x="501" 
d="M211 533c-39 0 -63 19 -63 57c0 55 34 84 81 84c31 0 63 -19 63 -58c0 -60 -41 -83 -81 -83zM398 533c-38 0 -62 19 -62 57c0 55 33 84 81 84c31 0 63 -19 63 -58c0 -60 -41 -83 -82 -83zM406 0h-115l7 44c-25 -25 -68 -54 -132 -54c-97 0 -146 62 -125 181l50 285h120
l-49 -272c-9 -57 6 -84 62 -84c31 0 68 17 87 34l57 322h119z" />
    <glyph glyph-name="umacron" unicode="&#x16b;" horiz-adv-x="501" 
d="M471 652l-17 -95h-286l16 95h287zM406 0h-115l7 44c-25 -25 -68 -54 -132 -54c-97 0 -146 62 -125 181l50 285h120l-49 -272c-9 -57 6 -84 62 -84c31 0 68 17 87 34l57 322h119z" />
    <glyph glyph-name="ubreve" unicode="&#x16d;" horiz-adv-x="501" 
d="M476 688c-15 -85 -76 -152 -175 -152c-95 0 -134 67 -120 152h75c0 -39 24 -66 59 -66c38 0 71 27 84 66h77zM406 0h-115l7 44c-25 -25 -68 -54 -132 -54c-97 0 -146 62 -125 181l50 285h120l-49 -272c-9 -57 6 -84 62 -84c31 0 68 17 87 34l57 322h119z" />
    <glyph glyph-name="uring" unicode="&#x16f;" horiz-adv-x="501" 
d="M206 606c0 58 42 114 119 114c64 0 94 -43 94 -86c0 -56 -43 -114 -123 -114c-60 0 -90 45 -90 86zM273 613c0 -16 9 -32 31 -32c31 0 47 23 47 46c0 17 -10 33 -33 33c-29 0 -45 -24 -45 -47zM406 0h-115l7 44c-25 -25 -68 -54 -132 -54c-97 0 -146 62 -125 181l50 285
h120l-49 -272c-9 -57 6 -84 62 -84c31 0 68 17 87 34l57 322h119z" />
    <glyph glyph-name="uhungarumlaut" unicode="&#x171;" horiz-adv-x="501" 
d="M374 696l-112 -164h-108l98 164h122zM549 696l-112 -164h-109l97 164h124zM406 0h-115l7 44c-25 -25 -68 -54 -132 -54c-97 0 -146 62 -125 181l50 285h120l-49 -272c-9 -57 6 -84 62 -84c31 0 68 17 87 34l57 322h119z" />
    <glyph glyph-name="uogonek" unicode="&#x173;" horiz-adv-x="501" 
d="M333 -50c-23 -16 -38 -31 -38 -50c0 -12 7 -23 26 -23c18 0 44 11 68 27l-16 -97c-30 -14 -60 -23 -101 -23c-63 0 -104 32 -104 82c0 48 26 75 82 119l44 35l4 24c-25 -25 -68 -54 -132 -54c-97 0 -146 62 -125 181l50 285h120l-49 -272c-9 -57 6 -84 62 -84
c31 0 68 17 87 34l57 322h119l-81 -456z" />
    <glyph glyph-name="wacute" unicode="&#x1e83;" horiz-adv-x="738" 
d="M581 696l-111 -164h-110l98 164h123zM462 456l32 -330l143 330h128l-213 -456h-130l-39 304l-146 -304h-130l-53 456h119l28 -330l148 330h113z" />
    <glyph glyph-name="wcircumflex" unicode="&#x175;" horiz-adv-x="738" 
d="M507 696l67 -164h-103l-33 89l-65 -89h-109l125 164h118zM462 456l32 -330l143 330h128l-213 -456h-130l-39 304l-146 -304h-130l-53 456h119l28 -330l148 330h113z" />
    <glyph glyph-name="wdieresis" unicode="&#x1e85;" horiz-adv-x="738" 
d="M328 533c-38 0 -62 19 -62 57c0 55 33 84 81 84c31 0 63 -19 63 -58c0 -60 -41 -83 -82 -83zM516 533c-38 0 -63 19 -63 57c0 55 34 84 82 84c31 0 63 -19 63 -58c0 -60 -41 -83 -82 -83zM462 456l32 -330l143 330h128l-213 -456h-130l-39 304l-146 -304h-130l-53 456
h119l28 -330l148 330h113z" />
    <glyph glyph-name="wgrave" unicode="&#x1e81;" horiz-adv-x="738" 
d="M430 696l40 -164h-100l-53 164h113zM462 456l32 -330l143 330h128l-213 -456h-130l-39 304l-146 -304h-130l-53 456h119l28 -330l148 330h113z" />
    <glyph glyph-name="yacute" unicode="&#xfd;" horiz-adv-x="472" 
d="M448 696l-111 -164h-110l98 164h123zM225 158l147 298h133l-371 -672h-126l138 241l-99 431h129z" />
    <glyph glyph-name="ycircumflex" unicode="&#x177;" horiz-adv-x="472" 
d="M379 696l66 -164h-103l-33 89l-65 -89h-109l125 164h119zM225 158l147 298h133l-371 -672h-126l138 241l-99 431h129z" />
    <glyph glyph-name="ydieresis" unicode="&#xff;" horiz-adv-x="472" 
d="M200 533c-38 0 -63 19 -63 57c0 55 34 84 82 84c31 0 62 -19 62 -58c0 -60 -40 -83 -81 -83zM388 533c-39 0 -63 19 -63 57c0 55 34 84 81 84c31 0 63 -19 63 -58c0 -60 -40 -83 -81 -83zM225 158l147 298h133l-371 -672h-126l138 241l-99 431h129z" />
    <glyph glyph-name="ygrave" unicode="&#x1ef3;" horiz-adv-x="472" 
d="M306 696l40 -164h-100l-54 164h114zM225 158l147 298h133l-371 -672h-126l138 241l-99 431h129z" />
    <glyph glyph-name="zacute" unicode="&#x17a;" horiz-adv-x="403" 
d="M413 696l-111 -164h-110l98 164h123zM392 378l-221 -276h172l-17 -102h-332l14 78l225 276h-168l17 102h324z" />
    <glyph glyph-name="zcaron" unicode="&#x17e;" horiz-adv-x="403" 
d="M202 532l-66 164h102l33 -90l65 90h108l-123 -164h-119zM392 378l-221 -276h172l-17 -102h-332l14 78l225 276h-168l17 102h324z" />
    <glyph glyph-name="zdotaccent" unicode="&#x17c;" horiz-adv-x="403" 
d="M275 533c-36 0 -64 15 -64 58c0 58 37 83 85 83c31 0 60 -21 60 -61c0 -57 -40 -80 -81 -80zM392 378l-221 -276h172l-17 -102h-332l14 78l225 276h-168l17 102h324z" />
    <glyph glyph-name="IJ" unicode="&#x132;" horiz-adv-x="735" 
d="M147 676h130l-119 -676h-130zM361 160c9 -36 29 -60 75 -60c65 0 97 41 113 132l78 444h123l-80 -453c-28 -158 -101 -233 -244 -233c-96 0 -153 46 -171 110z" />
    <glyph glyph-name="ij" unicode="&#x133;" horiz-adv-x="458" 
d="M169 543c-36 0 -61 16 -61 55c0 59 38 86 85 86c32 0 60 -19 60 -58c0 -60 -44 -83 -84 -83zM399 543c-36 0 -62 17 -62 55c0 59 39 86 87 86c31 0 59 -19 59 -58c0 -60 -43 -83 -84 -83zM95 456h120l-81 -456h-120zM137 -146c55 29 93 68 103 129l84 473h120l-79 -450
c-18 -100 -68 -181 -166 -232z" />
    <glyph glyph-name="acute" unicode="&#xb4;" horiz-adv-x="570" 
d="M511 696l-111 -164h-110l98 164h123z" />
    <glyph glyph-name="circumflex" unicode="&#x2c6;" horiz-adv-x="570" 
d="M476 696l66 -164h-103l-32 89l-65 -89h-109l125 164h118z" />
    <glyph glyph-name="caron" unicode="&#x2c7;" horiz-adv-x="570" 
d="M329 532l-67 164h102l33 -90l65 90h109l-124 -164h-118z" />
    <glyph glyph-name="tilde" unicode="&#x2dc;" horiz-adv-x="570" 
d="M535 564c-20 14 -41 25 -67 25c-41 0 -97 -41 -154 -41c-29 0 -52 11 -63 22l17 88c14 -17 32 -25 61 -25c40 0 87 41 154 41c35 0 53 -11 70 -22z" />
    <glyph glyph-name="dieresis" unicode="&#xa8;" horiz-adv-x="570" 
d="M297 533c-39 0 -63 19 -63 57c0 55 34 84 81 84c31 0 63 -19 63 -58c0 -60 -41 -83 -81 -83zM484 533c-38 0 -62 19 -62 57c0 55 33 84 81 84c31 0 63 -19 63 -58c0 -60 -41 -83 -82 -83z" />
    <glyph glyph-name="macron" unicode="&#xaf;" horiz-adv-x="570" 
d="M552 652l-17 -95h-286l16 95h287z" />
    <glyph glyph-name="breve" unicode="&#x2d8;" horiz-adv-x="570" 
d="M562 688c-15 -85 -76 -152 -175 -152c-95 0 -134 67 -120 152h75c0 -39 24 -66 59 -66c38 0 71 27 84 66h77z" />
    <glyph glyph-name="ring" unicode="&#x2da;" horiz-adv-x="570" 
d="M296 606c0 58 42 114 119 114c64 0 94 -43 94 -86c0 -56 -43 -114 -123 -114c-60 0 -90 45 -90 86zM363 613c0 -16 9 -32 31 -32c31 0 47 23 47 46c0 17 -10 33 -33 33c-29 0 -45 -24 -45 -47z" />
    <glyph glyph-name="hungarumlaut" unicode="&#x2dd;" horiz-adv-x="570" 
d="M425 696l-112 -164h-108l98 164h122zM600 696l-112 -164h-109l97 164h124z" />
    <glyph glyph-name="dotaccent" unicode="&#x2d9;" horiz-adv-x="570" 
d="M392 533c-36 0 -65 15 -65 58c0 58 38 83 86 83c31 0 60 -21 60 -61c0 -57 -40 -80 -81 -80z" />
    <glyph glyph-name="cedilla" unicode="&#xb8;" horiz-adv-x="570" 
d="M336 0l-26 -48c44 0 75 -20 75 -67c0 -68 -53 -101 -125 -101c-39 0 -70 9 -94 23l14 71c20 -16 51 -27 78 -27c22 0 34 9 34 25c0 14 -12 19 -35 19h-43l-5 7l57 107z" />
    <glyph glyph-name="ogonek" unicode="&#x2db;" horiz-adv-x="570" 
d="M334 -50c-23 -16 -38 -31 -38 -50c0 -12 7 -23 26 -23c18 0 44 11 68 27l-17 -97c-30 -14 -59 -23 -101 -23c-62 0 -103 32 -103 82c0 48 25 75 82 119l47 37l109 -22z" />
    <glyph glyph-name="uniF6C3" unicode="&#xf6c3;" horiz-adv-x="0" 
d="M-299 -216h-91l51 153h129z" />
    <glyph glyph-name="ellipsis" unicode="&#x2026;" horiz-adv-x="669" 
d="M81 -6c-39 0 -68 30 -68 66c0 50 39 84 90 84c39 0 67 -30 67 -66c0 -50 -40 -84 -89 -84zM303 -6c-39 0 -69 30 -69 66c0 50 40 84 90 84c40 0 69 -30 69 -66c0 -50 -40 -84 -90 -84zM517 -6c-40 0 -68 30 -68 66c0 50 40 84 89 84c39 0 68 -30 68 -66
c0 -50 -40 -84 -89 -84z" />
    <glyph glyph-name="uni00AD" unicode="&#xad;" horiz-adv-x="408" 
d="M354 321v-101h-286v101h286z" />
    <glyph glyph-name="exclamdown" unicode="&#xa1;" horiz-adv-x="240" 
d="M159 466c40 0 69 -30 69 -66c0 -50 -40 -85 -90 -85c-39 0 -68 31 -68 66c0 50 39 85 89 85zM172 235l-59 -451h-144l103 451h100z" />
    <glyph glyph-name="questiondown" unicode="&#xbf;" horiz-adv-x="431" 
d="M265 466c39 0 66 -28 66 -63c0 -50 -42 -87 -92 -87c-40 0 -66 28 -66 63c0 50 42 87 92 87zM145 -226c-103 0 -176 58 -176 144c0 163 173 192 195 317h122c-29 -160 -195 -197 -195 -295c0 -30 20 -56 59 -56c50 0 82 31 88 65l108 -12c-14 -85 -74 -163 -201 -163z
" />
    <glyph glyph-name="quoteleft" unicode="&#x2018;" horiz-adv-x="230" 
d="M178 676h89l-69 -254h-127z" />
    <glyph glyph-name="quoteright" unicode="&#x2019;" horiz-adv-x="225" 
d="M169 422h-90l69 254h129z" />
    <glyph glyph-name="quotedblleft" unicode="&#x201c;" horiz-adv-x="400" 
d="M178 676h89l-69 -254h-127zM347 676h90l-69 -254h-128z" />
    <glyph glyph-name="quotedblright" unicode="&#x201d;" horiz-adv-x="395" 
d="M169 422h-90l69 254h129zM338 422h-88l68 254h129z" />
    <glyph glyph-name="quotesinglbase" unicode="&#x201a;" horiz-adv-x="235" 
d="M68 -109h-89l69 254h128z" />
    <glyph glyph-name="quotedblbase" unicode="&#x201e;" horiz-adv-x="405" 
d="M68 -110h-89l69 255h127zM237 -110h-88l68 255h129z" />
    <glyph glyph-name="guilsinglleft" unicode="&#x2039;" horiz-adv-x="321" 
d="M260 500l61 -61l-156 -177l94 -178l-79 -45l-151 231z" />
    <glyph glyph-name="guilsinglright" unicode="&#x203a;" horiz-adv-x="321" 
d="M75 39l-60 61l156 177l-94 178l79 45l151 -231z" />
    <glyph glyph-name="guillemotleft" unicode="&#xab;" horiz-adv-x="530" 
d="M260 500l61 -61l-156 -177l94 -178l-79 -45l-151 231zM470 500l61 -61l-156 -177l94 -178l-79 -45l-151 231z" />
    <glyph glyph-name="guillemotright" unicode="&#xbb;" horiz-adv-x="532" 
d="M75 39l-60 61l156 177l-94 178l79 45l151 -231zM286 39l-61 61l157 177l-94 178l79 45l151 -231z" />
    <glyph glyph-name="endash" unicode="&#x2013;" horiz-adv-x="609" 
d="M554 321v-101h-486v101h486z" />
    <glyph glyph-name="emdash" unicode="&#x2014;" horiz-adv-x="749" 
d="M694 321v-101h-626v101h626z" />
    <glyph glyph-name="bullet" unicode="&#x2022;" horiz-adv-x="401" 
d="M208 138c-80 0 -138 56 -138 131c0 76 58 131 138 131s137 -55 137 -131c0 -75 -57 -131 -137 -131z" />
    <glyph glyph-name="periodcentered" unicode="&#xb7;" horiz-adv-x="254" 
d="M133 193c-45 0 -75 32 -75 70c0 54 42 92 97 92c41 0 72 -32 72 -72c0 -53 -43 -90 -94 -90z" />
    <glyph glyph-name="uni2219" unicode="&#x2219;" horiz-adv-x="253" 
d="M132 193c-44 0 -74 32 -74 70c0 54 42 92 97 92c40 0 71 -32 71 -72c0 -53 -43 -90 -94 -90z" />
    <glyph glyph-name="dagger" unicode="&#x2020;" horiz-adv-x="405" 
d="M177 307l68 383h78l-68 -383h139l-13 -75h-139l-79 -448h-78l79 448h-138l13 75h138z" />
    <glyph glyph-name="daggerdbl" unicode="&#x2021;" horiz-adv-x="443" 
d="M224 449l43 241h78l-43 -241h138l-13 -75h-138l-47 -270h137l-13 -75h-138l-43 -245h-78l43 245h-138l13 75h139l47 270h-138l13 75h138z" />
    <glyph glyph-name="section" unicode="&#xa7;" horiz-adv-x="540" 
d="M505 296c0 -73 -44 -117 -79 -138c20 -18 38 -47 38 -87c0 -117 -96 -185 -252 -185c-106 0 -189 37 -216 96l80 75c28 -42 66 -77 153 -77c65 0 100 20 100 59c0 30 -41 50 -67 61l-55 23c-96 36 -145 73 -145 147c0 62 38 113 80 143c-25 21 -39 51 -39 87
c0 107 103 186 246 186c112 0 169 -37 202 -87l-84 -73c-26 37 -65 63 -139 63c-45 0 -92 -24 -92 -61c0 -25 25 -43 71 -61l49 -18c99 -36 149 -79 149 -153zM229 370c-21 -18 -37 -47 -37 -71c0 -32 27 -51 81 -72l66 -28c17 15 37 41 37 73s-24 53 -70 70z" />
    <glyph glyph-name="paragraph" unicode="&#xb6;" horiz-adv-x="520" 
d="M356 456l-83 -467h-106l28 160c-107 0 -157 44 -157 120c0 109 64 187 204 187h114zM223 -154c53 34 84 69 94 125l85 485h107l-82 -460c-18 -100 -54 -176 -150 -223z" />
    <glyph glyph-name="brokenbar" unicode="&#xa6;" horiz-adv-x="254" 
d="M89 306v384h79v-384h-79zM168 170v-386h-79v386h79z" />
    <glyph glyph-name="copyright" unicode="&#xa9;" horiz-adv-x="832" 
d="M62 334c0 216 159 370 373 370c216 0 373 -154 373 -370c0 -212 -157 -369 -373 -369c-214 0 -373 157 -373 369zM151 334c0 -170 118 -283 284 -283c167 0 285 113 285 283c0 172 -118 285 -285 285c-166 0 -284 -113 -284 -285zM345 334c0 -69 30 -109 92 -109
c44 0 72 24 90 48l66 -67c-35 -40 -83 -70 -161 -70c-104 0 -191 72 -191 199c0 124 88 196 190 196c81 0 125 -35 162 -71l-66 -63c-24 21 -46 44 -90 44c-59 0 -92 -41 -92 -107z" />
    <glyph glyph-name="uni2117" unicode="&#x2117;" horiz-adv-x="832" 
d="M62 334c0 216 159 370 373 370c216 0 373 -154 373 -370c0 -212 -157 -369 -373 -369c-214 0 -373 157 -373 369zM151 334c0 -170 118 -283 284 -283c167 0 285 113 285 283c0 172 -118 285 -285 285c-166 0 -284 -113 -284 -285zM460 525c106 0 155 -51 155 -126
c0 -76 -49 -124 -155 -124h-70v-135h-87v385h157zM524 400c0 27 -13 55 -62 55h-72v-108h72c49 0 62 24 62 53z" />
    <glyph glyph-name="registered" unicode="&#xae;" horiz-adv-x="832" 
d="M62 334c0 216 159 370 373 370c216 0 373 -154 373 -370c0 -212 -157 -369 -373 -369c-214 0 -373 157 -373 369zM151 334c0 -170 118 -283 284 -283c167 0 285 113 285 283c0 172 -118 285 -285 285c-166 0 -284 -113 -284 -285zM283 526h151c110 0 155 -39 155 -113
c0 -51 -34 -92 -92 -106l99 -169h-94l-89 158h-45v-158h-85v388zM504 410c0 23 -16 50 -65 50h-71v-99h66c52 0 70 28 70 49z" />
    <glyph glyph-name="trademark" unicode="&#x2122;" horiz-adv-x="599" 
d="M307 607l-8 -45h-72l-34 -192h-56l34 192h-74l8 45h202zM510 607h78l-19 -237h-55l20 176l-72 -176h-63l-6 173l-43 -173h-55l64 237h77l5 -175z" />
    <glyph glyph-name="currency" unicode="&#xa4;" horiz-adv-x="588" 
d="M457 348c6 -20 11 -48 11 -75c0 -28 -4 -53 -11 -75l82 -85l-82 -82l-80 79c-21 -8 -49 -13 -78 -13c-30 0 -59 5 -80 15l-74 -76l-78 77l77 80c-8 23 -11 49 -11 78c0 26 3 50 9 72l-79 84l83 81l76 -77c21 10 49 15 80 15s60 -6 81 -16l75 76l77 -77zM301 204
c45 0 64 24 64 67c0 45 -20 68 -65 68c-46 0 -64 -23 -64 -66c0 -45 19 -69 65 -69z" />
    <glyph glyph-name="Euro" unicode="&#x20ac;" horiz-adv-x="544" 
d="M400 574c-68 0 -117 -50 -147 -132h229l-40 -78h-209c-4 -18 -6 -38 -8 -58h190l-39 -78h-154c2 -70 35 -127 104 -127c36 0 82 10 134 39l12 -113c-51 -27 -100 -38 -163 -38c-139 0 -220 85 -222 239h-52l14 78h41c2 20 4 39 7 58h-38l13 78h43c49 157 157 244 298 244
c68 0 122 -15 171 -40l-55 -101c-33 15 -78 29 -129 29z" />
    <glyph glyph-name="cent" unicode="&#xa2;" horiz-adv-x="463" 
d="M234 94c38 0 69 23 93 56l76 -62c-43 -67 -111 -99 -191 -99c-9 0 -18 1 -27 2l-25 -63l-58 14l27 65c-62 32 -90 98 -90 171c0 146 67 288 243 288c11 0 21 -1 31 -2l31 76l59 -14l-32 -78c37 -16 64 -44 75 -83l-88 -57c-6 16 -16 29 -28 38l-102 -252h6zM162 187
c0 -24 4 -45 14 -62l95 236c-81 -5 -109 -92 -109 -174z" />
    <glyph glyph-name="sterling" unicode="&#xa3;" horiz-adv-x="544" 
d="M114 337l19 111c23 130 92 238 248 238c102 0 156 -42 198 -100l-88 -78c-30 46 -65 65 -117 65c-66 0 -103 -50 -117 -130l-19 -106h156l-14 -78h-156l-28 -158h251l-18 -101h-374l45 259h-58l14 78h58z" />
    <glyph glyph-name="florin" unicode="&#x192;" horiz-adv-x="345" 
d="M169 -81c-14 -79 -64 -145 -157 -145c-36 0 -75 6 -87 11l17 104c17 -6 41 -8 54 -8c39 0 55 24 62 67l72 406h-83l18 102h83l17 98c14 79 63 146 163 146c29 0 68 -6 81 -11l-18 -104c-17 5 -37 8 -53 8c-35 0 -54 -19 -62 -65l-13 -72h90l-18 -102h-89z" />
    <glyph glyph-name="yen" unicode="&#xa5;" horiz-adv-x="586" 
d="M219 306l-15 58h-125l13 78h85l-72 234h134l73 -289l176 289h146l-156 -234h88l-14 -78h-129l-36 -58h155l-14 -78h-173l-40 -228h-130l40 228h-170l14 78h150z" />
    <glyph glyph-name="uni20A8" unicode="&#x20a8;" horiz-adv-x="537" 
d="M580 677l-14 -78h-123c17 -20 26 -56 26 -90h81l-14 -79h-76c-19 -73 -86 -133 -173 -147l107 -283h-139l-94 268h-109l17 99h100c87 0 128 16 154 63h-242l14 79h244c-9 49 -40 66 -126 66h-108l18 101z" />
    <glyph glyph-name="ordfeminine" unicode="&#xaa;" horiz-adv-x="338" 
d="M235 350l5 31c-22 -20 -52 -38 -93 -38c-40 0 -76 26 -76 72c0 72 62 102 154 107l33 2l3 17c4 23 -5 37 -36 37c-29 0 -45 -10 -47 -25l-3 -11h-68l3 20c8 45 55 77 125 77s118 -31 106 -101l-34 -188h-72zM154 425c0 -15 13 -23 28 -23c22 0 42 11 59 24l9 51l-29 -5
c-44 -7 -67 -20 -67 -47z" />
    <glyph glyph-name="ordmasculine" unicode="&#xba;" horiz-adv-x="344" 
d="M240 639c77 0 115 -51 115 -118c0 -95 -38 -178 -159 -178c-78 0 -115 51 -115 117c0 96 37 179 159 179zM205 413c46 0 66 48 66 103c0 32 -13 53 -40 53c-47 0 -66 -47 -66 -103c0 -32 12 -53 40 -53z" />
    <glyph glyph-name="uni00B9" unicode="&#xb9;" horiz-adv-x="247" 
d="M157 423l50 276l-96 -34l-10 72l133 50h75l-63 -364h-89z" />
    <glyph glyph-name="uni00B2" unicode="&#xb2;" horiz-adv-x="314" 
d="M257 794c60 0 114 -36 114 -102c0 -59 -44 -100 -98 -146l-63 -55h126l-11 -67h-248l9 57l133 115c38 32 62 59 62 94c0 19 -11 34 -31 34c-30 0 -46 -20 -52 -54h-83c7 74 55 124 142 124z" />
    <glyph glyph-name="uni00B3" unicode="&#xb3;" horiz-adv-x="323" 
d="M300 605c28 -8 53 -32 53 -75c0 -75 -69 -113 -152 -113c-93 0 -126 42 -115 105h83c-4 -23 11 -36 39 -36c29 0 55 18 55 48c0 24 -16 39 -53 39h-38l12 68h37c43 0 64 18 64 51c0 20 -13 31 -36 31c-25 0 -42 -13 -45 -34h-84c10 60 52 104 137 104
c62 0 121 -31 121 -94c0 -54 -36 -86 -78 -94z" />
    <glyph glyph-name="fraction" unicode="&#x2044;" horiz-adv-x="191" 
d="M-87 0h-98l499 676h101z" />
    <glyph glyph-name="uni2215" unicode="&#x2215;" horiz-adv-x="191" 
d="M-87 0h-98l499 676h101z" />
    <glyph glyph-name="onehalf" unicode="&#xbd;" horiz-adv-x="746" 
d="M180 0h-98l500 676h101zM149 311l50 276l-96 -33l-10 72l133 50h75l-64 -365h-88zM604 370c60 0 114 -36 114 -102c0 -58 -44 -100 -97 -146l-63 -55h126l-12 -67h-248l10 57l133 116c37 32 61 59 61 93c0 20 -11 35 -31 35c-30 0 -45 -20 -52 -54h-83
c7 74 56 123 142 123z" />
    <glyph glyph-name="uni2153" unicode="&#x2153;" horiz-adv-x="758" 
d="M178 0h-98l499 676h101zM161 311l50 276l-96 -33l-10 72l133 50h75l-64 -365h-88zM655 182c28 -7 54 -32 54 -74c0 -75 -70 -114 -153 -114c-93 0 -125 43 -114 106h82c-4 -23 12 -36 39 -36c29 0 55 17 55 48c0 23 -16 39 -52 39h-38l12 67h36c43 0 64 19 64 51
c0 20 -13 32 -35 32c-25 0 -43 -14 -46 -34h-84c10 60 52 103 137 103c62 0 121 -30 121 -94c0 -54 -36 -85 -78 -94z" />
    <glyph glyph-name="onequarter" unicode="&#xbc;" horiz-adv-x="697" 
d="M178 0h-98l499 676h101zM161 311l50 276l-96 -33l-10 72l133 50h75l-64 -365h-88zM643 67h-38l-12 -67h-86l11 67h-169l11 59l205 238h93l-41 -230h38zM530 134l20 113l-93 -113h73z" />
    <glyph glyph-name="oneeighth" unicode="&#x215b;" horiz-adv-x="765" 
d="M178 0h-98l499 676h101zM161 311l50 276l-96 -33l-10 72l133 50h75l-64 -365h-88zM557 -6c-78 0 -129 35 -129 95c0 53 36 87 82 100c-29 12 -46 34 -46 67c0 78 67 114 151 114c77 0 123 -35 123 -92c0 -51 -34 -82 -73 -94c28 -9 51 -31 51 -73
c0 -82 -72 -117 -159 -117zM607 301c-32 0 -53 -18 -53 -49c0 -22 16 -32 39 -32c30 0 53 14 53 49c0 20 -14 32 -39 32zM581 153c-37 0 -62 -23 -62 -53c0 -23 22 -36 47 -36c30 0 60 18 60 51c0 23 -16 38 -45 38z" />
    <glyph glyph-name="uni2154" unicode="&#x2154;" horiz-adv-x="805" 
d="M246 681c60 0 114 -35 114 -101c0 -59 -44 -100 -97 -147l-64 -54h126l-11 -68h-248l10 57l132 116c38 32 62 59 62 93c0 20 -11 35 -31 35c-30 0 -45 -20 -52 -54h-83c7 74 56 123 142 123zM235 0h-98l499 676h101zM706 182c28 -7 53 -32 53 -74
c0 -75 -69 -114 -152 -114c-93 0 -126 43 -115 106h83c-4 -23 11 -36 39 -36s55 17 55 48c0 23 -16 39 -53 39h-38l12 67h37c43 0 64 19 64 51c0 20 -14 32 -36 32c-25 0 -42 -14 -45 -34h-84c10 60 51 103 137 103c62 0 120 -30 120 -94c0 -54 -35 -85 -77 -94z" />
    <glyph glyph-name="threequarters" unicode="&#xbe;" horiz-adv-x="726" 
d="M288 493c28 -7 53 -31 53 -74c0 -75 -69 -114 -152 -114c-93 0 -126 43 -115 106h83c-4 -23 11 -36 39 -36s55 17 55 48c0 23 -16 39 -53 39h-38l12 67h37c42 0 64 19 64 52c0 19 -14 31 -36 31c-25 0 -42 -14 -46 -34h-83c10 60 51 103 137 103c62 0 120 -30 120 -93
c0 -55 -35 -86 -77 -95zM216 0h-98l499 676h101zM675 67h-38l-11 -67h-87l11 67h-168l10 59l205 238h93l-41 -230h39zM563 134l20 113l-93 -113h73z" />
    <glyph glyph-name="threeeighths" unicode="&#x215c;" horiz-adv-x="794" 
d="M289 493c27 -7 53 -31 53 -74c0 -75 -70 -114 -152 -114c-93 0 -126 43 -115 106h83c-5 -23 11 -36 39 -36s55 17 55 48c0 23 -17 39 -53 39h-38l12 67h37c42 0 64 19 64 52c0 19 -14 31 -36 31c-25 0 -43 -14 -46 -34h-84c11 60 52 103 138 103c61 0 120 -30 120 -93
c0 -55 -35 -86 -77 -95zM217 0h-98l499 676h101zM591 -6c-78 0 -129 35 -129 95c0 53 36 87 82 100c-29 12 -46 34 -46 67c0 78 67 114 150 114c78 0 124 -35 124 -92c0 -51 -35 -82 -74 -94c29 -9 51 -31 51 -73c0 -82 -72 -117 -158 -117zM641 301c-32 0 -53 -18 -53 -49
c0 -22 16 -32 38 -32c30 0 54 14 54 49c0 20 -15 32 -39 32zM614 153c-36 0 -61 -23 -61 -53c0 -23 21 -36 46 -36c30 0 61 18 61 51c0 23 -17 38 -46 38z" />
    <glyph glyph-name="fiveeighths" unicode="&#x215d;" horiz-adv-x="786" 
d="M342 448c0 -91 -63 -143 -156 -143c-97 0 -126 45 -115 106h83c-4 -23 12 -36 38 -36c37 0 59 26 59 63c0 23 -15 41 -41 41c-19 0 -37 -7 -48 -16l-67 11l61 202h210l-12 -68h-140l-19 -66c6 2 24 6 45 6c49 0 102 -26 102 -100zM210 0h-98l499 676h101zM582 -6
c-79 0 -129 35 -129 95c0 53 36 87 81 100c-28 12 -46 34 -46 67c0 78 68 114 151 114c78 0 123 -35 123 -92c0 -51 -34 -82 -73 -94c29 -9 51 -31 51 -73c0 -82 -72 -117 -158 -117zM631 301c-32 0 -52 -18 -52 -49c0 -22 16 -32 38 -32c30 0 54 14 54 49
c0 20 -15 32 -40 32zM605 153c-37 0 -61 -23 -61 -53c0 -23 21 -36 46 -36c30 0 60 18 60 51c0 23 -16 38 -45 38z" />
    <glyph glyph-name="seveneighths" unicode="&#x215e;" horiz-adv-x="717" 
d="M140 0h-98l499 676h101zM266 608h-157l13 68h254l-9 -58l-194 -307h-94zM514 -6c-78 0 -129 35 -129 95c0 53 36 87 82 100c-29 12 -46 34 -46 67c0 78 67 114 150 114c78 0 124 -35 124 -92c0 -51 -35 -82 -74 -94c29 -9 51 -31 51 -73c0 -82 -72 -117 -158 -117z
M564 301c-32 0 -53 -18 -53 -49c0 -22 16 -32 38 -32c30 0 54 14 54 49c0 20 -15 32 -39 32zM537 153c-36 0 -61 -23 -61 -53c0 -23 21 -36 46 -36c30 0 61 18 61 51c0 23 -16 38 -46 38z" />
    <glyph glyph-name="perthousand" unicode="&#x2030;" horiz-adv-x="1145" 
d="M257 681c86 0 127 -54 127 -136c0 -135 -51 -239 -183 -239c-90 0 -128 57 -128 136c0 138 53 239 184 239zM227 0h-98l499 676h101zM207 375c53 0 88 49 88 170c0 42 -13 67 -45 67c-50 0 -88 -47 -88 -170c0 -42 14 -67 45 -67zM653 370c86 0 127 -54 127 -136
c0 -135 -51 -240 -183 -240c-90 0 -128 57 -128 137c0 138 54 239 184 239zM983 370c87 0 127 -54 127 -136c0 -135 -50 -240 -183 -240c-90 0 -128 57 -128 137c0 138 54 239 184 239zM603 64c53 0 88 48 88 170c0 41 -13 67 -45 67c-50 0 -88 -47 -88 -170
c0 -42 14 -67 45 -67zM934 64c53 0 87 48 87 170c0 41 -13 67 -45 67c-50 0 -87 -47 -87 -170c0 -42 13 -67 45 -67z" />
    <glyph glyph-name="minus" unicode="&#x2212;" 
d="M43 322h489v-102h-489v102z" />
    <glyph glyph-name="plusminus" unicode="&#xb1;" 
d="M41 459h186v194h114v-194h189v-102h-189v-146h-114v146h-186v102zM41 129h489v-102h-489v102z" />
    <glyph glyph-name="multiply" unicode="&#xd7;" 
d="M57 113l152 154l-157 157l78 80l159 -158l155 155l74 -74l-156 -156l159 -158l-79 -80l-158 159l-154 -153z" />
    <glyph glyph-name="divide" unicode="&#xf7;" 
d="M290 379c-46 0 -79 32 -79 76c0 45 33 75 79 75c45 0 78 -30 78 -75c0 -44 -33 -76 -78 -76zM43 321h489v-102h-489v102zM290 10c-46 0 -79 32 -79 75c0 44 33 75 79 75c45 0 78 -31 78 -75c0 -43 -33 -75 -78 -75z" />
    <glyph glyph-name="notequal" unicode="&#x2260;" horiz-adv-x="558" 
d="M509 337h-173l-33 -134h206v-102h-231l-26 -107l-59 12l23 95h-133v102h157l32 134h-189v102h214l24 101l61 -14l-21 -87h148v-102z" />
    <glyph glyph-name="approxequal" unicode="&#x2248;" 
d="M501 340c-27 -24 -60 -43 -106 -43c-87 0 -144 63 -220 63c-39 0 -71 -23 -97 -39l-6 99c31 23 76 43 113 43c79 0 136 -64 215 -64c32 0 72 23 95 40zM500 121c-26 -24 -59 -43 -105 -43c-87 0 -143 63 -218 63c-39 0 -73 -21 -99 -36l-6 99c30 22 75 39 113 39
c79 0 137 -63 216 -63c32 0 70 22 94 39z" />
    <glyph glyph-name="lessequal" unicode="&#x2264;" horiz-adv-x="558" 
d="M80 476l426 160v-109l-325 -112l325 -112v-109l-426 160v122zM79 121h424v-97h-424v97z" />
    <glyph glyph-name="greaterequal" unicode="&#x2265;" horiz-adv-x="558" 
d="M524 354l-425 -160v109l324 112l-324 112v109l425 -160v-122zM86 121h424v-97h-424v97z" />
    <glyph glyph-name="logicalnot" unicode="&#xac;" 
d="M38 409h489v-292h-114v190h-375v102z" />
    <glyph glyph-name="uni0394" unicode="&#x394;" horiz-adv-x="635" 
d="M326 676h141l128 -676h-635zM377 546l-224 -440h291z" />
    <glyph glyph-name="uni03A9" unicode="&#x3a9;" horiz-adv-x="714" 
d="M164 101c-47 49 -85 136 -85 222c0 166 96 364 353 364c183 0 255 -131 255 -261c0 -158 -90 -260 -180 -325h134l-18 -101h-266l18 101c83 60 176 168 176 315c0 88 -37 161 -133 161c-151 0 -206 -142 -206 -264c0 -86 39 -168 83 -212l-18 -101h-266l18 101h135z" />
    <glyph glyph-name="uni03BC" unicode="&#x3bc;" horiz-adv-x="513" 
d="M-24 -216l119 672h120l-49 -273c-9 -57 7 -83 59 -83c37 0 72 18 91 38l58 318h119l-57 -308c-5 -27 1 -43 20 -43c9 0 15 1 21 2l-16 -107c-18 -3 -37 -5 -52 -5c-49 0 -75 20 -88 50c-30 -29 -74 -55 -138 -55c-22 0 -37 4 -49 11l-38 -217h-120z" />
    <glyph glyph-name="pi" unicode="&#x3c0;" horiz-adv-x="502" 
d="M26 0l63 355h-57l18 101h478l-17 -101h-57l-36 -205c-3 -23 -5 -45 24 -45c6 0 12 1 19 2l-19 -107c-19 -3 -40 -5 -60 -5c-86 0 -100 59 -86 137l39 223h-127l-62 -355h-120z" />
    <glyph glyph-name="degree" unicode="&#xb0;" horiz-adv-x="329" 
d="M86 526c0 80 54 160 151 160c76 0 116 -58 116 -120c0 -80 -54 -158 -155 -158c-73 0 -112 58 -112 118zM154 531c0 -29 16 -57 51 -57c52 0 78 44 78 87c0 29 -15 59 -52 59c-50 0 -77 -47 -77 -89z" />
    <glyph glyph-name="estimated" unicode="&#x212e;" horiz-adv-x="732" 
d="M210 338v-230c49 -49 109 -74 183 -74c105 0 182 45 245 152l45 -27c-78 -121 -157 -171 -290 -171c-199 0 -327 154 -327 350c0 197 128 350 327 350c195 0 327 -145 328 -350h-511zM579 384v184c-54 50 -116 75 -187 75c-73 0 -133 -26 -182 -75v-184h369z" />
    <glyph glyph-name="eng" unicode="&#x14b;" horiz-adv-x="501" 
d="M95 456h116l-9 -47c27 30 72 57 138 57c98 0 142 -57 121 -175l-49 -284c-19 -102 -66 -185 -162 -237l-61 80c58 38 89 77 99 133l51 289c10 56 -5 84 -62 84c-30 0 -67 -17 -87 -34l-56 -322h-120z" />
    <glyph glyph-name="Eng" unicode="&#x14a;" horiz-adv-x="656" 
d="M315 -138c51 28 83 64 94 121l2 10l-174 469l-79 -462h-131l120 676h142l168 -458l81 458h130l-118 -669c-19 -103 -68 -186 -164 -238z" />
    <glyph glyph-name="infinity" unicode="&#x221e;" horiz-adv-x="683" 
d="M649 286c0 -106 -74 -181 -166 -181c-71 0 -119 38 -145 93c-51 -54 -94 -92 -164 -92c-71 0 -128 57 -128 136c0 103 77 178 167 178c74 0 117 -40 147 -97c45 55 93 99 164 99c69 0 125 -57 125 -136zM291 262c-15 34 -41 72 -74 72c-44 0 -78 -38 -78 -86
c0 -34 21 -55 53 -55c33 0 73 35 99 69zM556 277c0 34 -18 57 -51 57s-72 -39 -98 -73c18 -36 39 -67 73 -67c45 0 76 35 76 83z" />
    <glyph glyph-name="partialdiff" unicode="&#x2202;" horiz-adv-x="518" 
d="M416 690c50 -60 82 -175 82 -285c0 -195 -78 -416 -284 -416c-123 0 -182 81 -182 184c0 167 91 274 222 274c70 0 113 -34 128 -70c14 111 -43 235 -105 313h139zM226 93c70 0 118 79 132 168c-12 41 -44 74 -93 74c-77 0 -115 -67 -115 -152c0 -49 22 -90 76 -90z" />
    <glyph glyph-name="integral" unicode="&#x222b;" horiz-adv-x="363" 
d="M185 -81c-14 -82 -65 -145 -177 -145c-16 0 -55 6 -67 11l17 99c18 -1 42 -3 64 -3c29 0 44 17 51 54l109 626c15 82 66 145 176 145c17 0 56 -6 68 -11l-17 -99c-17 1 -40 3 -64 3c-28 0 -43 -18 -49 -54z" />
    <glyph glyph-name="radical" unicode="&#x221a;" horiz-adv-x="594" 
d="M276 -216h-128l-68 310l-71 -30l-21 81l181 76l54 -290l321 765h125z" />
    <glyph glyph-name="summation" unicode="&#x2211;" horiz-adv-x="564" 
d="M450 -217h-493l24 125l293 339l-178 323l19 106h492l-18 -101h-369l182 -336l-303 -355h368z" />
    <glyph glyph-name="product" unicode="&#x220f;" horiz-adv-x="721" 
d="M765 676l-18 -101h-62l-140 -791h-124l140 792h-277l-139 -792h-124l139 791h-63l17 101h651z" />
    <glyph glyph-name="lozenge" unicode="&#x25ca;" horiz-adv-x="585" 
d="M308 0h-113l-149 354l272 342h113l153 -342zM362 579l-187 -238l92 -224l184 250z" />
    <glyph glyph-name="uniF8FF" unicode="&#xf8ff;" horiz-adv-x="578" 
d="M100 656h413v-656h-413v656zM475 38v580h-337v-580h337z" />
    <glyph glyph-name="exclam.sc" horiz-adv-x="235" 
d="M62 174l40 333h131l-78 -333h-93zM79 -4c-35 0 -61 25 -61 55c0 42 34 72 79 72c34 0 61 -26 61 -57c0 -41 -36 -70 -79 -70z" />
    <glyph glyph-name="numbersign.sc" horiz-adv-x="528" 
d="M11 118l33 95h74l28 84h-74l31 94h74l39 116h105l-41 -116h65l38 116h106l-38 -116h76l-33 -94h-74l-29 -84h76l-32 -95h-76l-39 -118h-107l40 118h-62l-39 -118h-107l41 118h-75zM223 213h62l29 84h-62z" />
    <glyph glyph-name="dollar.sc" horiz-adv-x="449" 
d="M296 289c54 -21 104 -63 104 -129c0 -103 -82 -158 -187 -167l-12 -70h-48l12 69c-101 6 -146 55 -161 93l90 65c12 -30 39 -57 88 -63l21 120l-29 11c-61 24 -103 62 -103 126c0 92 64 163 186 170l10 55h48l-10 -55c78 -6 119 -39 139 -75l-89 -61
c-12 20 -33 35 -67 40l-20 -118zM189 362c0 -16 5 -31 34 -44l17 100c-33 -6 -51 -26 -51 -56zM230 88c37 5 55 24 55 54c0 17 -5 32 -37 47z" />
    <glyph glyph-name="percent.sc" horiz-adv-x="691" 
d="M203 512c74 0 108 -47 108 -112c0 -98 -38 -176 -149 -176c-76 0 -109 47 -109 110c0 102 42 178 150 178zM194 0h-86l395 507h88zM167 284c38 0 64 32 64 121c0 30 -10 46 -34 46c-36 0 -63 -30 -63 -120c0 -31 10 -47 33 -47zM539 283c74 0 108 -46 108 -111
c0 -99 -38 -177 -149 -177c-76 0 -109 48 -109 111c0 102 42 177 150 177zM503 56c38 0 64 31 64 121c0 30 -10 46 -34 46c-36 0 -63 -30 -63 -120c0 -31 10 -47 33 -47z" />
    <glyph glyph-name="ampersand.sc" horiz-adv-x="522" 
d="M405 136l-17 -18l84 -111l-2 -7h-115l-38 52c-44 -34 -98 -60 -167 -60c-83 0 -136 45 -136 111c0 83 81 126 139 163l4 3l-2 3c-16 21 -50 62 -50 104c0 75 64 139 172 139c80 0 133 -50 133 -113c0 -59 -48 -103 -123 -151l45 -60l9 9l71 74l70 -57zM235 319l1 -1l3 2
c43 27 67 45 67 71c0 21 -15 36 -42 36c-33 0 -56 -20 -56 -49c0 -19 10 -39 27 -59zM167 80c33 0 65 18 97 44l-57 78l-14 -9c-40 -27 -73 -45 -73 -76c0 -22 16 -37 47 -37z" />
    <glyph glyph-name="section.sc" horiz-adv-x="458" 
d="M413 225c0 -52 -28 -84 -59 -105c18 -15 29 -33 29 -66c0 -84 -81 -139 -203 -139c-83 0 -156 25 -180 70l64 63c23 -30 66 -50 127 -50c49 0 66 13 66 34c0 17 -25 28 -49 38l-63 27c-62 26 -100 52 -100 102c0 48 27 83 59 109c-17 16 -30 34 -30 64
c0 84 93 143 195 143c99 0 143 -26 170 -61l-68 -65c-20 26 -61 41 -114 41c-31 0 -59 -13 -59 -35c0 -14 22 -25 50 -36l62 -26c63 -27 103 -57 103 -108zM187 269c-14 -8 -25 -22 -25 -41c0 -25 24 -35 58 -47l54 -22c9 7 23 20 23 36c0 28 -23 43 -58 55z" />
    <glyph glyph-name="paragraph.sc" horiz-adv-x="461" 
d="M296 342l-60 -336h-95l17 100c-87 0 -125 36 -125 93c0 85 51 143 167 143h96zM195 -108c40 28 66 55 72 89l64 361h97l-60 -338c-14 -81 -51 -143 -119 -177z" />
    <glyph glyph-name="parenleft.sc" horiz-adv-x="271" 
d="M90 -167c-40 72 -65 170 -65 261c0 187 67 303 182 434l83 -31c-85 -127 -151 -252 -151 -411c0 -64 13 -149 38 -221z" />
    <glyph glyph-name="slash.sc" horiz-adv-x="324" 
d="M345 497l-246 -497h-114l2 11l244 496h116z" />
    <glyph glyph-name="parenright.sc" horiz-adv-x="270" 
d="M-34 -135c118 169 146 272 146 395c0 68 -14 164 -37 237l88 31c39 -79 66 -171 66 -264c0 -175 -67 -310 -181 -431z" />
    <glyph glyph-name="bracketleft.sc" horiz-adv-x="298" 
d="M316 522l-15 -89h-93l-89 -506h93l-16 -89h-208l120 684h208z" />
    <glyph glyph-name="backslash.sc" horiz-adv-x="324" 
d="M73 507h112l77 -496l-2 -11h-109l-80 497z" />
    <glyph glyph-name="bracketright.sc" horiz-adv-x="298" 
d="M294 522l-120 -684h-208l15 89h93l90 506h-93l16 89h207z" />
    <glyph glyph-name="braceleft.sc" horiz-adv-x="290" 
d="M217 269c-11 -62 -35 -82 -65 -89c28 -12 44 -35 33 -89l-22 -130c-6 -28 5 -39 30 -39l-14 -84c-103 0 -146 36 -132 116l22 123c8 44 -21 61 -64 61l14 79c44 0 78 15 86 66l24 134c14 82 66 101 170 101l-15 -84c-25 0 -39 -6 -44 -34z" />
    <glyph glyph-name="bar.sc" horiz-adv-x="238" 
d="M78 -162v684h65v-684h-65z" />
    <glyph glyph-name="braceright.sc" horiz-adv-x="289" 
d="M57 97c10 62 34 82 64 89c-27 12 -44 35 -33 89l21 120c6 28 -5 39 -30 39l14 84c103 0 146 -36 132 -116l-22 -123c-8 -44 21 -61 64 -61l-14 -79c-44 0 -78 -15 -86 -66l-24 -134c-15 -82 -66 -101 -170 -101l15 84c25 0 39 6 44 34z" />
    <glyph glyph-name="zero.sc" horiz-adv-x="502" 
d="M292 515c104 0 175 -62 175 -189c0 -188 -66 -334 -249 -334c-103 0 -175 63 -175 190c0 190 70 333 249 333zM226 87c72 0 122 67 122 239c0 59 -18 94 -63 94c-71 0 -122 -67 -122 -238c0 -60 18 -95 63 -95z" />
    <glyph glyph-name="one.sc" horiz-adv-x="340" 
d="M121 0l68 387l-131 -46l-15 97l185 69h99l-89 -507h-117z" />
    <glyph glyph-name="two.sc" horiz-adv-x="432" 
d="M260 515c86 0 151 -50 151 -138c0 -85 -59 -142 -132 -206l-90 -79h174l-16 -92h-339l14 78l182 161c53 45 86 84 86 133c0 27 -14 48 -45 48c-41 0 -63 -28 -71 -75h-112c14 100 75 170 198 170z" />
    <glyph glyph-name="three.sc" horiz-adv-x="445" 
d="M315 252c39 -10 72 -46 72 -102c0 -96 -88 -158 -207 -158c-128 0 -171 60 -156 146h111c-6 -33 13 -51 56 -51c40 0 77 24 77 69c0 33 -23 55 -75 55h-51l17 92h50c62 0 90 25 90 72c0 28 -18 45 -50 45c-36 0 -61 -19 -66 -49h-113c11 83 69 144 189 144
c93 0 163 -46 163 -129c0 -75 -53 -119 -107 -134z" />
    <glyph glyph-name="four.sc" horiz-adv-x="464" 
d="M405 95h-54l-17 -95h-116l17 95h-232l15 80l283 332h123l-56 -321h52zM251 186l31 163l-134 -163h103z" />
    <glyph glyph-name="five.sc" horiz-adv-x="436" 
d="M389 191c0 -113 -80 -199 -217 -199c-125 0 -169 61 -155 146h112c-6 -34 16 -51 53 -51c63 0 84 43 84 91c0 33 -20 56 -58 56c-28 0 -51 -10 -67 -22l-88 16l82 279h286l-15 -92h-192l-29 -95c14 4 38 9 58 9c74 0 146 -39 146 -138z" />
    <glyph glyph-name="six.sc" horiz-adv-x="471" 
d="M335 371c5 31 -15 49 -52 49c-65 0 -98 -59 -109 -125c20 14 55 32 104 32c85 0 145 -47 145 -137c0 -107 -73 -198 -216 -198c-111 0 -166 80 -166 190c0 185 81 333 250 333c123 0 169 -64 155 -144h-111zM159 199c-8 -67 9 -112 57 -112c56 0 85 38 85 93
c0 33 -19 57 -58 57c-37 0 -67 -22 -84 -38z" />
    <glyph glyph-name="seven.sc" horiz-adv-x="401" 
d="M272 415h-209l16 92h347l-13 -78l-265 -429h-132z" />
    <glyph glyph-name="eight.sc" horiz-adv-x="474" 
d="M202 -8c-110 0 -177 52 -177 131s61 127 115 140c-39 13 -64 45 -64 95c0 93 75 157 206 157c103 0 166 -48 166 -127c0 -73 -49 -116 -102 -131c41 -15 72 -45 72 -102c0 -105 -87 -163 -216 -163zM271 420c-44 0 -75 -25 -75 -68c0 -32 23 -48 55 -48c42 0 76 22 76 71
c0 28 -21 45 -56 45zM212 87c52 0 86 27 86 73c0 36 -26 53 -64 53c-46 0 -86 -23 -86 -75c0 -32 24 -51 64 -51z" />
    <glyph glyph-name="nine.sc" horiz-adv-x="471" 
d="M145 136c-5 -31 15 -49 53 -49c64 0 97 59 108 125c-20 -14 -54 -32 -103 -32c-86 0 -146 47 -146 137c0 107 73 198 216 198c111 0 166 -80 166 -190c0 -185 -80 -333 -250 -333c-123 0 -168 64 -155 144h111zM321 308c9 67 -9 112 -57 112c-55 0 -85 -38 -85 -93
c0 -33 19 -57 59 -57c37 0 67 22 83 38z" />
    <glyph glyph-name="question.sc" horiz-adv-x="371" 
d="M222 515c93 0 146 -54 146 -122c0 -120 -138 -144 -151 -219h-112c20 117 152 144 152 206c0 22 -15 38 -42 38c-37 0 -51 -22 -54 -40l-104 12c10 64 59 125 165 125zM133 -4c-36 0 -60 25 -60 56c0 41 33 71 78 71c35 0 62 -26 62 -56c0 -41 -36 -71 -80 -71z" />
    <glyph glyph-name="a.sc" horiz-adv-x="508" 
d="M323 105h-174l-51 -105h-131l268 507h137l89 -507h-123zM195 199h116l-25 188z" />
    <glyph glyph-name="b.sc" horiz-adv-x="496" 
d="M114 507h179c107 0 166 -41 166 -117c0 -74 -46 -113 -91 -126c41 -10 77 -45 77 -104c0 -114 -80 -160 -229 -160h-192zM253 308c64 0 79 26 79 63c0 24 -17 42 -62 42h-53l-19 -105h55zM230 94c74 0 91 33 91 73c0 28 -18 47 -71 47h-69l-21 -120h70z" />
    <glyph glyph-name="c.sc" horiz-adv-x="491" 
d="M168 204c0 -74 32 -114 90 -114c44 0 77 30 99 59l83 -60c-40 -59 -97 -97 -194 -97c-123 0 -204 70 -204 206c0 192 96 317 278 317c93 0 151 -42 174 -100l-95 -54c-12 29 -39 57 -83 57c-101 0 -148 -89 -148 -214z" />
    <glyph glyph-name="d.sc" horiz-adv-x="543" 
d="M114 507h162c149 0 233 -66 233 -200c0 -208 -96 -307 -305 -307h-180zM204 94c111 0 180 45 180 210c0 77 -38 109 -123 109h-44l-57 -319h44z" />
    <glyph glyph-name="e.sc" horiz-adv-x="456" 
d="M391 94l-16 -94h-351l90 507h347l-16 -94h-228l-20 -113h194l-17 -94h-193l-20 -112h230z" />
    <glyph glyph-name="f.sc" horiz-adv-x="434" 
d="M114 507h332l-16 -94h-213l-22 -125h177l-16 -95h-178l-33 -193h-121z" />
    <glyph glyph-name="g.sc" horiz-adv-x="536" 
d="M289 279h218c-1 -21 -4 -54 -6 -63c-20 -136 -101 -224 -250 -224c-132 0 -209 78 -209 210c0 208 113 313 291 313c82 0 148 -34 173 -96l-95 -53c-16 32 -42 52 -91 52c-88 0 -154 -67 -154 -219c0 -80 34 -109 93 -109c67 0 106 44 114 95h-100z" />
    <glyph glyph-name="h.sc" horiz-adv-x="564" 
d="M430 507h119l-89 -507h-120l38 213h-196l-38 -213h-120l90 507h119l-35 -199h197z" />
    <glyph glyph-name="i.sc" horiz-adv-x="248" 
d="M114 507h119l-89 -507h-120z" />
    <glyph glyph-name="j.sc" horiz-adv-x="400" 
d="M85 132c6 -22 20 -42 54 -42c45 0 69 25 78 82l59 335h114l-62 -345c-20 -116 -84 -170 -196 -170c-83 0 -129 34 -143 85z" />
    <glyph glyph-name="k.sc" horiz-adv-x="515" 
d="M171 149l-26 -149h-121l90 507h120l-35 -198l203 198h152l-219 -214l123 -293h-128l-85 216z" />
    <glyph glyph-name="l.sc" horiz-adv-x="398" 
d="M358 94l-16 -94h-318l90 507h120l-73 -413h197z" />
    <glyph glyph-name="m.sc" horiz-adv-x="688" 
d="M484 507h162l-41 -507h-110l36 371l-163 -371h-131l-25 366l-101 -366h-112l147 507h155l24 -365z" />
    <glyph glyph-name="n.sc" horiz-adv-x="558" 
d="M425 507h119l-90 -507h-120l-134 316l-55 -316h-122l91 507h125l131 -310z" />
    <glyph glyph-name="o.sc" horiz-adv-x="542" 
d="M510 312c0 -180 -82 -320 -274 -320c-135 0 -194 92 -194 203c0 166 69 320 275 320c135 0 193 -91 193 -203zM165 193c0 -59 21 -103 82 -103c81 0 139 69 139 220c0 61 -21 108 -80 108c-87 0 -141 -80 -141 -225z" />
    <glyph glyph-name="p.sc" horiz-adv-x="482" 
d="M176 178l-32 -178h-120l90 507h184c108 0 174 -51 174 -140c0 -125 -79 -189 -220 -189h-76zM192 272h61c69 0 93 35 93 85c0 34 -19 56 -67 56h-62z" />
    <glyph glyph-name="q.sc" horiz-adv-x="540" 
d="M517 312c0 -83 -18 -158 -55 -214l35 -37l-75 -69l-33 36c-39 -23 -87 -36 -145 -36c-136 0 -195 92 -195 203c0 166 69 320 275 320c135 0 193 -91 193 -203zM254 90c23 0 43 5 62 16l-92 99l71 66l80 -84c12 33 18 73 18 123c0 61 -21 108 -80 108
c-87 0 -141 -80 -141 -225c0 -59 21 -103 82 -103z" />
    <glyph glyph-name="r.sc" horiz-adv-x="502" 
d="M114 507h196c110 0 177 -46 177 -131c0 -98 -55 -153 -142 -170l85 -206h-127l-72 198h-52l-34 -198h-121zM361 366c0 28 -18 47 -72 47h-72l-22 -121h72c68 0 94 24 94 74z" />
    <glyph glyph-name="s.sc" horiz-adv-x="447" 
d="M354 378c-14 24 -42 40 -85 40c-46 0 -72 -27 -72 -62c0 -18 8 -36 48 -50l51 -19c54 -20 102 -61 102 -127c0 -112 -97 -168 -215 -168c-115 0 -164 53 -180 93l90 65c14 -34 36 -60 97 -60c53 0 81 22 81 59c0 19 -11 35 -56 53l-46 19c-61 24 -99 59 -99 123
c0 97 71 171 207 171c96 0 143 -36 166 -76z" />
    <glyph glyph-name="t.sc" horiz-adv-x="445" 
d="M465 507l-17 -94h-133l-73 -413h-121l73 413h-133l16 94h388z" />
    <glyph glyph-name="u.sc" horiz-adv-x="528" 
d="M231 -7c-123 0 -202 62 -178 203l55 311h121l-55 -308c-12 -71 3 -108 66 -108s92 38 104 108l54 308h121l-55 -311c-25 -141 -110 -203 -233 -203z" />
    <glyph glyph-name="v.sc" horiz-adv-x="496" 
d="M532 507l-248 -507h-154l-68 507h118l44 -388l177 388h131z" />
    <glyph glyph-name="w.sc" horiz-adv-x="782" 
d="M503 507l28 -378l150 378h127l-217 -507h-146l-32 349l-157 -349h-144l-40 507h117l18 -378l161 378h135z" />
    <glyph glyph-name="x.sc" horiz-adv-x="494" 
d="M197 507l63 -171l126 171h138l-192 -246l106 -261h-129l-65 178l-128 -178h-139l197 261l-106 246h129z" />
    <glyph glyph-name="y.sc" horiz-adv-x="483" 
d="M141 0l34 194l-119 313h125l69 -209l138 209h138l-230 -313l-35 -194h-120z" />
    <glyph glyph-name="z.sc" horiz-adv-x="432" 
d="M422 424l-264 -330h216l-17 -94h-361l14 81l266 332h-197l16 94h342z" />
    <glyph glyph-name="agrave.sc" horiz-adv-x="508" 
d="M326 726l40 -163h-95l-54 163h109zM323 105h-174l-51 -105h-131l268 507h137l89 -507h-123zM195 199h116l-25 188z" />
    <glyph glyph-name="aacute.sc" horiz-adv-x="508" 
d="M477 726l-111 -163h-103l98 163h116zM323 105h-174l-51 -105h-131l268 507h137l89 -507h-123zM195 199h116l-25 188z" />
    <glyph glyph-name="acircumflex.sc" horiz-adv-x="508" 
d="M402 726l67 -164h-104l-33 89l-64 -89h-108l124 164h118zM323 105h-174l-51 -105h-131l268 507h137l89 -507h-123zM195 199h116l-25 188z" />
    <glyph glyph-name="atilde.sc" horiz-adv-x="508" 
d="M455 594c-20 14 -43 25 -68 25c-47 0 -94 -41 -153 -41c-30 0 -53 11 -64 22l17 88c14 -17 32 -25 61 -25c47 0 84 41 154 41c35 0 53 -11 69 -22zM323 105h-174l-51 -105h-131l268 507h137l89 -507h-123zM195 199h116l-25 188z" />
    <glyph glyph-name="adieresis.sc" horiz-adv-x="508" 
d="M226 568c-34 0 -60 18 -60 55c0 56 33 80 79 80c30 0 59 -20 59 -58c0 -58 -38 -77 -78 -77zM412 568c-35 0 -61 18 -61 55c0 56 34 80 79 80c30 0 59 -20 59 -58c0 -58 -38 -77 -77 -77zM323 105h-174l-51 -105h-131l268 507h137l89 -507h-123zM195 199h116l-25 188z
" />
    <glyph glyph-name="amacron.sc" horiz-adv-x="508" 
d="M476 673l-16 -91h-283l16 91h283zM323 105h-174l-51 -105h-131l268 507h137l89 -507h-123zM195 199h116l-25 188z" />
    <glyph glyph-name="abreve.sc" horiz-adv-x="508" 
d="M488 708c-16 -85 -71 -152 -174 -152c-96 0 -136 67 -121 152h75c-1 -39 23 -66 58 -66c39 0 71 27 84 66h78zM323 105h-174l-51 -105h-131l268 507h137l89 -507h-123zM195 199h116l-25 188z" />
    <glyph glyph-name="aring.sc" horiz-adv-x="508" 
d="M224 636c0 57 41 113 119 113c63 0 94 -43 94 -87c0 -56 -43 -113 -124 -113c-60 0 -89 45 -89 87zM290 642c0 -17 10 -32 31 -32c31 0 48 23 48 45c0 17 -10 33 -34 33c-28 0 -45 -24 -45 -46zM323 105h-174l-51 -105h-131l268 507h137l89 -507h-123zM195 199h116
l-25 188z" />
    <glyph glyph-name="aringacute.sc" horiz-adv-x="508" 
d="M213 637c0 46 29 89 80 104l64 85h113l-79 -93c22 -14 34 -45 34 -72c0 -57 -47 -111 -122 -111c-63 0 -90 45 -90 87zM277 641c0 -17 11 -33 32 -33c33 0 50 23 50 48c0 18 -11 34 -35 34c-29 0 -47 -24 -47 -49zM323 105h-174l-51 -105h-131l268 507h137l89 -507h-123z
M195 199h116l-25 188z" />
    <glyph glyph-name="aogonek.sc" horiz-adv-x="509" 
d="M351 -100c0 -12 7 -23 26 -23c17 0 44 11 68 27l-17 -97c-30 -14 -59 -23 -101 -23c-62 0 -103 32 -103 82c0 48 25 75 81 119l32 24l-14 96h-174l-51 -105h-131l268 507h137l89 -507l-72 -50c-23 -16 -38 -31 -38 -50zM195 199h116l-25 188z" />
    <glyph glyph-name="ae.sc" horiz-adv-x="785" 
d="M721 94l-16 -94h-352l18 105h-163l-87 -105h-154l433 507h391l-16 -94h-228l-20 -113h193l-17 -94h-193l-20 -112h231zM388 199l29 161l-135 -161h106z" />
    <glyph glyph-name="aeacute.sc" horiz-adv-x="785" 
d="M731 726l-111 -163h-103l98 163h116zM721 94l-16 -94h-352l18 105h-163l-87 -105h-154l433 507h391l-16 -94h-228l-20 -113h193l-17 -94h-193l-20 -112h231zM388 199l29 161l-135 -161h106z" />
    <glyph glyph-name="cacute.sc" horiz-adv-x="491" 
d="M484 734l-111 -163h-103l98 163h116zM168 204c0 -74 32 -114 90 -114c44 0 77 30 99 59l83 -60c-40 -59 -97 -97 -194 -97c-123 0 -204 70 -204 206c0 192 96 317 278 317c93 0 151 -42 174 -100l-95 -54c-12 29 -39 57 -83 57c-101 0 -148 -89 -148 -214z" />
    <glyph glyph-name="ccircumflex.sc" horiz-adv-x="490" 
d="M423 726l66 -164h-103l-33 89l-65 -89h-108l124 164h119zM175 204c0 -74 32 -114 90 -114c44 0 77 30 99 59l83 -60c-40 -59 -97 -97 -194 -97c-123 0 -204 70 -204 206c0 192 96 317 278 317c93 0 151 -42 174 -100l-95 -54c-12 29 -39 57 -83 57
c-101 0 -148 -89 -148 -214z" />
    <glyph glyph-name="ccaron.sc" horiz-adv-x="490" 
d="M276 562l-67 164h104l33 -90l64 90h109l-125 -164h-118zM175 204c0 -74 32 -114 90 -114c44 0 77 30 99 59l83 -60c-40 -59 -97 -97 -194 -97c-123 0 -204 70 -204 206c0 192 96 317 278 317c93 0 151 -42 174 -100l-95 -54c-12 29 -39 57 -83 57
c-101 0 -148 -89 -148 -214z" />
    <glyph glyph-name="cdotaccent.sc" horiz-adv-x="490" 
d="M333 568c-35 0 -61 18 -61 55c0 56 34 80 79 80c30 0 59 -20 59 -58c0 -58 -38 -77 -77 -77zM168 204c0 -74 32 -114 90 -114c44 0 77 30 99 59l83 -60c-40 -59 -97 -97 -194 -97c-123 0 -204 70 -204 206c0 192 96 317 278 317c93 0 151 -42 174 -100l-95 -54
c-12 29 -39 57 -83 57c-101 0 -148 -89 -148 -214z" />
    <glyph glyph-name="ccedilla.sc" horiz-adv-x="489" 
d="M265 90c44 0 77 30 99 59l83 -60c-36 -53 -86 -89 -166 -96l-22 -41c44 0 75 -20 75 -67c0 -68 -53 -101 -125 -101c-39 0 -70 9 -94 23l13 71c21 -16 51 -27 79 -27c22 0 34 9 34 25c0 14 -12 19 -35 19h-44l-5 7l51 93c-98 16 -159 85 -159 203c0 192 96 317 278 317
c93 0 151 -42 174 -100l-95 -54c-12 29 -39 57 -83 57c-101 0 -148 -89 -148 -214c0 -74 32 -114 90 -114z" />
    <glyph glyph-name="dcaron.sc" horiz-adv-x="543" 
d="M253 562l-67 164h103l33 -90l65 90h109l-125 -164h-118zM114 507h162c149 0 233 -66 233 -200c0 -208 -96 -307 -305 -307h-180zM204 94c111 0 180 45 180 210c0 77 -38 109 -123 109h-44l-57 -319h44z" />
    <glyph glyph-name="dcroat.sc" horiz-adv-x="549" 
d="M291 507c149 0 233 -66 233 -200c0 -208 -96 -307 -305 -307h-180l39 220h-61l14 78h61l37 209h162zM219 94c111 0 180 45 180 210c0 77 -38 109 -123 109h-44l-21 -115h75l-14 -78h-74l-23 -126h44z" />
    <glyph glyph-name="eth.sc" horiz-adv-x="549" 
d="M291 507c149 0 233 -66 233 -200c0 -208 -96 -307 -305 -307h-180l39 220h-61l14 78h61l37 209h162zM219 94c111 0 180 45 180 210c0 77 -38 109 -123 109h-44l-21 -115h75l-14 -78h-74l-23 -126h44z" />
    <glyph glyph-name="egrave.sc" horiz-adv-x="456" 
d="M311 726l40 -163h-95l-54 163h109zM391 94l-16 -94h-351l90 507h347l-16 -94h-228l-20 -113h194l-17 -94h-193l-20 -112h230z" />
    <glyph glyph-name="eacute.sc" horiz-adv-x="454" 
d="M464 726l-111 -163h-103l98 163h116zM398 94l-16 -94h-351l90 507h347l-16 -94h-228l-19 -113h193l-17 -94h-193l-20 -112h230z" />
    <glyph glyph-name="ecircumflex.sc" horiz-adv-x="454" 
d="M392 726l66 -164h-103l-33 89l-65 -89h-108l124 164h119zM398 94l-16 -94h-351l90 507h347l-16 -94h-228l-19 -113h193l-17 -94h-193l-20 -112h230z" />
    <glyph glyph-name="ecaron.sc" horiz-adv-x="454" 
d="M245 562l-66 164h103l33 -90l65 90h108l-124 -164h-119zM398 94l-16 -94h-351l90 507h347l-16 -94h-228l-19 -113h193l-17 -94h-193l-20 -112h230z" />
    <glyph glyph-name="edieresis.sc" horiz-adv-x="454" 
d="M215 568c-34 0 -60 18 -60 55c0 56 33 80 79 80c30 0 59 -20 59 -58c0 -58 -38 -77 -78 -77zM401 568c-35 0 -61 18 -61 55c0 56 34 80 79 80c30 0 59 -20 59 -58c0 -58 -38 -77 -77 -77zM398 94l-16 -94h-351l90 507h347l-16 -94h-228l-19 -113h193l-17 -94h-193
l-20 -112h230z" />
    <glyph glyph-name="emacron.sc" horiz-adv-x="454" 
d="M466 673l-17 -91h-282l15 91h284zM398 94l-16 -94h-351l90 507h347l-16 -94h-228l-19 -113h193l-17 -94h-193l-20 -112h230z" />
    <glyph glyph-name="ebreve.sc" horiz-adv-x="454" 
d="M477 708c-16 -85 -71 -152 -174 -152c-96 0 -136 67 -121 152h75c-1 -39 23 -66 58 -66c39 0 71 27 84 66h78zM398 94l-16 -94h-351l90 507h347l-16 -94h-228l-19 -113h193l-17 -94h-193l-20 -112h230z" />
    <glyph glyph-name="edotaccent.sc" horiz-adv-x="454" 
d="M302 568c-35 0 -61 18 -61 55c0 56 34 80 79 80c30 0 59 -20 59 -58c0 -58 -38 -77 -77 -77zM391 94l-16 -94h-351l90 507h347l-16 -94h-228l-20 -113h194l-17 -94h-193l-20 -112h230z" />
    <glyph glyph-name="eogonek.sc" horiz-adv-x="452" 
d="M451 413h-228l-19 -113h193l-17 -94h-193l-20 -112h230l-16 -94l-73 -50c-23 -16 -38 -31 -38 -50c0 -12 8 -23 26 -23s44 11 68 27l-16 -97c-30 -14 -60 -23 -101 -23c-63 0 -104 32 -104 82c0 48 26 75 82 119l19 15h-214l90 507h347z" />
    <glyph glyph-name="gcircumflex.sc" horiz-adv-x="536" 
d="M424 726l67 -164h-104l-32 89l-65 -89h-108l124 164h118zM289 279h218c-1 -21 -4 -54 -6 -63c-20 -136 -101 -224 -250 -224c-132 0 -209 78 -209 210c0 208 113 313 291 313c82 0 148 -34 173 -96l-95 -53c-16 32 -42 52 -91 52c-88 0 -154 -67 -154 -219
c0 -80 34 -109 93 -109c67 0 106 44 114 95h-100z" />
    <glyph glyph-name="gbreve.sc" horiz-adv-x="534" 
d="M518 708c-15 -85 -71 -152 -174 -152c-95 0 -136 67 -121 152h75c0 -39 23 -66 59 -66c38 0 70 27 84 66h77zM296 279h218c-1 -21 -4 -54 -6 -63c-20 -136 -101 -224 -250 -224c-132 0 -209 78 -209 210c0 208 113 313 291 313c82 0 148 -34 173 -96l-95 -53
c-16 32 -42 52 -91 52c-88 0 -154 -67 -154 -219c0 -80 34 -109 93 -109c67 0 106 44 114 95h-100z" />
    <glyph glyph-name="gdotaccent.sc" horiz-adv-x="534" 
d="M342 568c-35 0 -61 18 -61 55c0 56 34 80 79 80c30 0 59 -20 59 -58c0 -58 -38 -77 -77 -77zM289 279h218c-1 -21 -4 -54 -6 -63c-20 -136 -101 -224 -250 -224c-132 0 -209 78 -209 210c0 208 113 313 291 313c82 0 148 -34 173 -96l-95 -53c-16 32 -42 52 -91 52
c-88 0 -154 -67 -154 -219c0 -80 34 -109 93 -109c67 0 106 44 114 95h-100z" />
    <glyph glyph-name="uni0123.sc" horiz-adv-x="534" 
d="M296 279h218c-1 -21 -4 -54 -6 -63c-20 -136 -101 -224 -250 -224c-132 0 -209 78 -209 210c0 208 113 313 291 313c82 0 148 -34 173 -96l-95 -53c-16 32 -42 52 -91 52c-88 0 -154 -67 -154 -219c0 -80 34 -109 93 -109c67 0 106 44 114 95h-100zM215 -216h-91l51 153
h129z" />
    <glyph glyph-name="hcircumflex.sc" horiz-adv-x="564" 
d="M429 726l66 -164h-103l-33 89l-65 -89h-108l124 164h119zM430 507h119l-89 -507h-120l38 213h-196l-38 -213h-120l90 507h119l-35 -199h197z" />
    <glyph glyph-name="hbar.sc" horiz-adv-x="566" 
d="M103 445l12 62h119l-11 -62h197l11 62h119l-11 -62h34l-13 -79h-34l-65 -366h-120l38 213h-196l-38 -213h-120l64 366h-30l14 79h30zM406 366h-196l-11 -58h197z" />
    <glyph glyph-name="igrave.sc" horiz-adv-x="248" 
d="M195 726l40 -163h-95l-54 163h109zM114 507h119l-89 -507h-120z" />
    <glyph glyph-name="iacute.sc" horiz-adv-x="248" 
d="M356 726l-111 -163h-103l97 163h117zM123 507h119l-89 -507h-120z" />
    <glyph glyph-name="ibreve.sc" horiz-adv-x="248" 
d="M366 708c-16 -85 -71 -152 -174 -152c-96 0 -136 67 -121 152h75c-1 -39 23 -66 58 -66c39 0 71 27 84 66h78zM123 507h119l-89 -507h-120z" />
    <glyph glyph-name="icircumflex.sc" horiz-adv-x="248" 
d="M280 726l67 -164h-104l-33 89l-65 -89h-107l124 164h118zM123 507h119l-89 -507h-120z" />
    <glyph glyph-name="itilde.sc" horiz-adv-x="248" 
d="M340 594c-20 14 -43 25 -68 25c-47 0 -94 -41 -153 -41c-30 0 -53 11 -64 22l17 88c14 -17 32 -25 61 -25c47 0 84 41 154 41c35 0 53 -11 69 -22zM123 507h119l-89 -507h-120z" />
    <glyph glyph-name="idieresis.sc" horiz-adv-x="248" 
d="M103 568c-34 0 -60 18 -60 55c0 56 33 80 79 80c30 0 59 -20 59 -58c0 -58 -38 -77 -78 -77zM289 568c-35 0 -60 18 -60 55c0 56 33 80 78 80c30 0 60 -20 60 -58c0 -58 -39 -77 -78 -77zM123 507h119l-89 -507h-120z" />
    <glyph glyph-name="imacron.sc" horiz-adv-x="248" 
d="M353 673l-16 -91h-283l16 91h283zM123 507h119l-89 -507h-120z" />
    <glyph glyph-name="i.sc.loclTRK" horiz-adv-x="248" 
d="M187 568c-34 0 -60 18 -60 55c0 56 33 80 78 80c31 0 60 -20 60 -58c0 -58 -39 -77 -78 -77zM114 507h119l-89 -507h-120z" />
    <glyph glyph-name="iogonek.sc" horiz-adv-x="246" 
d="M78 -50c-22 -16 -37 -31 -37 -50c0 -12 7 -23 26 -23c17 0 44 11 68 27l-17 -97c-30 -14 -59 -23 -101 -23c-62 0 -104 32 -104 82c0 48 26 75 82 119l39 30l87 492h119l-89 -507z" />
    <glyph glyph-name="jcircumflex.sc" horiz-adv-x="400" 
d="M427 726l67 -164h-104l-32 89l-65 -89h-108l124 164h118zM85 132c6 -22 20 -42 54 -42c45 0 69 25 78 82l59 335h114l-62 -345c-20 -116 -84 -170 -196 -170c-83 0 -129 34 -143 85z" />
    <glyph glyph-name="uni0137.sc" horiz-adv-x="515" 
d="M171 149l-26 -149h-121l90 507h120l-35 -198l203 198h152l-219 -214l123 -293h-128l-85 216zM181 -216h-91l51 153h129z" />
    <glyph glyph-name="lacute.sc" horiz-adv-x="398" 
d="M332 726l-111 -163h-103l98 163h116zM358 94l-16 -94h-318l90 507h120l-73 -413h197z" />
    <glyph glyph-name="lcaron.sc" horiz-adv-x="398" 
d="M358 94l-16 -94h-318l90 507h120l-73 -413h197zM380 339h-87l53 168h124z" />
    <glyph glyph-name="uni013C.sc" horiz-adv-x="396" 
d="M365 94l-16 -94h-318l90 507h120l-73 -413h197zM148 -216h-91l51 153h129z" />
    <glyph glyph-name="lslash.sc" horiz-adv-x="403" 
d="M363 94l-16 -94h-318l32 179l-51 -22l17 92l50 22l42 236h120l-32 -183l66 29l-16 -93l-67 -28l-24 -138h197z" />
    <glyph glyph-name="ldot.sc" horiz-adv-x="441" 
d="M358 94l-16 -94h-318l90 507h120l-73 -413h197zM339 230c-35 0 -61 18 -61 55c0 56 34 80 79 80c30 0 59 -20 59 -57c0 -58 -38 -78 -77 -78z" />
    <glyph glyph-name="nacute.sc" horiz-adv-x="558" 
d="M489 726l-111 -163h-103l98 163h116zM425 507h119l-90 -507h-120l-134 316l-55 -316h-122l91 507h125l131 -310z" />
    <glyph glyph-name="ncaron.sc" horiz-adv-x="558" 
d="M279 562l-67 164h103l33 -90l65 90h109l-125 -164h-118zM425 507h119l-90 -507h-120l-134 316l-55 -316h-122l91 507h125l131 -310z" />
    <glyph glyph-name="ntilde.sc" horiz-adv-x="558" 
d="M486 594c-20 14 -42 25 -67 25c-48 0 -95 -41 -154 -41c-30 0 -53 11 -64 22l18 88c13 -17 32 -25 61 -25c46 0 84 41 154 41c34 0 52 -11 69 -22zM425 507h119l-90 -507h-120l-134 316l-55 -316h-122l91 507h125l131 -310z" />
    <glyph glyph-name="uni0146.sc" horiz-adv-x="558" 
d="M425 507h119l-90 -507h-120l-134 316l-55 -316h-122l91 507h125l131 -310zM206 -216h-91l51 153h129z" />
    <glyph glyph-name="ograve.sc" horiz-adv-x="542" 
d="M343 726l40 -163h-95l-54 163h109zM510 312c0 -180 -82 -320 -274 -320c-135 0 -194 92 -194 203c0 166 69 320 275 320c135 0 193 -91 193 -203zM165 193c0 -59 21 -103 82 -103c81 0 139 69 139 220c0 61 -21 108 -80 108c-87 0 -141 -80 -141 -225z" />
    <glyph glyph-name="oacute.sc" horiz-adv-x="542" 
d="M491 726l-111 -163h-103l98 163h116zM510 312c0 -180 -82 -320 -274 -320c-135 0 -194 92 -194 203c0 166 69 320 275 320c135 0 193 -91 193 -203zM165 193c0 -59 21 -103 82 -103c81 0 139 69 139 220c0 61 -21 108 -80 108c-87 0 -141 -80 -141 -225z" />
    <glyph glyph-name="ocircumflex.sc" horiz-adv-x="542" 
d="M418 726l67 -164h-103l-33 89l-65 -89h-108l124 164h118zM510 312c0 -180 -82 -320 -274 -320c-135 0 -194 92 -194 203c0 166 69 320 275 320c135 0 193 -91 193 -203zM165 193c0 -59 21 -103 82 -103c81 0 139 69 139 220c0 61 -21 108 -80 108
c-87 0 -141 -80 -141 -225z" />
    <glyph glyph-name="otilde.sc" horiz-adv-x="542" 
d="M478 594c-19 14 -42 25 -67 25c-48 0 -94 -41 -154 -41c-30 0 -53 11 -64 22l18 88c14 -17 32 -25 61 -25c46 0 84 41 154 41c34 0 52 -11 69 -22zM510 312c0 -180 -82 -320 -274 -320c-135 0 -194 92 -194 203c0 166 69 320 275 320c135 0 193 -91 193 -203zM165 193
c0 -59 21 -103 82 -103c81 0 139 69 139 220c0 61 -21 108 -80 108c-87 0 -141 -80 -141 -225z" />
    <glyph glyph-name="odieresis.sc" horiz-adv-x="542" 
d="M242 568c-35 0 -60 18 -60 55c0 56 33 80 78 80c30 0 60 -20 60 -58c0 -58 -39 -77 -78 -77zM427 568c-34 0 -60 18 -60 55c0 56 33 80 79 80c30 0 59 -20 59 -58c0 -58 -38 -77 -78 -77zM510 312c0 -180 -82 -320 -274 -320c-135 0 -194 92 -194 203
c0 166 69 320 275 320c135 0 193 -91 193 -203zM165 193c0 -59 21 -103 82 -103c81 0 139 69 139 220c0 61 -21 108 -80 108c-87 0 -141 -80 -141 -225z" />
    <glyph glyph-name="omacron.sc" horiz-adv-x="542" 
d="M492 673l-16 -91h-283l16 91h283zM510 312c0 -180 -82 -320 -274 -320c-135 0 -194 92 -194 203c0 166 69 320 275 320c135 0 193 -91 193 -203zM165 193c0 -59 21 -103 82 -103c81 0 139 69 139 220c0 61 -21 108 -80 108c-87 0 -141 -80 -141 -225z" />
    <glyph glyph-name="obreve.sc" horiz-adv-x="542" 
d="M504 708c-16 -85 -71 -152 -174 -152c-95 0 -136 67 -121 152h75c-1 -39 23 -66 59 -66c38 0 70 27 84 66h77zM510 312c0 -180 -82 -320 -274 -320c-135 0 -194 92 -194 203c0 166 69 320 275 320c135 0 193 -91 193 -203zM165 193c0 -59 21 -103 82 -103
c81 0 139 69 139 220c0 61 -21 108 -80 108c-87 0 -141 -80 -141 -225z" />
    <glyph glyph-name="ohungarumlaut.sc" horiz-adv-x="542" 
d="M406 726l-111 -163h-103l98 163h116zM575 726l-112 -163h-103l98 163h117zM510 312c0 -180 -82 -320 -274 -320c-135 0 -194 92 -194 203c0 166 69 320 275 320c135 0 193 -91 193 -203zM165 193c0 -59 21 -103 82 -103c81 0 139 69 139 220c0 61 -21 108 -80 108
c-87 0 -141 -80 -141 -225z" />
    <glyph glyph-name="oslash.sc" horiz-adv-x="542" 
d="M549 507l-68 -75c20 -34 29 -75 29 -120c0 -180 -82 -320 -274 -320c-51 0 -91 13 -121 35l-25 -27h-89l69 77c-19 34 -28 74 -28 118c0 166 69 320 275 320c49 0 88 -12 118 -33l22 25h92zM165 193v-10l194 215c-12 13 -30 20 -53 20c-87 0 -141 -80 -141 -225zM386 310
c0 6 0 11 -1 16l-195 -215c13 -13 32 -21 57 -21c81 0 139 69 139 220z" />
    <glyph glyph-name="oslashacute.sc" horiz-adv-x="542" 
d="M489 726l-111 -163h-103l98 163h116zM549 507l-68 -75c20 -34 29 -75 29 -120c0 -180 -82 -320 -274 -320c-51 0 -91 13 -121 35l-25 -27h-89l69 77c-19 34 -28 74 -28 118c0 166 69 320 275 320c49 0 88 -12 118 -33l22 25h92zM165 193v-10l194 215
c-12 13 -30 20 -53 20c-87 0 -141 -80 -141 -225zM386 310c0 6 0 11 -1 16l-195 -215c13 -13 32 -21 57 -21c81 0 139 69 139 220z" />
    <glyph glyph-name="oe.sc" horiz-adv-x="715" 
d="M651 94l-18 -94h-327c-21 -5 -43 -8 -71 -8c-138 0 -193 93 -193 201c0 168 71 322 275 322c25 0 51 -3 73 -8h330l-16 -94h-228l-19 -113h193l-17 -94h-193l-20 -112h231zM247 90c22 0 39 5 53 11l54 305c-12 7 -28 12 -48 12c-86 0 -140 -78 -140 -226
c0 -57 20 -102 81 -102z" />
    <glyph glyph-name="racute.sc" horiz-adv-x="502" 
d="M454 726l-111 -163h-103l98 163h116zM114 507h196c110 0 177 -46 177 -131c0 -98 -55 -153 -142 -170l85 -206h-127l-72 198h-52l-34 -198h-121zM361 366c0 28 -18 47 -72 47h-72l-22 -121h72c68 0 94 24 94 74z" />
    <glyph glyph-name="rcaron.sc" horiz-adv-x="502" 
d="M232 562l-67 164h103l33 -90l65 90h109l-125 -164h-118zM114 507h196c110 0 177 -46 177 -131c0 -98 -55 -153 -142 -170l85 -206h-127l-72 198h-52l-34 -198h-121zM361 366c0 28 -18 47 -72 47h-72l-22 -121h72c68 0 94 24 94 74z" />
    <glyph glyph-name="uni0157.sc" horiz-adv-x="502" 
d="M114 507h196c110 0 177 -46 177 -131c0 -98 -55 -153 -142 -170l85 -206h-127l-72 198h-52l-34 -198h-121zM361 366c0 28 -18 47 -72 47h-72l-22 -121h72c68 0 94 24 94 74zM170 -216h-91l51 153h129z" />
    <glyph glyph-name="sacute.sc" horiz-adv-x="447" 
d="M451 726l-111 -163h-103l98 163h116zM354 378c-14 24 -42 40 -85 40c-46 0 -72 -27 -72 -62c0 -18 8 -36 48 -50l51 -19c54 -20 102 -61 102 -127c0 -112 -97 -168 -215 -168c-115 0 -164 53 -180 93l90 65c14 -34 36 -60 97 -60c53 0 81 22 81 59c0 19 -11 35 -56 53
l-46 19c-61 24 -99 59 -99 123c0 97 71 171 207 171c96 0 143 -36 166 -76z" />
    <glyph glyph-name="scircumflex.sc" horiz-adv-x="447" 
d="M372 726l67 -164h-104l-32 89l-65 -89h-108l124 164h118zM354 378c-14 24 -42 40 -85 40c-46 0 -72 -27 -72 -62c0 -18 8 -36 48 -50l51 -19c54 -20 102 -61 102 -127c0 -112 -97 -168 -215 -168c-115 0 -164 53 -180 93l90 65c14 -34 36 -60 97 -60c53 0 81 22 81 59
c0 19 -11 35 -56 53l-46 19c-61 24 -99 59 -99 123c0 97 71 171 207 171c96 0 143 -36 166 -76z" />
    <glyph glyph-name="scaron.sc" horiz-adv-x="447" 
d="M225 562l-67 164h103l33 -90l65 90h109l-125 -164h-118zM354 378c-14 24 -42 40 -85 40c-46 0 -72 -27 -72 -62c0 -18 8 -36 48 -50l51 -19c54 -20 102 -61 102 -127c0 -112 -97 -168 -215 -168c-115 0 -164 53 -180 93l90 65c14 -34 36 -60 97 -60c53 0 81 22 81 59
c0 19 -11 35 -56 53l-46 19c-61 24 -99 59 -99 123c0 97 71 171 207 171c96 0 143 -36 166 -76z" />
    <glyph glyph-name="scedilla.sc" horiz-adv-x="447" 
d="M296 287c54 -20 102 -61 102 -127c0 -100 -77 -155 -177 -166l-24 -42c44 0 75 -20 75 -67c0 -68 -52 -101 -125 -101c-38 0 -69 9 -93 23l13 71c20 -16 51 -27 79 -27c22 0 34 9 34 25c0 14 -12 19 -36 19h-43l-5 7l49 92c-88 10 -128 56 -142 91l90 65
c14 -34 36 -60 97 -60c53 0 81 22 81 59c0 19 -11 35 -56 53l-46 19c-61 24 -99 59 -99 123c0 97 71 171 207 171c96 0 143 -36 166 -76l-89 -61c-14 24 -42 40 -85 40c-46 0 -72 -27 -72 -62c0 -18 8 -36 48 -50z" />
    <glyph glyph-name="uni0219.sc" horiz-adv-x="447" 
d="M354 378c-14 24 -42 40 -85 40c-46 0 -72 -27 -72 -62c0 -18 8 -36 48 -50l51 -19c54 -20 102 -61 102 -127c0 -112 -97 -168 -215 -168c-115 0 -164 53 -180 93l90 65c14 -34 36 -60 97 -60c53 0 81 22 81 59c0 19 -11 35 -56 53l-46 19c-61 24 -99 59 -99 123
c0 97 71 171 207 171c96 0 143 -36 166 -76zM160 -216h-91l52 153h129z" />
    <glyph glyph-name="tcaron.sc" horiz-adv-x="445" 
d="M221 562l-66 164h103l33 -90l65 90h108l-124 -164h-119zM465 507l-17 -94h-133l-73 -413h-121l73 413h-133l16 94h388z" />
    <glyph glyph-name="uni021B.sc" horiz-adv-x="445" 
d="M465 507l-17 -94h-133l-73 -413h-121l73 413h-133l16 94h388zM144 -216h-91l52 153h129z" />
    <glyph glyph-name="tbar.sc" horiz-adv-x="445" 
d="M171 279l23 134h-133l16 94h388l-17 -94h-133l-24 -134h68l-14 -79h-67l-36 -200h-121l36 200h-67l14 79h67z" />
    <glyph glyph-name="thorn.sc" horiz-adv-x="479" 
d="M160 89l-16 -89h-120l90 507h119l-15 -89h65c107 0 173 -49 173 -138c0 -125 -80 -191 -221 -191h-75zM176 182h62c69 0 92 36 92 86c0 34 -19 56 -67 56h-62z" />
    <glyph glyph-name="ugrave.sc" horiz-adv-x="528" 
d="M335 726l40 -163h-95l-54 163h109zM231 -7c-123 0 -202 62 -178 203l55 311h121l-55 -308c-12 -71 3 -108 66 -108s92 38 104 108l54 308h121l-55 -311c-25 -141 -110 -203 -233 -203z" />
    <glyph glyph-name="uacute.sc" horiz-adv-x="528" 
d="M472 726l-111 -163h-103l98 163h116zM231 -7c-123 0 -202 62 -178 203l55 311h121l-55 -308c-12 -71 3 -108 66 -108s92 38 104 108l54 308h121l-55 -311c-25 -141 -110 -203 -233 -203z" />
    <glyph glyph-name="ucircumflex.sc" horiz-adv-x="528" 
d="M410 726l67 -164h-103l-33 89l-65 -89h-108l124 164h118zM231 -7c-123 0 -202 62 -178 203l55 311h121l-55 -308c-12 -71 3 -108 66 -108s92 38 104 108l54 308h121l-55 -311c-25 -141 -110 -203 -233 -203z" />
    <glyph glyph-name="utilde.sc" horiz-adv-x="528" 
d="M470 594c-19 14 -42 25 -67 25c-48 0 -94 -41 -154 -41c-30 0 -53 11 -64 22l18 88c14 -17 32 -25 61 -25c46 0 84 41 154 41c35 0 53 -11 69 -22zM231 -7c-123 0 -202 62 -178 203l55 311h121l-55 -308c-12 -71 3 -108 66 -108s92 38 104 108l54 308h121l-55 -311
c-25 -141 -110 -203 -233 -203z" />
    <glyph glyph-name="udieresis.sc" horiz-adv-x="528" 
d="M234 568c-35 0 -60 18 -60 55c0 56 33 80 78 80c31 0 60 -20 60 -58c0 -58 -39 -77 -78 -77zM420 568c-35 0 -61 18 -61 55c0 56 33 80 79 80c30 0 59 -20 59 -58c0 -58 -38 -77 -77 -77zM231 -7c-123 0 -202 62 -178 203l55 311h121l-55 -308c-12 -71 3 -108 66 -108
s92 38 104 108l54 308h121l-55 -311c-25 -141 -110 -203 -233 -203z" />
    <glyph glyph-name="umacron.sc" horiz-adv-x="528" 
d="M485 673l-17 -91h-283l16 91h284zM231 -7c-123 0 -202 62 -178 203l55 311h121l-55 -308c-12 -71 3 -108 66 -108s92 38 104 108l54 308h121l-55 -311c-25 -141 -110 -203 -233 -203z" />
    <glyph glyph-name="ubreve.sc" horiz-adv-x="528" 
d="M495 708c-15 -85 -70 -152 -173 -152c-96 0 -137 67 -121 152h74c0 -39 23 -66 59 -66c39 0 70 27 84 66h77zM231 -7c-123 0 -202 62 -178 203l55 311h121l-55 -308c-12 -71 3 -108 66 -108s92 38 104 108l54 308h121l-55 -311c-25 -141 -110 -203 -233 -203z" />
    <glyph glyph-name="uring.sc" horiz-adv-x="528" 
d="M232 636c0 57 41 113 119 113c63 0 93 -43 93 -87c0 -56 -42 -113 -123 -113c-60 0 -89 45 -89 87zM298 642c0 -17 9 -32 31 -32c31 0 47 23 47 45c0 17 -9 33 -33 33c-28 0 -45 -24 -45 -46zM231 -7c-123 0 -202 62 -178 203l55 311h121l-55 -308
c-12 -71 3 -108 66 -108s92 38 104 108l54 308h121l-55 -311c-25 -141 -110 -203 -233 -203z" />
    <glyph glyph-name="uhungarumlaut.sc" horiz-adv-x="545" 
d="M401 726l-111 -163h-103l98 163h116zM570 726l-112 -163h-103l99 163h116zM231 -7c-123 0 -202 62 -178 203l55 311h121l-55 -308c-12 -71 3 -108 66 -108s92 38 104 108l54 308h121l-55 -311c-25 -141 -110 -203 -233 -203z" />
    <glyph glyph-name="uogonek.sc" horiz-adv-x="528" 
d="M398 507h121l-55 -311c-19 -108 -74 -170 -154 -193l-63 -44c-22 -15 -38 -31 -38 -50c0 -11 8 -22 26 -22s45 11 68 26l-16 -96c-30 -14 -60 -23 -101 -23c-63 0 -104 31 -104 82c0 47 26 75 82 119l5 4c-86 19 -136 81 -116 197l55 311h121l-55 -308
c-12 -71 3 -108 66 -108s92 38 104 108z" />
    <glyph glyph-name="wacute.sc" horiz-adv-x="782" 
d="M595 726l-111 -163h-103l98 163h116zM503 507l28 -378l150 378h127l-217 -507h-146l-32 349l-157 -349h-144l-40 507h117l18 -378l161 378h135z" />
    <glyph glyph-name="wcircumflex.sc" horiz-adv-x="782" 
d="M534 726l67 -164h-104l-32 89l-65 -89h-108l124 164h118zM503 507l28 -378l150 378h127l-217 -507h-146l-32 349l-157 -349h-144l-40 507h117l18 -378l161 378h135z" />
    <glyph glyph-name="wdieresis.sc" horiz-adv-x="782" 
d="M356 568c-35 0 -61 18 -61 55c0 56 34 80 79 80c30 0 59 -20 59 -58c0 -58 -38 -77 -77 -77zM541 568c-34 0 -60 18 -60 55c0 56 33 80 78 80c31 0 60 -20 60 -58c0 -58 -39 -77 -78 -77zM503 507l28 -378l150 378h127l-217 -507h-146l-32 349l-157 -349h-144l-40 507
h117l18 -378l161 378h135z" />
    <glyph glyph-name="wgrave.sc" horiz-adv-x="782" 
d="M451 726l41 -163h-96l-53 163h108zM503 507l28 -378l150 378h127l-217 -507h-146l-32 349l-157 -349h-144l-40 507h117l18 -378l161 378h135z" />
    <glyph glyph-name="yacute.sc" horiz-adv-x="483" 
d="M446 726l-111 -163h-103l98 163h116zM141 0l34 194l-119 313h125l69 -209l138 209h138l-230 -313l-35 -194h-120z" />
    <glyph glyph-name="ycircumflex.sc" horiz-adv-x="483" 
d="M385 726l66 -164h-103l-33 89l-65 -89h-108l124 164h119zM141 0l34 194l-119 313h125l69 -209l138 209h138l-230 -313l-35 -194h-120z" />
    <glyph glyph-name="ydieresis.sc" horiz-adv-x="483" 
d="M208 568c-34 0 -60 18 -60 55c0 56 33 80 79 80c30 0 59 -20 59 -58c0 -58 -38 -77 -78 -77zM394 568c-35 0 -61 18 -61 55c0 56 34 80 79 80c30 0 59 -20 59 -58c0 -58 -38 -77 -77 -77zM141 0l34 194l-119 313h125l69 -209l138 209h138l-230 -313l-35 -194h-120z" />
    <glyph glyph-name="ygrave.sc" horiz-adv-x="483" 
d="M308 726l41 -163h-95l-54 163h108zM141 0l34 194l-119 313h125l69 -209l138 209h138l-230 -313l-35 -194h-120z" />
    <glyph glyph-name="zacute.sc" horiz-adv-x="432" 
d="M424 726l-111 -163h-103l98 163h116zM422 424l-264 -330h216l-17 -94h-361l14 81l266 332h-197l16 94h342z" />
    <glyph glyph-name="zcaron.sc" horiz-adv-x="432" 
d="M216 562l-67 164h103l33 -90l65 90h109l-125 -164h-118zM422 424l-264 -330h216l-17 -94h-361l14 81l266 332h-197l16 94h342z" />
    <glyph glyph-name="zdotaccent.sc" horiz-adv-x="432" 
d="M279 568c-35 0 -61 18 -61 55c0 56 33 80 79 80c30 0 59 -20 59 -58c0 -58 -38 -77 -77 -77zM422 424l-264 -330h216l-17 -94h-361l14 81l266 332h-197l16 94h342z" />
    <glyph glyph-name="ij.sc" horiz-adv-x="648" 
d="M114 507h119l-89 -507h-120zM333 132c6 -22 20 -42 54 -42c45 0 69 25 78 82l59 335h114l-62 -345c-20 -116 -84 -170 -196 -170c-83 0 -129 34 -143 85z" />
    <glyph glyph-name="germandbls.sc" horiz-adv-x="548" 
d="M405 262c59 -25 90 -68 90 -129c0 -86 -76 -141 -175 -141c-75 0 -123 30 -145 54l64 81c19 -23 46 -41 80 -41c31 0 49 20 49 46c0 22 -9 36 -37 49l-86 43l13 69l117 110c-22 10 -47 15 -76 15c-61 0 -93 -34 -104 -103l-55 -315h-121l57 328c22 131 107 187 228 187
c84 0 155 -23 200 -53l-16 -83l-112 -105z" />
    <glyph glyph-name="fi.sc" horiz-adv-x="683" 
d="M114 507h332l-16 -94h-213l-22 -125h177l-16 -95h-178l-33 -193h-121zM548 507h119l-89 -507h-120z" />
    <glyph glyph-name="fl.sc" horiz-adv-x="832" 
d="M114 507h332l-16 -94h-213l-22 -125h177l-16 -95h-178l-33 -193h-121zM792 94l-16 -94h-318l90 507h120l-73 -413h197z" />
    <glyph glyph-name="eng.sc" horiz-adv-x="558" 
d="M424 507h119l-89 -505c-14 -75 -49 -131 -127 -174l-70 84c37 20 61 43 72 88l-130 316l-55 -316h-122l91 507h129l126 -311z" />
    <glyph glyph-name="grave.sc" horiz-adv-x="570" 
d="M440 726l40 -163h-95l-54 163h109z" />
    <glyph glyph-name="acute.sc" horiz-adv-x="570" 
d="M516 726l-111 -163h-103l98 163h116z" />
    <glyph glyph-name="circumflex.sc" horiz-adv-x="570" 
d="M481 726l67 -164h-104l-32 89l-65 -89h-108l124 164h118z" />
    <glyph glyph-name="caron.sc" horiz-adv-x="570" 
d="M334 562l-67 164h103l33 -90l65 90h109l-125 -164h-118z" />
    <glyph glyph-name="caronalt.sc" horiz-adv-x="570" 
d="M368 339h-86l53 168h123z" />
    <glyph glyph-name="tilde.sc" horiz-adv-x="570" 
d="M541 594c-20 14 -42 25 -68 25c-47 0 -94 -41 -153 -41c-30 0 -53 11 -64 22l17 88c14 -17 32 -25 62 -25c46 0 83 41 153 41c35 0 53 -11 70 -22z" />
    <glyph glyph-name="dieresis.sc" horiz-adv-x="570" 
d="M304 568c-35 0 -60 18 -60 55c0 56 33 80 78 80c31 0 60 -20 60 -58c0 -58 -39 -77 -78 -77zM489 568c-34 0 -60 18 -60 55c0 56 33 80 79 80c30 0 59 -20 59 -58c0 -58 -38 -77 -78 -77z" />
    <glyph glyph-name="macron.sc" horiz-adv-x="570" 
d="M554 673l-17 -91h-282l15 91h284z" />
    <glyph glyph-name="breve.sc" horiz-adv-x="570" 
d="M566 708c-15 -85 -71 -152 -174 -152c-95 0 -136 67 -121 152h75c0 -39 23 -66 59 -66c38 0 70 27 84 66h77z" />
    <glyph glyph-name="ring.sc" horiz-adv-x="570" 
d="M301 636c0 57 42 113 119 113c64 0 94 -43 94 -87c0 -56 -43 -113 -123 -113c-60 0 -90 45 -90 87zM368 642c0 -17 9 -32 31 -32c31 0 47 23 47 45c0 17 -10 33 -33 33c-29 0 -45 -24 -45 -46z" />
    <glyph glyph-name="hungarumlaut.sc" horiz-adv-x="570" 
d="M430 726l-111 -163h-103l98 163h116zM599 726l-111 -163h-104l99 163h116z" />
    <glyph glyph-name="dotaccent.sc" horiz-adv-x="570" 
d="M397 568c-35 0 -61 18 -61 55c0 56 34 80 79 80c30 0 59 -20 59 -58c0 -58 -38 -77 -77 -77z" />
    <glyph glyph-name="exclamdown.sc" horiz-adv-x="235" 
d="M165 511c35 0 61 -26 61 -56c0 -41 -34 -71 -79 -71c-34 0 -60 27 -60 57c0 41 35 70 78 70zM182 333l-39 -333h-132l78 333h93z" />
    <glyph glyph-name="questiondown.sc" horiz-adv-x="370" 
d="M248 511c36 0 59 -23 59 -53c0 -42 -36 -74 -81 -74c-35 0 -59 24 -59 55c0 41 37 72 81 72zM153 -8c-95 0 -142 52 -142 117c0 122 136 140 151 224h112c-21 -117 -151 -139 -151 -206c0 -21 13 -38 39 -38c38 0 55 22 57 40l104 -12c-12 -65 -64 -125 -170 -125z" />
    <glyph glyph-name="Euro.sc" horiz-adv-x="458" 
d="M318 415c-51 0 -83 -32 -102 -80h178l-34 -66h-162c-1 -11 -3 -23 -4 -35h152l-35 -67h-119c4 -54 39 -76 78 -76c27 0 63 7 104 27l10 -101c-36 -15 -80 -25 -130 -25c-110 0 -180 52 -187 175h-42l12 67h32c1 12 2 24 4 35h-30l12 66h33c38 117 124 180 245 180
c52 0 96 -11 138 -29l-51 -90c-25 10 -62 19 -102 19z" />
    <glyph glyph-name="cent.sc" horiz-adv-x="391" 
d="M190 81c28 0 57 19 75 44l59 -54c-35 -52 -92 -79 -159 -79h-13l-20 -47l-44 11l19 45c-60 20 -82 73 -82 133c0 105 58 216 200 216c10 0 19 -1 28 -2l24 57l45 -11l-24 -57c30 -13 51 -35 61 -67l-79 -53c-4 12 -11 22 -20 30zM133 147c0 -21 5 -38 14 -50l69 163
c-53 -2 -83 -49 -83 -113z" />
    <glyph glyph-name="sterling.sc" horiz-adv-x="458" 
d="M87 257l14 77c17 97 73 181 203 181c83 0 126 -33 163 -78l-81 -70c-25 30 -52 47 -90 47c-47 0 -73 -31 -81 -82l-13 -75h118l-12 -67h-118l-18 -101h194l-16 -89h-309l35 190h-46l12 67h45z" />
    <glyph glyph-name="florin.sc" horiz-adv-x="318" 
d="M149 -61c-10 -60 -54 -109 -128 -109c-34 0 -67 6 -78 11l17 91c13 -5 34 -6 44 -6c27 0 40 16 44 41l50 285h-63l16 90h63l13 75c11 60 55 108 135 108c26 0 59 -5 70 -10l-16 -90c-13 3 -31 5 -45 5c-22 0 -37 -11 -42 -40l-9 -48h70l-15 -90h-70z" />
    <glyph glyph-name="yen.sc" horiz-adv-x="498" 
d="M168 234l-12 34h-102l11 67h69l-56 172h122l52 -201l124 201h137l-119 -172h72l-12 -67h-106l-25 -34h125l-12 -67h-145l-30 -167h-114l29 167h-140l11 67h121z" />
    <glyph glyph-name="uni20A8.sc" horiz-adv-x="470" 
d="M484 507l-14 -72h-96c10 -13 16 -34 15 -57h72l-10 -56h-68c-13 -60 -59 -104 -113 -116l83 -206h-128l-73 190h-115l16 93h78c84 0 113 9 122 39h-192l10 56h192c-1 27 -14 37 -71 37h-115l16 92h391z" />
    <glyph glyph-name="perthousand.sc" horiz-adv-x="965" 
d="M203 512c74 0 108 -47 108 -112c0 -98 -38 -176 -149 -176c-76 0 -109 47 -109 110c0 102 42 178 150 178zM194 0h-86l395 507h88zM167 284c38 0 64 32 64 121c0 30 -10 46 -34 46c-36 0 -63 -30 -63 -120c0 -31 10 -47 33 -47zM539 283c74 0 108 -46 108 -111
c0 -99 -38 -177 -149 -177c-76 0 -109 48 -109 111c0 102 42 177 150 177zM814 283c74 0 108 -46 108 -111c0 -99 -38 -177 -149 -177c-76 0 -109 48 -109 111c0 102 42 177 150 177zM503 56c38 0 64 31 64 121c0 30 -10 46 -34 46c-36 0 -63 -30 -63 -120
c0 -31 10 -47 33 -47zM778 56c38 0 64 31 64 121c0 30 -10 46 -34 46c-36 0 -63 -30 -63 -120c0 -31 10 -47 33 -47z" />
    <glyph glyph-name="zero.tf" 
d="M352 687c128 0 190 -109 190 -243c0 -275 -93 -455 -311 -455c-125 0 -189 105 -189 244c0 277 96 454 310 454zM250 96c91 0 162 104 162 348c0 83 -23 136 -78 136c-90 0 -163 -103 -163 -347c0 -84 24 -137 79 -137z" />
    <glyph glyph-name="one.tf" 
d="M70 106h151l76 424l-150 -62l-18 121l210 87h113l-100 -570h136l-19 -106h-418z" />
    <glyph glyph-name="two.tf" 
d="M353 687c114 0 187 -73 187 -176c0 -114 -78 -187 -170 -277l-134 -130h239l-19 -104h-414l16 88l233 222c72 70 117 123 117 195c0 46 -23 75 -64 75c-61 0 -93 -44 -103 -112h-120c12 130 92 219 232 219z" />
    <glyph glyph-name="three.tf" 
d="M405 340c48 -13 94 -58 94 -134c0 -129 -99 -217 -255 -217c-154 0 -207 80 -188 188h120c-9 -50 21 -81 79 -81c64 0 114 42 114 113c0 51 -34 84 -101 84h-62l19 103h61c80 0 127 40 127 113c0 42 -26 71 -73 71c-54 0 -90 -33 -98 -80h-122c13 105 84 187 231 187
c118 0 195 -70 195 -167c0 -103 -79 -168 -141 -180z" />
    <glyph glyph-name="four.tf" 
d="M512 134h-74l-23 -134h-126l23 134h-292l17 91l364 451h133l-77 -439h73zM331 237l44 254l-194 -254h150z" />
    <glyph glyph-name="five.tf" 
d="M506 255c0 -152 -99 -266 -263 -266c-155 0 -207 84 -188 194h120c-9 -53 19 -87 76 -87c85 0 122 70 122 146c0 50 -27 87 -80 87c-37 0 -69 -16 -93 -34l-98 16l105 365h348l-19 -104h-245l-43 -155c16 9 46 19 81 19c96 0 177 -58 177 -181z" />
    <glyph glyph-name="six.tf" 
d="M435 500c8 49 -17 80 -68 80c-83 0 -131 -82 -151 -194c24 22 76 47 134 47c103 0 179 -68 179 -179c0 -161 -100 -265 -263 -265c-136 0 -200 111 -200 244c0 230 84 454 310 454c146 0 200 -84 181 -187h-122zM195 261c-2 -13 -3 -27 -4 -38c-3 -75 21 -127 82 -127
c81 0 123 65 123 148c0 52 -27 87 -82 87c-51 0 -94 -35 -119 -70z" />
    <glyph glyph-name="seven.tf" 
d="M411 572h-269l17 104h420l-16 -89l-337 -587h-146z" />
    <glyph glyph-name="eight.tf" 
d="M250 -11c-126 0 -208 63 -208 172s71 170 149 191c-48 19 -82 58 -82 126c0 128 102 209 255 209c118 0 197 -61 197 -167c0 -100 -60 -155 -133 -178c39 -16 89 -55 89 -135c0 -140 -107 -218 -267 -218zM350 580c-65 0 -111 -40 -111 -109c0 -48 32 -73 78 -73
c60 0 110 36 110 110c0 46 -28 72 -77 72zM264 96c74 0 124 43 124 118c0 54 -37 81 -89 81c-67 0 -125 -40 -125 -119c0 -51 34 -80 90 -80z" />
    <glyph glyph-name="nine.tf" 
d="M179 176c-8 -49 17 -80 68 -80c83 0 131 82 151 194c-24 -22 -77 -47 -134 -47c-103 0 -179 68 -179 179c0 161 100 265 263 265c136 0 200 -111 200 -244c0 -230 -84 -454 -310 -454c-146 0 -200 84 -181 187h122zM419 415c2 13 3 27 4 38c3 75 -21 127 -82 127
c-81 0 -123 -65 -123 -148c0 -52 26 -87 81 -87c52 0 95 35 120 70z" />
    <glyph glyph-name="zero.tosf" 
d="M339 586c135 0 202 -96 202 -227c0 -214 -94 -370 -295 -370c-135 0 -203 97 -203 227c0 214 95 370 296 370zM260 100c91 0 151 83 151 254c0 72 -25 121 -86 121c-91 0 -152 -82 -152 -254c0 -72 25 -121 87 -121z" />
    <glyph glyph-name="one.tosf" 
d="M74 109h154l57 320l-145 -53l-19 111l207 88h107l-83 -466h127l-19 -109h-405z" />
    <glyph glyph-name="two.tosf" 
d="M45 0l14 80l224 169c71 54 117 95 117 156c0 46 -27 75 -69 75c-59 0 -94 -43 -104 -100h-117c15 120 99 206 234 206c121 0 182 -83 182 -167c0 -107 -62 -162 -150 -229l-121 -94h215l-17 -96h-408z" />
    <glyph glyph-name="three.tosf" 
d="M387 239c48 -13 94 -58 94 -134c0 -129 -99 -217 -255 -217c-154 0 -207 80 -188 189h120c-9 -51 21 -81 79 -81c64 0 114 41 114 112c0 51 -34 84 -101 84h-62l19 104h61c80 0 127 39 127 112c0 42 -26 71 -73 71c-54 0 -90 -33 -98 -80h-122c13 105 84 187 231 187
c118 0 195 -70 195 -167c0 -103 -79 -167 -141 -180z" />
    <glyph glyph-name="four.tosf" 
d="M494 34h-74l-23 -134h-126l23 134h-291l16 91l364 451h133l-77 -439h73zM313 137l45 254l-195 -254h150z" />
    <glyph glyph-name="five.tosf" 
d="M488 154c0 -151 -99 -265 -264 -265c-154 0 -206 84 -187 194h120c-9 -53 19 -87 76 -87c85 0 122 70 122 146c0 50 -27 86 -80 86c-37 0 -69 -15 -94 -34l-97 17l105 365h348l-19 -104h-245l-44 -155c17 9 47 18 82 18c96 0 177 -57 177 -181z" />
    <glyph glyph-name="six.tosf" 
d="M435 500c8 49 -17 80 -68 80c-83 0 -131 -82 -151 -194c24 22 76 47 134 47c103 0 179 -68 179 -179c0 -161 -100 -265 -263 -265c-136 0 -200 111 -200 244c0 230 84 454 310 454c146 0 200 -84 181 -187h-122zM195 261c-2 -13 -3 -27 -4 -38c-3 -75 21 -127 82 -127
c81 0 123 65 123 148c0 52 -27 87 -82 87c-51 0 -94 -35 -119 -70z" />
    <glyph glyph-name="seven.tosf" 
d="M394 472h-269l18 104h419l-15 -89l-338 -587h-145z" />
    <glyph glyph-name="eight.tosf" 
d="M250 -11c-126 0 -208 63 -208 172s71 170 149 191c-48 19 -82 58 -82 126c0 128 102 209 255 209c118 0 197 -61 197 -167c0 -100 -60 -155 -133 -178c39 -16 89 -55 89 -135c0 -140 -107 -218 -267 -218zM350 580c-65 0 -111 -40 -111 -109c0 -48 32 -73 78 -73
c60 0 110 36 110 110c0 46 -28 72 -77 72zM264 96c74 0 124 43 124 118c0 54 -37 81 -89 81c-67 0 -125 -40 -125 -119c0 -51 34 -80 90 -80z" />
    <glyph glyph-name="nine.tosf" 
d="M161 75c-8 -49 17 -79 68 -79c83 0 131 81 151 193c-24 -22 -76 -47 -134 -47c-103 0 -179 68 -179 179c0 161 100 265 264 265c135 0 199 -111 199 -244c0 -229 -84 -454 -310 -454c-146 0 -199 84 -181 187h122zM401 315c2 12 3 26 4 38c3 74 -21 126 -82 126
c-81 0 -123 -65 -123 -148c0 -52 27 -87 82 -87c51 0 94 35 119 71z" />
    <glyph glyph-name="Euro.tf" 
d="M415 574c-68 0 -117 -50 -147 -132h229l-40 -78h-209c-4 -18 -6 -38 -8 -58h190l-39 -78h-154c2 -70 35 -127 104 -127c36 0 82 10 134 39l12 -113c-51 -27 -100 -38 -163 -38c-139 0 -219 85 -221 239h-53l14 78h42c2 20 4 39 7 58h-39l13 78h44c49 157 156 244 297 244
c68 0 122 -15 171 -40l-55 -101c-33 15 -77 29 -129 29z" />
    <glyph glyph-name="cent.tf" 
d="M290 94c38 0 70 23 93 56l76 -62c-43 -67 -110 -99 -190 -99c-10 0 -19 1 -28 2l-25 -63l-57 14l26 65c-61 31 -90 98 -90 171c0 146 67 288 243 288c11 0 22 -1 32 -2l31 76l58 -14l-31 -77c36 -17 63 -45 74 -84l-88 -57c-6 16 -15 29 -28 38l-102 -252h6zM218 187
c0 -24 5 -46 15 -63l95 237c-82 -5 -110 -92 -110 -174z" />
    <glyph glyph-name="sterling.tf" 
d="M129 337l20 111c23 130 91 238 247 238c102 0 156 -42 199 -100l-89 -78c-30 46 -65 65 -117 65c-66 0 -103 -50 -117 -130l-19 -106h156l-14 -78h-156l-28 -158h251l-18 -101h-374l45 259h-58l14 78h58z" />
    <glyph glyph-name="florin.tf" 
d="M292 -81c-14 -79 -64 -145 -157 -145c-36 0 -75 6 -88 11l18 104c17 -6 40 -8 54 -8c38 0 55 24 62 67l72 406h-83l18 102h83l17 98c14 79 63 146 163 146c29 0 68 -6 81 -11l-18 -104c-17 5 -37 8 -54 8c-35 0 -53 -19 -61 -65l-13 -72h90l-18 -102h-90z" />
    <glyph glyph-name="yen.tf" 
d="M212 306l-14 58h-125l13 78h84l-71 234h134l72 -289l176 289h147l-157 -234h88l-14 -78h-129l-35 -58h154l-14 -78h-172l-41 -228h-130l40 228h-169l14 78h149z" />
    <glyph glyph-name="uni20A8.tf" 
d="M598 677l-14 -78h-122c16 -20 26 -56 26 -90h81l-15 -79h-76c-19 -73 -86 -133 -172 -147l106 -283h-138l-95 268h-108l16 99h101c86 0 128 16 153 63h-241l14 79h243c-8 49 -39 66 -126 66h-107l18 101z" />
    <glyph glyph-name="dollar.tf" 
d="M377 377c70 -27 133 -70 133 -162c0 -125 -85 -211 -225 -224l-17 -94h-68l16 93c-121 10 -167 76 -184 126l97 70c15 -43 38 -80 107 -86l33 189l-29 11c-68 27 -123 78 -123 162c0 114 71 212 222 223l13 74h68l-13 -75c90 -9 140 -52 163 -98l-97 -69
c-14 30 -44 50 -86 57l-33 -188zM250 474c0 -27 16 -47 41 -61l28 159c-46 -12 -69 -49 -69 -98zM305 104c48 13 72 46 72 95c0 31 -18 50 -44 65z" />
    <glyph glyph-name="zero.osf" horiz-adv-x="588" 
d="M352 586c138 0 207 -97 207 -229c0 -212 -96 -368 -301 -368c-138 0 -207 97 -207 228c0 214 96 369 301 369zM272 100c95 0 157 82 157 254c0 72 -26 121 -91 121c-95 0 -158 -82 -158 -253c0 -73 27 -122 92 -122z" />
    <glyph glyph-name="one.osf" horiz-adv-x="378" 
d="M144 0l78 443l-150 -59l-15 108l205 83h108l-101 -575h-125z" />
    <glyph glyph-name="two.osf" horiz-adv-x="506" 
d="M8 0l15 80l224 169c71 54 116 95 116 156c0 46 -26 75 -69 75c-58 0 -93 -43 -103 -100h-117c14 120 98 206 234 206c121 0 182 -83 182 -167c0 -107 -62 -162 -151 -229l-120 -94h215l-17 -96h-409z" />
    <glyph glyph-name="three.osf" horiz-adv-x="522" 
d="M369 240c48 -13 94 -58 94 -134c0 -129 -100 -217 -255 -217c-154 0 -207 80 -188 188h120c-9 -50 21 -81 79 -81c64 0 114 42 114 113c0 51 -34 84 -101 84h-62l19 103h61c80 0 127 40 127 113c0 42 -26 71 -73 71c-54 0 -90 -33 -98 -80h-122c13 105 84 187 230 187
c119 0 195 -70 195 -167c0 -103 -78 -168 -140 -180z" />
    <glyph glyph-name="four.osf" horiz-adv-x="553" 
d="M491 34h-73l-24 -134h-126l24 134h-292l16 91l364 451h133l-77 -439h73zM310 137l45 254l-194 -254h149z" />
    <glyph glyph-name="five.osf" horiz-adv-x="512" 
d="M464 155c0 -152 -99 -266 -263 -266c-155 0 -207 84 -188 194h121c-9 -53 19 -87 76 -87c84 0 121 70 121 146c0 50 -26 87 -80 87c-37 0 -68 -16 -93 -34l-98 16l105 365h348l-19 -104h-244l-44 -155c16 9 46 19 81 19c96 0 177 -58 177 -181z" />
    <glyph glyph-name="six.osf" horiz-adv-x="554" 
d="M432 500c8 49 -17 80 -68 80c-83 0 -131 -82 -151 -194c24 22 77 47 134 47c103 0 179 -68 179 -179c0 -161 -100 -265 -263 -265c-136 0 -200 111 -200 244c0 230 84 454 310 454c146 0 200 -84 181 -187h-122zM192 261c-2 -13 -3 -27 -4 -38c-3 -75 21 -127 82 -127
c81 0 123 65 123 148c0 52 -26 87 -81 87c-52 0 -95 -35 -120 -70z" />
    <glyph glyph-name="seven.osf" horiz-adv-x="477" 
d="M353 472h-269l18 104h419l-15 -89l-338 -587h-145z" />
    <glyph glyph-name="eight.osf" horiz-adv-x="558" 
d="M250 -11c-127 0 -209 63 -209 172s72 170 149 191c-48 19 -81 58 -81 126c0 128 101 209 254 209c118 0 197 -61 197 -167c0 -100 -59 -155 -133 -178c40 -16 90 -55 90 -135c0 -140 -108 -218 -267 -218zM349 580c-65 0 -111 -40 -111 -109c0 -48 33 -73 78 -73
c61 0 111 36 111 110c0 46 -29 72 -78 72zM263 96c74 0 124 43 124 118c0 54 -37 81 -89 81c-66 0 -124 -40 -124 -119c0 -51 34 -80 89 -80z" />
    <glyph glyph-name="nine.osf" horiz-adv-x="554" 
d="M159 75c-8 -49 17 -79 68 -79c83 0 131 81 151 193c-24 -22 -76 -47 -134 -47c-103 0 -179 68 -179 179c0 161 100 265 263 265c136 0 200 -111 200 -244c0 -229 -84 -454 -310 -454c-146 0 -200 84 -181 187h122zM399 315c2 12 3 26 4 38c3 74 -21 126 -82 126
c-81 0 -123 -65 -123 -148c0 -52 27 -87 82 -87c51 0 94 35 119 71z" />
    <glyph glyph-name="uni2070" unicode="&#x2070;" horiz-adv-x="365" 
d="M286 792c87 0 127 -54 127 -136c0 -135 -50 -240 -183 -240c-89 0 -128 57 -128 137c0 138 54 239 184 239zM237 486c53 0 88 48 88 170c0 41 -13 66 -45 66c-51 0 -88 -47 -88 -169c0 -42 14 -67 45 -67z" />
    <glyph glyph-name="uni2074" unicode="&#x2074;" horiz-adv-x="335" 
d="M366 490h-38l-12 -67h-87l12 67h-169l11 59l204 239h94l-41 -230h38zM253 558l20 113l-93 -113h73z" />
    <glyph glyph-name="uni2075" unicode="&#x2075;" horiz-adv-x="316" 
d="M355 560c0 -91 -63 -143 -157 -143c-96 0 -125 45 -114 106h83c-4 -23 12 -36 38 -36c37 0 59 26 59 63c0 23 -15 41 -41 41c-19 0 -37 -7 -49 -16l-66 11l61 202h209l-11 -68h-140l-20 -66c6 2 25 6 46 6c49 0 102 -26 102 -100z" />
    <glyph glyph-name="uni2076" unicode="&#x2076;" horiz-adv-x="345" 
d="M279 722c-46 0 -68 -37 -78 -86c15 9 42 21 79 21c55 0 102 -33 102 -100c0 -84 -64 -141 -159 -141c-83 0 -122 62 -122 135c0 123 48 241 185 241c90 0 122 -47 112 -104h-83c3 22 -11 34 -36 34zM189 560c-7 -43 5 -75 41 -75c41 0 61 28 61 65c0 24 -14 41 -41 41
c-28 0 -50 -16 -61 -31z" />
    <glyph glyph-name="uni2077" unicode="&#x2077;" horiz-adv-x="288" 
d="M270 720h-156l12 68h254l-9 -58l-194 -307h-94z" />
    <glyph glyph-name="uni2078" unicode="&#x2078;" horiz-adv-x="346" 
d="M219 417c-78 0 -129 34 -129 94c0 53 36 88 81 101c-28 11 -46 34 -46 66c0 79 68 115 151 115c78 0 124 -35 124 -92c0 -51 -35 -83 -74 -95c29 -9 51 -31 51 -73c0 -81 -72 -116 -158 -116zM268 723c-31 0 -52 -17 -52 -49c0 -21 16 -32 38 -32c30 0 54 15 54 49
c0 20 -15 32 -40 32zM242 575c-36 0 -61 -23 -61 -52c0 -24 21 -37 46 -37c30 0 61 19 61 51c0 23 -17 38 -46 38z" />
    <glyph glyph-name="uni2079" unicode="&#x2079;" horiz-adv-x="344" 
d="M216 485c45 0 69 37 78 87c-15 -10 -43 -21 -80 -21c-55 0 -101 33 -101 99c0 84 64 142 159 142c82 0 121 -63 121 -136c0 -123 -48 -240 -184 -240c-90 0 -122 46 -113 103h84c-4 -21 11 -34 36 -34zM305 647c7 43 -4 75 -40 75c-41 0 -61 -28 -61 -64
c0 -25 13 -42 40 -42c29 0 50 16 61 31z" />
    <glyph glyph-name="uni2080" unicode="&#x2080;" horiz-adv-x="365" 
d="M194 270c87 0 127 -54 127 -136c0 -135 -51 -240 -183 -240c-90 0 -128 57 -128 137c0 138 54 239 184 239zM145 -36c52 0 87 48 87 170c0 41 -13 67 -45 67c-50 0 -87 -47 -87 -170c0 -42 13 -67 45 -67z" />
    <glyph glyph-name="uni2081" unicode="&#x2081;" horiz-adv-x="247" 
d="M65 -100l50 276l-96 -34l-10 73l133 49h75l-64 -364h-88z" />
    <glyph glyph-name="uni2082" unicode="&#x2082;" horiz-adv-x="313" 
d="M164 270c60 0 114 -36 114 -102c0 -58 -44 -100 -98 -146l-63 -55h126l-11 -67h-248l9 57l133 116c38 32 62 59 62 93c0 20 -11 35 -31 35c-31 0 -46 -20 -52 -54h-83c7 74 55 123 142 123z" />
    <glyph glyph-name="uni2083" unicode="&#x2083;" horiz-adv-x="323" 
d="M208 82c28 -7 53 -32 53 -74c0 -75 -69 -114 -152 -114c-93 0 -126 43 -115 106h83c-4 -23 11 -36 39 -36s55 17 55 48c0 23 -16 39 -53 39h-38l12 67h37c42 0 64 19 64 51c0 20 -14 32 -36 32c-25 0 -42 -14 -46 -34h-83c10 60 51 103 137 103c62 0 120 -30 120 -94
c0 -54 -35 -85 -77 -94z" />
    <glyph glyph-name="uni2084" unicode="&#x2084;" horiz-adv-x="336" 
d="M274 -33h-39l-11 -67h-87l12 67h-169l10 59l205 238h94l-41 -230h38zM161 34l20 113l-93 -113h73z" />
    <glyph glyph-name="uni2085" unicode="&#x2085;" horiz-adv-x="316" 
d="M263 36c0 -90 -63 -142 -157 -142c-96 0 -125 44 -114 106h83c-4 -24 12 -36 38 -36c36 0 58 25 58 62c0 24 -14 42 -40 42c-19 0 -37 -8 -49 -17l-66 12l60 201h210l-11 -67h-140l-20 -66c6 2 25 6 46 6c48 0 102 -26 102 -101z" />
    <glyph glyph-name="uni2086" unicode="&#x2086;" horiz-adv-x="345" 
d="M187 201c-46 0 -69 -38 -78 -87c15 9 42 21 79 21c55 0 101 -33 101 -99c0 -85 -64 -142 -158 -142c-83 0 -122 62 -122 136c0 122 48 240 184 240c91 0 122 -47 113 -103h-84c4 21 -11 34 -35 34zM97 38c-7 -42 4 -74 40 -74c41 0 61 27 61 64c0 24 -13 41 -40 41
c-29 0 -50 -16 -61 -31z" />
    <glyph glyph-name="uni2087" unicode="&#x2087;" horiz-adv-x="288" 
d="M178 197h-157l12 67h255l-10 -58l-193 -306h-94z" />
    <glyph glyph-name="uni2088" unicode="&#x2088;" horiz-adv-x="346" 
d="M127 -106c-79 0 -129 35 -129 95c0 53 35 87 81 100c-28 12 -46 34 -46 67c0 78 67 114 151 114c77 0 123 -35 123 -92c0 -51 -34 -82 -73 -94c28 -9 51 -31 51 -73c0 -82 -72 -117 -158 -117zM176 201c-32 0 -52 -18 -52 -49c0 -22 15 -32 38 -32c30 0 53 14 53 49
c0 20 -14 32 -39 32zM150 53c-37 0 -61 -23 -61 -53c0 -23 21 -36 46 -36c30 0 60 18 60 51c0 23 -16 38 -45 38z" />
    <glyph glyph-name="uni2089" unicode="&#x2089;" horiz-adv-x="345" 
d="M124 -36c46 0 69 37 78 86c-15 -9 -42 -21 -79 -21c-55 0 -102 33 -102 99c0 85 64 142 159 142c83 0 122 -62 122 -136c0 -122 -48 -240 -185 -240c-90 0 -122 47 -112 103h83c-3 -21 11 -33 36 -33zM214 126c7 42 -5 74 -41 74c-41 0 -61 -27 -61 -64
c0 -24 14 -41 41 -41c28 0 50 16 61 31z" />
    <glyph glyph-name="zero.denom" horiz-adv-x="364" 
d="M202 370c87 0 127 -54 127 -136c0 -135 -50 -240 -183 -240c-89 0 -128 57 -128 137c0 138 54 239 184 239zM153 64c53 0 88 48 88 170c0 41 -13 67 -46 67c-50 0 -87 -47 -87 -170c0 -42 13 -67 45 -67z" />
    <glyph glyph-name="one.denom" horiz-adv-x="246" 
d="M74 0l50 276l-96 -34l-10 73l133 49h75l-64 -364h-88z" />
    <glyph glyph-name="two.denom" horiz-adv-x="312" 
d="M173 370c60 0 114 -36 114 -102c0 -58 -44 -100 -98 -146l-63 -55h126l-11 -67h-248l9 57l133 116c38 32 62 59 62 93c0 20 -11 35 -31 35c-31 0 -46 -20 -52 -54h-83c7 74 55 123 142 123z" />
    <glyph glyph-name="three.denom" horiz-adv-x="322" 
d="M217 182c28 -7 53 -32 53 -74c0 -75 -69 -114 -152 -114c-93 0 -126 43 -115 106h83c-4 -23 11 -36 39 -36s55 17 55 48c0 23 -16 39 -53 39h-38l12 67h37c42 0 64 19 64 51c0 20 -14 32 -36 32c-25 0 -42 -14 -46 -34h-83c10 60 51 103 137 103c62 0 120 -30 120 -94
c0 -54 -35 -85 -77 -94z" />
    <glyph glyph-name="four.denom" horiz-adv-x="335" 
d="M282 67h-39l-11 -67h-87l12 67h-169l10 59l205 238h94l-41 -230h38zM169 134l20 113l-93 -113h73z" />
    <glyph glyph-name="five.denom" horiz-adv-x="317" 
d="M272 136c0 -90 -63 -142 -157 -142c-96 0 -125 44 -114 106h83c-4 -24 12 -36 38 -36c36 0 58 25 58 62c0 24 -14 42 -40 42c-19 0 -37 -8 -49 -17l-66 12l60 201h210l-11 -67h-140l-20 -66c6 2 25 6 46 6c48 0 102 -26 102 -101z" />
    <glyph glyph-name="six.denom" horiz-adv-x="344" 
d="M196 301c-46 0 -69 -38 -78 -87c15 9 42 21 79 21c55 0 101 -33 101 -99c0 -85 -64 -142 -158 -142c-83 0 -122 62 -122 136c0 122 48 240 184 240c91 0 122 -47 113 -103h-84c4 21 -11 34 -35 34zM106 138c-7 -42 4 -74 40 -74c41 0 61 27 61 64c0 24 -13 41 -40 41
c-29 0 -50 -16 -61 -31z" />
    <glyph glyph-name="seven.denom" horiz-adv-x="287" 
d="M186 297h-157l13 67h254l-9 -58l-194 -306h-94z" />
    <glyph glyph-name="eight.denom" horiz-adv-x="345" 
d="M136 -6c-79 0 -129 35 -129 95c0 53 35 87 81 100c-28 12 -46 34 -46 67c0 78 67 114 151 114c77 0 123 -35 123 -92c0 -51 -34 -82 -73 -94c28 -9 51 -31 51 -73c0 -82 -72 -117 -158 -117zM185 301c-32 0 -52 -18 -52 -49c0 -22 15 -32 38 -32c30 0 53 14 53 49
c0 20 -14 32 -39 32zM159 153c-37 0 -61 -23 -61 -53c0 -23 21 -36 46 -36c30 0 60 18 60 51c0 23 -16 38 -45 38z" />
    <glyph glyph-name="nine.denom" horiz-adv-x="343" 
d="M132 64c46 0 69 37 79 86c-15 -9 -43 -21 -80 -21c-55 0 -101 33 -101 99c0 85 63 142 158 142c83 0 122 -62 122 -136c0 -122 -48 -240 -185 -240c-90 0 -121 47 -112 103h84c-4 -21 10 -33 35 -33zM222 226c7 42 -4 74 -41 74c-40 0 -60 -27 -60 -64
c0 -24 13 -41 40 -41c28 0 50 16 61 31z" />
    <glyph glyph-name="zero.num" horiz-adv-x="365" 
d="M267 681c86 0 127 -54 127 -136c0 -135 -51 -239 -183 -239c-90 0 -128 57 -128 136c0 138 53 239 184 239zM217 375c53 0 88 49 88 170c0 42 -13 67 -45 67c-50 0 -88 -47 -88 -170c0 -42 14 -67 45 -67z" />
    <glyph glyph-name="one.num" horiz-adv-x="247" 
d="M137 311l50 276l-96 -33l-10 72l133 50h76l-64 -365h-89z" />
    <glyph glyph-name="two.num" horiz-adv-x="313" 
d="M237 681c60 0 114 -35 114 -101c0 -59 -44 -100 -98 -147l-63 -54h126l-11 -68h-248l9 57l133 116c38 32 62 59 62 93c0 20 -11 35 -31 35c-30 0 -46 -20 -52 -54h-83c7 74 55 123 142 123z" />
    <glyph glyph-name="three.num" horiz-adv-x="322" 
d="M280 493c28 -7 53 -31 53 -74c0 -75 -69 -114 -152 -114c-93 0 -126 43 -115 106h83c-4 -23 11 -36 39 -36c29 0 55 17 55 48c0 23 -16 39 -53 39h-38l12 67h37c43 0 64 19 64 52c0 19 -13 31 -36 31c-25 0 -42 -14 -45 -34h-84c10 60 52 103 137 103
c62 0 121 -30 121 -93c0 -55 -36 -86 -78 -95z" />
    <glyph glyph-name="four.num" horiz-adv-x="333" 
d="M344 378h-38l-12 -67h-86l11 67h-169l11 59l205 239h93l-41 -230h38zM231 446l20 113l-93 -113h73z" />
    <glyph glyph-name="five.num" horiz-adv-x="314" 
d="M333 448c0 -91 -63 -143 -156 -143c-97 0 -126 45 -115 106h83c-4 -23 12 -36 38 -36c37 0 59 26 59 63c0 23 -15 41 -41 41c-19 0 -37 -7 -48 -16l-67 11l61 202h210l-12 -68h-140l-19 -66c6 2 24 6 45 6c49 0 102 -26 102 -100z" />
    <glyph glyph-name="six.num" horiz-adv-x="342" 
d="M257 612c-46 0 -68 -38 -78 -86c15 9 42 20 79 20c55 0 102 -32 102 -99c0 -84 -64 -142 -159 -142c-83 0 -122 63 -122 136c0 123 48 240 185 240c90 0 122 -46 112 -103h-83c3 21 -11 34 -36 34zM167 450c-6 -43 5 -75 41 -75c41 0 61 28 61 64c0 24 -14 42 -41 42
c-28 0 -50 -16 -61 -31z" />
    <glyph glyph-name="seven.num" horiz-adv-x="287" 
d="M250 608h-157l12 68h255l-10 -58l-193 -307h-94z" />
    <glyph glyph-name="eight.num" horiz-adv-x="344" 
d="M198 305c-79 0 -129 35 -129 95c0 53 36 88 81 101c-28 11 -46 34 -46 66c0 79 68 114 151 114c78 0 123 -34 123 -92c0 -51 -34 -82 -73 -94c29 -9 51 -31 51 -73c0 -81 -72 -117 -158 -117zM247 612c-32 0 -52 -18 -52 -49c0 -21 15 -32 38 -32c30 0 54 15 54 49
c0 20 -15 32 -40 32zM221 464c-37 0 -61 -23 -61 -52c0 -24 21 -37 46 -37c30 0 60 18 60 51c0 23 -16 38 -45 38z" />
    <glyph glyph-name="nine.num" horiz-adv-x="343" 
d="M195 375c45 0 69 37 78 86c-15 -9 -43 -20 -80 -20c-54 0 -101 32 -101 99c0 84 64 141 159 141c82 0 121 -62 121 -136c0 -122 -48 -240 -184 -240c-90 0 -122 47 -113 104h84c-4 -22 11 -34 36 -34zM285 537c6 43 -5 75 -41 75c-41 0 -61 -28 -61 -64
c0 -25 13 -42 41 -42s49 16 61 31z" />
    <glyph glyph-name="arrowleft" unicode="&#x2190;" horiz-adv-x="750" 
d="M349 573l66 -68l-168 -168h441v-101h-441l168 -168l-66 -67l-287 286z" />
    <glyph glyph-name="arrowup" unicode="&#x2191;" horiz-adv-x="750" 
d="M681 339l-68 -66l-168 168v-441h-101v441l-168 -168l-67 66l286 287z" />
    <glyph glyph-name="arrowright" unicode="&#x2192;" horiz-adv-x="750" 
d="M426 13l-66 68l168 168h-441v101h441l-168 168l66 67l287 -286z" />
    <glyph glyph-name="arrowdown" unicode="&#x2193;" horiz-adv-x="750" 
d="M93 246l68 67l168 -168v441h101v-441l168 167l67 -66l-286 -286z" />
    <glyph glyph-name="uni2196" unicode="&#x2196;" horiz-adv-x="750" 
d="M567 526v-95h-238l312 -312l-72 -72l-312 312v-238h-95v405h405z" />
    <glyph glyph-name="uni2197" unicode="&#x2197;" horiz-adv-x="750" 
d="M600 121h-95v238l-312 -312l-72 72l313 312h-238v95h404v-405z" />
    <glyph glyph-name="uni2198" unicode="&#x2198;" horiz-adv-x="750" 
d="M205 60v95h238l-312 312l72 72l312 -312v238h95v-405h-405z" />
    <glyph glyph-name="uni2199" unicode="&#x2199;" horiz-adv-x="750" 
d="M175 465h96v-238l312 312l71 -72l-312 -312h238v-95h-405v405z" />
    <glyph glyph-name="parenleft.case" horiz-adv-x="301" 
d="M138 -122c-46 94 -77 219 -77 335c0 261 84 425 228 591l93 -35c-112 -173 -197 -335 -197 -566c0 -85 15 -198 44 -290z" />
    <glyph glyph-name="parenright.case" horiz-adv-x="301" 
d="M-21 -87c157 236 192 374 192 551c0 93 -17 214 -43 305l93 35c43 -99 77 -217 77 -338c0 -242 -88 -428 -237 -588z" />
    <glyph glyph-name="hyphen.case" horiz-adv-x="413" 
d="M374 381v-101h-286v101h286z" />
    <glyph glyph-name="bracketleft.case" horiz-adv-x="333" 
d="M407 790l-17 -100h-115l-124 -706h114l-17 -100h-240l159 906h240z" />
    <glyph glyph-name="bracketright.case" horiz-adv-x="334" 
d="M382 790l-160 -906h-240l18 100h115l125 706h-115l17 100h240z" />
    <glyph glyph-name="braceleft.case" horiz-adv-x="328" 
d="M283 452c-18 -101 -52 -109 -80 -115c27 -14 52 -53 38 -118l-35 -198c-7 -39 8 -51 43 -51l-15 -86c-120 0 -167 47 -149 146l31 180c10 59 -18 82 -77 82l17 90c58 0 95 30 107 95l32 181c19 105 66 132 199 132l-17 -95c-36 0 -54 -13 -61 -51z" />
    <glyph glyph-name="bar.case" horiz-adv-x="261" 
d="M120 -116v906h78v-906h-78z" />
    <glyph glyph-name="braceright.case" horiz-adv-x="325" 
d="M100 226c18 101 52 113 80 120c-26 14 -53 48 -39 113l35 194c7 39 -9 51 -43 51l15 86c120 0 168 -52 150 -151l-32 -175c-10 -59 18 -82 77 -82l-17 -90c-58 0 -93 -20 -105 -86l-34 -191c-19 -106 -66 -131 -199 -131l17 95c35 0 54 13 61 51z" />
    <glyph glyph-name="guilsinglleft.case" horiz-adv-x="340" 
d="M288 560l61 -61l-156 -177l94 -178l-80 -45l-150 231z" />
    <glyph glyph-name="guilsinglright.case" horiz-adv-x="343" 
d="M108 99l-60 61l156 177l-94 178l79 45l151 -231z" />
    <glyph glyph-name="guillemotleft.case" horiz-adv-x="549" 
d="M286 560l61 -61l-156 -177l94 -178l-79 -45l-151 231zM496 560l61 -61l-156 -177l94 -178l-79 -45l-151 231z" />
    <glyph glyph-name="guillemotright.case" horiz-adv-x="553" 
d="M108 99l-60 61l156 177l-94 178l79 45l151 -231zM319 99l-61 61l157 177l-94 178l79 45l151 -231z" />
    <glyph glyph-name="endash.case" horiz-adv-x="614" 
d="M575 381v-101h-487v101h487z" />
    <glyph glyph-name="emdash.case" horiz-adv-x="756" 
d="M717 381v-101h-627v101h627z" />
    <glyph glyph-name="bullet.case" horiz-adv-x="399" 
d="M226 198c-81 0 -138 56 -138 131c0 76 57 131 138 131c79 0 137 -55 137 -131c0 -75 -58 -131 -137 -131z" />
    <glyph glyph-name="periodcentered.case" horiz-adv-x="262" 
d="M155 293c-44 0 -75 32 -75 70c0 54 43 92 98 92c40 0 71 -32 71 -72c0 -53 -43 -90 -94 -90z" />
    <glyph glyph-name="circle" unicode="&#x25cb;" horiz-adv-x="770" 
d="M65 337c0 204 138 349 339 349c204 0 341 -145 341 -349c0 -201 -137 -348 -341 -348c-201 0 -339 147 -339 348zM148 337c0 -162 98 -268 256 -268s257 106 257 268c0 163 -99 269 -257 269s-256 -106 -256 -269z" />
    <glyph glyph-name="brokenbar.sc" horiz-adv-x="249" 
d="M93 290v292h67v-292h-67zM160 188v-290h-67v290h67z" />
    <glyph glyph-name="uni1EB8" unicode="&#x1eb8;" horiz-adv-x="527" 
d="M467 106l-19 -106h-420l119 676h417l-18 -106h-288l-31 -177h247l-18 -106h-248l-32 -181h291zM204 -197c-36 0 -65 15 -65 58c0 58 38 83 86 83c31 0 60 -21 60 -61c0 -57 -40 -80 -81 -80z" />
    <glyph glyph-name="Gcaron" unicode="&#x1e6;" horiz-adv-x="633" 
d="M345 752l-67 164h102l33 -90l65 90h109l-124 -164h-118zM359 368h260c-1 -22 -3 -49 -5 -60c-20 -164 -103 -318 -314 -318c-150 0 -244 100 -244 260c0 298 143 436 359 436c113 0 180 -52 207 -123l-103 -60c-18 45 -53 73 -116 73c-134 0 -213 -107 -213 -320
c0 -107 43 -156 122 -156c100 0 151 78 162 162h-134z" />
    <glyph glyph-name="uni021E" unicode="&#x21e;" horiz-adv-x="659" 
d="M358 752l-67 164h102l33 -90l65 90h109l-124 -164h-118zM542 676h129l-120 -676h-129l53 297h-265l-52 -297h-130l119 676h130l-49 -273h265z" />
    <glyph glyph-name="uni1E24" unicode="&#x1e24;" horiz-adv-x="659" 
d="M542 676h129l-120 -676h-129l53 297h-265l-52 -297h-130l119 676h130l-49 -273h265zM269 -197c-36 0 -65 15 -65 58c0 58 38 83 86 83c31 0 60 -21 60 -61c0 -57 -40 -80 -81 -80z" />
    <glyph glyph-name="uni1ECA" unicode="&#x1eca;" horiz-adv-x="265" 
d="M147 676h130l-119 -676h-130zM72 -197c-36 0 -65 15 -65 58c0 58 38 83 86 83c31 0 60 -21 60 -61c0 -57 -40 -80 -81 -80z" />
    <glyph glyph-name="uni1E36" unicode="&#x1e36;" horiz-adv-x="462" 
d="M428 106l-19 -106h-381l119 676h130l-101 -570h252zM170 -197c-36 0 -65 15 -65 58c0 58 38 83 86 83c31 0 60 -21 60 -61c0 -57 -40 -80 -81 -80z" />
    <glyph glyph-name="uni1E44" unicode="&#x1e44;" horiz-adv-x="656" 
d="M437 738c-36 0 -65 15 -65 58c0 58 38 83 86 83c31 0 60 -21 60 -61c0 -57 -40 -80 -81 -80zM538 676h130l-120 -676h-138l-171 461l-80 -461h-132l121 676h142l168 -455z" />
    <glyph glyph-name="uni1ECC" unicode="&#x1ecc;" horiz-adv-x="646" 
d="M629 425c0 -237 -91 -435 -341 -435c-151 0 -231 105 -231 256c0 244 88 440 341 440c163 0 231 -114 231 -261zM190 246c0 -82 29 -146 110 -146c112 0 195 97 195 325c0 85 -29 151 -109 151c-127 0 -196 -122 -196 -330zM262 -197c-36 0 -65 15 -65 58
c0 58 38 83 86 83c31 0 60 -21 60 -61c0 -57 -40 -80 -81 -80z" />
    <glyph glyph-name="uni1E62" unicode="&#x1e62;" horiz-adv-x="525" 
d="M448 517c-18 37 -56 59 -114 59c-64 0 -105 -41 -105 -102c0 -34 22 -58 59 -71l64 -26c70 -27 133 -70 133 -162c0 -136 -100 -226 -263 -226c-144 0 -197 73 -215 127l97 70c15 -47 43 -87 128 -87c73 0 116 37 116 100c0 38 -27 59 -65 74l-69 27
c-67 27 -122 78 -122 162c0 121 80 224 252 224c114 0 175 -48 200 -100zM202 -197c-36 0 -65 15 -65 58c0 58 38 83 86 83c31 0 60 -21 60 -61c0 -57 -40 -80 -81 -80z" />
    <glyph glyph-name="uni1E9E" unicode="&#x1e9e;" horiz-adv-x="646" 
d="M486 349c71 -32 116 -84 116 -157c0 -119 -84 -202 -217 -202c-106 0 -163 50 -186 91l86 87c20 -36 53 -67 101 -67c49 0 78 33 78 77c0 37 -16 59 -57 77l-122 54l14 80l176 162c-29 16 -63 24 -105 24c-91 0 -126 -56 -143 -152l-74 -423h-130l77 438
c31 179 128 248 281 248c98 0 187 -37 237 -77l-17 -92l-161 -148z" />
    <glyph glyph-name="uni0162" unicode="&#x162;" horiz-adv-x="524" 
d="M105 676h471l-19 -106h-170l-100 -570h-27l-26 -48c43 0 74 -20 74 -67c0 -68 -52 -101 -124 -101c-39 0 -70 9 -94 23l13 71c20 -16 51 -27 79 -27c22 0 34 9 34 25c0 14 -12 19 -36 19h-43l-5 7l52 98h-27l100 570h-170z" />
    <glyph glyph-name="uni01D3" unicode="&#x1d3;" horiz-adv-x="622" 
d="M332 736l-67 164h102l33 -90l65 90h109l-124 -164h-118zM280 -10c-152 0 -246 79 -213 268l74 418h130l-73 -415c-19 -109 6 -161 91 -161c83 0 127 52 147 161l72 415h130l-73 -418c-33 -189 -135 -268 -285 -268z" />
    <glyph glyph-name="uni1EE4" unicode="&#x1ee4;" horiz-adv-x="622" 
d="M280 -10c-152 0 -246 79 -213 268l74 418h130l-73 -415c-19 -109 6 -161 91 -161c83 0 127 52 147 161l72 415h130l-73 -418c-33 -189 -135 -268 -285 -268zM250 -197c-36 0 -65 15 -65 58c0 58 38 83 86 83c31 0 60 -21 60 -61c0 -57 -40 -80 -81 -80z" />
    <glyph glyph-name="uni1EB9" unicode="&#x1eb9;" horiz-adv-x="457" 
d="M229 90c36 0 75 15 112 43l44 -82c-39 -35 -95 -61 -165 -61c-132 0 -189 77 -189 188c0 162 100 288 239 288c112 0 165 -76 165 -158c0 -44 -15 -92 -25 -118h-259c-8 -61 16 -100 78 -100zM321 275c2 6 5 13 5 32c0 42 -27 63 -62 63c-54 0 -86 -42 -98 -95h155z
M167 -197c-36 0 -65 15 -65 58c0 58 38 83 86 83c31 0 60 -21 60 -61c0 -57 -40 -80 -81 -80z" />
    <glyph glyph-name="gcaron" unicode="&#x1e7;" horiz-adv-x="505" 
d="M239 532l-66 164h102l33 -90l65 90h109l-124 -164h-119zM491 456l-86 -484c-19 -107 -99 -178 -220 -178c-122 0 -179 63 -164 150h103c-4 -28 14 -56 68 -56c51 0 83 28 93 77l11 66c-22 -21 -61 -41 -104 -41c-110 0 -158 70 -158 183c0 185 88 293 223 293
c59 0 96 -24 114 -48l7 38h113zM157 188c0 -48 18 -89 72 -89c31 0 64 14 85 32l34 195c-11 14 -36 30 -73 30c-76 0 -118 -63 -118 -168z" />
    <glyph glyph-name="uni021F" unicode="&#x21f;" horiz-adv-x="502" 
d="M278 729l-67 164h102l33 -90l65 90h109l-124 -164h-118zM137 690h120l-47 -270c24 21 68 46 126 46c99 0 145 -64 125 -181l-50 -285h-120l49 272c9 57 -6 84 -62 84c-31 0 -67 -18 -87 -34l-56 -322h-120z" />
    <glyph glyph-name="uni1E25" unicode="&#x1e25;" horiz-adv-x="502" 
d="M137 690h120l-47 -270c24 21 68 46 126 46c99 0 145 -64 125 -181l-50 -285h-120l49 272c9 57 -6 84 -62 84c-31 0 -67 -18 -87 -34l-56 -322h-120zM190 -197c-36 0 -65 15 -65 58c0 58 38 83 86 83c31 0 60 -21 60 -61c0 -57 -40 -80 -81 -80z" />
    <glyph glyph-name="uni1ECB" unicode="&#x1ecb;" horiz-adv-x="229" 
d="M169 543c-36 0 -61 16 -61 55c0 59 38 86 85 86c32 0 60 -19 60 -58c0 -60 -44 -83 -84 -83zM95 456h120l-81 -456h-120zM54 -197c-36 0 -65 15 -65 58c0 58 38 83 86 83c31 0 60 -21 60 -61c0 -57 -40 -80 -81 -80z" />
    <glyph glyph-name="uni1E37" unicode="&#x1e37;" horiz-adv-x="250" 
d="M254 690l-96 -542c-5 -32 2 -42 28 -42h22l-20 -111h-52c-91 0 -113 57 -100 135l98 560h120zM64 -197c-36 0 -65 15 -65 58c0 58 38 83 86 83c31 0 60 -21 60 -61c0 -57 -40 -80 -81 -80z" />
    <glyph glyph-name="uni1E45" unicode="&#x1e45;" horiz-adv-x="501" 
d="M318 533c-36 0 -65 15 -65 58c0 58 38 83 86 83c31 0 60 -21 60 -61c0 -57 -40 -80 -81 -80zM95 456h116l-8 -44c25 25 68 54 133 54c96 0 146 -62 125 -181l-51 -285h-119l48 272c10 57 -6 84 -62 84c-31 0 -67 -17 -86 -34l-57 -322h-120z" />
    <glyph glyph-name="uni1ECD" unicode="&#x1ecd;" horiz-adv-x="488" 
d="M277 466c125 0 179 -79 179 -192c0 -159 -90 -284 -245 -284c-125 0 -178 82 -178 192c0 158 88 284 244 284zM220 97c69 0 114 79 114 177c0 56 -21 85 -67 85c-69 0 -112 -77 -112 -177c0 -55 20 -85 65 -85zM183 -197c-36 0 -65 15 -65 58c0 58 38 83 86 83
c31 0 60 -21 60 -61c0 -57 -40 -80 -81 -80z" />
    <glyph glyph-name="uni1E63" unicode="&#x1e63;" horiz-adv-x="421" 
d="M339 329c-21 28 -58 48 -100 48c-43 0 -65 -24 -65 -52c0 -20 11 -34 42 -43l55 -19c69 -21 105 -61 105 -117c0 -75 -54 -156 -205 -156c-94 0 -150 43 -172 78l76 68c20 -29 53 -58 105 -58c40 0 72 18 72 51c0 21 -12 33 -47 44l-60 21c-57 20 -93 59 -93 114
c0 70 51 158 199 158c79 0 135 -36 161 -67zM149 -197c-36 0 -65 15 -65 58c0 58 38 83 86 83c31 0 60 -21 60 -61c0 -57 -40 -80 -81 -80z" />
    <glyph glyph-name="uni0163" unicode="&#x163;" horiz-adv-x="335" 
d="M241 355l-36 -206c-7 -35 8 -50 38 -50c14 0 34 4 52 8l-17 -103c-21 -8 -50 -13 -80 -14l-21 -38c44 0 75 -20 75 -67c0 -68 -52 -101 -125 -101c-38 0 -69 9 -93 23l13 71c20 -16 51 -27 79 -27c22 0 34 9 34 25c0 14 -12 19 -36 19h-43l-5 7l54 101
c-45 22 -58 70 -47 130l39 222h-78l16 91l80 10l19 111l123 19l-23 -130h95l-18 -101h-95z" />
    <glyph glyph-name="uni01D4" unicode="&#x1d4;" horiz-adv-x="501" 
d="M232 532l-67 164h102l33 -90l65 90h109l-124 -164h-118zM406 0h-115l7 44c-25 -25 -68 -54 -132 -54c-97 0 -146 62 -125 181l50 285h120l-49 -272c-9 -57 6 -84 62 -84c31 0 68 17 87 34l57 322h119z" />
    <glyph glyph-name="uni1EE5" unicode="&#x1ee5;" horiz-adv-x="501" 
d="M406 0h-115l7 44c-25 -25 -68 -54 -132 -54c-97 0 -146 62 -125 181l50 285h120l-49 -272c-9 -57 6 -84 62 -84c31 0 68 17 87 34l57 322h119zM171 -197c-36 0 -65 15 -65 58c0 58 38 83 86 83c31 0 60 -21 60 -61c0 -57 -40 -80 -81 -80z" />
    <glyph glyph-name="uni0163.sc" horiz-adv-x="445" 
d="M77 507h388l-17 -94h-133l-73 -413h-21l-26 -48c43 0 74 -20 74 -67c0 -68 -52 -101 -124 -101c-39 0 -70 9 -94 23l13 71c20 -16 51 -27 79 -27c22 0 34 9 34 25c0 14 -12 19 -36 19h-43l-5 7l52 98h-24l73 413h-133z" />
    <glyph glyph-name="uni0410" unicode="&#x410;" horiz-adv-x="596" 
d="M404 154h-228l-72 -154h-144l343 676h148l105 -676h-134zM227 260h165l-33 283z" />
    <glyph glyph-name="uni0411" unicode="&#x411;" horiz-adv-x="568" 
d="M316 415c127 0 213 -71 213 -184c0 -143 -93 -231 -271 -231h-230l119 676h392l-18 -106h-262l-27 -155h84zM268 106c87 0 124 47 124 117c0 52 -31 86 -96 86h-83l-36 -203h91z" />
    <glyph glyph-name="uni0412" unicode="&#x412;" horiz-adv-x="577" 
d="M147 676h221c118 0 188 -55 188 -156c0 -94 -57 -152 -118 -169c53 -16 97 -59 97 -138c0 -159 -112 -213 -283 -213h-224zM307 402c90 0 112 47 112 103c0 39 -23 65 -83 65h-78l-30 -168h79zM269 106c105 0 133 46 133 115c0 44 -28 75 -99 75h-94l-33 -190h93z" />
    <glyph glyph-name="uni0413" unicode="&#x413;" horiz-adv-x="488" 
d="M147 676h396l-19 -106h-266l-100 -570h-130z" />
    <glyph glyph-name="uni0403" unicode="&#x403;" horiz-adv-x="488" 
d="M554 916l-111 -164h-110l98 164h123zM147 676h396l-19 -106h-266l-100 -570h-130z" />
    <glyph glyph-name="uni0490" unicode="&#x490;" horiz-adv-x="504" 
d="M28 0l119 676h282l22 124h129l-41 -230h-281l-100 -570h-130z" />
    <glyph glyph-name="uni0414" unicode="&#x414;" horiz-adv-x="661" 
d="M-57 -123l41 229h46c33 19 59 82 87 200l91 370h446l-100 -570h66l-40 -229h-129l21 123h-378l-22 -123h-129zM177 106h248l81 464h-194l-72 -295c-18 -72 -39 -127 -63 -169z" />
    <glyph glyph-name="uni0415" unicode="&#x415;" horiz-adv-x="527" 
d="M467 106l-19 -106h-420l119 676h417l-18 -106h-288l-31 -177h247l-18 -106h-248l-32 -181h291z" />
    <glyph glyph-name="uni0400" unicode="&#x400;" horiz-adv-x="527" 
d="M369 916l40 -164h-100l-53 164h113zM467 106l-19 -106h-420l119 676h417l-18 -106h-288l-31 -177h247l-18 -106h-248l-32 -181h291z" />
    <glyph glyph-name="uni0401" unicode="&#x401;" horiz-adv-x="527" 
d="M266 753c-39 0 -63 19 -63 57c0 55 34 84 81 84c31 0 63 -19 63 -58c0 -60 -41 -83 -81 -83zM453 753c-38 0 -62 19 -62 57c0 55 33 84 81 84c31 0 63 -19 63 -58c0 -60 -41 -83 -82 -83zM467 106l-19 -106h-420l119 676h417l-18 -106h-288l-31 -177h247l-18 -106h-248
l-32 -181h291z" />
    <glyph glyph-name="uni0416" unicode="&#x416;" horiz-adv-x="885" 
d="M955 676l-277 -345l161 -331h-148l-129 286h-44l-50 -286h-130l50 286h-45l-217 -286h-160l282 353l-157 323h140l131 -285h45l50 285h130l-50 -285h45l221 285h152z" />
    <glyph glyph-name="uni0417" unicode="&#x417;" horiz-adv-x="521" 
d="M376 340c50 -13 102 -58 102 -137c0 -127 -104 -214 -265 -214c-157 0 -220 82 -203 188h121c-9 -50 28 -81 90 -81c72 0 127 42 127 112c0 54 -44 85 -112 85h-66l17 103h65c86 0 140 40 140 111c0 44 -32 73 -84 73c-65 0 -103 -34 -109 -80h-123
c10 105 84 187 241 187c124 0 207 -70 207 -169c0 -101 -82 -166 -148 -178z" />
    <glyph glyph-name="uni0418" unicode="&#x418;" horiz-adv-x="679" 
d="M542 676h137l-120 -676h-130l81 451l-361 -451h-133l120 676h130l-80 -445z" />
    <glyph glyph-name="uni0419" unicode="&#x419;" horiz-adv-x="679" 
d="M394 756c-98 0 -141 67 -127 152h86c-6 -44 8 -74 49 -74c43 0 64 30 71 74h89c-15 -85 -67 -152 -168 -152zM542 676h137l-120 -676h-130l81 451l-361 -451h-133l120 676h130l-80 -445z" />
    <glyph glyph-name="uni040D" unicode="&#x40d;" horiz-adv-x="679" 
d="M449 752h-100l-53 164h113zM542 676h137l-120 -676h-130l81 451l-361 -451h-133l120 676h130l-80 -445z" />
    <glyph glyph-name="uni041A" unicode="&#x41a;" horiz-adv-x="574" 
d="M28 0l119 676h130l-51 -285h50l217 285h155l-273 -343l151 -333h-146l-119 286h-53l-50 -286h-130z" />
    <glyph glyph-name="uni040C" unicode="&#x40c;" horiz-adv-x="574" 
d="M532 916l-111 -164h-110l98 164h123zM28 0l119 676h130l-51 -285h50l217 285h155l-273 -343l151 -333h-146l-119 286h-53l-50 -286h-130z" />
    <glyph glyph-name="uni041B" unicode="&#x41b;" horiz-adv-x="653" 
d="M-6 105c7 -3 16 -5 27 -5c38 0 64 37 100 184l95 392h448l-120 -676h-130l101 570h-194l-77 -313c-52 -215 -115 -267 -206 -267c-34 0 -56 6 -65 12z" />
    <glyph glyph-name="uni041C" unicode="&#x41c;" horiz-adv-x="823" 
d="M618 676h176l-52 -676h-122l49 525l-229 -525h-141l-36 520l-143 -520h-122l194 676h168l35 -517z" />
    <glyph glyph-name="uni041D" unicode="&#x41d;" horiz-adv-x="659" 
d="M542 676h129l-120 -676h-129l53 297h-265l-52 -297h-130l119 676h130l-49 -273h265z" />
    <glyph glyph-name="uni041E" unicode="&#x41e;" horiz-adv-x="646" 
d="M629 425c0 -237 -91 -435 -341 -435c-151 0 -231 105 -231 256c0 244 88 440 341 440c163 0 231 -114 231 -261zM190 246c0 -82 29 -146 110 -146c112 0 195 97 195 325c0 85 -29 151 -109 151c-127 0 -196 -122 -196 -330z" />
    <glyph glyph-name="uni041F" unicode="&#x41f;" horiz-adv-x="644" 
d="M655 676l-119 -676h-130l100 570h-248l-100 -570h-130l119 676h508z" />
    <glyph glyph-name="uni0420" unicode="&#x420;" horiz-adv-x="561" 
d="M201 247l-43 -247h-130l119 676h225c128 0 200 -71 200 -183c0 -161 -101 -246 -273 -246h-98zM219 354h87c103 0 131 61 131 133c0 48 -25 83 -92 83h-87z" />
    <glyph glyph-name="uni0421" unicode="&#x421;" horiz-adv-x="576" 
d="M192 262c0 -96 37 -162 119 -162c55 0 102 37 132 81l93 -68c-55 -70 -126 -123 -242 -123c-155 0 -238 111 -238 268c0 265 122 428 345 428c110 0 180 -54 208 -128l-105 -60c-15 44 -54 78 -109 78c-134 0 -203 -126 -203 -314z" />
    <glyph glyph-name="uni0422" unicode="&#x422;" horiz-adv-x="524" 
d="M576 676l-19 -106h-170l-100 -570h-130l100 570h-170l18 106h471z" />
    <glyph glyph-name="uni0423" unicode="&#x423;" horiz-adv-x="540" 
d="M477 676h144l-421 -676h-141l156 253l-129 423h132l83 -300z" />
    <glyph glyph-name="uni040E" unicode="&#x40e;" horiz-adv-x="540" 
d="M355 756c-98 0 -141 67 -127 152h86c-6 -44 8 -74 49 -74c43 0 64 30 71 74h89c-15 -85 -67 -152 -168 -152zM477 676h144l-421 -676h-141l156 253l-129 423h132l83 -300z" />
    <glyph glyph-name="uni0424" unicode="&#x424;" horiz-adv-x="749" 
d="M53 293c0 209 126 327 327 332l13 71h130l-13 -71c143 -5 225 -101 225 -241c0 -210 -126 -328 -326 -333l-12 -71h-130l12 71c-136 6 -226 98 -226 242zM188 296c0 -80 35 -133 117 -135l62 354c-112 -3 -179 -79 -179 -219zM422 161c113 3 178 76 178 215
c0 81 -35 137 -116 139z" />
    <glyph glyph-name="uni0425" unicode="&#x425;" horiz-adv-x="572" 
d="M232 676l84 -243l171 243h151l-245 -328l131 -348h-138l-87 255l-176 -255h-153l253 348l-130 328h139z" />
    <glyph glyph-name="uni0427" unicode="&#x427;" horiz-adv-x="564" 
d="M445 676h130l-119 -676h-130l46 264c-28 -11 -73 -22 -132 -22c-115 0 -185 72 -162 203l41 231h130l-40 -221c-11 -62 13 -99 86 -99c38 0 75 8 97 18z" />
    <glyph glyph-name="uni0426" unicode="&#x426;" horiz-adv-x="662" 
d="M28 0l119 676h130l-101 -570h249l100 570h130l-100 -570h66l-40 -229h-130l22 123h-445z" />
    <glyph glyph-name="uni0428" unicode="&#x428;" horiz-adv-x="1008" 
d="M28 0l119 676h130l-101 -570h242l100 570h130l-100 -570h241l100 570h130l-119 -676h-872z" />
    <glyph glyph-name="uni0429" unicode="&#x429;" horiz-adv-x="1026" 
d="M1019 676l-100 -570h66l-40 -229h-130l22 123h-809l119 676h130l-101 -570h242l100 570h130l-100 -570h241l100 570h130z" />
    <glyph glyph-name="uni040F" unicode="&#x40f;" horiz-adv-x="644" 
d="M655 676l-119 -676h-180l-22 -123h-130l22 123h-198l119 676h130l-101 -570h249l100 570h130z" />
    <glyph glyph-name="uni042C" unicode="&#x42c;" 
d="M231 415h84c127 0 213 -71 213 -184c0 -143 -92 -231 -271 -231h-229l119 676h130zM213 309l-37 -203h91c88 0 125 47 125 117c0 52 -31 86 -97 86h-82z" />
    <glyph glyph-name="uni042A" unicode="&#x42a;" horiz-adv-x="671" 
d="M426 415c127 0 213 -71 213 -184c0 -143 -93 -231 -271 -231h-230l100 570h-151l18 106h282l-45 -261h84zM378 106c88 0 125 47 125 117c0 52 -32 86 -97 86h-83l-36 -203h91z" />
    <glyph glyph-name="uni042B" unicode="&#x42b;" horiz-adv-x="825" 
d="M231 415h84c127 0 213 -71 213 -184c0 -143 -92 -231 -271 -231h-229l119 676h130zM706 676h130l-119 -676h-130zM213 309l-37 -203h91c88 0 125 47 125 117c0 52 -31 86 -97 86h-82z" />
    <glyph glyph-name="uni0409" unicode="&#x409;" horiz-adv-x="947" 
d="M702 415c127 0 213 -71 213 -184c0 -143 -93 -231 -271 -231h-230l100 570h-193l-77 -313c-52 -215 -115 -267 -206 -267c-34 0 -56 6 -65 12l21 103c7 -3 16 -5 27 -5c38 0 64 37 100 184l95 392h448l-35 -196l-11 -65h84zM654 106c87 0 124 47 124 117
c0 52 -31 86 -96 86h-83l-36 -203h91z" />
    <glyph glyph-name="uni040A" unicode="&#x40a;" horiz-adv-x="954" 
d="M709 415c127 0 213 -71 213 -184c0 -143 -92 -231 -271 -231h-229l52 297h-264l-52 -297h-130l119 676h130l-49 -273h265l48 273h130l-46 -261h84zM661 106c88 0 125 47 125 117c0 52 -31 86 -97 86h-82l-37 -203h91z" />
    <glyph glyph-name="uni0405" unicode="&#x405;" horiz-adv-x="525" 
d="M448 517c-18 37 -56 59 -114 59c-64 0 -105 -41 -105 -102c0 -34 22 -58 59 -71l64 -26c70 -27 133 -70 133 -162c0 -136 -100 -226 -263 -226c-144 0 -197 73 -215 127l97 70c15 -47 43 -87 128 -87c73 0 116 37 116 100c0 38 -27 59 -65 74l-69 27
c-67 27 -122 78 -122 162c0 121 80 224 252 224c114 0 175 -48 200 -100z" />
    <glyph glyph-name="uni0404" unicode="&#x404;" horiz-adv-x="576" 
d="M311 100c55 0 102 37 132 81l93 -68c-55 -70 -126 -123 -242 -123c-155 0 -238 111 -238 268c0 265 122 428 345 428c110 0 180 -54 208 -128l-105 -60c-15 44 -54 78 -109 78c-99 0 -163 -69 -189 -181h231l-18 -106h-227v-27c0 -96 37 -162 119 -162z" />
    <glyph glyph-name="uni042D" unicode="&#x42d;" horiz-adv-x="561" 
d="M320 686c186 0 258 -137 221 -348c-39 -221 -154 -348 -340 -348c-112 0 -173 54 -201 128l110 62c14 -43 50 -80 106 -80c91 0 150 70 180 189h-242l19 106h241c8 113 -30 181 -117 181c-55 0 -102 -37 -132 -81l-88 63c54 74 133 128 243 128z" />
    <glyph glyph-name="uni0406" unicode="&#x406;" horiz-adv-x="265" 
d="M147 676h130l-119 -676h-130z" />
    <glyph glyph-name="uni0407" unicode="&#x407;" horiz-adv-x="265" 
d="M130 738c-39 0 -63 19 -63 57c0 55 34 84 81 84c31 0 63 -19 63 -58c0 -60 -41 -83 -81 -83zM317 738c-38 0 -62 19 -62 57c0 55 33 84 81 84c31 0 63 -19 63 -58c0 -60 -41 -83 -82 -83zM147 676h130l-119 -676h-130z" />
    <glyph glyph-name="uni0408" unicode="&#x408;" horiz-adv-x="469" 
d="M96 160c9 -36 29 -60 75 -60c65 0 97 41 113 132l78 444h123l-80 -453c-28 -158 -101 -233 -244 -233c-96 0 -153 46 -171 110z" />
    <glyph glyph-name="uni040B" unicode="&#x40b;" horiz-adv-x="700" 
d="M498 434c116 0 186 -72 163 -203l-41 -231h-130l39 221c12 62 -13 99 -85 99c-38 0 -76 -8 -97 -18l-53 -302h-130l100 570h-178l19 106h493l-19 -106h-185l-27 -158c28 11 73 22 131 22z" />
    <glyph glyph-name="uni042E" unicode="&#x42e;" horiz-adv-x="892" 
d="M643 686c164 0 231 -114 231 -261c0 -237 -91 -435 -341 -435c-151 0 -231 105 -231 256c0 17 0 33 1 49h-93l-52 -295h-130l119 676h130l-49 -280h87c33 170 130 290 328 290zM546 100c112 0 195 97 195 325c0 85 -29 151 -109 151c-127 0 -196 -122 -196 -330
c0 -82 28 -146 110 -146z" />
    <glyph glyph-name="uni042F" unicode="&#x42f;" horiz-adv-x="575" 
d="M331 676h255l-126 -676h-130l52 276h-82l-177 -276h-153l202 298c-66 29 -103 89 -103 166c0 127 85 212 262 212zM402 382l34 188h-113c-80 0 -119 -36 -119 -102c0 -61 35 -86 105 -86h93z" />
    <glyph glyph-name="uni0402" unicode="&#x402;" horiz-adv-x="711" 
d="M470 431c139 0 206 -78 206 -193c0 -143 -91 -243 -234 -243c-43 0 -70 6 -91 12l29 105c16 -4 34 -7 50 -7c66 0 110 38 110 120c0 51 -29 96 -108 96c-37 0 -79 -8 -102 -18l-53 -303h-130l100 570h-161l19 106h476l-19 -106h-185l-27 -156c24 7 67 17 120 17z" />
    <glyph glyph-name="uni0492" unicode="&#x492;" horiz-adv-x="515" 
d="M524 570h-266l-37 -213h167l-18 -102h-167l-45 -255h-130l45 255h-70l18 102h70l56 319h396z" />
    <glyph glyph-name="uni049A" unicode="&#x49a;" horiz-adv-x="574" 
d="M375 333l103 -227h88l-41 -229h-130l22 123h-37l-119 286h-53l-50 -286h-130l119 676h130l-51 -285h50l217 285h155z" />
    <glyph glyph-name="uni04B2" unicode="&#x4b2;" horiz-adv-x="572" 
d="M393 348l91 -242h90l-41 -229h-130l22 123h-39l-87 255l-176 -255h-153l253 348l-130 328h139l84 -243l171 243h151z" />
    <glyph glyph-name="uni04D4" unicode="&#x4d4;" horiz-adv-x="913" 
d="M-40 0l499 676h491l-19 -106h-288l-31 -177h248l-19 -106h-247l-33 -186h290l-17 -101h-421l27 156h-214l-112 -156h-154zM459 259l53 301l-215 -301h162z" />
    <glyph glyph-name="uni0430" unicode="&#x430;" horiz-adv-x="507" 
d="M372 456h119l-80 -456h-113l6 37c-29 -29 -66 -47 -117 -47c-97 0 -153 66 -153 183c0 191 94 293 219 293c56 0 95 -25 113 -44zM158 189c0 -51 19 -90 73 -90c37 0 65 15 85 32l33 194c-12 14 -35 31 -72 31c-91 0 -119 -82 -119 -167z" />
    <glyph glyph-name="uni0431" unicode="&#x431;" horiz-adv-x="485" 
d="M341 533c-94 -19 -135 -65 -158 -145c31 34 72 52 120 52c90 0 150 -67 150 -172c0 -166 -100 -278 -240 -278c-112 0 -172 72 -172 200c0 218 70 400 256 442c89 19 94 32 97 58h110c3 -82 -23 -128 -163 -157zM264 335c-60 0 -105 -68 -105 -161c0 -52 22 -79 67 -79
c60 0 105 69 105 161c0 53 -24 79 -67 79z" />
    <glyph glyph-name="uni0432" unicode="&#x432;" horiz-adv-x="451" 
d="M14 0l80 456h179c116 0 149 -50 149 -109c0 -50 -34 -93 -81 -106c41 -16 68 -50 68 -97c0 -84 -47 -144 -183 -144h-212zM182 274h52c37 0 64 18 64 55c0 31 -21 38 -56 38h-44zM149 89h70c38 0 68 18 68 61c0 32 -28 42 -62 42h-58z" />
    <glyph glyph-name="uni0433" unicode="&#x433;" horiz-adv-x="382" 
d="M94 456h314l-18 -101h-194l-62 -355h-120z" />
    <glyph glyph-name="uni0453" unicode="&#x453;" horiz-adv-x="382" 
d="M414 696l-111 -164h-110l98 164h123zM94 456h314l-18 -101h-194l-62 -355h-120z" />
    <glyph glyph-name="uni0491" unicode="&#x491;" horiz-adv-x="393" 
d="M14 0l80 456h204l20 115h120l-38 -216h-204l-62 -355h-120z" />
    <glyph glyph-name="uni0434" unicode="&#x434;" horiz-adv-x="524" 
d="M-49 -115l38 216h40c24 17 43 58 65 146l52 209h349l-62 -355h61l-38 -216h-120l20 115h-266l-20 -115h-119zM156 101h158l44 254h-119l-33 -132c-12 -48 -29 -90 -50 -122z" />
    <glyph glyph-name="uni0435" unicode="&#x435;" horiz-adv-x="457" 
d="M229 90c36 0 75 15 112 43l44 -82c-39 -35 -95 -61 -165 -61c-132 0 -189 77 -189 188c0 162 100 288 239 288c112 0 165 -76 165 -158c0 -44 -15 -92 -25 -118h-259c-8 -61 16 -100 78 -100zM321 275c2 6 5 13 5 32c0 42 -27 63 -62 63c-54 0 -86 -42 -98 -95h155z" />
    <glyph glyph-name="uni0450" unicode="&#x450;" horiz-adv-x="457" 
d="M291 696l40 -164h-100l-53 164h113zM229 90c36 0 75 15 112 43l44 -82c-39 -35 -95 -61 -165 -61c-132 0 -189 77 -189 188c0 162 100 288 239 288c112 0 165 -76 165 -158c0 -44 -15 -92 -25 -118h-259c-8 -61 16 -100 78 -100zM321 275c2 6 5 13 5 32
c0 42 -27 63 -62 63c-54 0 -86 -42 -98 -95h155z" />
    <glyph glyph-name="uni0451" unicode="&#x451;" horiz-adv-x="457" 
d="M188 533c-39 0 -63 19 -63 57c0 55 34 84 81 84c31 0 63 -19 63 -58c0 -60 -41 -83 -81 -83zM375 533c-38 0 -62 19 -62 57c0 55 33 84 81 84c31 0 63 -19 63 -58c0 -60 -41 -83 -82 -83zM229 90c36 0 75 15 112 43l44 -82c-39 -35 -95 -61 -165 -61
c-132 0 -189 77 -189 188c0 162 100 288 239 288c112 0 165 -76 165 -158c0 -44 -15 -92 -25 -118h-259c-8 -61 16 -100 78 -100zM321 275c2 6 5 13 5 32c0 42 -27 63 -62 63c-54 0 -86 -42 -98 -95h155z" />
    <glyph glyph-name="uni0436" unicode="&#x436;" horiz-adv-x="647" 
d="M-40 0l182 237l-99 219h129l71 -178h29l32 178h119l-31 -178h27l126 178h142l-182 -236l99 -220h-129l-71 177h-30l-31 -177h-119l31 177h-28l-125 -177h-142z" />
    <glyph glyph-name="uni0437" unicode="&#x437;" horiz-adv-x="416" 
d="M295 231c36 -11 67 -41 67 -90c0 -89 -75 -148 -198 -148c-125 0 -183 52 -165 150h108c-7 -40 21 -56 59 -56c45 0 75 22 75 58s-33 47 -69 47h-56l14 77h53c45 0 82 19 82 59c0 30 -22 42 -53 42c-34 0 -59 -14 -66 -53h-111c15 90 77 147 191 147
c99 0 157 -52 157 -120c0 -52 -39 -99 -88 -113z" />
    <glyph glyph-name="uni0438" unicode="&#x438;" horiz-adv-x="490" 
d="M361 456h114l-80 -456h-116l47 255l-202 -255h-110l80 456h117l-46 -248z" />
    <glyph glyph-name="uni0439" unicode="&#x439;" horiz-adv-x="490" 
d="M292 536c-98 0 -141 67 -127 152h86c-6 -44 8 -74 49 -74c43 0 64 30 71 74h89c-15 -85 -67 -152 -168 -152zM361 456h114l-80 -456h-116l47 255l-202 -255h-110l80 456h117l-46 -248z" />
    <glyph glyph-name="uni045D" unicode="&#x45d;" horiz-adv-x="490" 
d="M347 532h-100l-53 164h113zM361 456h114l-80 -456h-116l47 255l-202 -255h-110l80 456h117l-46 -248z" />
    <glyph glyph-name="uni043A" unicode="&#x43a;" horiz-adv-x="431" 
d="M14 0l80 456h120l-32 -178h23l123 178h143l-173 -233l91 -223h-131l-68 177h-25l-31 -177h-120z" />
    <glyph glyph-name="uni045C" unicode="&#x45c;" horiz-adv-x="431" 
d="M427 696l-111 -164h-110l98 164h123zM14 0l80 456h120l-32 -178h23l123 178h143l-173 -233l91 -223h-131l-68 177h-25l-31 -177h-120z" />
    <glyph glyph-name="uni043B" unicode="&#x43b;" horiz-adv-x="515" 
d="M153 456h347l-81 -456h-119l63 355h-118l-40 -157c-37 -146 -98 -205 -172 -205c-29 0 -52 7 -63 11l35 100c4 -1 11 -2 19 -2c30 0 47 32 73 132z" />
    <glyph glyph-name="uni043C" unicode="&#x43c;" horiz-adv-x="614" 
d="M423 456h157l-39 -456h-108l37 325l-140 -325h-127l-17 319l-85 -319h-108l129 456h150l16 -320z" />
    <glyph glyph-name="uni043D" unicode="&#x43d;" horiz-adv-x="490" 
d="M356 456h120l-80 -456h-120l32 181h-142l-32 -181h-120l80 456h120l-31 -174h143z" />
    <glyph glyph-name="uni043E" unicode="&#x43e;" horiz-adv-x="488" 
d="M277 466c125 0 179 -79 179 -192c0 -159 -90 -284 -245 -284c-125 0 -178 82 -178 192c0 158 88 284 244 284zM220 97c69 0 114 79 114 177c0 56 -21 85 -67 85c-69 0 -112 -77 -112 -177c0 -55 20 -85 65 -85z" />
    <glyph glyph-name="uni043F" unicode="&#x43f;" horiz-adv-x="492" 
d="M478 456l-80 -456h-119l62 355h-145l-62 -355h-120l80 456h384z" />
    <glyph glyph-name="uni0440" unicode="&#x440;" horiz-adv-x="510" 
d="M96 -216h-120l119 672h113l-6 -37c25 24 70 47 120 47c96 0 154 -71 154 -185c0 -178 -82 -291 -221 -291c-59 0 -99 22 -115 43zM352 266c0 49 -19 90 -75 90c-38 0 -67 -15 -86 -32l-34 -194c13 -14 36 -31 75 -31c93 0 120 83 120 167z" />
    <glyph glyph-name="uni0441" unicode="&#x441;" horiz-adv-x="437" 
d="M32 173c0 161 81 293 241 293c84 0 144 -34 167 -101l-89 -57c-13 33 -39 53 -78 53c-87 0 -118 -90 -118 -174c0 -52 21 -93 72 -93c39 0 70 23 94 56l75 -62c-44 -64 -108 -98 -188 -98c-119 0 -176 83 -176 183z" />
    <glyph glyph-name="uni0442" unicode="&#x442;" horiz-adv-x="390" 
d="M420 456l-17 -101h-126l-62 -355h-120l63 355h-126l18 101h370z" />
    <glyph glyph-name="uni0443" unicode="&#x443;" horiz-adv-x="472" 
d="M225 158l147 298h133l-371 -672h-126l138 241l-99 431h129z" />
    <glyph glyph-name="uni045E" unicode="&#x45e;" horiz-adv-x="472" 
d="M437 688c-15 -85 -67 -152 -168 -152c-98 0 -141 67 -127 152h86c-6 -44 8 -74 49 -74c43 0 64 30 71 74h89zM225 158l147 298h133l-371 -672h-126l138 241l-99 431h129z" />
    <glyph glyph-name="uni0444" unicode="&#x444;" horiz-adv-x="652" 
d="M617 263c0 -172 -105 -271 -274 -274l-36 -205h-119l36 205c-120 4 -190 85 -190 206c0 169 104 268 274 271l40 225h119l-40 -225c119 -4 190 -81 190 -203zM157 200c0 -62 27 -100 86 -103l46 262c-86 -3 -132 -57 -132 -159zM362 97c87 3 133 59 133 158
c0 63 -27 100 -87 103z" />
    <glyph glyph-name="uni0445" unicode="&#x445;" horiz-adv-x="466" 
d="M413 0h-131l-56 148l-109 -148h-143l184 229l-104 227h131l57 -148l108 148h144l-185 -228z" />
    <glyph glyph-name="uni0447" unicode="&#x447;" horiz-adv-x="451" 
d="M318 456h119l-81 -456h-119l29 162c-22 -7 -58 -14 -99 -14c-92 0 -141 63 -123 159l27 149h119l-26 -142c-6 -37 6 -63 57 -63c22 0 49 5 62 9z" />
    <glyph glyph-name="uni0446" unicode="&#x446;" horiz-adv-x="507" 
d="M14 0l80 456h120l-62 -355h144l63 355h119l-62 -355h61l-38 -216h-119l20 115h-326z" />
    <glyph glyph-name="uni0448" unicode="&#x448;" horiz-adv-x="759" 
d="M14 0l80 456h120l-62 -355h145l63 355h119l-62 -355h146l62 355h119l-80 -456h-650z" />
    <glyph glyph-name="uni0449" unicode="&#x449;" horiz-adv-x="774" 
d="M14 0l80 456h120l-62 -355h145l63 355h119l-62 -355h146l62 355h119l-62 -355h61l-37 -216h-120l20 115h-592z" />
    <glyph glyph-name="uni045F" unicode="&#x45f;" horiz-adv-x="492" 
d="M478 456l-80 -456h-124l-21 -123h-119l21 123h-141l80 456h120l-62 -355h144l63 355h119z" />
    <glyph glyph-name="uni044C" unicode="&#x44c;" horiz-adv-x="450" 
d="M189 313h56c106 0 166 -42 166 -135c0 -109 -68 -178 -203 -178h-194l80 456h120zM174 225l-25 -137h64c52 0 75 34 75 85c0 36 -20 52 -64 52h-50z" />
    </font>
</defs>
</svg>
