<?xml version="1.0" standalone="no"?>
<!DOCTYPE svg PUBLIC "-//W3C//DTD SVG 1.1//EN" "http://www.w3.org/Graphics/SVG/1.1/DTD/svg11.dtd" >
<svg xmlns="http://www.w3.org/2000/svg" xmlns:xlink="http://www.w3.org/1999/xlink" version="1.1">
<metadata>
Created by FontForge 20190801 at Thu Sep 13 21:38:41 2018
 By Jimmy Wärting
Copyright \(c\) 2014-2018 by Hannes von Doehren, Livius Dietzel. All rights reserved.
</metadata>
<defs>
<font id="BrixSans-Medium" horiz-adv-x="560" >
  <font-face 
    font-family="Brix Sans Medium"
    font-weight="500"
    font-stretch="normal"
    units-per-em="1000"
    panose-1="2 11 6 0 0 0 0 0 0 0"
    ascent="720"
    descent="-280"
    x-height="456"
    cap-height="676"
    bbox="-474 -227 1117 990"
    underline-thickness="72"
    underline-position="-64"
    stemh="94"
    stemv="101"
    unicode-range="U+0020-FB02"
  />
<missing-glyph horiz-adv-x="513" 
d="M50 656h413v-656h-413v656zM425 39v578h-337v-578h337z" />
    <glyph glyph-name="fi" unicode="fi" horiz-adv-x="571" 
d="M409 370h-213v-370h-100v370h-75v76l75 10v71c0 102 48 163 155 163h59v-86h-53c-47 0 -61 -30 -61 -78v-70h313v-456h-100v370zM458 554c-37 0 -65 18 -65 63c0 44 28 64 65 64c33 0 64 -20 64 -64c0 -45 -31 -63 -64 -63z" />
    <glyph glyph-name="fl" unicode="fl" horiz-adv-x="581" 
d="M310 604h-53c-47 0 -61 -30 -61 -78v-70h126v-86h-126v-370h-100v370h-75v76l75 10v71c0 102 48 163 155 163h59v-86zM495 690v-551c0 -35 10 -50 42 -50h24v-93h-54c-86 0 -112 53 -112 129v565h100z" />
    <glyph glyph-name="f_f" unicode="ff" horiz-adv-x="641" 
d="M614 604h-53c-47 0 -61 -30 -61 -78v-70h126v-86h-126v-370h-100v370h-204v-370h-100v370h-75v76l75 10v71c0 102 48 163 155 163h59v-86h-53c-47 0 -61 -30 -61 -78v-70h204v71c0 102 48 163 155 163h59v-86z" />
    <glyph glyph-name=".notdef" horiz-adv-x="513" 
d="M50 656h413v-656h-413v656zM425 39v578h-337v-578h337z" />
    <glyph glyph-name=".null" horiz-adv-x="0" 
 />
    <glyph glyph-name="space" unicode=" " horiz-adv-x="204" 
 />
    <glyph glyph-name="exclam" unicode="!" horiz-adv-x="240" 
d="M78 219l-18 457h121l-19 -457h-84zM121 -6c-41 0 -71 28 -71 67s30 68 71 68c40 0 70 -29 70 -68s-30 -67 -70 -67z" />
    <glyph glyph-name="quotedbl" unicode="&#x22;" horiz-adv-x="370" 
d="M52 676h99l-11 -244h-77zM221 676h97l-11 -244h-77z" />
    <glyph glyph-name="numbersign" unicode="#" horiz-adv-x="633" 
d="M35 186l13 89h101l21 140h-98l11 90h101l26 171h97l-27 -171h117l27 171h96l-25 -171h103l-13 -90h-105l-21 -140h103l-12 -89h-106l-28 -186h-97l29 186h-117l-28 -186h-98l29 186h-99zM245 275h118l21 140h-118z" />
    <glyph glyph-name="dollar" unicode="$" horiz-adv-x="549" 
d="M508 191c0 -112 -77 -186 -196 -200v-94h-65v93c-133 7 -188 74 -213 125l78 59c22 -45 54 -84 135 -90v212l-28 8c-110 34 -158 95 -158 181c0 95 56 185 186 200v74h65v-73c98 -6 158 -51 188 -99l-76 -60c-23 36 -60 59 -112 65v-210l32 -9c111 -34 164 -91 164 -182z
M172 491c0 -46 24 -71 75 -89v186c-50 -12 -75 -50 -75 -97zM312 87c56 10 86 45 86 97c0 49 -32 76 -86 93v-190z" />
    <glyph glyph-name="percent" unicode="%" horiz-adv-x="824" 
d="M178 683c107 0 150 -73 150 -184s-44 -185 -150 -185c-107 0 -150 74 -150 185s44 184 150 184zM222 0h-82l402 676h85zM178 375c53 0 71 42 71 124s-18 124 -71 124s-71 -42 -71 -124s18 -124 71 -124zM588 363c107 0 150 -73 150 -184s-44 -185 -150 -185
c-107 0 -150 74 -150 185s45 184 150 184zM588 55c54 0 72 42 72 124s-18 124 -72 124c-53 0 -71 -42 -71 -124s18 -124 71 -124z" />
    <glyph glyph-name="ampersand" unicode="&#x26;" horiz-adv-x="649" 
d="M490 154l138 -146v-8h-116l-79 85c-51 -54 -116 -96 -210 -96c-118 0 -186 69 -186 158c0 92 75 149 138 194l11 8l-18 19c-32 34 -85 85 -85 155c0 89 72 164 194 164c112 0 187 -75 187 -164c0 -70 -51 -117 -123 -172l-23 -16l108 -114l12 17l88 122l73 -55l-90 -125
c-6 -9 -13 -17 -19 -26zM239 418l18 -19l27 19c50 37 83 64 83 105c0 39 -33 78 -90 78c-62 0 -98 -39 -98 -78c0 -41 27 -72 60 -105zM223 75c62 0 107 32 147 76l-123 132l-17 -12c-52 -38 -96 -69 -96 -121c0 -42 39 -75 89 -75z" />
    <glyph glyph-name="quotesingle" unicode="'" horiz-adv-x="202" 
d="M53 676h97l-11 -244h-77z" />
    <glyph glyph-name="parenleft" unicode="(" horiz-adv-x="281" 
d="M185 -222c-88 132 -143 272 -143 463c0 201 61 331 143 463l78 -30c-67 -131 -115 -269 -115 -433c0 -163 37 -289 113 -434z" />
    <glyph glyph-name="parenright" unicode=")" horiz-adv-x="280" 
d="M20 -193c76 145 113 271 113 434c0 164 -48 302 -115 433l77 30c83 -132 144 -262 144 -463c0 -191 -55 -331 -144 -463z" />
    <glyph glyph-name="asterisk" unicode="*" horiz-adv-x="466" 
d="M75 370l95 111l-131 25l25 90l130 -45l-7 145h95l-8 -144l135 38l19 -89l-130 -22l86 -112l-75 -53l-80 122l-93 -122z" />
    <glyph glyph-name="plus" unicode="+" 
d="M42 313h189v197h95v-197h192v-87h-192v-196h-95v196h-189v87z" />
    <glyph glyph-name="comma" unicode="," horiz-adv-x="228" 
d="M117 -110h-77l25 240h111z" />
    <glyph glyph-name="hyphen" unicode="-" horiz-adv-x="389" 
d="M331 313v-86h-273v86h273z" />
    <glyph glyph-name="period" unicode="." horiz-adv-x="241" 
d="M121 -6c-44 0 -75 30 -75 70c0 42 31 73 75 73c42 0 74 -31 74 -73c0 -40 -32 -70 -74 -70z" />
    <glyph glyph-name="slash" unicode="/" horiz-adv-x="367" 
d="M130 0h-103l208 676h105z" />
    <glyph glyph-name="zero" unicode="0" horiz-adv-x="599" 
d="M300 687c177 0 250 -137 250 -349s-74 -349 -250 -349c-178 0 -251 137 -251 349s75 349 251 349zM300 81c102 0 141 90 141 257s-39 257 -141 257c-103 0 -142 -90 -142 -257s39 -257 142 -257z" />
    <glyph glyph-name="one" unicode="1" horiz-adv-x="397" 
d="M214 0v574l-179 -72l-27 83l219 91h93v-676h-106z" />
    <glyph glyph-name="two" unicode="2" horiz-adv-x="522" 
d="M254 687c131 0 213 -85 213 -202c0 -95 -61 -169 -135 -247l-140 -150h285v-88h-427v76l210 226c61 65 97 119 97 183s-35 110 -103 110c-70 0 -104 -48 -104 -120h-106c0 125 70 212 210 212z" />
    <glyph glyph-name="three" unicode="3" horiz-adv-x="548" 
d="M369 346c68 -14 131 -74 131 -166c0 -113 -91 -191 -231 -191c-156 0 -225 80 -225 183h106c0 -55 44 -92 119 -92c74 0 121 42 121 106c0 71 -53 116 -141 116h-64v88h64c79 0 130 36 130 105c0 60 -41 100 -110 100c-72 0 -109 -39 -109 -91h-107c0 98 66 183 216 183
c136 0 220 -79 220 -187c0 -82 -54 -138 -120 -154z" />
    <glyph glyph-name="four" unicode="4" horiz-adv-x="575" 
d="M539 140h-88v-140h-106v140h-317v79l312 457h111v-448h88v-88zM345 228v304l-204 -304h204z" />
    <glyph glyph-name="five" unicode="5" horiz-adv-x="530" 
d="M489 217c0 -126 -79 -228 -231 -228c-156 0 -223 86 -223 192h106c0 -58 39 -101 116 -101c84 0 122 58 122 138c0 74 -42 124 -119 124c-45 0 -81 -17 -108 -38l-86 13l42 359h356v-88h-269l-22 -185c21 12 62 30 108 30c113 0 208 -66 208 -216z" />
    <glyph glyph-name="six" unicode="6" horiz-adv-x="566" 
d="M402 504c0 56 -40 91 -105 91c-96 0 -139 -95 -139 -232c25 29 83 68 157 68c130 0 208 -85 208 -215c0 -122 -76 -227 -233 -227c-169 0 -241 138 -241 326c0 220 75 372 248 372c145 0 212 -82 212 -183h-107zM160 263c0 -98 39 -183 130 -183c82 0 124 54 124 135
c0 79 -43 129 -124 129c-62 0 -108 -40 -130 -81z" />
    <glyph glyph-name="seven" unicode="7" horiz-adv-x="479" 
d="M338 588h-308v88h427v-77l-248 -599h-116z" />
    <glyph glyph-name="eight" unicode="8" horiz-adv-x="576" 
d="M288 -11c-143 0 -240 69 -240 194c0 94 61 147 129 165c-65 20 -115 69 -115 150c0 115 86 189 226 189c141 0 226 -74 226 -189c0 -81 -50 -130 -114 -150c66 -18 127 -71 127 -165c0 -125 -96 -194 -239 -194zM288 595c-71 0 -117 -35 -117 -102s51 -101 117 -101
s117 34 117 101s-46 102 -117 102zM287 80c80 0 131 40 131 112c0 73 -57 111 -131 111c-73 0 -129 -38 -129 -111c0 -72 51 -112 129 -112z" />
    <glyph glyph-name="nine" unicode="9" horiz-adv-x="567" 
d="M165 172c0 -56 40 -91 104 -91c98 0 140 95 140 232c-24 -28 -83 -69 -157 -69c-130 0 -208 86 -208 216c0 122 76 227 234 227c169 0 240 -139 240 -326c0 -220 -74 -372 -249 -372c-144 0 -211 82 -211 183h107zM407 413c0 98 -39 183 -129 183
c-83 0 -125 -54 -125 -135c0 -79 43 -129 125 -129c61 0 107 40 129 81z" />
    <glyph glyph-name="colon" unicode=":" horiz-adv-x="251" 
d="M126 331c-41 0 -71 28 -71 67c0 40 30 68 71 68c40 0 70 -28 70 -68c0 -39 -30 -67 -70 -67zM126 -6c-41 0 -71 28 -71 67s30 68 71 68c40 0 70 -29 70 -68s-30 -67 -70 -67z" />
    <glyph glyph-name="semicolon" unicode=";" horiz-adv-x="246" 
d="M125 331c-40 0 -70 28 -70 67c0 40 30 68 70 68s70 -28 70 -68c0 -39 -30 -67 -70 -67zM125 -110h-76l25 240h110z" />
    <glyph glyph-name="less" unicode="&#x3c;" 
d="M67 321l410 162v-93l-324 -121l324 -120v-93l-410 163v102z" />
    <glyph glyph-name="equal" unicode="=" 
d="M485 431v-87h-411v87h411zM485 196v-86h-411v86h411z" />
    <glyph glyph-name="greater" unicode="&#x3e;" 
d="M493 219l-411 -163v93l324 120l-324 121v93l411 -162v-102z" />
    <glyph glyph-name="question" unicode="?" horiz-adv-x="450" 
d="M215 686c130 0 201 -77 201 -173c0 -140 -152 -171 -152 -294h-103c0 153 153 192 153 291c0 44 -32 83 -92 83c-58 0 -91 -34 -91 -77l-98 9c0 87 55 161 182 161zM212 -6c-41 0 -70 28 -70 67s29 68 70 68c40 0 70 -29 70 -68s-30 -67 -70 -67z" />
    <glyph glyph-name="at" unicode="@" horiz-adv-x="904" 
d="M526 74c-34 -31 -78 -60 -142 -60c-90 0 -142 56 -142 168c0 135 82 264 203 264c60 0 90 -22 112 -47l8 38h85l-47 -270c-10 -55 -6 -86 30 -86c67 0 142 81 142 262c0 131 -75 238 -274 238c-248 0 -376 -190 -376 -399c0 -178 83 -284 273 -284c71 0 135 13 190 39
l17 -71c-54 -25 -126 -45 -206 -45c-247 0 -356 145 -356 362c0 257 170 475 458 475c249 0 356 -146 356 -315c0 -212 -112 -337 -233 -337c-65 0 -90 28 -98 68zM546 330c-19 18 -45 37 -88 37c-78 0 -127 -86 -127 -178c0 -67 30 -94 74 -94c42 0 82 20 106 43z" />
    <glyph glyph-name="A" unicode="A" horiz-adv-x="616" 
d="M439 165h-263l-55 -165h-116l239 676h127l240 -676h-117zM205 256h206l-103 308z" />
    <glyph glyph-name="B" unicode="B" horiz-adv-x="588" 
d="M74 676h223c153 0 216 -70 216 -175c0 -78 -39 -127 -100 -145c69 -14 134 -67 134 -167c0 -138 -94 -189 -245 -189h-228v676zM283 394c88 0 117 39 117 99c0 57 -30 93 -118 93h-99v-192h100zM296 90c99 0 139 34 139 106c0 66 -39 108 -139 108h-113v-214h113z" />
    <glyph glyph-name="C" unicode="C" horiz-adv-x="588" 
d="M159 337c0 -152 52 -253 178 -253c62 0 113 35 138 83l84 -54c-41 -73 -117 -123 -226 -123c-193 0 -287 131 -287 348s94 348 287 348c109 0 185 -50 226 -123l-84 -54c-25 48 -76 83 -138 83c-126 0 -178 -101 -178 -255z" />
    <glyph glyph-name="D" unicode="D" horiz-adv-x="652" 
d="M74 676h202c232 0 329 -101 329 -338c0 -235 -96 -338 -329 -338h-202v676zM270 90c170 0 223 65 223 248c0 179 -53 248 -223 248h-87v-496h87z" />
    <glyph glyph-name="E" unicode="E" horiz-adv-x="542" 
d="M499 90v-90h-425v676h422v-90h-313v-198h274v-90h-274v-208h316z" />
    <glyph glyph-name="F" unicode="F" horiz-adv-x="520" 
d="M74 676h410v-90h-301v-217h256v-90h-256v-279h-109v676z" />
    <glyph glyph-name="G" unicode="G" horiz-adv-x="644" 
d="M342 365h261c3 -19 5 -47 5 -58c0 -173 -75 -317 -270 -317c-190 0 -292 118 -292 348c0 228 101 348 305 348c105 0 181 -47 220 -119l-82 -54c-30 49 -71 79 -142 79c-137 0 -188 -92 -188 -254c0 -174 54 -255 179 -255c117 0 159 85 159 191h-155v91z" />
    <glyph glyph-name="H" unicode="H" horiz-adv-x="678" 
d="M496 676h108v-676h-108v307h-313v-307h-109v676h109v-279h313v279z" />
    <glyph glyph-name="I" unicode="I" horiz-adv-x="258" 
d="M74 676h109v-676h-109v676z" />
    <glyph glyph-name="J" unicode="J" horiz-adv-x="485" 
d="M96 148c22 -42 50 -64 102 -64c73 0 114 40 114 150v442h103v-447c0 -162 -83 -239 -217 -239c-91 0 -150 45 -180 107z" />
    <glyph glyph-name="K" unicode="K" horiz-adv-x="611" 
d="M183 222v-222h-109v676h109v-316l285 316h132l-249 -279l249 -397h-129l-194 319z" />
    <glyph glyph-name="L" unicode="L" horiz-adv-x="479" 
d="M462 90v-90h-388v676h109v-586h279z" />
    <glyph glyph-name="M" unicode="M" horiz-adv-x="857" 
d="M591 676h144l80 -676h-104l-59 549l-165 -549h-119l-158 546l-65 -546h-104l86 676h146l157 -541z" />
    <glyph glyph-name="N" unicode="N" horiz-adv-x="679" 
d="M497 676h108v-676h-113l-309 503l1 -503h-110v676h116l307 -498v498z" />
    <glyph glyph-name="O" unicode="O" horiz-adv-x="657" 
d="M610 337c0 -200 -78 -347 -283 -347s-281 147 -281 347s76 349 283 349c206 0 281 -149 281 -349zM159 337c0 -150 36 -253 168 -253c134 0 171 103 171 253c0 151 -38 255 -169 255c-130 0 -170 -104 -170 -255z" />
    <glyph glyph-name="P" unicode="P" horiz-adv-x="570" 
d="M183 256v-256h-109v676h226c157 0 236 -78 236 -210c0 -131 -79 -210 -236 -210h-117zM183 346h110c97 0 130 49 130 120s-33 120 -130 120h-110v-240z" />
    <glyph glyph-name="Q" unicode="Q" horiz-adv-x="657" 
d="M46 337c0 200 76 349 283 349c206 0 281 -149 281 -349c0 -80 -12 -151 -40 -208l76 -73l-60 -67l-71 69c-44 -43 -106 -68 -188 -68c-205 0 -281 147 -281 347zM159 337c0 -150 36 -253 168 -253c52 0 88 16 114 43l-156 152l57 63l140 -133c12 35 16 78 16 128
c0 151 -38 255 -169 255c-130 0 -170 -104 -170 -255z" />
    <glyph glyph-name="R" unicode="R" horiz-adv-x="599" 
d="M74 676h245c158 0 239 -74 239 -194c0 -97 -60 -165 -166 -186l181 -296h-123l-169 286h-98l1 -286h-110v676zM445 482c0 64 -33 104 -136 104h-126v-210h126c103 0 136 39 136 106z" />
    <glyph glyph-name="S" unicode="S" horiz-adv-x="544" 
d="M419 526c-27 41 -72 66 -137 66c-75 0 -113 -43 -113 -101c0 -48 26 -74 83 -92l88 -26c111 -34 163 -91 163 -181c0 -125 -94 -203 -236 -203c-151 0 -210 72 -237 126l77 60c24 -49 60 -92 160 -92c81 0 124 41 124 101c0 51 -33 77 -89 94l-88 26
c-110 34 -158 95 -158 181c0 104 68 201 226 201c113 0 180 -48 214 -100z" />
    <glyph glyph-name="T" unicode="T" horiz-adv-x="543" 
d="M513 676v-90h-187v-586h-109v586h-188v90h484z" />
    <glyph glyph-name="U" unicode="U" horiz-adv-x="647" 
d="M324 -10c-151 0 -255 76 -255 265v421h109v-420c0 -120 48 -172 146 -172c97 0 146 51 146 172v420h109v-421c0 -189 -106 -265 -255 -265z" />
    <glyph glyph-name="V" unicode="V" horiz-adv-x="601" 
d="M590 676l-221 -676h-138l-220 676h114l176 -564l174 564h115z" />
    <glyph glyph-name="W" unicode="W" horiz-adv-x="968" 
d="M546 676l150 -553l143 553h113l-185 -676h-134l-149 528l-149 -528h-133l-186 676h113l144 -553l149 553h124z" />
    <glyph glyph-name="X" unicode="X" horiz-adv-x="584" 
d="M143 676l148 -255l150 255h123l-200 -327l208 -349h-124l-157 270l-156 -270h-123l208 349l-201 327h124z" />
    <glyph glyph-name="Y" unicode="Y" horiz-adv-x="583" 
d="M237 0v266l-230 410h120l165 -311l163 311h121l-230 -410v-266h-109z" />
    <glyph glyph-name="Z" unicode="Z" horiz-adv-x="519" 
d="M474 596l-313 -506h322v-90h-450v78l313 508h-297v90h425v-80z" />
    <glyph glyph-name="bracketleft" unicode="[" horiz-adv-x="314" 
d="M289 690v-85h-122v-736h122v-85h-226v906h226z" />
    <glyph glyph-name="backslash" unicode="\" horiz-adv-x="367" 
d="M27 676h106l207 -676h-103z" />
    <glyph glyph-name="bracketright" unicode="]" horiz-adv-x="314" 
d="M251 690v-906h-226v85h122v736h-122v85h226z" />
    <glyph glyph-name="asciicircum" unicode="^" 
d="M280 699l249 -249l-67 -68l-181 181l-182 -181l-69 68z" />
    <glyph glyph-name="underscore" unicode="_" horiz-adv-x="490" 
d="M445 -31v-68h-400v68h400z" />
    <glyph glyph-name="grave" unicode="`" horiz-adv-x="600" 
d="M322 696l74 -160h-91l-87 160h104z" />
    <glyph glyph-name="a" unicode="a" horiz-adv-x="471" 
d="M320 0v55c-29 -33 -77 -66 -149 -66c-83 0 -137 50 -137 131c0 97 85 140 216 150l64 7v36c0 46 -20 72 -84 72c-56 0 -83 -20 -83 -49v-22h-88c-1 10 -2 21 -2 31c0 71 64 121 179 121c111 0 178 -48 178 -152v-314h-94zM137 126c0 -38 23 -58 68 -58c44 0 84 21 109 47
v98l-63 -9c-73 -10 -114 -32 -114 -78z" />
    <glyph glyph-name="b" unicode="b" horiz-adv-x="517" 
d="M161 418c22 25 57 48 121 48c133 0 195 -90 195 -237c0 -144 -66 -240 -195 -240c-71 0 -114 26 -139 52l-30 -41h-52v690h100v-272zM374 229c0 84 -26 144 -115 144c-53 0 -83 -24 -98 -43v-200c17 -23 51 -48 98 -48c91 0 115 63 115 147z" />
    <glyph glyph-name="c" unicode="c" horiz-adv-x="448" 
d="M39 228c0 130 61 238 207 238c81 0 144 -33 177 -97l-72 -51c-21 37 -52 59 -98 59c-81 0 -111 -63 -111 -149s30 -149 111 -149c46 0 78 22 99 58l71 -51c-32 -64 -96 -97 -177 -97c-146 0 -207 107 -207 239z" />
    <glyph glyph-name="d" unicode="d" horiz-adv-x="517" 
d="M356 690h101v-690h-96v40c-27 -28 -72 -51 -130 -51c-126 0 -190 90 -190 240c0 147 64 237 191 237c60 0 102 -24 124 -48v272zM143 229c0 -83 27 -147 113 -147c49 0 82 20 100 43v205c-17 20 -49 43 -99 43c-87 0 -114 -60 -114 -144z" />
    <glyph glyph-name="e" unicode="e" horiz-adv-x="471" 
d="M256 76c39 0 84 14 119 45l48 -66c-32 -35 -95 -66 -167 -66c-153 0 -217 100 -217 239c0 131 68 238 207 238c134 0 187 -97 187 -195c0 -23 -2 -56 -7 -75h-285c2 -73 38 -120 115 -120zM338 270c1 6 1 13 1 17c0 61 -38 97 -93 97c-72 0 -101 -50 -105 -114h197z" />
    <glyph glyph-name="f" unicode="f" horiz-adv-x="337" 
d="M310 604h-53c-47 0 -61 -30 -61 -78v-70h126v-86h-126v-370h-100v370h-75v76l75 10v71c0 102 48 163 155 163h59v-86z" />
    <glyph glyph-name="g" unicode="g" horiz-adv-x="515" 
d="M454 456v-487c0 -100 -75 -174 -199 -174c-122 0 -184 64 -184 144h89c0 -31 33 -63 95 -63c64 0 98 35 98 88v78c-27 -31 -72 -53 -119 -53c-130 0 -193 90 -193 240c0 149 66 237 193 237c62 0 100 -24 125 -51v41h95zM142 229c0 -82 25 -147 113 -147
c42 0 78 19 98 44v205c-14 18 -46 42 -98 42c-87 0 -113 -60 -113 -144z" />
    <glyph glyph-name="h" unicode="h" horiz-adv-x="518" 
d="M61 690h100v-281c27 29 73 57 143 57c108 0 158 -62 158 -178v-288h-101v278c0 63 -23 95 -93 95c-45 0 -85 -20 -107 -43v-330h-100v690z" />
    <glyph glyph-name="i" unicode="i" horiz-adv-x="224" 
d="M111 554c-37 0 -65 18 -65 63c0 44 28 64 65 64c32 0 64 -20 64 -64c0 -45 -32 -63 -64 -63zM62 456h100v-456h-100v456z" />
    <glyph glyph-name="j" unicode="j" horiz-adv-x="224" 
d="M111 554c-37 0 -65 18 -65 63c0 44 28 64 65 64c33 0 65 -20 65 -64c0 -45 -32 -63 -65 -63zM-21 -160c61 34 83 73 83 138v478h101v-459c0 -107 -38 -179 -126 -223z" />
    <glyph glyph-name="k" unicode="k" horiz-adv-x="483" 
d="M358 0l-131 213l-66 -64v-149h-100v690h100v-422l191 188h124l-178 -173l173 -283h-113z" />
    <glyph glyph-name="l" unicode="l" horiz-adv-x="244" 
d="M158 690v-551c0 -35 10 -50 42 -50h24v-93h-54c-86 0 -112 53 -112 129v565h100z" />
    <glyph glyph-name="m" unicode="m" horiz-adv-x="809" 
d="M61 456h97v-53c27 32 69 63 131 63c74 0 113 -27 142 -69c30 36 83 69 159 69c114 0 162 -60 162 -170v-296h-101v288c0 56 -23 85 -88 85c-46 0 -82 -19 -104 -43v-330h-101v323c-17 31 -47 50 -94 50c-45 0 -78 -20 -103 -43v-330h-100v456z" />
    <glyph glyph-name="n" unicode="n" horiz-adv-x="518" 
d="M61 456h97v-53c26 36 76 63 145 63c108 0 158 -62 158 -178v-288h-100v278c0 63 -24 95 -94 95c-44 0 -85 -20 -106 -43v-330h-100v456z" />
    <glyph glyph-name="o" unicode="o" horiz-adv-x="500" 
d="M251 466c144 0 209 -101 209 -237c0 -139 -64 -240 -213 -240c-141 0 -208 102 -208 238c0 138 65 239 212 239zM249 80c76 0 109 56 109 147c0 94 -33 148 -109 148c-75 0 -107 -54 -107 -146c0 -95 33 -149 107 -149z" />
    <glyph glyph-name="p" unicode="p" horiz-adv-x="520" 
d="M161 -216h-100v672h96v-41c27 28 72 51 131 51c126 0 191 -90 191 -240c0 -147 -64 -237 -192 -237c-61 0 -104 24 -126 48v-253zM377 226c0 83 -27 147 -115 147c-49 0 -83 -20 -101 -43v-205c17 -20 50 -43 101 -43c88 0 115 60 115 144z" />
    <glyph glyph-name="q" unicode="q" horiz-adv-x="513" 
d="M352 37c-22 -25 -56 -48 -119 -48c-132 0 -193 90 -193 237c0 144 65 240 193 240c69 0 112 -26 137 -52l30 42h52v-672h-100v253zM142 226c0 -84 26 -144 113 -144c52 0 82 24 97 43v200c-17 23 -51 48 -97 48c-89 0 -113 -63 -113 -147z" />
    <glyph glyph-name="r" unicode="r" horiz-adv-x="350" 
d="M158 382c24 44 59 84 125 84c19 0 38 -2 54 -6l-9 -107c-20 6 -47 9 -68 9c-47 0 -80 -29 -99 -70v-292h-100v456h96v-74h1z" />
    <glyph glyph-name="s" unicode="s" horiz-adv-x="433" 
d="M332 340c-25 28 -63 49 -112 49c-53 0 -75 -26 -75 -57c0 -25 13 -44 49 -52l77 -18c87 -20 128 -65 128 -131c0 -74 -53 -142 -190 -142c-97 0 -152 42 -180 77l59 61c25 -29 60 -61 124 -61c50 0 85 19 85 57c0 27 -21 43 -58 52l-79 20c-77 19 -116 65 -116 128
c0 66 48 143 179 143c87 0 138 -34 167 -66z" />
    <glyph glyph-name="t" unicode="t" horiz-adv-x="345" 
d="M203 141c0 -38 18 -59 55 -59c18 0 41 5 59 12l5 -88c-23 -9 -61 -17 -95 -17c-89 0 -125 57 -125 139v242h-84v76l84 10v113l101 16v-129h112v-86h-112v-229z" />
    <glyph glyph-name="u" unicode="u" horiz-adv-x="518" 
d="M457 0h-97v53c-26 -36 -76 -63 -145 -63c-108 0 -158 62 -158 178v288h100v-278c0 -63 24 -95 94 -95c44 0 85 20 106 43v330h100v-456z" />
    <glyph glyph-name="v" unicode="v" horiz-adv-x="485" 
d="M471 456l-167 -456h-121l-169 456h108l121 -358l120 358h108z" />
    <glyph glyph-name="w" unicode="w" horiz-adv-x="763" 
d="M430 456l107 -348l103 348h105l-144 -456h-111l-109 328l-108 -328h-111l-145 456h105l104 -348l107 348h97z" />
    <glyph glyph-name="x" unicode="x" horiz-adv-x="467" 
d="M450 0h-116l-100 160l-101 -160h-116l153 229l-153 227h116l101 -159l100 159h116l-153 -228z" />
    <glyph glyph-name="y" unicode="y" horiz-adv-x="485" 
d="M249 141l116 315h109l-273 -672h-103l101 240l-190 432h114z" />
    <glyph glyph-name="z" unicode="z" horiz-adv-x="414" 
d="M374 388l-212 -302h213v-86h-340v68l214 302h-204v86h329v-68z" />
    <glyph glyph-name="braceleft" unicode="{" horiz-adv-x="306" 
d="M209 350c0 -85 -40 -108 -79 -113c39 -5 79 -31 79 -112v-201c0 -48 19 -62 62 -62v-78c-113 0 -166 33 -166 140v192c0 61 -31 82 -92 82v78c61 0 92 20 92 84v190c0 104 52 140 166 140v-78c-42 0 -62 -14 -62 -62v-200z" />
    <glyph glyph-name="bar" unicode="|" horiz-adv-x="194" 
d="M63 -216v906h69v-906h-69z" />
    <glyph glyph-name="braceright" unicode="}" horiz-adv-x="306" 
d="M35 -216v78c43 0 62 14 62 62v201c0 81 40 107 79 112c-39 5 -79 28 -79 113v200c0 48 -20 62 -62 62v78c114 0 166 -36 166 -140v-190c0 -64 31 -84 92 -84v-78c-61 0 -92 -21 -92 -82v-192c0 -107 -53 -140 -166 -140z" />
    <glyph glyph-name="asciitilde" unicode="~" 
d="M456 223c-26 19 -56 34 -86 34c-58 0 -113 -68 -186 -68c-36 0 -69 16 -85 29l3 99c22 -19 45 -34 78 -34c63 0 107 68 190 68c40 0 71 -17 91 -31z" />
    <glyph glyph-name="Agrave" unicode="&#xc0;" horiz-adv-x="616" 
d="M285 900l74 -160h-91l-87 160h104zM439 165h-263l-55 -165h-116l239 676h127l240 -676h-117zM205 256h206l-103 308z" />
    <glyph glyph-name="Aacute" unicode="&#xc1;" horiz-adv-x="616" 
d="M434 900l-87 -160h-91l74 160h104zM439 165h-263l-55 -165h-116l239 676h127l240 -676h-117zM205 256h206l-103 308z" />
    <glyph glyph-name="Acircumflex" unicode="&#xc2;" horiz-adv-x="616" 
d="M358 900l101 -160h-91l-60 95l-61 -95h-91l102 160h100zM439 165h-263l-55 -165h-116l239 676h127l240 -676h-117zM205 256h206l-103 308z" />
    <glyph glyph-name="Atilde" unicode="&#xc3;" horiz-adv-x="616" 
d="M449 772c-21 15 -44 25 -69 25c-50 0 -89 -40 -148 -40c-30 0 -56 12 -68 23l4 76c16 -17 36 -25 64 -25c51 0 82 40 148 40c35 0 57 -12 73 -23zM439 165h-263l-55 -165h-116l239 676h127l240 -676h-117zM205 256h206l-103 308z" />
    <glyph glyph-name="Adieresis" unicode="&#xc4;" horiz-adv-x="616" 
d="M213 748c-37 0 -64 18 -64 63c0 44 27 64 64 64c32 0 64 -20 64 -64c0 -45 -32 -63 -64 -63zM403 748c-37 0 -65 18 -65 63c0 44 28 64 65 64c32 0 64 -20 64 -64c0 -45 -32 -63 -64 -63zM439 165h-263l-55 -165h-116l239 676h127l240 -676h-117zM205 256h206l-103 308z
" />
    <glyph glyph-name="Amacron" unicode="&#x100;" horiz-adv-x="616" 
d="M454 851v-82h-290v82h290zM439 165h-263l-55 -165h-116l239 676h127l240 -676h-117zM205 256h206l-103 308z" />
    <glyph glyph-name="Abreve" unicode="&#x102;" horiz-adv-x="616" 
d="M454 890c0 -82 -52 -146 -147 -146c-92 0 -144 64 -144 146h66c5 -42 35 -72 78 -72c45 0 74 30 79 72h68zM439 165h-263l-55 -165h-116l239 676h127l240 -676h-117zM205 256h206l-103 308z" />
    <glyph glyph-name="Aring" unicode="&#xc5;" horiz-adv-x="616" 
d="M202 811c0 53 37 98 105 98c71 0 109 -45 109 -98c0 -50 -38 -97 -109 -97c-68 0 -105 47 -105 97zM262 811c0 -23 16 -43 45 -43c32 0 48 20 48 43c0 24 -16 44 -48 44c-29 0 -45 -20 -45 -44zM439 165h-263l-55 -165h-116l239 676h127l240 -676h-117zM205 256h206
l-103 308z" />
    <glyph glyph-name="Aringacute" unicode="&#x1fa;" horiz-adv-x="616" 
d="M203 811c0 44 27 82 74 92l53 83h99l-67 -90c34 -16 54 -48 54 -85c0 -50 -38 -96 -108 -96c-67 0 -105 46 -105 96zM261 811c0 -25 17 -44 47 -44c32 0 49 19 49 44s-17 46 -49 46c-30 0 -47 -21 -47 -46zM439 165h-263l-55 -165h-116l239 676h127l240 -676h-117z
M205 256h206l-103 308z" />
    <glyph glyph-name="Aogonek" unicode="&#x104;" horiz-adv-x="615" 
d="M507 -102c0 -19 14 -34 38 -34c17 0 45 11 66 26v-83c-24 -13 -53 -23 -93 -23c-70 0 -113 35 -113 93c0 40 20 70 58 101l30 24l-54 163h-263l-55 -165h-116l239 676h127l240 -676l-72 -54c-20 -16 -32 -31 -32 -48zM205 256h206l-103 308z" />
    <glyph glyph-name="AE" unicode="&#xc6;" horiz-adv-x="943" 
d="M-5 0l446 676h456v-90h-313v-198h274v-90h-274v-212h316v-86h-425v166h-255l-108 -166h-117zM475 254v318l-201 -318h201z" />
    <glyph glyph-name="AEacute" unicode="&#x1fc;" horiz-adv-x="943" 
d="M757 900l-87 -160h-92l74 160h105zM-5 0l446 676h456v-90h-313v-198h274v-90h-274v-212h316v-86h-425v166h-255l-108 -166h-117zM475 254v318l-201 -318h201z" />
    <glyph glyph-name="Cacute" unicode="&#x106;" horiz-adv-x="588" 
d="M456 900l-87 -160h-91l74 160h104zM159 337c0 -152 52 -253 178 -253c62 0 113 35 138 83l84 -54c-41 -73 -117 -123 -226 -123c-193 0 -287 131 -287 348s94 348 287 348c109 0 185 -50 226 -123l-84 -54c-25 48 -76 83 -138 83c-126 0 -178 -101 -178 -255z" />
    <glyph glyph-name="Ccircumflex" unicode="&#x108;" horiz-adv-x="588" 
d="M380 900l101 -160h-91l-60 95l-61 -95h-91l102 160h100zM159 337c0 -152 52 -253 178 -253c62 0 113 35 138 83l84 -54c-41 -73 -117 -123 -226 -123c-193 0 -287 131 -287 348s94 348 287 348c109 0 185 -50 226 -123l-84 -54c-25 48 -76 83 -138 83
c-126 0 -178 -101 -178 -255z" />
    <glyph glyph-name="Ccaron" unicode="&#x10c;" horiz-adv-x="588" 
d="M280 740l-102 160h91l61 -95l60 95h91l-101 -160h-100zM159 337c0 -152 52 -253 178 -253c62 0 113 35 138 83l84 -54c-41 -73 -117 -123 -226 -123c-193 0 -287 131 -287 348s94 348 287 348c109 0 185 -50 226 -123l-84 -54c-25 48 -76 83 -138 83
c-126 0 -178 -101 -178 -255z" />
    <glyph glyph-name="Cdotaccent" unicode="&#x10a;" horiz-adv-x="588" 
d="M331 748c-37 0 -65 18 -65 63c0 44 28 64 65 64c32 0 64 -20 64 -64c0 -45 -32 -63 -64 -63zM159 337c0 -152 52 -253 178 -253c62 0 113 35 138 83l84 -54c-41 -73 -117 -123 -226 -123c-193 0 -287 131 -287 348s94 348 287 348c109 0 185 -50 226 -123l-84 -54
c-25 48 -76 83 -138 83c-126 0 -178 -101 -178 -255z" />
    <glyph glyph-name="Ccedilla" unicode="&#xc7;" horiz-adv-x="588" 
d="M337 84c62 0 113 35 138 83l84 -54c-38 -68 -107 -116 -205 -122l-16 -41c52 0 94 -21 94 -81c0 -50 -42 -85 -109 -85c-37 0 -67 10 -92 23v66c23 -17 56 -30 85 -30c24 0 36 11 36 26c0 21 -17 28 -48 28h-40l-5 6l32 89c-165 18 -245 145 -245 346
c0 217 94 348 287 348c109 0 185 -50 226 -123l-84 -54c-25 48 -76 83 -138 83c-126 0 -178 -101 -178 -255c0 -152 52 -253 178 -253z" />
    <glyph glyph-name="Dcaron" unicode="&#x10e;" horiz-adv-x="652" 
d="M250 740l-102 160h91l61 -95l60 95h91l-101 -160h-100zM74 676h202c232 0 329 -101 329 -338c0 -235 -96 -338 -329 -338h-202v676zM270 90c170 0 223 65 223 248c0 179 -53 248 -223 248h-87v-496h87z" />
    <glyph glyph-name="Dcroat" unicode="&#x110;" horiz-adv-x="660" 
d="M82 379v297h202c232 0 329 -101 329 -338c0 -235 -96 -338 -329 -338h-202v311h-64v68h64zM278 90c170 0 222 65 222 248c0 179 -52 248 -222 248h-87v-207h114v-68h-114v-221h87z" />
    <glyph glyph-name="Eth" unicode="&#xd0;" horiz-adv-x="660" 
d="M82 379v297h202c232 0 329 -101 329 -338c0 -235 -96 -338 -329 -338h-202v311h-64v68h64zM278 90c170 0 222 65 222 248c0 179 -52 248 -222 248h-87v-207h114v-68h-114v-221h87z" />
    <glyph glyph-name="Egrave" unicode="&#xc8;" horiz-adv-x="542" 
d="M264 900l74 -160h-91l-87 160h104zM499 90v-90h-425v676h422v-90h-313v-198h274v-90h-274v-208h316z" />
    <glyph glyph-name="Eacute" unicode="&#xc9;" horiz-adv-x="542" 
d="M413 900l-87 -160h-91l74 160h104zM499 90v-90h-425v676h422v-90h-313v-198h274v-90h-274v-208h316z" />
    <glyph glyph-name="Ecircumflex" unicode="&#xca;" horiz-adv-x="542" 
d="M337 900l101 -160h-91l-60 95l-61 -95h-91l102 160h100zM499 90v-90h-425v676h422v-90h-313v-198h274v-90h-274v-208h316z" />
    <glyph glyph-name="Ecaron" unicode="&#x11a;" horiz-adv-x="542" 
d="M237 740l-102 160h91l61 -95l60 95h91l-101 -160h-100zM499 90v-90h-425v676h422v-90h-313v-198h274v-90h-274v-208h316z" />
    <glyph glyph-name="Edieresis" unicode="&#xcb;" horiz-adv-x="542" 
d="M192 748c-37 0 -64 18 -64 63c0 44 27 64 64 64c32 0 64 -20 64 -64c0 -45 -32 -63 -64 -63zM382 748c-37 0 -65 18 -65 63c0 44 28 64 65 64c32 0 64 -20 64 -64c0 -45 -32 -63 -64 -63zM499 90v-90h-425v676h422v-90h-313v-198h274v-90h-274v-208h316z" />
    <glyph glyph-name="Emacron" unicode="&#x112;" horiz-adv-x="542" 
d="M433 851v-82h-290v82h290zM499 90v-90h-425v676h422v-90h-313v-198h274v-90h-274v-208h316z" />
    <glyph glyph-name="Ebreve" unicode="&#x114;" horiz-adv-x="542" 
d="M433 890c0 -82 -52 -146 -147 -146c-92 0 -144 64 -144 146h66c5 -42 35 -72 78 -72c45 0 74 30 79 72h68zM499 90v-90h-425v676h422v-90h-313v-198h274v-90h-274v-208h316z" />
    <glyph glyph-name="Edotaccent" unicode="&#x116;" horiz-adv-x="542" 
d="M287 748c-37 0 -65 18 -65 63c0 44 28 64 65 64c32 0 64 -20 64 -64c0 -45 -32 -63 -64 -63zM499 90v-90h-425v676h422v-90h-313v-198h274v-90h-274v-208h316z" />
    <glyph glyph-name="Eogonek" unicode="&#x118;" horiz-adv-x="541" 
d="M427 -54c-20 -16 -32 -31 -32 -48c0 -19 14 -34 38 -34c17 0 45 11 66 26v-83c-24 -13 -53 -23 -93 -23c-69 0 -113 35 -113 93c0 40 20 70 59 101l27 22h-305v676h422v-90h-313v-198h274v-90h-274v-208h316v-90z" />
    <glyph glyph-name="Gcircumflex" unicode="&#x11c;" horiz-adv-x="644" 
d="M394 900l101 -160h-91l-60 95l-61 -95h-91l102 160h100zM342 365h261c3 -19 5 -47 5 -58c0 -173 -75 -317 -270 -317c-190 0 -292 118 -292 348c0 228 101 348 305 348c105 0 181 -47 220 -119l-82 -54c-30 49 -71 79 -142 79c-137 0 -188 -92 -188 -254
c0 -174 54 -255 179 -255c117 0 159 85 159 191h-155v91z" />
    <glyph glyph-name="Gbreve" unicode="&#x11e;" horiz-adv-x="644" 
d="M490 890c0 -82 -52 -146 -147 -146c-92 0 -144 64 -144 146h66c5 -42 35 -72 78 -72c45 0 74 30 79 72h68zM342 365h261c3 -19 5 -47 5 -58c0 -173 -75 -317 -270 -317c-190 0 -292 118 -292 348c0 228 101 348 305 348c105 0 181 -47 220 -119l-82 -54
c-30 49 -71 79 -142 79c-137 0 -188 -92 -188 -254c0 -174 54 -255 179 -255c117 0 159 85 159 191h-155v91z" />
    <glyph glyph-name="Gdotaccent" unicode="&#x120;" horiz-adv-x="644" 
d="M345 748c-37 0 -65 18 -65 63c0 44 28 64 65 64c32 0 64 -20 64 -64c0 -45 -32 -63 -64 -63zM342 365h261c3 -19 5 -47 5 -58c0 -173 -75 -317 -270 -317c-190 0 -292 118 -292 348c0 228 101 348 305 348c105 0 181 -47 220 -119l-82 -54c-30 49 -71 79 -142 79
c-137 0 -188 -92 -188 -254c0 -174 54 -255 179 -255c117 0 159 85 159 191h-155v91z" />
    <glyph glyph-name="uni0122" unicode="&#x122;" horiz-adv-x="644" 
d="M342 365h261c3 -19 5 -47 5 -58c0 -173 -75 -317 -270 -317c-190 0 -292 118 -292 348c0 228 101 348 305 348c105 0 181 -47 220 -119l-82 -54c-30 49 -71 79 -142 79c-137 0 -188 -92 -188 -254c0 -174 54 -255 179 -255c117 0 159 85 159 191h-155v91zM346 -216h-76
l25 151h110z" />
    <glyph glyph-name="Hcircumflex" unicode="&#x124;" horiz-adv-x="678" 
d="M390 900l101 -160h-91l-60 95l-61 -95h-91l102 160h100zM496 676h108v-676h-108v307h-313v-307h-109v676h109v-279h313v279z" />
    <glyph glyph-name="Hbar" unicode="&#x126;" horiz-adv-x="681" 
d="M655 576v-72h-51v-504h-108v307h-313v-307h-109v504h-45v72h45v100h109v-100h313v100h108v-100h51zM496 397v107h-313v-107h313z" />
    <glyph glyph-name="Igrave" unicode="&#xcc;" horiz-adv-x="258" 
d="M106 900l74 -160h-91l-87 160h104zM74 676h109v-676h-109v676z" />
    <glyph glyph-name="Iacute" unicode="&#xcd;" horiz-adv-x="258" 
d="M255 900l-87 -160h-91l74 160h104zM74 676h109v-676h-109v676z" />
    <glyph glyph-name="Ibreve" unicode="&#x12c;" horiz-adv-x="258" 
d="M275 890c0 -82 -52 -146 -147 -146c-92 0 -144 64 -144 146h66c5 -42 35 -72 78 -72c45 0 74 30 79 72h68zM74 676h109v-676h-109v676z" />
    <glyph glyph-name="Icircumflex" unicode="&#xce;" horiz-adv-x="258" 
d="M179 900l101 -160h-91l-60 95l-61 -95h-91l102 160h100zM74 676h109v-676h-109v676z" />
    <glyph glyph-name="Itilde" unicode="&#x128;" horiz-adv-x="258" 
d="M270 772c-21 15 -44 25 -69 25c-50 0 -89 -40 -148 -40c-30 0 -56 12 -68 23l4 76c16 -17 36 -25 64 -25c51 0 82 40 148 40c35 0 57 -12 73 -23zM74 676h109v-676h-109v676z" />
    <glyph glyph-name="Idieresis" unicode="&#xcf;" horiz-adv-x="258" 
d="M35 748c-37 0 -64 18 -64 63c0 44 27 64 64 64c32 0 64 -20 64 -64c0 -45 -32 -63 -64 -63zM225 748c-37 0 -65 18 -65 63c0 44 28 64 65 64c32 0 64 -20 64 -64c0 -45 -32 -63 -64 -63zM74 676h109v-676h-109v676z" />
    <glyph glyph-name="Imacron" unicode="&#x12a;" horiz-adv-x="258" 
d="M275 851v-82h-290v82h290zM74 676h109v-676h-109v676z" />
    <glyph glyph-name="Idotaccent" unicode="&#x130;" horiz-adv-x="258" 
d="M130 748c-37 0 -65 18 -65 63c0 44 28 64 65 64c32 0 64 -20 64 -64c0 -45 -32 -63 -64 -63zM74 676h109v-676h-109v676z" />
    <glyph glyph-name="Iogonek" unicode="&#x12e;" horiz-adv-x="258" 
d="M112 -54c-20 -16 -32 -31 -32 -48c0 -19 14 -34 38 -34c17 0 44 11 65 26v-83c-24 -13 -52 -23 -93 -23c-69 0 -113 35 -113 93c0 40 21 70 59 101l38 31v667h109v-676z" />
    <glyph glyph-name="Jcircumflex" unicode="&#x134;" horiz-adv-x="485" 
d="M413 900l101 -160h-91l-60 95l-61 -95h-91l102 160h100zM96 148c22 -42 50 -64 102 -64c73 0 114 40 114 150v442h103v-447c0 -162 -83 -239 -217 -239c-91 0 -150 45 -180 107z" />
    <glyph glyph-name="uni0136" unicode="&#x136;" horiz-adv-x="611" 
d="M183 222v-222h-109v676h109v-316l285 316h132l-249 -279l249 -397h-129l-194 319zM287 -216h-76l25 151h110z" />
    <glyph glyph-name="Lacute" unicode="&#x139;" horiz-adv-x="479" 
d="M255 900l-87 -160h-91l74 160h104zM462 90v-90h-388v676h109v-586h279z" />
    <glyph glyph-name="Lcaron" unicode="&#x13d;" horiz-adv-x="479" 
d="M458 526h-77l26 151h110zM462 90v-90h-388v676h109v-586h279z" />
    <glyph glyph-name="uni013B" unicode="&#x13b;" horiz-adv-x="479" 
d="M462 90v-90h-388v676h109v-586h279zM264 -216h-76l25 151h110z" />
    <glyph glyph-name="Lslash" unicode="&#x141;" horiz-adv-x="502" 
d="M19 219v81l79 33v343h109v-295l89 39v-80l-89 -39v-211h278v-90h-387v253z" />
    <glyph glyph-name="Ldot" unicode="&#x13f;" horiz-adv-x="512" 
d="M462 90v-90h-388v676h109v-586h279zM377 309c-43 0 -75 31 -75 71c0 42 32 72 75 72c42 0 74 -30 74 -72c0 -40 -32 -71 -74 -71z" />
    <glyph glyph-name="Nacute" unicode="&#x143;" horiz-adv-x="679" 
d="M466 900l-87 -160h-91l74 160h104zM497 676h108v-676h-113l-309 503l1 -503h-110v676h116l307 -498v498z" />
    <glyph glyph-name="Ncaron" unicode="&#x147;" horiz-adv-x="679" 
d="M290 740l-102 160h91l61 -95l60 95h91l-101 -160h-100zM497 676h108v-676h-113l-309 503l1 -503h-110v676h116l307 -498v498z" />
    <glyph glyph-name="Ntilde" unicode="&#xd1;" horiz-adv-x="679" 
d="M481 772c-21 15 -44 25 -69 25c-50 0 -89 -40 -148 -40c-30 0 -56 12 -68 23l4 76c16 -17 36 -25 64 -25c51 0 82 40 148 40c35 0 57 -12 73 -23zM497 676h108v-676h-113l-309 503l1 -503h-110v676h116l307 -498v498z" />
    <glyph glyph-name="uni0145" unicode="&#x145;" horiz-adv-x="679" 
d="M497 676h108v-676h-113l-309 503l1 -503h-110v676h116l307 -498v498zM343 -216h-77l26 151h110z" />
    <glyph glyph-name="Ograve" unicode="&#xd2;" horiz-adv-x="657" 
d="M306 900l74 -160h-91l-87 160h104zM610 337c0 -200 -78 -347 -283 -347s-281 147 -281 347s76 349 283 349c206 0 281 -149 281 -349zM159 337c0 -150 36 -253 168 -253c134 0 171 103 171 253c0 151 -38 255 -169 255c-130 0 -170 -104 -170 -255z" />
    <glyph glyph-name="Oacute" unicode="&#xd3;" horiz-adv-x="657" 
d="M455 900l-87 -160h-91l74 160h104zM610 337c0 -200 -78 -347 -283 -347s-281 147 -281 347s76 349 283 349c206 0 281 -149 281 -349zM159 337c0 -150 36 -253 168 -253c134 0 171 103 171 253c0 151 -38 255 -169 255c-130 0 -170 -104 -170 -255z" />
    <glyph glyph-name="Ocircumflex" unicode="&#xd4;" horiz-adv-x="657" 
d="M379 900l101 -160h-91l-60 95l-61 -95h-91l102 160h100zM610 337c0 -200 -78 -347 -283 -347s-281 147 -281 347s76 349 283 349c206 0 281 -149 281 -349zM159 337c0 -150 36 -253 168 -253c134 0 171 103 171 253c0 151 -38 255 -169 255c-130 0 -170 -104 -170 -255z
" />
    <glyph glyph-name="Otilde" unicode="&#xd5;" horiz-adv-x="657" 
d="M470 772c-21 15 -44 25 -69 25c-50 0 -89 -40 -148 -40c-30 0 -56 12 -68 23l4 76c16 -17 36 -25 64 -25c51 0 82 40 148 40c35 0 57 -12 73 -23zM610 337c0 -200 -78 -347 -283 -347s-281 147 -281 347s76 349 283 349c206 0 281 -149 281 -349zM159 337
c0 -150 36 -253 168 -253c134 0 171 103 171 253c0 151 -38 255 -169 255c-130 0 -170 -104 -170 -255z" />
    <glyph glyph-name="Odieresis" unicode="&#xd6;" horiz-adv-x="657" 
d="M234 748c-37 0 -64 18 -64 63c0 44 27 64 64 64c32 0 64 -20 64 -64c0 -45 -32 -63 -64 -63zM424 748c-37 0 -65 18 -65 63c0 44 28 64 65 64c32 0 64 -20 64 -64c0 -45 -32 -63 -64 -63zM610 337c0 -200 -78 -347 -283 -347s-281 147 -281 347s76 349 283 349
c206 0 281 -149 281 -349zM159 337c0 -150 36 -253 168 -253c134 0 171 103 171 253c0 151 -38 255 -169 255c-130 0 -170 -104 -170 -255z" />
    <glyph glyph-name="Omacron" unicode="&#x14c;" horiz-adv-x="657" 
d="M475 851v-82h-290v82h290zM610 337c0 -200 -78 -347 -283 -347s-281 147 -281 347s76 349 283 349c206 0 281 -149 281 -349zM159 337c0 -150 36 -253 168 -253c134 0 171 103 171 253c0 151 -38 255 -169 255c-130 0 -170 -104 -170 -255z" />
    <glyph glyph-name="Obreve" unicode="&#x14e;" horiz-adv-x="657" 
d="M475 890c0 -82 -52 -146 -147 -146c-92 0 -144 64 -144 146h66c5 -42 35 -72 78 -72c45 0 74 30 79 72h68zM610 337c0 -200 -78 -347 -283 -347s-281 147 -281 347s76 349 283 349c206 0 281 -149 281 -349zM159 337c0 -150 36 -253 168 -253c134 0 171 103 171 253
c0 151 -38 255 -169 255c-130 0 -170 -104 -170 -255z" />
    <glyph glyph-name="Ohungarumlaut" unicode="&#x150;" horiz-adv-x="657" 
d="M367 900l-87 -160h-91l74 160h104zM537 900l-87 -160h-91l74 160h104zM610 337c0 -200 -78 -347 -283 -347s-281 147 -281 347s76 349 283 349c206 0 281 -149 281 -349zM159 337c0 -150 36 -253 168 -253c134 0 171 103 171 253c0 151 -38 255 -169 255
c-130 0 -170 -104 -170 -255z" />
    <glyph glyph-name="Oslash" unicode="&#xd8;" horiz-adv-x="659" 
d="M611 337c0 -200 -78 -347 -283 -347c-74 0 -131 19 -173 55l-35 -45h-91l75 99c-40 61 -57 143 -57 238c0 200 76 349 283 349c75 0 134 -21 176 -58l37 48h93l-79 -104c38 -61 54 -143 54 -235zM160 337c0 -55 5 -102 20 -140l265 350c-26 29 -64 45 -115 45
c-130 0 -170 -104 -170 -255zM499 337c0 52 -5 98 -19 135l-264 -347c25 -27 62 -41 112 -41c134 0 171 103 171 253z" />
    <glyph glyph-name="Oslashacute" unicode="&#x1fe;" horiz-adv-x="659" 
d="M456 900l-87 -160h-91l74 160h104zM611 337c0 -200 -78 -347 -283 -347c-74 0 -131 19 -173 55l-35 -45h-91l75 99c-40 61 -57 143 -57 238c0 200 76 349 283 349c75 0 134 -21 176 -58l37 48h93l-79 -104c38 -61 54 -143 54 -235zM160 337c0 -55 5 -102 20 -140l265 350
c-26 29 -64 45 -115 45c-130 0 -170 -104 -170 -255zM499 337c0 52 -5 98 -19 135l-264 -347c25 -27 62 -41 112 -41c134 0 171 103 171 253z" />
    <glyph glyph-name="OE" unicode="&#x152;" horiz-adv-x="882" 
d="M840 90v-90h-425c-25 -6 -56 -10 -88 -10c-205 0 -281 147 -281 347s76 349 283 349c31 0 61 -4 87 -10h421v-90h-313v-198h274v-90h-274v-208h316zM327 84c33 0 64 5 88 15v476c-25 11 -54 17 -86 17c-130 0 -170 -104 -170 -255c0 -150 36 -253 168 -253z" />
    <glyph glyph-name="Racute" unicode="&#x154;" horiz-adv-x="599" 
d="M410 900l-87 -160h-91l74 160h104zM74 676h245c158 0 239 -74 239 -194c0 -97 -60 -165 -166 -186l181 -296h-123l-169 286h-98l1 -286h-110v676zM445 482c0 64 -33 104 -136 104h-126v-210h126c103 0 136 39 136 106z" />
    <glyph glyph-name="Rcaron" unicode="&#x158;" horiz-adv-x="599" 
d="M234 740l-102 160h91l61 -95l60 95h91l-101 -160h-100zM74 676h245c158 0 239 -74 239 -194c0 -97 -60 -165 -166 -186l181 -296h-123l-169 286h-98l1 -286h-110v676zM445 482c0 64 -33 104 -136 104h-126v-210h126c103 0 136 39 136 106z" />
    <glyph glyph-name="uni0156" unicode="&#x156;" horiz-adv-x="599" 
d="M74 676h245c158 0 239 -74 239 -194c0 -97 -60 -165 -166 -186l181 -296h-123l-169 286h-98l1 -286h-110v676zM445 482c0 64 -33 104 -136 104h-126v-210h126c103 0 136 39 136 106zM289 -216h-77l26 151h110z" />
    <glyph glyph-name="Sacute" unicode="&#x15a;" horiz-adv-x="544" 
d="M401 900l-87 -160h-91l74 160h104zM419 526c-27 41 -72 66 -137 66c-75 0 -113 -43 -113 -101c0 -48 26 -74 83 -92l88 -26c111 -34 163 -91 163 -181c0 -125 -94 -203 -236 -203c-151 0 -210 72 -237 126l77 60c24 -49 60 -92 160 -92c81 0 124 41 124 101
c0 51 -33 77 -89 94l-88 26c-110 34 -158 95 -158 181c0 104 68 201 226 201c113 0 180 -48 214 -100z" />
    <glyph glyph-name="Scircumflex" unicode="&#x15c;" horiz-adv-x="544" 
d="M325 900l101 -160h-91l-60 95l-61 -95h-91l102 160h100zM419 526c-27 41 -72 66 -137 66c-75 0 -113 -43 -113 -101c0 -48 26 -74 83 -92l88 -26c111 -34 163 -91 163 -181c0 -125 -94 -203 -236 -203c-151 0 -210 72 -237 126l77 60c24 -49 60 -92 160 -92
c81 0 124 41 124 101c0 51 -33 77 -89 94l-88 26c-110 34 -158 95 -158 181c0 104 68 201 226 201c113 0 180 -48 214 -100z" />
    <glyph glyph-name="Scaron" unicode="&#x160;" horiz-adv-x="544" 
d="M225 740l-102 160h91l61 -95l60 95h91l-101 -160h-100zM419 526c-27 41 -72 66 -137 66c-75 0 -113 -43 -113 -101c0 -48 26 -74 83 -92l88 -26c111 -34 163 -91 163 -181c0 -125 -94 -203 -236 -203c-151 0 -210 72 -237 126l77 60c24 -49 60 -92 160 -92
c81 0 124 41 124 101c0 51 -33 77 -89 94l-88 26c-110 34 -158 95 -158 181c0 104 68 201 226 201c113 0 180 -48 214 -100z" />
    <glyph glyph-name="Scedilla" unicode="&#x15e;" horiz-adv-x="544" 
d="M503 192c0 -117 -82 -193 -209 -202l-16 -40c52 0 94 -21 94 -81c0 -50 -42 -85 -109 -85c-37 0 -67 10 -92 23v66c23 -17 56 -30 85 -30c24 0 36 11 36 26c0 21 -17 28 -48 28h-40l-5 6l31 88c-124 10 -175 75 -200 124l77 60c24 -49 60 -92 160 -92
c81 0 124 41 124 101c0 51 -33 77 -89 94l-88 26c-110 34 -158 95 -158 181c0 104 68 201 226 201c113 0 180 -48 214 -100l-77 -60c-27 41 -72 66 -137 66c-75 0 -113 -43 -113 -101c0 -48 26 -74 83 -92l88 -26c111 -34 163 -91 163 -181z" />
    <glyph glyph-name="uni0218" unicode="&#x218;" horiz-adv-x="544" 
d="M419 526c-27 41 -72 66 -137 66c-75 0 -113 -43 -113 -101c0 -48 26 -74 83 -92l88 -26c111 -34 163 -91 163 -181c0 -125 -94 -203 -236 -203c-151 0 -210 72 -237 126l77 60c24 -49 60 -92 160 -92c81 0 124 41 124 101c0 51 -33 77 -89 94l-88 26
c-110 34 -158 95 -158 181c0 104 68 201 226 201c113 0 180 -48 214 -100zM275 -216h-76l25 151h110z" />
    <glyph glyph-name="Tcaron" unicode="&#x164;" horiz-adv-x="543" 
d="M222 740l-102 160h91l61 -95l60 95h91l-101 -160h-100zM513 676v-90h-187v-586h-109v586h-188v90h484z" />
    <glyph glyph-name="uni021A" unicode="&#x21a;" horiz-adv-x="543" 
d="M513 676v-90h-187v-586h-109v586h-188v90h484zM266 -216h-77l26 151h110z" />
    <glyph glyph-name="Tbar" unicode="&#x166;" horiz-adv-x="546" 
d="M513 586h-187v-219h90v-73h-90v-294h-109v294h-87v73h87v219h-188v90h484v-90z" />
    <glyph glyph-name="Thorn" unicode="&#xde;" horiz-adv-x="568" 
d="M183 130v-130h-109v677h109v-127h117c157 0 236 -78 236 -210c0 -131 -79 -210 -236 -210h-117zM183 220h110c97 0 130 49 130 120s-33 120 -130 120h-110v-240z" />
    <glyph glyph-name="Ugrave" unicode="&#xd9;" horiz-adv-x="647" 
d="M301 900l74 -160h-91l-87 160h104zM324 -10c-151 0 -255 76 -255 265v421h109v-420c0 -120 48 -172 146 -172c97 0 146 51 146 172v420h109v-421c0 -189 -106 -265 -255 -265z" />
    <glyph glyph-name="Uacute" unicode="&#xda;" horiz-adv-x="647" 
d="M450 900l-87 -160h-91l74 160h104zM324 -10c-151 0 -255 76 -255 265v421h109v-420c0 -120 48 -172 146 -172c97 0 146 51 146 172v420h109v-421c0 -189 -106 -265 -255 -265z" />
    <glyph glyph-name="Ucircumflex" unicode="&#xdb;" horiz-adv-x="647" 
d="M374 900l101 -160h-91l-60 95l-61 -95h-91l102 160h100zM324 -10c-151 0 -255 76 -255 265v421h109v-420c0 -120 48 -172 146 -172c97 0 146 51 146 172v420h109v-421c0 -189 -106 -265 -255 -265z" />
    <glyph glyph-name="Utilde" unicode="&#x168;" horiz-adv-x="647" 
d="M465 772c-21 15 -44 25 -69 25c-50 0 -89 -40 -148 -40c-30 0 -56 12 -68 23l4 76c16 -17 36 -25 64 -25c51 0 82 40 148 40c35 0 57 -12 73 -23zM324 -10c-151 0 -255 76 -255 265v421h109v-420c0 -120 48 -172 146 -172c97 0 146 51 146 172v420h109v-421
c0 -189 -106 -265 -255 -265z" />
    <glyph glyph-name="Udieresis" unicode="&#xdc;" horiz-adv-x="647" 
d="M230 748c-37 0 -64 18 -64 63c0 44 27 64 64 64c32 0 64 -20 64 -64c0 -45 -32 -63 -64 -63zM420 748c-37 0 -65 18 -65 63c0 44 28 64 65 64c32 0 64 -20 64 -64c0 -45 -32 -63 -64 -63zM324 -10c-151 0 -255 76 -255 265v421h109v-420c0 -120 48 -172 146 -172
c97 0 146 51 146 172v420h109v-421c0 -189 -106 -265 -255 -265z" />
    <glyph glyph-name="Umacron" unicode="&#x16a;" horiz-adv-x="647" 
d="M470 851v-82h-290v82h290zM324 -10c-151 0 -255 76 -255 265v421h109v-420c0 -120 48 -172 146 -172c97 0 146 51 146 172v420h109v-421c0 -189 -106 -265 -255 -265z" />
    <glyph glyph-name="Ubreve" unicode="&#x16c;" horiz-adv-x="647" 
d="M470 890c0 -82 -52 -146 -147 -146c-92 0 -144 64 -144 146h66c5 -42 35 -72 78 -72c45 0 74 30 79 72h68zM324 -10c-151 0 -255 76 -255 265v421h109v-420c0 -120 48 -172 146 -172c97 0 146 51 146 172v420h109v-421c0 -189 -106 -265 -255 -265z" />
    <glyph glyph-name="Uring" unicode="&#x16e;" horiz-adv-x="647" 
d="M218 825c0 53 37 98 105 98c71 0 108 -45 108 -98c0 -50 -37 -97 -108 -97c-68 0 -105 47 -105 97zM277 825c0 -24 17 -44 46 -44c31 0 47 20 47 44s-16 44 -47 44c-29 0 -46 -20 -46 -44zM324 -10c-151 0 -255 76 -255 265v421h109v-420c0 -120 48 -172 146 -172
c97 0 146 51 146 172v420h109v-421c0 -189 -106 -265 -255 -265z" />
    <glyph glyph-name="Uhungarumlaut" unicode="&#x170;" horiz-adv-x="647" 
d="M362 900l-87 -160h-91l74 160h104zM532 900l-87 -160h-91l74 160h104zM324 -10c-151 0 -255 76 -255 265v421h109v-420c0 -120 48 -172 146 -172c97 0 146 51 146 172v420h109v-421c0 -189 -106 -265 -255 -265z" />
    <glyph glyph-name="Uogonek" unicode="&#x172;" horiz-adv-x="647" 
d="M470 676h109v-421c0 -162 -78 -241 -194 -260l-64 -49c-20 -16 -32 -31 -32 -48c0 -19 14 -34 38 -34c17 0 44 11 65 26v-83c-24 -13 -52 -23 -93 -23c-69 0 -113 35 -113 93c0 40 21 70 59 101l20 16c-118 19 -196 98 -196 261v421h109v-420c0 -120 48 -172 146 -172
c97 0 146 51 146 172v420z" />
    <glyph glyph-name="Wacute" unicode="&#x1e82;" horiz-adv-x="968" 
d="M611 900l-87 -160h-91l74 160h104zM546 676l150 -553l143 553h113l-185 -676h-134l-149 528l-149 -528h-133l-186 676h113l144 -553l149 553h124z" />
    <glyph glyph-name="Wcircumflex" unicode="&#x174;" horiz-adv-x="968" 
d="M535 900l101 -160h-91l-60 95l-61 -95h-91l102 160h100zM546 676l150 -553l143 553h113l-185 -676h-134l-149 528l-149 -528h-133l-186 676h113l144 -553l149 553h124z" />
    <glyph glyph-name="Wdieresis" unicode="&#x1e84;" horiz-adv-x="968" 
d="M390 748c-37 0 -64 18 -64 63c0 44 27 64 64 64c32 0 64 -20 64 -64c0 -45 -32 -63 -64 -63zM580 748c-37 0 -65 18 -65 63c0 44 28 64 65 64c32 0 64 -20 64 -64c0 -45 -32 -63 -64 -63zM546 676l150 -553l143 553h113l-185 -676h-134l-149 528l-149 -528h-133l-186 676
h113l144 -553l149 553h124z" />
    <glyph glyph-name="Wgrave" unicode="&#x1e80;" horiz-adv-x="968" 
d="M461 900l74 -160h-91l-87 160h104zM546 676l150 -553l143 553h113l-185 -676h-134l-149 528l-149 -528h-133l-186 676h113l144 -553l149 553h124z" />
    <glyph glyph-name="Yacute" unicode="&#xdd;" horiz-adv-x="583" 
d="M418 900l-87 -160h-91l74 160h104zM237 0v266l-230 410h120l165 -311l163 311h121l-230 -410v-266h-109z" />
    <glyph glyph-name="Ycircumflex" unicode="&#x176;" horiz-adv-x="583" 
d="M342 900l101 -160h-91l-60 95l-61 -95h-91l102 160h100zM237 0v266l-230 410h120l165 -311l163 311h121l-230 -410v-266h-109z" />
    <glyph glyph-name="Ydieresis" unicode="&#x178;" horiz-adv-x="583" 
d="M197 748c-37 0 -64 18 -64 63c0 44 27 64 64 64c32 0 64 -20 64 -64c0 -45 -32 -63 -64 -63zM387 748c-37 0 -65 18 -65 63c0 44 28 64 65 64c32 0 64 -20 64 -64c0 -45 -32 -63 -64 -63zM237 0v266l-230 410h120l165 -311l163 311h121l-230 -410v-266h-109z" />
    <glyph glyph-name="Ygrave" unicode="&#x1ef2;" horiz-adv-x="583" 
d="M268 900l74 -160h-91l-87 160h104zM237 0v266l-230 410h120l165 -311l163 311h121l-230 -410v-266h-109z" />
    <glyph glyph-name="Zacute" unicode="&#x179;" horiz-adv-x="519" 
d="M388 900l-87 -160h-91l74 160h104zM474 596l-313 -506h322v-90h-450v78l313 508h-297v90h425v-80z" />
    <glyph glyph-name="Zcaron" unicode="&#x17d;" horiz-adv-x="519" 
d="M212 740l-102 160h91l61 -95l60 95h91l-101 -160h-100zM474 596l-313 -506h322v-90h-450v78l313 508h-297v90h425v-80z" />
    <glyph glyph-name="Zdotaccent" unicode="&#x17b;" horiz-adv-x="519" 
d="M263 748c-37 0 -65 18 -65 63c0 44 28 64 65 64c32 0 64 -20 64 -64c0 -45 -32 -63 -64 -63zM474 596l-313 -506h322v-90h-450v78l313 508h-297v90h425v-80z" />
    <glyph glyph-name="agrave" unicode="&#xe0;" horiz-adv-x="471" 
d="M219 696l74 -160h-91l-87 160h104zM320 0v55c-29 -33 -77 -66 -149 -66c-83 0 -137 50 -137 131c0 97 85 140 216 150l64 7v36c0 46 -20 72 -84 72c-56 0 -83 -20 -83 -49v-22h-88c-1 10 -2 21 -2 31c0 71 64 121 179 121c111 0 178 -48 178 -152v-314h-94zM137 126
c0 -38 23 -58 68 -58c44 0 84 21 109 47v98l-63 -9c-73 -10 -114 -32 -114 -78z" />
    <glyph glyph-name="aacute" unicode="&#xe1;" horiz-adv-x="471" 
d="M368 696l-87 -160h-91l74 160h104zM320 0v55c-29 -33 -77 -66 -149 -66c-83 0 -137 50 -137 131c0 97 85 140 216 150l64 7v36c0 46 -20 72 -84 72c-56 0 -83 -20 -83 -49v-22h-88c-1 10 -2 21 -2 31c0 71 64 121 179 121c111 0 178 -48 178 -152v-314h-94zM137 126
c0 -38 23 -58 68 -58c44 0 84 21 109 47v98l-63 -9c-73 -10 -114 -32 -114 -78z" />
    <glyph glyph-name="acircumflex" unicode="&#xe2;" horiz-adv-x="471" 
d="M292 696l101 -160h-91l-60 95l-61 -95h-91l102 160h100zM320 0v55c-29 -33 -77 -66 -149 -66c-83 0 -137 50 -137 131c0 97 85 140 216 150l64 7v36c0 46 -20 72 -84 72c-56 0 -83 -20 -83 -49v-22h-88c-1 10 -2 21 -2 31c0 71 64 121 179 121c111 0 178 -48 178 -152
v-314h-94zM137 126c0 -38 23 -58 68 -58c44 0 84 21 109 47v98l-63 -9c-73 -10 -114 -32 -114 -78z" />
    <glyph glyph-name="atilde" unicode="&#xe3;" horiz-adv-x="471" 
d="M383 568c-21 15 -44 25 -69 25c-50 0 -89 -40 -148 -40c-30 0 -56 12 -68 23l4 76c16 -17 36 -25 64 -25c51 0 82 40 148 40c35 0 57 -12 73 -23zM320 0v55c-29 -33 -77 -66 -149 -66c-83 0 -137 50 -137 131c0 97 85 140 216 150l64 7v36c0 46 -20 72 -84 72
c-56 0 -83 -20 -83 -49v-22h-88c-1 10 -2 21 -2 31c0 71 64 121 179 121c111 0 178 -48 178 -152v-314h-94zM137 126c0 -38 23 -58 68 -58c44 0 84 21 109 47v98l-63 -9c-73 -10 -114 -32 -114 -78z" />
    <glyph glyph-name="adieresis" unicode="&#xe4;" horiz-adv-x="471" 
d="M148 544c-37 0 -64 18 -64 63c0 44 27 64 64 64c32 0 64 -20 64 -64c0 -45 -32 -63 -64 -63zM338 544c-37 0 -65 18 -65 63c0 44 28 64 65 64c32 0 64 -20 64 -64c0 -45 -32 -63 -64 -63zM320 0v55c-29 -33 -77 -66 -149 -66c-83 0 -137 50 -137 131c0 97 85 140 216 150
l64 7v36c0 46 -20 72 -84 72c-56 0 -83 -20 -83 -49v-22h-88c-1 10 -2 21 -2 31c0 71 64 121 179 121c111 0 178 -48 178 -152v-314h-94zM137 126c0 -38 23 -58 68 -58c44 0 84 21 109 47v98l-63 -9c-73 -10 -114 -32 -114 -78z" />
    <glyph glyph-name="amacron" unicode="&#x101;" horiz-adv-x="471" 
d="M388 647v-82h-290v82h290zM320 0v55c-29 -33 -77 -66 -149 -66c-83 0 -137 50 -137 131c0 97 85 140 216 150l64 7v36c0 46 -20 72 -84 72c-56 0 -83 -20 -83 -49v-22h-88c-1 10 -2 21 -2 31c0 71 64 121 179 121c111 0 178 -48 178 -152v-314h-94zM137 126
c0 -38 23 -58 68 -58c44 0 84 21 109 47v98l-63 -9c-73 -10 -114 -32 -114 -78z" />
    <glyph glyph-name="abreve" unicode="&#x103;" horiz-adv-x="471" 
d="M388 686c0 -82 -52 -146 -147 -146c-92 0 -144 64 -144 146h66c5 -42 35 -72 78 -72c45 0 74 30 79 72h68zM320 0v55c-29 -33 -77 -66 -149 -66c-83 0 -137 50 -137 131c0 97 85 140 216 150l64 7v36c0 46 -20 72 -84 72c-56 0 -83 -20 -83 -49v-22h-88
c-1 10 -2 21 -2 31c0 71 64 121 179 121c111 0 178 -48 178 -152v-314h-94zM137 126c0 -38 23 -58 68 -58c44 0 84 21 109 47v98l-63 -9c-73 -10 -114 -32 -114 -78z" />
    <glyph glyph-name="aring" unicode="&#xe5;" horiz-adv-x="471" 
d="M136 621c0 53 37 98 105 98c71 0 108 -45 108 -98c0 -50 -37 -97 -108 -97c-68 0 -105 47 -105 97zM195 621c0 -24 17 -44 46 -44c31 0 47 20 47 44s-16 44 -47 44c-29 0 -46 -20 -46 -44zM320 0v55c-29 -33 -77 -66 -149 -66c-83 0 -137 50 -137 131
c0 97 85 140 216 150l64 7v36c0 46 -20 72 -84 72c-56 0 -83 -20 -83 -49v-22h-88c-1 10 -2 21 -2 31c0 71 64 121 179 121c111 0 178 -48 178 -152v-314h-94zM137 126c0 -38 23 -58 68 -58c44 0 84 21 109 47v98l-63 -9c-73 -10 -114 -32 -114 -78z" />
    <glyph glyph-name="aringacute" unicode="&#x1fb;" horiz-adv-x="471" 
d="M137 611c0 47 30 86 83 95l43 74h97l-65 -84c35 -16 55 -48 55 -85c0 -51 -38 -96 -108 -96c-67 0 -105 45 -105 96zM195 611c0 -25 17 -44 47 -44c32 0 49 19 49 44s-17 46 -49 46c-30 0 -47 -21 -47 -46zM320 0v55c-29 -33 -77 -66 -149 -66c-83 0 -137 50 -137 131
c0 97 85 140 216 150l64 7v36c0 46 -20 72 -84 72c-56 0 -83 -20 -83 -49v-22h-88c-1 10 -2 21 -2 31c0 71 64 121 179 121c111 0 178 -48 178 -152v-314h-94zM137 126c0 -38 23 -58 68 -58c44 0 84 21 109 47v98l-63 -9c-73 -10 -114 -32 -114 -78z" />
    <glyph glyph-name="aogonek" unicode="&#x105;" horiz-adv-x="471" 
d="M34 120c0 97 84 140 215 150l64 7v36c0 46 -19 72 -84 72c-55 0 -82 -20 -82 -49v-22h-88c-2 10 -3 21 -3 31c0 71 65 121 179 121c111 0 179 -48 179 -152v-314l-78 -53c-20 -14 -27 -28 -27 -44c0 -18 13 -28 33 -28c29 0 48 10 57 15l5 -68c-9 -5 -30 -14 -57 -17
c-12 -1 -24 -1 -36 1c-62 4 -97 31 -97 79c0 35 18 65 53 86l52 34v50c-28 -33 -77 -66 -149 -66c-83 0 -136 50 -136 131zM136 126c0 -38 24 -58 68 -58s84 21 109 47v98l-62 -9c-74 -10 -115 -32 -115 -78z" />
    <glyph glyph-name="ae" unicode="&#xe6;" horiz-adv-x="746" 
d="M532 76c38 0 84 14 118 45l48 -66c-32 -35 -95 -66 -166 -66c-82 0 -136 28 -170 76c-38 -43 -97 -76 -179 -76c-96 0 -149 50 -149 131c0 97 84 140 215 150l64 7v36c0 46 -19 72 -84 72c-55 0 -82 -20 -82 -49v-22h-88c-2 10 -3 21 -3 31c0 71 65 121 179 121
c70 0 119 -20 146 -61c31 38 77 61 140 61c134 0 187 -97 187 -195c0 -23 -2 -56 -6 -75h-286c2 -73 38 -120 116 -120zM613 270c1 6 1 13 1 17c0 61 -38 97 -93 97c-71 0 -100 -50 -105 -114h197zM136 126c0 -38 24 -58 68 -58s84 21 109 47v98l-62 -9
c-74 -10 -115 -32 -115 -78z" />
    <glyph glyph-name="aeacute" unicode="&#x1fd;" horiz-adv-x="746" 
d="M518 696l-87 -160h-91l74 160h104zM532 76c38 0 84 14 118 45l48 -66c-32 -35 -95 -66 -166 -66c-82 0 -136 28 -170 76c-38 -43 -97 -76 -179 -76c-96 0 -149 50 -149 131c0 97 84 140 215 150l64 7v36c0 46 -19 72 -84 72c-55 0 -82 -20 -82 -49v-22h-88
c-2 10 -3 21 -3 31c0 71 65 121 179 121c70 0 119 -20 146 -61c31 38 77 61 140 61c134 0 187 -97 187 -195c0 -23 -2 -56 -6 -75h-286c2 -73 38 -120 116 -120zM613 270c1 6 1 13 1 17c0 61 -38 97 -93 97c-71 0 -100 -50 -105 -114h197zM136 126c0 -38 24 -58 68 -58
s84 21 109 47v98l-62 -9c-74 -10 -115 -32 -115 -78z" />
    <glyph glyph-name="cacute" unicode="&#x107;" horiz-adv-x="448" 
d="M378 696l-87 -160h-91l74 160h104zM39 228c0 130 61 238 207 238c81 0 144 -33 177 -97l-72 -51c-21 37 -52 59 -98 59c-81 0 -111 -63 -111 -149s30 -149 111 -149c46 0 78 22 99 58l71 -51c-32 -64 -96 -97 -177 -97c-146 0 -207 107 -207 239z" />
    <glyph glyph-name="ccircumflex" unicode="&#x109;" horiz-adv-x="448" 
d="M302 696l101 -160h-91l-60 95l-61 -95h-91l102 160h100zM39 228c0 130 61 238 207 238c81 0 144 -33 177 -97l-72 -51c-21 37 -52 59 -98 59c-81 0 -111 -63 -111 -149s30 -149 111 -149c46 0 78 22 99 58l71 -51c-32 -64 -96 -97 -177 -97c-146 0 -207 107 -207 239z
" />
    <glyph glyph-name="ccaron" unicode="&#x10d;" horiz-adv-x="448" 
d="M202 536l-102 160h91l61 -95l60 95h91l-101 -160h-100zM39 228c0 130 61 238 207 238c81 0 144 -33 177 -97l-72 -51c-21 37 -52 59 -98 59c-81 0 -111 -63 -111 -149s30 -149 111 -149c46 0 78 22 99 58l71 -51c-32 -64 -96 -97 -177 -97c-146 0 -207 107 -207 239z" />
    <glyph glyph-name="cdotaccent" unicode="&#x10b;" horiz-adv-x="448" 
d="M252 544c-37 0 -65 18 -65 63c0 44 28 64 65 64c32 0 64 -20 64 -64c0 -45 -32 -63 -64 -63zM39 228c0 130 61 238 207 238c81 0 144 -33 177 -97l-72 -51c-21 37 -52 59 -98 59c-81 0 -111 -63 -111 -149s30 -149 111 -149c46 0 78 22 99 58l71 -51
c-32 -64 -96 -97 -177 -97c-146 0 -207 107 -207 239z" />
    <glyph glyph-name="ccedilla" unicode="&#xe7;" horiz-adv-x="448" 
d="M253 79c46 0 78 22 99 58l71 -51c-29 -57 -83 -90 -152 -96l-16 -40c51 0 94 -21 94 -81c0 -50 -42 -85 -109 -85c-37 0 -67 10 -93 23v66c24 -17 56 -30 85 -30c24 0 37 11 37 26c0 21 -18 28 -49 28h-40l-5 6l32 89c-118 18 -168 117 -168 236c0 130 61 238 207 238
c81 0 144 -33 177 -97l-72 -51c-21 37 -52 59 -98 59c-81 0 -111 -63 -111 -149s30 -149 111 -149z" />
    <glyph glyph-name="dcaron" unicode="&#x10f;" horiz-adv-x="517" 
d="M356 690h101v-690h-96v40c-27 -28 -72 -51 -130 -51c-126 0 -190 90 -190 240c0 147 64 237 191 237c60 0 102 -24 124 -48v272zM575 539h-76l25 151h110zM143 229c0 -83 27 -147 113 -147c49 0 82 20 100 43v205c-17 20 -49 43 -99 43c-87 0 -114 -60 -114 -144z" />
    <glyph glyph-name="dcroat" unicode="&#x111;" horiz-adv-x="518" 
d="M520 600v-73h-63v-527h-96v40c-27 -28 -72 -51 -130 -51c-126 0 -190 90 -190 240c0 147 64 237 191 237c60 0 102 -24 124 -48v109h-96v73h96v90h101v-90h63zM356 125v205c-17 20 -49 43 -99 43c-87 0 -114 -60 -114 -144c0 -83 27 -147 113 -147c49 0 82 20 100 43z
" />
    <glyph glyph-name="eth" unicode="&#xf0;" horiz-adv-x="525" 
d="M425 564c35 -69 56 -154 56 -250c0 -167 -56 -325 -226 -325c-146 0 -216 95 -216 231c0 135 73 227 194 227c79 0 126 -41 150 -84c-1 55 -18 111 -44 163l-77 -34l-27 64l68 29c-28 40 -60 75 -94 105h123c21 -19 41 -41 59 -67l62 27l26 -62zM255 77
c90 0 119 91 121 184c-21 48 -61 91 -125 91c-77 0 -112 -55 -112 -137c0 -74 32 -138 116 -138z" />
    <glyph glyph-name="egrave" unicode="&#xe8;" horiz-adv-x="471" 
d="M226 696l74 -160h-91l-87 160h104zM256 76c39 0 84 14 119 45l48 -66c-32 -35 -95 -66 -167 -66c-153 0 -217 100 -217 239c0 131 68 238 207 238c134 0 187 -97 187 -195c0 -23 -2 -56 -7 -75h-285c2 -73 38 -120 115 -120zM338 270c1 6 1 13 1 17c0 61 -38 97 -93 97
c-72 0 -101 -50 -105 -114h197z" />
    <glyph glyph-name="eacute" unicode="&#xe9;" horiz-adv-x="471" 
d="M376 696l-87 -160h-91l74 160h104zM256 76c39 0 84 14 119 45l48 -66c-32 -35 -95 -66 -167 -66c-153 0 -217 100 -217 239c0 131 68 238 207 238c134 0 187 -97 187 -195c0 -23 -2 -56 -7 -75h-285c2 -73 38 -120 115 -120zM338 270c1 6 1 13 1 17c0 61 -38 97 -93 97
c-72 0 -101 -50 -105 -114h197z" />
    <glyph glyph-name="ecircumflex" unicode="&#xea;" horiz-adv-x="471" 
d="M299 696l101 -160h-91l-60 95l-61 -95h-91l102 160h100zM256 76c39 0 84 14 119 45l48 -66c-32 -35 -95 -66 -167 -66c-153 0 -217 100 -217 239c0 131 68 238 207 238c134 0 187 -97 187 -195c0 -23 -2 -56 -7 -75h-285c2 -73 38 -120 115 -120zM338 270c1 6 1 13 1 17
c0 61 -38 97 -93 97c-72 0 -101 -50 -105 -114h197z" />
    <glyph glyph-name="ecaron" unicode="&#x11b;" horiz-adv-x="471" 
d="M199 536l-102 160h91l61 -95l60 95h91l-101 -160h-100zM256 76c39 0 84 14 119 45l48 -66c-32 -35 -95 -66 -167 -66c-153 0 -217 100 -217 239c0 131 68 238 207 238c134 0 187 -97 187 -195c0 -23 -2 -56 -7 -75h-285c2 -73 38 -120 115 -120zM338 270c1 6 1 13 1 17
c0 61 -38 97 -93 97c-72 0 -101 -50 -105 -114h197z" />
    <glyph glyph-name="edieresis" unicode="&#xeb;" horiz-adv-x="471" 
d="M155 544c-37 0 -64 18 -64 63c0 44 27 64 64 64c32 0 64 -20 64 -64c0 -45 -32 -63 -64 -63zM345 544c-37 0 -65 18 -65 63c0 44 28 64 65 64c32 0 64 -20 64 -64c0 -45 -32 -63 -64 -63zM256 76c39 0 84 14 119 45l48 -66c-32 -35 -95 -66 -167 -66
c-153 0 -217 100 -217 239c0 131 68 238 207 238c134 0 187 -97 187 -195c0 -23 -2 -56 -7 -75h-285c2 -73 38 -120 115 -120zM338 270c1 6 1 13 1 17c0 61 -38 97 -93 97c-72 0 -101 -50 -105 -114h197z" />
    <glyph glyph-name="emacron" unicode="&#x113;" horiz-adv-x="471" 
d="M395 647v-82h-290v82h290zM256 76c39 0 84 14 119 45l48 -66c-32 -35 -95 -66 -167 -66c-153 0 -217 100 -217 239c0 131 68 238 207 238c134 0 187 -97 187 -195c0 -23 -2 -56 -7 -75h-285c2 -73 38 -120 115 -120zM338 270c1 6 1 13 1 17c0 61 -38 97 -93 97
c-72 0 -101 -50 -105 -114h197z" />
    <glyph glyph-name="ebreve" unicode="&#x115;" horiz-adv-x="471" 
d="M395 686c0 -82 -52 -146 -147 -146c-92 0 -144 64 -144 146h66c5 -42 35 -72 78 -72c45 0 74 30 79 72h68zM256 76c39 0 84 14 119 45l48 -66c-32 -35 -95 -66 -167 -66c-153 0 -217 100 -217 239c0 131 68 238 207 238c134 0 187 -97 187 -195c0 -23 -2 -56 -7 -75h-285
c2 -73 38 -120 115 -120zM338 270c1 6 1 13 1 17c0 61 -38 97 -93 97c-72 0 -101 -50 -105 -114h197z" />
    <glyph glyph-name="edotaccent" unicode="&#x117;" horiz-adv-x="471" 
d="M250 544c-37 0 -65 18 -65 63c0 44 28 64 65 64c32 0 64 -20 64 -64c0 -45 -32 -63 -64 -63zM256 76c39 0 84 14 119 45l48 -66c-32 -35 -95 -66 -167 -66c-153 0 -217 100 -217 239c0 131 68 238 207 238c134 0 187 -97 187 -195c0 -23 -2 -56 -7 -75h-285
c2 -73 38 -120 115 -120zM338 270c1 6 1 13 1 17c0 61 -38 97 -93 97c-72 0 -101 -50 -105 -114h197z" />
    <glyph glyph-name="eogonek" unicode="&#x119;" horiz-adv-x="472" 
d="M433 271c0 -23 -2 -56 -7 -75h-285c2 -73 38 -120 115 -120c39 0 84 14 119 45l48 -66l-76 -81c-36 -38 -44 -59 -44 -76c0 -19 14 -34 38 -34c17 0 44 11 65 26v-83c-24 -13 -52 -23 -93 -23c-69 0 -113 35 -113 93c0 34 18 68 63 112h-7c-153 0 -217 100 -217 239
c0 131 68 238 207 238c134 0 187 -97 187 -195zM338 270c1 6 1 13 1 17c0 61 -38 97 -93 97c-72 0 -101 -50 -105 -114h197z" />
    <glyph glyph-name="gcircumflex" unicode="&#x11d;" horiz-adv-x="515" 
d="M314 696l102 -160h-91l-61 95l-60 -95h-91l101 160h100zM454 456v-487c0 -100 -75 -174 -199 -174c-122 0 -184 64 -184 144h89c0 -31 33 -63 95 -63c64 0 98 35 98 88v78c-27 -31 -72 -53 -119 -53c-130 0 -193 90 -193 240c0 149 66 237 193 237c62 0 100 -24 125 -51
v41h95zM142 229c0 -82 25 -147 113 -147c42 0 78 19 98 44v205c-14 18 -46 42 -98 42c-87 0 -113 -60 -113 -144z" />
    <glyph glyph-name="gbreve" unicode="&#x11f;" horiz-adv-x="515" 
d="M410 686c0 -82 -52 -146 -147 -146c-92 0 -144 64 -144 146h67c4 -42 34 -72 77 -72c46 0 74 30 79 72h68zM454 456v-487c0 -100 -75 -174 -199 -174c-122 0 -184 64 -184 144h89c0 -31 33 -63 95 -63c64 0 98 35 98 88v78c-27 -31 -72 -53 -119 -53
c-130 0 -193 90 -193 240c0 149 66 237 193 237c62 0 100 -24 125 -51v41h95zM142 229c0 -82 25 -147 113 -147c42 0 78 19 98 44v205c-14 18 -46 42 -98 42c-87 0 -113 -60 -113 -144z" />
    <glyph glyph-name="gdotaccent" unicode="&#x121;" horiz-adv-x="515" 
d="M264 544c-37 0 -64 18 -64 63c0 44 27 64 64 64c33 0 65 -20 65 -64c0 -45 -32 -63 -65 -63zM454 456v-487c0 -100 -75 -174 -199 -174c-122 0 -184 64 -184 144h89c0 -31 33 -63 95 -63c64 0 98 35 98 88v78c-27 -31 -72 -53 -119 -53c-130 0 -193 90 -193 240
c0 149 66 237 193 237c62 0 100 -24 125 -51v41h95zM142 229c0 -82 25 -147 113 -147c42 0 78 19 98 44v205c-14 18 -46 42 -98 42c-87 0 -113 -60 -113 -144z" />
    <glyph glyph-name="uni0123" unicode="&#x123;" horiz-adv-x="515" 
d="M269 731h78l-25 -181h-113zM454 456v-487c0 -100 -75 -174 -199 -174c-122 0 -184 64 -184 144h89c0 -31 33 -63 95 -63c64 0 98 35 98 88v78c-27 -31 -72 -53 -119 -53c-130 0 -193 90 -193 240c0 149 66 237 193 237c62 0 100 -24 125 -51v41h95zM142 229
c0 -82 25 -147 113 -147c42 0 78 19 98 44v205c-14 18 -46 42 -98 42c-87 0 -113 -60 -113 -144z" />
    <glyph glyph-name="hcircumflex" unicode="&#x125;" horiz-adv-x="518" 
d="M319 891l101 -160h-91l-60 95l-61 -95h-91l102 160h100zM61 690h100v-281c27 29 73 57 143 57c108 0 158 -62 158 -178v-288h-101v278c0 63 -23 95 -93 95c-45 0 -85 -20 -107 -43v-330h-100v690z" />
    <glyph glyph-name="hbar" unicode="&#x127;" horiz-adv-x="519" 
d="M304 466c108 0 158 -62 158 -178v-288h-101v278c0 63 -23 95 -93 95c-45 0 -85 -20 -107 -43v-330h-100v527h-55v73h55v90h100v-90h105v-73h-105v-118c27 29 73 57 143 57z" />
    <glyph glyph-name="dotlessi" unicode="&#x131;" horiz-adv-x="222" 
d="M61 456h100v-456h-100v456z" />
    <glyph glyph-name="igrave" unicode="&#xec;" horiz-adv-x="222" 
d="M88 696l74 -160h-91l-87 160h104zM61 456h100v-456h-100v456z" />
    <glyph glyph-name="iacute" unicode="&#xed;" horiz-adv-x="222" 
d="M237 696l-87 -160h-91l74 160h104zM61 456h100v-456h-100v456z" />
    <glyph glyph-name="ibreve" unicode="&#x12d;" horiz-adv-x="222" 
d="M257 686c0 -82 -52 -146 -147 -146c-92 0 -144 64 -144 146h66c5 -42 35 -72 78 -72c45 0 74 30 79 72h68zM61 456h100v-456h-100v456z" />
    <glyph glyph-name="icircumflex" unicode="&#xee;" horiz-adv-x="222" 
d="M161 696l101 -160h-91l-60 95l-61 -95h-91l102 160h100zM61 456h100v-456h-100v456z" />
    <glyph glyph-name="itilde" unicode="&#x129;" horiz-adv-x="222" 
d="M252 568c-21 15 -44 25 -69 25c-50 0 -89 -40 -148 -40c-30 0 -56 12 -68 23l4 76c16 -17 36 -25 64 -25c51 0 82 40 148 40c35 0 57 -12 73 -23zM61 456h100v-456h-100v456z" />
    <glyph glyph-name="idieresis" unicode="&#xef;" horiz-adv-x="222" 
d="M17 544c-37 0 -64 18 -64 63c0 44 27 64 64 64c32 0 64 -20 64 -64c0 -45 -32 -63 -64 -63zM207 544c-37 0 -65 18 -65 63c0 44 28 64 65 64c32 0 64 -20 64 -64c0 -45 -32 -63 -64 -63zM61 456h100v-456h-100v456z" />
    <glyph glyph-name="imacron" unicode="&#x12b;" horiz-adv-x="222" 
d="M257 647v-82h-290v82h290zM61 456h100v-456h-100v456z" />
    <glyph glyph-name="iogonek" unicode="&#x12f;" horiz-adv-x="224" 
d="M111 554c-37 0 -65 18 -65 63c0 44 28 64 65 64c32 0 64 -20 64 -64c0 -45 -32 -63 -64 -63zM91 -54c-20 -16 -32 -31 -32 -48c0 -19 14 -34 38 -34c17 0 45 11 66 26v-83c-24 -13 -53 -23 -93 -23c-70 0 -113 35 -113 93c0 40 20 70 58 101l47 38v440h100v-456h1z" />
    <glyph glyph-name="uni0237" unicode="&#x237;" horiz-adv-x="223" 
d="M-21 -160c60 34 82 73 82 138v478h101v-459c0 -107 -38 -179 -126 -223z" />
    <glyph glyph-name="jcircumflex" unicode="&#x135;" horiz-adv-x="224" 
d="M163 696l101 -160h-91l-61 95l-60 -95h-91l101 160h101zM-21 -160c61 34 83 73 83 138v478h101v-459c0 -107 -38 -179 -126 -223z" />
    <glyph glyph-name="uni0137" unicode="&#x137;" horiz-adv-x="483" 
d="M358 0l-131 213l-66 -64v-149h-100v690h100v-422l191 188h124l-178 -173l173 -283h-113zM251 -216h-76l25 151h110z" />
    <glyph glyph-name="kgreenlandic" unicode="&#x138;" horiz-adv-x="482" 
d="M357 0l-130 213l-66 -64v-149h-100v456h100v-188l190 188h125l-179 -173l174 -283h-114z" />
    <glyph glyph-name="lacute" unicode="&#x13a;" horiz-adv-x="244" 
d="M248 990l-87 -160h-91l74 160h104zM158 690v-551c0 -35 10 -50 42 -50h24v-93h-54c-86 0 -112 53 -112 129v565h100z" />
    <glyph glyph-name="lcaron" unicode="&#x13e;" horiz-adv-x="244" 
d="M158 690v-551c0 -35 10 -50 42 -50h24v-93h-54c-86 0 -112 53 -112 129v565h100zM287 539h-77l26 151h109z" />
    <glyph glyph-name="uni013C" unicode="&#x13c;" horiz-adv-x="244" 
d="M158 690v-551c0 -35 10 -50 42 -50h24v-93h-54c-86 0 -112 53 -112 129v565h100zM143 -216h-77l26 151h110z" />
    <glyph glyph-name="lslash" unicode="&#x142;" horiz-adv-x="268" 
d="M247 372l-68 -30v-203c0 -35 10 -50 42 -50h24v-93h-54c-86 0 -112 53 -112 129v172l-58 -26v80l58 26v313h100v-268l68 30v-80z" />
    <glyph glyph-name="ldot" unicode="&#x140;" horiz-adv-x="386" 
d="M158 690v-551c0 -35 10 -50 42 -50h24v-93h-54c-86 0 -112 53 -112 129v565h100zM302 297c-44 0 -75 31 -75 71c0 42 31 73 75 73c42 0 73 -31 73 -73c0 -40 -31 -71 -73 -71z" />
    <glyph glyph-name="nacute" unicode="&#x144;" horiz-adv-x="518" 
d="M386 696l-87 -160h-91l74 160h104zM61 456h97v-53c26 36 76 63 145 63c108 0 158 -62 158 -178v-288h-100v278c0 63 -24 95 -94 95c-44 0 -85 -20 -106 -43v-330h-100v456z" />
    <glyph glyph-name="ncaron" unicode="&#x148;" horiz-adv-x="518" 
d="M209 536l-102 160h91l61 -95l60 95h91l-101 -160h-100zM61 456h97v-53c26 36 76 63 145 63c108 0 158 -62 158 -178v-288h-100v278c0 63 -24 95 -94 95c-44 0 -85 -20 -106 -43v-330h-100v456z" />
    <glyph glyph-name="ntilde" unicode="&#xf1;" horiz-adv-x="518" 
d="M400 568c-21 15 -44 25 -69 25c-50 0 -89 -40 -148 -40c-30 0 -56 12 -68 23l4 76c16 -17 36 -25 64 -25c51 0 82 40 148 40c35 0 57 -12 73 -23zM61 456h97v-53c26 36 76 63 145 63c108 0 158 -62 158 -178v-288h-100v278c0 63 -24 95 -94 95c-44 0 -85 -20 -106 -43
v-330h-100v456z" />
    <glyph glyph-name="uni0146" unicode="&#x146;" horiz-adv-x="518" 
d="M61 456h97v-53c26 36 76 63 145 63c108 0 158 -62 158 -178v-288h-100v278c0 63 -24 95 -94 95c-44 0 -85 -20 -106 -43v-330h-100v456zM258 -216h-76l25 151h110z" />
    <glyph glyph-name="napostrophe" unicode="&#x149;" horiz-adv-x="518" 
d="M45 546h-76l25 151h110zM61 456h97v-53c26 36 76 63 145 63c108 0 158 -62 158 -178v-288h-100v278c0 63 -24 95 -94 95c-44 0 -85 -20 -106 -43v-330h-100v456z" />
    <glyph glyph-name="ograve" unicode="&#xf2;" horiz-adv-x="500" 
d="M227 696l74 -160h-91l-87 160h104zM251 466c144 0 209 -101 209 -237c0 -139 -64 -240 -213 -240c-141 0 -208 102 -208 238c0 138 65 239 212 239zM249 80c76 0 109 56 109 147c0 94 -33 148 -109 148c-75 0 -107 -54 -107 -146c0 -95 33 -149 107 -149z" />
    <glyph glyph-name="oacute" unicode="&#xf3;" horiz-adv-x="500" 
d="M376 696l-87 -160h-91l74 160h104zM251 466c144 0 209 -101 209 -237c0 -139 -64 -240 -213 -240c-141 0 -208 102 -208 238c0 138 65 239 212 239zM249 80c76 0 109 56 109 147c0 94 -33 148 -109 148c-75 0 -107 -54 -107 -146c0 -95 33 -149 107 -149z" />
    <glyph glyph-name="ocircumflex" unicode="&#xf4;" horiz-adv-x="500" 
d="M300 696l101 -160h-91l-60 95l-61 -95h-91l102 160h100zM251 466c144 0 209 -101 209 -237c0 -139 -64 -240 -213 -240c-141 0 -208 102 -208 238c0 138 65 239 212 239zM249 80c76 0 109 56 109 147c0 94 -33 148 -109 148c-75 0 -107 -54 -107 -146
c0 -95 33 -149 107 -149z" />
    <glyph glyph-name="otilde" unicode="&#xf5;" horiz-adv-x="500" 
d="M391 568c-21 15 -44 25 -69 25c-50 0 -89 -40 -148 -40c-30 0 -56 12 -68 23l4 76c16 -17 36 -25 64 -25c51 0 82 40 148 40c35 0 57 -12 73 -23zM251 466c144 0 209 -101 209 -237c0 -139 -64 -240 -213 -240c-141 0 -208 102 -208 238c0 138 65 239 212 239zM249 80
c76 0 109 56 109 147c0 94 -33 148 -109 148c-75 0 -107 -54 -107 -146c0 -95 33 -149 107 -149z" />
    <glyph glyph-name="odieresis" unicode="&#xf6;" horiz-adv-x="500" 
d="M155 544c-37 0 -64 18 -64 63c0 44 27 64 64 64c32 0 64 -20 64 -64c0 -45 -32 -63 -64 -63zM345 544c-37 0 -65 18 -65 63c0 44 28 64 65 64c32 0 64 -20 64 -64c0 -45 -32 -63 -64 -63zM251 466c144 0 209 -101 209 -237c0 -139 -64 -240 -213 -240
c-141 0 -208 102 -208 238c0 138 65 239 212 239zM249 80c76 0 109 56 109 147c0 94 -33 148 -109 148c-75 0 -107 -54 -107 -146c0 -95 33 -149 107 -149z" />
    <glyph glyph-name="omacron" unicode="&#x14d;" horiz-adv-x="500" 
d="M396 647v-82h-290v82h290zM251 466c144 0 209 -101 209 -237c0 -139 -64 -240 -213 -240c-141 0 -208 102 -208 238c0 138 65 239 212 239zM249 80c76 0 109 56 109 147c0 94 -33 148 -109 148c-75 0 -107 -54 -107 -146c0 -95 33 -149 107 -149z" />
    <glyph glyph-name="obreve" unicode="&#x14f;" horiz-adv-x="500" 
d="M396 686c0 -82 -52 -146 -147 -146c-92 0 -144 64 -144 146h66c5 -42 35 -72 78 -72c45 0 74 30 79 72h68zM251 466c144 0 209 -101 209 -237c0 -139 -64 -240 -213 -240c-141 0 -208 102 -208 238c0 138 65 239 212 239zM249 80c76 0 109 56 109 147
c0 94 -33 148 -109 148c-75 0 -107 -54 -107 -146c0 -95 33 -149 107 -149z" />
    <glyph glyph-name="ohungarumlaut" unicode="&#x151;" horiz-adv-x="500" 
d="M288 696l-87 -160h-91l74 160h104zM458 696l-87 -160h-91l74 160h104zM251 466c144 0 209 -101 209 -237c0 -139 -64 -240 -213 -240c-141 0 -208 102 -208 238c0 138 65 239 212 239zM249 80c76 0 109 56 109 147c0 94 -33 148 -109 148c-75 0 -107 -54 -107 -146
c0 -95 33 -149 107 -149z" />
    <glyph glyph-name="oslash" unicode="&#xf8;" horiz-adv-x="500" 
d="M467 456l-51 -66c30 -42 44 -97 44 -161c0 -139 -64 -240 -213 -240c-47 0 -86 11 -116 31l-16 -20h-78l48 63c-31 42 -46 99 -46 164c0 138 65 239 212 239c48 0 88 -11 119 -31l16 21h81zM142 229c0 -30 3 -57 10 -78l159 207c-16 11 -37 17 -62 17
c-75 0 -107 -54 -107 -146zM358 227c0 29 -3 54 -10 75l-158 -205c15 -11 35 -17 59 -17c76 0 109 56 109 147z" />
    <glyph glyph-name="oslashacute" unicode="&#x1ff;" horiz-adv-x="500" 
d="M376 696l-87 -160h-91l74 160h104zM467 456l-51 -66c30 -42 44 -97 44 -161c0 -139 -64 -240 -213 -240c-47 0 -86 11 -116 31l-16 -20h-78l48 63c-31 42 -46 99 -46 164c0 138 65 239 212 239c48 0 88 -11 119 -31l16 21h81zM142 229c0 -30 3 -57 10 -78l159 207
c-16 11 -37 17 -62 17c-75 0 -107 -54 -107 -146zM358 227c0 29 -3 54 -10 75l-158 -205c15 -11 35 -17 59 -17c76 0 109 56 109 147z" />
    <glyph glyph-name="oe" unicode="&#x153;" horiz-adv-x="796" 
d="M581 76c39 0 84 14 119 45l48 -66c-33 -35 -95 -66 -167 -66c-83 0 -137 30 -169 81c-32 -50 -85 -81 -165 -81c-141 0 -208 102 -208 238c0 138 65 239 212 239c79 0 131 -32 162 -82c32 50 83 82 157 82c134 0 188 -97 188 -195c0 -23 -3 -56 -7 -75h-285
c2 -73 37 -120 115 -120zM663 270c1 6 1 13 1 17c0 61 -38 97 -94 97c-71 0 -100 -50 -104 -114h197zM249 80c76 0 109 56 109 147c0 94 -33 148 -109 148c-75 0 -107 -54 -107 -146c0 -95 33 -149 107 -149z" />
    <glyph glyph-name="racute" unicode="&#x155;" horiz-adv-x="350" 
d="M302 696l-87 -160h-91l74 160h104zM158 382c24 44 59 84 125 84c19 0 38 -2 54 -6l-9 -107c-20 6 -47 9 -68 9c-47 0 -80 -29 -99 -70v-292h-100v456h96v-74h1z" />
    <glyph glyph-name="rcaron" unicode="&#x159;" horiz-adv-x="350" 
d="M125 536l-102 160h91l61 -95l60 95h91l-101 -160h-100zM158 382c24 44 59 84 125 84c19 0 38 -2 54 -6l-9 -107c-20 6 -47 9 -68 9c-47 0 -80 -29 -99 -70v-292h-100v456h96v-74h1z" />
    <glyph glyph-name="uni0157" unicode="&#x157;" horiz-adv-x="350" 
d="M158 382c24 44 59 84 125 84c19 0 38 -2 54 -6l-9 -107c-20 6 -47 9 -68 9c-47 0 -80 -29 -99 -70v-292h-100v456h96v-74h1zM108 -216h-77l26 151h110z" />
    <glyph glyph-name="sacute" unicode="&#x15b;" horiz-adv-x="433" 
d="M343 696l-87 -160h-91l74 160h104zM332 340c-25 28 -63 49 -112 49c-53 0 -75 -26 -75 -57c0 -25 13 -44 49 -52l77 -18c87 -20 128 -65 128 -131c0 -74 -53 -142 -190 -142c-97 0 -152 42 -180 77l59 61c25 -29 60 -61 124 -61c50 0 85 19 85 57c0 27 -21 43 -58 52
l-79 20c-77 19 -116 65 -116 128c0 66 48 143 179 143c87 0 138 -34 167 -66z" />
    <glyph glyph-name="scircumflex" unicode="&#x15d;" horiz-adv-x="433" 
d="M267 696l101 -160h-91l-60 95l-61 -95h-91l102 160h100zM332 340c-25 28 -63 49 -112 49c-53 0 -75 -26 -75 -57c0 -25 13 -44 49 -52l77 -18c87 -20 128 -65 128 -131c0 -74 -53 -142 -190 -142c-97 0 -152 42 -180 77l59 61c25 -29 60 -61 124 -61c50 0 85 19 85 57
c0 27 -21 43 -58 52l-79 20c-77 19 -116 65 -116 128c0 66 48 143 179 143c87 0 138 -34 167 -66z" />
    <glyph glyph-name="scaron" unicode="&#x161;" horiz-adv-x="433" 
d="M167 536l-102 160h91l61 -95l60 95h91l-101 -160h-100zM332 340c-25 28 -63 49 -112 49c-53 0 -75 -26 -75 -57c0 -25 13 -44 49 -52l77 -18c87 -20 128 -65 128 -131c0 -74 -53 -142 -190 -142c-97 0 -152 42 -180 77l59 61c25 -29 60 -61 124 -61c50 0 85 19 85 57
c0 27 -21 43 -58 52l-79 20c-77 19 -116 65 -116 128c0 66 48 143 179 143c87 0 138 -34 167 -66z" />
    <glyph glyph-name="scedilla" unicode="&#x15f;" horiz-adv-x="433" 
d="M399 131c0 -67 -44 -130 -156 -140l-16 -41c52 0 94 -21 94 -81c0 -50 -42 -85 -109 -85c-37 0 -67 10 -92 23v66c23 -17 56 -30 85 -30c24 0 36 11 36 26c0 21 -17 28 -48 28h-40l-5 6l31 87c-79 8 -125 45 -150 76l59 61c25 -29 60 -61 124 -61c50 0 85 19 85 57
c0 27 -21 43 -58 52l-79 20c-77 19 -116 65 -116 128c0 66 48 143 179 143c87 0 138 -34 167 -66l-58 -60c-25 28 -63 49 -112 49c-53 0 -75 -26 -75 -57c0 -25 13 -44 49 -52l77 -18c87 -20 128 -65 128 -131z" />
    <glyph glyph-name="uni0219" unicode="&#x219;" horiz-adv-x="433" 
d="M332 340c-25 28 -63 49 -112 49c-53 0 -75 -26 -75 -57c0 -25 13 -44 49 -52l77 -18c87 -20 128 -65 128 -131c0 -74 -53 -142 -190 -142c-97 0 -152 42 -180 77l59 61c25 -29 60 -61 124 -61c50 0 85 19 85 57c0 27 -21 43 -58 52l-79 20c-77 19 -116 65 -116 128
c0 66 48 143 179 143c87 0 138 -34 167 -66zM223 -216h-77l26 151h109z" />
    <glyph glyph-name="germandbls" unicode="&#xdf;" horiz-adv-x="554" 
d="M61 486c0 130 59 214 190 214c136 0 193 -82 193 -170c0 -84 -82 -137 -82 -174c0 -22 22 -39 45 -55l36 -25c56 -38 86 -79 86 -142c0 -85 -65 -145 -167 -145c-48 0 -84 10 -122 29l30 80c23 -14 49 -27 81 -27c49 0 75 29 75 63c0 30 -12 53 -51 79l-41 28
c-46 33 -75 55 -75 104c0 65 82 107 82 176c0 58 -35 90 -93 90c-76 0 -90 -50 -90 -120v-491h-97v486z" />
    <glyph glyph-name="tcaron" unicode="&#x165;" horiz-adv-x="345" 
d="M378 539h-77l26 151h110zM203 141c0 -38 18 -59 55 -59c18 0 41 5 59 12l5 -88c-23 -9 -61 -17 -95 -17c-89 0 -125 57 -125 139v242h-84v76l84 10v113l101 16v-129h112v-86h-112v-229z" />
    <glyph glyph-name="uni021B" unicode="&#x21b;" horiz-adv-x="345" 
d="M203 141c0 -38 18 -59 55 -59c18 0 41 5 59 12l5 -88c-23 -9 -61 -17 -95 -17c-89 0 -125 57 -125 139v242h-84v76l84 10v113l101 16v-129h112v-86h-112v-229zM201 -216h-77l26 151h110z" />
    <glyph glyph-name="tbar" unicode="&#x167;" horiz-adv-x="349" 
d="M317 94l5 -88c-23 -9 -61 -17 -95 -17c-89 0 -125 57 -125 139v80h-65v74h65v88h-84v76l84 10v113l101 16v-129h112v-86h-112v-88h93v-74h-93v-67c0 -38 18 -59 55 -59c18 0 41 5 59 12z" />
    <glyph glyph-name="thorn" unicode="&#xfe;" horiz-adv-x="520" 
d="M161 -216h-100v891h100v-257c27 28 69 48 127 48c126 0 192 -90 192 -240c0 -147 -65 -237 -193 -237c-60 0 -103 24 -126 48v-253zM377 226c0 83 -27 147 -114 147c-50 0 -84 -20 -102 -43v-205c18 -20 50 -43 101 -43c88 0 115 60 115 144z" />
    <glyph glyph-name="ugrave" unicode="&#xf9;" horiz-adv-x="518" 
d="M243 696l74 -160h-91l-87 160h104zM457 0h-97v53c-26 -36 -76 -63 -145 -63c-108 0 -158 62 -158 178v288h100v-278c0 -63 24 -95 94 -95c44 0 85 20 106 43v330h100v-456z" />
    <glyph glyph-name="uacute" unicode="&#xfa;" horiz-adv-x="518" 
d="M386 696l-87 -160h-92l74 160h105zM457 0h-97v53c-26 -36 -76 -63 -145 -63c-108 0 -158 62 -158 178v288h100v-278c0 -63 24 -95 94 -95c44 0 85 20 106 43v330h100v-456z" />
    <glyph glyph-name="ucircumflex" unicode="&#xfb;" horiz-adv-x="518" 
d="M305 696l102 -160h-91l-61 95l-60 -95h-91l101 160h100zM457 0h-97v53c-26 -36 -76 -63 -145 -63c-108 0 -158 62 -158 178v288h100v-278c0 -63 24 -95 94 -95c44 0 85 20 106 43v330h100v-456z" />
    <glyph glyph-name="utilde" unicode="&#x169;" horiz-adv-x="518" 
d="M400 568c-21 15 -44 25 -69 25c-50 0 -89 -40 -148 -40c-30 0 -56 12 -68 23l4 76c16 -17 36 -25 64 -25c51 0 82 40 148 40c35 0 57 -12 73 -23zM457 0h-97v53c-26 -36 -76 -63 -145 -63c-108 0 -158 62 -158 178v288h100v-278c0 -63 24 -95 94 -95c44 0 85 20 106 43
v330h100v-456z" />
    <glyph glyph-name="udieresis" unicode="&#xfc;" horiz-adv-x="518" 
d="M163 544c-37 0 -64 18 -64 63c0 44 27 64 64 64c33 0 64 -20 64 -64c0 -45 -31 -63 -64 -63zM353 544c-37 0 -64 18 -64 63c0 44 27 64 64 64c33 0 64 -20 64 -64c0 -45 -31 -63 -64 -63zM457 0h-97v53c-26 -36 -76 -63 -145 -63c-108 0 -158 62 -158 178v288h100v-278
c0 -63 24 -95 94 -95c44 0 85 20 106 43v330h100v-456z" />
    <glyph glyph-name="umacron" unicode="&#x16b;" horiz-adv-x="518" 
d="M405 647v-82h-290v82h290zM457 0h-97v53c-26 -36 -76 -63 -145 -63c-108 0 -158 62 -158 178v288h100v-278c0 -63 24 -95 94 -95c44 0 85 20 106 43v330h100v-456z" />
    <glyph glyph-name="ubreve" unicode="&#x16d;" horiz-adv-x="518" 
d="M404 686c0 -82 -52 -146 -147 -146c-92 0 -144 64 -144 146h67c4 -42 34 -72 77 -72c46 0 74 30 79 72h68zM457 0h-97v53c-26 -36 -76 -63 -145 -63c-108 0 -158 62 -158 178v288h100v-278c0 -63 24 -95 94 -95c44 0 85 20 106 43v330h100v-456z" />
    <glyph glyph-name="uring" unicode="&#x16f;" horiz-adv-x="518" 
d="M149 621c0 53 37 98 106 98c71 0 108 -45 108 -98c0 -50 -37 -97 -108 -97c-69 0 -106 47 -106 97zM209 621c0 -24 16 -44 46 -44c31 0 47 20 47 44s-16 44 -47 44c-30 0 -46 -20 -46 -44zM457 0h-97v53c-26 -36 -76 -63 -145 -63c-108 0 -158 62 -158 178v288h100v-278
c0 -63 24 -95 94 -95c44 0 85 20 106 43v330h100v-456z" />
    <glyph glyph-name="uhungarumlaut" unicode="&#x171;" horiz-adv-x="518" 
d="M297 696l-87 -160h-92l75 160h104zM466 696l-87 -160h-91l74 160h104zM457 0h-97v53c-26 -36 -76 -63 -145 -63c-108 0 -158 62 -158 178v288h100v-278c0 -63 24 -95 94 -95c44 0 85 20 106 43v330h100v-456z" />
    <glyph glyph-name="uogonek" unicode="&#x173;" horiz-adv-x="518" 
d="M386 -54c-20 -16 -32 -31 -32 -48c0 -19 14 -34 38 -34c17 0 44 11 65 26v-83c-24 -13 -52 -23 -93 -23c-69 0 -113 35 -113 93c0 40 21 70 59 101l50 41v34c-26 -36 -76 -63 -145 -63c-108 0 -158 62 -158 178v288h100v-278c0 -63 24 -95 94 -95c44 0 85 20 106 43v330
h100v-456z" />
    <glyph glyph-name="wacute" unicode="&#x1e83;" horiz-adv-x="763" 
d="M508 696l-87 -160h-91l74 160h104zM430 456l107 -348l103 348h105l-144 -456h-111l-109 328l-108 -328h-111l-145 456h105l104 -348l107 348h97z" />
    <glyph glyph-name="wcircumflex" unicode="&#x175;" horiz-adv-x="763" 
d="M431 696l101 -160h-91l-60 95l-61 -95h-91l102 160h100zM430 456l107 -348l103 348h105l-144 -456h-111l-109 328l-108 -328h-111l-145 456h105l104 -348l107 348h97z" />
    <glyph glyph-name="wdieresis" unicode="&#x1e85;" horiz-adv-x="763" 
d="M287 544c-37 0 -64 18 -64 63c0 44 27 64 64 64c32 0 64 -20 64 -64c0 -45 -32 -63 -64 -63zM477 544c-37 0 -65 18 -65 63c0 44 28 64 65 64c32 0 64 -20 64 -64c0 -45 -32 -63 -64 -63zM430 456l107 -348l103 348h105l-144 -456h-111l-109 328l-108 -328h-111l-145 456
h105l104 -348l107 348h97z" />
    <glyph glyph-name="wgrave" unicode="&#x1e81;" horiz-adv-x="763" 
d="M358 696l74 -160h-91l-87 160h104zM430 456l107 -348l103 348h105l-144 -456h-111l-109 328l-108 -328h-111l-145 456h105l104 -348l107 348h97z" />
    <glyph glyph-name="yacute" unicode="&#xfd;" horiz-adv-x="485" 
d="M369 696l-87 -160h-91l74 160h104zM249 141l116 315h109l-273 -672h-103l101 240l-190 432h114z" />
    <glyph glyph-name="ycircumflex" unicode="&#x177;" horiz-adv-x="485" 
d="M293 696l101 -160h-91l-60 95l-61 -95h-91l102 160h100zM249 141l116 315h109l-273 -672h-103l101 240l-190 432h114z" />
    <glyph glyph-name="ydieresis" unicode="&#xff;" horiz-adv-x="485" 
d="M148 544c-37 0 -64 18 -64 63c0 44 27 64 64 64c32 0 64 -20 64 -64c0 -45 -32 -63 -64 -63zM338 544c-37 0 -65 18 -65 63c0 44 28 64 65 64c32 0 64 -20 64 -64c0 -45 -32 -63 -64 -63zM249 141l116 315h109l-273 -672h-103l101 240l-190 432h114z" />
    <glyph glyph-name="ygrave" unicode="&#x1ef3;" horiz-adv-x="485" 
d="M219 696l74 -160h-91l-87 160h104zM249 141l116 315h109l-273 -672h-103l101 240l-190 432h114z" />
    <glyph glyph-name="zacute" unicode="&#x17a;" horiz-adv-x="414" 
d="M334 696l-87 -160h-91l74 160h104zM374 388l-212 -302h213v-86h-340v68l214 302h-204v86h329v-68z" />
    <glyph glyph-name="zcaron" unicode="&#x17e;" horiz-adv-x="414" 
d="M157 536l-102 160h91l61 -95l60 95h91l-101 -160h-100zM374 388l-212 -302h213v-86h-340v68l214 302h-204v86h329v-68z" />
    <glyph glyph-name="zdotaccent" unicode="&#x17c;" horiz-adv-x="414" 
d="M208 544c-37 0 -65 18 -65 63c0 44 28 64 65 64c32 0 64 -20 64 -64c0 -45 -32 -63 -64 -63zM374 388l-212 -302h213v-86h-340v68l214 302h-204v86h329v-68z" />
    <glyph glyph-name="IJ" unicode="&#x132;" horiz-adv-x="743" 
d="M74 676h109v-676h-109v676zM354 148c22 -42 50 -64 102 -64c73 0 114 40 114 150v442h103v-447c0 -162 -83 -239 -217 -239c-91 0 -150 45 -180 107z" />
    <glyph glyph-name="ij" unicode="&#x133;" horiz-adv-x="448" 
d="M111 554c-37 0 -65 18 -65 63c0 44 28 64 65 64c32 0 64 -20 64 -64c0 -45 -32 -63 -64 -63zM335 554c-37 0 -65 18 -65 63c0 44 28 64 65 64c33 0 65 -20 65 -64c0 -45 -32 -63 -65 -63zM62 456h100v-456h-100v456zM203 -160c61 34 83 73 83 138v478h101v-459
c0 -107 -38 -179 -126 -223z" />
    <glyph glyph-name="acute" unicode="&#xb4;" horiz-adv-x="600" 
d="M388 696l-87 -160h-91l74 160h104z" />
    <glyph glyph-name="circumflex" unicode="&#x2c6;" horiz-adv-x="600" 
d="M350 696l101 -160h-91l-60 95l-61 -95h-91l102 160h100z" />
    <glyph glyph-name="caron" unicode="&#x2c7;" horiz-adv-x="600" 
d="M250 536l-102 160h91l61 -95l60 95h91l-101 -160h-100z" />
    <glyph glyph-name="tilde" unicode="&#x2dc;" horiz-adv-x="600" 
d="M440 568c-21 15 -44 25 -69 25c-50 0 -89 -40 -148 -40c-30 0 -56 12 -68 23l4 76c16 -17 36 -25 64 -25c51 0 82 40 148 40c35 0 57 -12 73 -23z" />
    <glyph glyph-name="dieresis" unicode="&#xa8;" horiz-adv-x="600" 
d="M205 544c-37 0 -64 18 -64 63c0 44 27 64 64 64c32 0 64 -20 64 -64c0 -45 -32 -63 -64 -63zM395 544c-37 0 -65 18 -65 63c0 44 28 64 65 64c32 0 64 -20 64 -64c0 -45 -32 -63 -64 -63z" />
    <glyph glyph-name="macron" unicode="&#xaf;" horiz-adv-x="600" 
d="M445 647v-82h-290v82h290z" />
    <glyph glyph-name="breve" unicode="&#x2d8;" horiz-adv-x="600" 
d="M445 686c0 -82 -52 -146 -147 -146c-92 0 -144 64 -144 146h66c5 -42 35 -72 78 -72c45 0 74 30 79 72h68z" />
    <glyph glyph-name="ring" unicode="&#x2da;" horiz-adv-x="600" 
d="M193 621c0 53 37 98 105 98c71 0 108 -45 108 -98c0 -50 -37 -97 -108 -97c-68 0 -105 47 -105 97zM252 621c0 -24 17 -44 46 -44c31 0 47 20 47 44s-16 44 -47 44c-29 0 -46 -20 -46 -44z" />
    <glyph glyph-name="hungarumlaut" unicode="&#x2dd;" horiz-adv-x="600" 
d="M304 696l-87 -160h-91l74 160h104zM474 696l-87 -160h-91l74 160h104z" />
    <glyph glyph-name="dotaccent" unicode="&#x2d9;" horiz-adv-x="600" 
d="M300 544c-37 0 -65 18 -65 63c0 44 28 64 65 64c32 0 64 -20 64 -64c0 -45 -32 -63 -64 -63z" />
    <glyph glyph-name="cedilla" unicode="&#xb8;" horiz-adv-x="600" 
d="M336 0l-20 -50c51 0 94 -21 94 -81c0 -50 -42 -85 -109 -85c-37 0 -67 10 -92 23v66c23 -17 56 -30 84 -30c25 0 37 11 37 26c0 21 -18 28 -49 28h-39l-5 6l36 104z" />
    <glyph glyph-name="ogonek" unicode="&#x2db;" horiz-adv-x="600" 
d="M334 -54c-20 -16 -32 -31 -32 -48c0 -19 14 -34 38 -34c17 0 44 11 65 26v-83c-24 -13 -52 -23 -93 -23c-69 0 -113 35 -113 93c0 40 21 70 59 101l53 43l94 -21z" />
    <glyph glyph-name="uniF6C3" unicode="&#xf6c3;" horiz-adv-x="0" 
d="M-291 -216h-77l26 151h109z" />
    <glyph glyph-name="ellipsis" unicode="&#x2026;" horiz-adv-x="652" 
d="M116 -6c-41 0 -70 28 -70 67s29 68 70 68c40 0 70 -29 70 -68s-30 -67 -70 -67zM329 -6c-40 0 -70 28 -70 67s30 68 70 68c41 0 71 -29 71 -68s-30 -67 -71 -67zM536 -6c-40 0 -70 28 -70 67s30 68 70 68s70 -29 70 -68s-30 -67 -70 -67z" />
    <glyph glyph-name="uni00AD" unicode="&#xad;" horiz-adv-x="389" 
d="M331 313v-86h-273v86h273z" />
    <glyph glyph-name="exclamdown" unicode="&#xa1;" horiz-adv-x="231" 
d="M115 466c40 0 70 -29 70 -67c0 -39 -30 -68 -70 -68s-70 29 -70 68c0 38 30 67 70 67zM158 241l18 -457h-122l20 457h84z" />
    <glyph glyph-name="questiondown" unicode="&#xbf;" horiz-adv-x="443" 
d="M236 466c41 0 70 -28 70 -67s-29 -68 -70 -68s-71 29 -71 68s30 67 71 67zM232 -226c-129 0 -201 77 -201 173c0 140 153 171 153 294h103c0 -153 -153 -192 -153 -291c0 -44 31 -83 92 -83c58 0 90 34 90 77l99 -9c0 -87 -56 -161 -183 -161z" />
    <glyph glyph-name="quoteleft" unicode="&#x2018;" horiz-adv-x="222" 
d="M100 676h77l-25 -240h-110z" />
    <glyph glyph-name="quoteright" unicode="&#x2019;" horiz-adv-x="216" 
d="M126 436h-76l25 240h111z" />
    <glyph glyph-name="quotedblleft" unicode="&#x201c;" horiz-adv-x="379" 
d="M100 676h77l-25 -240h-110zM257 676h77l-25 -240h-110z" />
    <glyph glyph-name="quotedblright" unicode="&#x201d;" horiz-adv-x="373" 
d="M126 436h-76l25 240h111zM283 436h-76l25 240h111z" />
    <glyph glyph-name="quotesinglbase" unicode="&#x201a;" horiz-adv-x="228" 
d="M117 -110h-77l25 240h111z" />
    <glyph glyph-name="quotedblbase" unicode="&#x201e;" horiz-adv-x="385" 
d="M116 -111h-76l25 240h110zM273 -111h-76l25 240h110z" />
    <glyph glyph-name="guilsinglleft" unicode="&#x2039;" horiz-adv-x="320" 
d="M214 493l64 -46l-133 -178l134 -177l-65 -45l-190 223z" />
    <glyph glyph-name="guilsinglright" unicode="&#x203a;" horiz-adv-x="320" 
d="M106 47l-65 45l134 177l-133 178l64 46l190 -223z" />
    <glyph glyph-name="guillemotleft" unicode="&#xab;" horiz-adv-x="525" 
d="M214 493l64 -46l-133 -178l134 -177l-65 -45l-190 223zM419 493l64 -46l-133 -178l134 -177l-65 -45l-190 223z" />
    <glyph glyph-name="guillemotright" unicode="&#xbb;" horiz-adv-x="525" 
d="M106 47l-65 45l134 177l-133 178l64 46l190 -223zM311 47l-65 45l134 177l-133 178l64 46l190 -223z" />
    <glyph glyph-name="endash" unicode="&#x2013;" horiz-adv-x="590" 
d="M532 313v-86h-474v86h474z" />
    <glyph glyph-name="emdash" unicode="&#x2014;" horiz-adv-x="730" 
d="M672 313v-86h-614v86h614z" />
    <glyph glyph-name="bullet" unicode="&#x2022;" horiz-adv-x="392" 
d="M196 149c-73 0 -126 51 -126 120c0 70 53 121 126 121s126 -51 126 -121c0 -69 -53 -120 -126 -120z" />
    <glyph glyph-name="periodcentered" unicode="&#xb7;" horiz-adv-x="250" 
d="M126 201c-44 0 -75 31 -75 71c0 42 31 73 75 73c41 0 73 -31 73 -73c0 -40 -32 -71 -73 -71z" />
    <glyph glyph-name="uni2219" unicode="&#x2219;" horiz-adv-x="250" 
d="M126 201c-44 0 -75 31 -75 71c0 42 31 73 75 73c41 0 73 -31 73 -73c0 -40 -32 -71 -73 -71z" />
    <glyph glyph-name="dagger" unicode="&#x2020;" horiz-adv-x="422" 
d="M177 303v387h69v-387h149v-66h-149v-453h-69v453h-149v66h149z" />
    <glyph glyph-name="daggerdbl" unicode="&#x2021;" horiz-adv-x="469" 
d="M200 449v241h69v-241h149v-66h-149v-288h149v-66h-149v-245h-69v245h-149v66h149v288h-149v66h149z" />
    <glyph glyph-name="section" unicode="&#xa7;" horiz-adv-x="556" 
d="M506 273c0 -43 -22 -88 -67 -120c42 -26 65 -60 65 -109c0 -83 -69 -158 -230 -158c-111 0 -193 39 -234 97l60 64c36 -44 89 -80 179 -80c68 0 116 19 116 63c0 38 -52 57 -93 72l-100 36c-90 33 -143 78 -143 153c0 45 21 91 65 124c-41 26 -64 62 -64 110
c0 73 67 161 222 161c96 0 171 -29 219 -90l-65 -64c-42 49 -96 71 -162 71c-59 0 -106 -27 -106 -64c0 -38 40 -55 101 -76l82 -29c101 -34 155 -81 155 -161zM204 379c-25 -16 -41 -43 -41 -68c0 -41 34 -64 101 -88l94 -34c22 15 43 39 43 67c0 46 -38 70 -99 90z" />
    <glyph glyph-name="paragraph" unicode="&#xb6;" horiz-adv-x="518" 
d="M315 456v-481h-90v180c-135 0 -195 48 -195 149c0 92 53 152 173 152h112zM291 -163c55 31 79 66 79 132v487h91v-468c0 -88 -18 -167 -116 -215z" />
    <glyph glyph-name="brokenbar" unicode="&#xa6;" horiz-adv-x="202" 
d="M66 306v384h70v-384h-70zM136 170v-386h-70v386h70z" />
    <glyph glyph-name="copyright" unicode="&#xa9;" horiz-adv-x="820" 
d="M45 335c0 216 157 365 365 365c210 0 365 -149 365 -365c0 -212 -155 -365 -365 -365c-208 0 -365 153 -365 365zM123 335c0 -175 120 -290 287 -290c168 0 287 115 287 290c0 177 -119 290 -287 290c-167 0 -287 -113 -287 -290zM308 334c0 -76 32 -123 102 -123
c45 0 75 21 96 50l58 -57c-36 -42 -83 -71 -158 -71c-106 0 -187 75 -187 202c0 125 83 200 187 200c77 0 121 -33 156 -69l-57 -55c-26 25 -49 46 -94 46c-68 0 -103 -48 -103 -123z" />
    <glyph glyph-name="uni2117" unicode="&#x2117;" horiz-adv-x="820" 
d="M45 335c0 216 157 365 365 365c210 0 365 -149 365 -365c0 -212 -155 -365 -365 -365c-208 0 -365 153 -365 365zM123 335c0 -175 120 -290 287 -290c168 0 287 115 287 290c0 177 -119 290 -287 290c-167 0 -287 -113 -287 -290zM432 530c105 0 153 -52 153 -127
c0 -74 -48 -123 -153 -123h-76v-143h-76v393h152zM506 405c0 32 -16 63 -72 63h-78v-125h78c56 0 72 28 72 62z" />
    <glyph glyph-name="registered" unicode="&#xae;" horiz-adv-x="820" 
d="M45 335c0 216 157 365 365 365c210 0 365 -149 365 -365c0 -212 -155 -365 -365 -365c-208 0 -365 153 -365 365zM123 335c0 -175 120 -290 287 -290c168 0 287 115 287 290c0 177 -119 290 -287 290c-167 0 -287 -113 -287 -290zM261 531h149c107 0 152 -41 152 -114
c0 -55 -37 -96 -100 -109l109 -172h-84l-100 163h-51v-163h-75v395zM488 415c0 27 -18 57 -74 57h-78v-114h73c59 0 79 31 79 57z" />
    <glyph glyph-name="trademark" unicode="&#x2122;" horiz-adv-x="634" 
d="M253 607v-41h-78v-196h-52v196h-76v41h206zM478 607h71l25 -237h-50l-15 181l-50 -181h-57l-46 179l-18 -179h-50l26 237h73l45 -181z" />
    <glyph glyph-name="currency" unicode="&#xa4;" horiz-adv-x="548" 
d="M421 351c7 -21 12 -49 12 -77c0 -29 -4 -55 -12 -78l81 -83l-70 -70l-79 78c-21 -10 -50 -17 -81 -17c-32 0 -61 7 -82 18l-74 -74l-66 65l76 79c-9 23 -13 51 -13 81c0 27 4 52 12 74l-79 83l70 68l75 -76c22 13 51 19 83 19c34 0 64 -7 85 -20l74 75l66 -65zM273 195
c51 0 73 30 73 78c0 49 -22 78 -73 78s-72 -29 -72 -77c0 -49 21 -79 72 -79z" />
    <glyph glyph-name="Euro" unicode="&#x20ac;" horiz-adv-x="572" 
d="M94 437c22 152 101 249 261 249c69 0 122 -16 175 -41l-34 -90c-39 20 -86 36 -143 36c-92 0 -135 -62 -150 -154h251l-25 -69h-233v-28c0 -14 0 -27 1 -39h209l-25 -68h-174c19 -88 67 -149 153 -149c42 0 94 11 144 43l27 -93c-51 -28 -109 -45 -176 -45
c-152 0 -236 88 -260 244h-56v68h48v39v28h-48v69h55z" />
    <glyph glyph-name="cent" unicode="&#xa2;" horiz-adv-x="475" 
d="M260 79c46 0 77 22 98 58l71 -51c-32 -64 -95 -97 -176 -97c-9 0 -18 0 -27 1l-15 -61l-55 13l15 61c-88 33 -125 121 -125 225c0 130 60 238 207 238c10 0 20 0 29 -1l18 75l56 -13l-18 -76c40 -15 71 -43 91 -82l-71 -51c-11 19 -25 34 -42 45l-69 -283
c5 -1 9 -1 13 -1zM148 228c0 -57 13 -103 46 -129l67 278h-1c-81 0 -112 -63 -112 -149z" />
    <glyph glyph-name="sterling" unicode="&#xa3;" horiz-adv-x="562" 
d="M100 332v111c0 130 57 243 217 243c99 0 162 -40 212 -97l-67 -69c-42 49 -84 70 -141 70c-85 0 -117 -61 -117 -147v-111h180v-68h-180v-178h281v-86h-385v264h-64v68h64z" />
    <glyph glyph-name="florin" unicode="&#x192;" horiz-adv-x="354" 
d="M219 -73c0 -81 -42 -153 -139 -153c-33 0 -62 5 -76 10v89c18 -5 39 -8 54 -8c49 0 63 29 63 79v424h-92v88h92v91c0 81 41 153 144 153c28 0 57 -5 70 -10v-89c-17 5 -36 8 -54 8c-46 0 -62 -26 -62 -78v-75h101v-88h-101v-441z" />
    <glyph glyph-name="yen" unicode="&#xa5;" horiz-adv-x="598" 
d="M228 302l-35 67h-126v68h89l-127 239h118l150 -305l153 305h119l-130 -239h91v-68h-129l-36 -67h165v-69h-182v-233h-104v233h-177v69h161z" />
    <glyph glyph-name="uni20A8" unicode="&#x20a8;" horiz-adv-x="546" 
d="M505 677v-69h-123c26 -25 41 -61 44 -99h79v-69h-80c-10 -79 -70 -137 -158 -153l175 -287h-124l-163 276h-103v84h105c99 0 142 25 158 80h-263v69h264c-15 56 -52 81 -148 81h-116v86z" />
    <glyph glyph-name="ordfeminine" unicode="&#xaa;" horiz-adv-x="354" 
d="M227 350v32c-20 -21 -50 -39 -94 -39c-57 0 -89 31 -89 81c0 61 55 90 142 96l38 3v21c0 25 -14 40 -51 40c-36 0 -49 -11 -49 -27v-13h-64c-1 7 -1 13 -1 21c0 43 43 74 117 74s119 -30 119 -95v-194h-68zM116 429c0 -23 16 -32 39 -32c28 0 52 11 69 30v53l-36 -6
c-46 -6 -72 -19 -72 -45z" />
    <glyph glyph-name="ordmasculine" unicode="&#xba;" horiz-adv-x="358" 
d="M180 639c97 0 137 -64 137 -147c0 -86 -40 -149 -139 -149c-96 0 -137 64 -137 148s41 148 139 148zM179 405c45 0 64 34 64 86c0 54 -19 86 -64 86s-64 -33 -64 -84c0 -55 19 -88 64 -88z" />
    <glyph glyph-name="uni00B9" unicode="&#xb9;" horiz-adv-x="245" 
d="M121 429v289l-99 -36l-18 56l127 49h66v-358h-76z" />
    <glyph glyph-name="uni00B2" unicode="&#xb2;" horiz-adv-x="317" 
d="M155 793c77 0 127 -46 127 -110c0 -49 -37 -90 -79 -131l-68 -63h150v-59h-251v50l119 116c32 30 51 57 51 87c0 29 -17 50 -49 50c-37 0 -52 -22 -52 -57h-75c0 70 41 117 127 117z" />
    <glyph glyph-name="uni00B3" unicode="&#xb3;" horiz-adv-x="330" 
d="M225 611c40 -9 72 -41 72 -86c0 -60 -54 -102 -137 -102c-92 0 -133 43 -133 101h76c0 -25 21 -40 57 -40c34 0 59 17 59 45c0 32 -24 52 -72 52h-37v59h37c41 0 66 16 66 48c0 27 -20 44 -53 44c-34 0 -52 -17 -52 -39h-77c0 55 40 99 129 99c81 0 132 -41 132 -100
c0 -40 -29 -72 -67 -81z" />
    <glyph glyph-name="fraction" unicode="&#x2044;" horiz-adv-x="184" 
d="M-69 0h-82l402 676h85z" />
    <glyph glyph-name="uni2215" unicode="&#x2215;" horiz-adv-x="184" 
d="M-69 0h-82l402 676h85z" />
    <glyph glyph-name="onehalf" unicode="&#xbd;" horiz-adv-x="762" 
d="M205 0h-82l402 676h85zM146 318v289l-99 -36l-18 56l127 48h66v-357h-76zM589 363c77 0 127 -46 127 -110c0 -49 -37 -90 -80 -131l-67 -63h150v-59h-252v50l119 116c32 30 52 57 52 87c0 29 -18 50 -49 50c-37 0 -52 -22 -52 -57h-76c0 70 41 117 128 117z" />
    <glyph glyph-name="uni2153" unicode="&#x2153;" horiz-adv-x="773" 
d="M206 0h-83l403 676h85zM146 318v289l-99 -36l-18 56l128 48h66v-357h-77zM660 182c40 -9 72 -41 72 -86c0 -60 -54 -102 -137 -102c-93 0 -133 43 -133 101h75c0 -25 22 -40 58 -40c34 0 59 17 59 45c0 32 -25 52 -72 52h-37v59h37c41 0 66 16 66 48c0 27 -20 44 -53 44
c-34 0 -52 -17 -52 -39h-77c0 55 39 99 129 99c81 0 132 -41 132 -100c0 -40 -29 -72 -67 -81z" />
    <glyph glyph-name="onequarter" unicode="&#xbc;" horiz-adv-x="728" 
d="M205 0h-82l402 676h85zM146 318v289l-99 -36l-18 56l127 48h66v-357h-76zM690 69h-45v-69h-75v69h-179v52l175 237h79v-230h45v-59zM570 128v134l-100 -134h100z" />
    <glyph glyph-name="oneeighth" unicode="&#x215b;" horiz-adv-x="781" 
d="M206 0h-83l403 676h85zM146 318v289l-99 -36l-18 56l128 48h66v-357h-77zM598 -6c-86 0 -143 37 -143 104c0 46 29 74 69 86c-37 12 -62 38 -62 78c0 63 51 101 136 101s135 -38 135 -101c0 -40 -24 -66 -61 -78c38 -12 69 -39 69 -86c0 -67 -57 -104 -143 -104zM598 303
c-35 0 -57 -16 -57 -45c0 -31 24 -46 57 -46c32 0 57 15 57 46c0 29 -22 45 -57 45zM598 154c-38 0 -65 -20 -65 -51s29 -48 66 -48c34 0 63 17 63 48s-25 51 -64 51z" />
    <glyph glyph-name="uni2154" unicode="&#x2154;" horiz-adv-x="817" 
d="M169 681c77 0 127 -46 127 -110c0 -50 -37 -91 -80 -131l-67 -63h150v-59h-252v50l119 115c32 30 52 57 52 88c0 29 -18 49 -49 49c-37 0 -52 -22 -52 -57h-76c0 70 41 118 128 118zM253 0h-82l402 676h85zM708 182c39 -9 72 -41 72 -86c0 -60 -55 -102 -138 -102
c-92 0 -133 43 -133 101h76c0 -25 22 -40 57 -40s60 17 60 45c0 32 -25 52 -73 52h-37v59h37c42 0 67 16 67 48c0 27 -21 44 -54 44s-52 -17 -52 -39h-76c0 55 39 99 128 99c82 0 132 -41 132 -100c0 -40 -28 -72 -66 -81z" />
    <glyph glyph-name="threequarters" unicode="&#xbe;" horiz-adv-x="760" 
d="M238 500c39 -9 72 -41 72 -86c0 -61 -55 -102 -138 -102c-92 0 -133 42 -133 101h76c0 -25 22 -40 57 -40s60 16 60 45c0 32 -25 52 -73 52h-37v59h37c42 0 67 16 67 47c0 27 -21 44 -54 44s-52 -16 -52 -39h-76c0 55 39 100 128 100c82 0 132 -42 132 -101
c0 -40 -28 -71 -66 -80zM241 0h-83l403 676h85zM726 69h-45v-69h-76v69h-178v52l174 237h80v-230h45v-59zM605 128v134l-99 -134h99z" />
    <glyph glyph-name="threeeighths" unicode="&#x215c;" horiz-adv-x="813" 
d="M238 500c39 -9 72 -41 72 -86c0 -61 -55 -102 -138 -102c-92 0 -133 42 -133 101h76c0 -25 22 -40 57 -40s60 16 60 45c0 32 -25 52 -73 52h-37v59h37c42 0 67 16 67 47c0 27 -21 44 -54 44s-52 -16 -52 -39h-76c0 55 39 100 128 100c82 0 132 -42 132 -101
c0 -40 -28 -71 -66 -80zM241 0h-82l402 676h85zM633 -6c-85 0 -142 37 -142 104c0 46 29 74 68 86c-37 12 -61 38 -61 78c0 63 51 101 136 101s134 -38 134 -101c0 -40 -24 -66 -61 -78c39 -12 69 -39 69 -86c0 -67 -56 -104 -143 -104zM633 303c-34 0 -57 -16 -57 -45
c0 -31 25 -46 57 -46s57 15 57 46c0 29 -22 45 -57 45zM633 154c-38 0 -65 -20 -65 -51s30 -48 66 -48c35 0 63 17 63 48s-25 51 -64 51z" />
    <glyph glyph-name="fiveeighths" unicode="&#x215d;" horiz-adv-x="803" 
d="M230 0h-82l402 676h85zM304 433c0 -70 -48 -121 -138 -121c-92 0 -132 44 -132 103h76c0 -26 20 -42 56 -42c40 0 60 25 60 60c0 31 -22 55 -60 55c-22 0 -41 -7 -54 -17l-61 9l26 195h211v-59h-150l-11 -79c13 6 33 12 55 12c63 0 122 -33 122 -116zM622 -6
c-86 0 -143 37 -143 104c0 46 30 74 69 86c-37 12 -62 38 -62 78c0 63 52 101 136 101c86 0 135 -38 135 -101c0 -40 -24 -66 -61 -78c39 -12 69 -39 69 -86c0 -67 -57 -104 -143 -104zM622 303c-34 0 -57 -16 -57 -45c0 -31 25 -46 57 -46s57 15 57 46c0 29 -22 45 -57 45z
M622 154c-38 0 -65 -20 -65 -51s30 -48 66 -48c35 0 63 17 63 48s-25 51 -64 51z" />
    <glyph glyph-name="seveneighths" unicode="&#x215e;" horiz-adv-x="733" 
d="M161 0h-83l403 676h85zM207 616h-170v59h256v-51l-144 -306h-82zM553 -6c-86 0 -143 37 -143 104c0 46 29 74 69 86c-37 12 -62 38 -62 78c0 63 51 101 136 101s135 -38 135 -101c0 -40 -24 -66 -61 -78c38 -12 69 -39 69 -86c0 -67 -57 -104 -143 -104zM553 303
c-35 0 -57 -16 -57 -45c0 -31 24 -46 57 -46c32 0 57 15 57 46c0 29 -22 45 -57 45zM553 154c-38 0 -65 -20 -65 -51s29 -48 66 -48c34 0 63 17 63 48s-25 51 -64 51z" />
    <glyph glyph-name="perthousand" unicode="&#x2030;" horiz-adv-x="1147" 
d="M180 681c107 0 150 -73 150 -185c0 -111 -44 -184 -150 -184c-107 0 -150 73 -150 184c0 112 44 185 150 185zM245 0h-82l403 676h84zM180 373c53 0 71 42 71 123c0 83 -18 124 -71 124s-71 -41 -71 -124c0 -81 18 -123 71 -123zM633 363c107 0 150 -73 150 -184
s-44 -185 -150 -185c-107 0 -150 74 -150 185s45 184 150 184zM968 363c107 0 149 -73 149 -184s-43 -185 -149 -185c-107 0 -150 74 -150 185s44 184 150 184zM633 55c54 0 72 42 72 124s-18 124 -72 124c-53 0 -71 -42 -71 -124s18 -124 71 -124zM968 55
c53 0 71 42 71 124s-18 124 -71 124s-72 -42 -72 -124s19 -124 72 -124z" />
    <glyph glyph-name="minus" unicode="&#x2212;" 
d="M41 314h477v-87h-477v87z" />
    <glyph glyph-name="plusminus" unicode="&#xb1;" 
d="M41 449h189v197h96v-197h192v-86h-192v-160h-96v160h-189v86zM41 116h477v-86h-477v86z" />
    <glyph glyph-name="multiply" unicode="&#xd7;" 
d="M59 112l155 155l-159 159l66 68l160 -160l157 157l64 -63l-158 -157l160 -160l-67 -67l-159 160l-156 -156z" />
    <glyph glyph-name="divide" unicode="&#xf7;" 
d="M282 385c-41 0 -70 28 -70 67c0 40 29 68 70 68c40 0 70 -28 70 -68c0 -39 -30 -67 -70 -67zM41 313h477v-86h-477v86zM282 19c-41 0 -70 29 -70 68s29 67 70 67c40 0 70 -28 70 -67s-30 -68 -70 -68z" />
    <glyph glyph-name="notequal" unicode="&#x2260;" 
d="M75 110v86h159l37 148h-196v87h216l27 109l55 -13l-24 -96h137v-87h-158l-37 -148h195v-86h-216l-28 -116l-54 12l26 104h-139z" />
    <glyph glyph-name="approxequal" unicode="&#x2248;" 
d="M490 349c-26 -28 -58 -47 -104 -47c-82 0 -146 65 -213 65c-41 0 -71 -29 -91 -41l-10 81c28 27 70 47 109 47c73 0 137 -66 209 -66c35 0 71 29 89 43zM489 134c-26 -27 -58 -47 -104 -47c-81 0 -143 66 -211 66c-40 0 -73 -28 -92 -40l-11 82c28 26 70 44 109 44
c74 0 140 -66 210 -66c35 0 70 29 88 43z" />
    <glyph glyph-name="lessequal" unicode="&#x2264;" 
d="M70 456l411 162v-93l-324 -121l324 -120v-93l-411 163v102zM71 111h409v-84h-409v84z" />
    <glyph glyph-name="greaterequal" unicode="&#x2265;" 
d="M494 354l-411 -163v93l324 120l-324 121v93l411 -162v-102zM72 111h409v-84h-409v84z" />
    <glyph glyph-name="logicalnot" unicode="&#xac;" 
d="M35 396h477v-277h-96v190h-381v87z" />
    <glyph glyph-name="uni0394" unicode="&#x394;" horiz-adv-x="655" 
d="M394 676l257 -676h-646l258 676h131zM328 574l-179 -484h359z" />
    <glyph glyph-name="uni03A9" unicode="&#x3a9;" horiz-adv-x="659" 
d="M497 90h122v-90h-253v87c74 49 134 145 134 279c0 129 -49 227 -172 227c-120 0 -169 -98 -169 -227c0 -134 60 -230 134 -279v-87h-253v90h122c-61 50 -115 152 -115 283c0 161 79 314 281 314c206 0 284 -153 284 -314c0 -131 -55 -233 -115 -283z" />
    <glyph glyph-name="uni03BC" unicode="&#x3bc;" horiz-adv-x="520" 
d="M485 89c6 0 13 1 19 2v-90c-16 -3 -31 -5 -49 -5c-50 0 -79 21 -93 56c-26 -36 -75 -62 -137 -62c-24 0 -45 3 -64 9v-215h-100v672h100v-278c0 -63 23 -95 89 -95c39 0 82 22 101 44v329h100v-317c0 -32 7 -50 34 -50z" />
    <glyph glyph-name="pi" unicode="&#x3c0;" horiz-adv-x="524" 
d="M12 370v86h496v-86h-68v-227c0 -36 6 -55 38 -55c7 0 14 1 21 2v-90c-18 -3 -35 -5 -53 -5c-80 0 -106 50 -106 134v241h-161v-370h-100v370h-67z" />
    <glyph glyph-name="degree" unicode="&#xb0;" horiz-adv-x="349" 
d="M38 546c0 75 48 140 135 140c89 0 139 -65 139 -140c0 -73 -50 -138 -139 -138c-87 0 -135 65 -135 138zM99 546c0 -42 26 -79 74 -79c50 0 76 37 76 79c0 43 -26 81 -76 81c-48 0 -74 -38 -74 -81z" />
    <glyph glyph-name="estimated" unicode="&#x212e;" horiz-adv-x="737" 
d="M191 338v-230c49 -49 109 -74 183 -74c105 0 182 45 245 152l45 -27c-78 -121 -157 -171 -290 -171c-199 0 -327 154 -327 350c0 197 128 350 327 350c195 0 327 -145 328 -350h-511zM560 384v184c-54 50 -116 75 -187 75c-73 0 -133 -26 -182 -75v-184h369z" />
    <glyph glyph-name="eng" unicode="&#x14b;" horiz-adv-x="517" 
d="M60 456h97v-53c26 36 76 63 146 63c108 0 158 -62 158 -178v-291c0 -107 -38 -179 -126 -223l-57 66c60 34 82 73 82 138v300c0 63 -23 95 -93 95c-45 0 -85 -20 -107 -43v-330h-100v456z" />
    <glyph glyph-name="Eng" unicode="&#x14a;" horiz-adv-x="678" 
d="M416 -155c60 32 80 68 80 133v14l-314 511l1 -503h-110v676h116l307 -498v498h108v-679c0 -107 -39 -179 -126 -223z" />
    <glyph glyph-name="infinity" unicode="&#x221e;" horiz-adv-x="724" 
d="M678 265c0 -93 -64 -159 -152 -159c-70 0 -123 42 -162 100c-42 -55 -91 -99 -165 -99c-84 0 -152 62 -152 155c0 91 65 157 150 157c75 0 124 -45 167 -103c37 56 87 105 161 105c86 0 153 -63 153 -156zM314 261c-26 39 -66 84 -107 84c-47 0 -81 -36 -81 -83
c0 -50 35 -80 81 -80c44 0 82 42 107 79zM598 263c0 49 -32 82 -80 82c-44 0 -79 -46 -104 -84c29 -40 61 -78 104 -78c49 0 80 33 80 80z" />
    <glyph glyph-name="partialdiff" unicode="&#x2202;" horiz-adv-x="525" 
d="M332 690c85 -76 149 -210 149 -376c0 -167 -56 -325 -226 -325c-146 0 -216 95 -216 231c0 135 73 227 194 227c79 0 126 -41 150 -84c-2 121 -81 246 -174 327h123zM255 77c90 0 119 91 121 184c-21 48 -61 91 -125 91c-77 0 -113 -55 -113 -137c0 -74 33 -138 117 -138
z" />
    <glyph glyph-name="integral" unicode="&#x222b;" horiz-adv-x="369" 
d="M233 -73c0 -81 -41 -153 -154 -153c-17 0 -47 5 -60 10v85c18 -1 39 -4 62 -4c41 0 55 26 55 69v619c0 81 42 153 154 153c18 0 47 -5 60 -10v-85c-18 1 -39 4 -61 4c-41 0 -56 -26 -56 -69v-619z" />
    <glyph glyph-name="radical" unicode="&#x221a;" horiz-adv-x="617" 
d="M364 -216h-110l-141 326l-71 -33l-32 72l162 72l128 -314l206 789h102z" />
    <glyph glyph-name="summation" unicode="&#x2211;" horiz-adv-x="588" 
d="M549 -217h-510v105l251 350l-251 333v105h508v-86h-406l264 -351l-264 -370h408v-86z" />
    <glyph glyph-name="product" unicode="&#x220f;" horiz-adv-x="746" 
d="M709 676v-86h-66v-806h-103v807h-332v-807h-104v806h-67v86h672z" />
    <glyph glyph-name="lozenge" unicode="&#x25ca;" horiz-adv-x="607" 
d="M350 0h-94l-231 353l231 343h94l231 -343zM304 599l-166 -246l166 -256l163 256z" />
    <glyph glyph-name="uniF8FF" unicode="&#xf8ff;" horiz-adv-x="588" 
d="M87 656h413v-656h-413v656zM462 39v578h-337v-578h337z" />
    <glyph glyph-name="exclam.sc" horiz-adv-x="230" 
d="M75 169l-16 338h112l-17 -338h-79zM115 -4c-36 0 -63 24 -63 56c0 33 27 57 63 57c35 0 62 -24 62 -57c0 -32 -27 -56 -62 -56z" />
    <glyph glyph-name="numbersign.sc" horiz-adv-x="539" 
d="M35 129l13 81h81l15 95h-79l12 80h80l20 122h90l-22 -122h86l21 122h90l-20 -122h82l-12 -80h-84l-15 -95h82l-12 -81h-84l-22 -129h-90l22 129h-84l-22 -129h-91l23 129h-80zM218 210h85l16 95h-86z" />
    <glyph glyph-name="dollar.sc" horiz-adv-x="465" 
d="M424 147c0 -90 -67 -145 -165 -154v-70h-46v69c-110 5 -158 54 -179 93l70 55c18 -32 46 -59 109 -63v136l-28 7c-94 28 -129 78 -129 141c0 72 46 142 157 153v55h46v-54c84 -4 133 -38 159 -75l-69 -55c-18 24 -49 41 -90 45v-135l32 -9c95 -28 133 -75 133 -139z
M158 366c0 -28 16 -47 55 -59v122c-37 -8 -55 -32 -55 -63zM259 78c43 6 64 27 64 61c0 32 -23 50 -64 62v-123z" />
    <glyph glyph-name="percent.sc" horiz-adv-x="694" 
d="M159 512c90 0 125 -57 125 -142s-36 -141 -125 -141c-90 0 -125 56 -125 141s36 142 125 142zM221 0h-75l325 507h76zM159 282c41 0 53 29 53 88c0 60 -12 88 -53 88c-40 0 -54 -28 -54 -88c0 -59 14 -88 54 -88zM536 278c90 0 125 -56 125 -141s-36 -142 -125 -142
c-90 0 -125 57 -125 142s36 141 125 141zM536 49c41 0 53 28 53 88c0 59 -12 88 -53 88c-40 0 -54 -29 -54 -88c0 -60 14 -88 54 -88z" />
    <glyph glyph-name="ampersand.sc" horiz-adv-x="547" 
d="M414 117l112 -111v-6h-105l-60 60c-41 -38 -93 -68 -168 -68c-96 0 -153 51 -153 122c0 70 62 114 112 147l5 4l-9 9c-25 25 -68 64 -68 115c0 69 58 126 158 126c92 0 153 -57 153 -126c0 -51 -40 -89 -100 -132l-11 -7l75 -74c4 4 7 9 11 13l67 83l67 -48l-70 -87
c-5 -6 -10 -13 -16 -20zM214 316l9 -9l16 10c39 26 64 45 64 72s-24 50 -66 50c-43 0 -68 -22 -68 -50c0 -27 19 -49 45 -73zM198 68c41 0 75 20 106 50l-89 89l-14 -9c-36 -25 -72 -46 -72 -80c0 -27 27 -50 69 -50z" />
    <glyph glyph-name="section.sc" horiz-adv-x="472" 
d="M423 209c0 -30 -15 -64 -50 -88c33 -20 49 -45 49 -81c0 -63 -53 -125 -191 -125c-89 0 -154 27 -187 71l49 57c30 -31 77 -57 144 -57c51 0 83 12 83 40c0 22 -30 33 -70 46l-77 24c-77 25 -119 61 -119 119c0 31 14 66 49 91c-32 20 -49 47 -49 82c0 56 54 127 185 127
c84 0 136 -23 174 -64l-54 -59c-31 32 -77 49 -129 49c-42 0 -75 -15 -75 -39c0 -22 28 -33 74 -48l67 -21c84 -26 127 -64 127 -124zM176 275c-16 -10 -26 -26 -26 -41c0 -30 28 -45 82 -61l68 -21c12 8 27 23 27 40c0 34 -31 50 -76 62z" />
    <glyph glyph-name="paragraph.sc" horiz-adv-x="462" 
d="M278 342v-349h-83v118c-108 0 -156 40 -156 114c0 71 45 117 145 117h94zM257 -115c42 26 63 52 63 94v363h83v-345c0 -63 -14 -126 -94 -167z" />
    <glyph glyph-name="parenleft.sc" horiz-adv-x="264" 
d="M163 -167c-74 99 -119 207 -119 348c0 146 49 245 119 347l71 -27c-54 -100 -92 -208 -92 -320c0 -118 29 -212 90 -321z" />
    <glyph glyph-name="slash.sc" horiz-adv-x="316" 
d="M289 498l-168 -498h-92v10l164 497h96v-9z" />
    <glyph glyph-name="parenright.sc" horiz-adv-x="264" 
d="M32 -140c61 109 90 203 90 321c0 112 -38 220 -91 320l71 27c69 -102 118 -201 118 -347c0 -141 -46 -249 -118 -348z" />
    <glyph glyph-name="bracketleft.sc" horiz-adv-x="294" 
d="M257 522v-77h-98v-530h98v-77h-196v684h196z" />
    <glyph glyph-name="backslash.sc" horiz-adv-x="322" 
d="M28 507h95l171 -497v-10h-93l-173 498v9z" />
    <glyph glyph-name="bracketright.sc" horiz-adv-x="294" 
d="M233 522v-684h-195v77h98v530h-98v77h195z" />
    <glyph glyph-name="braceleft.sc" horiz-adv-x="289" 
d="M198 266c0 -65 -33 -84 -68 -88c35 -4 68 -26 68 -87v-141c0 -34 15 -43 47 -43v-69c-98 0 -144 26 -144 106v138c0 45 -28 61 -76 61v69c49 0 76 15 76 64v135c0 78 46 107 144 107v-69c-31 0 -47 -10 -47 -44v-139z" />
    <glyph glyph-name="bar.sc" horiz-adv-x="180" 
d="M61 -162v684h58v-684h-58z" />
    <glyph glyph-name="braceright.sc" horiz-adv-x="289" 
d="M43 -162v69c32 0 47 9 47 43v141c0 61 33 83 68 87c-35 4 -68 23 -68 88v139c0 34 -15 44 -47 44v69c99 0 144 -29 144 -107v-135c0 -49 27 -64 76 -64v-69c-48 0 -76 -16 -76 -61v-138c0 -80 -46 -106 -144 -106z" />
    <glyph glyph-name="zero.sc" horiz-adv-x="508" 
d="M254 515c148 0 207 -103 207 -261c0 -159 -61 -262 -207 -262c-147 0 -207 103 -207 262c0 158 62 261 207 261zM254 73c78 0 106 62 106 181c0 118 -28 180 -106 180c-77 0 -105 -62 -105 -180c0 -119 28 -181 105 -181z" />
    <glyph glyph-name="one.sc" horiz-adv-x="347" 
d="M178 0v415l-141 -51l-24 74l179 69h85v-507h-99z" />
    <glyph glyph-name="two.sc" horiz-adv-x="447" 
d="M218 515c108 0 176 -64 176 -154c0 -71 -50 -129 -109 -186l-102 -96h218v-79h-350v67l167 166c47 44 75 83 75 128c0 42 -25 73 -75 73c-52 0 -76 -33 -76 -83h-99c0 97 58 164 175 164z" />
    <glyph glyph-name="three.sc" horiz-adv-x="467" 
d="M316 259c55 -12 103 -58 103 -123c0 -86 -76 -144 -190 -144c-129 0 -185 60 -185 142h99c0 -38 32 -61 86 -61c53 0 89 26 89 69c0 47 -38 77 -107 77h-51v79h51c61 0 98 23 98 70c0 40 -30 66 -80 66c-51 0 -79 -25 -79 -59h-99c0 77 54 140 178 140
c112 0 182 -59 182 -142c0 -58 -42 -103 -95 -114z" />
    <glyph glyph-name="four.sc" horiz-adv-x="485" 
d="M446 100h-66v-100h-98v100h-252v70l246 337h104v-328h66v-79zM282 179v200l-149 -200h149z" />
    <glyph glyph-name="five.sc" horiz-adv-x="452" 
d="M410 163c0 -96 -66 -171 -192 -171c-127 0 -182 63 -182 145h98c0 -39 30 -64 84 -64c62 0 90 37 90 91c0 48 -31 81 -88 81c-34 0 -62 -11 -81 -25l-78 13l34 274h293v-79h-212l-17 -119c17 8 47 18 81 18c90 0 170 -47 170 -164z" />
    <glyph glyph-name="six.sc" horiz-adv-x="481" 
d="M328 375c0 36 -29 59 -77 59c-72 0 -103 -63 -103 -152c21 20 65 43 123 43c103 0 167 -63 167 -161c0 -93 -63 -172 -193 -172c-140 0 -199 105 -199 244c0 162 60 279 205 279c122 0 175 -63 175 -140h-98zM149 195c0 -67 30 -122 96 -122c61 0 91 35 91 89
c0 52 -31 86 -91 86c-47 0 -80 -27 -96 -53z" />
    <glyph glyph-name="seven.sc" horiz-adv-x="408" 
d="M273 428h-242v79h353v-68l-201 -439h-106z" />
    <glyph glyph-name="eight.sc" horiz-adv-x="489" 
d="M244 -8c-118 0 -198 52 -198 147c0 67 47 107 102 122c-52 15 -91 53 -91 110c0 89 71 144 188 144c116 0 186 -55 186 -144c0 -57 -38 -95 -90 -110c54 -15 101 -55 101 -122c0 -95 -79 -147 -198 -147zM244 434c-52 0 -85 -24 -85 -67c0 -46 37 -68 85 -68s85 22 85 68
c0 43 -33 67 -85 67zM244 73c59 0 96 26 96 73c0 50 -42 75 -96 75s-96 -25 -96 -75c0 -47 38 -73 96 -73z" />
    <glyph glyph-name="nine.sc" horiz-adv-x="482" 
d="M155 132c0 -36 28 -59 75 -59c74 0 104 64 104 152c-20 -19 -65 -44 -123 -44c-103 0 -167 64 -167 162c0 93 64 172 194 172c139 0 198 -106 198 -244c0 -162 -59 -279 -206 -279c-121 0 -174 63 -174 140h99zM333 311c0 68 -30 123 -95 123c-62 0 -92 -35 -92 -89
c0 -52 31 -86 92 -86c46 0 79 27 95 52z" />
    <glyph glyph-name="question.sc" horiz-adv-x="383" 
d="M183 515c107 0 166 -60 166 -135c0 -103 -122 -126 -122 -211h-95c0 113 123 141 123 207c0 30 -23 55 -65 55c-45 0 -67 -23 -67 -48l-90 9c0 65 44 123 150 123zM180 -4c-37 0 -62 24 -62 56c0 33 25 57 62 57c36 0 62 -24 62 -57c0 -32 -26 -56 -62 -56z" />
    <glyph glyph-name="a.sc" horiz-adv-x="523" 
d="M362 115h-202l-41 -115h-108l192 507h117l192 -507h-108zM186 195h151l-75 211z" />
    <glyph glyph-name="b.sc" horiz-adv-x="504" 
d="M69 507h187c128 0 179 -54 179 -133c0 -56 -30 -91 -79 -107c56 -11 107 -51 107 -123c0 -106 -80 -144 -204 -144h-190v507zM243 302c65 0 87 24 87 63c0 37 -22 62 -88 62h-71v-125h72zM255 80c75 0 103 25 103 71c0 42 -27 70 -103 70h-84v-141h84z" />
    <glyph glyph-name="c.sc" horiz-adv-x="501" 
d="M149 253c0 -111 41 -177 135 -177c49 0 86 28 105 60l77 -48c-33 -57 -95 -96 -185 -96c-158 0 -237 98 -237 262s79 261 237 261c90 0 152 -39 185 -96l-77 -48c-19 32 -56 60 -105 60c-94 0 -135 -66 -135 -178z" />
    <glyph glyph-name="d.sc" horiz-adv-x="553" 
d="M69 507h170c186 0 269 -77 269 -253s-84 -254 -269 -254h-170v507zM233 80c127 0 170 44 170 174c0 126 -43 173 -170 173h-62v-347h62z" />
    <glyph glyph-name="e.sc" horiz-adv-x="468" 
d="M423 80v-80h-354v507h351v-80h-249v-131h215v-81h-215v-135h252z" />
    <glyph glyph-name="f.sc" horiz-adv-x="446" 
d="M69 507h339v-80h-237v-145h200v-81h-200v-201h-102v507z" />
    <glyph glyph-name="g.sc" horiz-adv-x="544" 
d="M286 276h218c2 -17 4 -40 4 -49c0 -127 -64 -235 -223 -235c-154 0 -241 90 -241 262c0 174 87 261 253 261c84 0 149 -35 181 -92l-76 -49c-23 34 -55 57 -110 57c-101 0 -144 -60 -144 -177c0 -127 44 -179 137 -179c86 0 120 54 120 120h-119v81z" />
    <glyph glyph-name="h.sc" horiz-adv-x="578" 
d="M408 507h101v-507h-101v222h-237v-222h-102v507h102v-204h237v204z" />
    <glyph glyph-name="i.sc" horiz-adv-x="241" 
d="M69 507h102v-507h-102v507z" />
    <glyph glyph-name="j.sc" horiz-adv-x="413" 
d="M92 121c15 -27 36 -45 77 -45c55 0 83 27 83 98v333h96v-340c0 -115 -67 -175 -179 -175c-76 0 -125 36 -149 84z" />
    <glyph glyph-name="k.sc" horiz-adv-x="523" 
d="M171 160v-160h-102v507h102v-222l215 222h121l-197 -209l196 -298h-118l-147 227z" />
    <glyph glyph-name="l.sc" horiz-adv-x="412" 
d="M390 80v-80h-321v507h102v-427h219z" />
    <glyph glyph-name="m.sc" horiz-adv-x="715" 
d="M478 507h134l60 -507h-95l-42 392l-123 -392h-111l-116 389l-48 -389h-96l67 507h135l115 -386z" />
    <glyph glyph-name="n.sc" horiz-adv-x="577" 
d="M407 507h100v-507h-103l-233 350l1 -350h-103v507h108l230 -345v345z" />
    <glyph glyph-name="o.sc" horiz-adv-x="552" 
d="M508 253c0 -149 -66 -261 -233 -261s-231 112 -231 261s63 262 233 262c168 0 231 -114 231 -262zM149 253c0 -105 26 -177 126 -177s129 72 129 177s-30 178 -127 178s-128 -73 -128 -178z" />
    <glyph glyph-name="p.sc" horiz-adv-x="489" 
d="M171 185v-185h-102v507h190c127 0 195 -58 195 -161s-68 -161 -195 -161h-88zM171 266h81c72 0 97 31 97 80c0 48 -25 81 -97 81h-81v-161z" />
    <glyph glyph-name="q.sc" horiz-adv-x="552" 
d="M44 253c0 149 63 262 233 262c168 0 231 -114 231 -262c0 -58 -10 -109 -31 -151l58 -51l-54 -59l-55 48c-36 -30 -85 -48 -151 -48c-167 0 -231 112 -231 261zM149 253c0 -105 26 -177 126 -177c35 0 61 9 79 26l-119 105l52 56l106 -91c8 22 11 50 11 81
c0 105 -30 178 -127 178s-128 -73 -128 -178z" />
    <glyph glyph-name="r.sc" horiz-adv-x="512" 
d="M69 507h205c133 0 196 -54 196 -149c0 -74 -44 -129 -129 -143l140 -215h-113l-129 206h-68v-206h-102v507zM366 358c0 41 -24 69 -102 69h-93v-140h93c78 0 102 26 102 71z" />
    <glyph glyph-name="s.sc" horiz-adv-x="462" 
d="M346 385c-21 28 -56 46 -106 46c-55 0 -82 -29 -82 -65c0 -29 18 -48 59 -60l70 -20c96 -28 134 -75 134 -139c0 -99 -81 -155 -195 -155c-122 0 -173 52 -196 93l71 55c20 -35 48 -64 125 -64c60 0 90 26 90 63c0 32 -22 50 -65 62l-69 19c-94 28 -129 78 -129 141
c0 78 53 154 187 154c93 0 147 -36 175 -75z" />
    <glyph glyph-name="t.sc" horiz-adv-x="459" 
d="M429 507v-80h-148v-427h-102v427h-148v80h398z" />
    <glyph glyph-name="u.sc" horiz-adv-x="548" 
d="M274 -7c-124 0 -210 59 -210 200v314h102v-312c0 -80 33 -119 108 -119s108 39 108 119v312h102v-314c0 -141 -87 -200 -210 -200z" />
    <glyph glyph-name="v.sc" horiz-adv-x="511" 
d="M495 507l-175 -507h-130l-173 507h105l134 -406l132 406h107z" />
    <glyph glyph-name="w.sc" horiz-adv-x="811" 
d="M463 507l114 -397l106 397h104l-144 -507h-125l-113 373l-113 -373h-124l-145 507h105l107 -397l113 397h115z" />
    <glyph glyph-name="x.sc" horiz-adv-x="501" 
d="M137 507l113 -181l114 181h114l-161 -246l166 -261h-114l-119 190l-118 -190h-114l166 261l-161 246h114z" />
    <glyph glyph-name="y.sc" horiz-adv-x="493" 
d="M196 0v197l-185 310h111l126 -221l123 221h112l-185 -310v-197h-102z" />
    <glyph glyph-name="z.sc" horiz-adv-x="446" 
d="M399 436l-243 -356h250v-80h-369v70l243 357h-231v80h350v-71z" />
    <glyph glyph-name="agrave.sc" horiz-adv-x="523" 
d="M230 726l75 -159h-86l-87 159h98zM362 115h-202l-41 -115h-108l192 507h117l192 -507h-108zM186 195h151l-75 211z" />
    <glyph glyph-name="aacute.sc" horiz-adv-x="523" 
d="M392 726l-87 -159h-86l74 159h99zM362 115h-202l-41 -115h-108l192 507h117l192 -507h-108zM186 195h151l-75 211z" />
    <glyph glyph-name="acircumflex.sc" horiz-adv-x="523" 
d="M312 726l101 -160h-90l-61 95l-61 -95h-90l101 160h100zM362 115h-202l-41 -115h-108l192 507h117l192 -507h-108zM186 195h151l-75 211z" />
    <glyph glyph-name="atilde.sc" horiz-adv-x="523" 
d="M403 598c-21 15 -45 25 -69 25c-50 0 -89 -40 -148 -40c-30 0 -56 12 -69 23l4 76c17 -17 37 -25 65 -25c51 0 81 40 148 40c35 0 56 -12 73 -23zM362 115h-202l-41 -115h-108l192 507h117l192 -507h-108zM186 195h151l-75 211z" />
    <glyph glyph-name="adieresis.sc" horiz-adv-x="523" 
d="M168 578c-35 0 -62 17 -62 60s27 62 62 62c32 0 62 -19 62 -62s-30 -60 -62 -60zM356 578c-35 0 -62 17 -62 60s27 62 62 62c32 0 62 -19 62 -62s-30 -60 -62 -60zM362 115h-202l-41 -115h-108l192 507h117l192 -507h-108zM186 195h151l-75 211z" />
    <glyph glyph-name="amacron.sc" horiz-adv-x="523" 
d="M406 670v-79h-288v79h288zM362 115h-202l-41 -115h-108l192 507h117l192 -507h-108zM186 195h151l-75 211z" />
    <glyph glyph-name="abreve.sc" horiz-adv-x="523" 
d="M408 706c0 -82 -53 -146 -147 -146c-92 0 -144 64 -144 146h66c5 -42 34 -72 78 -72c45 0 74 30 78 72h69zM362 115h-202l-41 -115h-108l192 507h117l192 -507h-108zM186 195h151l-75 211z" />
    <glyph glyph-name="aring.sc" horiz-adv-x="523" 
d="M155 649c0 53 37 98 106 98c71 0 108 -45 108 -98c0 -50 -37 -97 -108 -97c-69 0 -106 47 -106 97zM215 649c0 -23 16 -43 46 -43c31 0 47 20 47 43c0 24 -16 44 -47 44c-30 0 -46 -20 -46 -44zM362 115h-202l-41 -115h-108l192 507h117l192 -507h-108zM186 195h151
l-75 211z" />
    <glyph glyph-name="aringacute.sc" horiz-adv-x="523" 
d="M154 649c0 43 26 78 70 90l55 84h99l-68 -88c36 -16 57 -48 57 -86c0 -50 -38 -96 -108 -96c-67 0 -105 46 -105 96zM212 649c0 -25 17 -44 47 -44c32 0 49 19 49 44s-17 46 -49 46c-30 0 -47 -21 -47 -46zM362 115h-202l-41 -115h-108l192 507h117l192 -507h-108z
M186 195h151l-75 211z" />
    <glyph glyph-name="aogonek.sc" horiz-adv-x="521" 
d="M440 -54c-20 -16 -32 -31 -32 -48c0 -19 14 -34 38 -34c17 0 44 11 65 26v-83c-24 -13 -52 -23 -93 -23c-69 0 -113 35 -113 93c0 40 21 70 59 101l37 30l-39 107h-202l-41 -115h-108l192 507h117l192 -507h-1zM186 195h151l-75 211z" />
    <glyph glyph-name="ae.sc" horiz-adv-x="799" 
d="M754 80v-80h-353v115h-195l-84 -115h-121l376 507h374v-80h-249v-131h216v-81h-216v-135h252zM401 195v186l-139 -186h139z" />
    <glyph glyph-name="aeacute.sc" horiz-adv-x="799" 
d="M670 726l-87 -159h-87l75 159h99zM754 80v-80h-353v115h-195l-84 -115h-121l376 507h374v-80h-249v-131h216v-81h-216v-135h252zM401 195v186l-139 -186h139z" />
    <glyph glyph-name="cacute.sc" horiz-adv-x="501" 
d="M414 726l-87 -159h-86l74 159h99zM149 253c0 -111 41 -177 135 -177c49 0 86 28 105 60l77 -48c-33 -57 -95 -96 -185 -96c-158 0 -237 98 -237 262s79 261 237 261c90 0 152 -39 185 -96l-77 -48c-19 32 -56 60 -105 60c-94 0 -135 -66 -135 -178z" />
    <glyph glyph-name="ccircumflex.sc" horiz-adv-x="501" 
d="M322 726l101 -160h-90l-61 95l-61 -95h-90l101 160h100zM149 253c0 -111 41 -177 135 -177c49 0 86 28 105 60l77 -48c-33 -57 -95 -96 -185 -96c-158 0 -237 98 -237 262s79 261 237 261c90 0 152 -39 185 -96l-77 -48c-19 32 -56 60 -105 60c-94 0 -135 -66 -135 -178z
" />
    <glyph glyph-name="ccaron.sc" horiz-adv-x="501" 
d="M222 566l-101 160h90l61 -95l61 95h90l-101 -160h-100zM149 253c0 -111 41 -177 135 -177c49 0 86 28 105 60l77 -48c-33 -57 -95 -96 -185 -96c-158 0 -237 98 -237 262s79 261 237 261c90 0 152 -39 185 -96l-77 -48c-19 32 -56 60 -105 60c-94 0 -135 -66 -135 -178z
" />
    <glyph glyph-name="cdotaccent.sc" horiz-adv-x="501" 
d="M272 578c-35 0 -62 17 -62 60s27 62 62 62c32 0 62 -19 62 -62s-30 -60 -62 -60zM149 253c0 -111 41 -177 135 -177c49 0 86 28 105 60l77 -48c-33 -57 -95 -96 -185 -96c-158 0 -237 98 -237 262s79 261 237 261c90 0 152 -39 185 -96l-77 -48c-19 32 -56 60 -105 60
c-94 0 -135 -66 -135 -178z" />
    <glyph glyph-name="ccedilla.sc" horiz-adv-x="501" 
d="M284 76c49 0 86 28 105 60l77 -48c-29 -50 -80 -86 -154 -94l-17 -44c51 0 94 -21 94 -81c0 -50 -42 -85 -109 -85c-37 0 -67 10 -93 23v66c24 -17 56 -30 85 -30c24 0 37 11 37 26c0 21 -18 28 -49 28h-40l-5 6l32 91c-135 13 -203 108 -203 260c0 164 79 261 237 261
c90 0 152 -39 185 -96l-77 -48c-19 32 -56 60 -105 60c-94 0 -135 -66 -135 -178c0 -111 41 -177 135 -177z" />
    <glyph glyph-name="dcaron.sc" horiz-adv-x="553" 
d="M208 566l-101 160h91l60 -95l61 95h91l-102 -160h-100zM69 507h170c186 0 269 -77 269 -253s-84 -254 -269 -254h-170v507zM233 80c127 0 170 44 170 174c0 126 -43 173 -170 173h-62v-347h62z" />
    <glyph glyph-name="dcroat.sc" horiz-adv-x="562" 
d="M239 507c186 0 269 -77 269 -253s-84 -254 -269 -254h-170v222h-48v74h48v211h170zM233 80c127 0 170 44 170 174c0 126 -43 173 -170 173h-62v-131h109v-74h-109v-142h62z" />
    <glyph glyph-name="eth.sc" horiz-adv-x="562" 
d="M239 507c186 0 269 -77 269 -253s-84 -254 -269 -254h-170v222h-48v74h48v211h170zM233 80c127 0 170 44 170 174c0 126 -43 173 -170 173h-62v-131h109v-74h-109v-142h62z" />
    <glyph glyph-name="egrave.sc" horiz-adv-x="468" 
d="M221 726l75 -159h-86l-87 159h98zM423 80v-80h-354v507h351v-80h-249v-131h215v-81h-215v-135h252z" />
    <glyph glyph-name="eacute.sc" horiz-adv-x="468" 
d="M383 726l-87 -159h-86l74 159h99zM423 80v-80h-354v507h351v-80h-249v-131h215v-81h-215v-135h252z" />
    <glyph glyph-name="ecircumflex.sc" horiz-adv-x="468" 
d="M294 726l101 -160h-91l-61 95l-60 -95h-91l101 160h101zM423 80v-80h-354v507h351v-80h-249v-131h215v-81h-215v-135h252z" />
    <glyph glyph-name="ecaron.sc" horiz-adv-x="468" 
d="M193 566l-101 160h91l61 -95l60 95h91l-101 -160h-101zM423 80v-80h-354v507h351v-80h-249v-131h215v-81h-215v-135h252z" />
    <glyph glyph-name="edieresis.sc" horiz-adv-x="468" 
d="M150 578c-36 0 -63 17 -63 60s27 62 63 62c31 0 62 -19 62 -62s-31 -60 -62 -60zM338 578c-36 0 -63 17 -63 60s27 62 63 62c31 0 62 -19 62 -62s-31 -60 -62 -60zM423 80v-80h-354v507h351v-80h-249v-131h215v-81h-215v-135h252z" />
    <glyph glyph-name="emacron.sc" horiz-adv-x="468" 
d="M387 670v-79h-287v79h287zM423 80v-80h-354v507h351v-80h-249v-131h215v-81h-215v-135h252z" />
    <glyph glyph-name="ebreve.sc" horiz-adv-x="468" 
d="M389 706c0 -82 -52 -146 -147 -146c-92 0 -144 64 -144 146h66c5 -42 35 -72 78 -72c45 0 74 30 79 72h68zM423 80v-80h-354v507h351v-80h-249v-131h215v-81h-215v-135h252z" />
    <glyph glyph-name="edotaccent.sc" horiz-adv-x="468" 
d="M244 578c-36 0 -63 17 -63 60s27 62 63 62c31 0 62 -19 62 -62s-31 -60 -62 -60zM423 80v-80h-354v507h351v-80h-249v-131h215v-81h-215v-135h252z" />
    <glyph glyph-name="eogonek.sc" horiz-adv-x="467" 
d="M171 80h252v-80h-1l-72 -54c-20 -16 -32 -31 -32 -48c0 -19 14 -34 38 -34c17 0 45 11 66 26v-83c-24 -13 -53 -23 -93 -23c-70 0 -113 35 -113 93c0 40 20 70 58 101l27 22h-232v507h351v-80h-249v-131h215v-81h-215v-135z" />
    <glyph glyph-name="gcircumflex.sc" horiz-adv-x="544" 
d="M331 726l101 -160h-91l-60 95l-61 -95h-91l102 160h100zM286 276h218c2 -17 4 -40 4 -49c0 -127 -64 -235 -223 -235c-154 0 -241 90 -241 262c0 174 87 261 253 261c84 0 149 -35 181 -92l-76 -49c-23 34 -55 57 -110 57c-101 0 -144 -60 -144 -177
c0 -127 44 -179 137 -179c86 0 120 54 120 120h-119v81z" />
    <glyph glyph-name="gbreve.sc" horiz-adv-x="544" 
d="M427 706c0 -82 -53 -146 -148 -146c-92 0 -143 64 -143 146h66c5 -42 34 -72 77 -72c46 0 74 30 79 72h69zM286 276h218c2 -17 4 -40 4 -49c0 -127 -64 -235 -223 -235c-154 0 -241 90 -241 262c0 174 87 261 253 261c84 0 149 -35 181 -92l-76 -49
c-23 34 -55 57 -110 57c-101 0 -144 -60 -144 -177c0 -127 44 -179 137 -179c86 0 120 54 120 120h-119v81z" />
    <glyph glyph-name="gdotaccent.sc" horiz-adv-x="544" 
d="M281 578c-36 0 -62 17 -62 60s26 62 62 62c32 0 62 -19 62 -62s-30 -60 -62 -60zM286 276h218c2 -17 4 -40 4 -49c0 -127 -64 -235 -223 -235c-154 0 -241 90 -241 262c0 174 87 261 253 261c84 0 149 -35 181 -92l-76 -49c-23 34 -55 57 -110 57
c-101 0 -144 -60 -144 -177c0 -127 44 -179 137 -179c86 0 120 54 120 120h-119v81z" />
    <glyph glyph-name="uni0123.sc" horiz-adv-x="544" 
d="M286 276h218c2 -17 4 -40 4 -49c0 -127 -64 -235 -223 -235c-154 0 -241 90 -241 262c0 174 87 261 253 261c84 0 149 -35 181 -92l-76 -49c-23 34 -55 57 -110 57c-101 0 -144 -60 -144 -177c0 -127 44 -179 137 -179c86 0 120 54 120 120h-119v81zM282 -216h-76l25 151
h110z" />
    <glyph glyph-name="hcircumflex.sc" horiz-adv-x="578" 
d="M339 726l101 -160h-91l-61 95l-60 -95h-91l101 160h101zM408 507h101v-507h-101v222h-237v-222h-102v507h102v-204h237v204z" />
    <glyph glyph-name="hbar.sc" horiz-adv-x="579" 
d="M70 437v70h101v-70h237v70h101v-70h39v-69h-39v-368h-101v222h-237v-222h-101v368h-37v69h37zM408 368h-237v-65h237v65z" />
    <glyph glyph-name="igrave.sc" horiz-adv-x="241" 
d="M89 726l75 -159h-86l-87 159h98zM69 507h102v-507h-102v507z" />
    <glyph glyph-name="iacute.sc" horiz-adv-x="241" 
d="M251 726l-87 -159h-86l74 159h99zM69 507h102v-507h-102v507z" />
    <glyph glyph-name="ibreve.sc" horiz-adv-x="241" 
d="M266 706c0 -82 -52 -146 -147 -146c-92 0 -144 64 -144 146h66c5 -42 35 -72 78 -72c45 0 74 30 79 72h68zM69 507h102v-507h-102v507z" />
    <glyph glyph-name="icircumflex.sc" horiz-adv-x="241" 
d="M170 726l102 -160h-91l-61 95l-60 -95h-91l101 160h100zM69 507h102v-507h-102v507z" />
    <glyph glyph-name="itilde.sc" horiz-adv-x="241" 
d="M261 598c-21 15 -45 25 -69 25c-50 0 -89 -40 -148 -40c-30 0 -56 12 -69 23l4 76c17 -17 37 -25 65 -25c51 0 82 40 148 40c35 0 56 -12 73 -23zM69 507h102v-507h-102v507z" />
    <glyph glyph-name="idieresis.sc" horiz-adv-x="241" 
d="M27 578c-36 0 -63 17 -63 60s27 62 63 62c31 0 61 -19 61 -62s-30 -60 -61 -60zM215 578c-36 0 -63 17 -63 60s27 62 63 62c31 0 61 -19 61 -62s-30 -60 -61 -60zM69 507h102v-507h-102v507z" />
    <glyph glyph-name="imacron.sc" horiz-adv-x="241" 
d="M264 670v-79h-288v79h288zM69 507h102v-507h-102v507z" />
    <glyph glyph-name="i.sc.loclTRK" horiz-adv-x="241" 
d="M121 578c-36 0 -63 17 -63 60s27 62 63 62c31 0 61 -19 61 -62s-30 -60 -61 -60zM69 507h102v-507h-102v507z" />
    <glyph glyph-name="iogonek.sc" horiz-adv-x="240" 
d="M100 -54c-20 -16 -32 -31 -32 -48c0 -19 14 -34 38 -34c17 0 44 11 65 26v-83c-24 -13 -52 -23 -93 -23c-69 0 -113 35 -113 93c0 40 21 70 59 101l45 37v492h102v-507z" />
    <glyph glyph-name="jcircumflex.sc" horiz-adv-x="414" 
d="M351 726l101 -160h-91l-61 95l-60 -95h-91l101 160h101zM92 121c15 -27 36 -45 77 -45c55 0 83 27 83 98v333h96v-340c0 -115 -67 -175 -179 -175c-76 0 -125 36 -149 84z" />
    <glyph glyph-name="uni0137.sc" horiz-adv-x="523" 
d="M171 160v-160h-102v507h102v-222l215 222h121l-197 -209l196 -298h-118l-147 227zM255 -216h-77l26 151h109z" />
    <glyph glyph-name="lacute.sc" horiz-adv-x="412" 
d="M251 726l-87 -159h-86l74 159h99zM390 80v-80h-321v507h102v-427h219z" />
    <glyph glyph-name="lcaron.sc" horiz-adv-x="419" 
d="M390 80v-80h-321v507h102v-427h219zM335 345h-73l25 162h105z" />
    <glyph glyph-name="uni013C.sc" horiz-adv-x="412" 
d="M390 80v-80h-321v507h102v-427h219zM219 -216h-76l25 151h110z" />
    <glyph glyph-name="lslash.sc" horiz-adv-x="419" 
d="M22 163v81l55 23v240h102v-196l69 30v-80l-69 -30v-151h219v-80h-321v187z" />
    <glyph glyph-name="ldot.sc" horiz-adv-x="449" 
d="M390 80v-80h-321v507h102v-427h219zM339 230c-36 0 -62 17 -62 60s26 62 62 62c32 0 62 -19 62 -62s-30 -60 -62 -60z" />
    <glyph glyph-name="nacute.sc" horiz-adv-x="577" 
d="M420 726l-87 -159h-86l74 159h99zM407 507h100v-507h-103l-233 350l1 -350h-103v507h108l230 -345v345z" />
    <glyph glyph-name="ncaron.sc" horiz-adv-x="577" 
d="M238 566l-101 160h91l60 -95l61 95h91l-102 -160h-100zM407 507h100v-507h-103l-233 350l1 -350h-103v507h108l230 -345v345z" />
    <glyph glyph-name="ntilde.sc" horiz-adv-x="577" 
d="M429 598c-21 15 -45 25 -69 25c-50 0 -89 -40 -148 -40c-30 0 -56 12 -69 23l4 76c17 -17 37 -25 65 -25c51 0 82 40 148 40c35 0 56 -12 73 -23zM407 507h100v-507h-103l-233 350l1 -350h-103v507h108l230 -345v345z" />
    <glyph glyph-name="uni0146.sc" horiz-adv-x="577" 
d="M407 507h100v-507h-103l-233 350l1 -350h-103v507h108l230 -345v345zM287 -216h-77l26 151h110z" />
    <glyph glyph-name="ograve.sc" horiz-adv-x="552" 
d="M245 726l75 -159h-86l-87 159h98zM508 253c0 -149 -66 -261 -233 -261s-231 112 -231 261s63 262 233 262c168 0 231 -114 231 -262zM149 253c0 -105 26 -177 126 -177s129 72 129 177s-30 178 -127 178s-128 -73 -128 -178z" />
    <glyph glyph-name="oacute.sc" horiz-adv-x="552" 
d="M407 726l-87 -159h-86l74 159h99zM508 253c0 -149 -66 -261 -233 -261s-231 112 -231 261s63 262 233 262c168 0 231 -114 231 -262zM149 253c0 -105 26 -177 126 -177s129 72 129 177s-30 178 -127 178s-128 -73 -128 -178z" />
    <glyph glyph-name="ocircumflex.sc" horiz-adv-x="552" 
d="M327 726l101 -160h-91l-61 95l-60 -95h-91l101 160h101zM508 253c0 -149 -66 -261 -233 -261s-231 112 -231 261s63 262 233 262c168 0 231 -114 231 -262zM149 253c0 -105 26 -177 126 -177s129 72 129 177s-30 178 -127 178s-128 -73 -128 -178z" />
    <glyph glyph-name="otilde.sc" horiz-adv-x="552" 
d="M417 598c-21 15 -44 25 -69 25c-50 0 -89 -40 -148 -40c-30 0 -56 12 -68 23l4 76c16 -17 36 -25 64 -25c51 0 82 40 148 40c35 0 57 -12 73 -23zM508 253c0 -149 -66 -261 -233 -261s-231 112 -231 261s63 262 233 262c168 0 231 -114 231 -262zM149 253
c0 -105 26 -177 126 -177s129 72 129 177s-30 178 -127 178s-128 -73 -128 -178z" />
    <glyph glyph-name="odieresis.sc" horiz-adv-x="552" 
d="M183 578c-36 0 -63 17 -63 60s27 62 63 62c31 0 62 -19 62 -62s-31 -60 -62 -60zM371 578c-36 0 -63 17 -63 60s27 62 63 62c31 0 62 -19 62 -62s-31 -60 -62 -60zM508 253c0 -149 -66 -261 -233 -261s-231 112 -231 261s63 262 233 262c168 0 231 -114 231 -262z
M149 253c0 -105 26 -177 126 -177s129 72 129 177s-30 178 -127 178s-128 -73 -128 -178z" />
    <glyph glyph-name="omacron.sc" horiz-adv-x="552" 
d="M420 670v-79h-287v79h287zM508 253c0 -149 -66 -261 -233 -261s-231 112 -231 261s63 262 233 262c168 0 231 -114 231 -262zM149 253c0 -105 26 -177 126 -177s129 72 129 177s-30 178 -127 178s-128 -73 -128 -178z" />
    <glyph glyph-name="obreve.sc" horiz-adv-x="552" 
d="M422 706c0 -82 -52 -146 -147 -146c-92 0 -144 64 -144 146h66c5 -42 35 -72 78 -72c45 0 74 30 79 72h68zM508 253c0 -149 -66 -261 -233 -261s-231 112 -231 261s63 262 233 262c168 0 231 -114 231 -262zM149 253c0 -105 26 -177 126 -177s129 72 129 177
s-30 178 -127 178s-128 -73 -128 -178z" />
    <glyph glyph-name="ohungarumlaut.sc" horiz-adv-x="552" 
d="M320 726l-87 -159h-86l75 159h98zM486 726l-87 -159h-86l75 159h98zM508 253c0 -149 -66 -261 -233 -261s-231 112 -231 261s63 262 233 262c168 0 231 -114 231 -262zM149 253c0 -105 26 -177 126 -177s129 72 129 177s-30 178 -127 178s-128 -73 -128 -178z" />
    <glyph glyph-name="oslash.sc" horiz-adv-x="552" 
d="M509 507l-53 -69c37 -47 52 -112 52 -185c0 -149 -66 -261 -233 -261c-56 0 -100 12 -134 34l-20 -26h-80l53 70c-35 46 -50 110 -50 183c0 149 63 262 233 262c54 0 97 -12 130 -32l19 24h83zM149 253c0 -36 3 -69 11 -96l192 252c-19 14 -43 22 -75 22
c-97 0 -128 -73 -128 -178zM404 253c0 38 -4 72 -13 99l-194 -253c19 -15 44 -23 78 -23c100 0 129 72 129 177z" />
    <glyph glyph-name="oslashacute.sc" horiz-adv-x="552" 
d="M402 726l-87 -159h-86l74 159h99zM509 507l-53 -69c37 -47 52 -112 52 -185c0 -149 -66 -261 -233 -261c-56 0 -100 12 -134 34l-20 -26h-80l53 70c-35 46 -50 110 -50 183c0 149 63 262 233 262c54 0 97 -12 130 -32l19 24h83zM149 253c0 -36 3 -69 11 -96l192 252
c-19 14 -43 22 -75 22c-97 0 -128 -73 -128 -178zM404 253c0 38 -4 72 -13 99l-194 -253c19 -15 44 -23 78 -23c100 0 129 72 129 177z" />
    <glyph glyph-name="oe.sc" horiz-adv-x="735" 
d="M690 80v-80h-337c-23 -5 -49 -8 -78 -8c-167 0 -231 112 -231 261s63 262 233 262c28 0 53 -3 75 -8h335v-80h-248v-131h215v-81h-215v-135h251zM275 76c25 0 45 2 62 7v339c-17 6 -37 9 -60 9c-97 0 -128 -73 -128 -178s26 -177 126 -177z" />
    <glyph glyph-name="racute.sc" horiz-adv-x="512" 
d="M388 726l-87 -159h-86l74 159h99zM69 507h205c133 0 196 -54 196 -149c0 -74 -44 -129 -129 -143l140 -215h-113l-129 206h-68v-206h-102v507zM366 358c0 41 -24 69 -102 69h-93v-140h93c78 0 102 26 102 71z" />
    <glyph glyph-name="rcaron.sc" horiz-adv-x="512" 
d="M186 566l-101 160h91l61 -95l60 95h91l-101 -160h-101zM69 507h205c133 0 196 -54 196 -149c0 -74 -44 -129 -129 -143l140 -215h-113l-129 206h-68v-206h-102v507zM366 358c0 41 -24 69 -102 69h-93v-140h93c78 0 102 26 102 71z" />
    <glyph glyph-name="uni0157.sc" horiz-adv-x="512" 
d="M69 507h205c133 0 196 -54 196 -149c0 -74 -44 -129 -129 -143l140 -215h-113l-129 206h-68v-206h-102v507zM366 358c0 41 -24 69 -102 69h-93v-140h93c78 0 102 26 102 71zM245 -216h-76l25 151h110z" />
    <glyph glyph-name="sacute.sc" horiz-adv-x="462" 
d="M370 726l-87 -159h-86l74 159h99zM346 385c-21 28 -56 46 -106 46c-55 0 -82 -29 -82 -65c0 -29 18 -48 59 -60l70 -20c96 -28 134 -75 134 -139c0 -99 -81 -155 -195 -155c-122 0 -173 52 -196 93l71 55c20 -35 48 -64 125 -64c60 0 90 26 90 63c0 32 -22 50 -65 62
l-69 19c-94 28 -129 78 -129 141c0 78 53 154 187 154c93 0 147 -36 175 -75z" />
    <glyph glyph-name="scircumflex.sc" horiz-adv-x="462" 
d="M282 726l102 -160h-91l-61 95l-60 -95h-91l101 160h100zM346 385c-21 28 -56 46 -106 46c-55 0 -82 -29 -82 -65c0 -29 18 -48 59 -60l70 -20c96 -28 134 -75 134 -139c0 -99 -81 -155 -195 -155c-122 0 -173 52 -196 93l71 55c20 -35 48 -64 125 -64c60 0 90 26 90 63
c0 32 -22 50 -65 62l-69 19c-94 28 -129 78 -129 141c0 78 53 154 187 154c93 0 147 -36 175 -75z" />
    <glyph glyph-name="scaron.sc" horiz-adv-x="462" 
d="M182 566l-101 160h91l60 -95l61 95h91l-102 -160h-100zM346 385c-21 28 -56 46 -106 46c-55 0 -82 -29 -82 -65c0 -29 18 -48 59 -60l70 -20c96 -28 134 -75 134 -139c0 -99 -81 -155 -195 -155c-122 0 -173 52 -196 93l71 55c20 -35 48 -64 125 -64c60 0 90 26 90 63
c0 32 -22 50 -65 62l-69 19c-94 28 -129 78 -129 141c0 78 53 154 187 154c93 0 147 -36 175 -75z" />
    <glyph glyph-name="scedilla.sc" horiz-adv-x="462" 
d="M421 147c0 -88 -64 -142 -157 -153l-18 -44c51 0 94 -21 94 -81c0 -50 -42 -85 -109 -85c-37 0 -67 10 -92 23v66c23 -17 56 -30 84 -30c25 0 37 11 37 26c0 21 -18 28 -48 28h-40l-5 6l31 90c-102 7 -147 54 -168 92l71 55c20 -35 48 -64 125 -64c60 0 90 26 90 63
c0 32 -22 50 -65 62l-69 19c-94 28 -129 78 -129 141c0 78 53 154 187 154c93 0 147 -36 175 -75l-69 -55c-21 28 -56 46 -106 46c-55 0 -82 -29 -82 -65c0 -29 18 -48 59 -60l70 -20c96 -28 134 -75 134 -139z" />
    <glyph glyph-name="uni0219.sc" horiz-adv-x="462" 
d="M346 385c-21 28 -56 46 -106 46c-55 0 -82 -29 -82 -65c0 -29 18 -48 59 -60l70 -20c96 -28 134 -75 134 -139c0 -99 -81 -155 -195 -155c-122 0 -173 52 -196 93l71 55c20 -35 48 -64 125 -64c60 0 90 26 90 63c0 32 -22 50 -65 62l-69 19c-94 28 -129 78 -129 141
c0 78 53 154 187 154c93 0 147 -36 175 -75zM237 -216h-76l25 151h110z" />
    <glyph glyph-name="tcaron.sc" horiz-adv-x="460" 
d="M180 566l-102 160h91l61 -95l60 95h91l-101 -160h-100zM429 507v-80h-148v-427h-102v427h-148v80h398z" />
    <glyph glyph-name="uni021B.sc" horiz-adv-x="461" 
d="M430 507v-80h-148v-427h-102v427h-148v80h398zM225 -216h-76l25 151h110z" />
    <glyph glyph-name="tbar.sc" horiz-adv-x="464" 
d="M429 427h-148v-148h81v-73h-81v-206h-102v206h-76v73h76v148h-148v80h398v-80z" />
    <glyph glyph-name="thorn.sc" horiz-adv-x="487" 
d="M171 92v-92h-102v507h102v-93h88c127 0 195 -58 195 -161s-68 -161 -195 -161h-88zM171 173h81c72 0 97 31 97 80c0 48 -25 81 -97 81h-81v-161z" />
    <glyph glyph-name="ugrave.sc" horiz-adv-x="548" 
d="M242 726l75 -159h-86l-87 159h98zM274 -7c-124 0 -210 59 -210 200v314h102v-312c0 -80 33 -119 108 -119s108 39 108 119v312h102v-314c0 -141 -87 -200 -210 -200z" />
    <glyph glyph-name="uacute.sc" horiz-adv-x="548" 
d="M404 726l-87 -159h-86l74 159h99zM274 -7c-124 0 -210 59 -210 200v314h102v-312c0 -80 33 -119 108 -119s108 39 108 119v312h102v-314c0 -141 -87 -200 -210 -200z" />
    <glyph glyph-name="ucircumflex.sc" horiz-adv-x="548" 
d="M324 726l101 -160h-91l-61 95l-60 -95h-91l101 160h101zM274 -7c-124 0 -210 59 -210 200v314h102v-312c0 -80 33 -119 108 -119s108 39 108 119v312h102v-314c0 -141 -87 -200 -210 -200z" />
    <glyph glyph-name="utilde.sc" horiz-adv-x="548" 
d="M414 598c-21 15 -44 25 -69 25c-50 0 -89 -40 -147 -40c-30 0 -57 12 -69 23l4 76c16 -17 36 -25 65 -25c50 0 81 40 147 40c35 0 57 -12 73 -23zM274 -7c-124 0 -210 59 -210 200v314h102v-312c0 -80 33 -119 108 -119s108 39 108 119v312h102v-314
c0 -141 -87 -200 -210 -200z" />
    <glyph glyph-name="udieresis.sc" horiz-adv-x="548" 
d="M180 578c-36 0 -62 17 -62 60s26 62 62 62c31 0 62 -19 62 -62s-31 -60 -62 -60zM368 578c-36 0 -62 17 -62 60s26 62 62 62c31 0 62 -19 62 -62s-31 -60 -62 -60zM274 -7c-124 0 -210 59 -210 200v314h102v-312c0 -80 33 -119 108 -119s108 39 108 119v312h102v-314
c0 -141 -87 -200 -210 -200z" />
    <glyph glyph-name="umacron.sc" horiz-adv-x="548" 
d="M418 670v-79h-288v79h288zM274 -7c-124 0 -210 59 -210 200v314h102v-312c0 -80 33 -119 108 -119s108 39 108 119v312h102v-314c0 -141 -87 -200 -210 -200z" />
    <glyph glyph-name="ubreve.sc" horiz-adv-x="548" 
d="M419 706c0 -82 -52 -146 -147 -146c-92 0 -144 64 -144 146h67c4 -42 34 -72 77 -72c46 0 74 30 79 72h68zM274 -7c-124 0 -210 59 -210 200v314h102v-312c0 -80 33 -119 108 -119s108 39 108 119v312h102v-314c0 -141 -87 -200 -210 -200z" />
    <glyph glyph-name="uring.sc" horiz-adv-x="548" 
d="M167 649c0 53 37 98 105 98c71 0 109 -45 109 -98c0 -50 -38 -97 -109 -97c-68 0 -105 47 -105 97zM227 649c0 -23 16 -43 45 -43c32 0 48 20 48 43c0 24 -16 44 -48 44c-29 0 -45 -20 -45 -44zM274 -7c-124 0 -210 59 -210 200v314h102v-312c0 -80 33 -119 108 -119
s108 39 108 119v312h102v-314c0 -141 -87 -200 -210 -200z" />
    <glyph glyph-name="uhungarumlaut.sc" horiz-adv-x="548" 
d="M320 726l-87 -159h-87l75 159h99zM486 726l-87 -159h-87l75 159h99zM274 -7c-124 0 -210 59 -210 200v314h102v-312c0 -80 33 -119 108 -119s108 39 108 119v312h102v-314c0 -141 -87 -200 -210 -200z" />
    <glyph glyph-name="uogonek.sc" horiz-adv-x="548" 
d="M382 507h102v-314c0 -106 -49 -165 -125 -188l-66 -50c-19 -16 -32 -32 -32 -49c0 -18 15 -34 38 -34c18 0 45 11 66 27v-84c-24 -12 -52 -22 -93 -22c-69 0 -113 35 -113 93c0 39 20 70 59 101l11 9c-99 13 -165 74 -165 197v314h102v-312c0 -80 33 -119 108 -119
s108 39 108 119v312z" />
    <glyph glyph-name="wacute.sc" horiz-adv-x="811" 
d="M535 726l-87 -159h-86l74 159h99zM463 507l114 -397l106 397h104l-144 -507h-125l-113 373l-113 -373h-124l-145 507h105l107 -397l113 397h115z" />
    <glyph glyph-name="wcircumflex.sc" horiz-adv-x="811" 
d="M456 726l101 -160h-91l-60 95l-61 -95h-91l102 160h100zM463 507l114 -397l106 397h104l-144 -507h-125l-113 373l-113 -373h-124l-145 507h105l107 -397l113 397h115z" />
    <glyph glyph-name="wdieresis.sc" horiz-adv-x="811" 
d="M312 578c-36 0 -62 17 -62 60s26 62 62 62c32 0 62 -19 62 -62s-30 -60 -62 -60zM500 578c-36 0 -62 17 -62 60s26 62 62 62c32 0 62 -19 62 -62s-30 -60 -62 -60zM463 507l114 -397l106 397h104l-144 -507h-125l-113 373l-113 -373h-124l-145 507h105l107 -397l113 397
h115z" />
    <glyph glyph-name="wgrave.sc" horiz-adv-x="811" 
d="M373 726l75 -159h-86l-87 159h98zM463 507l114 -397l106 397h104l-144 -507h-125l-113 373l-113 -373h-124l-145 507h105l107 -397l113 397h115z" />
    <glyph glyph-name="yacute.sc" horiz-adv-x="493" 
d="M376 726l-87 -159h-86l74 159h99zM196 0v197l-185 310h111l126 -221l123 221h112l-185 -310v-197h-102z" />
    <glyph glyph-name="ycircumflex.sc" horiz-adv-x="493" 
d="M298 726l101 -160h-91l-60 95l-61 -95h-91l102 160h100zM196 0v197l-185 310h111l126 -221l123 221h112l-185 -310v-197h-102z" />
    <glyph glyph-name="ydieresis.sc" horiz-adv-x="493" 
d="M154 578c-36 0 -62 17 -62 60s26 62 62 62c32 0 62 -19 62 -62s-30 -60 -62 -60zM342 578c-36 0 -62 17 -62 60s26 62 62 62c32 0 62 -19 62 -62s-30 -60 -62 -60zM196 0v197l-185 310h111l126 -221l123 221h112l-185 -310v-197h-102z" />
    <glyph glyph-name="ygrave.sc" horiz-adv-x="493" 
d="M214 726l75 -159h-86l-87 159h98zM196 0v197l-185 310h111l126 -221l123 221h112l-185 -310v-197h-102z" />
    <glyph glyph-name="zacute.sc" horiz-adv-x="446" 
d="M354 726l-87 -159h-86l74 159h99zM399 436l-243 -356h250v-80h-369v70l243 357h-231v80h350v-71z" />
    <glyph glyph-name="zcaron.sc" horiz-adv-x="445" 
d="M171 566l-101 160h91l61 -95l60 95h91l-101 -160h-101zM399 436l-243 -356h250v-80h-369v70l243 357h-231v80h350v-71z" />
    <glyph glyph-name="zdotaccent.sc" horiz-adv-x="445" 
d="M222 578c-36 0 -62 17 -62 60s26 62 62 62c31 0 62 -19 62 -62s-31 -60 -62 -60zM399 436l-243 -356h250v-80h-369v70l243 357h-231v80h350v-71z" />
    <glyph glyph-name="ij.sc" horiz-adv-x="653" 
d="M69 507h102v-507h-102v507zM333 121c15 -27 36 -45 77 -45c55 0 83 27 83 98v333h96v-340c0 -115 -67 -175 -179 -175c-76 0 -125 36 -149 84z" />
    <glyph glyph-name="germandbls.sc" horiz-adv-x="553" 
d="M405 263c72 -29 108 -63 108 -128c0 -96 -72 -142 -163 -142c-86 0 -135 38 -161 69l58 60c20 -23 51 -48 99 -48c40 0 63 20 63 52c0 28 -13 44 -47 58l-114 47v64l126 115c-25 14 -55 21 -93 21c-84 0 -115 -43 -115 -114v-317h-102v313c0 141 87 202 217 202
c81 0 139 -21 187 -54v-71l-115 -107z" />
    <glyph glyph-name="fi.sc" horiz-adv-x="687" 
d="M69 507h339v-80h-237v-145h200v-81h-200v-201h-102v507zM515 507h102v-507h-102v507z" />
    <glyph glyph-name="fl.sc" horiz-adv-x="858" 
d="M69 507h339v-80h-237v-145h200v-81h-200v-201h-102v507zM836 80v-80h-321v507h102v-427h219z" />
    <glyph glyph-name="eng.sc" horiz-adv-x="575" 
d="M406 507h100v-511c0 -62 -21 -125 -100 -167l-65 65c41 21 62 51 64 105l-235 351l1 -350h-103v507h108l230 -345v345z" />
    <glyph glyph-name="grave.sc" horiz-adv-x="600" 
d="M312 726l75 -159h-86l-87 159h98z" />
    <glyph glyph-name="acute.sc" horiz-adv-x="600" 
d="M387 726l-87 -159h-86l74 159h99z" />
    <glyph glyph-name="circumflex.sc" horiz-adv-x="600" 
d="M350 726l101 -160h-91l-60 95l-61 -95h-91l102 160h100z" />
    <glyph glyph-name="caron.sc" horiz-adv-x="600" 
d="M250 566l-102 160h91l61 -95l60 95h91l-101 -160h-100z" />
    <glyph glyph-name="caronalt.sc" horiz-adv-x="600" 
d="M307 345h-72l25 162h105z" />
    <glyph glyph-name="tilde.sc" horiz-adv-x="600" 
d="M441 598c-21 15 -45 25 -69 25c-51 0 -90 -40 -148 -40c-30 0 -57 12 -69 23l4 76c17 -17 36 -25 65 -25c51 0 81 40 148 40c35 0 56 -12 73 -23z" />
    <glyph glyph-name="dieresis.sc" horiz-adv-x="600" 
d="M206 578c-36 0 -62 17 -62 60s26 62 62 62c31 0 62 -19 62 -62s-31 -60 -62 -60zM394 578c-36 0 -62 17 -62 60s26 62 62 62c31 0 62 -19 62 -62s-31 -60 -62 -60z" />
    <glyph glyph-name="macron.sc" horiz-adv-x="600" 
d="M444 670v-79h-288v79h288z" />
    <glyph glyph-name="breve.sc" horiz-adv-x="600" 
d="M445 706c0 -82 -52 -146 -147 -146c-92 0 -144 64 -144 146h66c5 -42 35 -72 78 -72c45 0 74 30 79 72h68z" />
    <glyph glyph-name="ring.sc" horiz-adv-x="600" 
d="M193 649c0 53 37 98 105 98c71 0 108 -45 108 -98c0 -50 -37 -97 -108 -97c-68 0 -105 47 -105 97zM252 649c0 -23 17 -43 46 -43c31 0 47 20 47 43c0 24 -16 44 -47 44c-29 0 -46 -20 -46 -44z" />
    <glyph glyph-name="hungarumlaut.sc" horiz-adv-x="600" 
d="M304 726l-87 -159h-87l75 159h99zM470 726l-87 -159h-87l75 159h99z" />
    <glyph glyph-name="dotaccent.sc" horiz-adv-x="600" 
d="M300 578c-36 0 -62 17 -62 60s26 62 62 62c31 0 62 -19 62 -62s-31 -60 -62 -60z" />
    <glyph glyph-name="exclamdown.sc" horiz-adv-x="229" 
d="M115 511c36 0 62 -24 62 -56c0 -33 -26 -57 -62 -57s-62 24 -62 57c0 32 26 56 62 56zM154 338l16 -338h-111l17 338h78z" />
    <glyph glyph-name="questiondown.sc" horiz-adv-x="383" 
d="M203 511c37 0 62 -24 62 -56c0 -33 -25 -57 -62 -57c-36 0 -63 24 -63 57c0 32 27 56 63 56zM200 -8c-107 0 -166 60 -166 135c0 103 122 126 122 211h95c0 -113 -123 -141 -123 -207c0 -30 23 -55 65 -55c45 0 67 23 67 48l90 -9c0 -65 -45 -123 -150 -123z" />
    <glyph glyph-name="Euro.sc" horiz-adv-x="482" 
d="M83 332c18 112 83 183 216 183c56 0 97 -12 142 -30l-31 -80c-30 13 -69 25 -114 25c-68 0 -100 -39 -112 -98h199l-22 -59h-182v-17c0 -7 0 -16 1 -26h166l-22 -59h-135c15 -57 53 -95 114 -95c32 0 73 8 113 30l24 -83c-41 -19 -87 -31 -141 -31
c-123 0 -194 63 -215 179h-45v59h38v25v18h-38v59h44z" />
    <glyph glyph-name="cent.sc" horiz-adv-x="405" 
d="M221 69c35 0 63 17 79 45l60 -46c-26 -51 -79 -76 -147 -76c-6 0 -13 0 -19 1l-12 -47l-47 10l12 46c-73 25 -103 92 -103 169c0 96 48 179 169 179c8 0 16 0 24 -1l15 56l48 -10l-15 -57c33 -12 59 -34 75 -64l-61 -46c-8 15 -20 27 -34 34l-51 -193h7zM134 171
c0 -39 11 -70 34 -87l50 189c-58 -2 -84 -42 -84 -102z" />
    <glyph glyph-name="sterling.sc" horiz-adv-x="476" 
d="M89 253v79c0 97 47 183 179 183c83 0 132 -32 175 -76l-61 -61c-33 33 -65 50 -110 50c-62 0 -86 -38 -86 -96v-79h138v-59h-138v-118h220v-76h-317v194h-51v59h51z" />
    <glyph glyph-name="florin.sc" horiz-adv-x="323" 
d="M195 -56c0 -60 -37 -114 -116 -114c-30 0 -56 5 -67 10v78c14 -5 33 -6 45 -6c35 0 46 20 46 52v301h-71v77h71v70c0 59 36 113 121 113c24 0 50 -5 61 -9v-77c-14 3 -31 5 -45 5c-32 0 -45 -17 -45 -51v-51h78v-77h-78v-321z" />
    <glyph glyph-name="yen.sc" horiz-adv-x="508" 
d="M186 230l-23 42h-106v60h72l-98 175h109l112 -216l113 216h110l-101 -175h75v-60h-109l-24 -42h133v-59h-150v-171h-97v171h-145v59h129z" />
    <glyph glyph-name="uni20A8.sc" horiz-adv-x="475" 
d="M435 507v-64h-101c16 -15 29 -38 32 -64h69v-51h-69c-7 -59 -45 -102 -108 -118l135 -210h-115l-124 198h-104v79h83c89 0 118 14 124 51h-207v51h207c-6 33 -27 49 -94 49h-113v79h385z" />
    <glyph glyph-name="perthousand.sc" horiz-adv-x="971" 
d="M159 512c90 0 125 -57 125 -142s-36 -141 -125 -141c-90 0 -125 56 -125 141s36 142 125 142zM221 0h-75l325 507h76zM159 282c41 0 53 29 53 88c0 60 -12 88 -53 88c-40 0 -54 -28 -54 -88c0 -59 14 -88 54 -88zM536 278c90 0 125 -56 125 -141s-36 -142 -125 -142
c-90 0 -125 57 -125 142s36 141 125 141zM814 278c89 0 124 -56 124 -141s-36 -142 -124 -142c-91 0 -126 57 -126 142s36 141 126 141zM536 49c41 0 53 28 53 88c0 59 -12 88 -53 88c-40 0 -54 -29 -54 -88c0 -60 14 -88 54 -88zM814 49c40 0 53 28 53 88
c0 59 -13 88 -53 88c-41 0 -54 -29 -54 -88c0 -60 13 -88 54 -88z" />
    <glyph glyph-name="zero.tf" 
d="M280 687c174 0 242 -137 242 -349s-70 -349 -242 -349c-174 0 -243 137 -243 349s71 349 243 349zM280 81c99 0 133 90 133 257s-34 257 -133 257s-133 -90 -133 -257s34 -257 133 -257z" />
    <glyph glyph-name="one.tf" 
d="M78 90h173v479l-161 -65l-29 86l203 86h95v-586h147v-90h-428v90z" />
    <glyph glyph-name="two.tf" 
d="M274 687c130 0 212 -85 212 -202c0 -95 -61 -169 -134 -247l-141 -150h285v-88h-427v76l211 226c60 65 97 119 97 183s-36 110 -103 110c-70 0 -105 -48 -105 -120h-106c0 125 70 212 211 212z" />
    <glyph glyph-name="three.tf" 
d="M374 346c68 -14 131 -74 131 -166c0 -113 -91 -191 -231 -191c-155 0 -225 80 -225 183h107c0 -55 43 -92 118 -92s122 42 122 106c0 71 -53 116 -142 116h-63v88h63c79 0 131 36 131 105c0 60 -41 100 -111 100c-71 0 -109 -39 -109 -91h-107c0 98 66 183 216 183
c137 0 221 -79 221 -187c0 -82 -55 -138 -121 -154z" />
    <glyph glyph-name="four.tf" 
d="M531 140h-88v-140h-106v140h-316v79l311 457h111v-448h88v-88zM337 228v304l-204 -304h204z" />
    <glyph glyph-name="five.tf" 
d="M504 217c0 -126 -79 -228 -231 -228c-156 0 -223 86 -223 192h106c0 -58 39 -101 116 -101c84 0 122 58 122 138c0 74 -42 124 -119 124c-45 0 -81 -17 -108 -38l-86 13l42 359h356v-88h-269l-22 -185c21 12 62 30 108 30c113 0 208 -66 208 -216z" />
    <glyph glyph-name="six.tf" 
d="M399 504c0 56 -40 91 -105 91c-96 0 -139 -95 -139 -232c25 29 83 68 157 68c130 0 208 -85 208 -215c0 -122 -76 -227 -234 -227c-169 0 -241 138 -241 326c0 220 75 372 249 372c145 0 211 -82 211 -183h-106zM157 263c0 -98 39 -183 129 -183c83 0 125 54 125 135
c0 79 -43 129 -125 129c-61 0 -107 -40 -129 -81z" />
    <glyph glyph-name="seven.tf" 
d="M378 588h-308v88h427v-77l-248 -599h-115z" />
    <glyph glyph-name="eight.tf" 
d="M280 -11c-143 0 -240 69 -240 194c0 94 62 147 129 165c-65 20 -115 69 -115 150c0 115 86 189 227 189c140 0 225 -74 225 -189c0 -81 -49 -130 -114 -150c66 -18 128 -71 128 -165c0 -125 -97 -194 -240 -194zM280 595c-71 0 -117 -35 -117 -102s51 -101 117 -101
s117 34 117 101s-46 102 -117 102zM280 80c79 0 130 40 130 112c0 73 -57 111 -130 111c-74 0 -130 -38 -130 -111c0 -72 51 -112 130 -112z" />
    <glyph glyph-name="nine.tf" 
d="M162 172c0 -56 39 -91 104 -91c97 0 139 95 139 232c-24 -28 -83 -69 -157 -69c-130 0 -208 86 -208 216c0 122 77 227 234 227c169 0 241 -139 241 -326c0 -220 -75 -372 -249 -372c-145 0 -211 82 -211 183h107zM403 413c0 98 -39 183 -129 183
c-83 0 -125 -54 -125 -135c0 -79 43 -129 125 -129c61 0 107 40 129 81z" />
    <glyph glyph-name="zero.tosf" 
d="M280 586c166 0 244 -117 244 -299c0 -180 -79 -298 -244 -298c-167 0 -244 118 -244 298c0 182 79 299 244 299zM280 84c98 0 135 76 135 203c0 128 -37 205 -135 205s-135 -77 -135 -205c0 -127 37 -203 135 -203z" />
    <glyph glyph-name="one.tosf" 
d="M93 93h165v373l-157 -57l-28 82l198 84h91v-482h140v-93h-409v93z" />
    <glyph glyph-name="two.tosf" 
d="M75 0v69l215 181c57 47 92 86 92 141c0 57 -35 105 -106 105c-77 0 -107 -48 -107 -113h-101c0 117 73 203 208 203c147 0 212 -97 212 -187c0 -91 -55 -149 -124 -201l-136 -116h260v-82h-413z" />
    <glyph glyph-name="three.tosf" 
d="M374 246c68 -14 131 -75 131 -166c0 -113 -91 -192 -231 -192c-155 0 -225 80 -225 183h107c0 -55 43 -91 118 -91s122 41 122 105c0 71 -53 116 -142 116h-63v88h63c79 0 131 36 131 105c0 60 -41 101 -111 101c-71 0 -109 -40 -109 -91h-107c0 98 66 182 216 182
c137 0 221 -79 221 -187c0 -82 -55 -138 -121 -153z" />
    <glyph glyph-name="four.tosf" 
d="M530 40h-88v-140h-106v140h-317v79l312 457h111v-448h88v-88zM336 128v304l-204 -304h204z" />
    <glyph glyph-name="five.tosf" 
d="M502 116c0 -126 -79 -228 -231 -228c-156 0 -223 86 -223 193h107c0 -59 38 -102 115 -102c84 0 122 58 122 138c0 74 -42 124 -119 124c-44 0 -81 -17 -108 -38l-86 13l43 359h355v-88h-269l-22 -184c22 11 62 29 108 29c113 0 208 -66 208 -216z" />
    <glyph glyph-name="six.tosf" 
d="M399 504c0 56 -40 91 -105 91c-96 0 -139 -95 -139 -232c25 29 83 68 157 68c130 0 208 -85 208 -215c0 -122 -76 -227 -234 -227c-169 0 -241 138 -241 326c0 220 75 372 249 372c145 0 211 -82 211 -183h-106zM157 263c0 -98 39 -183 129 -183c83 0 125 54 125 135
c0 79 -43 129 -125 129c-61 0 -107 -40 -129 -81z" />
    <glyph glyph-name="seven.tosf" 
d="M378 488h-308v88h427v-77l-248 -599h-115z" />
    <glyph glyph-name="eight.tosf" 
d="M280 -11c-143 0 -240 69 -240 194c0 94 62 147 129 165c-65 20 -115 69 -115 150c0 115 86 189 227 189c140 0 225 -74 225 -189c0 -81 -49 -130 -114 -150c66 -18 128 -71 128 -165c0 -125 -97 -194 -240 -194zM280 595c-71 0 -117 -35 -117 -102s51 -101 117 -101
s117 34 117 101s-46 102 -117 102zM280 80c79 0 130 40 130 112c0 73 -57 111 -130 111c-74 0 -130 -38 -130 -111c0 -72 51 -112 130 -112z" />
    <glyph glyph-name="nine.tosf" 
d="M161 71c0 -56 39 -91 104 -91c97 0 140 95 140 233c-25 -28 -83 -69 -158 -69c-129 0 -207 85 -207 215c0 122 76 227 234 227c169 0 240 -138 240 -326c0 -219 -74 -371 -249 -371c-145 0 -211 82 -211 182h107zM403 312c0 98 -39 183 -129 183
c-83 0 -125 -54 -125 -135c0 -78 43 -128 125 -128c61 0 107 40 129 80z" />
    <glyph glyph-name="Euro.tf" 
d="M88 437c22 152 101 249 261 249c69 0 122 -16 175 -41l-34 -90c-39 20 -86 36 -143 36c-92 0 -135 -62 -150 -154h251l-25 -69h-232c-1 -9 -1 -19 -1 -28c0 -14 1 -27 2 -39h208l-25 -68h-174c20 -88 67 -149 153 -149c42 0 94 11 145 43l26 -93
c-51 -28 -108 -45 -176 -45c-151 0 -236 88 -260 244h-56v68h48v39v28h-48v69h55z" />
    <glyph glyph-name="cent.tf" 
d="M302 79c46 0 78 22 99 58l71 -51c-32 -64 -96 -97 -177 -97c-9 0 -18 0 -27 1l-15 -61l-54 13l15 61c-88 32 -126 121 -126 225c0 130 61 238 207 238c10 0 20 -1 30 -2l18 76l55 -13l-18 -75c40 -16 72 -44 92 -83l-72 -51c-11 19 -25 35 -42 45l-69 -283
c5 -1 9 -1 13 -1zM191 228c0 -57 13 -104 46 -129l67 278h-2c-81 0 -111 -63 -111 -149z" />
    <glyph glyph-name="sterling.tf" 
d="M99 332v111c0 130 57 243 217 243c99 0 162 -40 212 -97l-67 -69c-42 49 -84 70 -141 70c-85 0 -117 -61 -117 -147v-111h180v-68h-180v-178h281v-86h-385v264h-64v68h64z" />
    <glyph glyph-name="florin.tf" 
d="M327 -73c0 -81 -42 -153 -140 -153c-33 0 -62 5 -75 10v89c17 -5 39 -8 54 -8c49 0 63 29 63 79v424h-93v88h93v91c0 81 41 153 144 153c27 0 56 -5 70 -10v-89c-18 5 -37 8 -54 8c-46 0 -62 -26 -62 -78v-75h100v-88h-100v-441z" />
    <glyph glyph-name="yen.tf" 
d="M209 302l-35 67h-126v68h89l-127 239h118l150 -305l153 305h119l-130 -239h91v-68h-129l-36 -67h165v-69h-182v-233h-104v233h-177v69h161z" />
    <glyph glyph-name="uni20A8.tf" 
d="M512 677v-69h-123c26 -25 40 -61 44 -99h79v-69h-80c-10 -79 -71 -137 -158 -153l175 -287h-124l-164 276h-103v84h106c99 0 142 25 157 80h-262v69h264c-16 56 -53 81 -149 81h-116v86z" />
    <glyph glyph-name="dollar.tf" 
d="M514 191c0 -112 -77 -186 -196 -200v-94h-65v93c-133 7 -187 74 -213 125l77 59c22 -45 54 -84 136 -90v212l-29 8c-110 34 -157 95 -157 181c0 95 56 185 186 200v74h65v-73c97 -7 157 -51 188 -99l-77 -60c-23 35 -59 59 -111 65v-210l32 -9c111 -34 164 -91 164 -182z
M177 491c0 -46 24 -72 76 -90v188c-50 -13 -76 -51 -76 -98zM318 87c56 11 85 45 85 97c0 49 -31 76 -85 93v-190z" />
    <glyph glyph-name="zero.osf" horiz-adv-x="599" 
d="M299 586c172 0 251 -117 251 -299c0 -180 -81 -298 -251 -298c-171 0 -250 118 -250 298c0 182 80 299 250 299zM299 84c103 0 142 76 142 203c0 128 -39 205 -142 205c-102 0 -141 -77 -141 -205c0 -127 39 -203 141 -203z" />
    <glyph glyph-name="one.osf" horiz-adv-x="384" 
d="M202 0v474l-158 -64l-27 83l197 82h93v-575h-105z" />
    <glyph glyph-name="two.osf" horiz-adv-x="519" 
d="M54 0v69l215 181c57 47 93 86 93 141c0 57 -36 105 -107 105c-76 0 -106 -48 -106 -113h-102c0 117 73 203 208 203c147 0 212 -97 212 -187c0 -91 -55 -149 -123 -201l-136 -116h259v-82h-413z" />
    <glyph glyph-name="three.osf" horiz-adv-x="547" 
d="M368 246c68 -14 131 -74 131 -166c0 -113 -91 -191 -231 -191c-156 0 -225 80 -225 183h106c0 -55 44 -92 119 -92c74 0 121 42 121 106c0 71 -53 116 -141 116h-64v88h64c79 0 130 36 130 105c0 60 -41 100 -110 100c-72 0 -109 -39 -109 -91h-107c0 98 66 183 216 183
c136 0 220 -79 220 -187c0 -82 -54 -138 -120 -154z" />
    <glyph glyph-name="four.osf" horiz-adv-x="578" 
d="M539 40h-88v-140h-106v140h-316v79l311 457h111v-448h88v-88zM345 128v304l-204 -304h204z" />
    <glyph glyph-name="five.osf" horiz-adv-x="533" 
d="M489 117c0 -126 -79 -228 -231 -228c-156 0 -223 86 -223 192h106c0 -58 39 -101 116 -101c84 0 122 58 122 138c0 74 -42 124 -119 124c-45 0 -81 -17 -108 -38l-86 13l42 359h356v-88h-269l-22 -185c21 12 62 30 108 30c113 0 208 -66 208 -216z" />
    <glyph glyph-name="six.osf" horiz-adv-x="567" 
d="M402 504c0 56 -40 91 -105 91c-96 0 -139 -95 -139 -232c25 29 83 68 157 68c130 0 208 -85 208 -215c0 -122 -76 -227 -233 -227c-169 0 -241 138 -241 326c0 220 75 372 248 372c145 0 212 -82 212 -183h-107zM160 263c0 -98 39 -183 130 -183c82 0 124 54 124 135
c0 79 -43 129 -124 129c-62 0 -108 -40 -130 -81z" />
    <glyph glyph-name="seven.osf" horiz-adv-x="493" 
d="M345 488h-308v88h427v-77l-248 -599h-116z" />
    <glyph glyph-name="eight.osf" horiz-adv-x="576" 
d="M288 -11c-143 0 -240 69 -240 194c0 94 61 147 129 165c-65 20 -115 69 -115 150c0 115 86 189 226 189c141 0 226 -74 226 -189c0 -81 -50 -130 -114 -150c66 -18 127 -71 127 -165c0 -125 -96 -194 -239 -194zM288 595c-71 0 -117 -35 -117 -102s51 -101 117 -101
s117 34 117 101s-46 102 -117 102zM287 80c80 0 131 40 131 112c0 73 -57 111 -131 111c-73 0 -129 -38 -129 -111c0 -72 51 -112 129 -112z" />
    <glyph glyph-name="nine.osf" horiz-adv-x="566" 
d="M164 71c0 -56 40 -91 104 -91c98 0 140 95 140 233c-24 -28 -83 -69 -157 -69c-130 0 -208 85 -208 215c0 122 76 227 234 227c169 0 240 -138 240 -326c0 -219 -74 -371 -249 -371c-144 0 -211 82 -211 182h107zM406 312c0 98 -39 183 -129 183
c-83 0 -125 -54 -125 -135c0 -78 43 -128 125 -128c61 0 107 40 129 80z" />
    <glyph glyph-name="uni2070" unicode="&#x2070;" horiz-adv-x="362" 
d="M181 792c107 0 149 -73 149 -185c0 -111 -43 -184 -149 -184c-107 0 -150 73 -150 184c0 112 44 185 150 185zM181 484c53 0 71 41 71 123s-18 124 -71 124s-72 -42 -72 -124s19 -123 72 -123z" />
    <glyph glyph-name="uni2074" unicode="&#x2074;" horiz-adv-x="340" 
d="M316 498h-45v-68h-76v68h-178v52l174 237h80v-230h45v-59zM195 557v135l-99 -135h99z" />
    <glyph glyph-name="uni2075" unicode="&#x2075;" horiz-adv-x="321" 
d="M293 545c0 -70 -48 -121 -138 -121c-92 0 -132 44 -132 103h76c0 -26 21 -42 56 -42c40 0 60 25 60 60c0 31 -22 55 -59 55c-22 0 -42 -7 -55 -17l-60 9l25 195h211v-59h-150l-10 -79c12 6 32 12 54 12c64 0 122 -33 122 -116z" />
    <glyph glyph-name="uni2076" unicode="&#x2076;" horiz-adv-x="343" 
d="M181 731c-51 0 -72 -43 -72 -101c15 12 46 28 86 28c73 0 118 -44 118 -115c0 -65 -45 -121 -139 -121c-101 0 -143 75 -143 171c0 115 42 198 150 198c88 0 125 -45 125 -99h-76c0 24 -18 39 -49 39zM110 565c0 -46 19 -82 64 -82c41 0 62 24 62 59s-21 58 -62 58
c-32 0 -53 -17 -64 -35z" />
    <glyph glyph-name="uni2077" unicode="&#x2077;" horiz-adv-x="288" 
d="M188 728h-170v59h255v-51l-143 -306h-82z" />
    <glyph glyph-name="uni2078" unicode="&#x2078;" horiz-adv-x="348" 
d="M174 423c-86 0 -143 37 -143 104c0 46 29 74 69 86c-38 12 -62 38 -62 78c0 63 51 101 136 101s134 -38 134 -101c0 -40 -23 -66 -61 -78c39 -12 69 -39 69 -86c0 -67 -56 -104 -142 -104zM173 732c-34 0 -56 -16 -56 -45c0 -31 24 -46 56 -46c33 0 58 15 58 46
c0 29 -22 45 -58 45zM173 583c-37 0 -64 -20 -64 -51s29 -48 65 -48c35 0 64 17 64 48s-26 51 -65 51z" />
    <glyph glyph-name="uni2079" unicode="&#x2079;" horiz-adv-x="343" 
d="M113 522c0 -24 19 -39 49 -39c52 0 72 42 72 101c-15 -13 -46 -29 -86 -29c-73 0 -119 45 -119 115c0 65 46 121 140 121c101 0 143 -75 143 -172c0 -113 -41 -197 -150 -197c-86 0 -125 45 -125 100h76zM233 648c0 46 -20 83 -64 83c-42 0 -61 -24 -61 -60
c0 -35 20 -57 61 -57c32 0 53 17 64 34z" />
    <glyph glyph-name="uni2080" unicode="&#x2080;" horiz-adv-x="362" 
d="M181 263c107 0 149 -73 149 -184s-43 -185 -149 -185c-107 0 -150 74 -150 185s44 184 150 184zM181 -45c53 0 71 42 71 124s-18 124 -71 124s-72 -42 -72 -124s19 -124 72 -124z" />
    <glyph glyph-name="uni2081" unicode="&#x2081;" horiz-adv-x="245" 
d="M121 -100v289l-99 -36l-18 56l127 49h66v-358h-76z" />
    <glyph glyph-name="uni2082" unicode="&#x2082;" horiz-adv-x="317" 
d="M155 263c77 0 127 -46 127 -110c0 -49 -37 -90 -79 -131l-68 -63h150v-59h-251v50l119 116c32 30 51 57 51 87c0 29 -17 50 -49 50c-37 0 -52 -22 -52 -57h-75c0 70 41 117 127 117z" />
    <glyph glyph-name="uni2083" unicode="&#x2083;" horiz-adv-x="329" 
d="M225 82c40 -9 72 -41 72 -86c0 -60 -54 -102 -137 -102c-92 0 -133 43 -133 101h76c0 -25 21 -40 57 -40c34 0 59 17 59 45c0 32 -24 52 -72 52h-37v59h37c41 0 66 16 66 48c0 27 -20 44 -53 44c-34 0 -52 -17 -52 -39h-77c0 55 40 99 129 99c81 0 132 -41 132 -100
c0 -40 -29 -72 -67 -81z" />
    <glyph glyph-name="uni2084" unicode="&#x2084;" horiz-adv-x="341" 
d="M316 -31h-45v-69h-76v69h-178v52l174 237h80v-230h45v-59zM195 28v134l-99 -134h99z" />
    <glyph glyph-name="uni2085" unicode="&#x2085;" horiz-adv-x="321" 
d="M293 15c0 -70 -48 -121 -138 -121c-92 0 -132 44 -132 103h76c0 -26 21 -42 56 -42c40 0 60 25 60 60c0 32 -22 56 -59 56c-22 0 -42 -8 -55 -18l-60 10l25 195h211v-59h-150l-10 -79c12 5 32 11 54 11c64 0 122 -32 122 -116z" />
    <glyph glyph-name="uni2086" unicode="&#x2086;" horiz-adv-x="343" 
d="M181 203c-51 0 -72 -43 -72 -101c15 12 46 28 86 28c73 0 118 -44 118 -115c0 -65 -45 -121 -139 -121c-101 0 -143 75 -143 171c0 115 42 198 150 198c88 0 125 -45 125 -99h-76c0 24 -18 39 -49 39zM110 37c0 -46 19 -82 64 -82c41 0 62 24 62 59s-21 58 -62 58
c-32 0 -53 -17 -64 -35z" />
    <glyph glyph-name="uni2087" unicode="&#x2087;" horiz-adv-x="289" 
d="M188 199h-170v59h255v-51l-143 -307h-82z" />
    <glyph glyph-name="uni2088" unicode="&#x2088;" horiz-adv-x="348" 
d="M174 -106c-86 0 -143 37 -143 104c0 46 29 74 69 86c-38 12 -62 38 -62 78c0 63 51 101 136 101s134 -38 134 -101c0 -40 -23 -66 -61 -78c39 -12 69 -39 69 -86c0 -67 -56 -104 -142 -104zM173 203c-34 0 -56 -16 -56 -45c0 -31 24 -46 56 -46c33 0 58 15 58 46
c0 29 -22 45 -58 45zM173 54c-37 0 -64 -20 -64 -51s29 -48 65 -48c35 0 64 17 64 48s-26 51 -65 51z" />
    <glyph glyph-name="uni2089" unicode="&#x2089;" horiz-adv-x="343" 
d="M113 -6c0 -24 19 -39 49 -39c52 0 72 42 72 101c-15 -13 -46 -29 -86 -29c-73 0 -119 45 -119 115c0 65 46 121 140 121c101 0 143 -75 143 -172c0 -113 -41 -197 -150 -197c-86 0 -125 45 -125 100h76zM233 120c0 46 -20 83 -64 83c-42 0 -61 -24 -61 -60
c0 -35 20 -57 61 -57c32 0 53 17 64 34z" />
    <glyph glyph-name="zero.denom" horiz-adv-x="360" 
d="M180 363c107 0 150 -73 150 -184s-44 -185 -150 -185c-107 0 -150 74 -150 185s44 184 150 184zM180 55c53 0 71 42 71 124s-18 124 -71 124s-71 -42 -71 -124s18 -124 71 -124z" />
    <glyph glyph-name="one.denom" horiz-adv-x="243" 
d="M120 0v289l-99 -36l-19 56l128 49h66v-358h-76z" />
    <glyph glyph-name="two.denom" horiz-adv-x="315" 
d="M154 363c77 0 127 -46 127 -110c0 -49 -37 -90 -79 -131l-68 -63h150v-59h-251v50l118 116c32 30 52 57 52 87c0 29 -18 50 -49 50c-37 0 -52 -22 -52 -57h-76c0 70 42 117 128 117z" />
    <glyph glyph-name="three.denom" horiz-adv-x="326" 
d="M224 182c40 -9 72 -41 72 -86c0 -60 -54 -102 -137 -102c-93 0 -133 43 -133 101h75c0 -25 22 -40 58 -40c34 0 59 17 59 45c0 32 -25 52 -72 52h-37v59h37c41 0 66 16 66 48c0 27 -20 44 -53 44c-34 0 -52 -17 -52 -39h-77c0 55 39 99 129 99c81 0 132 -41 132 -100
c0 -40 -29 -72 -67 -81z" />
    <glyph glyph-name="four.denom" horiz-adv-x="337" 
d="M315 69h-45v-69h-76v69h-178v52l174 237h80v-230h45v-59zM194 128v134l-99 -134h99z" />
    <glyph glyph-name="five.denom" horiz-adv-x="318" 
d="M292 115c0 -70 -48 -121 -138 -121c-92 0 -132 44 -132 103h76c0 -26 20 -42 56 -42c40 0 60 25 60 60c0 32 -22 56 -60 56c-22 0 -41 -8 -54 -18l-61 10l26 195h211v-59h-150l-11 -79c13 5 33 11 55 11c63 0 122 -32 122 -116z" />
    <glyph glyph-name="six.denom" horiz-adv-x="340" 
d="M179 303c-50 0 -71 -43 -71 -101c15 12 46 28 86 28c73 0 118 -44 118 -115c0 -65 -45 -121 -139 -121c-101 0 -143 75 -143 171c0 115 42 198 149 198c89 0 125 -45 125 -99h-75c0 24 -18 39 -50 39zM108 137c0 -46 20 -82 65 -82c41 0 61 24 61 59s-20 58 -61 58
c-32 0 -54 -17 -65 -35z" />
    <glyph glyph-name="seven.denom" horiz-adv-x="285" 
d="M187 299h-170v59h255v-51l-143 -307h-82z" />
    <glyph glyph-name="eight.denom" horiz-adv-x="345" 
d="M173 -6c-86 0 -143 37 -143 104c0 46 29 74 68 86c-37 12 -61 38 -61 78c0 63 51 101 136 101s134 -38 134 -101c0 -40 -24 -66 -61 -78c39 -12 69 -39 69 -86c0 -67 -56 -104 -142 -104zM172 303c-34 0 -56 -16 -56 -45c0 -31 24 -46 56 -46c33 0 57 15 57 46
c0 29 -22 45 -57 45zM172 154c-38 0 -64 -20 -64 -51s29 -48 65 -48c35 0 63 17 63 48s-25 51 -64 51z" />
    <glyph glyph-name="nine.denom" horiz-adv-x="340" 
d="M112 94c0 -24 19 -39 49 -39c52 0 72 42 72 101c-15 -13 -46 -29 -86 -29c-73 0 -119 45 -119 115c0 65 46 121 140 121c101 0 142 -75 142 -172c0 -113 -40 -197 -149 -197c-87 0 -126 45 -126 100h77zM232 220c0 46 -20 83 -64 83c-42 0 -62 -24 -62 -60
c0 -35 21 -57 62 -57c31 0 53 17 64 34z" />
    <glyph glyph-name="zero.num" horiz-adv-x="363" 
d="M181 681c107 0 149 -73 149 -185c0 -111 -43 -184 -149 -184c-107 0 -150 73 -150 184c0 112 44 185 150 185zM181 373c53 0 71 42 71 123c0 83 -18 124 -71 124s-72 -41 -72 -124c0 -81 19 -123 72 -123z" />
    <glyph glyph-name="one.num" horiz-adv-x="246" 
d="M121 318v289l-99 -36l-18 56l127 48h66v-357h-76z" />
    <glyph glyph-name="two.num" horiz-adv-x="318" 
d="M155 681c77 0 127 -46 127 -110c0 -50 -37 -91 -79 -131l-68 -63h150v-59h-251v50l119 115c32 30 51 57 51 88c0 29 -17 49 -49 49c-37 0 -52 -22 -52 -57h-75c0 70 41 118 127 118z" />
    <glyph glyph-name="three.num" horiz-adv-x="330" 
d="M225 500c40 -9 72 -41 72 -86c0 -61 -54 -102 -137 -102c-92 0 -133 42 -133 101h76c0 -25 21 -40 57 -40c34 0 59 16 59 45c0 32 -24 52 -72 52h-37v59h37c41 0 66 16 66 47c0 27 -20 44 -53 44c-34 0 -52 -16 -52 -39h-77c0 55 40 100 129 100c81 0 132 -42 132 -101
c0 -40 -29 -71 -67 -80z" />
    <glyph glyph-name="four.num" horiz-adv-x="340" 
d="M316 386h-45v-68h-76v68h-178v52l174 237h80v-230h45v-59zM195 445v135l-99 -135h99z" />
    <glyph glyph-name="five.num" horiz-adv-x="322" 
d="M293 433c0 -70 -48 -121 -138 -121c-92 0 -132 44 -132 103h76c0 -26 21 -42 56 -42c40 0 60 25 60 60c0 31 -22 55 -59 55c-22 0 -42 -7 -55 -17l-60 9l25 195h211v-59h-150l-10 -79c12 6 32 12 54 12c64 0 122 -33 122 -116z" />
    <glyph glyph-name="six.num" horiz-adv-x="344" 
d="M181 620c-51 0 -72 -42 -72 -100c15 12 46 27 86 27c73 0 118 -44 118 -114c0 -65 -45 -121 -139 -121c-101 0 -143 74 -143 171c0 114 42 198 150 198c88 0 125 -45 125 -100h-76c0 25 -18 39 -49 39zM110 455c0 -46 19 -82 64 -82c41 0 62 23 62 59c0 35 -21 58 -62 58
c-32 0 -53 -18 -64 -35z" />
    <glyph glyph-name="seven.num" horiz-adv-x="289" 
d="M188 616h-170v59h255v-51l-143 -306h-82z" />
    <glyph glyph-name="eight.num" horiz-adv-x="349" 
d="M174 312c-86 0 -143 37 -143 103c0 47 29 75 69 86c-38 12 -62 38 -62 78c0 63 51 102 136 102s134 -39 134 -102c0 -40 -23 -66 -61 -78c39 -11 69 -39 69 -86c0 -66 -56 -103 -142 -103zM173 620c-34 0 -56 -16 -56 -45c0 -30 24 -45 56 -45c33 0 58 15 58 45
c0 29 -22 45 -58 45zM173 471c-37 0 -64 -19 -64 -50s29 -48 65 -48c35 0 64 17 64 48s-26 50 -65 50z" />
    <glyph glyph-name="nine.num" horiz-adv-x="344" 
d="M113 412c0 -25 19 -39 49 -39c52 0 72 42 72 100c-15 -12 -46 -28 -86 -28c-73 0 -119 45 -119 115c0 65 46 121 140 121c101 0 143 -76 143 -172c0 -114 -41 -197 -150 -197c-86 0 -125 44 -125 100h76zM233 538c0 46 -20 82 -64 82c-42 0 -61 -24 -61 -59
s20 -58 61 -58c32 0 53 17 64 35z" />
    <glyph glyph-name="arrowleft" unicode="&#x2190;" horiz-adv-x="750" 
d="M332 561l57 -58l-176 -177h463v-86h-463l176 -177l-57 -58l-278 278z" />
    <glyph glyph-name="arrowup" unicode="&#x2191;" horiz-adv-x="750" 
d="M653 339l-59 -58l-176 177v-464h-87v464l-176 -176l-58 57l278 278z" />
    <glyph glyph-name="arrowright" unicode="&#x2192;" horiz-adv-x="750" 
d="M418 15l-57 58l176 177h-463v86h463l-176 177l57 58l278 -278z" />
    <glyph glyph-name="arrowdown" unicode="&#x2193;" horiz-adv-x="750" 
d="M97 236l59 58l176 -177v464h87v-464l176 176l58 -57l-278 -277z" />
    <glyph glyph-name="uni2196" unicode="&#x2196;" horiz-adv-x="750" 
d="M550 519v-82h-250l328 -328l-61 -62l-328 329v-250h-82v393h393z" />
    <glyph glyph-name="uni2197" unicode="&#x2197;" horiz-adv-x="750" 
d="M593 126h-83v250l-328 -329l-61 62l328 328h-249v82h393v-393z" />
    <glyph glyph-name="uni2198" unicode="&#x2198;" horiz-adv-x="750" 
d="M197 57v82h250l-328 328l61 62l328 -329v250h82v-393h-393z" />
    <glyph glyph-name="uni2199" unicode="&#x2199;" horiz-adv-x="750" 
d="M159 450h82v-250l329 329l61 -62l-328 -328h249v-82h-393v393z" />
    <glyph glyph-name="parenleft.case" horiz-adv-x="293" 
d="M189 -122c-88 132 -143 272 -143 463c0 201 61 331 143 463l78 -30c-66 -131 -115 -269 -115 -433c0 -163 38 -289 113 -434z" />
    <glyph glyph-name="parenright.case" horiz-adv-x="293" 
d="M29 -93c75 145 113 271 113 434c0 164 -49 302 -115 433l77 30c82 -132 143 -262 143 -463c0 -191 -55 -331 -143 -463z" />
    <glyph glyph-name="hyphen.case" horiz-adv-x="395" 
d="M334 373v-86h-273v86h273z" />
    <glyph glyph-name="bracketleft.case" horiz-adv-x="329" 
d="M292 790v-85h-122v-736h122v-85h-226v906h226z" />
    <glyph glyph-name="bracketright.case" horiz-adv-x="329" 
d="M263 790v-906h-226v85h122v736h-122v85h226z" />
    <glyph glyph-name="braceleft.case" horiz-adv-x="325" 
d="M219 450c0 -85 -40 -108 -78 -113c38 -5 78 -31 78 -112v-201c0 -48 19 -62 63 -62v-78c-114 0 -167 33 -167 140v192c0 61 -31 82 -92 82v78c61 0 92 20 92 84v190c0 104 52 140 167 140v-78c-43 0 -63 -14 -63 -62v-200z" />
    <glyph glyph-name="bar.case" horiz-adv-x="200" 
d="M66 -116v906h68v-906h-68z" />
    <glyph glyph-name="braceright.case" horiz-adv-x="325" 
d="M43 -116v78c43 0 63 14 63 62v201c0 81 40 107 78 112c-38 5 -78 28 -78 113v200c0 48 -20 62 -63 62v78c114 0 167 -36 167 -140v-190c0 -64 30 -84 92 -84v-78c-61 0 -92 -21 -92 -82v-192c0 -107 -53 -140 -167 -140z" />
    <glyph glyph-name="guilsinglleft.case" horiz-adv-x="345" 
d="M225 553l64 -46l-133 -178l134 -177l-65 -45l-190 223z" />
    <glyph glyph-name="guilsinglright.case" horiz-adv-x="345" 
d="M120 107l-65 45l134 177l-134 178l65 46l189 -223z" />
    <glyph glyph-name="guillemotleft.case" horiz-adv-x="550" 
d="M225 553l64 -46l-133 -178l134 -177l-65 -45l-190 223zM430 553l64 -46l-133 -178l134 -177l-65 -45l-190 223z" />
    <glyph glyph-name="guillemotright.case" horiz-adv-x="550" 
d="M120 107l-65 45l134 177l-134 178l65 46l189 -223zM325 107l-65 45l134 177l-134 178l65 46l189 -223z" />
    <glyph glyph-name="endash.case" horiz-adv-x="595" 
d="M535 373v-86h-474v86h474z" />
    <glyph glyph-name="emdash.case" horiz-adv-x="735" 
d="M675 373v-86h-614v86h614z" />
    <glyph glyph-name="bullet.case" horiz-adv-x="389" 
d="M195 209c-73 0 -126 51 -126 120c0 70 53 121 126 121s126 -51 126 -121c0 -69 -53 -120 -126 -120z" />
    <glyph glyph-name="periodcentered.case" horiz-adv-x="258" 
d="M130 301c-44 0 -75 31 -75 71c0 42 31 73 75 73c41 0 73 -31 73 -73c0 -40 -32 -71 -73 -71z" />
    <glyph glyph-name="circle" unicode="&#x25cb;" horiz-adv-x="770" 
d="M46 338c0 206 139 348 339 348s340 -142 340 -348c0 -205 -140 -349 -340 -349s-339 144 -339 349zM119 338c0 -171 104 -278 266 -278s266 107 266 278s-104 277 -266 277s-266 -106 -266 -277z" />
    <glyph glyph-name="brokenbar.sc" horiz-adv-x="199" 
d="M70 290v292h59v-292h-59zM129 188v-290h-59v290h59z" />
    <glyph glyph-name="uni1EB8" unicode="&#x1eb8;" horiz-adv-x="542" 
d="M499 90v-90h-425v676h422v-90h-313v-198h274v-90h-274v-208h316zM271 -186c-37 0 -65 18 -65 63c0 44 28 64 65 64c32 0 64 -20 64 -64c0 -45 -32 -63 -64 -63z" />
    <glyph glyph-name="Gcaron" unicode="&#x1e6;" horiz-adv-x="644" 
d="M294 740l-102 160h91l61 -95l60 95h91l-101 -160h-100zM342 365h261c3 -19 5 -47 5 -58c0 -173 -75 -317 -270 -317c-190 0 -292 118 -292 348c0 228 101 348 305 348c105 0 181 -47 220 -119l-82 -54c-30 49 -71 79 -142 79c-137 0 -188 -92 -188 -254
c0 -174 54 -255 179 -255c117 0 159 85 159 191h-155v91z" />
    <glyph glyph-name="uni021E" unicode="&#x21e;" horiz-adv-x="678" 
d="M290 740l-102 160h91l61 -95l60 95h91l-101 -160h-100zM496 676h108v-676h-108v307h-313v-307h-109v676h109v-279h313v279z" />
    <glyph glyph-name="uni1E24" unicode="&#x1e24;" horiz-adv-x="678" 
d="M496 676h108v-676h-108v307h-313v-307h-109v676h109v-279h313v279zM340 -186c-37 0 -65 18 -65 63c0 44 28 64 65 64c32 0 64 -20 64 -64c0 -45 -32 -63 -64 -63z" />
    <glyph glyph-name="uni1ECA" unicode="&#x1eca;" horiz-adv-x="258" 
d="M74 676h109v-676h-109v676zM130 -186c-37 0 -65 18 -65 63c0 44 28 64 65 64c32 0 64 -20 64 -64c0 -45 -32 -63 -64 -63z" />
    <glyph glyph-name="uni1E36" unicode="&#x1e36;" horiz-adv-x="479" 
d="M462 90v-90h-388v676h109v-586h279zM259 -186c-37 0 -65 18 -65 63c0 44 28 64 65 64c32 0 64 -20 64 -64c0 -45 -32 -63 -64 -63z" />
    <glyph glyph-name="uni1E44" unicode="&#x1e44;" horiz-adv-x="679" 
d="M340 748c-37 0 -65 18 -65 63c0 44 28 64 65 64c32 0 64 -20 64 -64c0 -45 -32 -63 -64 -63zM497 676h108v-676h-113l-309 503l1 -503h-110v676h116l307 -498v498z" />
    <glyph glyph-name="uni1ECC" unicode="&#x1ecc;" horiz-adv-x="657" 
d="M610 337c0 -200 -78 -347 -283 -347s-281 147 -281 347s76 349 283 349c206 0 281 -149 281 -349zM159 337c0 -150 36 -253 168 -253c134 0 171 103 171 253c0 151 -38 255 -169 255c-130 0 -170 -104 -170 -255zM329 -186c-37 0 -65 18 -65 63c0 44 28 64 65 64
c32 0 64 -20 64 -64c0 -45 -32 -63 -64 -63z" />
    <glyph glyph-name="uni1E62" unicode="&#x1e62;" horiz-adv-x="544" 
d="M419 526c-27 41 -72 66 -137 66c-75 0 -113 -43 -113 -101c0 -48 26 -74 83 -92l88 -26c111 -34 163 -91 163 -181c0 -125 -94 -203 -236 -203c-151 0 -210 72 -237 126l77 60c24 -49 60 -92 160 -92c81 0 124 41 124 101c0 51 -33 77 -89 94l-88 26
c-110 34 -158 95 -158 181c0 104 68 201 226 201c113 0 180 -48 214 -100zM273 -186c-37 0 -65 18 -65 63c0 44 28 64 65 64c32 0 64 -20 64 -64c0 -45 -32 -63 -64 -63z" />
    <glyph glyph-name="uni1E9E" unicode="&#x1e9e;" horiz-adv-x="652" 
d="M478 348c94 -37 133 -89 133 -174c0 -120 -83 -183 -200 -183c-112 0 -169 55 -199 96l70 68c26 -36 61 -72 126 -72c59 0 90 33 90 81c0 46 -18 74 -64 93l-155 63v72l171 166c-34 22 -73 34 -124 34c-105 0 -148 -57 -148 -172v-420h-109v421c0 189 104 265 260 265
c97 0 168 -27 228 -76v-78l-157 -153z" />
    <glyph glyph-name="uni0162" unicode="&#x162;" horiz-adv-x="543" 
d="M326 0h-21l-20 -50c51 0 94 -21 94 -81c0 -50 -42 -85 -109 -85c-37 0 -67 10 -93 23v66c24 -17 56 -30 85 -30c24 0 37 11 37 26c0 21 -18 28 -49 28h-40l-5 6l35 97h-23v586h-188v90h484v-90h-187v-586z" />
    <glyph glyph-name="uni01D3" unicode="&#x1d3;" horiz-adv-x="647" 
d="M274 740l-102 160h91l61 -95l60 95h91l-101 -160h-100zM324 -10c-151 0 -255 76 -255 265v421h109v-420c0 -120 48 -172 146 -172c97 0 146 51 146 172v420h109v-421c0 -189 -106 -265 -255 -265z" />
    <glyph glyph-name="uni1EE4" unicode="&#x1ee4;" horiz-adv-x="647" 
d="M324 -10c-151 0 -255 76 -255 265v421h109v-420c0 -120 48 -172 146 -172c97 0 146 51 146 172v420h109v-421c0 -189 -106 -265 -255 -265zM325 -186c-37 0 -65 18 -65 63c0 44 28 64 65 64c32 0 64 -20 64 -64c0 -45 -32 -63 -64 -63z" />
    <glyph glyph-name="uni1EB9" unicode="&#x1eb9;" horiz-adv-x="471" 
d="M256 76c39 0 84 14 119 45l48 -66c-32 -35 -95 -66 -167 -66c-153 0 -217 100 -217 239c0 131 68 238 207 238c134 0 187 -97 187 -195c0 -23 -2 -56 -7 -75h-285c2 -73 38 -120 115 -120zM338 270c1 6 1 13 1 17c0 61 -38 97 -93 97c-72 0 -101 -50 -105 -114h197z
M236 -186c-37 0 -65 18 -65 63c0 44 28 64 65 64c32 0 64 -20 64 -64c0 -45 -32 -63 -64 -63z" />
    <glyph glyph-name="gcaron" unicode="&#x1e7;" horiz-adv-x="515" 
d="M222 536l-102 160h91l61 -95l60 95h91l-101 -160h-100zM454 456v-487c0 -100 -75 -174 -199 -174c-122 0 -184 64 -184 144h89c0 -31 33 -63 95 -63c64 0 98 35 98 88v78c-27 -31 -72 -53 -119 -53c-130 0 -193 90 -193 240c0 149 66 237 193 237c62 0 100 -24 125 -51
v41h95zM142 229c0 -82 25 -147 113 -147c42 0 78 19 98 44v205c-14 18 -46 42 -98 42c-87 0 -113 -60 -113 -144z" />
    <glyph glyph-name="uni021F" unicode="&#x21f;" horiz-adv-x="518" 
d="M219 731l-102 160h91l61 -95l60 95h91l-101 -160h-100zM61 690h100v-281c27 29 73 57 143 57c108 0 158 -62 158 -178v-288h-101v278c0 63 -23 95 -93 95c-45 0 -85 -20 -107 -43v-330h-100v690z" />
    <glyph glyph-name="uni1E25" unicode="&#x1e25;" horiz-adv-x="518" 
d="M61 690h100v-281c27 29 73 57 143 57c108 0 158 -62 158 -178v-288h-101v278c0 63 -23 95 -93 95c-45 0 -85 -20 -107 -43v-330h-100v690zM260 -186c-37 0 -65 18 -65 63c0 44 28 64 65 64c32 0 64 -20 64 -64c0 -45 -32 -63 -64 -63z" />
    <glyph glyph-name="uni1ECB" unicode="&#x1ecb;" horiz-adv-x="224" 
d="M111 554c-37 0 -65 18 -65 63c0 44 28 64 65 64c32 0 64 -20 64 -64c0 -45 -32 -63 -64 -63zM62 456h100v-456h-100v456zM112 -186c-37 0 -65 18 -65 63c0 44 28 64 65 64c32 0 64 -20 64 -64c0 -45 -32 -63 -64 -63z" />
    <glyph glyph-name="uni1E37" unicode="&#x1e37;" horiz-adv-x="244" 
d="M158 690v-551c0 -35 10 -50 42 -50h24v-93h-54c-86 0 -112 53 -112 129v565h100zM122 -186c-37 0 -65 18 -65 63c0 44 28 64 65 64c32 0 64 -20 64 -64c0 -45 -32 -63 -64 -63z" />
    <glyph glyph-name="uni1E45" unicode="&#x1e45;" horiz-adv-x="518" 
d="M260 544c-37 0 -65 18 -65 63c0 44 28 64 65 64c32 0 64 -20 64 -64c0 -45 -32 -63 -64 -63zM61 456h97v-53c26 36 76 63 145 63c108 0 158 -62 158 -178v-288h-100v278c0 63 -24 95 -94 95c-44 0 -85 -20 -106 -43v-330h-100v456z" />
    <glyph glyph-name="uni1ECD" unicode="&#x1ecd;" horiz-adv-x="500" 
d="M251 466c144 0 209 -101 209 -237c0 -139 -64 -240 -213 -240c-141 0 -208 102 -208 238c0 138 65 239 212 239zM249 80c76 0 109 56 109 147c0 94 -33 148 -109 148c-75 0 -107 -54 -107 -146c0 -95 33 -149 107 -149zM250 -186c-37 0 -65 18 -65 63c0 44 28 64 65 64
c32 0 64 -20 64 -64c0 -45 -32 -63 -64 -63z" />
    <glyph glyph-name="uni1E63" unicode="&#x1e63;" horiz-adv-x="433" 
d="M332 340c-25 28 -63 49 -112 49c-53 0 -75 -26 -75 -57c0 -25 13 -44 49 -52l77 -18c87 -20 128 -65 128 -131c0 -74 -53 -142 -190 -142c-97 0 -152 42 -180 77l59 61c25 -29 60 -61 124 -61c50 0 85 19 85 57c0 27 -21 43 -58 52l-79 20c-77 19 -116 65 -116 128
c0 66 48 143 179 143c87 0 138 -34 167 -66zM217 -186c-37 0 -65 18 -65 63c0 44 28 64 65 64c32 0 64 -20 64 -64c0 -45 -32 -63 -64 -63z" />
    <glyph glyph-name="uni0163" unicode="&#x163;" horiz-adv-x="345" 
d="M219 -50c51 0 94 -21 94 -81c0 -50 -42 -85 -109 -85c-37 0 -67 10 -92 23v66c23 -17 56 -30 84 -30c25 0 37 11 37 26c0 21 -18 28 -49 28h-39l-5 6l33 95c-50 19 -71 67 -71 130v242h-84v76l84 10v113l101 16v-129h112v-86h-112v-229c0 -38 18 -59 55 -59
c18 0 41 5 59 12l5 -88c-21 -8 -55 -16 -87 -17z" />
    <glyph glyph-name="uni01D4" unicode="&#x1d4;" horiz-adv-x="518" 
d="M209 536l-102 160h91l61 -95l60 95h91l-101 -160h-100zM457 0h-97v53c-26 -36 -76 -63 -145 -63c-108 0 -158 62 -158 178v288h100v-278c0 -63 24 -95 94 -95c44 0 85 20 106 43v330h100v-456z" />
    <glyph glyph-name="uni1EE5" unicode="&#x1ee5;" horiz-adv-x="518" 
d="M457 0h-97v53c-26 -36 -76 -63 -145 -63c-108 0 -158 62 -158 178v288h100v-278c0 -63 24 -95 94 -95c44 0 85 20 106 43v330h100v-456zM260 -186c-37 0 -65 18 -65 63c0 44 28 64 65 64c32 0 64 -20 64 -64c0 -45 -32 -63 -64 -63z" />
    <glyph glyph-name="a.ss01" horiz-adv-x="518" 
d="M361 456h96v-456h-96v40c-27 -28 -72 -50 -130 -50c-126 0 -190 89 -190 239c0 147 63 237 190 237c59 0 101 -20 130 -50v40zM143 229c0 -83 27 -147 113 -147c49 0 82 20 100 43v206c-18 22 -49 43 -100 43c-86 0 -113 -63 -113 -145z" />
    <glyph glyph-name="aacute.ss01" horiz-adv-x="518" 
d="M392 696l-87 -160h-91l74 160h104zM361 456h96v-456h-96v40c-27 -28 -72 -50 -130 -50c-126 0 -190 89 -190 239c0 147 63 237 190 237c59 0 101 -20 130 -50v40zM143 229c0 -83 27 -147 113 -147c49 0 82 20 100 43v206c-18 22 -49 43 -100 43c-86 0 -113 -63 -113 -145
z" />
    <glyph glyph-name="abreve.ss01" horiz-adv-x="518" 
d="M411 686c0 -82 -53 -146 -148 -146c-92 0 -143 64 -143 146h66c5 -42 34 -72 77 -72c46 0 74 30 79 72h69zM361 456h96v-456h-96v40c-27 -28 -72 -50 -130 -50c-126 0 -190 89 -190 239c0 147 63 237 190 237c59 0 101 -20 130 -50v40zM143 229c0 -83 27 -147 113 -147
c49 0 82 20 100 43v206c-18 22 -49 43 -100 43c-86 0 -113 -63 -113 -145z" />
    <glyph glyph-name="acircumflex.ss01" horiz-adv-x="518" 
d="M315 696l101 -160h-91l-60 95l-61 -95h-91l102 160h100zM361 456h96v-456h-96v40c-27 -28 -72 -50 -130 -50c-126 0 -190 89 -190 239c0 147 63 237 190 237c59 0 101 -20 130 -50v40zM143 229c0 -83 27 -147 113 -147c49 0 82 20 100 43v206c-18 22 -49 43 -100 43
c-86 0 -113 -63 -113 -145z" />
    <glyph glyph-name="adieresis.ss01" horiz-adv-x="518" 
d="M170 544c-37 0 -64 18 -64 63c0 44 27 64 64 64c33 0 64 -20 64 -64c0 -45 -31 -63 -64 -63zM360 544c-37 0 -64 18 -64 63c0 44 27 64 64 64c32 0 64 -20 64 -64c0 -45 -32 -63 -64 -63zM361 456h96v-456h-96v40c-27 -28 -72 -50 -130 -50c-126 0 -190 89 -190 239
c0 147 63 237 190 237c59 0 101 -20 130 -50v40zM143 229c0 -83 27 -147 113 -147c49 0 82 20 100 43v206c-18 22 -49 43 -100 43c-86 0 -113 -63 -113 -145z" />
    <glyph glyph-name="agrave.ss01" horiz-adv-x="518" 
d="M252 696l74 -160h-91l-87 160h104zM361 456h96v-456h-96v40c-27 -28 -72 -50 -130 -50c-126 0 -190 89 -190 239c0 147 63 237 190 237c59 0 101 -20 130 -50v40zM143 229c0 -83 27 -147 113 -147c49 0 82 20 100 43v206c-18 22 -49 43 -100 43c-86 0 -113 -63 -113 -145
z" />
    <glyph glyph-name="amacron.ss01" horiz-adv-x="518" 
d="M410 647v-82h-290v82h290zM361 456h96v-456h-96v40c-27 -28 -72 -50 -130 -50c-126 0 -190 89 -190 239c0 147 63 237 190 237c59 0 101 -20 130 -50v40zM143 229c0 -83 27 -147 113 -147c49 0 82 20 100 43v206c-18 22 -49 43 -100 43c-86 0 -113 -63 -113 -145z" />
    <glyph glyph-name="aring.ss01" horiz-adv-x="518" 
d="M158 621c0 53 37 98 105 98c71 0 109 -45 109 -98c0 -50 -38 -97 -109 -97c-68 0 -105 47 -105 97zM218 621c0 -24 16 -44 45 -44c32 0 48 20 48 44s-16 44 -48 44c-29 0 -45 -20 -45 -44zM361 456h96v-456h-96v40c-27 -28 -72 -50 -130 -50c-126 0 -190 89 -190 239
c0 147 63 237 190 237c59 0 101 -20 130 -50v40zM143 229c0 -83 27 -147 113 -147c49 0 82 20 100 43v206c-18 22 -49 43 -100 43c-86 0 -113 -63 -113 -145z" />
    <glyph glyph-name="aringacute.ss01" horiz-adv-x="518" 
d="M159 610c0 47 29 86 82 96l42 75h101l-64 -86c34 -16 53 -48 53 -85c0 -50 -38 -96 -109 -96c-68 0 -105 46 -105 96zM219 610c0 -23 16 -42 45 -42c31 0 48 19 48 42c0 24 -17 45 -48 45c-29 0 -45 -21 -45 -45zM361 456h96v-456h-96v40c-27 -28 -72 -50 -130 -50
c-126 0 -190 89 -190 239c0 147 63 237 190 237c59 0 101 -20 130 -50v40zM143 229c0 -83 27 -147 113 -147c49 0 82 20 100 43v206c-18 22 -49 43 -100 43c-86 0 -113 -63 -113 -145z" />
    <glyph glyph-name="atilde.ss01" horiz-adv-x="518" 
d="M405 568c-21 15 -44 25 -69 25c-50 0 -89 -40 -148 -40c-30 0 -56 12 -68 23l4 76c16 -17 36 -25 64 -25c51 0 82 40 148 40c35 0 57 -12 73 -23zM361 456h96v-456h-96v40c-27 -28 -72 -50 -130 -50c-126 0 -190 89 -190 239c0 147 63 237 190 237c59 0 101 -20 130 -50
v40zM143 229c0 -83 27 -147 113 -147c49 0 82 20 100 43v206c-18 22 -49 43 -100 43c-86 0 -113 -63 -113 -145z" />
    <glyph glyph-name="aogonek.ss02" horiz-adv-x="518" 
d="M386 -54c-20 -16 -32 -31 -32 -48c0 -19 14 -34 38 -34c17 0 44 11 65 26v-83c-24 -13 -52 -23 -93 -23c-69 0 -113 35 -113 93c0 40 21 70 59 101l51 41v21c-27 -28 -72 -50 -130 -50c-126 0 -190 89 -190 239c0 147 63 237 190 237c59 0 101 -20 130 -50v40h96v-456z
M356 125v206c-18 22 -49 43 -100 43c-86 0 -113 -63 -113 -145c0 -83 27 -147 113 -147c49 0 82 20 100 43z" />
    <glyph glyph-name="g.ss02" horiz-adv-x="492" 
d="M465 381h-73c23 -21 36 -51 36 -89c0 -99 -70 -153 -186 -153c-29 0 -54 3 -68 6c-5 -8 -12 -22 -12 -34c0 -20 12 -32 46 -32h80c109 0 168 -42 168 -130c0 -94 -82 -162 -228 -162c-140 0 -202 54 -202 119c0 51 41 93 76 103c-20 9 -34 38 -34 62c0 38 24 70 48 91
c-44 24 -75 68 -75 136c0 102 67 168 201 168c45 0 81 -9 101 -17l122 12v-80zM239 212c71 0 97 30 97 84c0 53 -29 85 -97 85c-73 0 -102 -32 -102 -85c0 -52 27 -84 102 -84zM157 -5c-22 -13 -37 -35 -37 -62c0 -40 28 -68 108 -68c82 0 127 25 127 73c0 30 -18 57 -72 57
h-126z" />
    <glyph glyph-name="gbreve.ss02" horiz-adv-x="492" 
d="M385 686c0 -82 -53 -146 -148 -146c-92 0 -143 64 -143 146h66c5 -42 34 -72 77 -72c46 0 74 30 79 72h69zM465 381h-73c23 -21 36 -51 36 -89c0 -99 -70 -153 -186 -153c-29 0 -54 3 -68 6c-5 -8 -12 -22 -12 -34c0 -20 12 -32 46 -32h80c109 0 168 -42 168 -130
c0 -94 -82 -162 -228 -162c-140 0 -202 54 -202 119c0 51 41 93 76 103c-20 9 -34 38 -34 62c0 38 24 70 48 91c-44 24 -75 68 -75 136c0 102 67 168 201 168c45 0 81 -9 101 -17l122 12v-80zM239 212c71 0 97 30 97 84c0 53 -29 85 -97 85c-73 0 -102 -32 -102 -85
c0 -52 27 -84 102 -84zM157 -5c-22 -13 -37 -35 -37 -62c0 -40 28 -68 108 -68c82 0 127 25 127 73c0 30 -18 57 -72 57h-126z" />
    <glyph glyph-name="gcircumflex.ss02" horiz-adv-x="492" 
d="M296 696l102 -160h-91l-61 95l-60 -95h-91l101 160h100zM465 381h-73c23 -21 36 -51 36 -89c0 -99 -70 -153 -186 -153c-29 0 -54 3 -68 6c-5 -8 -12 -22 -12 -34c0 -20 12 -32 46 -32h80c109 0 168 -42 168 -130c0 -94 -82 -162 -228 -162c-140 0 -202 54 -202 119
c0 51 41 93 76 103c-20 9 -34 38 -34 62c0 38 24 70 48 91c-44 24 -75 68 -75 136c0 102 67 168 201 168c45 0 81 -9 101 -17l122 12v-80zM239 212c71 0 97 30 97 84c0 53 -29 85 -97 85c-73 0 -102 -32 -102 -85c0 -52 27 -84 102 -84zM157 -5c-22 -13 -37 -35 -37 -62
c0 -40 28 -68 108 -68c82 0 127 25 127 73c0 30 -18 57 -72 57h-126z" />
    <glyph glyph-name="uni0123.ss02" horiz-adv-x="492" 
d="M246 732h78l-26 -179h-113zM465 381h-73c23 -21 36 -51 36 -89c0 -99 -70 -153 -186 -153c-29 0 -54 3 -68 6c-5 -8 -12 -22 -12 -34c0 -20 12 -32 46 -32h80c109 0 168 -42 168 -130c0 -94 -82 -162 -228 -162c-140 0 -202 54 -202 119c0 51 41 93 76 103
c-20 9 -34 38 -34 62c0 38 24 70 48 91c-44 24 -75 68 -75 136c0 102 67 168 201 168c45 0 81 -9 101 -17l122 12v-80zM239 212c71 0 97 30 97 84c0 53 -29 85 -97 85c-73 0 -102 -32 -102 -85c0 -52 27 -84 102 -84zM157 -5c-22 -13 -37 -35 -37 -62c0 -40 28 -68 108 -68
c82 0 127 25 127 73c0 30 -18 57 -72 57h-126z" />
    <glyph glyph-name="gdotaccent.ss02" horiz-adv-x="492" 
d="M238 544c-37 0 -65 18 -65 63c0 44 28 64 65 64c33 0 64 -20 64 -64c0 -45 -31 -63 -64 -63zM465 381h-73c23 -21 36 -51 36 -89c0 -99 -70 -153 -186 -153c-29 0 -54 3 -68 6c-5 -8 -12 -22 -12 -34c0 -20 12 -32 46 -32h80c109 0 168 -42 168 -130
c0 -94 -82 -162 -228 -162c-140 0 -202 54 -202 119c0 51 41 93 76 103c-20 9 -34 38 -34 62c0 38 24 70 48 91c-44 24 -75 68 -75 136c0 102 67 168 201 168c45 0 81 -9 101 -17l122 12v-80zM239 212c71 0 97 30 97 84c0 53 -29 85 -97 85c-73 0 -102 -32 -102 -85
c0 -52 27 -84 102 -84zM157 -5c-22 -13 -37 -35 -37 -62c0 -40 28 -68 108 -68c82 0 127 25 127 73c0 30 -18 57 -72 57h-126z" />
    <glyph glyph-name="uni0163.sc" horiz-adv-x="459" 
d="M281 0h-19l-20 -50c51 0 94 -21 94 -81c0 -50 -42 -85 -109 -85c-37 0 -67 10 -92 23v66c23 -17 56 -30 84 -30c25 0 37 11 37 26c0 21 -18 28 -48 28h-40l-5 6l34 97h-18v427h-148v80h398v-80h-148v-427z" />
    <glyph glyph-name="uni0410" unicode="&#x410;" horiz-adv-x="616" 
d="M439 165h-263l-55 -165h-116l239 676h127l240 -676h-117zM205 256h206l-103 308z" />
    <glyph glyph-name="uni0411" unicode="&#x411;" horiz-adv-x="582" 
d="M74 0v676h402v-90h-293v-177h122c157 0 236 -79 236 -205s-79 -204 -236 -204h-231zM183 90h115c97 0 130 49 130 114s-33 114 -130 114h-115v-228z" />
    <glyph glyph-name="uni0412" unicode="&#x412;" horiz-adv-x="588" 
d="M74 676h223c153 0 216 -70 216 -175c0 -78 -39 -127 -100 -145c69 -14 134 -67 134 -167c0 -138 -94 -189 -245 -189h-228v676zM283 394c88 0 117 39 117 99c0 57 -30 93 -118 93h-99v-192h100zM296 90c99 0 139 34 139 106c0 66 -39 108 -139 108h-113v-214h113z" />
    <glyph glyph-name="uni0413" unicode="&#x413;" horiz-adv-x="514" 
d="M74 676h410v-90h-301v-586h-109v676z" />
    <glyph glyph-name="uni0403" unicode="&#x403;" horiz-adv-x="514" 
d="M409 900l-87 -160h-91l74 160h104zM74 676h410v-90h-301v-586h-109v676z" />
    <glyph glyph-name="uni0490" unicode="&#x490;" horiz-adv-x="530" 
d="M74 0v676h318v123h109v-213h-318v-586h-109z" />
    <glyph glyph-name="uni0414" unicode="&#x414;" horiz-adv-x="664" 
d="M573 90h70v-213h-109v123h-429v-123h-109v213h49c30 16 48 70 57 196l28 390h443v-586zM175 90h289v496h-231l-23 -325c-5 -74 -17 -130 -35 -171z" />
    <glyph glyph-name="uni0415" unicode="&#x415;" horiz-adv-x="542" 
d="M499 90v-90h-425v676h422v-90h-313v-198h274v-90h-274v-208h316z" />
    <glyph glyph-name="uni0400" unicode="&#x400;" horiz-adv-x="542" 
d="M264 900l74 -160h-91l-87 160h104zM499 90v-90h-425v676h422v-90h-313v-198h274v-90h-274v-208h316z" />
    <glyph glyph-name="uni0401" unicode="&#x401;" horiz-adv-x="542" 
d="M192 748c-37 0 -64 18 -64 63c0 44 27 64 64 64c32 0 64 -20 64 -64c0 -45 -32 -63 -64 -63zM382 748c-37 0 -65 18 -65 63c0 44 28 64 65 64c32 0 64 -20 64 -64c0 -45 -32 -63 -64 -63zM499 90v-90h-425v676h422v-90h-313v-198h274v-90h-274v-208h316z" />
    <glyph glyph-name="uni0416" unicode="&#x416;" horiz-adv-x="894" 
d="M11 0l234 342l-230 334h127l194 -292h57v292h109v-292h56l194 292h127l-230 -334l234 -342h-133l-192 295h-56v-295h-109v295h-57l-192 -295h-133z" />
    <glyph glyph-name="uni0417" unicode="&#x417;" horiz-adv-x="542" 
d="M364 346c70 -14 137 -75 137 -166c0 -113 -95 -191 -239 -191c-160 0 -233 80 -233 183h106c0 -55 47 -92 127 -92c78 0 129 42 129 106c0 71 -57 116 -150 116h-65v88h65c82 0 139 36 139 105c0 60 -45 100 -118 100c-76 0 -117 -39 -117 -91h-107c0 98 69 183 224 183
c140 0 228 -79 228 -187c0 -81 -58 -138 -126 -154z" />
    <glyph glyph-name="uni0418" unicode="&#x418;" horiz-adv-x="679" 
d="M182 676v-498l307 498h115l1 -676h-110v503l-309 -503h-112v676h108z" />
    <glyph glyph-name="uni0419" unicode="&#x419;" horiz-adv-x="679" 
d="M464 877c0 -86 -52 -145 -147 -145c-92 0 -144 59 -144 145h78c0 -47 22 -79 66 -79c46 0 67 32 67 79h80zM182 676v-498l307 498h115l1 -676h-110v503l-309 -503h-112v676h108z" />
    <glyph glyph-name="uni040D" unicode="&#x40d;" horiz-adv-x="679" 
d="M296 900l74 -160h-91l-87 160h104zM182 676v-498l307 498h115l1 -676h-110v503l-309 -503h-112v676h108z" />
    <glyph glyph-name="uni041A" unicode="&#x41a;" horiz-adv-x="588" 
d="M444 0l-191 295h-70v-295h-109v676h109v-292h70l193 292h127l-229 -334l233 -342h-133z" />
    <glyph glyph-name="uni040C" unicode="&#x40c;" horiz-adv-x="588" 
d="M423 900l-87 -160h-91l74 160h104zM444 0l-191 295h-70v-295h-109v676h109v-292h70l193 292h127l-229 -334l233 -342h-133z" />
    <glyph glyph-name="uni041B" unicode="&#x41b;" horiz-adv-x="671" 
d="M6 89c9 -3 23 -5 37 -5c46 0 72 33 84 202l27 390h443v-676h-109v586h-231l-23 -328c-14 -214 -81 -268 -170 -268c-33 0 -60 5 -77 11z" />
    <glyph glyph-name="uni041C" unicode="&#x41c;" horiz-adv-x="857" 
d="M591 676h144l80 -676h-104l-59 549l-165 -549h-119l-158 546l-65 -546h-104l86 676h146l157 -541z" />
    <glyph glyph-name="uni041D" unicode="&#x41d;" horiz-adv-x="678" 
d="M496 676h108v-676h-108v307h-313v-307h-109v676h109v-279h313v279z" />
    <glyph glyph-name="uni041E" unicode="&#x41e;" horiz-adv-x="657" 
d="M610 337c0 -200 -78 -347 -283 -347s-281 147 -281 347s76 349 283 349c206 0 281 -149 281 -349zM159 337c0 -150 36 -253 168 -253c134 0 171 103 171 253c0 151 -38 255 -169 255c-130 0 -170 -104 -170 -255z" />
    <glyph glyph-name="uni041F" unicode="&#x41f;" horiz-adv-x="664" 
d="M589 676v-676h-109v586h-297v-586h-109v676h515z" />
    <glyph glyph-name="uni0420" unicode="&#x420;" horiz-adv-x="570" 
d="M183 256v-256h-109v676h226c157 0 236 -78 236 -210c0 -131 -79 -210 -236 -210h-117zM183 346h110c97 0 130 49 130 120s-33 120 -130 120h-110v-240z" />
    <glyph glyph-name="uni0421" unicode="&#x421;" horiz-adv-x="588" 
d="M159 337c0 -152 52 -253 178 -253c62 0 113 35 138 83l84 -54c-41 -73 -117 -123 -226 -123c-193 0 -287 131 -287 348s94 348 287 348c109 0 185 -50 226 -123l-84 -54c-25 48 -76 83 -138 83c-126 0 -178 -101 -178 -255z" />
    <glyph glyph-name="uni0422" unicode="&#x422;" horiz-adv-x="543" 
d="M513 676v-90h-187v-586h-109v586h-188v90h484z" />
    <glyph glyph-name="uni0423" unicode="&#x423;" horiz-adv-x="550" 
d="M433 676h115l-323 -676h-114l120 251l-220 425h117l160 -316z" />
    <glyph glyph-name="uni040E" unicode="&#x40e;" horiz-adv-x="550" 
d="M278 732c-92 0 -144 59 -144 145h78c0 -47 22 -79 66 -79c46 0 67 32 67 79h80c0 -86 -52 -145 -147 -145zM433 676h115l-323 -676h-114l120 251l-220 425h117l160 -316z" />
    <glyph glyph-name="uni0424" unicode="&#x424;" horiz-adv-x="750" 
d="M708 337c0 -162 -83 -283 -278 -285v-72h-109v72c-191 2 -279 116 -279 285c0 163 79 285 279 287v72h109v-72c198 -2 278 -124 278 -287zM430 145c124 3 166 80 166 192c0 113 -43 192 -166 194v-386zM155 337c0 -114 41 -190 166 -192v386c-122 -3 -166 -81 -166 -194z
" />
    <glyph glyph-name="uni0425" unicode="&#x425;" horiz-adv-x="584" 
d="M143 676l148 -255l150 255h123l-200 -327l208 -349h-124l-157 270l-156 -270h-123l208 349l-201 327h124z" />
    <glyph glyph-name="uni0427" unicode="&#x427;" horiz-adv-x="583" 
d="M399 676h109v-676h-109v273c-32 -12 -92 -26 -156 -26c-144 0 -199 70 -199 197v232h109v-221c0 -72 25 -112 121 -112c52 0 99 10 125 22v311z" />
    <glyph glyph-name="uni0426" unicode="&#x426;" horiz-adv-x="681" 
d="M74 0v676h109v-586h297v586h109v-586h71v-213h-109v123h-477z" />
    <glyph glyph-name="uni0428" unicode="&#x428;" horiz-adv-x="1029" 
d="M74 0v676h109v-586h277v586h109v-586h276v586h109v-676h-880z" />
    <glyph glyph-name="uni0429" unicode="&#x429;" horiz-adv-x="1046" 
d="M954 90h71v-213h-109v123h-842v676h109v-586h277v586h109v-586h276v586h109v-586z" />
    <glyph glyph-name="uni040F" unicode="&#x40f;" horiz-adv-x="664" 
d="M74 0v676h109v-586h297v586h109v-676h-203v-123h-109v123h-203z" />
    <glyph glyph-name="uni042C" unicode="&#x42c;" horiz-adv-x="571" 
d="M183 409h122c157 0 236 -79 236 -205s-79 -204 -236 -204h-231v676h109v-267zM183 318v-228h115c97 0 130 49 130 114s-33 114 -130 114h-115z" />
    <glyph glyph-name="uni042A" unicode="&#x42a;" horiz-adv-x="682" 
d="M29 586v90h265v-267h121c157 0 236 -79 236 -205s-79 -204 -236 -204h-230v586h-156zM294 90h114c97 0 131 49 131 114s-34 114 -131 114h-114v-228z" />
    <glyph glyph-name="uni042B" unicode="&#x42b;" horiz-adv-x="809" 
d="M183 409h122c157 0 236 -79 236 -205s-79 -204 -236 -204h-231v676h109v-267zM626 676h109v-676h-109v676zM183 318v-228h115c97 0 130 49 130 114s-33 114 -130 114h-115z" />
    <glyph glyph-name="uni0409" unicode="&#x409;" horiz-adv-x="973" 
d="M-13 1l19 88c9 -3 23 -5 37 -5c46 0 72 33 84 202l27 390h431v-267h121c157 0 236 -79 236 -205s-79 -204 -236 -204h-230v586h-219l-23 -328c-14 -214 -81 -268 -170 -268c-33 0 -60 5 -77 11zM585 90h114c97 0 131 49 131 114s-34 114 -131 114h-114v-228z" />
    <glyph glyph-name="uni040A" unicode="&#x40a;" horiz-adv-x="980" 
d="M714 409c156 0 235 -79 235 -205s-79 -204 -235 -204h-231v307h-300v-307h-109v676h109v-279h300v279h109v-267h122zM706 90c98 0 131 49 131 114s-33 114 -131 114h-114v-228h114z" />
    <glyph glyph-name="uni0405" unicode="&#x405;" horiz-adv-x="544" 
d="M419 526c-27 41 -72 66 -137 66c-75 0 -113 -43 -113 -101c0 -48 26 -74 83 -92l88 -26c111 -34 163 -91 163 -181c0 -125 -94 -203 -236 -203c-151 0 -210 72 -237 126l77 60c24 -49 60 -92 160 -92c81 0 124 41 124 101c0 51 -33 77 -89 94l-88 26
c-110 34 -158 95 -158 181c0 104 68 201 226 201c113 0 180 -48 214 -100z" />
    <glyph glyph-name="uni0404" unicode="&#x404;" horiz-adv-x="588" 
d="M559 113c-41 -73 -117 -123 -226 -123c-193 0 -287 131 -287 348s94 348 287 348c109 0 185 -50 226 -123l-84 -54c-25 48 -76 83 -138 83c-113 0 -166 -81 -175 -204h269v-90h-270c9 -128 60 -214 176 -214c62 0 113 35 138 83z" />
    <glyph glyph-name="uni042D" unicode="&#x42d;" horiz-adv-x="588" 
d="M29 113l84 54c25 -48 76 -83 138 -83c116 0 167 86 175 214h-269v90h269c-10 123 -63 204 -175 204c-62 0 -113 -35 -138 -83l-84 54c40 73 117 123 226 123c193 0 286 -131 286 -348s-93 -348 -286 -348c-109 0 -186 50 -226 123z" />
    <glyph glyph-name="uni0406" unicode="&#x406;" horiz-adv-x="258" 
d="M74 676h109v-676h-109v676z" />
    <glyph glyph-name="uni0407" unicode="&#x407;" horiz-adv-x="258" 
d="M35 748c-37 0 -64 18 -64 63c0 44 27 64 64 64c32 0 64 -20 64 -64c0 -45 -32 -63 -64 -63zM225 748c-37 0 -65 18 -65 63c0 44 28 64 65 64c32 0 64 -20 64 -64c0 -45 -32 -63 -64 -63zM74 676h109v-676h-109v676z" />
    <glyph glyph-name="uni0408" unicode="&#x408;" horiz-adv-x="485" 
d="M96 148c22 -42 50 -64 102 -64c73 0 114 40 114 150v442h103v-447c0 -162 -83 -239 -217 -239c-91 0 -150 45 -180 107z" />
    <glyph glyph-name="uni040B" unicode="&#x40b;" horiz-adv-x="711" 
d="M29 586v90h484v-90h-201v-184c32 13 93 27 156 27c144 0 199 -70 199 -197v-232h-109v221c0 72 -24 112 -120 112c-52 0 -100 -10 -126 -22v-311h-109v586h-174z" />
    <glyph glyph-name="uni042E" unicode="&#x42e;" horiz-adv-x="893" 
d="M565 686c206 0 281 -149 281 -349s-78 -347 -283 -347c-192 0 -271 130 -279 312h-101v-302h-109v676h109v-288h102c12 174 91 298 280 298zM563 84c134 0 172 103 172 253c0 151 -39 255 -170 255c-130 0 -170 -104 -170 -255c0 -150 36 -253 168 -253z" />
    <glyph glyph-name="uni042F" unicode="&#x42f;" horiz-adv-x="599" 
d="M525 676v-676h-110l1 286h-98l-169 -286h-123l181 296c-106 21 -166 89 -166 186c0 120 81 194 239 194h245zM154 482c0 -67 33 -106 136 -106h126v210h-126c-103 0 -136 -40 -136 -104z" />
    <glyph glyph-name="uni0402" unicode="&#x402;" horiz-adv-x="726" 
d="M450 427c174 0 240 -91 240 -217c0 -121 -69 -214 -209 -214c-37 0 -58 4 -76 9l9 89c13 -3 29 -5 45 -5c91 0 119 61 119 121c0 63 -29 123 -143 123c-51 0 -99 -10 -123 -21v-312h-109v586h-174v90h484v-90h-201v-179c25 8 73 20 138 20z" />
    <glyph glyph-name="uni0492" unicode="&#x492;" horiz-adv-x="514" 
d="M484 586h-301v-232h169v-86h-169v-268h-109v268h-76v86h76v322h410v-90z" />
    <glyph glyph-name="uni049A" unicode="&#x49a;" horiz-adv-x="588" 
d="M516 90h74v-213h-109v123h-37l-191 295h-70v-295h-109v676h109v-292h70l193 292h127l-229 -334z" />
    <glyph glyph-name="uni04B2" unicode="&#x4b2;" horiz-adv-x="584" 
d="M518 90h76v-213h-109v123h-37l-157 270l-156 -270h-123l208 349l-201 327h124l148 -255l150 255h123l-200 -327z" />
    <glyph glyph-name="uni04D4" unicode="&#x4d4;" horiz-adv-x="943" 
d="M-5 0l446 676h456v-90h-313v-198h274v-90h-274v-212h316v-86h-425v166h-255l-108 -166h-117zM475 254v318l-201 -318h201z" />
    <glyph glyph-name="uni041F.rotated" horiz-adv-x="653" 
d="M74 0v676h109v-586h287v586h109v-676h-505z" />
    <glyph glyph-name="uni0430" unicode="&#x430;" horiz-adv-x="471" 
d="M320 0v55c-29 -33 -77 -66 -149 -66c-83 0 -137 50 -137 131c0 97 85 140 216 150l64 7v36c0 46 -20 72 -84 72c-56 0 -83 -20 -83 -49v-22h-88c-1 10 -2 21 -2 31c0 71 64 121 179 121c111 0 178 -48 178 -152v-314h-94zM137 126c0 -38 23 -58 68 -58c44 0 84 21 109 47
v98l-63 -9c-73 -10 -114 -32 -114 -78z" />
    <glyph glyph-name="uni0431" unicode="&#x431;" horiz-adv-x="501" 
d="M268 443c126 0 195 -96 195 -226c0 -131 -64 -227 -211 -227c-143 0 -212 87 -212 281c0 230 54 348 214 371c75 12 87 21 86 48h93c4 -14 6 -28 6 -41c0 -52 -30 -79 -147 -97c-114 -15 -139 -66 -149 -165c27 38 68 56 125 56zM252 80c76 0 109 52 109 137
c0 86 -33 135 -109 135c-75 0 -107 -49 -107 -135c0 -87 33 -137 107 -137z" />
    <glyph glyph-name="uni0432" unicode="&#x432;" horiz-adv-x="466" 
d="M353 241c50 -14 86 -47 86 -109c0 -87 -58 -132 -188 -132h-191v456h189c127 0 170 -54 170 -115c0 -49 -24 -84 -66 -100zM161 379v-107h73c56 0 82 18 82 56c0 41 -33 51 -82 51h-73zM245 77c60 0 91 17 91 60c0 44 -32 61 -93 61h-82v-121h84z" />
    <glyph glyph-name="uni0433" unicode="&#x433;" horiz-adv-x="405" 
d="M61 456h329v-86h-229v-370h-100v456z" />
    <glyph glyph-name="uni0453" unicode="&#x453;" horiz-adv-x="405" 
d="M352 696l-87 -160h-91l74 160h104zM61 456h329v-86h-229v-370h-100v456z" />
    <glyph glyph-name="uni0491" unicode="&#x491;" horiz-adv-x="413" 
d="M61 0v456h236v117h101v-203h-237v-370h-100z" />
    <glyph glyph-name="uni0434" unicode="&#x434;" horiz-adv-x="517" 
d="M450 86h55v-203h-101v117h-303v-117h-101v203h42c22 17 35 58 42 141l18 229h348v-370zM152 86h198v284h-155l-14 -162c-4 -52 -15 -92 -29 -122z" />
    <glyph glyph-name="uni0435" unicode="&#x435;" horiz-adv-x="471" 
d="M256 76c39 0 84 14 119 45l48 -66c-32 -35 -95 -66 -167 -66c-153 0 -217 100 -217 239c0 131 68 238 207 238c134 0 187 -97 187 -195c0 -23 -2 -56 -7 -75h-285c2 -73 38 -120 115 -120zM338 270c1 6 1 13 1 17c0 61 -38 97 -93 97c-72 0 -101 -50 -105 -114h197z" />
    <glyph glyph-name="uni0450" unicode="&#x450;" horiz-adv-x="471" 
d="M212 696l74 -160h-91l-87 160h104zM256 76c39 0 84 14 119 45l48 -66c-32 -35 -95 -66 -167 -66c-153 0 -217 100 -217 239c0 131 68 238 207 238c134 0 187 -97 187 -195c0 -23 -2 -56 -7 -75h-285c2 -73 38 -120 115 -120zM338 270c1 6 1 13 1 17c0 61 -38 97 -93 97
c-72 0 -101 -50 -105 -114h197z" />
    <glyph glyph-name="uni0451" unicode="&#x451;" horiz-adv-x="471" 
d="M141 544c-37 0 -64 18 -64 63c0 44 27 64 64 64c32 0 64 -20 64 -64c0 -45 -32 -63 -64 -63zM331 544c-37 0 -65 18 -65 63c0 44 28 64 65 64c32 0 64 -20 64 -64c0 -45 -32 -63 -64 -63zM256 76c39 0 84 14 119 45l48 -66c-32 -35 -95 -66 -167 -66
c-153 0 -217 100 -217 239c0 131 68 238 207 238c134 0 187 -97 187 -195c0 -23 -2 -56 -7 -75h-285c2 -73 38 -120 115 -120zM338 270c1 6 1 13 1 17c0 61 -38 97 -93 97c-72 0 -101 -50 -105 -114h197z" />
    <glyph glyph-name="uni0436" unicode="&#x436;" horiz-adv-x="670" 
d="M543 0l-115 185h-43v-185h-100v185h-44l-114 -185h-121l152 230l-150 226h119l115 -185h43v185h100v-185h43l115 185h118l-149 -226l152 -230h-121z" />
    <glyph glyph-name="uni0437" unicode="&#x437;" horiz-adv-x="432" 
d="M306 232c45 -11 90 -51 90 -110c0 -77 -67 -129 -182 -129c-129 0 -186 54 -186 140h92c0 -42 34 -59 86 -59c54 0 89 20 89 62c0 49 -51 63 -100 63h-53v65h53c42 0 91 12 91 61c0 40 -32 58 -80 58c-49 0 -78 -18 -78 -58h-94c0 83 55 139 177 139
c111 0 178 -53 178 -127c0 -51 -39 -92 -83 -105z" />
    <glyph glyph-name="uni0438" unicode="&#x438;" horiz-adv-x="513" 
d="M353 456h100v-456h-98v311l-198 -311h-96v456h98v-301z" />
    <glyph glyph-name="uni0439" unicode="&#x439;" horiz-adv-x="513" 
d="M255 528c-92 0 -144 59 -144 145h78c0 -47 22 -79 66 -79c46 0 67 32 67 79h80c0 -86 -52 -145 -147 -145zM353 456h100v-456h-98v311l-198 -311h-96v456h98v-301z" />
    <glyph glyph-name="uni045D" unicode="&#x45d;" horiz-adv-x="513" 
d="M307 536h-91l-87 160h104zM353 456h100v-456h-98v311l-198 -311h-96v456h98v-301z" />
    <glyph glyph-name="uni043A" unicode="&#x43a;" horiz-adv-x="451" 
d="M325 0l-118 185h-46v-185h-100v456h100v-185h45l119 185h118l-152 -227l154 -229h-120z" />
    <glyph glyph-name="uni045C" unicode="&#x45c;" horiz-adv-x="451" 
d="M352 696l-87 -160h-91l74 160h104zM325 0l-118 185h-46v-185h-100v456h100v-185h45l119 185h118l-152 -227l154 -229h-120z" />
    <glyph glyph-name="uni043B" unicode="&#x43b;" horiz-adv-x="518" 
d="M108 456h349v-456h-100v370h-157l-15 -182c-11 -139 -60 -194 -133 -194c-28 0 -48 5 -61 9l16 85c6 -2 14 -3 22 -3c36 0 52 36 59 132z" />
    <glyph glyph-name="uni043C" unicode="&#x43c;" horiz-adv-x="636" 
d="M417 456h135l48 -456h-96l-32 338l-99 -338h-109l-93 334l-38 -334h-97l56 456h136l92 -336z" />
    <glyph glyph-name="uni043D" unicode="&#x43d;" horiz-adv-x="515" 
d="M354 456h100v-456h-100v191h-193v-191h-100v456h100v-179h193v179z" />
    <glyph glyph-name="uni043E" unicode="&#x43e;" horiz-adv-x="500" 
d="M251 466c144 0 209 -101 209 -237c0 -139 -64 -240 -213 -240c-141 0 -208 102 -208 238c0 138 65 239 212 239zM249 80c76 0 109 56 109 147c0 94 -33 148 -109 148c-75 0 -107 -54 -107 -146c0 -95 33 -149 107 -149z" />
    <glyph glyph-name="uni043F" unicode="&#x43f;" horiz-adv-x="517" 
d="M456 456v-456h-100v370h-195v-370h-100v456h395z" />
    <glyph glyph-name="uni0440" unicode="&#x440;" horiz-adv-x="520" 
d="M161 -216h-100v672h96v-41c27 28 72 51 131 51c126 0 191 -90 191 -240c0 -147 -64 -237 -192 -237c-61 0 -104 24 -126 48v-253zM377 226c0 83 -27 147 -115 147c-49 0 -83 -20 -101 -43v-205c17 -20 50 -43 101 -43c88 0 115 60 115 144z" />
    <glyph glyph-name="uni0441" unicode="&#x441;" horiz-adv-x="448" 
d="M39 228c0 130 61 238 207 238c81 0 144 -33 177 -97l-72 -51c-21 37 -52 59 -98 59c-81 0 -111 -63 -111 -149s30 -149 111 -149c46 0 78 22 99 58l71 -51c-32 -64 -96 -97 -177 -97c-146 0 -207 107 -207 239z" />
    <glyph glyph-name="uni0442" unicode="&#x442;" horiz-adv-x="412" 
d="M400 456v-86h-144v-370h-100v370h-144v86h388z" />
    <glyph glyph-name="uni0443" unicode="&#x443;" horiz-adv-x="485" 
d="M249 141l116 315h109l-273 -672h-103l101 240l-190 432h114z" />
    <glyph glyph-name="uni045E" unicode="&#x45e;" horiz-adv-x="485" 
d="M388 673c0 -86 -52 -145 -147 -145c-92 0 -144 59 -144 145h78c0 -47 22 -79 66 -79c46 0 67 32 67 79h80zM249 141l116 315h109l-273 -672h-103l101 240l-190 432h114z" />
    </font>
</defs>
</svg>
