<?xml version="1.0" standalone="no"?>
<!DOCTYPE svg PUBLIC "-//W3C//DTD SVG 1.1//EN" "http://www.w3.org/Graphics/SVG/1.1/DTD/svg11.dtd" >
<svg xmlns="http://www.w3.org/2000/svg" xmlns:xlink="http://www.w3.org/1999/xlink" version="1.1">
<metadata>
Created by FontForge 20190801 at Thu Sep 13 21:38:52 2018
 By Jimmy Wärting
Copyright \(c\) 2014-2018 by Hannes von Doehren, Livius Dietzel. All rights reserved.
</metadata>
<defs>
<font id="BrixSans-LightItalic" horiz-adv-x="560" >
  <font-face 
    font-family="Brix Sans Light"
    font-weight="300"
    font-style="italic"
    font-stretch="normal"
    units-per-em="1000"
    panose-1="2 11 3 0 0 0 0 0 0 0"
    ascent="720"
    descent="-280"
    x-height="456"
    cap-height="676"
    bbox="-417 -227 1111 975"
    underline-thickness="43"
    underline-position="-78"
    slope="-10"
    stemh="56"
    stemv="60"
    unicode-range="U+0020-FB02"
  />
<missing-glyph horiz-adv-x="513" 
d="M59 656h413v-656h-413v656zM434 40v576h-337v-576h337z" />
    <glyph glyph-name="fi" unicode="fi" horiz-adv-x="534" 
d="M432 404h-243l-109 -620h-58l109 620h-76l7 42l78 10l14 76c17 95 56 158 150 158h52l-9 -52h-43c-57 0 -80 -34 -92 -106l-14 -76h302l-81 -456h-58zM492 579c-22 0 -39 12 -39 37c0 39 25 57 55 57c21 0 39 -12 39 -38c0 -39 -28 -56 -55 -56z" />
    <glyph glyph-name="fl" unicode="fl" horiz-adv-x="529" 
d="M347 638h-43c-57 0 -80 -34 -92 -106l-14 -76h134l-9 -52h-134l-109 -620h-58l109 620h-76l7 42l78 10l14 76c17 95 56 158 150 158h52zM521 690l-100 -571c-10 -50 -3 -66 29 -66h31l-10 -54h-35c-72 0 -87 39 -73 118l100 573h58z" />
    <glyph glyph-name="f_f" unicode="ff" horiz-adv-x="591" 
d="M629 638h-43c-56 0 -79 -34 -92 -106l-13 -76h133l-9 -52h-133l-109 -620h-58l109 620h-225l-109 -620h-58l109 620h-76l7 42l78 10l14 76c17 95 56 158 150 158h52l-9 -52h-43c-57 0 -80 -34 -92 -106l-14 -76h225l13 76c17 95 57 158 151 158h52z" />
    <glyph glyph-name=".notdef" horiz-adv-x="513" 
d="M59 656h413v-656h-413v656zM434 40v576h-337v-576h337z" />
    <glyph glyph-name=".null" horiz-adv-x="0" 
 />
    <glyph glyph-name="space" unicode=" " horiz-adv-x="227" 
 />
    <glyph glyph-name="exclam" unicode="!" horiz-adv-x="221" 
d="M83 205l72 471h71l-95 -471h-48zM73 -7c-25 0 -44 20 -44 44c0 34 25 56 57 56c25 0 45 -20 45 -44c0 -33 -26 -56 -58 -56z" />
    <glyph glyph-name="quotedbl" unicode="&#x22;" horiz-adv-x="335" 
d="M141 676h66l-54 -244h-45zM285 676h64l-54 -244h-46z" />
    <glyph glyph-name="numbersign" unicode="#" horiz-adv-x="585" 
d="M43 214l14 53h100l53 167h-95l13 53h100l61 189h56l-61 -189h142l62 189h55l-60 -189h103l-14 -53h-106l-54 -167h102l-14 -53h-107l-68 -214h-56l69 214h-142l-69 -214h-57l69 214h-96zM213 267h142l53 167h-141z" />
    <glyph glyph-name="dollar" unicode="$" horiz-adv-x="523" 
d="M473 554c-18 45 -60 71 -120 75l-47 -266l34 -12c66 -23 126 -59 126 -148c0 -112 -80 -206 -226 -213l-16 -93h-47l17 94c-123 9 -157 78 -171 129l53 30c11 -49 36 -97 127 -103l48 272l-24 8c-67 24 -119 63 -119 145c0 101 74 203 208 213l13 74h47l-13 -74
c88 -7 144 -50 161 -98zM260 379l2 -1l44 250c-88 -12 -134 -77 -134 -153c0 -50 33 -76 88 -96zM309 299l-13 5l-46 -257c101 9 152 72 152 152c0 55 -41 82 -93 100z" />
    <glyph glyph-name="percent" unicode="%" horiz-adv-x="755" 
d="M260 680c73 0 112 -44 112 -128c0 -117 -47 -226 -162 -226c-83 0 -112 54 -112 128c0 125 54 226 162 226zM183 0h-61l506 676h63zM211 367c81 0 110 86 110 185c0 53 -18 87 -61 87c-75 0 -112 -79 -112 -185c0 -53 19 -87 63 -87zM601 348c73 0 111 -43 111 -128
c0 -117 -47 -225 -161 -225c-84 0 -112 54 -112 128c0 124 53 225 162 225zM551 36c82 0 111 85 111 184c0 54 -18 88 -62 88c-75 0 -111 -80 -111 -185c0 -54 18 -87 62 -87z" />
    <glyph glyph-name="ampersand" unicode="&#x26;" horiz-adv-x="622" 
d="M469 173l-24 -29l105 -138l-1 -6h-68l-75 101c-60 -63 -128 -112 -222 -112c-106 0 -150 59 -150 127c0 102 90 160 167 211l23 16l-23 31c-24 31 -62 83 -62 140c0 95 78 172 201 172c100 0 155 -62 155 -138c0 -78 -55 -120 -140 -179l-53 -36l109 -143l18 21l120 144
l43 -37zM244 410l26 -35l52 36c67 46 114 78 114 135c0 43 -31 86 -98 86c-84 0 -141 -55 -141 -118c0 -41 23 -73 47 -104zM187 43c72 0 130 45 185 103l-117 155l-22 -15c-78 -54 -140 -93 -140 -166c0 -44 34 -77 94 -77z" />
    <glyph glyph-name="quotesingle" unicode="'" horiz-adv-x="193" 
d="M142 676h65l-53 -244h-46z" />
    <glyph glyph-name="parenleft" unicode="(" horiz-adv-x="263" 
d="M110 -222c-38 93 -63 208 -63 320c0 288 92 444 221 605l49 -16c-120 -176 -207 -322 -207 -588c0 -97 18 -211 48 -305z" />
    <glyph glyph-name="parenright" unicode=")" horiz-adv-x="263" 
d="M-48 -206c150 223 206 361 206 587c0 110 -22 221 -50 306l49 16c35 -86 63 -196 63 -320c0 -255 -66 -408 -223 -605z" />
    <glyph glyph-name="asterisk" unicode="*" horiz-adv-x="452" 
d="M116 375l118 120l-131 40l27 53l128 -50l22 158h60l-33 -157l142 46l5 -57l-141 -35l68 -123l-51 -33l-61 130l-117 -129z" />
    <glyph glyph-name="plus" unicode="+" 
d="M62 296h195v201h56v-201h199v-52h-199v-201h-56v201h-195v52z" />
    <glyph glyph-name="comma" unicode="," horiz-adv-x="212" 
d="M42 -113h-48l61 207h69z" />
    <glyph glyph-name="hyphen" unicode="-" horiz-adv-x="393" 
d="M325 295v-52h-245v52h245z" />
    <glyph glyph-name="period" unicode="." horiz-adv-x="222" 
d="M76 -7c-26 0 -45 21 -45 45c0 35 26 58 59 58c26 0 45 -21 45 -45c0 -34 -25 -58 -59 -58z" />
    <glyph glyph-name="slash" unicode="/" horiz-adv-x="330" 
d="M56 0h-61l316 676h64z" />
    <glyph glyph-name="zero" unicode="0" horiz-adv-x="586" 
d="M368 686c121 0 183 -98 183 -242c0 -249 -87 -454 -296 -454c-120 0 -181 97 -181 242c0 250 87 454 294 454zM260 45c158 0 227 178 227 399c0 111 -38 187 -123 187c-158 0 -227 -177 -227 -399c0 -111 38 -187 123 -187z" />
    <glyph glyph-name="one" unicode="1" horiz-adv-x="364" 
d="M174 0l108 609l-194 -79l-9 56l221 90h56l-120 -676h-62z" />
    <glyph glyph-name="two" unicode="2" horiz-adv-x="498" 
d="M317 686c104 0 167 -68 167 -162c0 -110 -70 -180 -168 -275l-204 -195h307l-10 -54h-393l8 49l251 238c92 88 145 149 145 235c0 63 -37 109 -106 109c-82 0 -134 -58 -147 -140h-62c18 114 92 195 212 195z" />
    <glyph glyph-name="three" unicode="3" horiz-adv-x="528" 
d="M356 346c51 -13 105 -57 105 -143c0 -123 -95 -213 -239 -213c-141 0 -196 79 -180 170h59c-12 -65 33 -115 124 -115c107 0 173 67 173 159c0 71 -56 118 -139 118h-58l10 54h58c96 0 175 53 175 150c0 60 -41 105 -115 105c-89 0 -143 -55 -154 -117h-62
c14 88 84 172 218 172c109 0 176 -66 176 -158c0 -107 -79 -166 -151 -182z" />
    <glyph glyph-name="four" unicode="4" horiz-adv-x="553" 
d="M499 154h-99l-27 -154h-61l27 154h-315l9 50l396 472h63l-82 -468h99zM349 208l65 369l-307 -369h242z" />
    <glyph glyph-name="five" unicode="5" horiz-adv-x="513" 
d="M459 254c0 -140 -88 -264 -245 -264c-145 0 -193 89 -175 188h58c-12 -72 21 -133 119 -133c118 0 179 99 179 206c0 72 -40 120 -117 120c-49 0 -91 -19 -129 -45l-55 4l99 346h323l-10 -54h-271l-68 -234c23 16 70 39 120 39c102 0 172 -62 172 -173z" />
    <glyph glyph-name="six" unicode="6" horiz-adv-x="550" 
d="M470 514c11 72 -31 117 -111 117c-109 0 -191 -116 -216 -291c27 36 98 86 174 86c113 0 179 -65 179 -175c0 -147 -89 -261 -247 -261c-125 0 -178 95 -178 229c0 245 100 467 291 467c127 0 184 -76 166 -172h-58zM138 268c-4 -16 -6 -38 -6 -52
c-1 -100 33 -171 119 -171c117 0 182 92 182 203c0 75 -42 124 -124 124c-69 0 -137 -50 -171 -104z" />
    <glyph glyph-name="seven" unicode="7" horiz-adv-x="448" 
d="M414 622h-313l9 54h385l-9 -49l-347 -627h-73z" />
    <glyph glyph-name="eight" unicode="8" horiz-adv-x="556" 
d="M242 -10c-114 0 -192 57 -192 166c0 120 88 183 163 197c-51 15 -93 55 -93 129c0 121 95 204 233 204c108 0 181 -56 181 -157c0 -106 -72 -166 -146 -183c49 -12 102 -52 102 -139c0 -137 -104 -217 -248 -217zM350 631c-98 0 -166 -55 -166 -151
c0 -64 49 -103 121 -103c89 0 165 53 165 149c0 67 -46 105 -120 105zM246 45c106 0 181 60 181 164c0 71 -55 113 -133 113c-97 0 -180 -59 -180 -163c0 -73 51 -114 132 -114z" />
    <glyph glyph-name="nine" unicode="9" horiz-adv-x="552" 
d="M120 162c-11 -72 31 -117 110 -117c110 0 192 116 216 291c-26 -36 -97 -86 -174 -86c-112 0 -179 65 -179 175c0 147 90 261 248 261c125 0 178 -95 178 -229c0 -245 -100 -467 -291 -467c-128 0 -184 76 -166 172h58zM452 408c4 16 6 38 6 52c1 100 -33 171 -119 171
c-117 0 -182 -92 -182 -203c0 -75 42 -124 124 -124c69 0 137 50 171 104z" />
    <glyph glyph-name="colon" unicode=":" horiz-adv-x="238" 
d="M145 365c-25 0 -43 20 -43 44c0 34 24 57 57 57c25 0 44 -20 44 -45c0 -33 -25 -56 -58 -56zM78 -7c-25 0 -43 19 -43 43c0 33 27 57 59 57c26 0 43 -18 43 -42c0 -33 -27 -58 -59 -58z" />
    <glyph glyph-name="semicolon" unicode=";" horiz-adv-x="232" 
d="M142 365c-26 0 -44 20 -44 44c0 34 25 57 57 57c26 0 45 -20 45 -45c0 -33 -26 -56 -58 -56zM48 -113h-47l61 207h69z" />
    <glyph glyph-name="less" unicode="&#x3c;" 
d="M82 299l377 168v-58l-322 -139l322 -139v-59l-377 169v58z" />
    <glyph glyph-name="equal" unicode="=" 
d="M474 412v-52h-377v52h377zM474 181v-52h-377v52h377z" />
    <glyph glyph-name="greater" unicode="&#x3e;" 
d="M488 241l-378 -169v59l322 139l-322 139v58l378 -168v-58z" />
    <glyph glyph-name="question" unicode="?" horiz-adv-x="432" 
d="M281 686c100 0 160 -62 160 -146c0 -154 -180 -179 -207 -335h-64c30 173 208 212 208 330c0 47 -32 94 -98 94c-63 0 -115 -38 -126 -101l-60 3c15 86 76 155 187 155zM165 -7c-25 0 -44 20 -44 44c0 33 26 56 58 56c26 0 44 -19 44 -43c0 -33 -25 -57 -58 -57z" />
    <glyph glyph-name="at" unicode="@" horiz-adv-x="868" 
d="M491 80c-32 -34 -85 -60 -143 -60c-73 0 -120 45 -120 133c0 146 111 296 246 296c59 0 93 -24 109 -54l16 45h54l-101 -296c-19 -53 -15 -78 14 -78c90 0 213 123 213 337c0 103 -61 199 -231 199c-277 0 -451 -238 -451 -500c0 -133 65 -227 224 -227
c72 0 138 16 196 44l5 -47c-55 -26 -122 -48 -202 -48c-188 0 -277 111 -277 276c0 294 204 553 506 553c200 0 284 -116 284 -249c0 -244 -154 -387 -271 -387c-56 0 -75 24 -71 63zM565 343c-11 25 -32 56 -88 56c-104 0 -192 -122 -192 -242c0 -57 29 -87 72 -87
c56 0 105 33 135 63z" />
    <glyph glyph-name="A" unicode="A" horiz-adv-x="579" 
d="M426 190h-280l-98 -190h-71l354 676h76l115 -676h-67zM173 245h245l-57 367z" />
    <glyph glyph-name="B" unicode="B" 
d="M167 676h184c108 0 174 -50 174 -142c0 -100 -55 -167 -129 -183c57 -12 103 -58 103 -139c0 -157 -95 -212 -255 -212h-196zM296 377c127 0 162 73 162 153c0 56 -33 91 -119 91h-120l-42 -244h119zM248 55c135 0 188 49 188 158c0 66 -42 109 -140 109h-129l-48 -267
h129z" />
    <glyph glyph-name="C" unicode="C" horiz-adv-x="566" 
d="M137 249c0 -111 43 -203 154 -203c64 0 126 33 165 89l48 -34c-47 -66 -118 -111 -217 -111c-145 0 -214 103 -214 258c0 277 122 438 323 438c95 0 167 -44 189 -112l-52 -32c-18 57 -75 88 -139 88c-160 0 -257 -139 -257 -381z" />
    <glyph glyph-name="D" unicode="D" horiz-adv-x="628" 
d="M167 676h166c178 0 262 -81 262 -230c0 -324 -142 -446 -368 -446h-179zM228 55c178 0 303 98 303 388c0 110 -56 178 -203 178h-109l-100 -566h109z" />
    <glyph glyph-name="E" unicode="E" horiz-adv-x="516" 
d="M435 55l-10 -55h-377l119 676h373l-9 -55h-312l-43 -245h280l-10 -55h-280l-47 -266h316z" />
    <glyph glyph-name="F" unicode="F" horiz-adv-x="502" 
d="M167 676h370l-10 -55h-308l-47 -265h265l-9 -55h-265l-53 -301h-62z" />
    <glyph glyph-name="G" unicode="G" horiz-adv-x="623" 
d="M358 357h230c0 -7 -1 -15 -1 -20c-5 -145 -72 -347 -296 -347c-147 0 -218 101 -218 256c0 286 128 440 337 440c104 0 162 -45 188 -109l-50 -33c-24 58 -65 86 -141 86c-170 0 -270 -135 -270 -382c0 -117 45 -203 157 -203c158 0 217 137 225 256h-171z" />
    <glyph glyph-name="H" unicode="H" horiz-adv-x="647" 
d="M576 676h62l-120 -676h-62l58 329h-346l-58 -329h-62l119 676h62l-52 -292h347z" />
    <glyph glyph-name="I" unicode="I" horiz-adv-x="239" 
d="M167 676h62l-119 -676h-62z" />
    <glyph glyph-name="J" unicode="J" horiz-adv-x="470" 
d="M53 118c20 -54 55 -72 110 -72c99 0 143 64 165 193l78 437h60l-78 -441c-29 -166 -101 -245 -228 -245c-83 0 -138 39 -158 97z" />
    <glyph glyph-name="K" unicode="K" horiz-adv-x="576" 
d="M152 236l-42 -236h-62l119 676h62l-62 -349l381 349h84l-302 -281l182 -395h-73l-159 354z" />
    <glyph glyph-name="L" unicode="L" horiz-adv-x="454" 
d="M403 55l-10 -55h-345l119 676h62l-110 -621h284z" />
    <glyph glyph-name="M" unicode="M" horiz-adv-x="824" 
d="M675 676h87l-29 -676h-63l30 601l-296 -601h-67l-82 603l-183 -603h-62l210 676h83l80 -594z" />
    <glyph glyph-name="N" unicode="N" horiz-adv-x="656" 
d="M585 676h62l-120 -676h-68l-246 580l-102 -580h-63l120 676h69l246 -577z" />
    <glyph glyph-name="O" unicode="O" horiz-adv-x="642" 
d="M609 436c0 -228 -82 -446 -324 -446c-144 0 -212 101 -212 249c0 228 80 447 322 447c148 0 214 -102 214 -250zM136 239c0 -111 41 -193 152 -193c150 0 257 118 257 390c0 109 -40 194 -153 194c-208 0 -256 -211 -256 -391z" />
    <glyph glyph-name="P" unicode="P" horiz-adv-x="539" 
d="M159 276l-49 -276h-62l119 676h192c124 0 182 -64 182 -164c0 -135 -72 -236 -246 -236h-136zM168 330h130c142 0 179 87 179 181c0 63 -34 110 -127 110h-131z" />
    <glyph glyph-name="Q" unicode="Q" horiz-adv-x="634" 
d="M610 436c0 -137 -30 -271 -106 -356l40 -54l-45 -37l-38 53c-46 -33 -103 -52 -174 -52c-145 0 -212 101 -212 249c0 228 80 447 322 447c148 0 213 -102 213 -250zM290 46c51 0 98 14 136 43l-141 195l42 35l140 -189c50 63 80 163 80 306c0 109 -41 194 -153 194
c-208 0 -256 -211 -256 -391c0 -111 41 -193 152 -193z" />
    <glyph glyph-name="R" unicode="R" horiz-adv-x="570" 
d="M167 676h210c127 0 191 -58 191 -154c0 -127 -81 -201 -207 -210l135 -312h-70l-128 308h-134l-54 -308h-62zM503 521c0 62 -38 100 -136 100h-148l-46 -258h148c135 0 182 62 182 158z" />
    <glyph glyph-name="S" unicode="S" horiz-adv-x="526" 
d="M475 554c-19 49 -66 76 -136 76c-106 0 -164 -71 -164 -155c0 -50 33 -76 87 -96l80 -28c66 -23 126 -59 126 -148c0 -116 -85 -213 -243 -213c-147 0 -185 75 -199 130l52 30c12 -53 40 -104 150 -104c116 0 176 67 176 153c0 55 -41 82 -93 100l-82 28
c-66 24 -118 63 -118 145c0 107 82 214 231 214c101 0 166 -47 185 -99z" />
    <glyph glyph-name="T" unicode="T" horiz-adv-x="509" 
d="M554 676l-9 -55h-190l-110 -621h-62l110 621h-191l9 55h443z" />
    <glyph glyph-name="U" unicode="U" horiz-adv-x="629" 
d="M282 -10c-139 0 -228 69 -195 259l76 427h62l-76 -430c-26 -146 26 -200 135 -200c105 0 179 53 205 200l75 430h62l-75 -427c-33 -191 -135 -259 -269 -259z" />
    <glyph glyph-name="V" unicode="V" horiz-adv-x="568" 
d="M625 676l-343 -676h-78l-103 676h65l86 -610l303 610h70z" />
    <glyph glyph-name="W" unicode="W" horiz-adv-x="924" 
d="M575 676l60 -601l271 601h70l-311 -676h-78l-62 590l-268 -590h-78l-74 676h65l60 -601l272 601h73z" />
    <glyph glyph-name="X" unicode="X" horiz-adv-x="541" 
d="M183 676l114 -282l214 282h76l-252 -326l145 -350h-68l-124 302l-229 -302h-76l269 350l-139 326h70z" />
    <glyph glyph-name="Y" unicode="Y" horiz-adv-x="544" 
d="M200 0l49 274l-150 402h66l122 -342l241 342h76l-293 -402l-49 -274h-62z" />
    <glyph glyph-name="Z" unicode="Z" horiz-adv-x="490" 
d="M513 627l-428 -572h332l-10 -55h-409l8 49l428 572h-308l10 55h386z" />
    <glyph glyph-name="bracketleft" unicode="[" horiz-adv-x="278" 
d="M329 690l-8 -52h-116l-142 -802h116l-9 -52h-175l159 906h175z" />
    <glyph glyph-name="backslash" unicode="\" horiz-adv-x="323" 
d="M113 676h59l77 -676h-56z" />
    <glyph glyph-name="bracketright" unicode="]" horiz-adv-x="278" 
d="M287 690l-160 -906h-175l9 52h116l142 802h-116l9 52h175z" />
    <glyph glyph-name="asciicircum" unicode="^" 
d="M363 698l178 -229l-42 -41l-146 189l-212 -189l-38 41z" />
    <glyph glyph-name="underscore" unicode="_" horiz-adv-x="486" 
d="M391 -31l-8 -46h-380l8 46h380z" />
    <glyph glyph-name="grave" unicode="`" horiz-adv-x="570" 
d="M410 696l47 -151h-52l-56 151h61z" />
    <glyph glyph-name="a" unicode="a" horiz-adv-x="500" 
d="M408 456h57l-80 -456h-56l8 44c-30 -29 -73 -54 -133 -54c-106 0 -156 67 -156 179c0 184 83 297 227 297c62 0 104 -28 124 -58zM108 173c0 -77 28 -128 107 -128c61 0 107 32 133 67l40 231c-12 30 -44 68 -107 68c-116 0 -173 -95 -173 -238z" />
    <glyph glyph-name="b" unicode="b" horiz-adv-x="501" 
d="M164 409c29 32 76 57 132 57c107 0 157 -66 157 -176c0 -166 -69 -300 -231 -300c-64 0 -106 28 -127 60l-24 -50h-36l122 690h58zM393 285c0 72 -29 126 -109 126c-65 0 -109 -40 -131 -70l-40 -227c12 -32 44 -69 106 -69c125 0 174 107 174 240z" />
    <glyph glyph-name="c" unicode="c" horiz-adv-x="439" 
d="M47 170c0 157 74 296 230 296c73 0 126 -30 149 -88l-46 -30c-17 45 -53 64 -103 64c-125 0 -170 -124 -170 -239c0 -72 34 -130 109 -130c49 0 92 20 123 65l43 -31c-41 -56 -98 -87 -170 -87c-109 0 -165 72 -165 180z" />
    <glyph glyph-name="d" unicode="d" horiz-adv-x="500" 
d="M450 690h57l-122 -690h-56l8 44c-30 -29 -73 -54 -133 -54c-106 0 -156 67 -156 179c0 184 83 297 227 297c62 0 104 -28 124 -58zM108 173c0 -77 28 -128 107 -128c61 0 107 32 133 67l40 231c-12 30 -44 68 -107 68c-116 0 -173 -95 -173 -238z" />
    <glyph glyph-name="e" unicode="e" horiz-adv-x="454" 
d="M212 42c43 0 94 18 132 54l24 -44c-31 -32 -92 -62 -159 -62c-127 0 -164 81 -164 170c0 168 83 306 227 306c97 0 148 -63 148 -154c0 -41 -12 -76 -21 -102h-291c-14 -97 8 -168 104 -168zM354 258c2 8 9 21 9 53c0 58 -30 104 -92 104c-88 0 -135 -70 -155 -157h238z
" />
    <glyph glyph-name="f" unicode="f" horiz-adv-x="309" 
d="M347 638h-43c-57 0 -80 -34 -92 -106l-14 -76h134l-9 -52h-134l-109 -620h-58l109 620h-76l7 42l78 10l14 76c17 95 56 158 150 158h52z" />
    <glyph glyph-name="g" unicode="g" horiz-adv-x="497" 
d="M462 456l-87 -495c-16 -92 -92 -163 -197 -163c-114 0 -161 65 -149 131h54c-5 -39 21 -80 97 -80c74 0 124 45 136 112l15 85c-28 -29 -71 -56 -126 -56c-111 0 -157 71 -157 179c0 167 75 297 226 297c68 0 104 -28 123 -61l8 51h57zM108 173c0 -69 27 -128 106 -128
c53 0 99 30 129 68l41 230c-16 34 -49 68 -105 68c-123 0 -171 -114 -171 -238z" />
    <glyph glyph-name="h" unicode="h" horiz-adv-x="503" 
d="M157 690h58l-50 -281c33 31 93 57 148 57c111 0 151 -57 131 -172l-53 -294h-58l52 291c15 83 -5 120 -87 120c-59 0 -110 -28 -144 -63l-61 -348h-58z" />
    <glyph glyph-name="i" unicode="i" horiz-adv-x="207" 
d="M165 579c-22 0 -39 12 -39 37c0 39 25 57 56 57c20 0 39 -12 39 -38c0 -39 -29 -56 -56 -56zM115 456h58l-81 -456h-58z" />
    <glyph glyph-name="j" unicode="j" horiz-adv-x="206" 
d="M164 579c-22 0 -39 12 -39 37c0 39 25 57 56 57c20 0 38 -12 38 -38c0 -39 -28 -56 -55 -56zM-80 -181c69 25 93 61 108 148l87 489h58l-87 -488c-20 -113 -60 -166 -145 -194z" />
    <glyph glyph-name="k" unicode="k" horiz-adv-x="447" 
d="M320 0l-107 238l-92 -78l-28 -160h-58l122 690h58l-80 -450l251 216h82l-209 -179l126 -277h-65z" />
    <glyph glyph-name="l" unicode="l" horiz-adv-x="220" 
d="M212 690l-100 -571c-10 -50 -3 -66 29 -66h31l-10 -54h-35c-72 0 -87 39 -73 118l100 573h58z" />
    <glyph glyph-name="m" unicode="m" horiz-adv-x="777" 
d="M115 456h57l-8 -49c34 33 85 59 134 59c72 0 110 -26 131 -69c41 42 99 69 160 69c109 0 150 -54 130 -169l-52 -297h-58l52 294c15 84 -9 117 -84 117c-55 0 -101 -26 -134 -63l-61 -348h-57l61 346c-13 43 -44 65 -99 65c-54 0 -99 -29 -133 -62l-62 -349h-58z" />
    <glyph glyph-name="n" unicode="n" horiz-adv-x="503" 
d="M115 456h57l-9 -50c34 35 92 60 149 60c112 0 153 -56 132 -172l-53 -294h-58l52 291c15 83 -4 120 -88 120c-59 0 -110 -26 -143 -63l-62 -348h-58z" />
    <glyph glyph-name="o" unicode="o" horiz-adv-x="488" 
d="M279 466c116 0 163 -77 163 -182c0 -138 -68 -294 -234 -294c-112 0 -161 77 -161 184c0 143 73 292 232 292zM210 44c127 0 172 134 172 240c0 77 -30 128 -105 128c-121 0 -170 -128 -170 -238c0 -77 30 -130 103 -130z" />
    <glyph glyph-name="p" unicode="p" horiz-adv-x="502" 
d="M54 -216h-58l119 672h56l-7 -44c27 27 70 54 132 54c108 0 158 -71 158 -181c0 -186 -84 -295 -228 -295c-65 0 -107 26 -125 58zM394 282c0 70 -27 129 -109 129c-60 0 -107 -31 -132 -68l-41 -231c14 -30 44 -67 109 -67c116 0 173 94 173 237z" />
    <glyph glyph-name="q" unicode="q" horiz-adv-x="499" 
d="M334 40c-29 -24 -65 -50 -127 -50c-107 0 -159 64 -159 176c0 161 63 300 229 300c70 0 107 -28 128 -59l23 49h37l-118 -672h-58zM109 170c0 -79 32 -125 108 -125c65 0 108 38 130 67l41 229c-12 32 -42 70 -106 70c-137 0 -173 -125 -173 -241z" />
    <glyph glyph-name="r" unicode="r" horiz-adv-x="323" 
d="M161 386c27 45 70 80 129 80c23 0 44 -2 58 -6l-17 -63c-15 6 -34 9 -49 9c-60 0 -103 -44 -136 -102l-54 -304h-58l81 456h57l-12 -70h1z" />
    <glyph glyph-name="s" unicode="s" horiz-adv-x="413" 
d="M347 368c-18 27 -53 48 -106 48c-79 0 -110 -46 -110 -93c0 -26 17 -50 62 -64l46 -13c75 -23 111 -55 111 -113c0 -82 -67 -143 -184 -143c-91 0 -134 42 -154 76l42 36c18 -31 43 -63 114 -63c69 0 122 31 122 90c0 35 -26 53 -76 67l-47 15c-64 19 -96 57 -96 108
c0 69 49 147 173 147c73 0 124 -33 145 -63z" />
    <glyph glyph-name="t" unicode="t" horiz-adv-x="316" 
d="M141 123c-9 -51 4 -78 49 -78c21 0 46 7 67 18v-51c-22 -12 -51 -22 -81 -22c-85 0 -107 51 -93 129l50 285h-83l7 42l85 10l21 116l60 12l-23 -128h124l-9 -52h-124z" />
    <glyph glyph-name="u" unicode="u" horiz-adv-x="503" 
d="M387 0h-57l10 50c-35 -35 -93 -60 -150 -60c-111 0 -152 56 -131 172l52 294h58l-51 -291c-15 -83 4 -120 87 -120c59 0 110 26 144 63l61 348h58z" />
    <glyph glyph-name="v" unicode="v" horiz-adv-x="451" 
d="M465 456l-244 -456h-70l-85 456h62l65 -398l205 398h67z" />
    <glyph glyph-name="w" unicode="w" horiz-adv-x="721" 
d="M430 456l50 -388l185 388h68l-225 -456h-67l-54 380l-187 -380h-66l-65 456h62l48 -388l187 388h64z" />
    <glyph glyph-name="x" unicode="x" horiz-adv-x="424" 
d="M355 0h-66l-81 184l-146 -184h-73l186 229l-106 227h65l82 -184l146 184h74l-187 -228z" />
    <glyph glyph-name="y" unicode="y" horiz-adv-x="459" 
d="M212 105l195 351h69l-387 -672h-66l147 253l-107 419h65z" />
    <glyph glyph-name="z" unicode="z" horiz-adv-x="390" 
d="M376 411l-288 -359h229l-8 -52h-309l8 45l289 359h-215l9 52h293z" />
    <glyph glyph-name="braceleft" unicode="{" horiz-adv-x="278" 
d="M189 338c-12 -67 -33 -93 -63 -103c23 -16 37 -47 26 -102l-38 -214c-11 -68 6 -87 57 -87l-9 -48c-89 0 -123 39 -106 136l37 210c11 63 -7 82 -70 82l10 50c62 0 87 21 98 83l37 212c19 107 58 133 154 133l-9 -51c-52 0 -75 -18 -87 -85z" />
    <glyph glyph-name="bar" unicode="|" horiz-adv-x="253" 
d="M105 -216v906h47v-906h-47z" />
    <glyph glyph-name="braceright" unicode="}" horiz-adv-x="278" 
d="M93 137c12 67 33 94 64 104c-24 16 -38 46 -27 101l38 213c11 68 -6 87 -57 87l8 48c90 0 124 -40 107 -137l-37 -209c-11 -63 7 -82 69 -82l-9 -50c-62 0 -86 -19 -98 -80l-37 -216c-19 -106 -58 -132 -155 -132l10 51c52 0 75 18 86 85z" />
    <glyph glyph-name="asciitilde" unicode="~" 
d="M436 243c-17 18 -38 37 -67 37c-50 0 -104 -77 -174 -77c-37 0 -71 21 -82 36l21 57c15 -17 32 -37 64 -37c56 0 102 77 175 77c43 0 74 -27 86 -39z" />
    <glyph glyph-name="Agrave" unicode="&#xc0;" horiz-adv-x="579" 
d="M363 899l47 -151h-52l-56 151h61zM426 190h-280l-98 -190h-71l354 676h76l115 -676h-67zM173 245h245l-57 367z" />
    <glyph glyph-name="Aacute" unicode="&#xc1;" horiz-adv-x="579" 
d="M520 899l-109 -151h-59l100 151h68zM426 190h-280l-98 -190h-71l354 676h76l115 -676h-67zM173 245h245l-57 367z" />
    <glyph glyph-name="Acircumflex" unicode="&#xc2;" horiz-adv-x="579" 
d="M440 899l69 -151h-53l-52 107l-89 -107h-60l125 151h60zM426 190h-280l-98 -190h-71l354 676h76l115 -676h-67zM173 245h245l-57 367z" />
    <glyph glyph-name="Atilde" unicode="&#xc3;" horiz-adv-x="579" 
d="M510 780c-13 16 -32 26 -52 26c-38 0 -84 -37 -137 -37c-27 0 -50 13 -58 25l16 48c11 -15 27 -24 50 -24c42 0 81 37 137 37c32 0 50 -16 60 -26zM426 190h-280l-98 -190h-71l354 676h76l115 -676h-67zM173 245h245l-57 367z" />
    <glyph glyph-name="Adieresis" unicode="&#xc4;" horiz-adv-x="579" 
d="M305 772c-23 0 -40 14 -40 39c0 39 22 55 52 55c21 0 41 -13 41 -39c0 -39 -26 -55 -53 -55zM473 772c-23 0 -40 14 -40 39c0 39 22 55 52 55c21 0 42 -13 42 -39c0 -39 -26 -55 -54 -55zM426 190h-280l-98 -190h-71l354 676h76l115 -676h-67zM173 245h245l-57 367z" />
    <glyph glyph-name="Amacron" unicode="&#x100;" horiz-adv-x="579" 
d="M528 838l-9 -50h-258l8 50h259zM426 190h-280l-98 -190h-71l354 676h76l115 -676h-67zM173 245h245l-57 367z" />
    <glyph glyph-name="Abreve" unicode="&#x102;" horiz-adv-x="579" 
d="M530 884c-13 -76 -66 -131 -145 -131c-75 0 -116 55 -102 131h44c-7 -47 14 -84 64 -84c51 0 84 37 94 84h45zM426 190h-280l-98 -190h-71l354 676h76l115 -676h-67zM173 245h245l-57 367z" />
    <glyph glyph-name="Aring" unicode="&#xc5;" horiz-adv-x="579" 
d="M296 795c0 62 45 106 112 106c53 0 85 -35 85 -78c0 -61 -46 -106 -114 -106c-51 0 -83 35 -83 78zM340 799c0 -26 16 -44 44 -44c39 0 65 27 65 64c0 26 -16 44 -46 44c-37 0 -63 -27 -63 -64zM426 190h-280l-98 -190h-71l354 676h76l115 -676h-67zM173 245h245l-57 367
z" />
    <glyph glyph-name="Aringacute" unicode="&#x1fa;" horiz-adv-x="579" 
d="M288 796c0 55 38 98 95 103l68 76h65l-79 -81c28 -10 47 -38 47 -73c0 -61 -48 -104 -113 -104c-54 0 -83 36 -83 79zM330 799c0 -26 17 -44 44 -44c40 0 65 26 65 64c0 27 -16 44 -45 44c-37 0 -64 -26 -64 -64zM426 190h-280l-98 -190h-71l354 676h76l115 -676h-67z
M173 245h245l-57 367z" />
    <glyph glyph-name="Aogonek" unicode="&#x104;" horiz-adv-x="579" 
d="M395 -129c0 -18 11 -37 40 -37c20 0 42 11 63 25l-10 -55c-17 -9 -39 -20 -71 -20c-53 0 -84 33 -84 74c0 46 28 75 66 104l56 41l-29 187h-280l-98 -190h-71l354 676h76l115 -676l-83 -62c-31 -24 -44 -42 -44 -67zM173 245h245l-57 367z" />
    <glyph glyph-name="AE" unicode="&#xc6;" horiz-adv-x="909" 
d="M-23 0l548 676h409l-10 -55h-310l-44 -245h280l-10 -55h-279l-48 -268h315l-9 -53h-377l34 190h-267l-155 -190h-77zM485 244l66 375l-302 -375h236z" />
    <glyph glyph-name="AEacute" unicode="&#x1fc;" horiz-adv-x="909" 
d="M843 899l-108 -151h-60l101 151h67zM-23 0l548 676h409l-10 -55h-310l-44 -245h280l-10 -55h-279l-48 -268h315l-9 -53h-377l34 190h-267l-155 -190h-77zM485 244l66 375l-302 -375h236z" />
    <glyph glyph-name="Cacute" unicode="&#x106;" horiz-adv-x="566" 
d="M546 899l-109 -151h-59l100 151h68zM137 249c0 -111 43 -203 154 -203c64 0 126 33 165 89l48 -34c-47 -66 -118 -111 -217 -111c-145 0 -214 103 -214 258c0 277 122 438 323 438c95 0 167 -44 189 -112l-52 -32c-18 57 -75 88 -139 88c-160 0 -257 -139 -257 -381z" />
    <glyph glyph-name="Ccircumflex" unicode="&#x108;" horiz-adv-x="566" 
d="M470 899l70 -151h-54l-52 107l-89 -107h-59l124 151h60zM137 249c0 -111 43 -203 154 -203c64 0 126 33 165 89l48 -34c-47 -66 -118 -111 -217 -111c-145 0 -214 103 -214 258c0 277 122 438 323 438c95 0 167 -44 189 -112l-52 -32c-18 57 -75 88 -139 88
c-160 0 -257 -139 -257 -381z" />
    <glyph glyph-name="Ccaron" unicode="&#x10c;" horiz-adv-x="566" 
d="M382 748l-70 151h54l52 -107l89 107h58l-123 -151h-60zM137 249c0 -111 43 -203 154 -203c64 0 126 33 165 89l48 -34c-47 -66 -118 -111 -217 -111c-145 0 -214 103 -214 258c0 277 122 438 323 438c95 0 167 -44 189 -112l-52 -32c-18 57 -75 88 -139 88
c-160 0 -257 -139 -257 -381z" />
    <glyph glyph-name="Cdotaccent" unicode="&#x10a;" horiz-adv-x="566" 
d="M418 773c-22 0 -40 12 -40 39c0 39 22 55 53 55c20 0 40 -14 40 -41c0 -38 -25 -53 -53 -53zM137 249c0 -111 43 -203 154 -203c64 0 126 33 165 89l48 -34c-47 -66 -118 -111 -217 -111c-145 0 -214 103 -214 258c0 277 122 438 323 438c95 0 167 -44 189 -112l-52 -32
c-18 57 -75 88 -139 88c-160 0 -257 -139 -257 -381z" />
    <glyph glyph-name="Ccedilla" unicode="&#xc7;" horiz-adv-x="566" 
d="M396 686c95 0 167 -44 189 -112l-52 -32c-18 57 -75 88 -139 88c-160 0 -257 -139 -257 -381c0 -111 43 -203 154 -203c64 0 126 33 165 89l48 -34c-45 -63 -111 -107 -203 -111l-28 -50c41 0 72 -19 72 -65c0 -51 -37 -91 -105 -91c-30 0 -58 11 -77 22l9 46
c18 -15 43 -25 70 -25c32 0 50 19 50 42c0 25 -21 32 -51 32h-30l-2 5l44 86c-122 15 -180 114 -180 256c0 277 122 438 323 438z" />
    <glyph glyph-name="Dcaron" unicode="&#x10e;" horiz-adv-x="628" 
d="M352 748l-71 151h55l52 -107l89 107h58l-123 -151h-60zM167 676h166c178 0 262 -81 262 -230c0 -324 -142 -446 -368 -446h-179zM228 55c178 0 303 98 303 388c0 110 -56 178 -203 178h-109l-100 -566h109z" />
    <glyph glyph-name="Dcroat" unicode="&#x110;" horiz-adv-x="633" 
d="M110 322h-67l9 47h66l54 307h167c178 0 261 -81 261 -230c0 -324 -142 -446 -367 -446h-180zM234 55c177 0 302 98 302 388c0 110 -56 178 -202 178h-109l-46 -252h113l-9 -47h-111l-47 -267h109z" />
    <glyph glyph-name="Eth" unicode="&#xd0;" horiz-adv-x="633" 
d="M110 322h-67l9 47h66l54 307h167c178 0 261 -81 261 -230c0 -324 -142 -446 -367 -446h-180zM234 55c177 0 302 98 302 388c0 110 -56 178 -202 178h-109l-46 -252h113l-9 -47h-111l-47 -267h109z" />
    <glyph glyph-name="Egrave" unicode="&#xc8;" horiz-adv-x="516" 
d="M352 899l47 -151h-52l-56 151h61zM435 55l-10 -55h-377l119 676h373l-9 -55h-312l-43 -245h280l-10 -55h-280l-47 -266h316z" />
    <glyph glyph-name="Eacute" unicode="&#xc9;" horiz-adv-x="516" 
d="M503 899l-109 -151h-59l100 151h68zM435 55l-10 -55h-377l119 676h373l-9 -55h-312l-43 -245h280l-10 -55h-280l-47 -266h316z" />
    <glyph glyph-name="Ecircumflex" unicode="&#xca;" horiz-adv-x="516" 
d="M425 899l70 -151h-54l-52 107l-89 -107h-59l124 151h60zM435 55l-10 -55h-377l119 676h373l-9 -55h-312l-43 -245h280l-10 -55h-280l-47 -266h316z" />
    <glyph glyph-name="Ecaron" unicode="&#x11a;" horiz-adv-x="516" 
d="M337 748l-70 151h54l52 -107l89 107h59l-124 -151h-60zM435 55l-10 -55h-377l119 676h373l-9 -55h-312l-43 -245h280l-10 -55h-280l-47 -266h316z" />
    <glyph glyph-name="Edieresis" unicode="&#xcb;" horiz-adv-x="516" 
d="M289 773c-23 0 -40 13 -40 38c0 39 22 56 52 56c21 0 41 -14 41 -40c0 -39 -26 -54 -53 -54zM457 773c-23 0 -40 13 -40 38c0 39 22 56 52 56c21 0 41 -14 41 -40c0 -39 -25 -54 -53 -54zM435 55l-10 -55h-377l119 676h373l-9 -55h-312l-43 -245h280l-10 -55h-280
l-47 -266h316z" />
    <glyph glyph-name="Emacron" unicode="&#x112;" horiz-adv-x="516" 
d="M513 838l-9 -50h-258l8 50h259zM435 55l-10 -55h-377l119 676h373l-9 -55h-312l-43 -245h280l-10 -55h-280l-47 -266h316z" />
    <glyph glyph-name="Ebreve" unicode="&#x114;" horiz-adv-x="516" 
d="M514 884c-13 -76 -66 -131 -145 -131c-74 0 -116 55 -102 131h44c-7 -47 15 -84 64 -84c51 0 84 37 94 84h45zM435 55l-10 -55h-377l119 676h373l-9 -55h-312l-43 -245h280l-10 -55h-280l-47 -266h316z" />
    <glyph glyph-name="Edotaccent" unicode="&#x116;" horiz-adv-x="516" 
d="M374 773c-22 0 -40 12 -40 39c0 39 22 55 53 55c20 0 40 -14 40 -41c0 -38 -25 -53 -53 -53zM435 55l-10 -55h-377l119 676h373l-9 -55h-312l-43 -245h280l-10 -55h-280l-47 -266h316z" />
    <glyph glyph-name="Eogonek" unicode="&#x118;" horiz-adv-x="516" 
d="M531 621h-312l-43 -245h280l-10 -55h-280l-47 -266h316l-10 -55l-84 -62c-30 -24 -43 -42 -43 -67c0 -18 11 -37 39 -37c21 0 42 11 63 25l-9 -55c-17 -9 -40 -20 -72 -20c-53 0 -83 33 -83 74c0 46 27 75 65 104l52 38h-305l119 676h373z" />
    <glyph glyph-name="Gcircumflex" unicode="&#x11c;" horiz-adv-x="623" 
d="M482 899l70 -151h-54l-52 107l-89 -107h-59l124 151h60zM358 357h230c0 -7 -1 -15 -1 -20c-5 -145 -72 -347 -296 -347c-147 0 -218 101 -218 256c0 286 128 440 337 440c104 0 162 -45 188 -109l-50 -33c-24 58 -65 86 -141 86c-170 0 -270 -135 -270 -382
c0 -117 45 -203 157 -203c158 0 217 137 225 256h-171z" />
    <glyph glyph-name="Gbreve" unicode="&#x11e;" horiz-adv-x="623" 
d="M575 884c-13 -76 -66 -131 -145 -131c-74 0 -116 55 -102 131h44c-7 -47 15 -84 64 -84c51 0 84 37 94 84h45zM358 357h230c0 -7 -1 -15 -1 -20c-5 -145 -72 -347 -296 -347c-147 0 -218 101 -218 256c0 286 128 440 337 440c104 0 162 -45 188 -109l-50 -33
c-24 58 -65 86 -141 86c-170 0 -270 -135 -270 -382c0 -117 45 -203 157 -203c158 0 217 137 225 256h-171z" />
    <glyph glyph-name="Gdotaccent" unicode="&#x120;" horiz-adv-x="623" 
d="M434 773c-23 0 -41 12 -41 39c0 39 23 55 53 55c21 0 41 -14 41 -41c0 -38 -26 -53 -53 -53zM358 357h230c0 -7 -1 -15 -1 -20c-5 -145 -72 -347 -296 -347c-147 0 -218 101 -218 256c0 286 128 440 337 440c104 0 162 -45 188 -109l-50 -33c-24 58 -65 86 -141 86
c-170 0 -270 -135 -270 -382c0 -117 45 -203 157 -203c158 0 217 137 225 256h-171z" />
    <glyph glyph-name="uni0122" unicode="&#x122;" horiz-adv-x="623" 
d="M358 357h230c0 -7 -1 -15 -1 -20c-5 -145 -72 -347 -296 -347c-147 0 -218 101 -218 256c0 286 128 440 337 440c104 0 162 -45 188 -109l-50 -33c-24 58 -65 86 -141 86c-170 0 -270 -135 -270 -382c0 -117 45 -203 157 -203c158 0 217 137 225 256h-171zM249 -216h-47
l50 145h69z" />
    <glyph glyph-name="Hcircumflex" unicode="&#x124;" horiz-adv-x="647" 
d="M471 899l70 -151h-54l-51 107l-90 -107h-59l125 151h59zM576 676h62l-120 -676h-62l58 329h-346l-58 -329h-62l119 676h62l-52 -292h347z" />
    <glyph glyph-name="Hbar" unicode="&#x126;" horiz-adv-x="648" 
d="M147 557l21 119h62l-21 -119h346l22 119h62l-22 -119h48l-8 -45h-48l-90 -512h-62l58 329h-346l-58 -329h-62l90 512h-44l8 45h44zM547 512h-346l-23 -128h347z" />
    <glyph glyph-name="Igrave" unicode="&#xcc;" horiz-adv-x="239" 
d="M193 899l47 -151h-52l-56 151h61zM167 676h62l-119 -676h-62z" />
    <glyph glyph-name="Iacute" unicode="&#xcd;" horiz-adv-x="239" 
d="M334 899l-109 -151h-59l100 151h68zM167 676h62l-119 -676h-62z" />
    <glyph glyph-name="Ibreve" unicode="&#x12c;" horiz-adv-x="239" 
d="M356 884c-13 -76 -66 -131 -145 -131c-74 0 -116 55 -102 131h44c-7 -48 15 -84 64 -84c51 0 84 36 94 84h45zM167 676h62l-119 -676h-62z" />
    <glyph glyph-name="Icircumflex" unicode="&#xce;" horiz-adv-x="239" 
d="M264 899l69 -151h-53l-52 107l-89 -107h-60l125 151h60zM167 676h62l-119 -676h-62z" />
    <glyph glyph-name="Itilde" unicode="&#x128;" horiz-adv-x="239" 
d="M331 780c-13 15 -32 26 -52 26c-37 0 -83 -38 -136 -38c-27 0 -50 14 -58 26l15 47c11 -14 27 -24 51 -24c41 0 81 37 136 37c32 0 50 -15 61 -25zM167 676h62l-119 -676h-62z" />
    <glyph glyph-name="Idieresis" unicode="&#xcf;" horiz-adv-x="239" 
d="M129 772c-23 0 -40 14 -40 39c0 39 22 55 52 55c21 0 41 -13 41 -39c0 -39 -26 -55 -53 -55zM297 772c-23 0 -40 14 -40 39c0 39 22 55 52 55c21 0 42 -13 42 -39c0 -39 -26 -55 -54 -55zM167 676h62l-119 -676h-62z" />
    <glyph glyph-name="Imacron" unicode="&#x12a;" horiz-adv-x="239" 
d="M355 838l-9 -51h-258l8 51h259zM167 676h62l-119 -676h-62z" />
    <glyph glyph-name="Idotaccent" unicode="&#x130;" horiz-adv-x="239" 
d="M216 772c-22 0 -40 13 -40 39c0 40 23 55 53 55c21 0 40 -14 40 -40c0 -38 -25 -54 -53 -54zM167 676h62l-119 -676h-62z" />
    <glyph glyph-name="Iogonek" unicode="&#x12e;" horiz-adv-x="239" 
d="M27 -62c-31 -24 -44 -42 -44 -67c0 -18 11 -37 40 -37c20 0 42 11 63 25l-10 -55c-17 -9 -39 -20 -71 -20c-53 0 -84 33 -84 74c0 46 28 75 66 104l62 46l118 668h62l-119 -676z" />
    <glyph glyph-name="Jcircumflex" unicode="&#x134;" horiz-adv-x="470" 
d="M503 899l70 -151h-54l-52 107l-89 -107h-59l124 151h60zM53 118c20 -54 55 -72 110 -72c99 0 143 64 165 193l78 437h60l-78 -441c-29 -166 -101 -245 -228 -245c-83 0 -138 39 -158 97z" />
    <glyph glyph-name="uni0136" unicode="&#x136;" horiz-adv-x="576" 
d="M152 236l-42 -236h-62l119 676h62l-62 -349l381 349h84l-302 -281l182 -395h-73l-159 354zM187 -216h-47l49 145h70z" />
    <glyph glyph-name="Lacute" unicode="&#x139;" horiz-adv-x="454" 
d="M334 899l-109 -151h-59l100 151h68zM403 55l-10 -55h-345l119 676h62l-110 -621h284z" />
    <glyph glyph-name="Lcaron" unicode="&#x13d;" horiz-adv-x="454" 
d="M403 55l-10 -55h-345l119 676h62l-110 -621h284zM436 531h-48l50 145h69z" />
    <glyph glyph-name="uni013B" unicode="&#x13b;" horiz-adv-x="454" 
d="M403 55l-10 -55h-345l119 676h62l-110 -621h284zM172 -216h-47l49 145h70z" />
    <glyph glyph-name="Lslash" unicode="&#x141;" horiz-adv-x="470" 
d="M419 55l-10 -55h-345l46 265l-83 -35l9 53l84 34l63 359h62l-59 -332l95 38l-9 -52l-95 -39l-42 -236h284z" />
    <glyph glyph-name="Ldot" unicode="&#x13f;" horiz-adv-x="454" 
d="M403 55l-10 -55h-345l119 676h62l-110 -621h284zM356 313c-26 0 -46 21 -46 45c0 34 26 58 59 58c27 0 46 -21 46 -45c0 -35 -26 -58 -59 -58z" />
    <glyph glyph-name="Nacute" unicode="&#x143;" horiz-adv-x="656" 
d="M555 899l-109 -151h-59l100 151h68zM585 676h62l-120 -676h-68l-246 580l-102 -580h-63l120 676h69l246 -577z" />
    <glyph glyph-name="Ncaron" unicode="&#x147;" horiz-adv-x="656" 
d="M389 748l-70 151h54l52 -107l89 107h59l-124 -151h-60zM585 676h62l-120 -676h-68l-246 580l-102 -580h-63l120 676h69l246 -577z" />
    <glyph glyph-name="Ntilde" unicode="&#xd1;" horiz-adv-x="656" 
d="M547 780c-14 16 -33 26 -52 26c-38 0 -84 -37 -137 -37c-27 0 -50 13 -58 25l16 48c11 -15 27 -24 50 -24c42 0 81 37 137 37c32 0 50 -16 60 -26zM585 676h62l-120 -676h-68l-246 580l-102 -580h-63l120 676h69l246 -577z" />
    <glyph glyph-name="uni0145" unicode="&#x145;" horiz-adv-x="656" 
d="M585 676h62l-120 -676h-68l-246 580l-102 -580h-63l120 676h69l246 -577zM243 -216h-47l50 145h69z" />
    <glyph glyph-name="Ograve" unicode="&#xd2;" horiz-adv-x="642" 
d="M397 898l47 -151h-52l-56 151h61zM609 436c0 -228 -82 -446 -324 -446c-144 0 -212 101 -212 249c0 228 80 447 322 447c148 0 214 -102 214 -250zM136 239c0 -111 41 -193 152 -193c150 0 257 118 257 390c0 109 -40 194 -153 194c-208 0 -256 -211 -256 -391z" />
    <glyph glyph-name="Oacute" unicode="&#xd3;" horiz-adv-x="642" 
d="M551 899l-109 -151h-59l100 151h68zM609 436c0 -228 -82 -446 -324 -446c-144 0 -212 101 -212 249c0 228 80 447 322 447c148 0 214 -102 214 -250zM136 239c0 -111 41 -193 152 -193c150 0 257 118 257 390c0 109 -40 194 -153 194c-208 0 -256 -211 -256 -391z" />
    <glyph glyph-name="Ocircumflex" unicode="&#xd4;" horiz-adv-x="642" 
d="M469 899l70 -151h-54l-52 107l-89 -107h-59l124 151h60zM609 436c0 -228 -82 -446 -324 -446c-144 0 -212 101 -212 249c0 228 80 447 322 447c148 0 214 -102 214 -250zM136 239c0 -111 41 -193 152 -193c150 0 257 118 257 390c0 109 -40 194 -153 194
c-208 0 -256 -211 -256 -391z" />
    <glyph glyph-name="Otilde" unicode="&#xd5;" horiz-adv-x="642" 
d="M539 780c-13 16 -32 26 -52 26c-37 0 -83 -37 -136 -37c-27 0 -50 13 -58 25l15 48c11 -15 27 -24 51 -24c41 0 81 37 136 37c32 0 50 -16 60 -26zM609 436c0 -228 -82 -446 -324 -446c-144 0 -212 101 -212 249c0 228 80 447 322 447c148 0 214 -102 214 -250zM136 239
c0 -111 41 -193 152 -193c150 0 257 118 257 390c0 109 -40 194 -153 194c-208 0 -256 -211 -256 -391z" />
    <glyph glyph-name="Odieresis" unicode="&#xd6;" horiz-adv-x="642" 
d="M334 773c-23 0 -40 13 -40 38c0 39 22 56 52 56c21 0 42 -14 42 -40c0 -39 -27 -54 -54 -54zM503 773c-23 0 -41 13 -41 38c0 39 22 56 53 56c20 0 41 -14 41 -40c0 -39 -26 -54 -53 -54zM609 436c0 -228 -82 -446 -324 -446c-144 0 -212 101 -212 249
c0 228 80 447 322 447c148 0 214 -102 214 -250zM136 239c0 -111 41 -193 152 -193c150 0 257 118 257 390c0 109 -40 194 -153 194c-208 0 -256 -211 -256 -391z" />
    <glyph glyph-name="Omacron" unicode="&#x14c;" horiz-adv-x="642" 
d="M559 838l-10 -50h-258l9 50h259zM609 436c0 -228 -82 -446 -324 -446c-144 0 -212 101 -212 249c0 228 80 447 322 447c148 0 214 -102 214 -250zM136 239c0 -111 41 -193 152 -193c150 0 257 118 257 390c0 109 -40 194 -153 194c-208 0 -256 -211 -256 -391z" />
    <glyph glyph-name="Obreve" unicode="&#x14e;" horiz-adv-x="642" 
d="M561 884c-13 -76 -66 -131 -145 -131c-74 0 -116 55 -102 131h44c-7 -47 15 -84 64 -84c51 0 84 37 94 84h45zM609 436c0 -228 -82 -446 -324 -446c-144 0 -212 101 -212 249c0 228 80 447 322 447c148 0 214 -102 214 -250zM136 239c0 -111 41 -193 152 -193
c150 0 257 118 257 390c0 109 -40 194 -153 194c-208 0 -256 -211 -256 -391z" />
    <glyph glyph-name="Ohungarumlaut" unicode="&#x150;" horiz-adv-x="642" 
d="M478 899l-110 -151h-56l100 151h66zM615 899l-110 -151h-56l99 151h67zM609 436c0 -228 -82 -446 -324 -446c-144 0 -212 101 -212 249c0 228 80 447 322 447c148 0 214 -102 214 -250zM136 239c0 -111 41 -193 152 -193c150 0 257 118 257 390c0 109 -40 194 -153 194
c-208 0 -256 -211 -256 -391z" />
    <glyph glyph-name="Oslash" unicode="&#xd8;" horiz-adv-x="642" 
d="M677 676l-93 -104c17 -38 25 -84 25 -136c0 -228 -82 -446 -324 -446c-72 0 -125 25 -160 69l-53 -59h-61l89 100c-18 38 -27 86 -27 139c0 228 80 447 322 447c75 0 129 -26 164 -71l54 61h64zM136 239c0 -32 3 -61 11 -87l369 415c-24 39 -64 63 -124 63
c-208 0 -256 -211 -256 -391zM545 436c0 29 -3 57 -9 82l-369 -412c24 -37 63 -60 121 -60c150 0 257 118 257 390z" />
    <glyph glyph-name="Oslashacute" unicode="&#x1fe;" horiz-adv-x="642" 
d="M551 899l-109 -151h-59l100 151h68zM677 676l-93 -104c17 -38 25 -84 25 -136c0 -228 -82 -446 -324 -446c-72 0 -125 25 -160 69l-53 -59h-61l89 100c-18 38 -27 86 -27 139c0 228 80 447 322 447c75 0 129 -26 164 -71l54 61h64zM136 239c0 -32 3 -61 11 -87l369 415
c-24 39 -64 63 -124 63c-208 0 -256 -211 -256 -391zM545 436c0 29 -3 57 -9 82l-369 -412c24 -37 63 -60 121 -60c150 0 257 118 257 390z" />
    <glyph glyph-name="OE" unicode="&#x152;" horiz-adv-x="840" 
d="M759 55l-10 -55h-375c-27 -6 -61 -10 -95 -10c-146 0 -206 108 -206 248c0 204 66 448 328 448c31 0 66 -4 93 -10h371l-10 -55h-310l-44 -245h279l-9 -55h-279l-47 -266h314zM288 46c32 0 66 4 95 11l99 557c-27 10 -58 16 -90 16c-198 0 -255 -202 -255 -392
c0 -110 41 -192 151 -192z" />
    <glyph glyph-name="Racute" unicode="&#x154;" horiz-adv-x="570" 
d="M495 899l-109 -151h-59l100 151h68zM167 676h210c127 0 191 -58 191 -154c0 -127 -81 -201 -207 -210l135 -312h-70l-128 308h-134l-54 -308h-62zM503 521c0 62 -38 100 -136 100h-148l-46 -258h148c135 0 182 62 182 158z" />
    <glyph glyph-name="Rcaron" unicode="&#x158;" horiz-adv-x="570" 
d="M328 748l-71 151h55l52 -107l89 107h58l-123 -151h-60zM167 676h210c127 0 191 -58 191 -154c0 -127 -81 -201 -207 -210l135 -312h-70l-128 308h-134l-54 -308h-62zM503 521c0 62 -38 100 -136 100h-148l-46 -258h148c135 0 182 62 182 158z" />
    <glyph glyph-name="uni0156" unicode="&#x156;" horiz-adv-x="570" 
d="M167 676h210c127 0 191 -58 191 -154c0 -127 -81 -201 -207 -210l135 -312h-70l-128 308h-134l-54 -308h-62zM503 521c0 62 -38 100 -136 100h-148l-46 -258h148c135 0 182 62 182 158zM184 -216h-47l49 145h70z" />
    <glyph glyph-name="Sacute" unicode="&#x15a;" horiz-adv-x="526" 
d="M489 899l-109 -151h-59l100 151h68zM475 554c-19 49 -66 76 -136 76c-106 0 -164 -71 -164 -155c0 -50 33 -76 87 -96l80 -28c66 -23 126 -59 126 -148c0 -116 -85 -213 -243 -213c-147 0 -185 75 -199 130l52 30c12 -53 40 -104 150 -104c116 0 176 67 176 153
c0 55 -41 82 -93 100l-82 28c-66 24 -118 63 -118 145c0 107 82 214 231 214c101 0 166 -47 185 -99z" />
    <glyph glyph-name="Scircumflex" unicode="&#x15c;" horiz-adv-x="526" 
d="M413 899l69 -151h-53l-52 107l-89 -107h-60l125 151h60zM475 554c-19 49 -66 76 -136 76c-106 0 -164 -71 -164 -155c0 -50 33 -76 87 -96l80 -28c66 -23 126 -59 126 -148c0 -116 -85 -213 -243 -213c-147 0 -185 75 -199 130l52 30c12 -53 40 -104 150 -104
c116 0 176 67 176 153c0 55 -41 82 -93 100l-82 28c-66 24 -118 63 -118 145c0 107 82 214 231 214c101 0 166 -47 185 -99z" />
    <glyph glyph-name="Scaron" unicode="&#x160;" horiz-adv-x="526" 
d="M325 748l-71 151h55l52 -107l89 107h58l-123 -151h-60zM475 554c-19 49 -66 76 -136 76c-106 0 -164 -71 -164 -155c0 -50 33 -76 87 -96l80 -28c66 -23 126 -59 126 -148c0 -116 -85 -213 -243 -213c-147 0 -185 75 -199 130l52 30c12 -53 40 -104 150 -104
c116 0 176 67 176 153c0 55 -41 82 -93 100l-82 28c-66 24 -118 63 -118 145c0 107 82 214 231 214c101 0 166 -47 185 -99z" />
    <glyph glyph-name="Scedilla" unicode="&#x15e;" horiz-adv-x="526" 
d="M339 630c-106 0 -164 -71 -164 -155c0 -50 33 -76 87 -96l80 -28c66 -23 126 -59 126 -148c0 -113 -80 -207 -229 -213l-28 -50c41 0 72 -19 72 -65c0 -51 -37 -91 -105 -91c-30 0 -58 11 -77 22l9 46c17 -15 42 -25 69 -25c33 0 50 19 50 42c0 25 -20 32 -50 32h-30
l-2 5l44 85c-119 11 -152 79 -165 129l52 30c12 -53 40 -104 150 -104c116 0 176 67 176 153c0 55 -41 82 -93 100l-82 28c-66 24 -118 63 -118 145c0 107 82 214 231 214c101 0 166 -47 185 -99l-52 -33c-19 49 -66 76 -136 76z" />
    <glyph glyph-name="uni0218" unicode="&#x218;" horiz-adv-x="526" 
d="M475 554c-19 49 -66 76 -136 76c-106 0 -164 -71 -164 -155c0 -50 33 -76 87 -96l80 -28c66 -23 126 -59 126 -148c0 -116 -85 -213 -243 -213c-147 0 -185 75 -199 130l52 30c12 -53 40 -104 150 -104c116 0 176 67 176 153c0 55 -41 82 -93 100l-82 28
c-66 24 -118 63 -118 145c0 107 82 214 231 214c101 0 166 -47 185 -99zM178 -216h-47l49 145h70z" />
    <glyph glyph-name="Tcaron" unicode="&#x164;" horiz-adv-x="509" 
d="M319 748l-71 151h55l52 -107l89 107h58l-123 -151h-60zM554 676l-9 -55h-190l-110 -621h-62l110 621h-191l9 55h443z" />
    <glyph glyph-name="uni021A" unicode="&#x21a;" horiz-adv-x="509" 
d="M554 676l-9 -55h-190l-110 -621h-62l110 621h-191l9 55h443zM165 -216h-47l49 145h70z" />
    <glyph glyph-name="Tbar" unicode="&#x166;" horiz-adv-x="509" 
d="M247 364l46 257h-191l9 55h443l-9 -55h-190l-46 -257h88l-7 -46h-89l-56 -318h-62l56 318h-89l8 46h89z" />
    <glyph glyph-name="Thorn" unicode="&#xde;" horiz-adv-x="539" 
d="M134 142l-24 -142h-62l119 677h61l-24 -135h134c121 0 180 -65 180 -159c0 -141 -69 -241 -248 -241h-136zM144 196h131c141 0 178 87 178 180c0 63 -34 111 -126 111h-131z" />
    <glyph glyph-name="Ugrave" unicode="&#xd9;" horiz-adv-x="629" 
d="M391 898l47 -151h-52l-56 151h61zM282 -10c-139 0 -228 69 -195 259l76 427h62l-76 -430c-26 -146 26 -200 135 -200c105 0 179 53 205 200l75 430h62l-75 -427c-33 -191 -135 -259 -269 -259z" />
    <glyph glyph-name="Uacute" unicode="&#xda;" horiz-adv-x="629" 
d="M544 899l-109 -151h-59l100 151h68zM282 -10c-139 0 -228 69 -195 259l76 427h62l-76 -430c-26 -146 26 -200 135 -200c105 0 179 53 205 200l75 430h62l-75 -427c-33 -191 -135 -259 -269 -259z" />
    <glyph glyph-name="Ucircumflex" unicode="&#xdb;" horiz-adv-x="629" 
d="M463 899l70 -151h-54l-51 107l-90 -107h-59l124 151h60zM282 -10c-139 0 -228 69 -195 259l76 427h62l-76 -430c-26 -146 26 -200 135 -200c105 0 179 53 205 200l75 430h62l-75 -427c-33 -191 -135 -259 -269 -259z" />
    <glyph glyph-name="Utilde" unicode="&#x168;" horiz-adv-x="629" 
d="M532 780c-13 16 -32 26 -52 26c-37 0 -83 -37 -136 -37c-27 0 -50 13 -58 25l15 48c11 -15 27 -24 51 -24c41 0 81 37 136 37c32 0 50 -16 61 -26zM282 -10c-139 0 -228 69 -195 259l76 427h62l-76 -430c-26 -146 26 -200 135 -200c105 0 179 53 205 200l75 430h62
l-75 -427c-33 -191 -135 -259 -269 -259z" />
    <glyph glyph-name="Udieresis" unicode="&#xdc;" horiz-adv-x="629" 
d="M328 773c-23 0 -40 13 -40 38c0 39 22 56 52 56c21 0 41 -14 41 -40c0 -39 -26 -54 -53 -54zM497 773c-23 0 -41 13 -41 38c0 39 22 56 53 56c20 0 41 -14 41 -40c0 -39 -26 -54 -53 -54zM282 -10c-139 0 -228 69 -195 259l76 427h62l-76 -430c-26 -146 26 -200 135 -200
c105 0 179 53 205 200l75 430h62l-75 -427c-33 -191 -135 -259 -269 -259z" />
    <glyph glyph-name="Umacron" unicode="&#x16a;" horiz-adv-x="629" 
d="M552 838l-10 -50h-258l9 50h259zM282 -10c-139 0 -228 69 -195 259l76 427h62l-76 -430c-26 -146 26 -200 135 -200c105 0 179 53 205 200l75 430h62l-75 -427c-33 -191 -135 -259 -269 -259z" />
    <glyph glyph-name="Ubreve" unicode="&#x16c;" horiz-adv-x="629" 
d="M552 884c-13 -76 -66 -131 -145 -131c-74 0 -116 55 -102 131h44c-7 -47 15 -84 64 -84c51 0 84 37 94 84h45zM282 -10c-139 0 -228 69 -195 259l76 427h62l-76 -430c-26 -146 26 -200 135 -200c105 0 179 53 205 200l75 430h62l-75 -427c-33 -191 -135 -259 -269 -259z
" />
    <glyph glyph-name="Uring" unicode="&#x16e;" horiz-adv-x="629" 
d="M322 813c0 62 45 106 112 106c53 0 85 -35 85 -78c0 -61 -46 -106 -114 -106c-51 0 -83 35 -83 78zM366 817c0 -26 16 -44 44 -44c39 0 65 27 65 64c0 26 -16 44 -46 44c-37 0 -63 -27 -63 -64zM282 -10c-139 0 -228 69 -195 259l76 427h62l-76 -430
c-26 -146 26 -200 135 -200c105 0 179 53 205 200l75 430h62l-75 -427c-33 -191 -135 -259 -269 -259z" />
    <glyph glyph-name="Uhungarumlaut" unicode="&#x170;" horiz-adv-x="629" 
d="M472 899l-109 -151h-57l100 151h66zM610 899l-110 -151h-57l99 151h68zM282 -10c-139 0 -228 69 -195 259l76 427h62l-76 -430c-26 -146 26 -200 135 -200c105 0 179 53 205 200l75 430h62l-75 -427c-33 -191 -135 -259 -269 -259z" />
    <glyph glyph-name="Uogonek" unicode="&#x172;" horiz-adv-x="629" 
d="M564 676h62l-75 -427c-29 -171 -114 -243 -227 -257l-73 -54c-31 -24 -44 -42 -44 -67c0 -18 11 -37 40 -37c20 0 42 11 63 25l-10 -55c-17 -9 -39 -20 -71 -20c-53 0 -84 33 -84 74c0 46 28 75 66 104l39 29c-120 11 -193 83 -163 258l76 427h62l-76 -430
c-26 -146 26 -200 135 -200c105 0 179 53 205 200z" />
    <glyph glyph-name="Wacute" unicode="&#x1e82;" horiz-adv-x="924" 
d="M684 898l-109 -151h-59l100 151h68zM575 676l60 -601l271 601h70l-311 -676h-78l-62 590l-268 -590h-78l-74 676h65l60 -601l272 601h73z" />
    <glyph glyph-name="Wcircumflex" unicode="&#x174;" horiz-adv-x="924" 
d="M611 899l70 -151h-54l-52 107l-89 -107h-59l124 151h60zM575 676l60 -601l271 601h70l-311 -676h-78l-62 590l-268 -590h-78l-74 676h65l60 -601l272 601h73z" />
    <glyph glyph-name="Wdieresis" unicode="&#x1e84;" horiz-adv-x="924" 
d="M474 773c-23 0 -40 13 -40 38c0 39 22 56 52 56c21 0 41 -14 41 -40c0 -39 -26 -54 -53 -54zM643 773c-23 0 -41 13 -41 38c0 39 22 56 53 56c20 0 41 -14 41 -40c0 -39 -26 -54 -53 -54zM575 676l60 -601l271 601h70l-311 -676h-78l-62 590l-268 -590h-78l-74 676h65
l60 -601l272 601h73z" />
    <glyph glyph-name="Wgrave" unicode="&#x1e80;" horiz-adv-x="924" 
d="M532 899l47 -151h-52l-57 151h62zM575 676l60 -601l271 601h70l-311 -676h-78l-62 590l-268 -590h-78l-74 676h65l60 -601l272 601h73z" />
    <glyph glyph-name="Yacute" unicode="&#xdd;" horiz-adv-x="544" 
d="M498 916l-109 -151h-59l100 151h68zM200 0l49 274l-150 402h66l122 -342l241 342h76l-293 -402l-49 -274h-62z" />
    <glyph glyph-name="Ycircumflex" unicode="&#x176;" horiz-adv-x="544" 
d="M415 899l70 -151h-54l-52 107l-89 -107h-59l124 151h60zM200 0l49 274l-150 402h66l122 -342l241 342h76l-293 -402l-49 -274h-62z" />
    <glyph glyph-name="Ydieresis" unicode="&#x178;" horiz-adv-x="544" 
d="M277 773c-23 0 -40 13 -40 38c0 39 21 56 52 56c20 0 41 -14 41 -40c0 -39 -26 -54 -53 -54zM445 773c-23 0 -40 13 -40 38c0 39 22 56 52 56c21 0 41 -14 41 -40c0 -39 -25 -54 -53 -54zM200 0l49 274l-150 402h66l122 -342l241 342h76l-293 -402l-49 -274h-62z" />
    <glyph glyph-name="Ygrave" unicode="&#x1ef2;" horiz-adv-x="544" 
d="M335 899l47 -151h-53l-56 151h62zM200 0l49 274l-150 402h66l122 -342l241 342h76l-293 -402l-49 -274h-62z" />
    <glyph glyph-name="Zacute" unicode="&#x179;" horiz-adv-x="490" 
d="M471 916l-109 -151h-59l100 151h68zM513 627l-428 -572h332l-10 -55h-409l8 49l428 572h-308l10 55h386z" />
    <glyph glyph-name="Zcaron" unicode="&#x17d;" horiz-adv-x="490" 
d="M310 748l-71 151h55l52 -107l89 107h58l-123 -151h-60zM513 627l-428 -572h332l-10 -55h-409l8 49l428 572h-308l10 55h386z" />
    <glyph glyph-name="Zdotaccent" unicode="&#x17b;" horiz-adv-x="490" 
d="M346 773c-22 0 -41 12 -41 39c0 39 23 55 54 55c20 0 40 -14 40 -41c0 -38 -26 -53 -53 -53zM513 627l-428 -572h332l-10 -55h-409l8 49l428 572h-308l10 55h386z" />
    <glyph glyph-name="agrave" unicode="&#xe0;" horiz-adv-x="500" 
d="M296 696l47 -151h-52l-56 151h61zM408 456h57l-80 -456h-56l8 44c-30 -29 -73 -54 -133 -54c-106 0 -156 67 -156 179c0 184 83 297 227 297c62 0 104 -28 124 -58zM108 173c0 -77 28 -128 107 -128c61 0 107 32 133 67l40 231c-12 30 -44 68 -107 68
c-116 0 -173 -95 -173 -238z" />
    <glyph glyph-name="aacute" unicode="&#xe1;" horiz-adv-x="500" 
d="M437 696l-109 -151h-59l100 151h68zM408 456h57l-80 -456h-56l8 44c-30 -29 -73 -54 -133 -54c-106 0 -156 67 -156 179c0 184 83 297 227 297c62 0 104 -28 124 -58zM108 173c0 -77 28 -128 107 -128c61 0 107 32 133 67l40 231c-12 30 -44 68 -107 68
c-116 0 -173 -95 -173 -238z" />
    <glyph glyph-name="acircumflex" unicode="&#xe2;" horiz-adv-x="500" 
d="M368 696l69 -151h-53l-52 107l-89 -107h-60l125 151h60zM408 456h57l-80 -456h-56l8 44c-30 -29 -73 -54 -133 -54c-106 0 -156 67 -156 179c0 184 83 297 227 297c62 0 104 -28 124 -58zM108 173c0 -77 28 -128 107 -128c61 0 107 32 133 67l40 231
c-12 30 -44 68 -107 68c-116 0 -173 -95 -173 -238z" />
    <glyph glyph-name="atilde" unicode="&#xe3;" horiz-adv-x="500" 
d="M434 577c-13 15 -32 26 -52 26c-37 0 -83 -38 -136 -38c-27 0 -50 14 -58 26l15 47c11 -14 27 -24 51 -24c41 0 81 37 136 37c32 0 50 -15 61 -25zM408 456h57l-80 -456h-56l8 44c-30 -29 -73 -54 -133 -54c-106 0 -156 67 -156 179c0 184 83 297 227 297
c62 0 104 -28 124 -58zM108 173c0 -77 28 -128 107 -128c61 0 107 32 133 67l40 231c-12 30 -44 68 -107 68c-116 0 -173 -95 -173 -238z" />
    <glyph glyph-name="adieresis" unicode="&#xe4;" horiz-adv-x="500" 
d="M233 569c-23 0 -40 14 -40 39c0 39 22 55 52 55c21 0 41 -13 41 -39c0 -39 -26 -55 -53 -55zM401 569c-23 0 -40 14 -40 39c0 39 22 55 52 55c21 0 42 -13 42 -39c0 -39 -26 -55 -54 -55zM408 456h57l-80 -456h-56l8 44c-30 -29 -73 -54 -133 -54
c-106 0 -156 67 -156 179c0 184 83 297 227 297c62 0 104 -28 124 -58zM108 173c0 -77 28 -128 107 -128c61 0 107 32 133 67l40 231c-12 30 -44 68 -107 68c-116 0 -173 -95 -173 -238z" />
    <glyph glyph-name="amacron" unicode="&#x101;" horiz-adv-x="500" 
d="M458 635l-9 -51h-258l8 51h259zM408 456h57l-80 -456h-56l8 44c-30 -29 -73 -54 -133 -54c-106 0 -156 67 -156 179c0 184 83 297 227 297c62 0 104 -28 124 -58zM108 173c0 -77 28 -128 107 -128c61 0 107 32 133 67l40 231c-12 30 -44 68 -107 68
c-116 0 -173 -95 -173 -238z" />
    <glyph glyph-name="abreve" unicode="&#x103;" horiz-adv-x="500" 
d="M459 681c-13 -76 -66 -131 -145 -131c-74 0 -116 55 -102 131h44c-7 -48 15 -84 64 -84c51 0 84 36 94 84h45zM408 456h57l-80 -456h-56l8 44c-30 -29 -73 -54 -133 -54c-106 0 -156 67 -156 179c0 184 83 297 227 297c62 0 104 -28 124 -58zM108 173
c0 -77 28 -128 107 -128c61 0 107 32 133 67l40 231c-12 30 -44 68 -107 68c-116 0 -173 -95 -173 -238z" />
    <glyph glyph-name="aring" unicode="&#xe5;" horiz-adv-x="500" 
d="M224 610c0 62 45 106 112 106c53 0 84 -35 84 -78c0 -62 -45 -107 -113 -107c-51 0 -83 35 -83 79zM268 614c0 -26 15 -44 44 -44c39 0 65 26 65 64c0 26 -16 43 -46 43c-37 0 -63 -26 -63 -63zM408 456h57l-80 -456h-56l8 44c-30 -29 -73 -54 -133 -54
c-106 0 -156 67 -156 179c0 184 83 297 227 297c62 0 104 -28 124 -58zM108 173c0 -77 28 -128 107 -128c61 0 107 32 133 67l40 231c-12 30 -44 68 -107 68c-116 0 -173 -95 -173 -238z" />
    <glyph glyph-name="aringacute" unicode="&#x1fb;" horiz-adv-x="500" 
d="M220 601c0 55 36 99 97 104l62 70h67l-77 -76c28 -11 47 -38 47 -73c0 -61 -48 -104 -112 -104c-55 0 -84 36 -84 79zM262 604c0 -27 17 -44 44 -44c40 0 66 26 66 64c0 26 -17 44 -46 44c-37 0 -64 -27 -64 -64zM408 456h57l-80 -456h-56l8 44c-30 -29 -73 -54 -133 -54
c-106 0 -156 67 -156 179c0 184 83 297 227 297c62 0 104 -28 124 -58zM108 173c0 -77 28 -128 107 -128c61 0 107 32 133 67l40 231c-12 30 -44 68 -107 68c-116 0 -173 -95 -173 -238z" />
    <glyph glyph-name="aogonek" unicode="&#x105;" horiz-adv-x="500" 
d="M408 456h57l-80 -456h-9l-83 -62c-31 -24 -43 -42 -43 -67c0 -18 10 -37 39 -37c20 0 42 11 63 25l-9 -55c-18 -9 -40 -20 -72 -20c-53 0 -83 33 -83 74c0 46 28 76 67 104l70 52l6 -2l6 32c-30 -29 -73 -54 -133 -54c-106 0 -156 67 -156 179c0 184 83 297 227 297
c62 0 104 -28 124 -58zM348 112l40 231c-12 30 -44 68 -107 68c-116 0 -173 -95 -173 -238c0 -77 28 -128 107 -128c61 0 107 32 133 67z" />
    <glyph glyph-name="ae" unicode="&#xe6;" horiz-adv-x="704" 
d="M457 42c38 0 93 19 132 55l24 -45c-31 -32 -92 -62 -158 -62c-80 0 -127 28 -147 82c-44 -48 -110 -82 -187 -82s-125 40 -125 103c0 111 88 152 221 168l89 10l9 53c10 61 -8 91 -83 91c-67 0 -106 -24 -112 -62l-6 -30h-52c0 11 1 20 3 33c12 63 64 110 172 110
c77 0 121 -24 129 -75c34 48 84 75 153 75c99 0 147 -73 147 -151c0 -41 -12 -79 -21 -105h-291c-17 -99 8 -168 103 -168zM600 258c2 8 9 21 9 53c0 58 -31 104 -92 104c-88 0 -134 -68 -154 -157h237zM57 102c0 -38 23 -62 73 -62c58 0 111 31 146 65l22 121l-85 -11
c-96 -13 -156 -42 -156 -113z" />
    <glyph glyph-name="aeacute" unicode="&#x1fd;" horiz-adv-x="704" 
d="M569 696l-109 -151h-59l100 151h68zM457 42c38 0 93 19 132 55l24 -45c-31 -32 -92 -62 -158 -62c-80 0 -127 28 -147 82c-44 -48 -110 -82 -187 -82s-125 40 -125 103c0 111 88 152 221 168l89 10l9 53c10 61 -8 91 -83 91c-67 0 -106 -24 -112 -62l-6 -30h-52
c0 11 1 20 3 33c12 63 64 110 172 110c77 0 121 -24 129 -75c34 48 84 75 153 75c99 0 147 -73 147 -151c0 -41 -12 -79 -21 -105h-291c-17 -99 8 -168 103 -168zM600 258c2 8 9 21 9 53c0 58 -31 104 -92 104c-88 0 -134 -68 -154 -157h237zM57 102c0 -38 23 -62 73 -62
c58 0 111 31 146 65l22 121l-85 -11c-96 -13 -156 -42 -156 -113z" />
    <glyph glyph-name="cacute" unicode="&#x107;" horiz-adv-x="439" 
d="M407 696l-109 -151h-59l100 151h68zM47 170c0 157 74 296 230 296c73 0 126 -30 149 -88l-46 -30c-17 45 -53 64 -103 64c-125 0 -170 -124 -170 -239c0 -72 34 -130 109 -130c49 0 92 20 123 65l43 -31c-41 -56 -98 -87 -170 -87c-109 0 -165 72 -165 180z" />
    <glyph glyph-name="ccircumflex" unicode="&#x109;" horiz-adv-x="439" 
d="M359 696l70 -151h-54l-52 107l-89 -107h-59l124 151h60zM47 170c0 157 74 296 230 296c73 0 126 -30 149 -88l-46 -30c-17 45 -53 64 -103 64c-125 0 -170 -124 -170 -239c0 -72 34 -130 109 -130c49 0 92 20 123 65l43 -31c-41 -56 -98 -87 -170 -87
c-109 0 -165 72 -165 180z" />
    <glyph glyph-name="ccaron" unicode="&#x10d;" horiz-adv-x="439" 
d="M272 545l-70 151h54l52 -107l89 107h58l-123 -151h-60zM47 170c0 157 74 296 230 296c73 0 126 -30 149 -88l-46 -30c-17 45 -53 64 -103 64c-125 0 -170 -124 -170 -239c0 -72 34 -130 109 -130c49 0 92 20 123 65l43 -31c-41 -56 -98 -87 -170 -87
c-109 0 -165 72 -165 180z" />
    <glyph glyph-name="cdotaccent" unicode="&#x10b;" horiz-adv-x="439" 
d="M310 569c-23 0 -41 13 -41 39c0 40 23 55 53 55c21 0 41 -14 41 -40c0 -38 -26 -54 -53 -54zM47 170c0 157 74 296 230 296c73 0 126 -30 149 -88l-46 -30c-17 45 -53 64 -103 64c-125 0 -170 -124 -170 -239c0 -72 34 -130 109 -130c49 0 92 20 123 65l43 -31
c-41 -56 -98 -87 -170 -87c-109 0 -165 72 -165 180z" />
    <glyph glyph-name="ccedilla" unicode="&#xe7;" horiz-adv-x="439" 
d="M216 43c49 0 92 20 123 65l43 -31c-37 -50 -87 -81 -149 -86l-27 -51c41 0 72 -19 72 -65c0 -51 -37 -91 -106 -91c-30 0 -58 11 -76 22l8 46c18 -15 43 -25 70 -25c33 0 50 19 50 42c0 25 -20 32 -50 32h-31l-2 5l44 86c-91 11 -138 79 -138 178c0 157 74 296 230 296
c73 0 126 -30 149 -88l-46 -30c-17 45 -53 64 -103 64c-125 0 -170 -124 -170 -239c0 -72 34 -130 109 -130z" />
    <glyph glyph-name="dcaron" unicode="&#x10f;" horiz-adv-x="500" 
d="M450 690h57l-122 -690h-56l8 44c-30 -29 -73 -54 -133 -54c-106 0 -156 67 -156 179c0 184 83 297 227 297c62 0 104 -28 124 -58zM583 545h-47l50 145h69zM108 173c0 -77 28 -128 107 -128c61 0 107 32 133 67l40 231c-12 30 -44 68 -107 68c-116 0 -173 -95 -173 -238z
" />
    <glyph glyph-name="dcroat" unicode="&#x111;" horiz-adv-x="500" 
d="M549 584l-8 -46h-61l-95 -538h-56l8 44c-30 -29 -73 -54 -133 -54c-106 0 -156 67 -156 179c0 184 83 297 227 297c62 0 104 -28 124 -58l24 130h-112l9 46h111l19 106h57l-19 -106h61zM348 112l40 231c-12 30 -44 68 -107 68c-116 0 -173 -95 -173 -238
c0 -77 28 -128 107 -128c61 0 107 32 133 67z" />
    <glyph glyph-name="eth" unicode="&#xf0;" horiz-adv-x="518" 
d="M518 594l-63 -30c14 -45 22 -97 22 -156c0 -231 -82 -418 -264 -418c-112 0 -167 71 -167 180c0 168 91 277 226 277c88 0 123 -50 144 -97c6 69 1 132 -17 188l-84 -39l-16 43l84 39c-18 42 -44 78 -77 109h79c20 -21 39 -49 54 -83l63 30zM216 43
c110 0 165 100 185 212c-10 67 -51 137 -127 137c-118 0 -168 -108 -168 -219c0 -71 30 -130 110 -130z" />
    <glyph glyph-name="egrave" unicode="&#xe8;" horiz-adv-x="454" 
d="M273 696l47 -151h-52l-56 151h61zM212 42c43 0 94 18 132 54l24 -44c-31 -32 -92 -62 -159 -62c-127 0 -164 81 -164 170c0 168 83 306 227 306c97 0 148 -63 148 -154c0 -41 -12 -76 -21 -102h-291c-14 -97 8 -168 104 -168zM354 258c2 8 9 21 9 53
c0 58 -30 104 -92 104c-88 0 -135 -70 -155 -157h238z" />
    <glyph glyph-name="eacute" unicode="&#xe9;" horiz-adv-x="454" 
d="M427 696l-109 -151h-59l100 151h68zM212 42c43 0 94 18 132 54l24 -44c-31 -32 -92 -62 -159 -62c-127 0 -164 81 -164 170c0 168 83 306 227 306c97 0 148 -63 148 -154c0 -41 -12 -76 -21 -102h-291c-14 -97 8 -168 104 -168zM354 258c2 8 9 21 9 53
c0 58 -30 104 -92 104c-88 0 -135 -70 -155 -157h238z" />
    <glyph glyph-name="ecircumflex" unicode="&#xea;" horiz-adv-x="454" 
d="M350 696l70 -151h-54l-52 107l-89 -107h-59l124 151h60zM212 42c43 0 94 18 132 54l24 -44c-31 -32 -92 -62 -159 -62c-127 0 -164 81 -164 170c0 168 83 306 227 306c97 0 148 -63 148 -154c0 -41 -12 -76 -21 -102h-291c-14 -97 8 -168 104 -168zM354 258
c2 8 9 21 9 53c0 58 -30 104 -92 104c-88 0 -135 -70 -155 -157h238z" />
    <glyph glyph-name="ecaron" unicode="&#x11b;" horiz-adv-x="454" 
d="M265 545l-70 151h54l52 -107l89 107h59l-124 -151h-60zM212 42c43 0 94 18 132 54l24 -44c-31 -32 -92 -62 -159 -62c-127 0 -164 81 -164 170c0 168 83 306 227 306c97 0 148 -63 148 -154c0 -41 -12 -76 -21 -102h-291c-14 -97 8 -168 104 -168zM354 258c2 8 9 21 9 53
c0 58 -30 104 -92 104c-88 0 -135 -70 -155 -157h238z" />
    <glyph glyph-name="edieresis" unicode="&#xeb;" horiz-adv-x="454" 
d="M218 569c-23 0 -41 14 -41 39c0 39 22 55 53 55c20 0 41 -13 41 -39c0 -39 -27 -55 -53 -55zM386 569c-23 0 -40 14 -40 39c0 39 22 55 52 55c21 0 41 -13 41 -39c0 -39 -26 -55 -53 -55zM212 42c43 0 94 18 132 54l24 -44c-31 -32 -92 -62 -159 -62
c-127 0 -164 81 -164 170c0 168 83 306 227 306c97 0 148 -63 148 -154c0 -41 -12 -76 -21 -102h-291c-14 -97 8 -168 104 -168zM354 258c2 8 9 21 9 53c0 58 -30 104 -92 104c-88 0 -135 -70 -155 -157h238z" />
    <glyph glyph-name="emacron" unicode="&#x113;" horiz-adv-x="454" 
d="M442 635l-10 -51h-258l9 51h259zM212 42c43 0 94 18 132 54l24 -44c-31 -32 -92 -62 -159 -62c-127 0 -164 81 -164 170c0 168 83 306 227 306c97 0 148 -63 148 -154c0 -41 -12 -76 -21 -102h-291c-14 -97 8 -168 104 -168zM354 258c2 8 9 21 9 53c0 58 -30 104 -92 104
c-88 0 -135 -70 -155 -157h238z" />
    <glyph glyph-name="ebreve" unicode="&#x115;" horiz-adv-x="454" 
d="M442 681c-14 -76 -66 -131 -145 -131c-75 0 -116 55 -103 131h44c-6 -48 15 -84 65 -84c51 0 84 36 93 84h46zM212 42c43 0 94 18 132 54l24 -44c-31 -32 -92 -62 -159 -62c-127 0 -164 81 -164 170c0 168 83 306 227 306c97 0 148 -63 148 -154c0 -41 -12 -76 -21 -102
h-291c-14 -97 8 -168 104 -168zM354 258c2 8 9 21 9 53c0 58 -30 104 -92 104c-88 0 -135 -70 -155 -157h238z" />
    <glyph glyph-name="edotaccent" unicode="&#x117;" horiz-adv-x="454" 
d="M306 569c-23 0 -41 13 -41 39c0 40 23 55 53 55c21 0 41 -14 41 -40c0 -38 -26 -54 -53 -54zM212 42c43 0 94 18 132 54l24 -44c-31 -32 -92 -62 -159 -62c-127 0 -164 81 -164 170c0 168 83 306 227 306c97 0 148 -63 148 -154c0 -41 -12 -76 -21 -102h-291
c-14 -97 8 -168 104 -168zM354 258c2 8 9 21 9 53c0 58 -30 104 -92 104c-88 0 -135 -70 -155 -157h238z" />
    <glyph glyph-name="eogonek" unicode="&#x119;" horiz-adv-x="454" 
d="M399 210h-291c-14 -97 8 -168 104 -168c43 0 94 18 132 54l23 -42l1 -2c-6 -7 -14 -13 -22 -19l-88 -86c-35 -34 -48 -50 -48 -75c0 -19 11 -38 40 -38c18 0 42 11 62 25l-9 -53c-18 -11 -42 -22 -74 -22c-53 0 -81 31 -81 72c0 46 28 72 69 112l25 24
c-11 -1 -22 -2 -33 -2c-127 0 -164 81 -164 170c0 168 83 306 227 306c97 0 148 -63 148 -154c0 -41 -12 -76 -21 -102zM271 415c-88 0 -135 -70 -155 -157h238c2 8 9 21 9 53c0 58 -30 104 -92 104z" />
    <glyph glyph-name="gcircumflex" unicode="&#x11d;" horiz-adv-x="497" 
d="M365 696l70 -151h-54l-51 107l-90 -107h-59l125 151h59zM462 456l-87 -495c-16 -92 -92 -163 -197 -163c-114 0 -161 65 -149 131h54c-5 -39 21 -80 97 -80c74 0 124 45 136 112l15 85c-28 -29 -71 -56 -126 -56c-111 0 -157 71 -157 179c0 167 75 297 226 297
c68 0 104 -28 123 -61l8 51h57zM108 173c0 -69 27 -128 106 -128c53 0 99 30 129 68l41 230c-16 34 -49 68 -105 68c-123 0 -171 -114 -171 -238z" />
    <glyph glyph-name="gbreve" unicode="&#x11f;" horiz-adv-x="497" 
d="M453 681c-13 -76 -66 -131 -145 -131c-74 0 -115 55 -102 131h44c-7 -48 15 -84 64 -84c51 0 84 36 94 84h45zM462 456l-87 -495c-16 -92 -92 -163 -197 -163c-114 0 -161 65 -149 131h54c-5 -39 21 -80 97 -80c74 0 124 45 136 112l15 85c-28 -29 -71 -56 -126 -56
c-111 0 -157 71 -157 179c0 167 75 297 226 297c68 0 104 -28 123 -61l8 51h57zM108 173c0 -69 27 -128 106 -128c53 0 99 30 129 68l41 230c-16 34 -49 68 -105 68c-123 0 -171 -114 -171 -238z" />
    <glyph glyph-name="gdotaccent" unicode="&#x121;" horiz-adv-x="497" 
d="M313 569c-22 0 -40 13 -40 39c0 40 23 55 53 55c21 0 40 -14 40 -40c0 -38 -25 -54 -53 -54zM462 456l-87 -495c-16 -92 -92 -163 -197 -163c-114 0 -161 65 -149 131h54c-5 -39 21 -80 97 -80c74 0 124 45 136 112l15 85c-28 -29 -71 -56 -126 -56
c-111 0 -157 71 -157 179c0 167 75 297 226 297c68 0 104 -28 123 -61l8 51h57zM108 173c0 -69 27 -128 106 -128c53 0 99 30 129 68l41 230c-16 34 -49 68 -105 68c-123 0 -171 -114 -171 -238z" />
    <glyph glyph-name="uni0123" unicode="&#x123;" horiz-adv-x="497" 
d="M356 724h48l-61 -169h-70zM462 456l-87 -495c-16 -92 -92 -163 -197 -163c-114 0 -161 65 -149 131h54c-5 -39 21 -80 97 -80c74 0 124 45 136 112l15 85c-28 -29 -71 -56 -126 -56c-111 0 -157 71 -157 179c0 167 75 297 226 297c68 0 104 -28 123 -61l8 51h57zM108 173
c0 -69 27 -128 106 -128c53 0 99 30 129 68l41 230c-16 34 -49 68 -105 68c-123 0 -171 -114 -171 -238z" />
    <glyph glyph-name="hcircumflex" unicode="&#x125;" horiz-adv-x="503" 
d="M407 886l69 -151h-53l-52 107l-89 -107h-60l125 151h60zM157 690h58l-50 -281c33 31 93 57 148 57c111 0 151 -57 131 -172l-53 -294h-58l52 291c15 83 -5 120 -87 120c-59 0 -110 -28 -144 -63l-61 -348h-58z" />
    <glyph glyph-name="hbar" unicode="&#x127;" horiz-adv-x="503" 
d="M313 466c111 0 151 -57 131 -172l-53 -294h-58l52 291c15 83 -5 120 -87 120c-59 0 -110 -28 -144 -63l-61 -348h-58l95 538h-63l8 46h63l19 106h58l-19 -106h108l-7 -46h-109l-23 -129c33 31 93 57 148 57z" />
    <glyph glyph-name="dotlessi" unicode="&#x131;" horiz-adv-x="207" 
d="M115 456h58l-81 -456h-58z" />
    <glyph glyph-name="igrave" unicode="&#xec;" horiz-adv-x="207" 
d="M143 696l47 -151h-53l-56 151h62zM115 456h58l-81 -456h-58z" />
    <glyph glyph-name="iacute" unicode="&#xed;" horiz-adv-x="208" 
d="M294 696l-109 -151h-59l100 151h68zM115 456h58l-81 -456h-58z" />
    <glyph glyph-name="ibreve" unicode="&#x12d;" horiz-adv-x="208" 
d="M307 681c-13 -76 -66 -131 -145 -131c-74 0 -116 55 -102 131h44c-7 -48 15 -84 64 -84c51 0 84 36 94 84h45zM115 456h58l-81 -456h-58z" />
    <glyph glyph-name="icircumflex" unicode="&#xee;" horiz-adv-x="208" 
d="M218 696l69 -151h-53l-52 107l-89 -107h-60l125 151h60zM115 456h58l-81 -456h-58z" />
    <glyph glyph-name="itilde" unicode="&#x129;" horiz-adv-x="208" 
d="M286 577c-13 15 -32 26 -52 26c-38 0 -84 -38 -137 -38c-27 0 -50 14 -58 26l16 47c11 -14 27 -24 50 -24c42 0 81 37 137 37c32 0 50 -15 60 -25zM115 456h58l-81 -456h-58z" />
    <glyph glyph-name="idieresis" unicode="&#xef;" horiz-adv-x="208" 
d="M81 569c-23 0 -40 14 -40 39c0 39 22 55 53 55c20 0 41 -13 41 -39c0 -39 -27 -55 -54 -55zM250 569c-23 0 -40 14 -40 39c0 39 21 55 52 55c20 0 41 -13 41 -39c0 -39 -26 -55 -53 -55zM115 456h58l-81 -456h-58z" />
    <glyph glyph-name="imacron" unicode="&#x12b;" horiz-adv-x="208" 
d="M304 635l-9 -51h-258l8 51h259zM115 456h58l-81 -456h-58z" />
    <glyph glyph-name="iogonek" unicode="&#x12f;" horiz-adv-x="207" 
d="M182 673c20 0 39 -12 39 -38c0 -39 -29 -56 -56 -56c-22 0 -39 12 -39 37c0 39 25 57 56 57zM115 456h58l-81 -456h1l-84 -62c-30 -24 -43 -42 -43 -67c0 -18 11 -37 39 -37c21 0 42 11 63 25l-9 -55c-17 -9 -40 -20 -72 -20c-53 0 -83 33 -83 74c0 46 27 75 65 104
l67 49z" />
    <glyph glyph-name="uni0237" unicode="&#x237;" horiz-adv-x="206" 
d="M-80 -181c69 25 93 61 108 148l87 489h58l-87 -488c-20 -113 -60 -166 -145 -194z" />
    <glyph glyph-name="jcircumflex" unicode="&#x135;" horiz-adv-x="208" 
d="M217 696l70 -151h-54l-52 107l-89 -107h-59l124 151h60zM-80 -181c69 25 93 61 108 148l87 489h58l-87 -488c-20 -113 -60 -166 -145 -194z" />
    <glyph glyph-name="uni0137" unicode="&#x137;" horiz-adv-x="447" 
d="M320 0l-107 238l-92 -78l-28 -160h-58l122 690h58l-80 -450l251 216h82l-209 -179l126 -277h-65zM147 -216h-47l50 145h69z" />
    <glyph glyph-name="kgreenlandic" unicode="&#x138;" horiz-adv-x="449" 
d="M321 0l-107 235l-94 -78l-28 -157h-58l81 456h58l-40 -221l257 221h81l-212 -181l126 -275h-64z" />
    <glyph glyph-name="lacute" unicode="&#x13a;" horiz-adv-x="220" 
d="M331 886l-109 -151h-59l100 151h68zM212 690l-100 -571c-10 -50 -3 -66 29 -66h31l-10 -54h-35c-72 0 -87 39 -73 118l100 573h58z" />
    <glyph glyph-name="lcaron" unicode="&#x13e;" horiz-adv-x="212" 
d="M214 690l-100 -571c-10 -50 -3 -66 28 -66h31l-9 -54h-35c-72 0 -87 39 -73 118l100 573h58zM300 545h-47l50 145h69z" />
    <glyph glyph-name="uni013C" unicode="&#x13c;" horiz-adv-x="212" 
d="M213 690l-100 -571c-10 -50 -3 -66 29 -66h31l-10 -54h-35c-72 0 -87 39 -73 118l100 573h58zM53 -216h-47l49 145h70z" />
    <glyph glyph-name="lslash" unicode="&#x142;" horiz-adv-x="246" 
d="M170 346l-40 -227c-9 -50 -2 -66 29 -66h31l-9 -54h-36c-71 0 -86 39 -72 118l36 204l-70 -28l10 52l69 28l55 317h58l-51 -291l77 32l-9 -53z" />
    <glyph glyph-name="ldot" unicode="&#x140;" horiz-adv-x="331" 
d="M214 690l-100 -571c-10 -50 -3 -66 28 -66h31l-9 -54h-35c-72 0 -87 39 -73 118l100 573h58zM287 312c-26 0 -45 21 -45 45c0 34 26 58 59 58c26 0 45 -21 45 -45c0 -34 -25 -58 -59 -58z" />
    <glyph glyph-name="nacute" unicode="&#x144;" horiz-adv-x="503" 
d="M439 696l-109 -151h-59l100 151h68zM115 456h57l-9 -50c34 35 92 60 149 60c112 0 153 -56 132 -172l-53 -294h-58l52 291c15 83 -4 120 -88 120c-59 0 -110 -26 -143 -63l-62 -348h-58z" />
    <glyph glyph-name="ncaron" unicode="&#x148;" horiz-adv-x="495" 
d="M284 545l-70 151h54l52 -107l89 107h58l-123 -151h-60zM117 456h57l-9 -50c34 35 92 60 149 60c111 0 152 -56 131 -172l-52 -294h-58l52 291c14 83 -5 120 -88 120c-59 0 -110 -26 -143 -63l-62 -348h-58z" />
    <glyph glyph-name="ntilde" unicode="&#xf1;" horiz-adv-x="495" 
d="M438 577c-13 15 -32 26 -51 26c-38 0 -84 -38 -137 -38c-27 0 -50 14 -58 26l16 47c11 -14 26 -24 50 -24c42 0 81 37 137 37c32 0 50 -15 60 -25zM115 456h57l-9 -50c34 35 92 60 149 60c112 0 153 -56 132 -172l-53 -294h-58l52 291c15 83 -4 120 -88 120
c-59 0 -110 -26 -143 -63l-62 -348h-58z" />
    <glyph glyph-name="uni0146" unicode="&#x146;" horiz-adv-x="495" 
d="M115 456h57l-9 -50c34 35 92 60 149 60c112 0 153 -56 132 -172l-53 -294h-58l52 291c15 83 -4 120 -88 120c-59 0 -110 -26 -143 -63l-62 -348h-58zM165 -216h-48l50 145h69z" />
    <glyph glyph-name="napostrophe" unicode="&#x149;" horiz-adv-x="503" 
d="M99 551h-47l50 145h69zM115 456h57l-9 -50c34 35 92 60 149 60c112 0 153 -56 132 -172l-53 -294h-58l52 291c15 83 -4 120 -88 120c-59 0 -110 -26 -143 -63l-62 -348h-58z" />
    <glyph glyph-name="ograve" unicode="&#xf2;" horiz-adv-x="488" 
d="M290 696l47 -151h-52l-56 151h61zM279 466c116 0 163 -77 163 -182c0 -138 -68 -294 -234 -294c-112 0 -161 77 -161 184c0 143 73 292 232 292zM210 44c127 0 172 134 172 240c0 77 -30 128 -105 128c-121 0 -170 -128 -170 -238c0 -77 30 -130 103 -130z" />
    <glyph glyph-name="oacute" unicode="&#xf3;" horiz-adv-x="481" 
d="M433 696l-108 -151h-60l101 151h67zM279 466c116 0 163 -77 163 -182c0 -138 -68 -294 -234 -294c-112 0 -161 77 -161 184c0 143 73 292 232 292zM210 44c127 0 172 134 172 240c0 77 -30 128 -105 128c-121 0 -170 -128 -170 -238c0 -77 30 -130 103 -130z" />
    <glyph glyph-name="ocircumflex" unicode="&#xf4;" horiz-adv-x="481" 
d="M358 696l70 -151h-54l-52 107l-89 -107h-59l124 151h60zM279 466c116 0 163 -77 163 -182c0 -138 -68 -294 -234 -294c-112 0 -161 77 -161 184c0 143 73 292 232 292zM210 44c127 0 172 134 172 240c0 77 -30 128 -105 128c-121 0 -170 -128 -170 -238
c0 -77 30 -130 103 -130z" />
    <glyph glyph-name="otilde" unicode="&#xf5;" horiz-adv-x="481" 
d="M430 577c-13 15 -32 26 -52 26c-37 0 -83 -38 -137 -38c-27 0 -50 14 -58 26l16 47c11 -14 27 -24 51 -24c41 0 80 37 136 37c32 0 50 -15 60 -25zM279 466c116 0 163 -77 163 -182c0 -138 -68 -294 -234 -294c-112 0 -161 77 -161 184c0 143 73 292 232 292zM210 44
c127 0 172 134 172 240c0 77 -30 128 -105 128c-121 0 -170 -128 -170 -238c0 -77 30 -130 103 -130z" />
    <glyph glyph-name="odieresis" unicode="&#xf6;" horiz-adv-x="481" 
d="M224 569c-23 0 -40 14 -40 39c0 39 22 55 52 55c21 0 41 -13 41 -39c0 -39 -26 -55 -53 -55zM392 569c-23 0 -40 14 -40 39c0 39 22 55 52 55c21 0 42 -13 42 -39c0 -39 -26 -55 -54 -55zM279 466c116 0 163 -77 163 -182c0 -138 -68 -294 -234 -294
c-112 0 -161 77 -161 184c0 143 73 292 232 292zM210 44c127 0 172 134 172 240c0 77 -30 128 -105 128c-121 0 -170 -128 -170 -238c0 -77 30 -130 103 -130z" />
    <glyph glyph-name="omacron" unicode="&#x14d;" horiz-adv-x="481" 
d="M447 635l-10 -51h-258l9 51h259zM279 466c116 0 163 -77 163 -182c0 -138 -68 -294 -234 -294c-112 0 -161 77 -161 184c0 143 73 292 232 292zM210 44c127 0 172 134 172 240c0 77 -30 128 -105 128c-121 0 -170 -128 -170 -238c0 -77 30 -130 103 -130z" />
    <glyph glyph-name="obreve" unicode="&#x14f;" horiz-adv-x="481" 
d="M448 681c-13 -76 -66 -131 -145 -131c-74 0 -116 55 -102 131h44c-7 -48 15 -84 64 -84c51 0 84 36 94 84h45zM279 466c116 0 163 -77 163 -182c0 -138 -68 -294 -234 -294c-112 0 -161 77 -161 184c0 143 73 292 232 292zM210 44c127 0 172 134 172 240
c0 77 -30 128 -105 128c-121 0 -170 -128 -170 -238c0 -77 30 -130 103 -130z" />
    <glyph glyph-name="ohungarumlaut" unicode="&#x151;" horiz-adv-x="481" 
d="M367 696l-110 -151h-57l100 151h67zM504 696l-110 -151h-57l99 151h68zM279 466c116 0 163 -77 163 -182c0 -138 -68 -294 -234 -294c-112 0 -161 77 -161 184c0 143 73 292 232 292zM210 44c127 0 172 134 172 240c0 77 -30 128 -105 128c-121 0 -170 -128 -170 -238
c0 -77 30 -130 103 -130z" />
    <glyph glyph-name="oslash" unicode="&#xf8;" horiz-adv-x="488" 
d="M478 456l-59 -65c16 -30 23 -66 23 -107c0 -138 -68 -294 -234 -294c-50 0 -87 15 -113 41l-28 -31h-54l58 64c-16 30 -24 68 -24 110c0 143 73 292 232 292c52 0 90 -15 116 -41l28 31h55zM107 174c0 -22 3 -43 8 -61l240 267c-17 21 -42 32 -78 32
c-121 0 -170 -128 -170 -238zM382 284c0 21 -2 41 -7 57l-240 -266c17 -20 41 -31 75 -31c127 0 172 134 172 240z" />
    <glyph glyph-name="oslashacute" unicode="&#x1ff;" horiz-adv-x="488" 
d="M407 696l-109 -151h-59l100 151h68zM478 456l-59 -65c16 -30 23 -66 23 -107c0 -138 -68 -294 -234 -294c-50 0 -87 15 -113 41l-28 -31h-54l58 64c-16 30 -24 68 -24 110c0 143 73 292 232 292c52 0 90 -15 116 -41l28 31h55zM107 174c0 -22 3 -43 8 -61l240 267
c-17 21 -42 32 -78 32c-121 0 -170 -128 -170 -238zM382 284c0 21 -2 41 -7 57l-240 -266c17 -20 41 -31 75 -31c127 0 172 134 172 240z" />
    <glyph glyph-name="oe" unicode="&#x153;" horiz-adv-x="780" 
d="M537 42c44 0 95 19 133 57l24 -46c-32 -33 -94 -63 -160 -63c-87 0 -133 36 -149 92c-35 -55 -92 -92 -177 -92c-111 0 -161 73 -161 183c0 157 76 293 234 293c95 0 131 -45 147 -105c33 60 91 105 172 105c104 0 146 -69 146 -156c0 -41 -12 -74 -21 -100h-291
c-17 -99 8 -168 103 -168zM680 258c2 8 9 21 9 53c0 62 -32 104 -92 104c-89 0 -134 -68 -154 -157h237zM211 44c130 0 171 118 171 239c0 75 -28 129 -105 129c-120 0 -170 -113 -170 -238c0 -75 31 -130 104 -130z" />
    <glyph glyph-name="racute" unicode="&#x155;" horiz-adv-x="323" 
d="M349 696l-109 -151h-59l100 151h68zM161 386c27 45 70 80 129 80c23 0 44 -2 58 -6l-17 -63c-15 6 -34 9 -49 9c-60 0 -103 -44 -136 -102l-54 -304h-58l81 456h57l-12 -70h1z" />
    <glyph glyph-name="rcaron" unicode="&#x159;" horiz-adv-x="323" 
d="M194 545l-71 151h55l52 -107l89 107h58l-123 -151h-60zM161 386c27 45 70 80 129 80c23 0 44 -2 58 -6l-17 -63c-15 6 -34 9 -49 9c-60 0 -103 -44 -136 -102l-54 -304h-58l81 456h57l-12 -70h1z" />
    <glyph glyph-name="uni0157" unicode="&#x157;" horiz-adv-x="322" 
d="M161 386c27 45 70 80 129 80c23 0 44 -2 58 -6l-17 -63c-15 6 -34 9 -49 9c-60 0 -103 -44 -136 -102l-54 -304h-58l81 456h57l-12 -70h1zM14 -216h-48l50 145h69z" />
    <glyph glyph-name="sacute" unicode="&#x15b;" horiz-adv-x="413" 
d="M393 696l-109 -151h-59l100 151h68zM347 368c-18 27 -53 48 -106 48c-79 0 -110 -46 -110 -93c0 -26 17 -50 62 -64l46 -13c75 -23 111 -55 111 -113c0 -82 -67 -143 -184 -143c-91 0 -134 42 -154 76l42 36c18 -31 43 -63 114 -63c69 0 122 31 122 90
c0 35 -26 53 -76 67l-47 15c-64 19 -96 57 -96 108c0 69 49 147 173 147c73 0 124 -33 145 -63z" />
    <glyph glyph-name="scircumflex" unicode="&#x15d;" horiz-adv-x="413" 
d="M323 696l70 -151h-54l-52 107l-89 -107h-59l124 151h60zM347 368c-18 27 -53 48 -106 48c-79 0 -110 -46 -110 -93c0 -26 17 -50 62 -64l46 -13c75 -23 111 -55 111 -113c0 -82 -67 -143 -184 -143c-91 0 -134 42 -154 76l42 36c18 -31 43 -63 114 -63
c69 0 122 31 122 90c0 35 -26 53 -76 67l-47 15c-64 19 -96 57 -96 108c0 69 49 147 173 147c73 0 124 -33 145 -63z" />
    <glyph glyph-name="scaron" unicode="&#x161;" horiz-adv-x="413" 
d="M239 545l-70 151h54l52 -107l89 107h58l-123 -151h-60zM347 368c-18 27 -53 48 -106 48c-79 0 -110 -46 -110 -93c0 -26 17 -50 62 -64l46 -13c75 -23 111 -55 111 -113c0 -82 -67 -143 -184 -143c-91 0 -134 42 -154 76l42 36c18 -31 43 -63 114 -63c69 0 122 31 122 90
c0 35 -26 53 -76 67l-47 15c-64 19 -96 57 -96 108c0 69 49 147 173 147c73 0 124 -33 145 -63z" />
    <glyph glyph-name="scedilla" unicode="&#x15f;" horiz-adv-x="413" 
d="M239 246c75 -23 111 -55 111 -113c0 -76 -58 -135 -161 -142l-28 -51c41 0 72 -19 72 -65c0 -51 -37 -91 -106 -91c-30 0 -57 11 -76 22l8 46c18 -15 43 -25 70 -25c33 0 50 19 50 42c0 25 -20 32 -50 32h-30l-2 5l43 85c-73 7 -110 44 -128 75l42 36
c18 -31 43 -63 114 -63c69 0 122 31 122 90c0 35 -26 53 -76 67l-47 15c-64 19 -96 57 -96 108c0 69 49 147 173 147c73 0 124 -33 145 -63l-42 -35c-18 27 -53 48 -106 48c-79 0 -110 -46 -110 -93c0 -26 17 -50 62 -64z" />
    <glyph glyph-name="uni0219" unicode="&#x219;" horiz-adv-x="413" 
d="M347 368c-18 27 -53 48 -106 48c-79 0 -110 -46 -110 -93c0 -26 17 -50 62 -64l46 -13c75 -23 111 -55 111 -113c0 -82 -67 -143 -184 -143c-91 0 -134 42 -154 76l42 36c18 -31 43 -63 114 -63c69 0 122 31 122 90c0 35 -26 53 -76 67l-47 15c-64 19 -96 57 -96 108
c0 69 49 147 173 147c73 0 124 -33 145 -63zM122 -216h-47l50 145h69z" />
    <glyph glyph-name="germandbls" unicode="&#xdf;" horiz-adv-x="524" 
d="M123 499c22 127 77 201 189 201c95 0 148 -48 148 -133c0 -106 -126 -177 -126 -220c0 -17 14 -35 43 -54l33 -25c40 -30 64 -67 64 -119c0 -88 -73 -160 -177 -160c-43 0 -79 11 -105 28l28 52c20 -13 43 -28 76 -28c68 0 118 46 118 106c0 34 -16 58 -45 80l-37 28
c-34 27 -59 46 -59 88c0 68 126 132 126 220c0 54 -33 84 -91 84c-87 0 -114 -72 -128 -149l-126 -714h-58z" />
    <glyph glyph-name="tcaron" unicode="&#x165;" horiz-adv-x="316" 
d="M376 545h-48l50 145h69zM141 123c-9 -51 4 -78 49 -78c21 0 46 7 67 18v-51c-22 -12 -51 -22 -81 -22c-85 0 -107 51 -93 129l50 285h-83l7 42l85 10l21 116l60 12l-23 -128h124l-9 -52h-124z" />
    <glyph glyph-name="uni021B" unicode="&#x21b;" horiz-adv-x="309" 
d="M143 123c-9 -51 4 -78 49 -78c21 0 46 7 67 18v-51c-22 -12 -52 -22 -81 -22c-85 0 -108 51 -94 129l51 285h-83l6 42l86 10l20 116l61 12l-23 -128h124l-9 -52h-124zM98 -216h-47l50 145h69z" />
    <glyph glyph-name="tbar" unicode="&#x167;" horiz-adv-x="312" 
d="M321 404h-124l-23 -131h91l-8 -46h-91l-19 -104c-9 -51 4 -78 49 -78c21 0 46 7 67 18v-51c-22 -12 -51 -22 -81 -22c-85 0 -108 51 -93 129l19 108h-81l9 46h80l23 131h-83l7 42l85 10l21 116l60 12l-23 -128h124z" />
    <glyph glyph-name="thorn" unicode="&#xfe;" horiz-adv-x="502" 
d="M55 -216h-58l157 892h58l-46 -261c29 29 74 51 135 51c109 0 153 -77 153 -180c0 -163 -68 -296 -230 -296c-63 0 -105 25 -123 57zM394 282c0 71 -29 129 -108 129c-61 0 -107 -31 -133 -68l-40 -231c12 -30 43 -67 108 -67c129 0 173 114 173 237z" />
    <glyph glyph-name="ugrave" unicode="&#xf9;" horiz-adv-x="503" 
d="M292 696l47 -151h-52l-57 151h62zM387 0h-57l10 50c-35 -35 -93 -60 -150 -60c-111 0 -152 56 -131 172l52 294h58l-51 -291c-15 -83 4 -120 87 -120c59 0 110 26 144 63l61 348h58z" />
    <glyph glyph-name="uacute" unicode="&#xfa;" horiz-adv-x="503" 
d="M436 696l-109 -151h-59l100 151h68zM387 0h-57l10 50c-35 -35 -93 -60 -150 -60c-111 0 -152 56 -131 172l52 294h58l-51 -291c-15 -83 4 -120 87 -120c59 0 110 26 144 63l61 348h58z" />
    <glyph glyph-name="ucircumflex" unicode="&#xfb;" horiz-adv-x="503" 
d="M360 696l69 -151h-53l-52 107l-89 -107h-60l125 151h60zM387 0h-57l10 50c-35 -35 -93 -60 -150 -60c-111 0 -152 56 -131 172l52 294h58l-51 -291c-15 -83 4 -120 87 -120c59 0 110 26 144 63l61 348h58z" />
    <glyph glyph-name="utilde" unicode="&#x169;" horiz-adv-x="503" 
d="M427 577c-13 15 -32 26 -52 26c-37 0 -83 -38 -136 -38c-27 0 -50 14 -58 26l15 47c11 -14 27 -24 51 -24c41 0 81 37 136 37c32 0 50 -15 61 -25zM387 0h-57l10 50c-35 -35 -93 -60 -150 -60c-111 0 -152 56 -131 172l52 294h58l-51 -291c-15 -83 4 -120 87 -120
c59 0 110 26 144 63l61 348h58z" />
    <glyph glyph-name="udieresis" unicode="&#xfc;" horiz-adv-x="503" 
d="M225 569c-23 0 -40 14 -40 39c0 39 22 55 52 55c21 0 41 -13 41 -39c0 -39 -26 -55 -53 -55zM393 569c-23 0 -40 14 -40 39c0 39 22 55 52 55c21 0 42 -13 42 -39c0 -39 -26 -55 -54 -55zM387 0h-57l10 50c-35 -35 -93 -60 -150 -60c-111 0 -152 56 -131 172l52 294h58
l-51 -291c-15 -83 4 -120 87 -120c59 0 110 26 144 63l61 348h58z" />
    <glyph glyph-name="umacron" unicode="&#x16b;" horiz-adv-x="503" 
d="M451 635l-9 -51h-258l8 51h259zM387 0h-57l10 50c-35 -35 -93 -60 -150 -60c-111 0 -152 56 -131 172l52 294h58l-51 -291c-15 -83 4 -120 87 -120c59 0 110 26 144 63l61 348h58z" />
    <glyph glyph-name="ubreve" unicode="&#x16d;" horiz-adv-x="503" 
d="M452 681c-13 -76 -66 -131 -145 -131c-74 0 -116 55 -102 131h44c-7 -48 15 -84 64 -84c51 0 84 36 94 84h45zM387 0h-57l10 50c-35 -35 -93 -60 -150 -60c-111 0 -152 56 -131 172l52 294h58l-51 -291c-15 -83 4 -120 87 -120c59 0 110 26 144 63l61 348h58z" />
    <glyph glyph-name="uring" unicode="&#x16f;" horiz-adv-x="503" 
d="M217 610c0 62 45 106 112 106c53 0 84 -35 84 -78c0 -62 -45 -107 -113 -107c-51 0 -83 35 -83 79zM261 614c0 -26 15 -44 44 -44c39 0 65 26 65 64c0 26 -16 43 -46 43c-37 0 -63 -26 -63 -63zM387 0h-57l10 50c-35 -35 -93 -60 -150 -60c-111 0 -152 56 -131 172
l52 294h58l-51 -291c-15 -83 4 -120 87 -120c59 0 110 26 144 63l61 348h58z" />
    <glyph glyph-name="uhungarumlaut" unicode="&#x171;" horiz-adv-x="503" 
d="M371 696l-109 -151h-57l100 151h66zM508 696l-109 -151h-57l99 151h67zM387 0h-57l10 50c-35 -35 -93 -60 -150 -60c-111 0 -152 56 -131 172l52 294h58l-51 -291c-15 -83 4 -120 87 -120c59 0 110 26 144 63l61 348h58z" />
    <glyph glyph-name="uogonek" unicode="&#x173;" horiz-adv-x="503" 
d="M304 -62c-31 -24 -44 -42 -44 -67c0 -18 11 -37 40 -37c20 0 42 11 63 25l-10 -55c-17 -9 -39 -20 -71 -20c-53 0 -84 33 -84 74c0 46 28 75 66 104l69 51l7 37c-35 -35 -93 -60 -150 -60c-111 0 -152 56 -131 172l52 294h58l-51 -291c-15 -83 4 -120 87 -120
c59 0 110 26 144 63l61 348h58l-81 -456z" />
    <glyph glyph-name="wacute" unicode="&#x1e83;" horiz-adv-x="721" 
d="M548 696l-109 -151h-59l100 151h68zM430 456l50 -388l185 388h68l-225 -456h-67l-54 380l-187 -380h-66l-65 456h62l48 -388l187 388h64z" />
    <glyph glyph-name="wcircumflex" unicode="&#x175;" horiz-adv-x="721" 
d="M470 696l70 -151h-54l-52 107l-89 -107h-59l124 151h60zM430 456l50 -388l185 388h68l-225 -456h-67l-54 380l-187 -380h-66l-65 456h62l48 -388l187 388h64z" />
    <glyph glyph-name="wdieresis" unicode="&#x1e85;" horiz-adv-x="721" 
d="M335 569c-23 0 -40 14 -40 39c0 39 21 55 52 55c20 0 41 -13 41 -39c0 -39 -27 -55 -53 -55zM503 569c-23 0 -40 14 -40 39c0 39 22 55 52 55c21 0 41 -13 41 -39c0 -39 -25 -55 -53 -55zM430 456l50 -388l185 388h68l-225 -456h-67l-54 380l-187 -380h-66l-65 456h62
l48 -388l187 388h64z" />
    <glyph glyph-name="wgrave" unicode="&#x1e81;" horiz-adv-x="721" 
d="M396 696l47 -151h-53l-56 151h62zM430 456l50 -388l185 388h68l-225 -456h-67l-54 380l-187 -380h-66l-65 456h62l48 -388l187 388h64z" />
    <glyph glyph-name="yacute" unicode="&#xfd;" horiz-adv-x="459" 
d="M417 696l-109 -151h-59l100 151h68zM212 105l195 351h69l-387 -672h-66l147 253l-107 419h65z" />
    <glyph glyph-name="ycircumflex" unicode="&#x177;" horiz-adv-x="459" 
d="M345 696l70 -151h-54l-52 107l-89 -107h-59l124 151h60zM212 105l195 351h69l-387 -672h-66l147 253l-107 419h65z" />
    <glyph glyph-name="ydieresis" unicode="&#xff;" horiz-adv-x="459" 
d="M211 569c-23 0 -41 14 -41 39c0 39 22 55 53 55c20 0 41 -13 41 -39c0 -39 -27 -55 -53 -55zM379 569c-23 0 -40 14 -40 39c0 39 21 55 52 55c20 0 41 -13 41 -39c0 -39 -26 -55 -53 -55zM212 105l195 351h69l-387 -672h-66l147 253l-107 419h65z" />
    <glyph glyph-name="ygrave" unicode="&#x1ef3;" horiz-adv-x="459" 
d="M276 696l46 -151h-52l-56 151h62zM212 105l195 351h69l-387 -672h-66l147 253l-107 419h65z" />
    <glyph glyph-name="zacute" unicode="&#x17a;" horiz-adv-x="390" 
d="M382 696l-109 -151h-59l100 151h68zM376 411l-288 -359h229l-8 -52h-309l8 45l289 359h-215l9 52h293z" />
    <glyph glyph-name="zcaron" unicode="&#x17e;" horiz-adv-x="390" 
d="M227 545l-71 151h55l52 -107l89 107h58l-123 -151h-60zM376 411l-288 -359h229l-8 -52h-309l8 45l289 359h-215l9 52h293z" />
    <glyph glyph-name="zdotaccent" unicode="&#x17c;" horiz-adv-x="390" 
d="M269 569c-22 0 -41 13 -41 39c0 40 23 55 54 55c20 0 40 -14 40 -40c0 -38 -26 -54 -53 -54zM376 411l-288 -359h229l-8 -52h-309l8 45l289 359h-215l9 52h293z" />
    <glyph glyph-name="IJ" unicode="&#x132;" horiz-adv-x="709" 
d="M167 676h62l-119 -676h-62zM292 118c20 -54 55 -72 110 -72c99 0 143 64 165 193l78 437h60l-78 -441c-29 -166 -101 -245 -228 -245c-83 0 -138 39 -158 97z" />
    <glyph glyph-name="ij" unicode="&#x133;" horiz-adv-x="414" 
d="M165 579c-22 0 -39 12 -39 37c0 39 25 57 56 57c20 0 39 -12 39 -38c0 -39 -29 -56 -56 -56zM371 579c-22 0 -39 12 -39 37c0 39 25 57 56 57c20 0 38 -12 38 -38c0 -39 -28 -56 -55 -56zM115 456h58l-81 -456h-58zM127 -181c69 25 93 61 108 148l87 489h58l-87 -488
c-20 -113 -60 -166 -145 -194z" />
    <glyph glyph-name="acute" unicode="&#xb4;" horiz-adv-x="570" 
d="M487 696l-109 -151h-59l100 151h68z" />
    <glyph glyph-name="circumflex" unicode="&#x2c6;" horiz-adv-x="570" 
d="M447 696l69 -151h-53l-52 107l-89 -107h-60l125 151h60z" />
    <glyph glyph-name="caron" unicode="&#x2c7;" horiz-adv-x="570" 
d="M360 545l-71 151h55l52 -107l89 107h58l-123 -151h-60z" />
    <glyph glyph-name="tilde" unicode="&#x2dc;" horiz-adv-x="570" 
d="M516 577c-13 15 -32 26 -52 26c-37 0 -83 -38 -136 -38c-27 0 -50 14 -58 26l15 47c11 -14 27 -24 51 -24c41 0 81 37 136 37c32 0 50 -15 61 -25z" />
    <glyph glyph-name="dieresis" unicode="&#xa8;" horiz-adv-x="570" 
d="M312 569c-23 0 -40 14 -40 39c0 39 22 55 52 55c21 0 41 -13 41 -39c0 -39 -26 -55 -53 -55zM480 569c-23 0 -40 14 -40 39c0 39 22 55 52 55c21 0 42 -13 42 -39c0 -39 -26 -55 -54 -55z" />
    <glyph glyph-name="macron" unicode="&#xaf;" horiz-adv-x="570" 
d="M535 635l-9 -51h-258l8 51h259z" />
    <glyph glyph-name="breve" unicode="&#x2d8;" horiz-adv-x="570" 
d="M537 681c-13 -76 -66 -131 -145 -131c-74 0 -116 55 -102 131h44c-7 -48 15 -84 64 -84c51 0 84 36 94 84h45z" />
    <glyph glyph-name="ring" unicode="&#x2da;" horiz-adv-x="570" 
d="M305 610c0 62 45 106 112 106c53 0 84 -35 84 -78c0 -62 -45 -107 -113 -107c-51 0 -83 35 -83 79zM349 614c0 -26 15 -44 44 -44c39 0 65 26 65 64c0 26 -16 43 -46 43c-37 0 -63 -26 -63 -63z" />
    <glyph glyph-name="hungarumlaut" unicode="&#x2dd;" horiz-adv-x="570" 
d="M418 696l-109 -151h-57l100 151h66zM555 696l-109 -151h-57l99 151h67z" />
    <glyph glyph-name="dotaccent" unicode="&#x2d9;" horiz-adv-x="570" 
d="M396 569c-22 0 -40 13 -40 39c0 40 23 55 53 55c21 0 40 -14 40 -40c0 -38 -25 -54 -53 -54z" />
    <glyph glyph-name="cedilla" unicode="&#xb8;" horiz-adv-x="570" 
d="M326 0l-33 -60c41 0 72 -19 72 -65c0 -51 -37 -91 -105 -91c-30 0 -58 11 -77 22l9 46c18 -15 43 -25 70 -25c32 0 50 19 50 42c0 25 -21 32 -51 32h-30l-2 5l52 101z" />
    <glyph glyph-name="ogonek" unicode="&#x2db;" horiz-adv-x="570" 
d="M289 -62c-30 -24 -43 -42 -43 -67c0 -18 11 -37 40 -37c20 0 41 11 62 25l-9 -55c-17 -9 -39 -20 -71 -20c-54 0 -84 33 -84 74c0 46 27 75 65 104l71 52l53 -14z" />
    <glyph glyph-name="uniF6C3" unicode="&#xf6c3;" horiz-adv-x="0" 
d="M-313 -216h-48l50 145h69z" />
    <glyph glyph-name="ellipsis" unicode="&#x2026;" horiz-adv-x="562" 
d="M74 -7c-24 0 -44 20 -44 44c0 34 26 56 58 56c25 0 44 -20 44 -44c0 -33 -25 -56 -58 -56zM247 -7c-25 0 -44 20 -44 44c0 34 25 56 57 56c26 0 45 -20 45 -44c0 -33 -25 -56 -58 -56zM417 -7c-25 0 -44 20 -44 44c0 34 25 56 58 56c25 0 43 -20 43 -44
c0 -33 -24 -56 -57 -56z" />
    <glyph glyph-name="uni00AD" unicode="&#xad;" horiz-adv-x="393" 
d="M325 295v-52h-245v52h245z" />
    <glyph glyph-name="exclamdown" unicode="&#xa1;" horiz-adv-x="214" 
d="M145 466c26 0 44 -20 44 -44c0 -33 -24 -56 -57 -56c-25 0 -45 20 -45 44c0 33 26 56 58 56zM136 254l-71 -471h-74l96 471h49z" />
    <glyph glyph-name="questiondown" unicode="&#xbf;" horiz-adv-x="430" 
d="M261 467c25 0 44 -20 44 -44c0 -33 -26 -56 -58 -56c-25 0 -44 19 -44 43c0 33 26 57 58 57zM145 -226c-99 0 -159 62 -159 146c0 154 179 179 207 335h64c-31 -173 -208 -212 -208 -330c0 -47 31 -94 97 -94c64 0 115 38 127 101l59 -3c-15 -86 -76 -155 -187 -155z" />
    <glyph glyph-name="quoteleft" unicode="&#x2018;" horiz-adv-x="205" 
d="M180 676h48l-61 -208h-70z" />
    <glyph glyph-name="quoteright" unicode="&#x2019;" horiz-adv-x="201" 
d="M150 468h-48l60 208h70z" />
    <glyph glyph-name="quotedblleft" unicode="&#x201c;" horiz-adv-x="322" 
d="M180 676h48l-61 -208h-70zM296 676h49l-61 -208h-70z" />
    <glyph glyph-name="quotedblright" unicode="&#x201d;" horiz-adv-x="318" 
d="M150 468h-48l60 208h70zM266 468h-47l60 208h71z" />
    <glyph glyph-name="quotesinglbase" unicode="&#x201a;" horiz-adv-x="213" 
d="M42 -113h-48l61 207h70z" />
    <glyph glyph-name="quotedblbase" unicode="&#x201e;" horiz-adv-x="330" 
d="M42 -114h-48l61 208h69zM158 -114h-47l60 208h71z" />
    <glyph glyph-name="guilsinglleft" unicode="&#x2039;" horiz-adv-x="290" 
d="M243 477l34 -34l-160 -177l97 -178l-44 -25l-126 207z" />
    <glyph glyph-name="guilsinglright" unicode="&#x203a;" horiz-adv-x="289" 
d="M61 63l-34 33l160 177l-97 179l44 25l126 -207z" />
    <glyph glyph-name="guillemotleft" unicode="&#xab;" horiz-adv-x="459" 
d="M243 477l34 -34l-160 -177l97 -178l-44 -25l-126 207zM412 477l34 -34l-159 -177l97 -178l-45 -25l-126 207z" />
    <glyph glyph-name="guillemotright" unicode="&#xbb;" horiz-adv-x="459" 
d="M61 63l-34 33l160 177l-97 179l44 25l126 -207zM231 63l-35 33l160 177l-97 179l44 25l127 -207z" />
    <glyph glyph-name="endash" unicode="&#x2013;" horiz-adv-x="593" 
d="M525 295v-52h-445v52h445z" />
    <glyph glyph-name="emdash" unicode="&#x2014;" horiz-adv-x="733" 
d="M665 295v-52h-585v52h585z" />
    <glyph glyph-name="bullet" unicode="&#x2022;" horiz-adv-x="371" 
d="M192 172c-57 0 -100 41 -100 97s43 97 100 97c59 0 100 -41 100 -97s-41 -97 -100 -97z" />
    <glyph glyph-name="periodcentered" unicode="&#xb7;" horiz-adv-x="231" 
d="M121 219c-26 0 -46 20 -46 45c0 34 27 58 60 58c26 0 45 -21 45 -46c0 -34 -25 -57 -59 -57z" />
    <glyph glyph-name="uni2219" unicode="&#x2219;" horiz-adv-x="231" 
d="M121 219c-26 0 -46 20 -46 45c0 34 26 58 60 58c26 0 45 -21 45 -46c0 -34 -26 -57 -59 -57z" />
    <glyph glyph-name="dagger" unicode="&#x2020;" horiz-adv-x="402" 
d="M189 292l70 398h49l-70 -398h145l-9 -46h-145l-81 -462h-49l82 462h-147l9 46h146z" />
    <glyph glyph-name="daggerdbl" unicode="&#x2021;" horiz-adv-x="458" 
d="M247 449l43 241h48l-43 -241h146l-8 -46h-145l-58 -328h145l-8 -46h-146l-43 -245h-48l43 245h-146l9 46h145l58 328h-146l8 46h146z" />
    <glyph glyph-name="section" unicode="&#xa7;" horiz-adv-x="538" 
d="M484 278c0 -68 -55 -119 -101 -143c31 -21 55 -47 55 -93c0 -106 -102 -157 -226 -157c-116 0 -178 45 -204 99l47 40c29 -46 70 -86 161 -86c87 0 157 30 157 96c0 34 -44 61 -90 83l-87 40c-77 34 -114 68 -114 131c0 61 49 111 97 141c-29 21 -52 50 -52 96
c0 94 102 161 218 161c101 0 155 -29 192 -96l-47 -37c-34 55 -77 80 -150 80c-68 0 -148 -38 -148 -101c0 -37 43 -65 103 -91l59 -24c75 -32 130 -62 130 -139zM230 404c-48 -26 -86 -69 -86 -109c0 -39 33 -66 83 -88l105 -46c38 23 88 59 88 111c0 43 -39 67 -93 90z
" />
    <glyph glyph-name="paragraph" unicode="&#xb6;" horiz-adv-x="468" 
d="M325 456l-91 -515h-56l41 228c-117 0 -172 31 -172 111c0 101 56 176 181 176h97zM192 -182c64 25 89 58 105 146l86 492h56l-85 -486c-20 -105 -45 -164 -143 -196z" />
    <glyph glyph-name="brokenbar" unicode="&#xa6;" horiz-adv-x="252" 
d="M104 306v384h48v-384h-48zM152 170v-386h-48v386h48z" />
    <glyph glyph-name="copyright" unicode="&#xa9;" horiz-adv-x="815" 
d="M81 338c0 214 150 352 347 352s346 -138 346 -352s-149 -355 -346 -355s-347 141 -347 355zM134 338c0 -188 124 -304 294 -304s293 116 293 304s-123 302 -293 302s-294 -114 -294 -302zM300 335c0 -93 36 -158 123 -158c48 0 83 19 109 57l41 -34
c-39 -49 -82 -74 -151 -74c-112 0 -178 81 -178 209s71 209 180 209c68 0 112 -31 143 -65l-38 -34c-28 29 -56 47 -103 47c-87 0 -126 -63 -126 -157z" />
    <glyph glyph-name="uni2117" unicode="&#x2117;" horiz-adv-x="815" 
d="M81 338c0 214 150 352 347 352s346 -138 346 -352s-149 -355 -346 -355s-347 141 -347 355zM134 338c0 -188 124 -304 294 -304s293 116 293 304s-123 302 -293 302s-294 -114 -294 -302zM444 539c102 0 148 -52 148 -125c0 -72 -47 -124 -148 -124h-92v-159h-50v408h142
zM538 414c0 45 -23 82 -93 82h-93v-161h93c70 0 93 35 93 79z" />
    <glyph glyph-name="registered" unicode="&#xae;" horiz-adv-x="815" 
d="M81 338c0 214 150 352 347 352s346 -138 346 -352s-149 -355 -346 -355s-347 141 -347 355zM134 338c0 -188 124 -304 294 -304s293 116 293 304s-123 302 -293 302s-294 -114 -294 -302zM286 540h144c100 0 146 -41 146 -115c0 -62 -43 -105 -118 -114l131 -181h-61
l-124 177h-67v-177h-51v410zM526 424c0 37 -22 74 -94 74h-95v-149h90c74 0 99 41 99 75z" />
    <glyph glyph-name="trademark" unicode="&#x2122;" horiz-adv-x="616" 
d="M305 607l-6 -33h-74l-36 -204h-38l36 204h-73l5 33h186zM531 607h53l-13 -237h-37l14 194l-91 -194h-44l-18 193l-56 -193h-37l71 237h52l18 -192z" />
    <glyph glyph-name="currency" unicode="&#xa4;" horiz-adv-x="548" 
d="M406 356c10 -22 15 -49 15 -79c0 -32 -5 -61 -17 -84l80 -81l-41 -42l-80 76c-21 -16 -50 -25 -86 -25c-35 0 -66 9 -87 25l-72 -73l-41 41l75 76c-12 24 -18 54 -18 86c0 30 6 57 17 81l-77 78l42 41l73 -74c22 18 53 28 89 28c38 0 70 -10 91 -28l74 73l40 -40z
M277 175c64 0 90 41 90 101s-26 100 -89 100s-89 -40 -89 -99c0 -61 25 -102 88 -102z" />
    <glyph glyph-name="Euro" unicode="&#x20ac;" horiz-adv-x="556" 
d="M408 629c-100 0 -174 -84 -212 -202h257l-28 -48h-243c-6 -28 -11 -58 -13 -89h209l-28 -48h-184v-12c0 -120 40 -184 141 -184c46 0 100 16 157 51l11 -58c-56 -32 -112 -50 -172 -50c-135 0 -201 71 -201 241v12h-52l9 48h45c3 31 7 61 13 89h-43l9 48h46
c45 155 145 259 282 259c66 0 123 -19 164 -44l-32 -52c-36 23 -77 39 -135 39z" />
    <glyph glyph-name="cent" unicode="&#xa2;" horiz-adv-x="467" 
d="M224 43c49 0 91 20 123 65l42 -31c-40 -57 -98 -87 -170 -87c-15 0 -29 1 -42 4l-26 -63l-42 12l27 66c-54 28 -81 86 -81 162c0 154 70 295 231 295c12 0 23 -1 34 -2l31 77l43 -12l-31 -77c33 -15 57 -39 70 -74l-46 -30c-9 25 -24 43 -45 53l-144 -355
c8 -2 17 -3 26 -3zM115 173c0 -46 14 -86 43 -109l141 348h-14c-125 0 -170 -124 -170 -239z" />
    <glyph glyph-name="sterling" unicode="&#xa3;" horiz-adv-x="537" 
d="M126 323l22 124c23 135 94 239 230 239c96 0 149 -33 184 -90l-48 -38c-33 56 -76 71 -138 71c-94 0 -149 -74 -167 -186l-22 -120h192l-9 -48h-191l-40 -222h292l-10 -53h-351l47 275h-64l8 48h65z" />
    <glyph glyph-name="florin" unicode="&#x192;" horiz-adv-x="326" 
d="M133 -71c-15 -87 -54 -155 -145 -155c-23 0 -49 4 -59 7l9 56c15 -5 30 -7 46 -7c58 0 81 41 91 106l83 466h-96l9 53h97l15 90c15 86 53 155 146 155c20 0 47 -4 57 -7l-9 -56c-15 4 -29 7 -46 7c-57 0 -79 -40 -91 -105l-14 -84h104l-10 -53h-103z" />
    <glyph glyph-name="yen" unicode="&#xa5;" horiz-adv-x="557" 
d="M245 291l-31 89h-106l8 48h80l-90 248h66l118 -342l237 342h75l-178 -248h82l-9 -48h-108l-64 -89h157l-9 -48h-166l-43 -243h-61l42 243h-162l9 48h153z" />
    <glyph glyph-name="uni20A8" unicode="&#x20a8;" horiz-adv-x="502" 
d="M530 676l-8 -48h-127c31 -24 42 -68 39 -119h67l-9 -48h-65c-22 -92 -95 -155 -196 -164l130 -297h-72l-124 292h-94l9 53h101c104 0 158 44 180 116h-260l8 48h261c2 69 -27 114 -125 114h-116l9 53h392z" />
    <glyph glyph-name="ordfeminine" unicode="&#xaa;" horiz-adv-x="348" 
d="M254 350l5 32c-21 -19 -58 -39 -92 -39c-37 0 -81 11 -81 69c0 65 67 95 147 104l49 6l5 28c4 32 -7 48 -48 48c-43 0 -58 -12 -62 -30l-3 -18h-47l3 20c7 39 45 69 112 69c66 0 104 -27 93 -89l-36 -200h-45zM137 414c0 -19 15 -30 39 -30c37 0 65 21 88 41l12 60
l-45 -6c-59 -9 -94 -25 -94 -65z" />
    <glyph glyph-name="ordmasculine" unicode="&#xba;" horiz-adv-x="364" 
d="M248 639c72 0 111 -43 111 -116c0 -101 -49 -180 -153 -180c-71 0 -110 42 -110 118c0 96 51 178 152 178zM209 386c68 0 100 64 100 135c0 42 -19 75 -63 75c-69 0 -100 -63 -100 -134c0 -43 18 -76 63 -76z" />
    <glyph glyph-name="uni00B9" unicode="&#xb9;" horiz-adv-x="217" 
d="M163 443l52 290l-102 -36l-7 44l124 45h42l-60 -343h-49z" />
    <glyph glyph-name="uni00B2" unicode="&#xb2;" horiz-adv-x="290" 
d="M246 792c57 0 97 -30 97 -89c0 -53 -39 -93 -90 -137l-97 -81h157l-8 -41h-224l7 35l135 118c45 38 71 67 71 105c0 27 -19 50 -50 50c-39 0 -66 -24 -73 -65h-48c9 64 57 105 123 105z" />
    <glyph glyph-name="uni00B3" unicode="&#xb3;" horiz-adv-x="306" 
d="M279 617c29 -5 54 -30 54 -72c0 -62 -63 -108 -134 -108c-85 0 -115 39 -106 92h47c-5 -29 14 -50 60 -50c49 0 83 29 83 67c0 32 -25 53 -69 53h-35l7 40h33c49 0 86 24 86 66c0 27 -21 46 -57 46c-41 0 -68 -24 -72 -51h-48c8 55 59 91 121 91c56 0 105 -23 105 -84
c0 -52 -36 -82 -75 -90z" />
    <glyph glyph-name="fraction" unicode="&#x2044;" horiz-adv-x="168" 
d="M-120 0h-61l506 676h63z" />
    <glyph glyph-name="uni2215" unicode="&#x2215;" horiz-adv-x="168" 
d="M-120 0h-61l506 676h63z" />
    <glyph glyph-name="onehalf" unicode="&#xbd;" horiz-adv-x="674" 
d="M114 0h-61l506 676h63zM154 331l52 290l-102 -36l-7 44l124 45h42l-60 -343h-49zM528 348c58 0 98 -30 98 -90c0 -52 -39 -92 -90 -136l-97 -81h157l-8 -41h-224l6 35l136 118c44 38 71 67 71 105c0 27 -19 50 -50 50c-39 0 -66 -25 -73 -65h-49c10 64 58 105 123 105z
" />
    <glyph glyph-name="uni2153" unicode="&#x2153;" horiz-adv-x="686" 
d="M115 0h-60l506 676h62zM172 331l51 290l-101 -36l-7 44l123 45h43l-61 -343h-48zM570 174c29 -5 54 -31 54 -72c0 -62 -63 -108 -134 -108c-85 0 -115 39 -106 92h46c-4 -29 15 -50 61 -50c49 0 83 28 83 67c0 32 -26 52 -69 52h-35l6 41h34c49 0 86 24 86 65
c0 28 -21 47 -58 47c-40 0 -67 -24 -71 -51h-49c9 55 60 91 122 91c56 0 105 -23 105 -85c0 -52 -36 -81 -75 -89z" />
    <glyph glyph-name="onequarter" unicode="&#xbc;" horiz-adv-x="641" 
d="M115 0h-60l506 676h62zM172 331l51 290l-101 -36l-7 44l123 45h43l-61 -343h-48zM580 72h-50l-13 -72h-47l12 72h-171l7 37l210 234h51l-41 -230h50zM490 113l28 158l-142 -158h114z" />
    <glyph glyph-name="oneeighth" unicode="&#x215b;" horiz-adv-x="690" 
d="M115 0h-60l506 676h62zM172 331l51 290l-101 -36l-7 44l123 45h43l-61 -343h-48zM491 -6c-74 0 -116 29 -116 89c0 50 38 85 81 96c-28 10 -46 27 -46 63c0 66 60 106 130 106c69 0 109 -28 109 -84c0 -45 -30 -77 -72 -89c28 -9 51 -28 51 -70c0 -69 -62 -111 -137 -111
zM539 308c-48 0 -79 -25 -79 -67c0 -27 24 -45 59 -45c43 0 79 23 79 67c0 27 -22 45 -59 45zM512 157c-57 0 -87 -33 -87 -72c0 -33 28 -49 67 -49c48 0 86 24 86 69c0 31 -25 52 -66 52z" />
    <glyph glyph-name="uni2154" unicode="&#x2154;" horiz-adv-x="745" 
d="M246 680c58 0 97 -30 97 -90c0 -52 -38 -93 -90 -137l-96 -81h156l-7 -41h-224l6 36l135 117c45 38 71 67 71 105c0 28 -18 50 -50 50c-39 0 -65 -24 -73 -64h-48c9 63 57 105 123 105zM184 0h-61l506 676h63zM630 174c29 -5 53 -31 53 -72c0 -62 -62 -108 -133 -108
c-85 0 -115 39 -106 92h46c-4 -29 15 -50 61 -50c49 0 82 28 82 67c0 32 -25 52 -68 52h-35l6 41h34c49 0 85 24 85 65c0 28 -20 47 -57 47c-40 0 -67 -24 -71 -51h-49c9 55 60 91 122 91c56 0 105 -23 105 -85c0 -52 -36 -81 -75 -89z" />
    <glyph glyph-name="threequarters" unicode="&#xbe;" horiz-adv-x="692" 
d="M277 505c29 -5 53 -30 53 -72c0 -62 -62 -108 -133 -108c-85 0 -115 40 -106 92h46c-4 -29 15 -50 61 -50c49 0 82 29 82 67c0 32 -25 53 -68 53h-35l6 41h34c49 0 85 23 85 65c0 27 -20 46 -57 46c-41 0 -67 -24 -71 -50h-49c9 54 60 91 122 91c56 0 105 -24 105 -85
c0 -52 -36 -82 -75 -90zM175 0h-60l506 676h62zM631 72h-51l-12 -72h-48l13 72h-171l6 37l210 234h51l-41 -230h50zM540 113l28 158l-142 -158h114z" />
    <glyph glyph-name="threeeighths" unicode="&#x215c;" horiz-adv-x="740" 
d="M277 505c29 -5 54 -30 54 -72c0 -62 -63 -108 -134 -108c-85 0 -115 40 -106 92h47c-5 -29 14 -50 60 -50c49 0 83 29 83 67c0 32 -26 53 -69 53h-35l7 41h33c49 0 86 23 86 65c0 27 -21 46 -57 46c-41 0 -68 -24 -72 -50h-49c9 54 60 91 122 91c56 0 105 -24 105 -85
c0 -52 -36 -82 -75 -90zM175 0h-60l506 676h62zM542 -6c-74 0 -116 29 -116 89c0 50 39 85 81 96c-28 10 -46 27 -46 63c0 66 60 106 130 106c69 0 109 -28 109 -84c0 -45 -30 -77 -72 -89c28 -9 51 -28 51 -70c0 -69 -62 -111 -137 -111zM590 308c-48 0 -78 -25 -78 -67
c0 -27 23 -45 58 -45c43 0 80 23 80 67c0 27 -23 45 -60 45zM563 157c-57 0 -86 -33 -86 -72c0 -33 28 -49 66 -49c48 0 86 24 86 69c0 31 -25 52 -66 52z" />
    <glyph glyph-name="fiveeighths" unicode="&#x215d;" horiz-adv-x="732" 
d="M169 0h-60l506 676h62zM327 458c0 -74 -56 -133 -137 -133c-89 0 -113 45 -104 98h48c-6 -31 10 -56 58 -56c50 0 85 32 85 89c0 33 -21 53 -59 53c-24 0 -46 -8 -65 -20l-39 5l55 180h185l-8 -40h-144l-30 -95c12 5 36 12 63 12c48 0 92 -23 92 -93zM532 -6
c-73 0 -115 29 -115 89c0 50 38 85 80 96c-27 10 -46 27 -46 63c0 66 60 106 131 106c68 0 108 -28 108 -84c0 -45 -30 -77 -72 -89c28 -9 51 -28 51 -70c0 -69 -61 -111 -137 -111zM580 308c-47 0 -78 -25 -78 -67c0 -27 23 -45 58 -45c43 0 80 23 80 67
c0 27 -23 45 -60 45zM554 157c-58 0 -87 -33 -87 -72c0 -33 28 -49 66 -49c48 0 86 24 86 69c0 31 -25 52 -65 52z" />
    <glyph glyph-name="seveneighths" unicode="&#x215e;" horiz-adv-x="653" 
d="M88 0h-60l505 676h63zM296 634h-167l8 40h221l-6 -35l-187 -308h-54zM454 -6c-73 0 -115 29 -115 89c0 50 38 85 80 96c-27 10 -46 27 -46 63c0 66 61 106 131 106c69 0 109 -28 109 -84c0 -45 -31 -77 -73 -89c28 -9 51 -28 51 -70c0 -69 -61 -111 -137 -111zM503 308
c-48 0 -79 -25 -79 -67c0 -27 24 -45 59 -45c42 0 79 23 79 67c0 27 -22 45 -59 45zM476 157c-57 0 -87 -33 -87 -72c0 -33 28 -49 67 -49c48 0 85 24 85 69c0 31 -25 52 -65 52z" />
    <glyph glyph-name="perthousand" unicode="&#x2030;" horiz-adv-x="1030" 
d="M242 680c72 0 111 -44 111 -128c0 -117 -47 -226 -162 -226c-83 0 -111 54 -111 128c0 125 53 226 162 226zM160 0h-60l506 676h63zM192 367c82 0 111 86 111 185c0 53 -19 87 -62 87c-75 0 -111 -79 -111 -185c0 -53 18 -87 62 -87zM581 348c73 0 111 -43 111 -128
c0 -117 -47 -225 -162 -225c-83 0 -111 54 -111 128c0 124 53 225 162 225zM877 348c73 0 111 -43 111 -128c0 -117 -47 -225 -161 -225c-84 0 -112 54 -112 128c0 124 53 225 162 225zM531 36c82 0 111 85 111 184c0 54 -18 88 -62 88c-75 0 -111 -80 -111 -185
c0 -54 18 -87 62 -87zM827 36c82 0 111 85 111 184c0 54 -18 88 -62 88c-75 0 -111 -80 -111 -185c0 -54 18 -87 62 -87z" />
    <glyph glyph-name="minus" unicode="&#x2212;" 
d="M62 296h450v-52h-450v52z" />
    <glyph glyph-name="plusminus" unicode="&#xb1;" 
d="M61 428h195v201h56v-201h198v-52h-198v-189h-56v189h-195v52zM61 88h449v-52h-449v52z" />
    <glyph glyph-name="multiply" unicode="&#xd7;" 
d="M86 110l159 158l-163 162l40 42l163 -163l161 161l40 -39l-162 -161l162 -162l-41 -41l-161 162l-159 -159z" />
    <glyph glyph-name="divide" unicode="&#xf7;" 
d="M290 396c-29 0 -51 22 -51 51s22 51 51 51c30 0 52 -22 52 -51s-22 -51 -52 -51zM63 296h449v-52h-449v52zM290 40c-29 0 -51 22 -51 50c0 29 22 50 51 50c30 0 52 -21 52 -50c0 -28 -22 -50 -52 -50z" />
    <glyph glyph-name="notequal" unicode="&#x2260;" horiz-adv-x="553" 
d="M480 360h-153l-45 -179h198v-52h-211l-34 -134l-40 10l31 124h-123v52h136l45 179h-181v52h194l32 127l41 -9l-30 -118h140v-52z" />
    <glyph glyph-name="approxequal" unicode="&#x2248;" 
d="M484 368c-24 -34 -55 -56 -99 -56c-70 0 -148 68 -198 68c-44 0 -69 -41 -76 -45l-22 44c24 34 58 56 102 56c60 0 142 -71 195 -71c42 0 71 44 77 48zM483 163c-24 -34 -56 -56 -99 -56c-69 0 -147 71 -196 71c-45 0 -72 -43 -78 -47l-22 44c23 34 58 55 101 55
c62 0 144 -70 196 -70c41 0 70 43 76 47z" />
    <glyph glyph-name="lessequal" unicode="&#x2264;" horiz-adv-x="553" 
d="M94 410l378 169v-59l-322 -139l322 -138v-60l-378 170v57zM92 87h377v-51h-377v51z" />
    <glyph glyph-name="greaterequal" unicode="&#x2265;" horiz-adv-x="553" 
d="M494 353l-378 -170v60l322 138l-322 139v59l378 -169v-57zM100 87h377v-51h-377v51z" />
    <glyph glyph-name="logicalnot" unicode="&#xac;" 
d="M57 367h450v-245h-57v193h-393v52z" />
    <glyph glyph-name="uni0394" unicode="&#x394;" horiz-adv-x="650" 
d="M366 676h78l149 -676h-616zM397 616l-316 -561h432z" />
    <glyph glyph-name="uni03A9" unicode="&#x3a9;" horiz-adv-x="670" 
d="M187 53c-53 47 -100 148 -100 255c0 189 99 378 328 378c154 0 219 -113 219 -250c0 -196 -114 -321 -208 -383h151l-8 -53h-229l9 53c110 71 221 196 221 380c0 111 -49 197 -164 197c-177 0 -256 -161 -256 -325c0 -107 49 -201 109 -252l-9 -53h-229l10 53h156z" />
    <glyph glyph-name="uni03BC" unicode="&#x3bc;" horiz-adv-x="510" 
d="M-4 -216l119 672h58l-52 -294c-14 -84 12 -117 89 -117c57 0 109 27 143 64l62 347h58l-61 -341c-7 -36 -1 -64 26 -64c10 0 16 1 22 2l-9 -52c-10 -3 -20 -4 -30 -4c-41 0 -61 24 -68 55c-35 -32 -86 -62 -153 -62c-53 0 -84 12 -103 35l-43 -241h-58z" />
    <glyph glyph-name="pi" unicode="&#x3c0;" horiz-adv-x="493" 
d="M46 0l72 404h-74l9 52h463l-9 -52h-75l-48 -275c-6 -38 -13 -78 28 -78c6 0 16 1 23 2l-10 -52c-12 -3 -24 -4 -35 -4c-68 0 -79 45 -65 127l49 280h-198l-72 -404h-58z" />
    <glyph glyph-name="degree" unicode="&#xb0;" horiz-adv-x="359" 
d="M103 526c0 86 61 160 150 160c68 0 114 -44 114 -119c0 -85 -61 -159 -152 -159c-67 0 -112 44 -112 118zM147 527c0 -43 26 -76 70 -76c61 0 105 50 105 115c0 44 -25 77 -71 77c-60 0 -104 -50 -104 -116z" />
    <glyph glyph-name="estimated" unicode="&#x212e;" horiz-adv-x="763" 
d="M226 338v-230c49 -49 109 -74 183 -74c105 0 182 45 245 152l45 -27c-78 -121 -157 -171 -290 -171c-199 0 -327 154 -327 350c0 197 128 350 327 350c195 0 327 -145 328 -350h-511zM595 384v184c-54 50 -116 75 -187 75c-73 0 -133 -26 -182 -75v-184h369z" />
    <glyph glyph-name="eng" unicode="&#x14b;" horiz-adv-x="502" 
d="M115 456h57l-9 -51c34 36 91 61 151 61c113 0 149 -55 129 -171l-57 -322c-22 -121 -64 -172 -145 -200l-21 45c69 28 92 64 107 149l57 324c15 81 -4 120 -87 120c-59 0 -111 -26 -144 -63l-61 -348h-58z" />
    <glyph glyph-name="Eng" unicode="&#x14a;" horiz-adv-x="658" 
d="M353 -177c67 25 89 62 104 144l5 24l-251 587l-101 -578h-63l120 676h69l246 -579l102 579h64l-124 -703c-22 -124 -66 -172 -148 -200z" />
    <glyph glyph-name="infinity" unicode="&#x221e;" horiz-adv-x="722" 
d="M673 287c0 -99 -72 -178 -170 -178c-74 0 -112 48 -141 112c-46 -57 -103 -111 -171 -111c-73 0 -128 46 -128 131c0 96 73 177 168 177c77 0 113 -53 144 -115c45 57 101 117 169 117c74 0 129 -48 129 -133zM337 263c-23 47 -58 106 -106 106c-62 0 -116 -55 -116 -126
c0 -51 33 -85 81 -85c51 0 104 60 141 105zM620 284c0 50 -31 85 -81 85c-51 0 -99 -62 -138 -108c23 -51 49 -103 102 -103c66 0 117 54 117 126z" />
    <glyph glyph-name="partialdiff" unicode="&#x2202;" horiz-adv-x="518" 
d="M384 690c56 -53 94 -163 94 -282c0 -208 -73 -418 -265 -418c-118 0 -166 80 -166 179c0 167 83 278 224 278c79 0 128 -48 145 -98c12 143 -21 252 -107 341h75zM216 43c110 0 171 112 186 218c-12 63 -54 131 -128 131c-115 0 -168 -101 -168 -219
c0 -68 30 -130 110 -130z" />
    <glyph glyph-name="integral" unicode="&#x222b;" horiz-adv-x="353" 
d="M153 -71c-18 -98 -59 -155 -149 -155c-18 0 -44 4 -55 7l10 55c15 -4 30 -6 48 -6c55 0 78 32 89 103l110 618c16 96 57 155 148 155c18 0 44 -4 55 -7l-10 -54c-15 3 -29 6 -48 6c-54 0 -78 -36 -89 -104z" />
    <glyph glyph-name="radical" unicode="&#x221a;" horiz-adv-x="586" 
d="M254 -216h-70l-87 360l-77 -37l-14 50l134 63l83 -369l359 845h63z" />
    <glyph glyph-name="summation" unicode="&#x2211;" horiz-adv-x="559" 
d="M438 -216h-471l13 72l322 388l-189 369l12 63h467l-9 -53h-411l198 -384l-332 -402h409z" />
    <glyph glyph-name="product" unicode="&#x220f;" horiz-adv-x="713" 
d="M745 676l-9 -53h-64l-148 -839h-61l148 839h-369l-148 -839h-61l147 839h-63l8 53h620z" />
    <glyph glyph-name="lozenge" unicode="&#x25ca;" horiz-adv-x="569" 
d="M272 0h-54l-168 350l291 346h54l167 -346zM363 636l-244 -293l132 -282l243 296z" />
    <glyph glyph-name="uniF8FF" unicode="&#xf8ff;" horiz-adv-x="610" 
d="M117 656h413v-656h-413v656zM492 40v576h-337v-576h337z" />
    <glyph glyph-name="exclam.sc" horiz-adv-x="215" 
d="M72 157l52 350h68l-73 -350h-47zM68 -5c-23 0 -37 16 -37 36c0 27 22 48 51 48c23 0 39 -16 39 -36c0 -27 -24 -48 -53 -48z" />
    <glyph glyph-name="numbersign.sc" horiz-adv-x="502" 
d="M33 152l14 51h80l39 118h-77l14 50h80l46 136h55l-46 -136h106l45 136h56l-45 -136h81l-13 -50h-85l-40 -118h82l-14 -51h-85l-51 -152h-56l51 152h-105l-50 -152h-57l52 152h-77zM183 203h104l40 118h-105z" />
    <glyph glyph-name="dollar.sc" horiz-adv-x="450" 
d="M272 272c67 -21 113 -58 113 -125c0 -86 -66 -148 -180 -154l-12 -70h-38l12 69c-104 6 -134 57 -146 97l52 30c9 -37 29 -72 103 -76l34 190l-16 5c-68 22 -107 56 -107 119c0 81 62 152 172 158l10 54h38l-10 -55c76 -5 115 -37 130 -73l-48 -32c-16 30 -45 50 -91 53
l-32 -185zM147 361c0 -33 18 -55 72 -73l31 174c-67 -7 -103 -49 -103 -101zM214 44c74 6 110 44 110 99c0 37 -22 58 -79 77z" />
    <glyph glyph-name="percent.sc" horiz-adv-x="639" 
d="M200 511c63 0 94 -34 94 -101c0 -93 -43 -169 -132 -169c-66 0 -94 38 -94 101c0 102 48 169 132 169zM149 0h-53l401 507h55zM163 278c56 0 84 55 84 133c0 41 -15 63 -49 63c-54 0 -83 -50 -83 -132c0 -41 15 -64 48 -64zM487 266c63 0 94 -34 94 -102
c0 -92 -43 -168 -132 -168c-66 0 -94 38 -94 101c0 102 48 169 132 169zM450 32c56 0 84 56 84 134c0 41 -16 62 -49 62c-54 0 -83 -49 -83 -132c0 -41 14 -64 48 -64z" />
    <glyph glyph-name="ampersand.sc" horiz-adv-x="526" 
d="M385 131l-18 -20l87 -106l-1 -5h-64l-59 73c-48 -46 -102 -81 -176 -81c-83 0 -125 39 -125 103c0 71 74 116 134 154l15 10l-16 20c-19 24 -50 62 -50 105c0 72 61 131 162 131c77 0 128 -42 128 -106c0 -56 -47 -93 -115 -138l-34 -21l81 -99l15 16l92 103l38 -35z
M204 309l18 -22l37 23c52 33 87 54 87 96c0 34 -24 60 -75 60c-66 0 -104 -38 -104 -81c0 -29 17 -53 37 -76zM159 40c53 0 96 31 138 73l-89 109l-19 -12c-59 -38 -104 -68 -104 -110c0 -36 31 -60 74 -60z" />
    <glyph glyph-name="section.sc" horiz-adv-x="459" 
d="M396 208c0 -45 -38 -83 -78 -103c27 -17 44 -37 44 -74c0 -70 -85 -117 -183 -117c-86 0 -145 31 -169 73l37 35c23 -36 67 -61 134 -61c70 0 118 25 118 65c0 27 -33 42 -71 58l-78 33c-50 22 -85 45 -85 99c0 41 30 80 74 103c-21 16 -41 34 -41 74
c0 70 87 122 175 122c64 0 130 -16 160 -71l-41 -32c-30 45 -78 55 -122 55c-57 0 -111 -27 -111 -68c0 -30 38 -46 81 -64l56 -22c59 -24 100 -48 100 -105zM186 297c-34 -15 -63 -42 -63 -73c0 -30 27 -48 66 -63l82 -34c27 13 65 39 65 73c0 36 -35 52 -74 67z" />
    <glyph glyph-name="paragraph.sc" horiz-adv-x="422" 
d="M274 342l-67 -377h-51l28 158c-96 0 -138 26 -138 86c0 77 45 133 147 133h81zM174 -131c50 20 70 45 82 106l64 367h52l-64 -360c-13 -79 -39 -128 -114 -153z" />
    <glyph glyph-name="parenleft.sc" horiz-adv-x="250" 
d="M96 -167c-34 72 -55 160 -55 248c0 211 71 322 174 446l46 -15c-91 -127 -161 -240 -161 -430c0 -74 16 -159 43 -233z" />
    <glyph glyph-name="slash.sc" horiz-adv-x="290" 
d="M301 499l-247 -499h-57l1 9l244 498h61z" />
    <glyph glyph-name="parenright.sc" horiz-adv-x="250" 
d="M-26 -151c114 161 158 264 158 426c0 83 -18 169 -43 237l48 15c30 -68 55 -153 55 -249c0 -190 -56 -304 -173 -445z" />
    <glyph glyph-name="bracketleft.sc" horiz-adv-x="266" 
d="M274 522l-9 -50h-91l-103 -584h91l-8 -50h-151l120 684h151z" />
    <glyph glyph-name="backslash.sc" horiz-adv-x="285" 
d="M84 507h57l70 -498l-2 -9h-54l-73 499z" />
    <glyph glyph-name="bracketright.sc" horiz-adv-x="267" 
d="M247 522l-120 -684h-150l8 50h92l103 584h-92l10 50h149z" />
    <glyph glyph-name="braceleft.sc" horiz-adv-x="268" 
d="M168 257c-10 -58 -29 -73 -53 -79c21 -9 36 -24 25 -79l-27 -155c-9 -47 4 -61 44 -61l-7 -45c-77 0 -109 24 -94 105l27 151c8 47 -10 61 -58 61l8 45c49 0 71 15 79 61l28 156c13 78 51 101 130 101l-10 -47c-39 0 -57 -12 -65 -59z" />
    <glyph glyph-name="bar.sc" horiz-adv-x="246" 
d="M93 -162v684h42v-684h-42z" />
    <glyph glyph-name="braceright.sc" horiz-adv-x="267" 
d="M83 101c10 58 28 74 52 80c-21 9 -35 23 -24 79l26 152c9 47 -4 61 -44 61l8 45c76 0 108 -24 93 -105l-27 -151c-8 -47 10 -61 58 -61l-8 -45c-49 0 -71 -15 -79 -61l-27 -156c-14 -78 -52 -101 -130 -101l9 47c39 0 57 12 65 59z" />
    <glyph glyph-name="zero.sc" horiz-adv-x="496" 
d="M292 515c104 0 155 -66 155 -188c0 -185 -74 -335 -233 -335c-104 0 -156 67 -156 189c0 187 75 334 234 334zM216 43c118 0 171 123 171 284c0 84 -29 137 -97 137c-117 0 -172 -122 -172 -283c0 -85 31 -138 98 -138z" />
    <glyph glyph-name="one.sc" horiz-adv-x="319" 
d="M141 0l79 445l-152 -56l-10 50l178 68h52l-89 -507h-58z" />
    <glyph glyph-name="two.sc" horiz-adv-x="430" 
d="M256 515c84 0 138 -43 138 -127c0 -83 -54 -136 -132 -204l-153 -134h238l-8 -50h-321l8 44l197 175c71 61 110 105 110 168c0 46 -28 77 -81 77c-60 0 -99 -41 -110 -100h-60c15 85 75 151 174 151z" />
    <glyph glyph-name="three.sc" horiz-adv-x="452" 
d="M303 259c39 -10 76 -47 76 -108c0 -86 -76 -159 -192 -159c-124 0 -163 60 -150 131h58c-8 -46 19 -80 94 -80c78 0 130 48 130 109c0 51 -42 84 -109 84h-48l10 50h46c76 0 134 38 134 104c0 42 -31 74 -89 74c-65 0 -106 -37 -114 -81h-59c11 69 73 132 176 132
c88 0 147 -42 147 -122c0 -76 -55 -118 -110 -134z" />
    <glyph glyph-name="four.sc" horiz-adv-x="470" 
d="M407 112h-76l-20 -112h-59l20 112h-252l8 45l312 350h61l-62 -345h77zM281 162l45 254l-227 -254h182z" />
    <glyph glyph-name="five.sc" horiz-adv-x="440" 
d="M377 189c0 -102 -75 -197 -199 -197c-125 0 -159 65 -146 142h59c-9 -51 13 -91 90 -91c89 0 134 68 134 143c0 52 -32 84 -90 84c-41 0 -75 -14 -103 -32l-48 6l78 263h265l-9 -50h-214l-48 -157c17 8 56 21 88 21c87 0 143 -41 143 -132z" />
    <glyph glyph-name="six.sc" horiz-adv-x="470" 
d="M371 383c8 49 -22 81 -84 81c-95 0 -150 -102 -164 -200c22 21 70 57 135 57c95 0 148 -47 148 -135c0 -109 -80 -194 -199 -194c-106 0 -151 71 -151 184c0 183 86 339 234 339c106 0 153 -60 139 -132h-58zM117 203c-8 -100 19 -160 92 -160c83 0 137 59 137 141
c0 53 -33 88 -96 88c-54 0 -107 -37 -133 -69z" />
    <glyph glyph-name="seven.sc" horiz-adv-x="387" 
d="M323 457h-247l8 50h316l-7 -44l-274 -463h-68z" />
    <glyph glyph-name="eight.sc" horiz-adv-x="473" 
d="M201 -8c-106 0 -161 47 -161 127c0 85 72 133 126 145c-41 12 -73 40 -73 98c0 86 78 153 187 153c91 0 152 -42 152 -119c0 -79 -55 -120 -112 -135c41 -11 81 -42 81 -106c0 -101 -86 -163 -200 -163zM278 464c-74 0 -124 -41 -124 -104c0 -46 38 -73 93 -73
c69 0 124 35 124 106c0 42 -36 71 -93 71zM203 43c81 0 137 41 137 113c0 51 -42 81 -103 81c-73 0 -135 -39 -135 -114c0 -50 39 -80 101 -80z" />
    <glyph glyph-name="nine.sc" horiz-adv-x="470" 
d="M107 124c-8 -49 23 -81 84 -81c95 0 151 102 165 200c-22 -21 -70 -57 -136 -57c-95 0 -148 47 -148 135c0 109 81 194 200 194c105 0 150 -71 150 -184c0 -183 -86 -339 -233 -339c-106 0 -153 60 -140 132h58zM362 304c8 100 -19 160 -93 160c-83 0 -136 -59 -136 -141
c0 -53 33 -88 96 -88c54 0 107 37 133 69z" />
    <glyph glyph-name="question.sc" horiz-adv-x="371" 
d="M223 515c83 0 133 -43 133 -114c0 -115 -146 -144 -164 -244h-61c22 124 165 157 165 240c0 37 -26 65 -74 65c-54 0 -86 -27 -93 -70l-58 5c11 65 60 118 152 118zM135 -5c-23 0 -38 16 -38 37c0 26 23 47 51 47c23 0 39 -16 39 -36c0 -27 -24 -48 -52 -48z" />
    <glyph glyph-name="a.sc" horiz-adv-x="491" 
d="M342 136h-220l-73 -136h-67l277 507h72l99 -507h-63zM147 186h188l-49 258z" />
    <glyph glyph-name="b.sc" horiz-adv-x="480" 
d="M132 507h151c94 0 147 -33 147 -110s-44 -121 -96 -134c46 -10 79 -45 79 -104c0 -105 -68 -159 -208 -159h-163zM243 287c96 0 123 47 123 105c0 42 -27 65 -93 65h-90l-30 -170h90zM213 50c102 0 139 40 139 110c0 47 -32 77 -109 77h-99l-33 -187h102z" />
    <glyph glyph-name="c.sc" horiz-adv-x="482" 
d="M120 193c0 -94 41 -149 121 -149c54 0 98 28 129 66l44 -34c-38 -50 -95 -84 -176 -84c-119 0 -182 66 -182 199c0 178 80 324 260 324c85 0 137 -36 157 -87l-51 -30c-16 40 -54 64 -108 64c-147 0 -194 -140 -194 -269z" />
    <glyph glyph-name="d.sc" horiz-adv-x="534" 
d="M132 507h140c139 0 214 -55 214 -189c0 -212 -88 -318 -296 -318h-148zM193 50c158 0 232 80 232 268c0 94 -50 139 -160 139h-82l-72 -407h82z" />
    <glyph glyph-name="e.sc" horiz-adv-x="447" 
d="M362 50l-8 -50h-312l90 507h308l-9 -50h-248l-30 -172h221l-9 -50h-221l-33 -185h251z" />
    <glyph glyph-name="f.sc" horiz-adv-x="436" 
d="M132 507h303l-8 -50h-244l-32 -186h208l-8 -51h-210l-38 -220h-61z" />
    <glyph glyph-name="g.sc" horiz-adv-x="522" 
d="M288 270h190l-4 -37c-22 -136 -88 -241 -234 -241c-128 0 -184 71 -184 197c0 192 98 326 262 326c88 0 140 -33 164 -85l-50 -30c-22 42 -53 62 -117 62c-117 0 -198 -106 -198 -274c0 -91 35 -145 125 -145c105 0 155 82 169 176h-133z" />
    <glyph glyph-name="h.sc" horiz-adv-x="553" 
d="M460 507h60l-89 -507h-61l43 241h-269l-42 -241h-60l90 507h59l-38 -216h269z" />
    <glyph glyph-name="i.sc" horiz-adv-x="224" 
d="M132 507h59l-89 -507h-60z" />
    <glyph glyph-name="j.sc" horiz-adv-x="403" 
d="M50 96c15 -35 41 -52 82 -52c64 0 111 36 127 134l58 329h58l-59 -333c-23 -132 -88 -182 -186 -182c-69 0 -113 30 -129 75z" />
    <glyph glyph-name="k.sc" horiz-adv-x="493" 
d="M133 172l-30 -172h-61l90 507h60l-44 -253l288 253h81l-238 -211l147 -296h-68l-126 258z" />
    <glyph glyph-name="l.sc" horiz-adv-x="390" 
d="M336 50l-8 -50h-286l90 507h60l-81 -457h225z" />
    <glyph glyph-name="m.sc" horiz-adv-x="690" 
d="M536 507h83l-21 -507h-59l20 435l-220 -435h-65l-66 435l-137 -435h-61l162 507h81l64 -429z" />
    <glyph glyph-name="n.sc" horiz-adv-x="557" 
d="M466 507h59l-90 -507h-62l-199 415l-71 -415h-61l90 507h63l198 -414z" />
    <glyph glyph-name="o.sc" horiz-adv-x="538" 
d="M491 319c0 -207 -97 -327 -259 -327c-124 0 -176 78 -176 195c0 171 72 328 257 328c122 0 178 -75 178 -196zM117 186c0 -84 31 -142 118 -142c119 0 196 94 196 274c0 82 -33 144 -121 144c-139 0 -193 -129 -193 -276z" />
    <glyph glyph-name="p.sc" horiz-adv-x="462" 
d="M137 202l-35 -202h-60l90 507h159c103 0 152 -46 152 -128c0 -105 -65 -177 -201 -177h-105zM146 252h99c99 0 137 53 137 125c0 48 -29 80 -99 80h-101z" />
    <glyph glyph-name="q.sc" horiz-adv-x="530" 
d="M493 319c0 -103 -24 -184 -67 -240l44 -50l-40 -37l-43 49c-40 -32 -92 -49 -153 -49c-125 0 -177 78 -177 195c0 171 73 328 257 328c123 0 179 -75 179 -196zM237 44c44 0 83 13 114 39l-112 129l39 35l108 -123c30 46 46 111 46 194c0 82 -32 144 -120 144
c-140 0 -194 -129 -194 -276c0 -84 32 -142 119 -142z" />
    <glyph glyph-name="r.sc" horiz-adv-x="491" 
d="M132 507h173c106 0 159 -41 159 -120c0 -94 -61 -150 -164 -157l111 -230h-66l-104 225h-100l-40 -225h-59zM402 385c0 46 -32 72 -106 72h-114l-31 -181h113c98 0 138 39 138 109z" />
    <glyph glyph-name="s.sc" horiz-adv-x="448" 
d="M377 409c-17 34 -51 53 -106 53c-81 0 -123 -45 -123 -102c0 -33 18 -56 74 -74l48 -15c68 -21 113 -57 113 -124c0 -91 -73 -155 -199 -155c-119 0 -152 55 -164 97l51 30c10 -39 30 -75 115 -75c90 0 133 40 133 101c0 37 -23 58 -81 77l-46 16
c-69 23 -107 56 -107 119c0 85 67 158 188 158c90 0 135 -34 153 -74z" />
    <glyph glyph-name="t.sc" horiz-adv-x="430" 
d="M445 507l-9 -50h-151l-81 -457h-59l80 457h-152l8 50h364z" />
    <glyph glyph-name="u.sc" horiz-adv-x="534" 
d="M230 -8c-114 0 -184 54 -160 196l57 319h60l-58 -321c-18 -102 22 -142 106 -142c83 0 138 41 156 142l56 321h60l-57 -319c-25 -142 -103 -196 -220 -196z" />
    <glyph glyph-name="v.sc" horiz-adv-x="482" 
d="M505 507l-266 -507h-77l-87 507h61l73 -445l229 445h67z" />
    <glyph glyph-name="w.sc" horiz-adv-x="771" 
d="M467 507l53 -438l203 438h66l-240 -507h-75l-53 426l-204 -426h-73l-64 507h61l50 -438l207 438h69z" />
    <glyph glyph-name="x.sc" horiz-adv-x="466" 
d="M153 507l90 -204l163 204h74l-200 -245l119 -262h-67l-96 219l-174 -219h-74l211 262l-113 245h67z" />
    <glyph glyph-name="y.sc" horiz-adv-x="463" 
d="M161 0l37 203l-125 304h64l98 -248l182 248h73l-233 -304l-36 -203h-60z" />
    <glyph glyph-name="z.sc" horiz-adv-x="421" 
d="M414 462l-331 -412h263l-9 -50h-336l7 45l331 412h-243l9 50h317z" />
    <glyph glyph-name="agrave.sc" horiz-adv-x="491" 
d="M289 726l47 -151h-52l-55 151h60zM342 136h-220l-73 -136h-67l277 507h72l99 -507h-63zM147 186h188l-49 258z" />
    <glyph glyph-name="aacute.sc" horiz-adv-x="491" 
d="M445 726l-108 -151h-57l99 151h66zM342 136h-220l-73 -136h-67l277 507h72l99 -507h-63zM147 186h188l-49 258z" />
    <glyph glyph-name="acircumflex.sc" horiz-adv-x="491" 
d="M364 726l71 -151h-55l-52 107l-89 -107h-59l124 151h60zM342 136h-220l-73 -136h-67l277 507h72l99 -507h-63zM147 186h188l-49 258z" />
    <glyph glyph-name="atilde.sc" horiz-adv-x="491" 
d="M429 607c-13 15 -32 26 -52 26c-41 0 -81 -38 -136 -38c-27 0 -50 14 -58 26l15 47c11 -14 27 -24 52 -24c44 0 78 37 136 37c31 0 49 -15 59 -25zM342 136h-220l-73 -136h-67l277 507h72l99 -507h-63zM147 186h188l-49 258z" />
    <glyph glyph-name="adieresis.sc" horiz-adv-x="491" 
d="M230 600c-23 0 -40 13 -40 38c0 39 23 55 53 55c21 0 39 -13 39 -39c0 -38 -26 -54 -52 -54zM398 600c-23 0 -40 13 -40 38c0 39 23 55 53 55c20 0 39 -13 39 -39c0 -38 -26 -54 -52 -54zM342 136h-220l-73 -136h-67l277 507h72l99 -507h-63zM147 186h188l-49 258z" />
    <glyph glyph-name="amacron.sc" horiz-adv-x="491" 
d="M452 663l-9 -52h-258l9 52h258zM342 136h-220l-73 -136h-67l277 507h72l99 -507h-63zM147 186h188l-49 258z" />
    <glyph glyph-name="abreve.sc" horiz-adv-x="491" 
d="M454 701c-14 -76 -67 -131 -146 -131c-75 0 -115 55 -101 131h44c-7 -48 14 -84 63 -84c51 0 84 36 95 84h45zM342 136h-220l-73 -136h-67l277 507h72l99 -507h-63zM147 186h188l-49 258z" />
    <glyph glyph-name="aring.sc" horiz-adv-x="491" 
d="M223 637c0 62 45 106 112 106c52 0 85 -35 85 -78c0 -61 -46 -106 -114 -106c-51 0 -83 35 -83 78zM267 641c0 -26 16 -43 44 -43c39 0 65 26 65 63c0 26 -17 44 -46 44c-37 0 -63 -27 -63 -64zM342 136h-220l-73 -136h-67l277 507h72l99 -507h-63zM147 186h188l-49 258z
" />
    <glyph glyph-name="aringacute.sc" horiz-adv-x="491" 
d="M215 638c0 55 38 98 95 103l69 76h65l-80 -81c28 -10 47 -38 47 -73c0 -61 -48 -104 -112 -104c-55 0 -84 36 -84 79zM257 641c0 -26 17 -44 44 -44c40 0 66 26 66 64c0 27 -17 44 -46 44c-37 0 -64 -26 -64 -64zM342 136h-220l-73 -136h-67l277 507h72l99 -507h-63z
M147 186h188l-49 258z" />
    <glyph glyph-name="aogonek.sc" horiz-adv-x="492" 
d="M303 -129c0 -18 11 -37 40 -37c20 0 42 11 63 25l-10 -55c-17 -9 -39 -20 -71 -20c-53 0 -84 33 -84 74c0 46 28 75 66 104l59 44l-24 130h-220l-73 -136h-67l277 507h72l99 -507l-83 -62c-31 -24 -44 -42 -44 -67zM147 186h188l-49 258z" />
    <glyph glyph-name="ae.sc" horiz-adv-x="775" 
d="M691 50l-9 -50h-312l25 136h-209l-123 -136h-81l464 507h322l-8 -50h-249l-30 -172h221l-9 -50h-221l-33 -185h252zM403 186l43 238l-217 -238h174z" />
    <glyph glyph-name="aeacute.sc" horiz-adv-x="775" 
d="M705 726l-108 -151h-57l99 151h66zM691 50l-9 -50h-312l25 136h-209l-123 -136h-81l464 507h322l-8 -50h-249l-30 -172h221l-9 -50h-221l-33 -185h252zM403 186l43 238l-217 -238h174z" />
    <glyph glyph-name="cacute.sc" horiz-adv-x="482" 
d="M457 734l-109 -151h-57l100 151h66zM120 193c0 -94 41 -149 121 -149c54 0 98 28 129 66l44 -34c-38 -50 -95 -84 -176 -84c-119 0 -182 66 -182 199c0 178 80 324 260 324c85 0 137 -36 157 -87l-51 -30c-16 40 -54 64 -108 64c-147 0 -194 -140 -194 -269z" />
    <glyph glyph-name="ccircumflex.sc" horiz-adv-x="476" 
d="M386 726l71 -151h-55l-52 107l-89 -107h-59l124 151h60zM121 193c0 -94 41 -149 121 -149c55 0 99 28 130 66l43 -34c-37 -50 -94 -84 -176 -84c-118 0 -181 66 -181 199c0 178 79 324 260 324c85 0 137 -36 157 -87l-51 -30c-16 40 -55 64 -108 64
c-147 0 -195 -140 -195 -269z" />
    <glyph glyph-name="ccaron.sc" horiz-adv-x="476" 
d="M300 575l-71 151h55l52 -107l89 107h59l-124 -151h-60zM121 193c0 -94 41 -149 121 -149c55 0 99 28 130 66l43 -34c-37 -50 -94 -84 -176 -84c-118 0 -181 66 -181 199c0 178 79 324 260 324c85 0 137 -36 157 -87l-51 -30c-16 40 -55 64 -108 64
c-147 0 -195 -140 -195 -269z" />
    <glyph glyph-name="cdotaccent.sc" horiz-adv-x="476" 
d="M334 600c-22 0 -39 13 -39 38c0 39 23 55 53 55c20 0 39 -13 39 -39c0 -38 -26 -54 -53 -54zM120 193c0 -94 41 -149 121 -149c54 0 98 28 129 66l44 -34c-38 -50 -95 -84 -176 -84c-119 0 -182 66 -182 199c0 178 80 324 260 324c85 0 137 -36 157 -87l-51 -30
c-16 40 -54 64 -108 64c-147 0 -194 -140 -194 -269z" />
    <glyph glyph-name="ccedilla.sc" horiz-adv-x="474" 
d="M316 462c-147 0 -195 -140 -195 -269c0 -94 41 -149 121 -149c55 0 99 28 130 66l43 -34c-34 -46 -84 -78 -155 -83l-29 -53c41 0 72 -19 72 -65c0 -51 -37 -91 -105 -91c-30 0 -58 11 -77 22l9 46c17 -15 42 -25 69 -25c33 0 50 19 50 42c0 25 -20 32 -50 32h-30l-2 5
l45 87c-101 10 -154 76 -154 198c0 178 79 324 260 324c85 0 137 -36 157 -87l-51 -30c-16 40 -55 64 -108 64z" />
    <glyph glyph-name="dcaron.sc" horiz-adv-x="534" 
d="M279 575l-71 151h55l51 -107l90 107h59l-124 -151h-60zM132 507h140c139 0 214 -55 214 -189c0 -212 -88 -318 -296 -318h-148zM193 50c158 0 232 80 232 268c0 94 -50 139 -160 139h-82l-72 -407h82z" />
    <glyph glyph-name="dcroat.sc" horiz-adv-x="540" 
d="M287 507c139 0 214 -55 214 -189c0 -212 -88 -318 -296 -318h-148l42 235h-70l9 46h69l40 226h140zM208 50c158 0 232 80 232 268c0 94 -50 139 -160 139h-82l-31 -176h100l-9 -46h-99l-33 -185h82z" />
    <glyph glyph-name="eth.sc" horiz-adv-x="540" 
d="M287 507c139 0 214 -55 214 -189c0 -212 -88 -318 -296 -318h-148l42 235h-70l9 46h69l40 226h140zM208 50c158 0 232 80 232 268c0 94 -50 139 -160 139h-82l-31 -176h100l-9 -46h-99l-33 -185h82z" />
    <glyph glyph-name="egrave.sc" horiz-adv-x="447" 
d="M280 726l47 -151h-52l-55 151h60zM362 50l-8 -50h-312l90 507h308l-9 -50h-248l-30 -172h221l-9 -50h-221l-33 -185h251z" />
    <glyph glyph-name="eacute.sc" horiz-adv-x="440" 
d="M432 726l-108 -151h-57l99 151h66zM364 50l-8 -50h-312l90 507h308l-9 -50h-248l-31 -172h221l-8 -50h-221l-33 -185h251z" />
    <glyph glyph-name="ecircumflex.sc" horiz-adv-x="440" 
d="M353 726l71 -151h-55l-51 107l-90 -107h-59l124 151h60zM364 50l-8 -50h-312l90 507h308l-9 -50h-248l-31 -172h221l-8 -50h-221l-33 -185h251z" />
    <glyph glyph-name="ecaron.sc" horiz-adv-x="440" 
d="M267 575l-71 151h55l52 -107l89 107h59l-124 -151h-60zM364 50l-8 -50h-312l90 507h308l-9 -50h-248l-31 -172h221l-8 -50h-221l-33 -185h251z" />
    <glyph glyph-name="edieresis.sc" horiz-adv-x="440" 
d="M219 600c-23 0 -40 13 -40 38c0 39 23 55 53 55c21 0 39 -13 39 -39c0 -38 -26 -54 -52 -54zM387 600c-23 0 -40 13 -40 38c0 39 23 55 53 55c20 0 39 -13 39 -39c0 -38 -26 -54 -52 -54zM364 50l-8 -50h-312l90 507h308l-9 -50h-248l-31 -172h221l-8 -50h-221l-33 -185
h251z" />
    <glyph glyph-name="emacron.sc" horiz-adv-x="440" 
d="M441 663l-9 -52h-258l10 52h257zM364 50l-8 -50h-312l90 507h308l-9 -50h-248l-31 -172h221l-8 -50h-221l-33 -185h251z" />
    <glyph glyph-name="ebreve.sc" horiz-adv-x="440" 
d="M443 701c-14 -76 -67 -131 -146 -131c-75 0 -115 55 -101 131h44c-7 -48 14 -84 63 -84c51 0 84 36 95 84h45zM364 50l-8 -50h-312l90 507h308l-9 -50h-248l-31 -172h221l-8 -50h-221l-33 -185h251z" />
    <glyph glyph-name="edotaccent.sc" horiz-adv-x="440" 
d="M301 600c-23 0 -40 13 -40 38c0 39 24 55 54 55c20 0 38 -13 38 -39c0 -38 -26 -54 -52 -54zM362 50l-8 -50h-312l90 507h308l-9 -50h-248l-30 -172h221l-9 -50h-221l-33 -185h251z" />
    <glyph glyph-name="eogonek.sc" horiz-adv-x="438" 
d="M432 457h-248l-31 -172h221l-8 -50h-221l-33 -185h251l-8 -50l-84 -62c-30 -24 -43 -42 -43 -67c0 -18 11 -37 39 -37c21 0 42 11 63 25l-9 -55c-17 -9 -40 -20 -72 -20c-53 0 -83 33 -83 74c0 46 27 75 65 104l52 38h-240l90 507h308z" />
    <glyph glyph-name="gcircumflex.sc" horiz-adv-x="522" 
d="M388 726l70 -151h-54l-52 107l-89 -107h-59l124 151h60zM288 270h190l-4 -37c-22 -136 -88 -241 -234 -241c-128 0 -184 71 -184 197c0 192 98 326 262 326c88 0 140 -33 164 -85l-50 -30c-22 42 -53 62 -117 62c-117 0 -198 -106 -198 -274c0 -91 35 -145 125 -145
c105 0 155 82 169 176h-133z" />
    <glyph glyph-name="gbreve.sc" horiz-adv-x="514" 
d="M479 701c-13 -76 -67 -131 -146 -131c-74 0 -114 55 -101 131h44c-7 -48 15 -84 64 -84c51 0 84 36 94 84h45zM289 270h190c0 -10 -2 -30 -3 -37c-22 -136 -89 -241 -234 -241c-128 0 -185 71 -185 197c0 192 99 326 263 326c88 0 139 -33 164 -85l-50 -30
c-22 42 -54 62 -118 62c-116 0 -197 -106 -197 -274c0 -91 35 -145 125 -145c105 0 154 82 168 176h-132z" />
    <glyph glyph-name="gdotaccent.sc" horiz-adv-x="514" 
d="M338 600c-23 0 -40 13 -40 38c0 39 24 55 54 55c20 0 38 -13 38 -39c0 -38 -26 -54 -52 -54zM288 270h190l-4 -37c-22 -136 -88 -241 -234 -241c-128 0 -184 71 -184 197c0 192 98 326 262 326c88 0 140 -33 164 -85l-50 -30c-22 42 -53 62 -117 62
c-117 0 -198 -106 -198 -274c0 -91 35 -145 125 -145c105 0 155 82 169 176h-133z" />
    <glyph glyph-name="uni0123.sc" horiz-adv-x="514" 
d="M289 270h190c0 -10 -2 -30 -3 -37c-22 -136 -89 -241 -234 -241c-128 0 -185 71 -185 197c0 192 99 326 263 326c88 0 139 -33 164 -85l-50 -30c-22 42 -54 62 -118 62c-116 0 -197 -106 -197 -274c0 -91 35 -145 125 -145c105 0 154 82 168 176h-132zM187 -216h-47
l49 145h70z" />
    <glyph glyph-name="hcircumflex.sc" horiz-adv-x="553" 
d="M395 726l71 -151h-55l-52 107l-89 -107h-59l124 151h60zM460 507h60l-89 -507h-61l43 241h-269l-42 -241h-60l90 507h59l-38 -216h269z" />
    <glyph glyph-name="hbar.sc" horiz-adv-x="554" 
d="M117 419l16 88h58l-16 -88h271l16 88h59l-16 -88h39l-8 -46h-39l-65 -373h-60l43 241h-271l-42 -241h-59l66 373h-42l7 46h43zM438 373h-270l-15 -82h271z" />
    <glyph glyph-name="igrave.sc" horiz-adv-x="224" 
d="M155 726l47 -151h-52l-55 151h60zM132 507h59l-89 -507h-60z" />
    <glyph glyph-name="iacute.sc" horiz-adv-x="224" 
d="M320 726l-109 -151h-57l99 151h67zM141 507h59l-89 -507h-60z" />
    <glyph glyph-name="ibreve.sc" horiz-adv-x="224" 
d="M329 701c-14 -76 -67 -131 -146 -131c-75 0 -115 55 -101 131h44c-7 -48 14 -84 63 -84c51 0 84 36 95 84h45zM141 507h59l-89 -507h-60z" />
    <glyph glyph-name="icircumflex.sc" horiz-adv-x="224" 
d="M239 726l71 -151h-55l-52 107l-89 -107h-59l124 151h60zM141 507h59l-89 -507h-60z" />
    <glyph glyph-name="itilde.sc" horiz-adv-x="224" 
d="M309 607c-13 15 -32 26 -52 26c-41 0 -81 -38 -137 -38c-27 0 -50 14 -57 26l15 47c11 -14 27 -24 51 -24c45 0 78 37 137 37c31 0 49 -15 59 -25zM141 507h59l-89 -507h-60z" />
    <glyph glyph-name="idieresis.sc" horiz-adv-x="224" 
d="M105 600c-23 0 -40 13 -40 38c0 39 23 55 53 55c20 0 39 -13 39 -39c0 -38 -26 -54 -52 -54zM272 600c-22 0 -39 13 -39 38c0 39 23 55 53 55c20 0 39 -13 39 -39c0 -38 -26 -54 -53 -54zM141 507h59l-89 -507h-60z" />
    <glyph glyph-name="imacron.sc" horiz-adv-x="224" 
d="M327 663l-10 -52h-258l10 52h258zM141 507h59l-89 -507h-60z" />
    <glyph glyph-name="i.sc.loclTRK" horiz-adv-x="224" 
d="M179 600c-22 0 -39 13 -39 38c0 39 23 55 53 55c20 0 39 -13 39 -39c0 -38 -26 -54 -53 -54zM132 507h59l-89 -507h-60z" />
    <glyph glyph-name="iogonek.sc" horiz-adv-x="217" 
d="M20 -62c-31 -24 -43 -42 -43 -67c0 -18 11 -37 39 -37c20 0 42 11 63 25l-9 -55c-18 -9 -40 -20 -72 -20c-53 0 -83 33 -83 74c0 46 27 75 65 104l66 48l88 497h58l-89 -507z" />
    <glyph glyph-name="jcircumflex.sc" horiz-adv-x="403" 
d="M410 726l70 -151h-54l-52 107l-89 -107h-59l124 151h60zM50 96c15 -35 41 -52 82 -52c64 0 111 36 127 134l58 329h58l-59 -333c-23 -132 -88 -182 -186 -182c-69 0 -113 30 -129 75z" />
    <glyph glyph-name="uni0137.sc" horiz-adv-x="493" 
d="M133 172l-30 -172h-61l90 507h60l-44 -253l288 253h81l-238 -211l147 -296h-68l-126 258zM152 -216h-47l50 145h69z" />
    <glyph glyph-name="lacute.sc" horiz-adv-x="390" 
d="M297 726l-109 -151h-57l100 151h66zM336 50l-8 -50h-286l90 507h60l-81 -457h225z" />
    <glyph glyph-name="lcaron.sc" horiz-adv-x="390" 
d="M336 50l-8 -50h-286l90 507h60l-81 -457h225zM354 358h-47l50 149h68z" />
    <glyph glyph-name="uni013C.sc" horiz-adv-x="382" 
d="M338 50l-9 -50h-285l90 507h59l-80 -457h225zM128 -216h-47l50 145h69z" />
    <glyph glyph-name="lslash.sc" horiz-adv-x="398" 
d="M345 50l-9 -50h-285l36 205l-65 -27l9 53l66 26l44 250h59l-39 -224l78 33l-9 -53l-79 -33l-32 -180h226z" />
    <glyph glyph-name="ldot.sc" horiz-adv-x="419" 
d="M336 50l-8 -50h-286l90 507h60l-81 -457h225zM316 231c-23 0 -39 13 -39 37c0 39 23 55 53 55c20 0 38 -13 38 -39c0 -38 -26 -53 -52 -53z" />
    <glyph glyph-name="nacute.sc" horiz-adv-x="557" 
d="M464 726l-109 -151h-57l100 151h66zM466 507h59l-90 -507h-62l-199 415l-71 -415h-61l90 507h63l198 -414z" />
    <glyph glyph-name="ncaron.sc" horiz-adv-x="557" 
d="M311 575l-71 151h55l52 -107l89 107h59l-124 -151h-60zM466 507h59l-90 -507h-62l-199 415l-71 -415h-61l90 507h63l198 -414z" />
    <glyph glyph-name="ntilde.sc" horiz-adv-x="557" 
d="M467 607c-13 15 -32 26 -52 26c-41 0 -81 -38 -136 -38c-27 0 -50 14 -58 26l15 47c11 -14 27 -24 52 -24c44 0 77 37 136 37c31 0 49 -15 59 -25zM466 507h59l-90 -507h-62l-199 415l-71 -415h-61l90 507h63l198 -414z" />
    <glyph glyph-name="uni0146.sc" horiz-adv-x="557" 
d="M466 507h59l-90 -507h-62l-199 415l-71 -415h-61l90 507h63l198 -414zM192 -216h-47l50 145h69z" />
    <glyph glyph-name="ograve.sc" horiz-adv-x="538" 
d="M317 726l47 -151h-52l-55 151h60zM491 319c0 -207 -97 -327 -259 -327c-124 0 -176 78 -176 195c0 171 72 328 257 328c122 0 178 -75 178 -196zM117 186c0 -84 31 -142 118 -142c119 0 196 94 196 274c0 82 -33 144 -121 144c-139 0 -193 -129 -193 -276z" />
    <glyph glyph-name="oacute.sc" horiz-adv-x="538" 
d="M467 726l-109 -151h-57l100 151h66zM491 319c0 -207 -97 -327 -259 -327c-124 0 -176 78 -176 195c0 171 72 328 257 328c122 0 178 -75 178 -196zM117 186c0 -84 31 -142 118 -142c119 0 196 94 196 274c0 82 -33 144 -121 144c-139 0 -193 -129 -193 -276z" />
    <glyph glyph-name="ocircumflex.sc" horiz-adv-x="538" 
d="M387 726l71 -151h-55l-52 107l-89 -107h-59l124 151h60zM491 319c0 -207 -97 -327 -259 -327c-124 0 -176 78 -176 195c0 171 72 328 257 328c122 0 178 -75 178 -196zM117 186c0 -84 31 -142 118 -142c119 0 196 94 196 274c0 82 -33 144 -121 144
c-139 0 -193 -129 -193 -276z" />
    <glyph glyph-name="otilde.sc" horiz-adv-x="538" 
d="M457 607c-13 15 -32 26 -52 26c-41 0 -81 -38 -137 -38c-27 0 -50 14 -58 26l16 47c11 -14 27 -24 51 -24c45 0 78 37 137 37c31 0 49 -15 59 -25zM491 319c0 -207 -97 -327 -259 -327c-124 0 -176 78 -176 195c0 171 72 328 257 328c122 0 178 -75 178 -196zM117 186
c0 -84 31 -142 118 -142c119 0 196 94 196 274c0 82 -33 144 -121 144c-139 0 -193 -129 -193 -276z" />
    <glyph glyph-name="odieresis.sc" horiz-adv-x="538" 
d="M253 600c-23 0 -40 13 -40 38c0 39 23 55 53 55c20 0 39 -13 39 -39c0 -38 -26 -54 -52 -54zM420 600c-23 0 -39 13 -39 38c0 39 23 55 53 55c20 0 39 -13 39 -39c0 -38 -26 -54 -53 -54zM491 319c0 -207 -97 -327 -259 -327c-124 0 -176 78 -176 195
c0 171 72 328 257 328c122 0 178 -75 178 -196zM117 186c0 -84 31 -142 118 -142c119 0 196 94 196 274c0 82 -33 144 -121 144c-139 0 -193 -129 -193 -276z" />
    <glyph glyph-name="omacron.sc" horiz-adv-x="538" 
d="M475 663l-10 -52h-258l10 52h258zM491 319c0 -207 -97 -327 -259 -327c-124 0 -176 78 -176 195c0 171 72 328 257 328c122 0 178 -75 178 -196zM117 186c0 -84 31 -142 118 -142c119 0 196 94 196 274c0 82 -33 144 -121 144c-139 0 -193 -129 -193 -276z" />
    <glyph glyph-name="obreve.sc" horiz-adv-x="538" 
d="M476 701c-14 -76 -67 -131 -146 -131c-75 0 -115 55 -101 131h44c-7 -48 14 -84 63 -84c51 0 85 36 95 84h45zM491 319c0 -207 -97 -327 -259 -327c-124 0 -176 78 -176 195c0 171 72 328 257 328c122 0 178 -75 178 -196zM117 186c0 -84 31 -142 118 -142
c119 0 196 94 196 274c0 82 -33 144 -121 144c-139 0 -193 -129 -193 -276z" />
    <glyph glyph-name="ohungarumlaut.sc" horiz-adv-x="538" 
d="M397 726l-109 -151h-56l100 151h65zM533 726l-110 -151h-55l100 151h65zM491 319c0 -207 -97 -327 -259 -327c-124 0 -176 78 -176 195c0 171 72 328 257 328c122 0 178 -75 178 -196zM117 186c0 -84 31 -142 118 -142c119 0 196 94 196 274c0 82 -33 144 -121 144
c-139 0 -193 -129 -193 -276z" />
    <glyph glyph-name="oslash.sc" horiz-adv-x="538" 
d="M529 507l-63 -70c17 -32 25 -71 25 -118c0 -207 -97 -327 -259 -327c-57 0 -98 16 -127 45l-33 -37h-60l67 74c-16 31 -23 69 -23 113c0 171 72 328 257 328c54 0 95 -15 124 -42l31 34h61zM117 186c0 -23 2 -43 7 -61l273 303c-19 22 -48 34 -87 34
c-139 0 -193 -129 -193 -276zM431 318c0 25 -3 49 -10 69l-276 -306c19 -23 48 -37 90 -37c119 0 196 94 196 274z" />
    <glyph glyph-name="oslashacute.sc" horiz-adv-x="538" 
d="M465 726l-109 -151h-57l100 151h66zM529 507l-63 -70c17 -32 25 -71 25 -118c0 -207 -97 -327 -259 -327c-57 0 -98 16 -127 45l-33 -37h-60l67 74c-16 31 -23 69 -23 113c0 171 72 328 257 328c54 0 95 -15 124 -42l31 34h61zM117 186c0 -23 2 -43 7 -61l273 303
c-19 22 -48 34 -87 34c-139 0 -193 -129 -193 -276zM431 318c0 25 -3 49 -10 69l-276 -306c19 -23 48 -37 90 -37c119 0 196 94 196 274z" />
    <glyph glyph-name="oe.sc" horiz-adv-x="701" 
d="M617 50l-10 -50h-302c-21 -6 -44 -8 -72 -8c-134 0 -177 86 -177 194c0 179 77 329 257 329c27 0 54 -2 77 -8h304l-8 -50h-249l-30 -172h221l-9 -50h-221l-32 -185h251zM236 44c27 0 50 4 70 12l69 395c-17 7 -38 11 -65 11c-138 0 -193 -123 -193 -277
c0 -79 31 -141 119 -141z" />
    <glyph glyph-name="racute.sc" horiz-adv-x="491" 
d="M423 726l-109 -151h-57l100 151h66zM132 507h173c106 0 159 -41 159 -120c0 -94 -61 -150 -164 -157l111 -230h-66l-104 225h-100l-40 -225h-59zM402 385c0 46 -32 72 -106 72h-114l-31 -181h113c98 0 138 39 138 109z" />
    <glyph glyph-name="rcaron.sc" horiz-adv-x="491" 
d="M258 575l-70 151h54l52 -107l89 107h60l-125 -151h-60zM132 507h173c106 0 159 -41 159 -120c0 -94 -61 -150 -164 -157l111 -230h-66l-104 225h-100l-40 -225h-59zM402 385c0 46 -32 72 -106 72h-114l-31 -181h113c98 0 138 39 138 109z" />
    <glyph glyph-name="uni0157.sc" horiz-adv-x="491" 
d="M132 507h173c106 0 159 -41 159 -120c0 -94 -61 -150 -164 -157l111 -230h-66l-104 225h-100l-40 -225h-59zM402 385c0 46 -32 72 -106 72h-114l-31 -181h113c98 0 138 39 138 109zM145 -216h-47l49 145h70z" />
    <glyph glyph-name="sacute.sc" horiz-adv-x="448" 
d="M423 726l-109 -151h-57l100 151h66zM377 409c-17 34 -51 53 -106 53c-81 0 -123 -45 -123 -102c0 -33 18 -56 74 -74l48 -15c68 -21 113 -57 113 -124c0 -91 -73 -155 -199 -155c-119 0 -152 55 -164 97l51 30c10 -39 30 -75 115 -75c90 0 133 40 133 101
c0 37 -23 58 -81 77l-46 16c-69 23 -107 56 -107 119c0 85 67 158 188 158c90 0 135 -34 153 -74z" />
    <glyph glyph-name="scircumflex.sc" horiz-adv-x="448" 
d="M343 726l70 -151h-54l-52 107l-89 -107h-59l124 151h60zM377 409c-17 34 -51 53 -106 53c-81 0 -123 -45 -123 -102c0 -33 18 -56 74 -74l48 -15c68 -21 113 -57 113 -124c0 -91 -73 -155 -199 -155c-119 0 -152 55 -164 97l51 30c10 -39 30 -75 115 -75
c90 0 133 40 133 101c0 37 -23 58 -81 77l-46 16c-69 23 -107 56 -107 119c0 85 67 158 188 158c90 0 135 -34 153 -74z" />
    <glyph glyph-name="scaron.sc" horiz-adv-x="448" 
d="M256 575l-71 151h55l52 -107l89 107h59l-124 -151h-60zM377 409c-17 34 -51 53 -106 53c-81 0 -123 -45 -123 -102c0 -33 18 -56 74 -74l48 -15c68 -21 113 -57 113 -124c0 -91 -73 -155 -199 -155c-119 0 -152 55 -164 97l51 30c10 -39 30 -75 115 -75
c90 0 133 40 133 101c0 37 -23 58 -81 77l-46 16c-69 23 -107 56 -107 119c0 85 67 158 188 158c90 0 135 -34 153 -74z" />
    <glyph glyph-name="scedilla.sc" horiz-adv-x="448" 
d="M270 271c68 -21 113 -57 113 -124c0 -84 -63 -145 -172 -154l-29 -53c41 0 72 -19 72 -65c0 -51 -37 -91 -105 -91c-30 0 -58 11 -77 22l9 46c17 -15 42 -25 69 -25c33 0 50 19 50 42c0 25 -20 32 -50 32h-30l-2 5l45 87c-102 6 -132 57 -143 96l51 30
c10 -39 30 -75 115 -75c90 0 133 40 133 101c0 37 -23 58 -81 77l-46 16c-69 23 -107 56 -107 119c0 85 67 158 188 158c90 0 135 -34 153 -74l-49 -32c-17 34 -51 53 -106 53c-81 0 -123 -45 -123 -102c0 -33 18 -56 74 -74z" />
    <glyph glyph-name="uni0219.sc" horiz-adv-x="448" 
d="M377 409c-17 34 -51 53 -106 53c-81 0 -123 -45 -123 -102c0 -33 18 -56 74 -74l48 -15c68 -21 113 -57 113 -124c0 -91 -73 -155 -199 -155c-119 0 -152 55 -164 97l51 30c10 -39 30 -75 115 -75c90 0 133 40 133 101c0 37 -23 58 -81 77l-46 16
c-69 23 -107 56 -107 119c0 85 67 158 188 158c90 0 135 -34 153 -74zM139 -216h-47l49 145h70z" />
    <glyph glyph-name="tcaron.sc" horiz-adv-x="430" 
d="M246 575l-71 151h55l52 -107l89 107h59l-124 -151h-60zM445 507l-9 -50h-151l-81 -457h-59l80 457h-152l8 50h364z" />
    <glyph glyph-name="uni021B.sc" horiz-adv-x="430" 
d="M445 507l-9 -50h-151l-81 -457h-59l80 457h-152l8 50h364zM124 -216h-47l49 145h69z" />
    <glyph glyph-name="tbar.sc" horiz-adv-x="430" 
d="M193 272l32 185h-152l8 50h364l-9 -50h-151l-33 -185h84l-8 -46h-84l-40 -226h-59l39 226h-85l8 46h86z" />
    <glyph glyph-name="thorn.sc" horiz-adv-x="462" 
d="M119 101l-17 -101h-60l90 507h59l-18 -101h100c98 0 153 -41 153 -128c0 -103 -64 -177 -201 -177h-106zM128 151h101c98 0 135 55 135 125c0 49 -29 80 -100 80h-100z" />
    <glyph glyph-name="ugrave.sc" horiz-adv-x="534" 
d="M310 726l47 -151h-52l-55 151h60zM230 -8c-114 0 -184 54 -160 196l57 319h60l-58 -321c-18 -102 22 -142 106 -142c83 0 138 41 156 142l56 321h60l-57 -319c-25 -142 -103 -196 -220 -196z" />
    <glyph glyph-name="uacute.sc" horiz-adv-x="534" 
d="M452 726l-109 -151h-57l100 151h66zM230 -8c-114 0 -184 54 -160 196l57 319h60l-58 -321c-18 -102 22 -142 106 -142c83 0 138 41 156 142l56 321h60l-57 -319c-25 -142 -103 -196 -220 -196z" />
    <glyph glyph-name="ucircumflex.sc" horiz-adv-x="534" 
d="M384 726l71 -151h-55l-51 107l-90 -107h-59l124 151h60zM230 -8c-114 0 -184 54 -160 196l57 319h60l-58 -321c-18 -102 22 -142 106 -142c83 0 138 41 156 142l56 321h60l-57 -319c-25 -142 -103 -196 -220 -196z" />
    <glyph glyph-name="utilde.sc" horiz-adv-x="534" 
d="M455 607c-13 15 -32 26 -52 26c-41 0 -81 -38 -137 -38c-27 0 -50 14 -57 26l15 47c11 -14 27 -24 51 -24c45 0 78 37 137 37c31 0 49 -15 59 -25zM230 -8c-114 0 -184 54 -160 196l57 319h60l-58 -321c-18 -102 22 -142 106 -142c83 0 138 41 156 142l56 321h60
l-57 -319c-25 -142 -103 -196 -220 -196z" />
    <glyph glyph-name="udieresis.sc" horiz-adv-x="534" 
d="M251 600c-23 0 -40 13 -40 38c0 39 23 55 53 55c20 0 39 -13 39 -39c0 -38 -26 -54 -52 -54zM418 600c-22 0 -39 13 -39 38c0 39 23 55 53 55c20 0 39 -13 39 -39c0 -38 -26 -54 -53 -54zM230 -8c-114 0 -184 54 -160 196l57 319h60l-58 -321c-18 -102 22 -142 106 -142
c83 0 138 41 156 142l56 321h60l-57 -319c-25 -142 -103 -196 -220 -196z" />
    <glyph glyph-name="umacron.sc" horiz-adv-x="534" 
d="M473 663l-9 -52h-259l10 52h258zM230 -8c-114 0 -184 54 -160 196l57 319h60l-58 -321c-18 -102 22 -142 106 -142c83 0 138 41 156 142l56 321h60l-57 -319c-25 -142 -103 -196 -220 -196z" />
    <glyph glyph-name="ubreve.sc" horiz-adv-x="534" 
d="M475 701c-14 -76 -67 -131 -146 -131c-75 0 -115 55 -102 131h44c-7 -48 15 -84 64 -84c51 0 84 36 94 84h46zM230 -8c-114 0 -184 54 -160 196l57 319h60l-58 -321c-18 -102 22 -142 106 -142c83 0 138 41 156 142l56 321h60l-57 -319c-25 -142 -103 -196 -220 -196z
" />
    <glyph glyph-name="uring.sc" horiz-adv-x="534" 
d="M244 637c0 62 45 106 111 106c53 0 85 -35 85 -78c0 -61 -45 -106 -113 -106c-52 0 -83 35 -83 78zM287 641c0 -26 16 -43 45 -43c39 0 64 26 64 63c0 26 -16 44 -45 44c-38 0 -64 -27 -64 -64zM230 -8c-114 0 -184 54 -160 196l57 319h60l-58 -321
c-18 -102 22 -142 106 -142c83 0 138 41 156 142l56 321h60l-57 -319c-25 -142 -103 -196 -220 -196z" />
    <glyph glyph-name="uhungarumlaut.sc" horiz-adv-x="538" 
d="M395 726l-109 -151h-56l100 151h65zM531 726l-110 -151h-55l100 151h65zM230 -8c-114 0 -184 54 -160 196l57 319h60l-58 -321c-18 -102 22 -142 106 -142c83 0 138 41 156 142l56 321h60l-57 -319c-25 -142 -103 -196 -220 -196z" />
    <glyph glyph-name="uogonek.sc" horiz-adv-x="534" 
d="M447 507h60l-57 -319c-20 -116 -76 -173 -159 -190l-73 -54c-30 -24 -43 -42 -43 -67c0 -18 11 -37 40 -37c20 0 41 11 62 25l-9 -55c-17 -9 -39 -20 -71 -20c-54 0 -84 34 -84 75c0 45 27 75 65 103l33 25c-103 5 -164 61 -141 195l57 319h60l-58 -321
c-18 -102 22 -142 106 -142c83 0 138 41 156 142z" />
    <glyph glyph-name="wacute.sc" horiz-adv-x="771" 
d="M568 726l-109 -151h-57l100 151h66zM467 507l53 -438l203 438h66l-240 -507h-75l-53 426l-204 -426h-73l-64 507h61l50 -438l207 438h69z" />
    <glyph glyph-name="wcircumflex.sc" horiz-adv-x="771" 
d="M501 726l70 -151h-54l-52 107l-89 -107h-59l124 151h60zM467 507l53 -438l203 438h66l-240 -507h-75l-53 426l-204 -426h-73l-64 507h61l50 -438l207 438h69z" />
    <glyph glyph-name="wdieresis.sc" horiz-adv-x="771" 
d="M366 600c-23 0 -40 13 -40 38c0 39 23 55 53 55c21 0 39 -13 39 -39c0 -38 -26 -54 -52 -54zM533 600c-22 0 -39 13 -39 38c0 39 23 55 53 55c20 0 39 -13 39 -39c0 -38 -26 -54 -53 -54zM467 507l53 -438l203 438h66l-240 -507h-75l-53 426l-204 -426h-73l-64 507h61
l50 -438l207 438h69z" />
    <glyph glyph-name="wgrave.sc" horiz-adv-x="771" 
d="M422 726l46 -151h-52l-55 151h61zM467 507l53 -438l203 438h66l-240 -507h-75l-53 426l-204 -426h-73l-64 507h61l50 -438l207 438h69z" />
    <glyph glyph-name="yacute.sc" horiz-adv-x="463" 
d="M414 726l-109 -151h-57l100 151h66zM161 0l37 203l-125 304h64l98 -248l182 248h73l-233 -304l-36 -203h-60z" />
    <glyph glyph-name="ycircumflex.sc" horiz-adv-x="463" 
d="M346 726l71 -151h-55l-51 107l-90 -107h-59l124 151h60zM161 0l37 203l-125 304h64l98 -248l182 248h73l-233 -304l-36 -203h-60z" />
    <glyph glyph-name="ydieresis.sc" horiz-adv-x="463" 
d="M212 600c-23 0 -40 13 -40 38c0 39 23 55 53 55c21 0 39 -13 39 -39c0 -38 -26 -54 -52 -54zM380 600c-23 0 -40 13 -40 38c0 39 23 55 53 55c20 0 39 -13 39 -39c0 -38 -26 -54 -52 -54zM161 0l37 203l-125 304h64l98 -248l182 248h73l-233 -304l-36 -203h-60z" />
    <glyph glyph-name="ygrave.sc" horiz-adv-x="463" 
d="M274 726l47 -151h-52l-55 151h60zM161 0l37 203l-125 304h64l98 -248l182 248h73l-233 -304l-36 -203h-60z" />
    <glyph glyph-name="zacute.sc" horiz-adv-x="421" 
d="M399 726l-109 -151h-57l100 151h66zM414 462l-331 -412h263l-9 -50h-336l7 45l331 412h-243l9 50h317z" />
    <glyph glyph-name="zcaron.sc" horiz-adv-x="421" 
d="M242 575l-71 151h55l51 -107l90 107h59l-124 -151h-60zM414 462l-331 -412h263l-9 -50h-336l7 45l331 412h-243l9 50h317z" />
    <glyph glyph-name="zdotaccent.sc" horiz-adv-x="421" 
d="M277 600c-22 0 -39 13 -39 38c0 39 23 55 53 55c20 0 39 -13 39 -39c0 -38 -26 -54 -53 -54zM414 462l-331 -412h263l-9 -50h-336l7 45l331 412h-243l9 50h317z" />
    <glyph glyph-name="ij.sc" horiz-adv-x="627" 
d="M132 507h59l-89 -507h-60zM274 96c15 -35 41 -52 82 -52c64 0 111 36 127 134l58 329h58l-59 -333c-23 -132 -88 -182 -186 -182c-69 0 -113 30 -129 75z" />
    <glyph glyph-name="germandbls.sc" horiz-adv-x="532" 
d="M484 461l-8 -45l-158 -131l59 -25c55 -24 87 -65 87 -128c0 -87 -67 -138 -169 -138c-89 0 -132 40 -149 71l42 35c15 -28 46 -56 108 -56c66 0 106 33 106 84c0 42 -16 69 -58 87l-96 43l6 40l163 135c-28 18 -65 29 -112 29c-88 0 -133 -47 -149 -140l-58 -322h-60
l60 330c24 130 100 185 210 185c74 0 135 -21 176 -54z" />
    <glyph glyph-name="fi.sc" horiz-adv-x="659" 
d="M132 507h303l-8 -50h-244l-32 -186h208l-8 -51h-210l-38 -220h-61zM568 507h59l-89 -507h-60z" />
    <glyph glyph-name="fl.sc" horiz-adv-x="825" 
d="M132 507h303l-8 -50h-244l-32 -186h208l-8 -51h-210l-38 -220h-61zM772 50l-8 -50h-286l90 507h60l-81 -457h225z" />
    <glyph glyph-name="eng.sc" horiz-adv-x="557" 
d="M465 507h59l-93 -525c-13 -72 -40 -128 -116 -156l-26 47c53 20 71 48 85 123l-200 419l-72 -415h-61l90 507h63l198 -415z" />
    <glyph glyph-name="grave.sc" horiz-adv-x="570" 
d="M415 726l47 -151h-52l-55 151h60z" />
    <glyph glyph-name="acute.sc" horiz-adv-x="570" 
d="M492 726l-109 -151h-57l100 151h66z" />
    <glyph glyph-name="circumflex.sc" horiz-adv-x="570" 
d="M452 726l70 -151h-54l-52 107l-89 -107h-59l124 151h60z" />
    <glyph glyph-name="caron.sc" horiz-adv-x="570" 
d="M365 575l-71 151h55l52 -107l89 107h59l-124 -151h-60z" />
    <glyph glyph-name="caronalt.sc" horiz-adv-x="570" 
d="M358 358h-47l50 149h68z" />
    <glyph glyph-name="tilde.sc" horiz-adv-x="570" 
d="M521 607c-13 15 -32 26 -52 26c-41 0 -81 -38 -136 -38c-27 0 -50 14 -58 26l15 47c11 -14 27 -24 52 -24c44 0 78 37 136 37c31 0 49 -15 60 -25z" />
    <glyph glyph-name="dieresis.sc" horiz-adv-x="570" 
d="M318 600c-23 0 -40 13 -40 38c0 39 23 55 53 55c20 0 39 -13 39 -39c0 -38 -26 -54 -52 -54zM485 600c-22 0 -39 13 -39 38c0 39 23 55 53 55c20 0 39 -13 39 -39c0 -38 -26 -54 -53 -54z" />
    <glyph glyph-name="macron.sc" horiz-adv-x="570" 
d="M540 663l-10 -52h-258l10 52h258z" />
    <glyph glyph-name="breve.sc" horiz-adv-x="570" 
d="M541 701c-14 -76 -67 -131 -146 -131c-75 0 -115 55 -101 131h44c-7 -48 14 -84 63 -84c51 0 85 36 95 84h45z" />
    <glyph glyph-name="ring.sc" horiz-adv-x="570" 
d="M310 637c0 62 45 106 112 106c52 0 84 -35 84 -78c0 -61 -45 -106 -113 -106c-51 0 -83 35 -83 78zM354 641c0 -26 15 -43 44 -43c39 0 65 26 65 63c0 26 -17 44 -46 44c-37 0 -63 -27 -63 -64z" />
    <glyph glyph-name="hungarumlaut.sc" horiz-adv-x="570" 
d="M423 726l-108 -151h-57l101 151h64zM559 726l-110 -151h-55l100 151h65z" />
    <glyph glyph-name="dotaccent.sc" horiz-adv-x="570" 
d="M401 600c-22 0 -39 13 -39 38c0 39 23 55 53 55c20 0 39 -13 39 -39c0 -38 -26 -54 -53 -54z" />
    <glyph glyph-name="exclamdown.sc" horiz-adv-x="215" 
d="M155 512c23 0 39 -17 39 -37c0 -27 -22 -47 -51 -47c-22 0 -39 17 -39 37c0 27 22 47 51 47zM152 350l-51 -350h-68l73 350h46z" />
    <glyph glyph-name="questiondown.sc" horiz-adv-x="369" 
d="M244 512c23 0 38 -16 38 -37c0 -27 -23 -47 -52 -47c-22 0 -38 16 -38 37c0 26 23 47 52 47zM151 -8c-84 0 -128 49 -128 108c0 122 144 139 163 250h58c-22 -125 -162 -151 -162 -240c0 -33 24 -65 75 -65c49 0 89 27 96 70l55 -5c-12 -65 -64 -118 -157 -118z" />
    <glyph glyph-name="Euro.sc" horiz-adv-x="475" 
d="M326 462c-81 0 -132 -60 -159 -139h204l-23 -41h-192c-5 -20 -8 -41 -10 -62h171l-22 -41h-151v-8c0 -81 36 -127 112 -127c37 0 81 12 126 38l6 -54c-44 -22 -88 -36 -136 -36c-117 0 -168 60 -168 181v6h-44l8 41h38c2 21 5 42 9 62h-37l8 41h39
c35 112 111 192 225 192c54 0 98 -13 134 -33l-29 -47c-28 16 -63 27 -109 27z" />
    <glyph glyph-name="cent.sc" horiz-adv-x="395" 
d="M181 41c36 0 70 17 95 50l34 -31c-31 -42 -78 -68 -135 -68c-11 0 -21 1 -30 2l-20 -47l-33 10l19 45c-52 21 -69 69 -69 130c0 108 58 218 184 218c10 0 20 -1 29 -2l24 58l34 -10l-24 -57c29 -11 50 -31 60 -58l-44 -27c-8 17 -20 30 -36 38l-104 -250
c5 -1 10 -1 16 -1zM97 136c0 -40 9 -69 35 -84l103 249h-9c-86 0 -129 -77 -129 -165z" />
    <glyph glyph-name="sterling.sc" horiz-adv-x="460" 
d="M101 245l17 90c18 102 73 180 186 180c73 0 121 -25 149 -70l-42 -36c-26 41 -62 53 -109 53c-76 0 -116 -57 -127 -130l-15 -87h150l-7 -41h-151l-28 -156h231l-8 -48h-289l36 204h-52l8 41h51z" />
    <glyph glyph-name="florin.sc" horiz-adv-x="306" 
d="M117 -54c-12 -67 -49 -116 -120 -116c-21 0 -41 4 -50 7l9 50c12 -4 25 -6 37 -6c45 0 63 32 70 74l59 338h-76l9 48h76l12 68c13 72 52 115 119 116c18 0 41 -4 50 -6l-10 -50c-11 3 -25 5 -38 5c-40 0 -59 -25 -67 -72l-11 -61h82l-8 -48h-82z" />
    <glyph glyph-name="yen.sc" horiz-adv-x="475" 
d="M194 221l-24 61h-90l6 41h68l-72 184h62l90 -243l179 243h72l-141 -184h69l-7 -41h-92l-47 -61h128l-7 -41h-136l-33 -180h-56l31 180h-132l6 41h126z" />
    <glyph glyph-name="uni20A8.sc" horiz-adv-x="435" 
d="M434 507l-8 -45h-96c18 -18 28 -41 25 -80h57l-8 -41h-55c-17 -67 -70 -111 -143 -121l102 -220h-69l-98 214h-85l9 49h80c84 0 125 27 140 78h-207l8 41h206c2 47 -19 75 -93 75h-100l9 50h326z" />
    <glyph glyph-name="perthousand.sc" horiz-adv-x="882" 
d="M200 511c63 0 94 -34 94 -101c0 -93 -43 -169 -132 -169c-66 0 -94 38 -94 101c0 102 48 169 132 169zM149 0h-53l401 507h55zM163 278c56 0 84 55 84 133c0 41 -15 63 -49 63c-54 0 -83 -50 -83 -132c0 -41 15 -64 48 -64zM487 266c63 0 94 -34 94 -102
c0 -92 -43 -168 -132 -168c-66 0 -94 38 -94 101c0 102 48 169 132 169zM732 266c63 0 93 -34 93 -102c0 -92 -42 -168 -131 -168c-66 0 -94 38 -94 101c0 102 48 169 132 169zM450 32c56 0 84 56 84 134c0 41 -16 62 -49 62c-54 0 -83 -49 -83 -132c0 -41 14 -64 48 -64z
M695 32c56 0 83 56 83 134c0 41 -15 62 -49 62c-54 0 -82 -49 -82 -132c0 -41 14 -64 48 -64z" />
    <glyph glyph-name="zero.tf" 
d="M351 686c119 0 180 -98 180 -241c0 -250 -86 -455 -293 -455c-119 0 -179 97 -179 241c0 250 86 455 292 455zM243 45c156 0 225 178 225 400c0 111 -37 186 -122 186c-156 0 -225 -178 -225 -400c0 -111 38 -186 122 -186z" />
    <glyph glyph-name="one.tf" 
d="M80 55h167l98 550l-179 -73l-11 60l208 84h57l-110 -621h150l-10 -55h-380z" />
    <glyph glyph-name="two.tf" 
d="M350 686c103 0 167 -68 167 -162c0 -110 -70 -180 -168 -275l-204 -195h306l-9 -54h-393l8 49l251 238c92 88 145 149 145 235c0 63 -37 109 -106 109c-82 0 -134 -58 -148 -140h-61c18 114 92 195 212 195z" />
    <glyph glyph-name="three.tf" 
d="M374 346c51 -13 105 -57 105 -143c0 -123 -94 -213 -239 -213c-141 0 -195 79 -180 170h59c-12 -65 33 -115 124 -115c107 0 173 67 173 159c0 71 -55 118 -139 118h-57l9 54h58c96 0 175 53 175 150c0 60 -40 105 -115 105c-89 0 -142 -55 -153 -117h-63
c15 88 84 172 218 172c109 0 177 -66 177 -158c0 -107 -80 -166 -152 -182z" />
    <glyph glyph-name="four.tf" 
d="M505 154h-99l-27 -154h-61l26 154h-314l8 50l397 472h63l-83 -468h100zM354 208l66 369l-307 -369h241z" />
    <glyph glyph-name="five.tf" 
d="M484 254c0 -140 -88 -264 -245 -264c-145 0 -192 89 -175 188h58c-12 -72 21 -133 119 -133c118 0 179 99 179 206c0 72 -40 120 -116 120c-50 0 -92 -19 -130 -45l-55 4l99 346h323l-9 -54h-272l-68 -234c23 16 70 39 120 39c102 0 172 -62 172 -173z" />
    <glyph glyph-name="six.tf" 
d="M477 514c11 72 -31 117 -111 117c-109 0 -191 -116 -216 -291c26 36 98 86 174 86c112 0 179 -65 179 -175c0 -147 -89 -261 -247 -261c-125 0 -179 95 -179 229c0 245 101 467 291 467c128 0 184 -76 167 -172h-58zM144 268c-3 -16 -5 -38 -5 -52
c-1 -100 33 -171 119 -171c116 0 182 92 182 203c0 75 -42 124 -124 124c-70 0 -138 -50 -172 -104z" />
    <glyph glyph-name="seven.tf" 
d="M472 622h-313l10 54h384l-8 -49l-348 -627h-72z" />
    <glyph glyph-name="eight.tf" 
d="M246 -10c-114 0 -192 57 -192 166c0 120 88 183 163 197c-51 15 -93 55 -93 129c0 121 95 204 233 204c108 0 180 -56 180 -157c0 -106 -71 -166 -145 -183c49 -12 102 -52 102 -139c0 -137 -104 -217 -248 -217zM354 631c-98 0 -166 -55 -166 -151
c0 -64 49 -103 121 -103c88 0 165 53 165 149c0 67 -46 105 -120 105zM250 45c106 0 181 60 181 164c0 71 -55 113 -133 113c-97 0 -180 -59 -180 -163c0 -73 51 -114 132 -114z" />
    <glyph glyph-name="nine.tf" 
d="M126 162c-11 -72 31 -117 110 -117c110 0 192 116 216 291c-26 -36 -97 -86 -174 -86c-112 0 -179 65 -179 175c0 147 90 261 248 261c125 0 178 -95 178 -229c0 -245 -100 -467 -291 -467c-128 0 -184 76 -166 172h58zM458 408c4 16 6 38 6 52c1 100 -33 171 -119 171
c-117 0 -182 -92 -182 -203c0 -75 42 -124 124 -124c69 0 137 50 171 104z" />
    <glyph glyph-name="zero.tosf" 
d="M343 586c124 0 182 -89 182 -217c0 -214 -89 -379 -284 -379c-125 0 -183 89 -183 217c0 214 89 379 285 379zM249 46c147 0 213 135 213 318c0 99 -39 165 -128 165c-147 0 -213 -135 -213 -317c0 -99 39 -166 128 -166z" />
    <glyph glyph-name="one.tosf" 
d="M91 55h160l79 450l-170 -62l-10 56l198 76h56l-92 -520h141l-10 -55h-362z" />
    <glyph glyph-name="two.tosf" 
d="M68 0l8 45l256 206c90 72 113 110 113 174c0 63 -39 106 -106 106c-78 0 -134 -63 -147 -143h-62c18 114 99 198 217 198c103 0 162 -66 162 -156c0 -105 -64 -159 -140 -220l-196 -158h273l-10 -52h-368z" />
    <glyph glyph-name="three.tosf" 
d="M356 246c51 -13 105 -57 105 -143c0 -123 -94 -213 -239 -213c-141 0 -195 79 -180 170h59c-12 -66 33 -115 124 -115c107 0 173 67 173 159c0 71 -55 117 -139 117h-57l9 55h58c96 0 175 53 175 149c0 61 -40 105 -115 105c-89 0 -142 -54 -153 -117h-63
c15 89 84 173 218 173c109 0 177 -66 177 -158c0 -108 -80 -166 -152 -182z" />
    <glyph glyph-name="four.tosf" 
d="M488 54h-100l-27 -154h-61l27 154h-314l8 50l397 472h62l-82 -468h100zM337 108l65 369l-306 -369h241z" />
    <glyph glyph-name="five.tosf" 
d="M465 153c0 -140 -87 -265 -245 -265c-145 0 -192 89 -175 188h58c-12 -72 22 -133 119 -133c118 0 179 99 179 207c0 71 -40 120 -116 120c-50 0 -92 -20 -130 -46l-55 4l100 346h323l-10 -54h-272l-68 -233c23 15 71 38 121 38c102 0 171 -61 171 -172z" />
    <glyph glyph-name="six.tosf" 
d="M477 514c11 72 -31 117 -111 117c-109 0 -191 -116 -216 -291c26 36 98 86 174 86c112 0 179 -65 179 -175c0 -147 -89 -261 -247 -261c-125 0 -179 95 -179 229c0 245 101 467 291 467c128 0 184 -76 167 -172h-58zM144 268c-3 -16 -5 -38 -5 -52
c-1 -100 33 -171 119 -171c116 0 182 92 182 203c0 75 -42 124 -124 124c-70 0 -138 -50 -172 -104z" />
    <glyph glyph-name="seven.tosf" 
d="M457 522h-313l10 54h384l-8 -49l-348 -627h-73z" />
    <glyph glyph-name="eight.tosf" 
d="M246 -10c-114 0 -192 57 -192 166c0 120 88 183 163 197c-51 15 -93 55 -93 129c0 121 95 204 233 204c108 0 180 -56 180 -157c0 -106 -71 -166 -145 -183c49 -12 102 -52 102 -139c0 -137 -104 -217 -248 -217zM354 631c-98 0 -166 -55 -166 -151
c0 -64 49 -103 121 -103c88 0 165 53 165 149c0 67 -46 105 -120 105zM250 45c106 0 181 60 181 164c0 71 -55 113 -133 113c-97 0 -180 -59 -180 -163c0 -73 51 -114 132 -114z" />
    <glyph glyph-name="nine.tosf" 
d="M109 62c-11 -72 30 -117 110 -117c110 0 192 116 216 291c-26 -36 -97 -86 -174 -86c-112 0 -179 64 -179 175c0 146 89 261 247 261c126 0 179 -95 179 -229c0 -246 -101 -467 -291 -467c-128 0 -184 76 -167 172h59zM441 308c4 16 5 38 6 52c0 99 -34 171 -120 171
c-116 0 -181 -92 -181 -204c0 -74 42 -123 124 -123c69 0 137 50 171 104z" />
    <glyph glyph-name="Euro.tf" 
d="M412 629c-100 0 -174 -84 -212 -202h258l-29 -48h-243c-6 -28 -11 -58 -13 -89h209l-27 -48h-185v-12c0 -120 40 -184 142 -184c45 0 99 16 156 51l11 -58c-56 -32 -112 -50 -172 -50c-135 0 -200 71 -200 241v12h-53l9 48h46c3 31 7 61 13 89h-44l9 48h46
c45 155 145 259 282 259c67 0 124 -19 164 -44l-31 -52c-36 23 -77 39 -136 39z" />
    <glyph glyph-name="cent.tf" 
d="M273 43c48 0 91 20 122 65l43 -31c-40 -57 -99 -87 -171 -87c-15 0 -29 1 -42 4l-26 -63l-42 12l27 66c-54 28 -81 86 -81 162c0 154 70 295 231 295c12 0 23 -1 34 -2l31 77l43 -12l-31 -77c33 -14 58 -39 71 -74l-46 -30c-10 26 -25 43 -46 53l-144 -355
c8 -2 17 -3 27 -3zM164 173c0 -46 13 -85 42 -109l141 348h-13c-126 0 -170 -124 -170 -239z" />
    <glyph glyph-name="sterling.tf" 
d="M139 323l22 124c23 135 94 239 230 239c96 0 149 -33 184 -90l-48 -38c-33 56 -76 71 -138 71c-95 0 -149 -74 -168 -186l-21 -120h192l-9 -48h-192l-39 -222h292l-10 -53h-351l47 275h-65l9 48h65z" />
    <glyph glyph-name="florin.tf" 
d="M259 -71c-16 -87 -54 -155 -146 -155c-22 0 -49 4 -59 7l10 56c14 -5 29 -7 45 -7c58 0 81 41 92 106l82 466h-96l9 53h97l15 90c15 86 53 155 146 155c21 0 47 -4 58 -7l-10 -56c-15 4 -29 7 -46 7c-57 0 -79 -40 -90 -105l-15 -84h104l-10 -53h-103z" />
    <glyph glyph-name="yen.tf" 
d="M248 291l-31 89h-106l7 48h81l-90 248h66l118 -342l237 342h74l-177 -248h81l-8 -48h-108l-64 -89h156l-8 -48h-166l-43 -243h-61l42 243h-162l9 48h153z" />
    <glyph glyph-name="uni20A8.tf" 
d="M561 676l-8 -48h-127c31 -24 42 -68 39 -119h67l-9 -48h-65c-22 -92 -95 -155 -196 -164l130 -297h-72l-124 292h-94l9 53h101c104 0 158 44 180 116h-260l8 48h261c2 69 -27 114 -125 114h-116l9 53h392z" />
    <glyph glyph-name="dollar.tf" 
d="M493 554c-18 45 -60 71 -120 75l-47 -266l34 -12c66 -23 126 -59 126 -148c0 -112 -80 -206 -226 -213l-16 -93h-47l17 94c-124 9 -157 78 -171 129l53 30c11 -49 36 -97 127 -103l48 272l-24 8c-67 24 -119 63 -119 145c0 101 74 203 208 213l13 74h47l-13 -74
c87 -7 144 -50 161 -98zM280 379l2 -1l44 250c-88 -12 -134 -77 -134 -153c0 -50 33 -76 88 -96zM329 299l-13 5l-46 -257c101 9 152 72 152 152c0 55 -41 82 -93 100z" />
    <glyph glyph-name="zero.osf" horiz-adv-x="581" 
d="M353 586c125 0 183 -89 183 -218c0 -213 -90 -378 -286 -378c-125 0 -183 89 -183 217c0 214 89 379 286 379zM259 46c148 0 214 135 214 318c0 99 -39 165 -129 165c-148 0 -215 -134 -215 -317c0 -99 40 -166 130 -166z" />
    <glyph glyph-name="one.osf" horiz-adv-x="352" 
d="M164 0l90 507l-173 -69l-9 56l198 81h55l-101 -575h-60z" />
    <glyph glyph-name="two.osf" horiz-adv-x="492" 
d="M25 0l9 45l255 206c90 72 113 110 113 174c0 63 -39 106 -106 106c-77 0 -134 -63 -147 -143h-61c17 114 98 198 216 198c103 0 162 -66 162 -156c0 -105 -64 -159 -140 -220l-195 -158h272l-10 -52h-368z" />
    <glyph glyph-name="three.osf" horiz-adv-x="521" 
d="M340 246c51 -13 106 -57 106 -143c0 -123 -95 -213 -239 -213c-142 0 -196 79 -180 170h59c-12 -65 33 -115 123 -115c107 0 173 67 173 159c0 71 -55 118 -139 118h-57l10 54h57c97 0 175 53 175 150c0 60 -40 105 -115 105c-89 0 -142 -55 -153 -117h-62
c14 88 84 172 218 172c109 0 176 -66 176 -158c0 -107 -80 -166 -152 -182z" />
    <glyph glyph-name="four.osf" horiz-adv-x="551" 
d="M487 54h-100l-27 -154h-61l27 154h-315l9 50l396 472h63l-82 -468h99zM336 108l65 369l-307 -369h242z" />
    <glyph glyph-name="five.osf" horiz-adv-x="508" 
d="M443 154c0 -140 -88 -264 -245 -264c-145 0 -193 89 -175 188h58c-12 -72 21 -133 119 -133c118 0 179 99 179 206c0 72 -40 120 -117 120c-49 0 -91 -19 -129 -45l-56 4l100 346h323l-10 -54h-271l-68 -234c23 16 70 39 120 39c102 0 172 -62 172 -173z" />
    <glyph glyph-name="six.osf" horiz-adv-x="543" 
d="M471 514c11 72 -30 117 -110 117c-109 0 -192 -116 -216 -291c26 36 97 86 174 86c112 0 179 -65 179 -175c0 -147 -89 -261 -247 -261c-125 0 -179 95 -179 229c0 245 101 467 291 467c128 0 184 -76 167 -172h-59zM139 268c-3 -16 -5 -38 -5 -52
c-1 -100 33 -171 119 -171c116 0 182 92 182 203c0 75 -42 124 -125 124c-69 0 -137 -50 -171 -104z" />
    <glyph glyph-name="seven.osf" horiz-adv-x="459" 
d="M410 522h-313l9 54h385l-9 -49l-347 -627h-73z" />
    <glyph glyph-name="eight.osf" horiz-adv-x="548" 
d="M244 -10c-115 0 -192 57 -192 166c0 120 87 183 163 197c-51 15 -93 55 -93 129c0 121 94 204 233 204c107 0 180 -56 180 -157c0 -106 -71 -166 -146 -183c49 -12 102 -52 102 -139c0 -137 -104 -217 -247 -217zM351 631c-97 0 -166 -55 -166 -151
c0 -64 50 -103 121 -103c89 0 165 53 165 149c0 67 -45 105 -120 105zM247 45c107 0 182 60 182 164c0 71 -55 113 -133 113c-97 0 -180 -59 -180 -163c0 -73 50 -114 131 -114z" />
    <glyph glyph-name="nine.osf" horiz-adv-x="543" 
d="M104 62c-11 -72 30 -117 110 -117c110 0 192 116 216 291c-26 -36 -97 -86 -174 -86c-112 0 -179 64 -179 175c0 146 89 261 247 261c126 0 179 -95 179 -229c0 -246 -101 -467 -291 -467c-128 0 -184 76 -167 172h59zM436 308c4 16 5 38 6 52c0 99 -34 171 -120 171
c-116 0 -181 -92 -181 -204c0 -74 42 -123 124 -123c69 0 137 50 171 104z" />
    <glyph glyph-name="uni2070" unicode="&#x2070;" horiz-adv-x="339" 
d="M271 791c73 0 111 -43 111 -127c0 -117 -47 -226 -162 -226c-83 0 -111 54 -111 128c0 124 53 225 162 225zM221 479c82 0 111 85 111 185c0 53 -19 87 -62 87c-75 0 -111 -80 -111 -185c0 -54 18 -87 62 -87z" />
    <glyph glyph-name="uni2074" unicode="&#x2074;" horiz-adv-x="315" 
d="M349 516h-50l-12 -73h-48l13 73h-172l7 37l210 233h51l-41 -230h50zM259 556l28 158l-142 -158h114z" />
    <glyph glyph-name="uni2075" unicode="&#x2075;" horiz-adv-x="296" 
d="M331 570c0 -74 -56 -133 -137 -133c-89 0 -113 45 -104 98h48c-6 -31 10 -56 58 -56c50 0 85 32 85 89c0 33 -21 53 -59 53c-24 0 -47 -8 -65 -20l-39 5l55 180h185l-8 -40h-144l-30 -95c11 5 36 12 63 12c48 0 92 -23 92 -93z" />
    <glyph glyph-name="uni2076" unicode="&#x2076;" horiz-adv-x="319" 
d="M271 750c-59 0 -97 -55 -109 -123c15 13 46 34 89 34c52 0 102 -21 102 -95c0 -71 -58 -130 -138 -130c-79 0 -107 55 -107 125c0 130 61 229 164 229c77 0 105 -40 97 -91h-47c5 31 -14 51 -51 51zM157 577c-6 -51 6 -99 59 -99c56 0 88 40 88 87c0 32 -21 56 -59 56
c-37 0 -74 -25 -88 -44z" />
    <glyph glyph-name="uni2077" unicode="&#x2077;" horiz-adv-x="259" 
d="M284 746h-166l7 40h221l-6 -35l-186 -308h-54z" />
    <glyph glyph-name="uni2078" unicode="&#x2078;" horiz-adv-x="322" 
d="M213 437c-74 0 -115 29 -115 89c0 50 38 86 80 97c-27 9 -46 26 -46 62c0 67 60 106 130 106c69 0 109 -28 109 -83c0 -46 -30 -78 -72 -90c28 -9 51 -28 51 -70c0 -69 -62 -111 -137 -111zM261 751c-48 0 -78 -25 -78 -67c0 -27 23 -44 58 -44c43 0 80 22 80 66
c0 28 -23 45 -60 45zM234 600c-57 0 -86 -33 -86 -72c0 -33 28 -49 66 -49c48 0 86 24 86 69c0 32 -25 52 -66 52z" />
    <glyph glyph-name="uni2079" unicode="&#x2079;" horiz-adv-x="320" 
d="M201 477c59 0 97 55 109 124c-15 -14 -47 -34 -89 -34c-52 0 -103 21 -103 94c0 71 58 129 139 129c79 0 107 -54 107 -124c0 -129 -62 -230 -164 -230c-77 0 -105 41 -97 91h47c-6 -31 13 -50 51 -50zM315 651c5 50 -6 98 -59 98c-57 0 -88 -40 -88 -87
c0 -33 20 -56 59 -56c37 0 73 25 88 45z" />
    <glyph glyph-name="uni2080" unicode="&#x2080;" horiz-adv-x="339" 
d="M175 248c73 0 111 -43 111 -128c0 -117 -47 -225 -162 -225c-83 0 -111 54 -111 128c0 124 53 225 162 225zM125 -64c82 0 111 85 111 184c0 54 -18 88 -62 88c-75 0 -111 -80 -111 -185c0 -54 18 -87 62 -87z" />
    <glyph glyph-name="uni2081" unicode="&#x2081;" horiz-adv-x="217" 
d="M67 -100l52 290l-102 -37l-7 45l124 45h42l-60 -343h-49z" />
    <glyph glyph-name="uni2082" unicode="&#x2082;" horiz-adv-x="290" 
d="M150 248c57 0 97 -30 97 -90c0 -52 -39 -92 -90 -136l-97 -81h157l-8 -41h-224l7 35l135 118c45 38 71 67 71 105c0 27 -19 50 -50 50c-39 0 -66 -25 -73 -65h-49c10 64 58 105 124 105z" />
    <glyph glyph-name="uni2083" unicode="&#x2083;" horiz-adv-x="306" 
d="M183 74c29 -5 54 -31 54 -72c0 -62 -62 -108 -134 -108c-85 0 -115 39 -106 92h47c-5 -29 15 -50 61 -50c48 0 82 28 82 67c0 32 -25 52 -69 52h-35l7 41h33c50 0 86 24 86 65c0 28 -21 47 -57 47c-41 0 -68 -24 -72 -51h-48c8 55 59 91 122 91c56 0 105 -23 105 -85
c0 -52 -37 -81 -76 -89z" />
    <glyph glyph-name="uni2084" unicode="&#x2084;" horiz-adv-x="316" 
d="M254 -28h-51l-12 -72h-48l13 72h-172l7 37l210 234h51l-41 -230h50zM163 13l28 158l-142 -158h114z" />
    <glyph glyph-name="uni2085" unicode="&#x2085;" horiz-adv-x="297" 
d="M236 26c0 -73 -56 -132 -137 -132c-89 0 -114 45 -104 98h48c-6 -32 10 -56 58 -56c50 0 85 32 85 89c0 33 -21 53 -59 53c-24 0 -47 -9 -65 -20l-39 4l55 181h185l-8 -41h-144l-30 -95c11 6 35 13 63 13c48 0 92 -23 92 -94z" />
    <glyph glyph-name="uni2086" unicode="&#x2086;" horiz-adv-x="319" 
d="M175 208c-59 0 -97 -56 -109 -123c15 12 46 33 89 33c52 0 102 -20 102 -94c0 -71 -58 -130 -138 -130c-79 0 -107 54 -107 125c0 129 62 229 164 229c77 0 105 -40 97 -91h-47c5 31 -13 51 -51 51zM61 34c-6 -50 6 -98 59 -98c57 0 88 40 88 87c0 32 -21 56 -59 56
c-37 0 -73 -25 -88 -45z" />
    <glyph glyph-name="uni2087" unicode="&#x2087;" horiz-adv-x="260" 
d="M189 202h-167l7 41h221l-6 -35l-186 -308h-54z" />
    <glyph glyph-name="uni2088" unicode="&#x2088;" horiz-adv-x="322" 
d="M117 -106c-73 0 -115 29 -115 89c0 50 38 85 80 96c-27 10 -46 27 -46 63c0 66 60 106 131 106c68 0 108 -28 108 -84c0 -45 -30 -77 -72 -89c28 -9 51 -28 51 -70c0 -69 -61 -111 -137 -111zM165 208c-47 0 -78 -25 -78 -67c0 -27 23 -45 58 -45c43 0 80 23 80 67
c0 27 -23 45 -60 45zM139 57c-58 0 -87 -33 -87 -72c0 -33 28 -49 66 -49c48 0 86 24 86 69c0 31 -25 52 -65 52z" />
    <glyph glyph-name="uni2089" unicode="&#x2089;" horiz-adv-x="319" 
d="M105 -65c59 0 97 55 109 123c-15 -13 -46 -33 -89 -33c-52 0 -102 20 -102 93c0 71 58 130 138 130c79 0 107 -54 107 -125c0 -128 -62 -229 -164 -229c-77 0 -105 41 -97 91h47c-5 -31 13 -50 51 -50zM219 109c6 49 -6 98 -59 98c-57 0 -87 -40 -87 -87
c0 -33 20 -56 58 -56c37 0 73 24 88 45z" />
    <glyph glyph-name="zero.denom" horiz-adv-x="337" 
d="M184 348c73 0 111 -43 111 -128c0 -117 -47 -225 -162 -225c-83 0 -111 54 -111 128c0 124 53 225 162 225zM134 36c82 0 111 85 111 184c0 54 -19 88 -62 88c-75 0 -111 -80 -111 -185c0 -54 18 -87 62 -87z" />
    <glyph glyph-name="one.denom" horiz-adv-x="214" 
d="M76 0l52 290l-102 -37l-7 45l124 45h42l-60 -343h-49z" />
    <glyph glyph-name="two.denom" horiz-adv-x="289" 
d="M159 348c57 0 97 -30 97 -90c0 -52 -39 -92 -90 -136l-97 -81h157l-8 -41h-224l7 35l135 118c45 38 71 67 71 105c0 27 -19 50 -50 50c-39 0 -66 -25 -73 -65h-49c10 64 58 105 124 105z" />
    <glyph glyph-name="three.denom" horiz-adv-x="303" 
d="M192 174c29 -5 54 -31 54 -72c0 -62 -62 -108 -134 -108c-85 0 -115 39 -106 92h47c-5 -29 15 -50 61 -50c48 0 82 28 82 67c0 32 -25 52 -69 52h-35l7 41h33c50 0 86 24 86 65c0 28 -21 47 -57 47c-41 0 -68 -24 -72 -51h-48c8 55 59 91 122 91c56 0 105 -23 105 -85
c0 -52 -37 -81 -76 -89z" />
    <glyph glyph-name="four.denom" horiz-adv-x="313" 
d="M262 72h-51l-12 -72h-48l13 72h-172l7 37l210 234h51l-41 -230h50zM171 113l28 158l-142 -158h114z" />
    <glyph glyph-name="five.denom" horiz-adv-x="297" 
d="M245 126c0 -73 -56 -132 -137 -132c-89 0 -114 45 -104 98h48c-6 -32 10 -56 58 -56c50 0 85 32 85 89c0 33 -21 53 -59 53c-24 0 -47 -9 -65 -20l-39 4l55 181h185l-8 -41h-144l-30 -95c11 6 35 13 63 13c48 0 92 -23 92 -94z" />
    <glyph glyph-name="six.denom" horiz-adv-x="317" 
d="M184 308c-59 0 -97 -56 -109 -123c15 12 46 33 89 33c52 0 102 -20 102 -94c0 -71 -58 -130 -138 -130c-79 0 -107 54 -107 125c0 129 62 229 164 229c77 0 105 -40 97 -91h-47c5 31 -13 51 -51 51zM70 134c-6 -50 6 -98 59 -98c57 0 88 40 88 87c0 32 -21 56 -59 56
c-37 0 -73 -25 -88 -45z" />
    <glyph glyph-name="seven.denom" horiz-adv-x="257" 
d="M197 302h-166l7 41h221l-6 -35l-186 -308h-54z" />
    <glyph glyph-name="eight.denom" horiz-adv-x="320" 
d="M126 -6c-73 0 -115 29 -115 89c0 50 38 85 80 96c-27 10 -46 27 -46 63c0 66 60 106 131 106c68 0 108 -28 108 -84c0 -45 -30 -77 -72 -89c28 -9 51 -28 51 -70c0 -69 -61 -111 -137 -111zM174 308c-47 0 -78 -25 -78 -67c0 -27 23 -45 58 -45c43 0 80 23 80 67
c0 27 -23 45 -60 45zM148 157c-58 0 -87 -33 -87 -72c0 -33 28 -49 66 -49c48 0 86 24 86 69c0 31 -25 52 -65 52z" />
    <glyph glyph-name="nine.denom" horiz-adv-x="317" 
d="M114 35c59 0 97 55 109 123c-15 -13 -47 -33 -89 -33c-52 0 -103 20 -103 93c0 71 58 130 139 130c79 0 107 -54 107 -125c0 -128 -62 -229 -164 -229c-77 0 -105 41 -97 91h47c-6 -31 13 -50 51 -50zM228 209c5 49 -6 98 -59 98c-57 0 -87 -40 -87 -87
c0 -33 20 -56 58 -56c37 0 73 24 88 45z" />
    <glyph glyph-name="zero.num" horiz-adv-x="339" 
d="M252 680c72 0 111 -44 111 -128c0 -117 -47 -226 -162 -226c-83 0 -111 54 -111 128c0 125 53 226 162 226zM202 367c82 0 111 86 111 185c0 53 -19 87 -62 87c-75 0 -111 -79 -111 -185c0 -53 18 -87 62 -87z" />
    <glyph glyph-name="one.num" horiz-adv-x="218" 
d="M144 331l51 290l-101 -36l-7 44l123 45h43l-60 -343h-49z" />
    <glyph glyph-name="two.num" horiz-adv-x="290" 
d="M226 680c57 0 97 -30 97 -90c0 -52 -39 -93 -90 -137l-97 -81h157l-8 -41h-224l7 36l135 117c45 38 71 67 71 105c0 28 -19 50 -50 50c-39 0 -66 -24 -73 -64h-48c9 63 57 105 123 105z" />
    <glyph glyph-name="three.num" horiz-adv-x="305" 
d="M259 505c29 -5 54 -30 54 -72c0 -62 -63 -108 -134 -108c-85 0 -115 40 -106 92h47c-5 -29 14 -50 60 -50c49 0 83 29 83 67c0 32 -25 53 -69 53h-35l7 41h33c49 0 86 23 86 65c0 27 -21 46 -57 46c-41 0 -68 -24 -72 -50h-48c8 54 59 91 121 91c56 0 105 -24 105 -85
c0 -52 -36 -82 -75 -90z" />
    <glyph glyph-name="four.num" horiz-adv-x="307" 
d="M322 404h-50l-13 -73h-47l12 73h-171l6 37l211 233h50l-41 -230h51zM232 444l27 158l-141 -158h114z" />
    <glyph glyph-name="five.num" horiz-adv-x="290" 
d="M304 458c0 -74 -55 -133 -136 -133c-89 0 -114 45 -104 98h47c-6 -31 10 -56 58 -56c50 0 86 32 86 89c0 33 -22 53 -59 53c-25 0 -47 -8 -66 -20l-39 5l55 180h185l-7 -40h-145l-29 -95c11 5 35 12 62 12c48 0 92 -23 92 -93z" />
    <glyph glyph-name="six.num" horiz-adv-x="312" 
d="M243 639c-58 0 -96 -55 -108 -123c15 13 46 34 88 34c52 0 103 -21 103 -95c0 -71 -58 -130 -139 -130c-79 0 -106 55 -106 125c0 130 61 230 163 230c78 0 106 -41 97 -91h-47c6 30 -13 50 -51 50zM129 466c-5 -51 7 -99 59 -99c57 0 89 40 89 87c0 33 -21 56 -60 56
c-37 0 -73 -25 -88 -44z" />
    <glyph glyph-name="seven.num" horiz-adv-x="261" 
d="M266 634h-167l8 40h221l-7 -35l-186 -308h-54z" />
    <glyph glyph-name="eight.num" horiz-adv-x="315" 
d="M186 325c-74 0 -116 29 -116 89c0 50 39 86 81 97c-28 9 -46 26 -46 62c0 67 60 107 130 107c69 0 109 -29 109 -84c0 -46 -30 -78 -72 -90c28 -9 51 -28 51 -70c0 -69 -62 -111 -137 -111zM234 639c-48 0 -78 -25 -78 -67c0 -26 23 -44 58 -44c43 0 80 22 80 66
c0 28 -23 45 -60 45zM207 488c-57 0 -86 -33 -86 -72c0 -32 28 -49 66 -49c48 0 86 25 86 70c0 31 -25 51 -66 51z" />
    <glyph glyph-name="nine.num" horiz-adv-x="313" 
d="M175 367c58 0 97 54 109 123c-15 -14 -47 -34 -89 -34c-52 0 -103 21 -103 94c0 71 58 130 139 130c79 0 106 -55 106 -125c0 -129 -61 -230 -163 -230c-78 0 -106 41 -97 92h46c-5 -31 14 -50 52 -50zM289 540c5 50 -7 98 -59 98c-57 0 -88 -40 -88 -86
c0 -33 20 -57 58 -57s74 25 89 45z" />
    <glyph glyph-name="arrowleft" unicode="&#x2190;" horiz-adv-x="750" 
d="M326 535l38 -38l-196 -196h515v-52h-515l195 -195l-37 -38l-258 259z" />
    <glyph glyph-name="arrowup" unicode="&#x2191;" horiz-adv-x="750" 
d="M654 338l-38 -38l-196 195v-514h-53v514l-195 -194l-37 37l258 258z" />
    <glyph glyph-name="arrowright" unicode="&#x2192;" horiz-adv-x="750" 
d="M443 18l-38 38l195 196h-514v53h514l-194 195l37 37l258 -258z" />
    <glyph glyph-name="arrowdown" unicode="&#x2193;" horiz-adv-x="750" 
d="M113 214l38 38l196 -195v514h53v-514l195 194l38 -37l-259 -258z" />
    <glyph glyph-name="uni2196" unicode="&#x2196;" horiz-adv-x="750" 
d="M531 503v-53h-276l364 -364l-38 -38l-364 364v-276h-53v367h367z" />
    <glyph glyph-name="uni2197" unicode="&#x2197;" horiz-adv-x="750" 
d="M583 135h-53v277l-364 -364l-38 38l364 364h-276v53h367v-368z" />
    <glyph glyph-name="uni2198" unicode="&#x2198;" horiz-adv-x="750" 
d="M227 51v53h276l-364 364l38 38l364 -364v275h53v-366h-367z" />
    <glyph glyph-name="uni2199" unicode="&#x2199;" horiz-adv-x="750" 
d="M187 418h53v-276l364 364l38 -38l-364 -364h276v-53h-367v367z" />
    <glyph glyph-name="parenleft.case" horiz-adv-x="269" 
d="M134 -122c-38 93 -63 208 -63 320c0 288 92 444 221 605l49 -16c-120 -176 -207 -322 -207 -588c0 -97 18 -211 48 -305z" />
    <glyph glyph-name="parenright.case" horiz-adv-x="276" 
d="M-13 -106c151 223 206 361 206 587c0 110 -22 221 -50 306l49 16c35 -86 64 -196 64 -320c0 -255 -66 -408 -224 -605z" />
    <glyph glyph-name="hyphen.case" horiz-adv-x="395" 
d="M342 355v-52h-246v52h246z" />
    <glyph glyph-name="bracketleft.case" horiz-adv-x="288" 
d="M353 790l-9 -52h-116l-141 -802h115l-8 -52h-175l159 906h175z" />
    <glyph glyph-name="bracketright.case" horiz-adv-x="295" 
d="M326 790l-160 -906h-175l10 52h116l141 802h-116l9 52h175z" />
    <glyph glyph-name="braceleft.case" horiz-adv-x="294" 
d="M222 438c-12 -67 -33 -93 -63 -103c23 -16 37 -47 26 -102l-38 -214c-12 -68 6 -87 57 -87l-9 -48c-89 0 -124 39 -106 136l37 210c11 63 -7 82 -70 82l10 50c62 0 87 21 98 83l37 212c19 107 58 133 154 133l-9 -51c-53 0 -75 -18 -87 -85z" />
    <glyph glyph-name="bar.case" horiz-adv-x="262" 
d="M136 -116v906h47v-906h-47z" />
    <glyph glyph-name="braceright.case" horiz-adv-x="287" 
d="M122 237c12 67 33 94 63 104c-23 16 -38 46 -27 101l38 213c12 68 -5 87 -56 87l8 48c90 0 124 -40 107 -137l-37 -209c-11 -63 6 -82 69 -82l-9 -50c-62 0 -87 -19 -98 -80l-38 -216c-19 -106 -57 -132 -154 -132l9 51c53 0 76 18 87 85z" />
    <glyph glyph-name="guilsinglleft.case" horiz-adv-x="320" 
d="M276 537l34 -34l-159 -177l97 -178l-45 -25l-126 207z" />
    <glyph glyph-name="guilsinglright.case" horiz-adv-x="319" 
d="M97 123l-34 33l160 177l-97 179l44 25l126 -207z" />
    <glyph glyph-name="guillemotleft.case" horiz-adv-x="482" 
d="M269 537l34 -34l-160 -177l97 -178l-44 -25l-126 207zM438 537l34 -34l-159 -177l97 -178l-45 -25l-126 207z" />
    <glyph glyph-name="guillemotright.case" horiz-adv-x="489" 
d="M97 123l-34 33l160 177l-97 179l44 25l126 -207zM267 123l-35 33l160 177l-97 179l45 25l126 -207z" />
    <glyph glyph-name="endash.case" horiz-adv-x="594" 
d="M541 355v-52h-445v52h445z" />
    <glyph glyph-name="emdash.case" horiz-adv-x="742" 
d="M688 355v-52h-585v52h585z" />
    <glyph glyph-name="bullet.case" horiz-adv-x="368" 
d="M209 232c-57 0 -100 41 -100 97s43 97 100 97c59 0 100 -41 100 -97s-41 -97 -100 -97z" />
    <glyph glyph-name="periodcentered.case" horiz-adv-x="247" 
d="M149 319c-26 0 -45 20 -45 45c0 34 26 58 59 58c26 0 45 -21 45 -46c0 -34 -25 -57 -59 -57z" />
    <glyph glyph-name="circle" unicode="&#x25cb;" horiz-adv-x="800" 
d="M82 339c0 211 144 347 339 347c194 0 338 -136 338 -347s-144 -350 -338 -350c-195 0 -339 139 -339 350zM132 339c0 -190 118 -301 289 -301c170 0 287 111 287 301s-117 298 -287 298c-171 0 -289 -108 -289 -298z" />
    <glyph glyph-name="brokenbar.sc" horiz-adv-x="254" 
d="M108 290v292h42v-292h-42zM150 188v-290h-42v290h42z" />
    <glyph glyph-name="uni1EB8" unicode="&#x1eb8;" horiz-adv-x="516" 
d="M435 55l-10 -55h-377l119 676h373l-9 -55h-312l-43 -245h280l-10 -55h-280l-47 -266h316zM206 -161c-22 0 -40 13 -40 39c0 40 23 55 53 55c21 0 40 -14 40 -40c0 -38 -25 -54 -53 -54z" />
    <glyph glyph-name="Gcaron" unicode="&#x1e6;" horiz-adv-x="623" 
d="M372 765l-71 151h55l52 -107l89 107h58l-123 -151h-60zM358 357h230c0 -7 -1 -15 -1 -20c-5 -145 -72 -347 -296 -347c-147 0 -218 101 -218 256c0 286 128 440 337 440c104 0 162 -45 188 -109l-50 -33c-24 58 -65 86 -141 86c-170 0 -270 -135 -270 -382
c0 -117 45 -203 157 -203c158 0 217 137 225 256h-171z" />
    <glyph glyph-name="uni021E" unicode="&#x21e;" horiz-adv-x="647" 
d="M385 765l-71 151h55l52 -107l89 107h58l-123 -151h-60zM576 676h62l-120 -676h-62l58 329h-346l-58 -329h-62l119 676h62l-52 -292h347z" />
    <glyph glyph-name="uni1E24" unicode="&#x1e24;" horiz-adv-x="647" 
d="M576 676h62l-120 -676h-62l58 329h-346l-58 -329h-62l119 676h62l-52 -292h347zM266 -161c-22 0 -40 13 -40 39c0 40 23 55 53 55c21 0 40 -14 40 -40c0 -38 -25 -54 -53 -54z" />
    <glyph glyph-name="uni1ECA" unicode="&#x1eca;" horiz-adv-x="239" 
d="M167 676h62l-119 -676h-62zM62 -161c-22 0 -40 13 -40 39c0 40 23 55 53 55c21 0 40 -14 40 -40c0 -38 -25 -54 -53 -54z" />
    <glyph glyph-name="uni1E36" unicode="&#x1e36;" horiz-adv-x="454" 
d="M403 55l-10 -55h-345l119 676h62l-110 -621h284zM170 -161c-22 0 -40 13 -40 39c0 40 23 55 53 55c21 0 40 -14 40 -40c0 -38 -25 -54 -53 -54z" />
    <glyph glyph-name="uni1E44" unicode="&#x1e44;" horiz-adv-x="656" 
d="M439 772c-22 0 -40 13 -40 39c0 40 23 55 53 55c21 0 40 -14 40 -40c0 -38 -25 -54 -53 -54zM585 676h62l-120 -676h-68l-246 580l-102 -580h-63l120 676h69l246 -577z" />
    <glyph glyph-name="uni1ECC" unicode="&#x1ecc;" horiz-adv-x="642" 
d="M609 436c0 -228 -82 -446 -324 -446c-144 0 -212 101 -212 249c0 228 80 447 322 447c148 0 214 -102 214 -250zM136 239c0 -111 41 -193 152 -193c150 0 257 118 257 390c0 109 -40 194 -153 194c-208 0 -256 -211 -256 -391zM263 -161c-22 0 -40 13 -40 39
c0 40 23 55 53 55c21 0 40 -14 40 -40c0 -38 -25 -54 -53 -54z" />
    <glyph glyph-name="uni1E62" unicode="&#x1e62;" horiz-adv-x="526" 
d="M475 554c-19 49 -66 76 -136 76c-106 0 -164 -71 -164 -155c0 -50 33 -76 87 -96l80 -28c66 -23 126 -59 126 -148c0 -116 -85 -213 -243 -213c-147 0 -185 75 -199 130l52 30c12 -53 40 -104 150 -104c116 0 176 67 176 153c0 55 -41 82 -93 100l-82 28
c-66 24 -118 63 -118 145c0 107 82 214 231 214c101 0 166 -47 185 -99zM205 -161c-22 0 -40 13 -40 39c0 40 23 55 53 55c21 0 40 -14 40 -40c0 -38 -25 -54 -53 -54z" />
    <glyph glyph-name="uni1E9E" unicode="&#x1e9e;" horiz-adv-x="628" 
d="M598 607l-9 -46l-211 -177l84 -40c66 -31 104 -82 104 -156c0 -117 -70 -196 -207 -196c-117 0 -167 53 -186 104l48 33c14 -41 53 -82 139 -82c96 0 141 55 141 134c0 57 -24 92 -74 116l-125 58l8 44l220 185c-38 27 -92 46 -150 46c-119 0 -171 -58 -196 -198
l-78 -432h-62l81 446c32 176 117 240 263 240c86 0 161 -35 210 -79z" />
    <glyph glyph-name="uni0162" unicode="&#x162;" horiz-adv-x="509" 
d="M111 676h443l-9 -55h-190l-110 -621h-7l-33 -60c41 0 72 -19 72 -65c0 -51 -37 -91 -105 -91c-30 0 -58 11 -77 22l9 46c18 -15 42 -25 70 -25c32 0 50 19 50 42c0 25 -21 32 -51 32h-30l-2 5l48 94h-6l110 621h-191z" />
    <glyph glyph-name="uni01D3" unicode="&#x1d3;" horiz-adv-x="629" 
d="M367 747l-71 151h55l52 -107l89 107h58l-123 -151h-60zM282 -10c-139 0 -228 69 -195 259l76 427h62l-76 -430c-26 -146 26 -200 135 -200c105 0 179 53 205 200l75 430h62l-75 -427c-33 -191 -135 -259 -269 -259z" />
    <glyph glyph-name="uni1EE4" unicode="&#x1ee4;" horiz-adv-x="629" 
d="M282 -10c-139 0 -228 69 -195 259l76 427h62l-76 -430c-26 -146 26 -200 135 -200c105 0 179 53 205 200l75 430h62l-75 -427c-33 -191 -135 -259 -269 -259zM257 -161c-22 0 -40 13 -40 39c0 40 23 55 53 55c21 0 40 -14 40 -40c0 -38 -25 -54 -53 -54z" />
    <glyph glyph-name="uni1EB9" unicode="&#x1eb9;" horiz-adv-x="454" 
d="M212 42c43 0 94 18 132 54l24 -44c-31 -32 -92 -62 -159 -62c-127 0 -164 81 -164 170c0 168 83 306 227 306c97 0 148 -63 148 -154c0 -41 -12 -76 -21 -102h-291c-14 -97 8 -168 104 -168zM354 258c2 8 9 21 9 53c0 58 -30 104 -92 104c-88 0 -135 -70 -155 -157h238z
M170 -161c-22 0 -40 13 -40 39c0 40 23 55 53 55c21 0 40 -14 40 -40c0 -38 -25 -54 -53 -54z" />
    <glyph glyph-name="gcaron" unicode="&#x1e7;" horiz-adv-x="497" 
d="M265 545l-71 151h55l51 -107l90 107h58l-123 -151h-60zM462 456l-87 -495c-16 -92 -92 -163 -197 -163c-114 0 -161 65 -149 131h54c-5 -39 21 -80 97 -80c74 0 124 45 136 112l15 85c-28 -29 -71 -56 -126 -56c-111 0 -157 71 -157 179c0 167 75 297 226 297
c68 0 104 -28 123 -61l8 51h57zM108 173c0 -69 27 -128 106 -128c53 0 99 30 129 68l41 230c-16 34 -49 68 -105 68c-123 0 -171 -114 -171 -238z" />
    <glyph glyph-name="uni021F" unicode="&#x21f;" horiz-adv-x="503" 
d="M311 735l-71 151h55l52 -107l89 107h58l-123 -151h-60zM157 690h58l-50 -281c33 31 93 57 148 57c111 0 151 -57 131 -172l-53 -294h-58l52 291c15 83 -5 120 -87 120c-59 0 -110 -28 -144 -63l-61 -348h-58z" />
    <glyph glyph-name="uni1E25" unicode="&#x1e25;" horiz-adv-x="503" 
d="M157 690h58l-50 -281c33 31 93 57 148 57c111 0 151 -57 131 -172l-53 -294h-58l52 291c15 83 -5 120 -87 120c-59 0 -110 -28 -144 -63l-61 -348h-58zM194 -161c-22 0 -40 13 -40 39c0 40 23 55 53 55c21 0 40 -14 40 -40c0 -38 -25 -54 -53 -54z" />
    <glyph glyph-name="uni1ECB" unicode="&#x1ecb;" horiz-adv-x="207" 
d="M165 579c-22 0 -39 12 -39 37c0 39 25 57 56 57c20 0 39 -12 39 -38c0 -39 -29 -56 -56 -56zM115 456h58l-81 -456h-58zM46 -161c-22 0 -40 13 -40 39c0 40 23 55 53 55c21 0 40 -14 40 -40c0 -38 -25 -54 -53 -54z" />
    <glyph glyph-name="uni1E37" unicode="&#x1e37;" horiz-adv-x="220" 
d="M212 690l-100 -571c-10 -50 -3 -66 29 -66h31l-10 -54h-35c-72 0 -87 39 -73 118l100 573h58zM52 -161c-22 0 -40 13 -40 39c0 40 23 55 53 55c21 0 40 -14 40 -40c0 -38 -25 -54 -53 -54z" />
    <glyph glyph-name="uni1E45" unicode="&#x1e45;" horiz-adv-x="503" 
d="M323 569c-22 0 -40 13 -40 39c0 40 23 55 53 55c21 0 40 -14 40 -40c0 -38 -25 -54 -53 -54zM115 456h57l-9 -50c34 35 92 60 149 60c112 0 153 -56 132 -172l-53 -294h-58l52 291c15 83 -4 120 -88 120c-59 0 -110 -26 -143 -63l-62 -348h-58z" />
    <glyph glyph-name="uni1ECD" unicode="&#x1ecd;" horiz-adv-x="488" 
d="M279 466c116 0 163 -77 163 -182c0 -138 -68 -294 -234 -294c-112 0 -161 77 -161 184c0 143 73 292 232 292zM210 44c127 0 172 134 172 240c0 77 -30 128 -105 128c-121 0 -170 -128 -170 -238c0 -77 30 -130 103 -130zM186 -161c-22 0 -40 13 -40 39c0 40 23 55 53 55
c21 0 40 -14 40 -40c0 -38 -25 -54 -53 -54z" />
    <glyph glyph-name="uni1E63" unicode="&#x1e63;" horiz-adv-x="413" 
d="M347 368c-18 27 -53 48 -106 48c-79 0 -110 -46 -110 -93c0 -26 17 -50 62 -64l46 -13c75 -23 111 -55 111 -113c0 -82 -67 -143 -184 -143c-91 0 -134 42 -154 76l42 36c18 -31 43 -63 114 -63c69 0 122 31 122 90c0 35 -26 53 -76 67l-47 15c-64 19 -96 57 -96 108
c0 69 49 147 173 147c73 0 124 -33 145 -63zM149 -161c-22 0 -40 13 -40 39c0 40 23 55 53 55c21 0 40 -14 40 -40c0 -38 -25 -54 -53 -54z" />
    <glyph glyph-name="uni0163" unicode="&#x163;" horiz-adv-x="309" 
d="M193 404l-50 -281c-9 -51 4 -78 49 -78c21 0 46 7 67 18v-51c-22 -12 -52 -22 -81 -22h-2l-28 -50c41 0 72 -19 72 -65c0 -51 -37 -91 -105 -91c-30 0 -58 11 -77 22l9 46c18 -15 43 -25 70 -25c32 0 50 19 50 42c0 25 -21 32 -51 32h-30l-2 5l47 91
c-46 17 -58 61 -47 122l51 285h-83l6 42l86 10l20 116l61 12l-23 -128h124l-9 -52h-124z" />
    <glyph glyph-name="uni01D4" unicode="&#x1d4;" horiz-adv-x="503" 
d="M264 545l-71 151h55l52 -107l89 107h58l-123 -151h-60zM387 0h-57l10 50c-35 -35 -93 -60 -150 -60c-111 0 -152 56 -131 172l52 294h58l-51 -291c-15 -83 4 -120 87 -120c59 0 110 26 144 63l61 348h58z" />
    <glyph glyph-name="uni1EE5" unicode="&#x1ee5;" horiz-adv-x="503" 
d="M387 0h-57l10 50c-35 -35 -93 -60 -150 -60c-111 0 -152 56 -131 172l52 294h58l-51 -291c-15 -83 4 -120 87 -120c59 0 110 26 144 63l61 348h58zM175 -161c-22 0 -40 13 -40 39c0 40 23 55 53 55c21 0 40 -14 40 -40c0 -38 -25 -54 -53 -54z" />
    <glyph glyph-name="uni0163.sc" horiz-adv-x="430" 
d="M81 507h364l-9 -50h-151l-81 -457h-5l-33 -60c41 0 72 -19 72 -65c0 -51 -37 -91 -105 -91c-30 0 -58 11 -77 22l9 46c18 -15 42 -25 70 -25c32 0 50 19 50 42c0 25 -21 32 -51 32h-30l-2 5l48 94h-5l80 457h-152z" />
    <glyph glyph-name="uni0410" unicode="&#x410;" horiz-adv-x="579" 
d="M426 190h-280l-98 -190h-71l354 676h76l115 -676h-67zM173 245h245l-57 367z" />
    <glyph glyph-name="uni0411" unicode="&#x411;" horiz-adv-x="551" 
d="M499 621h-278l-40 -227h120c125 0 192 -69 192 -175c0 -132 -84 -219 -246 -219h-197l109 621l9 55h340zM294 339h-122l-50 -284h131c119 0 175 65 175 160c0 77 -42 124 -134 124z" />
    <glyph glyph-name="uni0412" unicode="&#x412;" 
d="M167 676h184c108 0 174 -50 174 -142c0 -100 -55 -167 -129 -183c57 -12 103 -58 103 -139c0 -157 -95 -212 -255 -212h-196zM296 377c127 0 162 73 162 153c0 56 -33 91 -119 91h-120l-42 -244h119zM248 55c135 0 188 49 188 158c0 66 -42 109 -140 109h-129l-48 -267
h129z" />
    <glyph glyph-name="uni0413" unicode="&#x413;" horiz-adv-x="481" 
d="M167 676h364l-10 -55h-302l-109 -621h-62z" />
    <glyph glyph-name="uni0403" unicode="&#x403;" horiz-adv-x="481" 
d="M536 916l-109 -151h-59l100 151h68zM167 676h364l-10 -55h-302l-109 -621h-62z" />
    <glyph glyph-name="uni0490" unicode="&#x490;" horiz-adv-x="497" 
d="M48 0l119 676h319l21 123h60l-30 -178h-318l-109 -621h-62z" />
    <glyph glyph-name="uni0414" unicode="&#x414;" horiz-adv-x="620" 
d="M-59 -122l31 177h47c38 20 68 80 94 187l106 434h387l-109 -621h69l-31 -177h-61l21 122h-470l-22 -122h-62zM97 55h338l99 566h-267l-95 -394c-19 -81 -43 -137 -75 -172z" />
    <glyph glyph-name="uni0415" unicode="&#x415;" horiz-adv-x="516" 
d="M435 55l-10 -55h-377l119 676h373l-9 -55h-312l-43 -245h280l-10 -55h-280l-47 -266h316z" />
    <glyph glyph-name="uni0400" unicode="&#x400;" horiz-adv-x="516" 
d="M340 916l47 -151h-52l-56 151h61zM435 55l-10 -55h-377l119 676h373l-9 -55h-312l-43 -245h280l-10 -55h-280l-47 -266h316z" />
    <glyph glyph-name="uni0401" unicode="&#x401;" horiz-adv-x="516" 
d="M277 789c-23 0 -40 14 -40 39c0 39 22 55 52 55c21 0 41 -13 41 -39c0 -39 -26 -55 -53 -55zM445 789c-23 0 -40 14 -40 39c0 39 22 55 52 55c21 0 42 -13 42 -39c0 -39 -26 -55 -54 -55zM435 55l-10 -55h-377l119 676h373l-9 -55h-312l-43 -245h280l-10 -55h-280
l-47 -266h316z" />
    <glyph glyph-name="uni0416" unicode="&#x416;" horiz-adv-x="843" 
d="M898 676l-302 -341l183 -335h-69l-169 315h-73l-55 -315h-62l55 315h-73l-271 -315h-79l304 348l-182 328h67l170 -308h73l55 308h62l-55 -308h74l270 308h77z" />
    <glyph glyph-name="uni0417" unicode="&#x417;" horiz-adv-x="525" 
d="M353 346c53 -13 111 -57 111 -145c0 -121 -98 -211 -247 -211c-144 0 -204 80 -190 170h59c-10 -65 40 -115 133 -115c113 0 182 67 182 158c0 73 -61 119 -148 119h-60l9 54h61c101 0 183 53 183 148c0 62 -44 107 -123 107c-97 0 -152 -55 -161 -117h-62
c11 87 83 172 225 172c113 0 185 -66 185 -160c0 -105 -82 -164 -157 -180z" />
    <glyph glyph-name="uni0418" unicode="&#x418;" horiz-adv-x="680" 
d="M593 676h66l-120 -676h-62l101 570l-474 -570h-66l120 676h61l-100 -569z" />
    <glyph glyph-name="uni0419" unicode="&#x419;" horiz-adv-x="680" 
d="M401 770c-75 0 -118 55 -104 131h47c-8 -50 11 -87 61 -87c51 0 82 37 90 87h49c-13 -76 -64 -131 -143 -131zM593 676h66l-120 -676h-62l101 570l-474 -570h-66l120 676h61l-100 -569z" />
    <glyph glyph-name="uni040D" unicode="&#x40d;" horiz-adv-x="680" 
d="M437 765h-52l-56 151h61zM593 676h66l-120 -676h-62l101 570l-474 -570h-66l120 676h61l-100 -569z" />
    <glyph glyph-name="uni041A" unicode="&#x41a;" horiz-adv-x="542" 
d="M48 0l119 676h62l-54 -308h80l265 308h77l-295 -339l176 -337h-71l-159 315h-82l-56 -315h-62z" />
    <glyph glyph-name="uni040C" unicode="&#x40c;" horiz-adv-x="542" 
d="M493 916l-109 -151h-59l100 151h68zM48 0l119 676h62l-54 -308h80l265 308h77l-295 -339l176 -337h-71l-159 315h-82l-56 -315h-62z" />
    <glyph glyph-name="uni041B" unicode="&#x41b;" horiz-adv-x="657" 
d="M2 51c9 -3 20 -5 34 -5c52 0 85 55 117 190l108 440h386l-119 -676h-62l110 621h-266l-97 -396c-42 -174 -94 -235 -173 -235c-24 0 -43 4 -53 10z" />
    <glyph glyph-name="uni041C" unicode="&#x41c;" horiz-adv-x="824" 
d="M675 676h87l-29 -676h-63l30 601l-296 -601h-67l-82 603l-183 -603h-62l210 676h83l80 -594z" />
    <glyph glyph-name="uni041D" unicode="&#x41d;" horiz-adv-x="647" 
d="M576 676h62l-120 -676h-62l58 329h-346l-58 -329h-62l119 676h62l-52 -292h347z" />
    <glyph glyph-name="uni041E" unicode="&#x41e;" horiz-adv-x="642" 
d="M609 436c0 -228 -82 -446 -324 -446c-144 0 -212 101 -212 249c0 228 80 447 322 447c148 0 214 -102 214 -250zM136 239c0 -111 41 -193 152 -193c150 0 257 118 257 390c0 109 -40 194 -153 194c-208 0 -256 -211 -256 -391z" />
    <glyph glyph-name="uni041F" unicode="&#x41f;" horiz-adv-x="629" 
d="M619 676l-119 -676h-62l110 621h-329l-109 -621h-62l119 676h452z" />
    <glyph glyph-name="uni0420" unicode="&#x420;" horiz-adv-x="539" 
d="M159 276l-49 -276h-62l119 676h192c124 0 182 -64 182 -164c0 -135 -72 -236 -246 -236h-136zM168 330h130c142 0 179 87 179 181c0 63 -34 110 -127 110h-131z" />
    <glyph glyph-name="uni0421" unicode="&#x421;" horiz-adv-x="566" 
d="M137 249c0 -111 43 -203 154 -203c64 0 126 33 165 89l48 -34c-47 -66 -118 -111 -217 -111c-145 0 -214 103 -214 258c0 277 122 438 323 438c95 0 167 -44 189 -112l-52 -32c-18 57 -75 88 -139 88c-160 0 -257 -139 -257 -381z" />
    <glyph glyph-name="uni0422" unicode="&#x422;" horiz-adv-x="509" 
d="M554 676l-9 -55h-190l-110 -621h-62l110 621h-191l9 55h443z" />
    <glyph glyph-name="uni0423" unicode="&#x423;" horiz-adv-x="514" 
d="M508 676h71l-433 -676h-70l165 258l-138 418h63l117 -359z" />
    <glyph glyph-name="uni040E" unicode="&#x40e;" horiz-adv-x="514" 
d="M345 770c-75 0 -118 55 -104 131h47c-8 -50 11 -87 61 -87c51 0 82 37 90 87h49c-13 -76 -64 -131 -143 -131zM508 676h71l-433 -676h-70l165 258l-138 418h63l117 -359z" />
    <glyph glyph-name="uni0424" unicode="&#x424;" horiz-adv-x="696" 
d="M67 284c0 217 116 337 319 339l14 73h62l-13 -73c131 -3 218 -98 218 -232c0 -217 -116 -336 -319 -338l-12 -73h-62l12 73c-129 2 -219 96 -219 231zM131 286c0 -106 63 -175 166 -176l80 456c-158 -1 -246 -99 -246 -280zM358 110c160 2 245 96 245 279
c0 105 -61 175 -165 177z" />
    <glyph glyph-name="uni0425" unicode="&#x425;" horiz-adv-x="541" 
d="M183 676l114 -282l214 282h76l-252 -326l145 -350h-68l-124 302l-229 -302h-76l269 350l-139 326h70z" />
    <glyph glyph-name="uni0427" unicode="&#x427;" horiz-adv-x="544" 
d="M472 676h62l-119 -676h-62l50 285c-32 -14 -84 -28 -153 -28c-127 0 -179 74 -158 190l41 229h60l-41 -226c-14 -81 11 -136 114 -136c70 0 116 13 147 29z" />
    <glyph glyph-name="uni0426" unicode="&#x426;" horiz-adv-x="635" 
d="M48 0l119 676h62l-109 -621h328l109 621h62l-109 -621h70l-30 -177h-61l21 122h-462z" />
    <glyph glyph-name="uni0428" unicode="&#x428;" horiz-adv-x="994" 
d="M48 0l119 676h62l-109 -621h316l109 621h62l-109 -621h316l109 621h62l-119 -676h-818z" />
    <glyph glyph-name="uni0429" unicode="&#x429;" horiz-adv-x="999" 
d="M985 676l-109 -621h70l-30 -177h-62l22 122h-828l119 676h62l-109 -621h316l109 621h62l-109 -621h316l109 621h62z" />
    <glyph glyph-name="uni040F" unicode="&#x40f;" horiz-adv-x="629" 
d="M619 676l-119 -676h-186l-21 -122h-62l21 122h-204l119 676h62l-109 -621h328l109 621h62z" />
    <glyph glyph-name="uni042C" unicode="&#x42c;" horiz-adv-x="536" 
d="M180 394h119c125 0 192 -69 192 -175c0 -132 -84 -219 -246 -219h-197l119 676h62zM171 339l-51 -284h131c120 0 176 65 176 160c0 77 -43 124 -134 124h-122z" />
    <glyph glyph-name="uni042A" unicode="&#x42a;" horiz-adv-x="632" 
d="M396 394c125 0 192 -69 192 -175c0 -132 -84 -219 -246 -219h-197l109 621h-152l9 55h215l-50 -282h120zM348 55c119 0 175 65 175 160c0 77 -42 124 -134 124h-122l-50 -284h131z" />
    <glyph glyph-name="uni042B" unicode="&#x42b;" horiz-adv-x="771" 
d="M180 394h119c125 0 192 -69 192 -175c0 -132 -84 -219 -246 -219h-197l119 676h62zM699 676h62l-119 -676h-62zM171 339l-51 -284h131c120 0 176 65 176 160c0 77 -43 124 -134 124h-122z" />
    <glyph glyph-name="uni0409" unicode="&#x409;" horiz-adv-x="954" 
d="M717 394c125 0 192 -69 192 -175c0 -132 -84 -219 -246 -219h-197l109 621h-265l-97 -396c-42 -174 -94 -235 -173 -235c-24 0 -43 4 -53 10l15 51c9 -3 20 -5 34 -5c52 0 85 55 117 190l108 440h386l-49 -282h119zM669 55c120 0 176 65 176 160c0 77 -43 124 -134 124
h-123l-50 -284h131z" />
    <glyph glyph-name="uni040A" unicode="&#x40a;" horiz-adv-x="943" 
d="M707 394c125 0 192 -69 192 -175c0 -132 -84 -219 -246 -219h-197l58 329h-346l-58 -329h-62l119 676h62l-52 -292h347l51 292h63l-50 -282h119zM659 55c119 0 175 65 175 160c0 77 -42 124 -134 124h-122l-21 -122l-29 -162h131z" />
    <glyph glyph-name="uni0405" unicode="&#x405;" horiz-adv-x="526" 
d="M475 554c-19 49 -66 76 -136 76c-106 0 -164 -71 -164 -155c0 -50 33 -76 87 -96l80 -28c66 -23 126 -59 126 -148c0 -116 -85 -213 -243 -213c-147 0 -185 75 -199 130l52 30c12 -53 40 -104 150 -104c116 0 176 67 176 153c0 55 -41 82 -93 100l-82 28
c-66 24 -118 63 -118 145c0 107 82 214 231 214c101 0 166 -47 185 -99z" />
    <glyph glyph-name="uni0404" unicode="&#x404;" horiz-adv-x="566" 
d="M396 686c95 0 167 -44 189 -112l-52 -32c-18 57 -75 88 -139 88c-129 0 -217 -90 -246 -252h266l-9 -55h-265c-2 -23 -3 -48 -3 -74c0 -111 43 -203 154 -203c64 0 126 33 165 89l48 -34c-47 -66 -118 -111 -217 -111c-145 0 -214 103 -214 258c0 277 122 438 323 438z
" />
    <glyph glyph-name="uni042D" unicode="&#x42d;" horiz-adv-x="554" 
d="M317 686c173 0 234 -159 201 -347c-40 -223 -137 -349 -309 -349c-100 0 -169 46 -192 113l54 29c17 -55 75 -86 146 -86c130 0 201 113 234 277h-277l10 55h275c15 140 -26 252 -149 252c-67 0 -129 -31 -165 -89l-44 33c45 66 124 112 216 112z" />
    <glyph glyph-name="uni0406" unicode="&#x406;" horiz-adv-x="239" 
d="M167 676h62l-119 -676h-62z" />
    <glyph glyph-name="uni0407" unicode="&#x407;" horiz-adv-x="239" 
d="M129 772c-23 0 -40 14 -40 39c0 39 22 55 52 55c21 0 41 -13 41 -39c0 -39 -26 -55 -53 -55zM297 772c-23 0 -40 14 -40 39c0 39 22 55 52 55c21 0 42 -13 42 -39c0 -39 -26 -55 -54 -55zM167 676h62l-119 -676h-62z" />
    <glyph glyph-name="uni0408" unicode="&#x408;" horiz-adv-x="470" 
d="M53 118c20 -54 55 -72 110 -72c99 0 143 64 165 193l78 437h60l-78 -441c-29 -166 -101 -245 -228 -245c-83 0 -138 39 -158 97z" />
    <glyph glyph-name="uni040B" unicode="&#x40b;" horiz-adv-x="680" 
d="M469 419c126 0 179 -74 158 -190l-41 -229h-60l40 226c14 81 -11 136 -114 136c-70 0 -116 -13 -147 -29l-59 -333h-62l109 621h-192l10 55h465l-10 -55h-211l-40 -230c32 14 84 28 154 28z" />
    <glyph glyph-name="uni042E" unicode="&#x42e;" horiz-adv-x="861" 
d="M614 686c148 0 214 -102 214 -250c0 -228 -82 -446 -324 -446c-144 0 -212 101 -212 249c0 27 1 53 3 79h-126l-56 -318h-62l119 676h62l-54 -306h124c28 174 118 316 312 316zM507 46c150 0 257 118 257 390c0 109 -40 194 -152 194c-208 0 -256 -211 -256 -391
c0 -111 41 -193 151 -193z" />
    <glyph glyph-name="uni042F" unicode="&#x42f;" horiz-adv-x="564" 
d="M322 676h233l-126 -676h-61l56 308h-135l-231 -308h-75l241 316c-88 18 -135 72 -135 165c0 115 76 195 233 195zM298 363h136l48 258h-163c-115 0 -166 -55 -166 -139c0 -80 42 -119 145 -119z" />
    <glyph glyph-name="uni0402" unicode="&#x402;" horiz-adv-x="694" 
d="M444 417c139 0 201 -84 201 -187c0 -152 -91 -234 -232 -234c-28 0 -52 4 -70 10l14 54c15 -4 33 -8 53 -8c103 0 171 56 171 174c0 71 -40 135 -150 135c-61 0 -112 -15 -142 -29l-58 -332h-62l109 621h-177l10 55h448l-10 -55h-209l-41 -231c30 12 80 27 145 27z" />
    <glyph glyph-name="uni0492" unicode="&#x492;" horiz-adv-x="511" 
d="M521 621h-302l-48 -272h182l-9 -52h-182l-52 -297h-62l52 297h-80l10 52h79l58 327h364z" />
    <glyph glyph-name="uni049A" unicode="&#x49a;" horiz-adv-x="542" 
d="M302 337l147 -282h66l-30 -177h-61l21 122h-38l-159 315h-82l-56 -315h-62l119 676h62l-54 -308h80l265 308h77z" />
    <glyph glyph-name="uni04B2" unicode="&#x4b2;" horiz-adv-x="541" 
d="M335 350l122 -295h64l-30 -177h-61l21 122h-39l-124 302l-229 -302h-76l269 350l-139 326h70l114 -282l214 282h76z" />
    <glyph glyph-name="uni04D4" unicode="&#x4d4;" horiz-adv-x="909" 
d="M-23 0l548 676h409l-10 -55h-310l-44 -245h280l-10 -55h-279l-48 -268h315l-9 -53h-377l34 190h-267l-155 -190h-77zM485 244l66 375l-302 -375h236z" />
    <glyph glyph-name="uni0430" unicode="&#x430;" horiz-adv-x="500" 
d="M408 456h57l-80 -456h-56l8 44c-30 -29 -73 -54 -133 -54c-106 0 -156 67 -156 179c0 184 83 297 227 297c62 0 104 -28 124 -58zM108 173c0 -77 28 -128 107 -128c61 0 107 32 133 67l40 231c-12 30 -44 68 -107 68c-116 0 -173 -95 -173 -238z" />
    <glyph glyph-name="uni0431" unicode="&#x431;" horiz-adv-x="489" 
d="M343 582c-111 -21 -162 -75 -208 -216c40 60 96 84 147 84c101 0 159 -63 159 -178c0 -166 -92 -282 -224 -282c-111 0 -164 62 -164 190c0 189 74 417 255 451c112 21 122 34 125 59h54c-1 -59 -21 -84 -144 -108zM269 396c-88 0 -158 -100 -158 -227
c0 -79 33 -125 112 -125c89 0 159 96 159 225c0 83 -39 127 -113 127z" />
    <glyph glyph-name="uni0432" unicode="&#x432;" horiz-adv-x="438" 
d="M34 0l80 456h141c106 0 144 -43 144 -104c0 -55 -35 -100 -80 -113c37 -11 67 -45 67 -96c0 -94 -63 -143 -176 -143h-176zM138 260h93c63 0 106 35 106 87c0 48 -36 60 -92 60h-82zM101 49h111c58 0 112 25 112 93c0 45 -34 69 -95 69h-100z" />
    <glyph glyph-name="uni0433" unicode="&#x433;" horiz-adv-x="381" 
d="M114 456h288l-9 -52h-229l-72 -404h-58z" />
    <glyph glyph-name="uni0453" unicode="&#x453;" horiz-adv-x="381" 
d="M397 696l-109 -151h-59l100 151h68zM114 456h288l-9 -52h-229l-72 -404h-58z" />
    <glyph glyph-name="uni0491" unicode="&#x491;" horiz-adv-x="389" 
d="M34 0l80 456h239l21 120h58l-30 -172h-238l-72 -404h-58z" />
    <glyph glyph-name="uni0434" unicode="&#x434;" horiz-adv-x="507" 
d="M-48 -120l31 172h42c26 15 47 54 67 130l69 274h303l-71 -404h63l-30 -172h-58l21 120h-358l-21 -120h-58zM94 52h241l62 352h-192l-58 -232c-11 -45 -26 -90 -53 -120z" />
    <glyph glyph-name="uni0435" unicode="&#x435;" horiz-adv-x="454" 
d="M212 42c43 0 94 18 132 54l24 -44c-31 -32 -92 -62 -159 -62c-127 0 -164 81 -164 170c0 168 83 306 227 306c97 0 148 -63 148 -154c0 -41 -12 -76 -21 -102h-291c-14 -97 8 -168 104 -168zM354 258c2 8 9 21 9 53c0 58 -30 104 -92 104c-88 0 -135 -70 -155 -157h238z
" />
    <glyph glyph-name="uni0450" unicode="&#x450;" horiz-adv-x="454" 
d="M264 696l47 -151h-52l-56 151h61zM212 42c43 0 94 18 132 54l24 -44c-31 -32 -92 -62 -159 -62c-127 0 -164 81 -164 170c0 168 83 306 227 306c97 0 148 -63 148 -154c0 -41 -12 -76 -21 -102h-291c-14 -97 8 -168 104 -168zM354 258c2 8 9 21 9 53
c0 58 -30 104 -92 104c-88 0 -135 -70 -155 -157h238z" />
    <glyph glyph-name="uni0451" unicode="&#x451;" horiz-adv-x="454" 
d="M201 569c-23 0 -40 14 -40 39c0 39 22 55 52 55c21 0 41 -13 41 -39c0 -39 -26 -55 -53 -55zM369 569c-23 0 -40 14 -40 39c0 39 22 55 52 55c21 0 42 -13 42 -39c0 -39 -26 -55 -54 -55zM212 42c43 0 94 18 132 54l24 -44c-31 -32 -92 -62 -159 -62
c-127 0 -164 81 -164 170c0 168 83 306 227 306c97 0 148 -63 148 -154c0 -41 -12 -76 -21 -102h-291c-14 -97 8 -168 104 -168zM354 258c2 8 9 21 9 53c0 58 -30 104 -92 104c-88 0 -135 -70 -155 -157h238z" />
    <glyph glyph-name="uni0436" unicode="&#x436;" horiz-adv-x="639" 
d="M-22 0l208 233l-126 223h65l110 -201h61l34 201h58l-35 -201h56l178 201h74l-207 -229l124 -227h-64l-109 203h-61l-36 -203h-58l36 203h-57l-178 -203h-73z" />
    <glyph glyph-name="uni0437" unicode="&#x437;" horiz-adv-x="409" 
d="M265 234c32 -9 72 -42 72 -97c0 -85 -74 -144 -186 -144c-109 0 -158 50 -147 118h58c-6 -40 25 -67 91 -67c72 0 122 38 122 93c0 46 -42 72 -102 72h-66l10 50h64c69 0 122 34 122 88c0 41 -32 65 -87 65c-61 0 -98 -27 -105 -68h-60c12 65 67 119 172 119
c91 0 140 -48 140 -112c0 -55 -44 -104 -98 -117z" />
    <glyph glyph-name="uni0438" unicode="&#x438;" horiz-adv-x="488" 
d="M396 456h58l-80 -456h-57l63 355l-288 -355h-58l80 456h58l-64 -355z" />
    <glyph glyph-name="uni0439" unicode="&#x439;" horiz-adv-x="488" 
d="M292 550c-75 0 -118 55 -104 131h47c-8 -50 11 -87 61 -87c51 0 82 37 90 87h49c-13 -76 -64 -131 -143 -131zM396 456h58l-80 -456h-57l63 355l-288 -355h-58l80 456h58l-64 -355z" />
    <glyph glyph-name="uni045D" unicode="&#x45d;" horiz-adv-x="488" 
d="M328 545h-52l-56 151h61zM396 456h58l-80 -456h-57l63 355l-288 -355h-58l80 456h58l-64 -355z" />
    <glyph glyph-name="uni043A" unicode="&#x43a;" horiz-adv-x="418" 
d="M34 0l80 456h58l-34 -201h53l176 201h73l-203 -229l121 -227h-66l-106 203h-58l-36 -203h-58z" />
    <glyph glyph-name="uni045C" unicode="&#x45c;" horiz-adv-x="418" 
d="M396 696l-109 -151h-59l100 151h68zM34 0l80 456h58l-34 -201h53l176 201h73l-203 -229l121 -227h-66l-106 203h-58l-36 -203h-58z" />
    <glyph glyph-name="uni043B" unicode="&#x43b;" horiz-adv-x="519" 
d="M179 456h305l-80 -456h-58l71 404h-194l-60 -238c-30 -115 -76 -171 -140 -171c-18 0 -34 3 -44 7l22 51c7 -3 13 -4 22 -4c35 0 63 38 87 132z" />
    <glyph glyph-name="uni043C" unicode="&#x43c;" horiz-adv-x="605" 
d="M462 456h79l-21 -456h-56l21 386l-189 -386h-64l-52 385l-118 -385h-57l142 456h77l51 -381z" />
    <glyph glyph-name="uni043D" unicode="&#x43d;" horiz-adv-x="493" 
d="M401 456h58l-80 -456h-58l37 212h-228l-38 -212h-58l80 456h58l-33 -192h228z" />
    <glyph glyph-name="uni043E" unicode="&#x43e;" horiz-adv-x="488" 
d="M279 466c116 0 163 -77 163 -182c0 -138 -68 -294 -234 -294c-112 0 -161 77 -161 184c0 143 73 292 232 292zM210 44c127 0 172 134 172 240c0 77 -30 128 -105 128c-121 0 -170 -128 -170 -238c0 -77 30 -130 103 -130z" />
    <glyph glyph-name="uni043F" unicode="&#x43f;" horiz-adv-x="494" 
d="M459 456l-80 -456h-58l71 404h-228l-72 -404h-58l80 456h345z" />
    <glyph glyph-name="uni0440" unicode="&#x440;" horiz-adv-x="502" 
d="M54 -216h-58l119 672h56l-7 -44c27 27 70 54 132 54c108 0 158 -71 158 -181c0 -186 -84 -295 -228 -295c-65 0 -107 26 -125 58zM394 282c0 70 -27 129 -109 129c-60 0 -107 -31 -132 -68l-41 -231c14 -30 44 -67 109 -67c116 0 173 94 173 237z" />
    <glyph glyph-name="uni0441" unicode="&#x441;" horiz-adv-x="439" 
d="M47 170c0 157 74 296 230 296c73 0 126 -30 149 -88l-46 -30c-17 45 -53 64 -103 64c-125 0 -170 -124 -170 -239c0 -72 34 -130 109 -130c49 0 92 20 123 65l43 -31c-41 -56 -98 -87 -170 -87c-109 0 -165 72 -165 180z" />
    <glyph glyph-name="uni0442" unicode="&#x442;" horiz-adv-x="375" 
d="M402 456l-9 -52h-145l-72 -404h-57l71 404h-146l9 52h349z" />
    <glyph glyph-name="uni0443" unicode="&#x443;" horiz-adv-x="459" 
d="M212 105l195 351h69l-387 -672h-66l147 253l-107 419h65z" />
    <glyph glyph-name="uni045E" unicode="&#x45e;" horiz-adv-x="459" 
d="M405 681c-13 -76 -64 -131 -143 -131c-75 0 -118 55 -104 131h47c-8 -50 11 -87 61 -87c51 0 82 37 90 87h49zM212 105l195 351h69l-387 -672h-66l147 253l-107 419h65z" />
    <glyph glyph-name="uni0444" unicode="&#x444;" horiz-adv-x="599" 
d="M550 273c0 -178 -93 -282 -264 -283l-36 -206h-58l37 207c-108 3 -180 80 -180 194c0 175 91 280 263 281l40 224h58l-40 -225c107 -3 180 -78 180 -192zM238 45l65 367c-129 -1 -194 -83 -194 -224c0 -85 47 -141 129 -143zM296 44c129 2 193 84 193 226
c0 84 -45 137 -128 141z" />
    <glyph glyph-name="uni0445" unicode="&#x445;" horiz-adv-x="424" 
d="M355 0h-66l-81 184l-146 -184h-73l186 229l-106 227h65l82 -184l146 184h74l-187 -228z" />
    <glyph glyph-name="uni0447" unicode="&#x447;" horiz-adv-x="436" 
d="M344 456h57l-81 -456h-57l33 183c-24 -7 -68 -16 -114 -16c-99 0 -141 60 -124 150l25 139h58l-25 -138c-11 -60 9 -99 85 -99c43 0 83 7 104 16z" />
    <glyph glyph-name="uni0446" unicode="&#x446;" horiz-adv-x="503" 
d="M34 0l80 456h58l-71 -404h229l71 404h58l-71 -404h63l-30 -172h-58l21 120h-350z" />
    <glyph glyph-name="uni0448" unicode="&#x448;" horiz-adv-x="772" 
d="M34 0l80 456h58l-71 -404h225l71 404h58l-71 -404h224l71 404h58l-80 -456h-623z" />
    <glyph glyph-name="uni0449" unicode="&#x449;" horiz-adv-x="781" 
d="M34 0l80 456h58l-71 -404h225l71 404h58l-71 -404h224l71 404h58l-71 -404h63l-30 -172h-58l22 120h-629z" />
    <glyph glyph-name="uni045F" unicode="&#x45f;" horiz-adv-x="494" 
d="M459 456l-80 -456h-135l-21 -122h-58l22 122h-153l80 456h58l-71 -404h229l71 404h58z" />
    </font>
</defs>
</svg>
