<?xml version="1.0" standalone="no"?>
<!DOCTYPE svg PUBLIC "-//W3C//DTD SVG 1.1//EN" "http://www.w3.org/Graphics/SVG/1.1/DTD/svg11.dtd" >
<svg xmlns="http://www.w3.org/2000/svg" xmlns:xlink="http://www.w3.org/1999/xlink" version="1.1">
<metadata>
Created by FontForge 20190801 at Thu Sep 13 21:38:52 2018
 By Jimmy Wärting
Copyright \(c\) 2014-2018 by Hannes von Doehren, Livius Dietzel. All rights reserved.
</metadata>
<defs>
<font id="BrixSans-RegularItalic" horiz-adv-x="560" >
  <font-face 
    font-family="Brix Sans"
    font-weight="400"
    font-style="italic"
    font-stretch="normal"
    units-per-em="1000"
    panose-1="2 11 5 0 0 0 0 0 0 0"
    ascent="720"
    descent="-280"
    x-height="456"
    cap-height="676"
    bbox="-422 -228 1118 980"
    underline-thickness="57"
    underline-position="-72"
    slope="-10"
    stemh="74"
    stemv="79"
    unicode-range="U+0020-FB02"
  />
<missing-glyph horiz-adv-x="513" 
d="M59 656h413v-656h-413v656zM434 39v578h-337v-578h337z" />
    <glyph glyph-name="fi" unicode="fi" horiz-adv-x="542" 
d="M424 388h-222l-106 -604h-78l107 604h-74l10 58l75 10l14 74c17 99 62 160 159 160h59l-12 -68h-47c-50 0 -71 -30 -82 -93l-13 -73h300l-81 -456h-77zM494 568c-27 0 -46 12 -46 42c0 46 29 67 65 67c24 0 46 -14 46 -45c0 -46 -34 -64 -65 -64z" />
    <glyph glyph-name="fl" unicode="fl" horiz-adv-x="546" 
d="M356 622h-47c-50 0 -71 -30 -82 -93l-13 -73h126l-12 -68h-126l-106 -604h-78l107 604h-74l10 58l75 10l14 74c17 99 62 160 159 160h59zM543 690l-99 -562c-8 -44 -1 -58 28 -58h28l-12 -72h-41c-78 0 -95 45 -82 123l100 569h78z" />
    <glyph glyph-name="f_f" unicode="ff" horiz-adv-x="603" 
d="M641 622h-47c-50 0 -70 -30 -81 -93l-13 -73h126l-12 -68h-126l-106 -604h-78l106 604h-208l-106 -604h-78l107 604h-74l10 58l75 10l14 74c17 99 62 160 159 160h59l-12 -68h-47c-50 0 -71 -30 -82 -93l-13 -73h208l13 74c18 99 63 160 160 160h59z" />
    <glyph glyph-name=".notdef" horiz-adv-x="513" 
d="M59 656h413v-656h-413v656zM434 39v578h-337v-578h337z" />
    <glyph glyph-name=".null" horiz-adv-x="0" 
 />
    <glyph glyph-name="space" unicode=" " horiz-adv-x="217" 
 />
    <glyph glyph-name="exclam" unicode="!" horiz-adv-x="230" 
d="M80 212l68 464h94l-97 -464h-65zM77 -7c-29 0 -52 24 -52 52c0 38 30 65 68 65c30 0 52 -24 52 -51c0 -39 -30 -66 -68 -66z" />
    <glyph glyph-name="quotedbl" unicode="&#x22;" horiz-adv-x="348" 
d="M135 676h82l-55 -244h-59zM288 676h79l-54 -244h-60z" />
    <glyph glyph-name="numbersign" unicode="#" horiz-adv-x="597" 
d="M36 201l21 70h98l48 154h-94l21 70h97l58 181h75l-58 -181h125l59 181h75l-57 -181h100l-21 -70h-103l-49 -154h100l-21 -70h-104l-63 -201h-76l65 201h-126l-64 -201h-76l65 201h-95zM230 271h126l48 154h-125z" />
    <glyph glyph-name="dollar" unicode="$" horiz-adv-x="524" 
d="M345 360c67 -25 128 -63 128 -153c0 -116 -81 -207 -225 -216l-17 -94h-54l17 94c-123 9 -161 77 -175 128l67 42c12 -47 36 -91 120 -97l44 245l-27 9c-66 25 -119 68 -119 150c0 106 72 206 212 217l13 74h54l-13 -74c88 -8 142 -51 162 -98l-67 -45
c-16 40 -54 64 -108 69l-42 -240zM190 475c0 -43 28 -69 74 -86l39 220c-75 -12 -113 -67 -113 -134zM261 65c84 11 126 64 126 134c0 50 -37 74 -84 92l-2 1z" />
    <glyph glyph-name="percent" unicode="%" horiz-adv-x="776" 
d="M263 680c77 0 116 -47 116 -130c0 -123 -48 -230 -168 -230c-86 0 -117 55 -117 130c0 129 53 230 169 230zM199 0h-72l504 676h74zM213 370c73 0 103 73 103 180c0 49 -16 80 -56 80c-67 0 -104 -69 -104 -180c0 -49 17 -80 57 -80zM622 355c77 0 116 -47 116 -130
c0 -123 -48 -230 -169 -230c-85 0 -117 55 -117 130c0 129 54 230 170 230zM572 45c72 0 103 73 103 180c0 49 -17 80 -56 80c-67 0 -104 -69 -104 -180c0 -49 17 -80 57 -80z" />
    <glyph glyph-name="ampersand" unicode="&#x26;" horiz-adv-x="622" 
d="M477 175l-24 -28l104 -140l-1 -7h-87l-67 91c-58 -57 -126 -102 -218 -102c-106 0 -155 60 -155 132c0 105 92 162 169 213l18 12l-18 25c-22 31 -62 83 -62 140c0 96 79 175 206 175c99 0 157 -65 157 -141c0 -80 -57 -125 -144 -185l-39 -27l95 -128l16 19l112 134
l54 -47zM256 414l20 -27l39 27c64 44 106 74 106 127c0 38 -28 77 -85 77c-73 0 -123 -50 -123 -107c0 -37 20 -67 43 -97zM188 58c67 0 121 39 172 91l-105 143l-21 -14c-74 -51 -128 -86 -128 -150c0 -40 31 -70 82 -70z" />
    <glyph glyph-name="quotesingle" unicode="'" horiz-adv-x="197" 
d="M137 676h79l-53 -244h-60z" />
    <glyph glyph-name="parenleft" unicode="(" horiz-adv-x="272" 
d="M110 -222c-41 93 -68 211 -68 325c0 279 90 438 224 600l63 -22c-118 -175 -204 -326 -204 -581c0 -93 17 -206 47 -300z" />
    <glyph glyph-name="parenright" unicode=")" horiz-adv-x="272" 
d="M-50 -200c153 227 201 366 201 576c0 104 -20 218 -47 305l63 22c37 -90 68 -202 68 -325c0 -252 -73 -415 -228 -600z" />
    <glyph glyph-name="asterisk" unicode="*" horiz-adv-x="450" 
d="M106 373l114 116l-125 32l32 69l123 -46l20 152h77l-34 -151l139 43l3 -74l-134 -27l65 -118l-65 -42l-57 126l-113 -126z" />
    <glyph glyph-name="plus" unicode="+" 
d="M56 304h192v199h75v-199h195v-68h-195v-199h-75v199h-192v68z" />
    <glyph glyph-name="comma" unicode="," horiz-adv-x="220" 
d="M50 -112h-61l63 223h89z" />
    <glyph glyph-name="hyphen" unicode="-" horiz-adv-x="398" 
d="M334 304v-68h-258v68h258z" />
    <glyph glyph-name="period" unicode="." horiz-adv-x="230" 
d="M80 -7c-32 0 -55 25 -55 53c0 41 32 69 72 69c31 0 54 -24 54 -54c0 -40 -31 -68 -71 -68z" />
    <glyph glyph-name="slash" unicode="/" horiz-adv-x="346" 
d="M74 0h-82l316 676h85z" />
    <glyph glyph-name="zero" unicode="0" horiz-adv-x="589" 
d="M371 686c124 0 188 -102 188 -243c0 -257 -90 -453 -303 -453c-124 0 -187 100 -187 243c0 259 90 453 302 453zM265 62c138 0 209 153 209 381c0 103 -34 171 -112 171c-138 0 -209 -152 -209 -381c0 -103 34 -171 112 -171z" />
    <glyph glyph-name="one" unicode="1" horiz-adv-x="373" 
d="M168 0l104 587l-187 -75l-10 74l222 90h73l-120 -676h-82z" />
    <glyph glyph-name="two" unicode="2" horiz-adv-x="500" 
d="M317 686c107 0 174 -69 174 -166c0 -112 -73 -183 -169 -276l-181 -174h284l-12 -70h-400l11 62l245 232c86 82 136 141 136 223c0 57 -32 97 -92 97c-76 0 -121 -53 -134 -131h-80c16 119 92 203 218 203z" />
    <glyph glyph-name="three" unicode="3" horiz-adv-x="527" 
d="M364 344c49 -13 101 -58 101 -140c0 -125 -96 -214 -244 -214c-145 0 -200 79 -183 175h79c-11 -60 29 -103 109 -103c94 0 154 58 154 143c0 65 -48 107 -126 107h-59l12 70h59c91 0 160 49 160 138c0 54 -36 94 -102 94c-78 0 -125 -47 -135 -105h-82
c14 94 84 177 222 177c112 0 182 -67 182 -160c0 -107 -79 -167 -147 -182z" />
    <glyph glyph-name="four" unicode="4" horiz-adv-x="553" 
d="M500 148h-91l-26 -148h-82l26 148h-308l11 63l386 465h86l-81 -458h91zM339 218l59 331l-270 -331h211z" />
    <glyph glyph-name="five" unicode="5" horiz-adv-x="513" 
d="M464 254c0 -143 -91 -264 -251 -264c-148 0 -197 87 -179 189h78c-11 -65 21 -118 105 -118c107 0 161 90 161 187c0 65 -36 109 -105 109c-46 0 -84 -18 -118 -41l-69 8l102 352h331l-13 -70h-263l-60 -208c21 13 62 32 108 32c100 0 173 -61 173 -176z" />
    <glyph glyph-name="six" unicode="6" horiz-adv-x="552" 
d="M456 509c10 65 -27 105 -97 105c-101 0 -172 -105 -195 -259c25 31 91 74 161 74c109 0 179 -66 179 -177c0 -151 -93 -262 -252 -262c-129 0 -186 100 -186 233c0 241 95 463 297 463c134 0 189 -78 172 -177h-79zM153 265c-3 -14 -4 -34 -5 -47
c-1 -91 29 -157 107 -157c105 0 163 84 163 186c0 67 -37 112 -110 112c-64 0 -124 -45 -155 -94z" />
    <glyph glyph-name="seven" unicode="7" horiz-adv-x="455" 
d="M395 606h-298l12 70h396l-11 -62l-345 -614h-96z" />
    <glyph glyph-name="eight" unicode="8" horiz-adv-x="557" 
d="M243 -10c-119 0 -198 58 -198 167c0 117 83 179 159 196c-50 16 -89 56 -89 127c0 124 96 206 239 206c111 0 186 -58 186 -160c0 -104 -67 -162 -142 -181c46 -14 98 -53 98 -138c0 -138 -105 -217 -253 -217zM347 614c-87 0 -148 -50 -148 -137c0 -58 44 -93 107 -93
c80 0 148 47 148 136c0 60 -40 94 -107 94zM249 62c96 0 163 54 163 148c0 66 -49 103 -119 103c-87 0 -162 -53 -162 -148c0 -66 46 -103 118 -103z" />
    <glyph glyph-name="nine" unicode="9" horiz-adv-x="553" 
d="M136 167c-10 -65 26 -105 97 -105c101 0 172 105 195 259c-26 -31 -91 -74 -161 -74c-109 0 -179 66 -179 177c0 151 92 262 252 262c129 0 186 -100 186 -233c0 -241 -96 -463 -298 -463c-133 0 -189 78 -171 177h79zM438 411c4 14 5 34 6 47c1 91 -30 157 -108 157
c-104 0 -162 -84 -162 -186c0 -67 37 -112 110 -112c64 0 124 45 154 94z" />
    <glyph glyph-name="colon" unicode=":" horiz-adv-x="243" 
d="M146 349c-31 0 -52 23 -52 51c0 40 29 66 68 66c29 0 51 -23 51 -52c0 -38 -30 -65 -67 -65zM81 -7c-29 0 -50 23 -50 50c0 39 31 67 69 67c30 0 50 -22 50 -50c0 -39 -31 -67 -69 -67z" />
    <glyph glyph-name="semicolon" unicode=";" horiz-adv-x="239" 
d="M143 349c-30 0 -51 23 -51 51c0 40 30 66 67 66c30 0 52 -23 52 -52c0 -38 -30 -65 -68 -65zM56 -112h-60l63 223h88z" />
    <glyph glyph-name="less" unicode="&#x3c;" 
d="M75 309l393 166v-75l-323 -130l323 -130v-75l-393 166v78z" />
    <glyph glyph-name="equal" unicode="=" 
d="M482 421v-69h-393v69h393zM482 188v-68h-393v68h393z" />
    <glyph glyph-name="greater" unicode="&#x3e;" 
d="M496 231l-393 -166v75l323 130l-323 130v75l393 -166v-78z" />
    <glyph glyph-name="question" unicode="?" horiz-adv-x="433" 
d="M282 686c100 0 164 -61 164 -145c0 -157 -177 -184 -202 -329h-83c29 169 203 206 203 318c0 42 -27 82 -85 82c-59 0 -104 -36 -114 -90l-75 6c15 86 75 158 192 158zM164 -7c-29 0 -51 23 -51 50c0 39 31 67 69 67c30 0 51 -22 51 -50c0 -39 -30 -67 -69 -67z" />
    <glyph glyph-name="at" unicode="@" horiz-adv-x="873" 
d="M490 77c-34 -34 -83 -60 -142 -60c-72 0 -120 48 -120 135c0 147 111 296 242 296c57 0 90 -23 106 -51l15 42h69l-97 -284c-18 -54 -17 -82 14 -82c85 0 198 120 198 324c0 104 -61 195 -226 195c-275 0 -444 -235 -444 -485c0 -132 67 -221 221 -221
c69 0 134 15 191 42l5 -59c-56 -25 -121 -46 -199 -46c-193 0 -285 115 -285 281c0 293 206 551 514 551c202 0 290 -120 290 -257c0 -239 -149 -386 -273 -386c-60 0 -82 26 -79 65zM556 337c-14 22 -34 47 -82 47c-95 0 -173 -116 -173 -224c0 -53 25 -78 63 -78
c48 0 93 26 121 53z" />
    <glyph glyph-name="A" unicode="A" horiz-adv-x="585" 
d="M419 179h-263l-90 -179h-94l350 676h99l112 -676h-88zM191 250h218l-49 340z" />
    <glyph glyph-name="B" unicode="B" horiz-adv-x="565" 
d="M161 676h196c111 0 178 -51 178 -147c0 -97 -55 -162 -126 -178c56 -13 102 -58 102 -139c0 -157 -101 -212 -265 -212h-204zM299 385c116 0 147 65 147 137c0 50 -30 83 -108 83h-106l-39 -220h106zM255 71c125 0 170 49 170 145c0 58 -38 98 -126 98h-118l-43 -243h117
z" />
    <glyph glyph-name="C" unicode="C" horiz-adv-x="569" 
d="M155 253c0 -106 41 -189 143 -189c61 0 118 34 154 86l63 -45c-50 -67 -121 -115 -225 -115c-149 0 -223 105 -223 261c0 273 122 435 330 435c100 0 172 -48 196 -117l-69 -41c-17 53 -68 84 -130 84c-151 0 -239 -134 -239 -359z" />
    <glyph glyph-name="D" unicode="D" horiz-adv-x="631" 
d="M161 676h175c178 0 267 -83 267 -235c0 -315 -134 -441 -370 -441h-191zM233 71c165 0 283 87 283 364c0 108 -53 170 -189 170h-95l-94 -534h95z" />
    <glyph glyph-name="E" unicode="E" horiz-adv-x="519" 
d="M445 71l-13 -71h-390l119 676h387l-12 -71h-304l-39 -224h269l-13 -71h-269l-42 -239h307z" />
    <glyph glyph-name="F" unicode="F" horiz-adv-x="503" 
d="M161 676h380l-13 -71h-296l-43 -243h253l-13 -71h-253l-50 -291h-84z" />
    <glyph glyph-name="G" unicode="G" horiz-adv-x="626" 
d="M358 361h240c0 -12 -2 -27 -2 -33c-10 -152 -82 -338 -302 -338c-148 0 -226 101 -226 258c0 289 132 438 343 438c107 0 169 -47 195 -114l-67 -41c-23 54 -62 81 -133 81c-159 0 -252 -125 -252 -362c0 -113 45 -187 146 -187c139 0 195 118 204 225h-158z" />
    <glyph glyph-name="H" unicode="H" horiz-adv-x="651" 
d="M565 676h83l-120 -676h-83l56 319h-320l-55 -319h-84l119 676h84l-51 -286h320z" />
    <glyph glyph-name="I" unicode="I" horiz-adv-x="248" 
d="M161 676h84l-119 -676h-84z" />
    <glyph glyph-name="J" unicode="J" horiz-adv-x="470" 
d="M67 132c17 -48 46 -68 98 -68c89 0 129 56 149 173l78 439h80l-78 -445c-29 -164 -101 -241 -234 -241c-87 0 -143 41 -162 101z" />
    <glyph glyph-name="K" unicode="K" horiz-adv-x="583" 
d="M166 227l-40 -227h-84l119 676h84l-59 -328l350 328l109 -1l-294 -281l173 -394h-96l-144 338z" />
    <glyph glyph-name="L" unicode="L" horiz-adv-x="457" 
d="M411 71l-13 -71h-356l119 676h84l-107 -605h273z" />
    <glyph glyph-name="M" unicode="M" horiz-adv-x="824" 
d="M657 676h116l-37 -676h-82l36 577l-274 -577h-91l-67 576l-171 -576h-81l205 676h111l65 -569z" />
    <glyph glyph-name="N" unicode="N" horiz-adv-x="656" 
d="M570 676h84l-120 -676h-91l-222 541l-94 -541h-86l121 676h92l221 -538z" />
    <glyph glyph-name="O" unicode="O" horiz-adv-x="643" 
d="M615 432c0 -230 -85 -442 -329 -442c-147 0 -218 102 -218 252c0 233 83 444 328 444c153 0 219 -106 219 -254zM154 242c0 -102 37 -178 138 -178c138 0 237 110 237 368c0 101 -37 180 -139 180c-181 0 -236 -181 -236 -370z" />
    <glyph glyph-name="P" unicode="P" horiz-adv-x="546" 
d="M172 267l-46 -267h-84l119 676h202c125 0 188 -66 188 -170c0 -143 -81 -239 -255 -239h-124zM184 338h117c129 0 163 78 163 165c0 58 -31 102 -115 102h-117z" />
    <glyph glyph-name="Q" unicode="Q" horiz-adv-x="638" 
d="M618 432c0 -133 -28 -259 -99 -343l39 -50l-57 -50l-38 50c-45 -31 -103 -49 -174 -49c-146 0 -218 102 -218 252c0 233 83 444 328 444c153 0 219 -106 219 -254zM295 64c45 0 87 12 121 37l-136 181l55 47l133 -173c40 59 64 150 64 276c0 101 -36 180 -138 180
c-182 0 -237 -181 -237 -370c0 -102 37 -178 138 -178z" />
    <glyph glyph-name="R" unicode="R" horiz-adv-x="574" 
d="M161 676h219c129 0 196 -61 196 -159c0 -128 -80 -201 -199 -213l126 -304h-92l-118 298h-115l-53 -298h-83zM488 513c0 56 -33 92 -123 92h-133l-42 -236h133c121 0 165 55 165 144z" />
    <glyph glyph-name="S" unicode="S" horiz-adv-x="526" 
d="M466 542c-18 45 -63 70 -128 70c-93 0 -145 -61 -145 -137c0 -45 29 -71 77 -88l76 -27c67 -25 128 -63 128 -153c0 -122 -90 -217 -250 -217c-146 0 -189 74 -204 129l66 42c14 -51 41 -98 143 -98c103 0 157 57 157 136c0 50 -37 74 -84 92l-78 27
c-66 25 -119 68 -119 150c0 112 81 218 238 218c105 0 168 -47 189 -99z" />
    <glyph glyph-name="T" unicode="T" horiz-adv-x="514" 
d="M561 676l-12 -71h-184l-107 -605h-84l107 605h-184l12 71h452z" />
    <glyph glyph-name="U" unicode="U" horiz-adv-x="626" 
d="M281 -10c-143 0 -233 73 -200 262l75 424h84l-75 -425c-24 -134 20 -187 120 -187c99 0 163 52 187 187l74 425h84l-75 -424c-33 -190 -135 -262 -274 -262z" />
    <glyph glyph-name="V" unicode="V" horiz-adv-x="572" 
d="M635 676l-336 -676h-107l-96 676h87l74 -588l285 588h93z" />
    <glyph glyph-name="W" unicode="W" horiz-adv-x="925" 
d="M587 676l51 -578l252 578h92l-303 -676h-104l-54 561l-251 -561h-104l-65 676h86l48 -578l255 578h97z" />
    <glyph glyph-name="X" unicode="X" horiz-adv-x="551" 
d="M199 676l104 -269l200 269h101l-250 -327l140 -349h-90l-112 287l-212 -287h-101l263 349l-135 327h92z" />
    <glyph glyph-name="Y" unicode="Y" horiz-adv-x="552" 
d="M194 0l47 270l-148 406h89l111 -327l225 327h100l-293 -406l-47 -270h-84z" />
    <glyph glyph-name="Z" unicode="Z" horiz-adv-x="494" 
d="M516 612l-403 -541h314l-13 -71h-418l11 63l403 542h-290l12 71h395z" />
    <glyph glyph-name="bracketleft" unicode="[" horiz-adv-x="292" 
d="M346 690l-12 -67h-115l-136 -772h115l-11 -67h-197l159 906h197z" />
    <glyph glyph-name="backslash" unicode="\" horiz-adv-x="337" 
d="M109 676h79l78 -676h-76z" />
    <glyph glyph-name="bracketright" unicode="]" horiz-adv-x="292" 
d="M305 690l-160 -906h-196l13 67h115l136 772h-115l11 67h196z" />
    <glyph glyph-name="asciicircum" unicode="^" 
d="M363 699l186 -239l-56 -54l-142 186l-208 -185l-51 53z" />
    <glyph glyph-name="underscore" unicode="_" horiz-adv-x="478" 
d="M386 -31l-10 -57h-380l10 57h380z" />
    <glyph glyph-name="grave" unicode="`" horiz-adv-x="570" 
d="M419 696l44 -155h-67l-56 155h79z" />
    <glyph glyph-name="a" unicode="a" horiz-adv-x="502" 
d="M396 456h78l-80 -456h-75l8 41c-31 -28 -71 -51 -128 -51c-104 0 -156 67 -156 181c0 186 87 295 225 295c60 0 101 -27 121 -54zM124 178c0 -68 25 -116 96 -116c54 0 94 27 117 56l39 219c-13 25 -42 56 -97 56c-107 0 -155 -91 -155 -215z" />
    <glyph glyph-name="b" unicode="b" horiz-adv-x="502" 
d="M179 413c26 29 71 53 125 53c105 0 156 -69 156 -175c0 -171 -74 -301 -232 -301c-65 0 -106 27 -126 56l-30 -46h-44l122 690h78zM379 280c0 64 -26 113 -98 113c-57 0 -96 -33 -115 -57l-38 -214c11 -28 41 -60 95 -60c110 0 156 93 156 218z" />
    <glyph glyph-name="c" unicode="c" horiz-adv-x="438" 
d="M42 171c0 159 76 295 234 295c77 0 132 -32 154 -92l-60 -39c-15 41 -48 61 -94 61c-113 0 -153 -113 -153 -218c0 -66 30 -118 97 -118c45 0 84 21 113 62l53 -42c-41 -58 -101 -90 -175 -90c-113 0 -169 75 -169 181z" />
    <glyph glyph-name="d" unicode="d" horiz-adv-x="502" 
d="M438 690h78l-122 -690h-75l8 41c-31 -28 -71 -51 -128 -51c-104 0 -156 67 -156 181c0 186 87 295 225 295c60 0 101 -27 121 -54zM124 178c0 -68 25 -116 96 -116c54 0 94 27 117 56l39 219c-13 25 -42 56 -97 56c-107 0 -155 -91 -155 -215z" />
    <glyph glyph-name="e" unicode="e" horiz-adv-x="455" 
d="M217 58c42 0 88 16 126 50l30 -56c-33 -33 -93 -62 -160 -62c-129 0 -172 80 -172 176c0 166 88 300 230 300c102 0 154 -67 154 -156c0 -42 -13 -80 -23 -106h-280c-12 -86 11 -146 95 -146zM344 264c2 7 7 18 7 46c0 53 -29 90 -82 90c-77 0 -119 -60 -137 -136h212z
" />
    <glyph glyph-name="f" unicode="f" horiz-adv-x="317" 
d="M356 622h-47c-50 0 -71 -30 -82 -93l-13 -73h126l-12 -68h-126l-106 -604h-78l107 604h-74l10 58l75 10l14 74c17 99 62 160 159 160h59z" />
    <glyph glyph-name="g" unicode="g" horiz-adv-x="499" 
d="M471 456l-86 -491c-17 -98 -94 -169 -205 -169c-116 0 -166 65 -154 138h70c-5 -36 19 -73 88 -73c67 0 111 40 122 101l13 79c-26 -27 -67 -51 -118 -51c-111 0 -158 71 -158 180c0 173 80 296 226 296c64 0 101 -27 120 -57l7 47h75zM124 178c0 -63 24 -116 95 -116
c46 0 88 25 114 57l39 218c-14 28 -45 56 -94 56c-108 0 -154 -98 -154 -215z" />
    <glyph glyph-name="h" unicode="h" horiz-adv-x="503" 
d="M150 690h78l-48 -278c30 28 84 54 140 54c108 0 149 -60 129 -175l-51 -291h-78l51 285c12 75 -6 108 -80 108c-50 0 -95 -25 -125 -53l-60 -340h-78z" />
    <glyph glyph-name="i" unicode="i" horiz-adv-x="214" 
d="M166 568c-27 0 -46 12 -46 42c0 46 30 67 65 67c25 0 46 -14 46 -45c0 -46 -34 -64 -65 -64zM109 456h78l-81 -456h-78z" />
    <glyph glyph-name="j" unicode="j" horiz-adv-x="214" 
d="M166 568c-27 0 -46 13 -46 42c0 46 29 67 65 67c24 0 46 -14 46 -45c0 -46 -33 -64 -65 -64zM-84 -169c64 25 93 63 107 141l85 484h79l-85 -476c-19 -108 -63 -171 -151 -206z" />
    <glyph glyph-name="k" unicode="k" horiz-adv-x="458" 
d="M316 0l-97 228l-85 -73l-28 -155h-78l122 690h78l-76 -432l226 198h106l-204 -176l119 -280h-83z" />
    <glyph glyph-name="l" unicode="l" horiz-adv-x="230" 
d="M226 690l-99 -562c-8 -44 -1 -58 28 -58h28l-12 -72h-41c-78 0 -95 45 -82 123l100 569h78z" />
    <glyph glyph-name="m" unicode="m" horiz-adv-x="778" 
d="M109 456h76l-8 -47c31 30 79 57 129 57c72 0 107 -27 128 -68c37 38 94 68 160 68c109 0 151 -56 131 -170l-52 -296h-78l52 291c13 72 -8 102 -75 102c-50 0 -91 -23 -120 -53l-60 -340h-77l59 335c-12 38 -40 58 -89 58s-88 -25 -119 -53l-60 -340h-78z" />
    <glyph glyph-name="n" unicode="n" horiz-adv-x="502" 
d="M109 456h76l-9 -48c31 31 84 58 144 58c106 0 150 -58 129 -175l-52 -291h-78l51 285c13 75 -5 108 -79 108c-50 0 -96 -23 -125 -53l-60 -340h-78z" />
    <glyph glyph-name="o" unicode="o" horiz-adv-x="488" 
d="M278 466c119 0 169 -78 169 -185c0 -145 -76 -291 -238 -291c-116 0 -167 78 -167 186c0 148 78 290 236 290zM213 61c108 0 154 116 154 220c0 70 -27 114 -93 114c-104 0 -152 -112 -152 -219c0 -69 27 -115 91 -115z" />
    <glyph glyph-name="p" unicode="p" horiz-adv-x="505" 
d="M68 -216h-78l119 672h74l-7 -42c27 26 70 52 128 52c105 0 157 -71 157 -182c0 -184 -83 -294 -225 -294c-63 0 -105 25 -123 53zM380 277c0 63 -24 116 -97 116c-54 0 -94 -26 -118 -56l-38 -219c13 -25 41 -56 97 -56c109 0 156 91 156 215z" />
    <glyph glyph-name="q" unicode="q" horiz-adv-x="500" 
d="M320 35c-26 -22 -61 -45 -118 -45c-106 0 -159 65 -159 178c0 164 71 298 227 298c69 0 109 -27 128 -56l30 46h44l-118 -672h-78zM124 175c0 -70 29 -113 97 -113c57 0 95 32 114 56l38 215c-12 28 -39 60 -93 60c-119 0 -156 -106 -156 -218z" />
    <glyph glyph-name="r" unicode="r" horiz-adv-x="331" 
d="M173 389c25 41 68 77 126 77c23 0 44 -3 58 -7l-22 -82c-16 5 -35 8 -53 8c-53 0 -94 -37 -123 -87l-53 -298h-78l81 456h75l-12 -67h1z" />
    <glyph glyph-name="s" unicode="s" horiz-adv-x="415" 
d="M345 355c-19 28 -55 48 -105 48c-67 0 -95 -38 -95 -79c0 -25 15 -45 55 -57l49 -16c73 -22 110 -57 110 -114c0 -80 -63 -147 -192 -147c-91 0 -139 42 -159 77l53 46c19 -30 46 -61 111 -61c60 0 106 26 106 77c0 30 -22 47 -67 60l-51 16c-62 20 -95 58 -95 110
c0 69 50 151 181 151c75 0 128 -34 150 -64z" />
    <glyph glyph-name="t" unicode="t" horiz-adv-x="323" 
d="M160 131c-9 -46 5 -69 45 -69c19 0 42 7 62 15l-5 -68c-22 -11 -53 -19 -83 -19c-88 0 -113 54 -99 133l47 265h-81l9 58l84 10l20 115l81 14l-23 -129h115l-12 -68h-115z" />
    <glyph glyph-name="u" unicode="u" horiz-adv-x="502" 
d="M393 0h-76l9 48c-31 -31 -84 -58 -144 -58c-106 0 -150 58 -129 175l52 291h78l-51 -285c-13 -75 5 -108 79 -108c50 0 97 23 126 53l59 340h78z" />
    <glyph glyph-name="v" unicode="v" horiz-adv-x="459" 
d="M478 456l-240 -456h-95l-82 456h82l57 -379l190 379h88z" />
    <glyph glyph-name="w" unicode="w" horiz-adv-x="726" 
d="M441 456l44 -369l171 369h87l-221 -456h-87l-49 355l-174 -355h-87l-61 456h81l41 -369l175 369h80z" />
    <glyph glyph-name="x" unicode="x" horiz-adv-x="438" 
d="M373 0h-87l-72 173l-134 -173h-96l185 229l-105 227h87l73 -172l134 172h96l-186 -228z" />
    <glyph glyph-name="y" unicode="y" horiz-adv-x="463" 
d="M216 122l179 334h91l-382 -672h-86l144 249l-104 423h85z" />
    <glyph glyph-name="z" unicode="z" horiz-adv-x="394" 
d="M381 401l-266 -333h211l-12 -68h-316l10 55l268 333h-199l11 68h303z" />
    <glyph glyph-name="braceleft" unicode="{" horiz-adv-x="289" 
d="M207 343c-13 -79 -38 -99 -68 -107c25 -16 42 -50 30 -108l-37 -208c-10 -59 7 -76 53 -76l-11 -60c-100 0 -138 41 -121 140l36 200c10 61 -11 82 -72 82l12 62c60 0 89 24 101 87l35 202c19 107 61 133 169 133l-12 -65c-47 0 -68 -17 -78 -75z" />
    <glyph glyph-name="bar" unicode="|" horiz-adv-x="253" 
d="M100 -216v906h57v-906h-57z" />
    <glyph glyph-name="braceright" unicode="}" horiz-adv-x="288" 
d="M85 133c14 79 40 101 69 109c-25 16 -43 48 -31 106l37 206c10 59 -6 76 -52 76l10 60c100 0 139 -44 121 -142l-35 -198c-11 -61 10 -82 71 -82l-11 -62c-61 0 -89 -20 -100 -82l-37 -208c-19 -106 -60 -132 -169 -132l12 65c47 0 69 17 79 75z" />
    <glyph glyph-name="asciitilde" unicode="~" 
d="M441 234c-19 18 -42 34 -71 34c-52 0 -110 -70 -180 -70c-37 0 -69 17 -82 31l21 77c17 -18 34 -35 67 -35c57 0 106 72 182 72c43 0 72 -22 86 -35z" />
    <glyph glyph-name="Agrave" unicode="&#xc0;" horiz-adv-x="585" 
d="M375 899l44 -155h-67l-56 155h79zM419 179h-263l-90 -179h-94l350 676h99l112 -676h-88zM191 250h218l-49 340z" />
    <glyph glyph-name="Aacute" unicode="&#xc1;" horiz-adv-x="585" 
d="M530 899l-110 -155h-76l100 155h86zM419 179h-263l-90 -179h-94l350 676h99l112 -676h-88zM191 250h218l-49 340z" />
    <glyph glyph-name="Acircumflex" unicode="&#xc2;" horiz-adv-x="585" 
d="M452 899l69 -155h-70l-46 101l-81 -101h-75l124 155h79zM419 179h-263l-90 -179h-94l350 676h99l112 -676h-88zM191 250h218l-49 340z" />
    <glyph glyph-name="Atilde" unicode="&#xc3;" horiz-adv-x="585" 
d="M518 776c-15 16 -35 26 -56 26c-39 0 -88 -39 -143 -39c-27 0 -50 13 -59 25l16 60c12 -15 28 -24 54 -24c41 0 83 38 142 38c33 0 51 -14 63 -24zM419 179h-263l-90 -179h-94l350 676h99l112 -676h-88zM191 250h218l-49 340z" />
    <glyph glyph-name="Adieresis" unicode="&#xc4;" horiz-adv-x="585" 
d="M303 761c-28 0 -47 15 -47 44c0 44 25 65 61 65c24 0 48 -16 48 -46c0 -46 -31 -63 -62 -63zM478 761c-28 0 -48 15 -48 44c0 44 26 65 62 65c24 0 48 -16 48 -46c0 -46 -31 -63 -62 -63zM419 179h-263l-90 -179h-94l350 676h99l112 -676h-88zM191 250h218l-49 340z" />
    <glyph glyph-name="Amacron" unicode="&#x100;" horiz-adv-x="585" 
d="M537 844l-12 -65h-267l11 65h268zM419 179h-263l-90 -179h-94l350 676h99l112 -676h-88zM191 250h218l-49 340z" />
    <glyph glyph-name="Abreve" unicode="&#x102;" horiz-adv-x="585" 
d="M541 887c-14 -79 -69 -138 -155 -138c-81 0 -122 59 -108 138h54c-5 -45 18 -78 63 -78c47 0 79 33 90 78h56zM419 179h-263l-90 -179h-94l350 676h99l112 -676h-88zM191 250h218l-49 340z" />
    <glyph glyph-name="Aring" unicode="&#xc5;" horiz-adv-x="585" 
d="M296 796c0 61 44 109 114 109c57 0 88 -38 88 -81c0 -60 -44 -109 -116 -109c-54 0 -86 38 -86 81zM347 801c0 -23 14 -40 41 -40c36 0 58 26 58 58c0 23 -14 40 -42 40c-34 0 -57 -25 -57 -58zM419 179h-263l-90 -179h-94l350 676h99l112 -676h-88zM191 250h218l-49 340
z" />
    <glyph glyph-name="Aringacute" unicode="&#x1fa;" horiz-adv-x="585" 
d="M288 798c0 51 35 94 91 103l67 79h80l-79 -85c26 -12 42 -40 42 -73c0 -59 -48 -106 -115 -106c-57 0 -86 39 -86 82zM338 801c0 -23 14 -40 40 -40c37 0 60 25 60 58c0 24 -15 41 -42 41c-35 0 -58 -26 -58 -59zM419 179h-263l-90 -179h-94l350 676h99l112 -676h-88z
M191 250h218l-49 340z" />
    <glyph glyph-name="Aogonek" unicode="&#x104;" horiz-adv-x="585" 
d="M412 -120c0 -15 9 -32 35 -32c19 0 42 11 64 26l-11 -69c-22 -11 -46 -21 -82 -21c-56 0 -90 33 -90 77c0 46 27 75 71 108l45 35l-25 175h-263l-90 -179h-94l350 676h99l112 -676l-80 -58c-28 -21 -41 -38 -41 -62zM191 250h218l-49 340z" />
    <glyph glyph-name="AE" unicode="&#xc6;" horiz-adv-x="910" 
d="M-28 0l532 676h435l-12 -71h-304l-39 -224h269l-13 -71h-269l-42 -241h306l-11 -69h-392l32 179h-250l-141 -179h-101zM476 249l63 351l-274 -351h211z" />
    <glyph glyph-name="AEacute" unicode="&#x1fc;" horiz-adv-x="910" 
d="M845 900l-110 -156h-75l99 156h86zM-28 0l532 676h435l-12 -71h-304l-39 -224h269l-13 -71h-269l-42 -241h306l-11 -69h-392l32 179h-250l-141 -179h-101zM476 249l63 351l-274 -351h211z" />
    <glyph glyph-name="Cacute" unicode="&#x106;" horiz-adv-x="569" 
d="M555 899l-110 -155h-75l99 155h86zM155 253c0 -106 41 -189 143 -189c61 0 118 34 154 86l63 -45c-50 -67 -121 -115 -225 -115c-149 0 -223 105 -223 261c0 273 122 435 330 435c100 0 172 -48 196 -117l-69 -41c-17 53 -68 84 -130 84c-151 0 -239 -134 -239 -359z" />
    <glyph glyph-name="Ccircumflex" unicode="&#x108;" horiz-adv-x="569" 
d="M480 900l69 -156h-70l-45 102l-82 -102h-75l125 156h78zM155 253c0 -106 41 -189 143 -189c61 0 118 34 154 86l63 -45c-50 -67 -121 -115 -225 -115c-149 0 -223 105 -223 261c0 273 122 435 330 435c100 0 172 -48 196 -117l-69 -41c-17 53 -68 84 -130 84
c-151 0 -239 -134 -239 -359z" />
    <glyph glyph-name="Ccaron" unicode="&#x10c;" horiz-adv-x="569" 
d="M373 744l-69 156h70l46 -102l81 102h75l-124 -156h-79zM155 253c0 -106 41 -189 143 -189c61 0 118 34 154 86l63 -45c-50 -67 -121 -115 -225 -115c-149 0 -223 105 -223 261c0 273 122 435 330 435c100 0 172 -48 196 -117l-69 -41c-17 53 -68 84 -130 84
c-151 0 -239 -134 -239 -359z" />
    <glyph glyph-name="Cdotaccent" unicode="&#x10a;" horiz-adv-x="569" 
d="M418 761c-26 0 -48 14 -48 45c0 46 28 65 64 65c24 0 46 -17 46 -47c0 -45 -30 -63 -62 -63zM155 253c0 -106 41 -189 143 -189c61 0 118 34 154 86l63 -45c-50 -67 -121 -115 -225 -115c-149 0 -223 105 -223 261c0 273 122 435 330 435c100 0 172 -48 196 -117l-69 -41
c-17 53 -68 84 -130 84c-151 0 -239 -134 -239 -359z" />
    <glyph glyph-name="Ccedilla" unicode="&#xc7;" horiz-adv-x="569" 
d="M394 612c-151 0 -239 -134 -239 -359c0 -106 41 -189 143 -189c61 0 118 34 154 86l63 -45c-48 -64 -114 -110 -210 -115l-25 -46c42 0 73 -19 73 -65c0 -57 -42 -95 -112 -95c-33 0 -62 10 -82 22l10 55c18 -16 45 -26 73 -26c29 0 44 16 44 36c0 22 -17 28 -45 28h-35
l-2 6l45 88c-122 18 -182 117 -182 258c0 273 122 435 330 435c100 0 172 -48 196 -117l-69 -41c-17 53 -68 84 -130 84z" />
    <glyph glyph-name="Dcaron" unicode="&#x10e;" horiz-adv-x="631" 
d="M341 744l-70 156h70l46 -102l82 102h74l-123 -156h-79zM161 676h175c178 0 267 -83 267 -235c0 -315 -134 -441 -370 -441h-191zM233 71c165 0 283 87 283 364c0 108 -53 170 -189 170h-95l-94 -534h95z" />
    <glyph glyph-name="Dcroat" unicode="&#x110;" horiz-adv-x="637" 
d="M102 317h-63l10 57h64l53 302h175c178 0 268 -83 268 -235c0 -315 -134 -441 -371 -441h-191zM238 71c166 0 284 87 284 364c0 108 -54 170 -190 170h-95l-41 -231h110l-10 -57h-110l-43 -246h95z" />
    <glyph glyph-name="Eth" unicode="&#xd0;" horiz-adv-x="637" 
d="M102 317h-63l10 57h64l53 302h175c178 0 268 -83 268 -235c0 -315 -134 -441 -371 -441h-191zM238 71c166 0 284 87 284 364c0 108 -54 170 -190 170h-95l-41 -231h110l-10 -57h-110l-43 -246h95z" />
    <glyph glyph-name="Egrave" unicode="&#xc8;" horiz-adv-x="519" 
d="M364 900l44 -155h-67l-56 155h79zM445 71l-13 -71h-390l119 676h387l-12 -71h-304l-39 -224h269l-13 -71h-269l-42 -239h307z" />
    <glyph glyph-name="Eacute" unicode="&#xc9;" horiz-adv-x="519" 
d="M512 900l-110 -156h-75l99 156h86zM445 71l-13 -71h-390l119 676h387l-12 -71h-304l-39 -224h269l-13 -71h-269l-42 -239h307z" />
    <glyph glyph-name="Ecircumflex" unicode="&#xca;" horiz-adv-x="519" 
d="M435 900l68 -156h-70l-45 102l-82 -102h-75l125 156h79zM445 71l-13 -71h-390l119 676h387l-12 -71h-304l-39 -224h269l-13 -71h-269l-42 -239h307z" />
    <glyph glyph-name="Ecaron" unicode="&#x11a;" horiz-adv-x="519" 
d="M328 744l-69 156h70l45 -102l82 102h74l-123 -156h-79zM445 71l-13 -71h-390l119 676h387l-12 -71h-304l-39 -224h269l-13 -71h-269l-42 -239h307z" />
    <glyph glyph-name="Edieresis" unicode="&#xcb;" horiz-adv-x="519" 
d="M285 761c-28 0 -48 15 -48 45c0 44 26 65 62 65c24 0 48 -16 48 -46c0 -46 -31 -64 -62 -64zM460 761c-28 0 -48 15 -48 45c0 44 26 65 62 65c24 0 48 -16 48 -46c0 -46 -31 -64 -62 -64zM445 71l-13 -71h-390l119 676h387l-12 -71h-304l-39 -224h269l-13 -71h-269
l-42 -239h307z" />
    <glyph glyph-name="Emacron" unicode="&#x112;" horiz-adv-x="519" 
d="M519 844l-12 -65h-267l11 65h268zM445 71l-13 -71h-390l119 676h387l-12 -71h-304l-39 -224h269l-13 -71h-269l-42 -239h307z" />
    <glyph glyph-name="Ebreve" unicode="&#x114;" horiz-adv-x="519" 
d="M523 887c-14 -79 -69 -138 -155 -138c-81 0 -121 59 -108 138h54c-5 -45 18 -78 63 -78c47 0 79 33 90 78h56zM445 71l-13 -71h-390l119 676h387l-12 -71h-304l-39 -224h269l-13 -71h-269l-42 -239h307z" />
    <glyph glyph-name="Edotaccent" unicode="&#x116;" horiz-adv-x="519" 
d="M373 761c-26 0 -48 14 -48 45c0 46 28 65 64 65c24 0 46 -17 46 -47c0 -45 -30 -63 -62 -63zM445 71l-13 -71h-390l119 676h387l-12 -71h-304l-39 -224h269l-13 -71h-269l-42 -239h307z" />
    <glyph glyph-name="Eogonek" unicode="&#x118;" horiz-adv-x="520" 
d="M536 605h-304l-39 -224h269l-13 -71h-269l-42 -239h307l-13 -71l-80 -58c-28 -21 -41 -38 -41 -62c0 -15 9 -32 35 -32c19 0 42 11 64 26l-11 -69c-22 -11 -46 -21 -81 -21c-57 0 -90 33 -90 77c0 46 26 75 70 108l41 31h-297l119 676h387z" />
    <glyph glyph-name="Gcircumflex" unicode="&#x11c;" horiz-adv-x="626" 
d="M492 900l69 -156h-70l-46 102l-81 -102h-75l124 156h79zM358 361h240c0 -12 -2 -27 -2 -33c-10 -152 -82 -338 -302 -338c-148 0 -226 101 -226 258c0 289 132 438 343 438c107 0 169 -47 195 -114l-67 -41c-23 54 -62 81 -133 81c-159 0 -252 -125 -252 -362
c0 -113 45 -187 146 -187c139 0 195 118 204 225h-158z" />
    <glyph glyph-name="Gbreve" unicode="&#x11e;" horiz-adv-x="626" 
d="M584 887c-14 -79 -69 -138 -155 -138c-81 0 -121 59 -108 138h54c-5 -45 18 -78 63 -78c47 0 79 33 90 78h56zM358 361h240c0 -12 -2 -27 -2 -33c-10 -152 -82 -338 -302 -338c-148 0 -226 101 -226 258c0 289 132 438 343 438c107 0 169 -47 195 -114l-67 -41
c-23 54 -62 81 -133 81c-159 0 -252 -125 -252 -362c0 -113 45 -187 146 -187c139 0 195 118 204 225h-158z" />
    <glyph glyph-name="Gdotaccent" unicode="&#x120;" horiz-adv-x="626" 
d="M433 761c-27 0 -48 14 -48 45c0 46 27 65 64 65c23 0 46 -17 46 -47c0 -45 -30 -63 -62 -63zM358 361h240c0 -12 -2 -27 -2 -33c-10 -152 -82 -338 -302 -338c-148 0 -226 101 -226 258c0 289 132 438 343 438c107 0 169 -47 195 -114l-67 -41c-23 54 -62 81 -133 81
c-159 0 -252 -125 -252 -362c0 -113 45 -187 146 -187c139 0 195 118 204 225h-158z" />
    <glyph glyph-name="uni0122" unicode="&#x122;" horiz-adv-x="626" 
d="M358 361h240c0 -12 -2 -27 -2 -33c-10 -152 -82 -338 -302 -338c-148 0 -226 101 -226 258c0 289 132 438 343 438c107 0 169 -47 195 -114l-67 -41c-23 54 -62 81 -133 81c-159 0 -252 -125 -252 -362c0 -113 45 -187 146 -187c139 0 195 118 204 225h-158zM256 -216
h-62l50 148h89z" />
    <glyph glyph-name="Hcircumflex" unicode="&#x124;" horiz-adv-x="651" 
d="M483 900l69 -156h-70l-46 102l-81 -102h-75l124 156h79zM565 676h83l-120 -676h-83l56 319h-320l-55 -319h-84l119 676h84l-51 -286h320z" />
    <glyph glyph-name="Hbar" unicode="&#x126;" horiz-adv-x="652" 
d="M141 565l20 111h84l-20 -111h320l20 111h84l-20 -111h47l-11 -56h-46l-90 -509h-84l57 319h-320l-56 -319h-84l89 509h-43l10 56h43zM536 509h-321l-20 -119h320z" />
    <glyph glyph-name="Igrave" unicode="&#xcc;" horiz-adv-x="248" 
d="M206 900l44 -155h-67l-56 155h79zM161 676h84l-119 -676h-84z" />
    <glyph glyph-name="Iacute" unicode="&#xcd;" horiz-adv-x="248" 
d="M347 900l-110 -155h-75l99 155h86zM161 676h84l-119 -676h-84z" />
    <glyph glyph-name="Ibreve" unicode="&#x12c;" horiz-adv-x="248" 
d="M369 887c-14 -79 -69 -138 -154 -138c-82 0 -122 59 -109 138h54c-4 -45 18 -78 63 -78c47 0 79 33 90 78h56zM161 676h84l-119 -676h-84z" />
    <glyph glyph-name="Icircumflex" unicode="&#xce;" horiz-adv-x="248" 
d="M279 900l69 -155h-70l-46 101l-81 -101h-75l124 155h79zM161 676h84l-119 -676h-84z" />
    <glyph glyph-name="Itilde" unicode="&#x128;" horiz-adv-x="248" 
d="M342 777c-15 15 -35 25 -56 25c-39 0 -88 -38 -143 -38c-27 0 -50 12 -59 24l16 61c12 -16 28 -25 54 -25c41 0 83 39 142 39c33 0 51 -14 63 -25zM161 676h84l-119 -676h-84z" />
    <glyph glyph-name="Idieresis" unicode="&#xcf;" horiz-adv-x="248" 
d="M129 762c-28 0 -47 15 -47 44c0 44 25 65 61 65c24 0 48 -16 48 -46c0 -46 -31 -63 -62 -63zM304 762c-28 0 -48 15 -48 44c0 44 26 65 62 65c24 0 48 -16 48 -46c0 -46 -31 -63 -62 -63zM161 676h84l-119 -676h-84z" />
    <glyph glyph-name="Imacron" unicode="&#x12a;" horiz-adv-x="248" 
d="M367 844l-12 -65h-267l11 65h268zM161 676h84l-119 -676h-84z" />
    <glyph glyph-name="Idotaccent" unicode="&#x130;" horiz-adv-x="248" 
d="M219 762c-27 0 -48 13 -48 45c0 45 27 64 63 64c24 0 47 -17 47 -47c0 -44 -30 -62 -62 -62zM161 676h84l-119 -676h-84z" />
    <glyph glyph-name="Iogonek" unicode="&#x12e;" horiz-adv-x="248" 
d="M45 -58c-28 -21 -41 -38 -41 -62c0 -15 10 -32 35 -32c20 0 43 11 65 26l-12 -69c-21 -11 -46 -21 -81 -21c-56 0 -90 33 -90 77c0 46 27 75 71 108l51 39l118 668h84l-119 -676z" />
    <glyph glyph-name="Jcircumflex" unicode="&#x134;" horiz-adv-x="470" 
d="M510 899l68 -155h-69l-46 101l-81 -101h-76l125 155h79zM67 132c17 -48 46 -68 98 -68c89 0 129 56 149 173l78 439h80l-78 -445c-29 -164 -101 -241 -234 -241c-87 0 -143 41 -162 101z" />
    <glyph glyph-name="uni0136" unicode="&#x136;" horiz-adv-x="583" 
d="M166 227l-40 -227h-84l119 676h84l-59 -328l350 328l109 -1l-294 -281l173 -394h-96l-144 338zM194 -216h-61l50 148h89z" />
    <glyph glyph-name="Lacute" unicode="&#x139;" horiz-adv-x="457" 
d="M346 899l-110 -155h-75l99 155h86zM411 71l-13 -71h-356l119 676h84l-107 -605h273z" />
    <glyph glyph-name="Lcaron" unicode="&#x13d;" horiz-adv-x="457" 
d="M411 71l-13 -71h-356l119 676h84l-107 -605h273zM445 528h-61l50 148h89z" />
    <glyph glyph-name="uni013B" unicode="&#x13b;" horiz-adv-x="457" 
d="M411 71l-13 -71h-356l119 676h84l-107 -605h273zM175 -216h-62l51 148h88z" />
    <glyph glyph-name="Lslash" unicode="&#x141;" horiz-adv-x="474" 
d="M429 71l-13 -71h-357l46 259l-82 -34l12 66l81 33l62 352h84l-55 -315l93 39l-12 -65l-93 -39l-39 -225h273z" />
    <glyph glyph-name="Ldot" unicode="&#x13f;" horiz-adv-x="457" 
d="M411 71l-13 -71h-356l119 676h84l-107 -605h273zM362 311c-32 0 -55 24 -55 53c0 41 32 69 72 69c31 0 54 -24 54 -54c0 -40 -32 -68 -71 -68z" />
    <glyph glyph-name="Nacute" unicode="&#x143;" horiz-adv-x="656" 
d="M564 900l-110 -155h-75l99 155h86zM570 676h84l-120 -676h-91l-222 541l-94 -541h-86l121 676h92l221 -538z" />
    <glyph glyph-name="Ncaron" unicode="&#x147;" horiz-adv-x="656" 
d="M380 744l-69 156h70l45 -102l82 102h74l-123 -156h-79zM570 676h84l-120 -676h-91l-222 541l-94 -541h-86l121 676h92l221 -538z" />
    <glyph glyph-name="Ntilde" unicode="&#xd1;" horiz-adv-x="656" 
d="M553 776c-15 16 -35 26 -57 26c-38 0 -87 -39 -142 -39c-28 0 -51 13 -59 25l16 60c12 -15 28 -24 54 -24c40 0 82 38 142 38c33 0 51 -14 63 -24zM570 676h84l-120 -676h-91l-222 541l-94 -541h-86l121 676h92l221 -538z" />
    <glyph glyph-name="uni0145" unicode="&#x145;" horiz-adv-x="656" 
d="M570 676h84l-120 -676h-91l-222 541l-94 -541h-86l121 676h92l221 -538zM248 -216h-61l50 148h89z" />
    <glyph glyph-name="Ograve" unicode="&#xd2;" horiz-adv-x="643" 
d="M407 899l44 -155h-67l-56 155h79zM615 432c0 -230 -85 -442 -329 -442c-147 0 -218 102 -218 252c0 233 83 444 328 444c153 0 219 -106 219 -254zM154 242c0 -102 37 -178 138 -178c138 0 237 110 237 368c0 101 -37 180 -139 180c-181 0 -236 -181 -236 -370z" />
    <glyph glyph-name="Oacute" unicode="&#xd3;" horiz-adv-x="643" 
d="M560 900l-110 -156h-75l99 156h86zM615 432c0 -230 -85 -442 -329 -442c-147 0 -218 102 -218 252c0 233 83 444 328 444c153 0 219 -106 219 -254zM154 242c0 -102 37 -178 138 -178c138 0 237 110 237 368c0 101 -37 180 -139 180c-181 0 -236 -181 -236 -370z" />
    <glyph glyph-name="Ocircumflex" unicode="&#xd4;" horiz-adv-x="643" 
d="M480 900l68 -156h-69l-46 102l-81 -102h-76l125 156h79zM615 432c0 -230 -85 -442 -329 -442c-147 0 -218 102 -218 252c0 233 83 444 328 444c153 0 219 -106 219 -254zM154 242c0 -102 37 -178 138 -178c138 0 237 110 237 368c0 101 -37 180 -139 180
c-181 0 -236 -181 -236 -370z" />
    <glyph glyph-name="Otilde" unicode="&#xd5;" horiz-adv-x="643" 
d="M546 776c-15 16 -35 26 -56 26c-39 0 -88 -39 -143 -39c-27 0 -50 13 -59 25l16 60c12 -15 28 -24 54 -24c41 0 83 38 142 38c33 0 51 -14 63 -24zM615 432c0 -230 -85 -442 -329 -442c-147 0 -218 102 -218 252c0 233 83 444 328 444c153 0 219 -106 219 -254zM154 242
c0 -102 37 -178 138 -178c138 0 237 110 237 368c0 101 -37 180 -139 180c-181 0 -236 -181 -236 -370z" />
    <glyph glyph-name="Odieresis" unicode="&#xd6;" horiz-adv-x="643" 
d="M331 761c-28 0 -48 15 -48 45c0 44 26 65 62 65c24 0 48 -16 48 -46c0 -46 -31 -64 -62 -64zM505 761c-28 0 -47 15 -47 45c0 44 25 65 62 65c23 0 48 -16 48 -46c0 -46 -31 -64 -63 -64zM615 432c0 -230 -85 -442 -329 -442c-147 0 -218 102 -218 252
c0 233 83 444 328 444c153 0 219 -106 219 -254zM154 242c0 -102 37 -178 138 -178c138 0 237 110 237 368c0 101 -37 180 -139 180c-181 0 -236 -181 -236 -370z" />
    <glyph glyph-name="Omacron" unicode="&#x14c;" horiz-adv-x="643" 
d="M566 844l-12 -65h-267l11 65h268zM615 432c0 -230 -85 -442 -329 -442c-147 0 -218 102 -218 252c0 233 83 444 328 444c153 0 219 -106 219 -254zM154 242c0 -102 37 -178 138 -178c138 0 237 110 237 368c0 101 -37 180 -139 180c-181 0 -236 -181 -236 -370z" />
    <glyph glyph-name="Obreve" unicode="&#x14e;" horiz-adv-x="643" 
d="M570 887c-13 -79 -69 -138 -154 -138c-82 0 -122 59 -108 138h54c-5 -45 17 -78 62 -78c47 0 80 33 91 78h55zM615 432c0 -230 -85 -442 -329 -442c-147 0 -218 102 -218 252c0 233 83 444 328 444c153 0 219 -106 219 -254zM154 242c0 -102 37 -178 138 -178
c138 0 237 110 237 368c0 101 -37 180 -139 180c-181 0 -236 -181 -236 -370z" />
    <glyph glyph-name="Ohungarumlaut" unicode="&#x150;" horiz-adv-x="643" 
d="M482 900l-110 -156h-73l99 156h84zM632 900l-111 -156h-73l98 156h86zM615 432c0 -230 -85 -442 -329 -442c-147 0 -218 102 -218 252c0 233 83 444 328 444c153 0 219 -106 219 -254zM154 242c0 -102 37 -178 138 -178c138 0 237 110 237 368c0 101 -37 180 -139 180
c-181 0 -236 -181 -236 -370z" />
    <glyph glyph-name="Oslash" unicode="&#xd8;" horiz-adv-x="644" 
d="M686 676l-96 -107c17 -39 25 -85 25 -137c0 -230 -85 -442 -329 -442c-70 0 -122 23 -158 63l-48 -53h-76l91 102c-18 39 -27 87 -27 140c0 233 83 444 328 444c73 0 126 -24 162 -65l49 55h79zM154 242c0 -24 2 -46 6 -67l340 381c-22 35 -57 56 -110 56
c-181 0 -236 -181 -236 -370zM529 432c0 22 -2 43 -6 63l-339 -379c22 -32 57 -52 108 -52c138 0 237 110 237 368z" />
    <glyph glyph-name="Oslashacute" unicode="&#x1fe;" horiz-adv-x="644" 
d="M560 900l-110 -156h-75l99 156h86zM686 676l-96 -107c17 -39 25 -85 25 -137c0 -230 -85 -442 -329 -442c-70 0 -122 23 -158 63l-48 -53h-76l91 102c-18 39 -27 87 -27 140c0 233 83 444 328 444c73 0 126 -24 162 -65l49 55h79zM154 242c0 -24 2 -46 6 -67l340 381
c-22 35 -57 56 -110 56c-181 0 -236 -181 -236 -370zM529 432c0 22 -2 43 -6 63l-339 -379c22 -32 57 -52 108 -52c138 0 237 110 237 368z" />
    <glyph glyph-name="OE" unicode="&#x152;" horiz-adv-x="846" 
d="M772 71l-13 -71h-390c-26 -6 -56 -10 -87 -10c-152 0 -214 111 -214 252c0 206 68 444 333 444c30 0 63 -4 88 -10h387l-13 -71h-304l-39 -224h269l-13 -71h-268l-43 -239h307zM292 64c32 0 63 4 90 12l92 519c-24 10 -52 17 -84 17c-174 0 -236 -175 -236 -371
c0 -101 37 -177 138 -177z" />
    <glyph glyph-name="Racute" unicode="&#x154;" horiz-adv-x="574" 
d="M507 899l-110 -155h-75l99 155h86zM161 676h219c129 0 196 -61 196 -159c0 -128 -80 -201 -199 -213l126 -304h-92l-118 298h-115l-53 -298h-83zM488 513c0 56 -33 92 -123 92h-133l-42 -236h133c121 0 165 55 165 144z" />
    <glyph glyph-name="Rcaron" unicode="&#x158;" horiz-adv-x="574" 
d="M322 744l-70 156h70l46 -102l81 102h75l-123 -156h-79zM161 676h219c129 0 196 -61 196 -159c0 -128 -80 -201 -199 -213l126 -304h-92l-118 298h-115l-53 -298h-83zM488 513c0 56 -33 92 -123 92h-133l-42 -236h133c121 0 165 55 165 144z" />
    <glyph glyph-name="uni0156" unicode="&#x156;" horiz-adv-x="574" 
d="M161 676h219c129 0 196 -61 196 -159c0 -128 -80 -201 -199 -213l126 -304h-92l-118 298h-115l-53 -298h-83zM488 513c0 56 -33 92 -123 92h-133l-42 -236h133c121 0 165 55 165 144zM193 -216h-61l50 148h88z" />
    <glyph glyph-name="Sacute" unicode="&#x15a;" horiz-adv-x="526" 
d="M498 900l-110 -155h-75l99 155h86zM466 542c-18 45 -63 70 -128 70c-93 0 -145 -61 -145 -137c0 -45 29 -71 77 -88l76 -27c67 -25 128 -63 128 -153c0 -122 -90 -217 -250 -217c-146 0 -189 74 -204 129l66 42c14 -51 41 -98 143 -98c103 0 157 57 157 136
c0 50 -37 74 -84 92l-78 27c-66 25 -119 68 -119 150c0 112 81 218 238 218c105 0 168 -47 189 -99z" />
    <glyph glyph-name="Scircumflex" unicode="&#x15c;" horiz-adv-x="526" 
d="M422 900l69 -156h-70l-46 102l-81 -102h-75l124 156h79zM466 542c-18 45 -63 70 -128 70c-93 0 -145 -61 -145 -137c0 -45 29 -71 77 -88l76 -27c67 -25 128 -63 128 -153c0 -122 -90 -217 -250 -217c-146 0 -189 74 -204 129l66 42c14 -51 41 -98 143 -98
c103 0 157 57 157 136c0 50 -37 74 -84 92l-78 27c-66 25 -119 68 -119 150c0 112 81 218 238 218c105 0 168 -47 189 -99z" />
    <glyph glyph-name="Scaron" unicode="&#x160;" horiz-adv-x="526" 
d="M315 744l-69 156h70l46 -102l81 102h74l-123 -156h-79zM466 542c-18 45 -63 70 -128 70c-93 0 -145 -61 -145 -137c0 -45 29 -71 77 -88l76 -27c67 -25 128 -63 128 -153c0 -122 -90 -217 -250 -217c-146 0 -189 74 -204 129l66 42c14 -51 41 -98 143 -98
c103 0 157 57 157 136c0 50 -37 74 -84 92l-78 27c-66 25 -119 68 -119 150c0 112 81 218 238 218c105 0 168 -47 189 -99z" />
    <glyph glyph-name="Scedilla" unicode="&#x15e;" horiz-adv-x="526" 
d="M346 360c67 -25 128 -63 128 -153c0 -117 -83 -209 -231 -217l-26 -46c42 0 73 -19 73 -65c0 -57 -42 -95 -112 -95c-33 0 -62 10 -82 22l10 55c19 -16 45 -26 73 -26c29 0 45 16 45 36c0 22 -18 28 -46 28h-34l-3 6l45 87c-116 12 -152 77 -166 127l66 42
c14 -51 41 -98 143 -98c103 0 157 57 157 136c0 50 -37 74 -84 92l-78 27c-66 25 -119 68 -119 150c0 112 81 218 238 218c105 0 168 -47 189 -99l-66 -45c-18 45 -63 70 -128 70c-93 0 -145 -61 -145 -137c0 -45 29 -71 77 -88z" />
    <glyph glyph-name="uni0218" unicode="&#x218;" horiz-adv-x="526" 
d="M466 542c-18 45 -63 70 -128 70c-93 0 -145 -61 -145 -137c0 -45 29 -71 77 -88l76 -27c67 -25 128 -63 128 -153c0 -122 -90 -217 -250 -217c-146 0 -189 74 -204 129l66 42c14 -51 41 -98 143 -98c103 0 157 57 157 136c0 50 -37 74 -84 92l-78 27
c-66 25 -119 68 -119 150c0 112 81 218 238 218c105 0 168 -47 189 -99zM183 -216h-61l50 148h88z" />
    <glyph glyph-name="Tcaron" unicode="&#x164;" horiz-adv-x="514" 
d="M310 744l-70 155h70l46 -102l81 102h75l-123 -155h-79zM561 676l-12 -71h-184l-107 -605h-84l107 605h-184l12 71h452z" />
    <glyph glyph-name="uni021A" unicode="&#x21a;" horiz-adv-x="514" 
d="M561 676l-12 -71h-184l-107 -605h-84l107 605h-184l12 71h452zM171 -216h-61l50 148h88z" />
    <glyph glyph-name="Tbar" unicode="&#x166;" horiz-adv-x="514" 
d="M238 364l43 241h-184l12 71h452l-12 -71h-184l-43 -241h87l-10 -56h-86l-55 -308h-84l55 308h-87l9 56h87z" />
    <glyph glyph-name="Thorn" unicode="&#xde;" horiz-adv-x="544" 
d="M149 136l-23 -136h-84l119 677h83l-23 -131h119c125 0 188 -67 188 -165c0 -148 -75 -245 -254 -245h-125zM162 208h117c127 0 162 78 162 165c0 58 -31 101 -115 101h-117z" />
    <glyph glyph-name="Ugrave" unicode="&#xd9;" horiz-adv-x="626" 
d="M399 899l44 -155h-67l-56 155h79zM281 -10c-143 0 -233 73 -200 262l75 424h84l-75 -425c-24 -134 20 -187 120 -187c99 0 163 52 187 187l74 425h84l-75 -424c-33 -190 -135 -262 -274 -262z" />
    <glyph glyph-name="Uacute" unicode="&#xda;" horiz-adv-x="626" 
d="M551 900l-109 -156h-76l100 156h85zM281 -10c-143 0 -233 73 -200 262l75 424h84l-75 -425c-24 -134 20 -187 120 -187c99 0 163 52 187 187l74 425h84l-75 -424c-33 -190 -135 -262 -274 -262z" />
    <glyph glyph-name="Ucircumflex" unicode="&#xdb;" horiz-adv-x="626" 
d="M472 900l69 -156h-70l-46 102l-81 -102h-75l124 156h79zM281 -10c-143 0 -233 73 -200 262l75 424h84l-75 -425c-24 -134 20 -187 120 -187c99 0 163 52 187 187l74 425h84l-75 -424c-33 -190 -135 -262 -274 -262z" />
    <glyph glyph-name="Utilde" unicode="&#x168;" horiz-adv-x="626" 
d="M537 776c-15 16 -35 26 -56 26c-39 0 -88 -39 -143 -39c-27 0 -50 13 -59 25l16 60c12 -15 28 -24 54 -24c41 0 83 38 142 38c33 0 51 -14 63 -24zM281 -10c-143 0 -233 73 -200 262l75 424h84l-75 -425c-24 -134 20 -187 120 -187c99 0 163 52 187 187l74 425h84
l-75 -424c-33 -190 -135 -262 -274 -262z" />
    <glyph glyph-name="Udieresis" unicode="&#xdc;" horiz-adv-x="626" 
d="M323 761c-28 0 -48 15 -48 45c0 44 26 65 62 65c24 0 48 -16 48 -46c0 -46 -31 -64 -62 -64zM497 761c-28 0 -47 15 -47 45c0 44 25 65 61 65c24 0 49 -16 49 -46c0 -46 -31 -64 -63 -64zM281 -10c-143 0 -233 73 -200 262l75 424h84l-75 -425c-24 -134 20 -187 120 -187
c99 0 163 52 187 187l74 425h84l-75 -424c-33 -190 -135 -262 -274 -262z" />
    <glyph glyph-name="Umacron" unicode="&#x16a;" horiz-adv-x="626" 
d="M556 844l-12 -65h-267l11 65h268zM281 -10c-143 0 -233 73 -200 262l75 424h84l-75 -425c-24 -134 20 -187 120 -187c99 0 163 52 187 187l74 425h84l-75 -424c-33 -190 -135 -262 -274 -262z" />
    <glyph glyph-name="Ubreve" unicode="&#x16c;" horiz-adv-x="626" 
d="M559 887c-14 -79 -69 -138 -154 -138c-82 0 -122 59 -108 138h53c-4 -45 18 -78 63 -78c47 0 80 33 90 78h56zM281 -10c-143 0 -233 73 -200 262l75 424h84l-75 -425c-24 -134 20 -187 120 -187c99 0 163 52 187 187l74 425h84l-75 -424c-33 -190 -135 -262 -274 -262z
" />
    <glyph glyph-name="Uring" unicode="&#x16e;" horiz-adv-x="626" 
d="M318 812c0 61 44 109 114 109c57 0 88 -38 88 -81c0 -59 -44 -109 -116 -109c-54 0 -86 39 -86 81zM369 817c0 -22 14 -40 40 -40c36 0 59 26 59 58c0 23 -14 40 -42 40c-34 0 -57 -25 -57 -58zM281 -10c-143 0 -233 73 -200 262l75 424h84l-75 -425
c-24 -134 20 -187 120 -187c99 0 163 52 187 187l74 425h84l-75 -424c-33 -190 -135 -262 -274 -262z" />
    <glyph glyph-name="Uhungarumlaut" unicode="&#x170;" horiz-adv-x="626" 
d="M475 900l-111 -156h-73l100 156h84zM624 900l-110 -156h-74l99 156h85zM281 -10c-143 0 -233 73 -200 262l75 424h84l-75 -425c-24 -134 20 -187 120 -187c99 0 163 52 187 187l74 425h84l-75 -424c-33 -190 -135 -262 -274 -262z" />
    <glyph glyph-name="Uogonek" unicode="&#x172;" horiz-adv-x="626" 
d="M546 676h84l-75 -424c-29 -166 -110 -242 -223 -258l-71 -52c-28 -21 -42 -38 -42 -62c0 -15 10 -32 36 -32c19 0 42 11 64 26l-11 -69c-22 -11 -46 -21 -82 -21c-56 0 -90 33 -90 77c0 46 27 75 71 108l31 23c-118 15 -187 91 -157 260l75 424h84l-75 -425
c-24 -134 20 -187 120 -187c99 0 163 52 187 187z" />
    <glyph glyph-name="Wacute" unicode="&#x1e82;" horiz-adv-x="925" 
d="M694 899l-110 -155h-75l99 155h86zM587 676l51 -578l252 578h92l-303 -676h-104l-54 561l-251 -561h-104l-65 676h86l48 -578l255 578h97z" />
    <glyph glyph-name="Wcircumflex" unicode="&#x174;" horiz-adv-x="925" 
d="M620 900l69 -156h-70l-46 102l-81 -102h-75l124 156h79zM587 676l51 -578l252 578h92l-303 -676h-104l-54 561l-251 -561h-104l-65 676h86l48 -578l255 578h97z" />
    <glyph glyph-name="Wdieresis" unicode="&#x1e84;" horiz-adv-x="925" 
d="M469 761c-28 0 -47 15 -47 45c0 44 26 65 62 65c24 0 48 -16 48 -46c0 -46 -31 -64 -63 -64zM644 761c-28 0 -47 15 -47 45c0 44 25 65 61 65c24 0 48 -16 48 -46c0 -46 -30 -64 -62 -64zM587 676l51 -578l252 578h92l-303 -676h-104l-54 561l-251 -561h-104l-65 676h86
l48 -578l255 578h97z" />
    <glyph glyph-name="Wgrave" unicode="&#x1e80;" horiz-adv-x="925" 
d="M540 900l45 -156h-68l-55 156h78zM587 676l51 -578l252 578h92l-303 -676h-104l-54 561l-251 -561h-104l-65 676h86l48 -578l255 578h97z" />
    <glyph glyph-name="Yacute" unicode="&#xdd;" horiz-adv-x="552" 
d="M510 916l-110 -155h-75l99 155h86zM194 0l47 270l-148 406h89l111 -327l225 327h100l-293 -406l-47 -270h-84z" />
    <glyph glyph-name="Ycircumflex" unicode="&#x176;" horiz-adv-x="552" 
d="M427 900l69 -156h-70l-45 102l-82 -102h-75l125 156h78zM194 0l47 270l-148 406h89l111 -327l225 327h100l-293 -406l-47 -270h-84z" />
    <glyph glyph-name="Ydieresis" unicode="&#x178;" horiz-adv-x="552" 
d="M274 761c-28 0 -48 15 -48 45c0 44 26 65 62 65c24 0 48 -16 48 -46c0 -46 -31 -64 -62 -64zM449 761c-28 0 -48 15 -48 45c0 44 26 65 62 65c24 0 48 -16 48 -46c0 -46 -31 -64 -62 -64zM194 0l47 270l-148 406h89l111 -327l225 327h100l-293 -406l-47 -270h-84z" />
    <glyph glyph-name="Ygrave" unicode="&#x1ef2;" horiz-adv-x="552" 
d="M348 900l44 -156h-67l-56 156h79zM194 0l47 270l-148 406h89l111 -327l225 327h100l-293 -406l-47 -270h-84z" />
    <glyph glyph-name="Zacute" unicode="&#x179;" horiz-adv-x="494" 
d="M481 916l-110 -155h-75l99 155h86zM516 612l-403 -541h314l-13 -71h-418l11 63l403 542h-290l12 71h395z" />
    <glyph glyph-name="Zcaron" unicode="&#x17d;" horiz-adv-x="494" 
d="M301 744l-70 156h70l46 -102l81 102h75l-123 -156h-79zM516 612l-403 -541h314l-13 -71h-418l11 63l403 542h-290l12 71h395z" />
    <glyph glyph-name="Zdotaccent" unicode="&#x17b;" horiz-adv-x="494" 
d="M346 761c-27 0 -48 14 -48 45c0 46 27 65 63 65c24 0 47 -17 47 -47c0 -45 -30 -63 -62 -63zM516 612l-403 -541h314l-13 -71h-418l11 63l403 542h-290l12 71h395z" />
    <glyph glyph-name="agrave" unicode="&#xe0;" horiz-adv-x="502" 
d="M306 696l44 -155h-67l-56 155h79zM396 456h78l-80 -456h-75l8 41c-31 -28 -71 -51 -128 -51c-104 0 -156 67 -156 181c0 186 87 295 225 295c60 0 101 -27 121 -54zM124 178c0 -68 25 -116 96 -116c54 0 94 27 117 56l39 219c-13 25 -42 56 -97 56
c-107 0 -155 -91 -155 -215z" />
    <glyph glyph-name="aacute" unicode="&#xe1;" horiz-adv-x="502" 
d="M446 696l-110 -155h-75l99 155h86zM396 456h78l-80 -456h-75l8 41c-31 -28 -71 -51 -128 -51c-104 0 -156 67 -156 181c0 186 87 295 225 295c60 0 101 -27 121 -54zM124 178c0 -68 25 -116 96 -116c54 0 94 27 117 56l39 219c-13 25 -42 56 -97 56
c-107 0 -155 -91 -155 -215z" />
    <glyph glyph-name="acircumflex" unicode="&#xe2;" horiz-adv-x="502" 
d="M378 696l69 -155h-70l-46 101l-81 -101h-75l124 155h79zM396 456h78l-80 -456h-75l8 41c-31 -28 -71 -51 -128 -51c-104 0 -156 67 -156 181c0 186 87 295 225 295c60 0 101 -27 121 -54zM124 178c0 -68 25 -116 96 -116c54 0 94 27 117 56l39 219c-13 25 -42 56 -97 56
c-107 0 -155 -91 -155 -215z" />
    <glyph glyph-name="atilde" unicode="&#xe3;" horiz-adv-x="502" 
d="M442 573c-15 15 -35 25 -56 25c-39 0 -88 -38 -143 -38c-27 0 -50 12 -59 24l16 61c12 -16 28 -25 54 -25c41 0 83 39 142 39c33 0 51 -14 63 -25zM396 456h78l-80 -456h-75l8 41c-31 -28 -71 -51 -128 -51c-104 0 -156 67 -156 181c0 186 87 295 225 295
c60 0 101 -27 121 -54zM124 178c0 -68 25 -116 96 -116c54 0 94 27 117 56l39 219c-13 25 -42 56 -97 56c-107 0 -155 -91 -155 -215z" />
    <glyph glyph-name="adieresis" unicode="&#xe4;" horiz-adv-x="502" 
d="M229 558c-28 0 -47 15 -47 44c0 44 25 65 61 65c24 0 48 -16 48 -46c0 -46 -31 -63 -62 -63zM404 558c-28 0 -48 15 -48 44c0 44 26 65 62 65c24 0 48 -16 48 -46c0 -46 -31 -63 -62 -63zM396 456h78l-80 -456h-75l8 41c-31 -28 -71 -51 -128 -51
c-104 0 -156 67 -156 181c0 186 87 295 225 295c60 0 101 -27 121 -54zM124 178c0 -68 25 -116 96 -116c54 0 94 27 117 56l39 219c-13 25 -42 56 -97 56c-107 0 -155 -91 -155 -215z" />
    <glyph glyph-name="amacron" unicode="&#x101;" horiz-adv-x="502" 
d="M467 640l-12 -65h-267l11 65h268zM396 456h78l-80 -456h-75l8 41c-31 -28 -71 -51 -128 -51c-104 0 -156 67 -156 181c0 186 87 295 225 295c60 0 101 -27 121 -54zM124 178c0 -68 25 -116 96 -116c54 0 94 27 117 56l39 219c-13 25 -42 56 -97 56
c-107 0 -155 -91 -155 -215z" />
    <glyph glyph-name="abreve" unicode="&#x103;" horiz-adv-x="502" 
d="M468 683c-14 -79 -69 -138 -154 -138c-82 0 -122 59 -109 138h54c-4 -45 18 -78 63 -78c47 0 79 33 90 78h56zM396 456h78l-80 -456h-75l8 41c-31 -28 -71 -51 -128 -51c-104 0 -156 67 -156 181c0 186 87 295 225 295c60 0 101 -27 121 -54zM124 178
c0 -68 25 -116 96 -116c54 0 94 27 117 56l39 219c-13 25 -42 56 -97 56c-107 0 -155 -91 -155 -215z" />
    <glyph glyph-name="aring" unicode="&#xe5;" horiz-adv-x="502" 
d="M222 609c0 60 44 108 114 108c57 0 88 -37 88 -81c0 -59 -44 -108 -117 -108c-53 0 -85 38 -85 81zM273 614c0 -23 14 -41 40 -41c36 0 59 26 59 58c0 24 -14 41 -42 41c-34 0 -57 -26 -57 -58zM396 456h78l-80 -456h-75l8 41c-31 -28 -71 -51 -128 -51
c-104 0 -156 67 -156 181c0 186 87 295 225 295c60 0 101 -27 121 -54zM124 178c0 -68 25 -116 96 -116c54 0 94 27 117 56l39 219c-13 25 -42 56 -97 56c-107 0 -155 -91 -155 -215z" />
    <glyph glyph-name="aringacute" unicode="&#x1fb;" horiz-adv-x="502" 
d="M219 600c0 54 36 99 97 105l58 73h81l-77 -81c26 -11 42 -40 42 -72c0 -60 -47 -107 -115 -107c-57 0 -86 39 -86 82zM269 603c0 -23 14 -40 40 -40c37 0 60 25 60 59c0 23 -15 41 -42 41c-35 0 -58 -26 -58 -60zM396 456h78l-80 -456h-75l8 41c-31 -28 -71 -51 -128 -51
c-104 0 -156 67 -156 181c0 186 87 295 225 295c60 0 101 -27 121 -54zM124 178c0 -68 25 -116 96 -116c54 0 94 27 117 56l39 219c-13 25 -42 56 -97 56c-107 0 -155 -91 -155 -215z" />
    <glyph glyph-name="aogonek" unicode="&#x105;" horiz-adv-x="502" 
d="M396 456h78l-80 -456h-9l-80 -58c-28 -21 -42 -38 -42 -62c0 -15 10 -32 35 -32c20 0 43 11 65 26l-12 -69c-21 -11 -46 -21 -81 -21c-56 0 -90 33 -90 77c0 46 29 77 75 108l63 46l4 -1l5 27c-31 -28 -71 -51 -128 -51c-104 0 -156 67 -156 181c0 186 87 295 225 295
c60 0 101 -27 121 -54zM220 62c54 0 94 27 117 56l39 219c-13 25 -42 56 -97 56c-107 0 -155 -91 -155 -215c0 -68 25 -116 96 -116z" />
    <glyph glyph-name="ae" unicode="&#xe6;" horiz-adv-x="699" 
d="M455 58c38 0 88 17 126 51l31 -57c-34 -34 -95 -62 -161 -62c-79 0 -126 27 -148 77c-44 -45 -107 -77 -184 -77c-79 0 -128 42 -128 106c0 113 89 155 226 169l77 9l8 45c9 54 -7 82 -75 82c-59 0 -95 -22 -101 -56l-4 -26h-68c1 10 2 20 4 32c12 67 70 115 178 115
c72 0 117 -22 129 -67c34 43 83 67 148 67c103 0 151 -75 151 -153c0 -42 -13 -83 -23 -109h-280c-14 -88 11 -146 94 -146zM582 264c2 7 8 18 8 46c0 53 -30 90 -82 90c-78 0 -118 -59 -136 -136h210zM72 107c0 -33 22 -54 65 -54c48 0 96 26 128 57l19 110l-72 -10
c-88 -12 -140 -39 -140 -103z" />
    <glyph glyph-name="aeacute" unicode="&#x1fd;" horiz-adv-x="699" 
d="M575 696l-110 -155h-75l99 155h86zM455 58c38 0 88 17 126 51l31 -57c-34 -34 -95 -62 -161 -62c-79 0 -126 27 -148 77c-44 -45 -107 -77 -184 -77c-79 0 -128 42 -128 106c0 113 89 155 226 169l77 9l8 45c9 54 -7 82 -75 82c-59 0 -95 -22 -101 -56l-4 -26h-68
c1 10 2 20 4 32c12 67 70 115 178 115c72 0 117 -22 129 -67c34 43 83 67 148 67c103 0 151 -75 151 -153c0 -42 -13 -83 -23 -109h-280c-14 -88 11 -146 94 -146zM582 264c2 7 8 18 8 46c0 53 -30 90 -82 90c-78 0 -118 -59 -136 -136h210zM72 107c0 -33 22 -54 65 -54
c48 0 96 26 128 57l19 110l-72 -10c-88 -12 -140 -39 -140 -103z" />
    <glyph glyph-name="cacute" unicode="&#x107;" horiz-adv-x="438" 
d="M415 696l-110 -155h-75l99 155h86zM42 171c0 159 76 295 234 295c77 0 132 -32 154 -92l-60 -39c-15 41 -48 61 -94 61c-113 0 -153 -113 -153 -218c0 -66 30 -118 97 -118c45 0 84 21 113 62l53 -42c-41 -58 -101 -90 -175 -90c-113 0 -169 75 -169 181z" />
    <glyph glyph-name="ccircumflex" unicode="&#x109;" horiz-adv-x="438" 
d="M368 696l69 -155h-70l-45 101l-82 -101h-75l124 155h79zM42 171c0 159 76 295 234 295c77 0 132 -32 154 -92l-60 -39c-15 41 -48 61 -94 61c-113 0 -153 -113 -153 -218c0 -66 30 -118 97 -118c45 0 84 21 113 62l53 -42c-41 -58 -101 -90 -175 -90
c-113 0 -169 75 -169 181z" />
    <glyph glyph-name="ccaron" unicode="&#x10d;" horiz-adv-x="438" 
d="M262 541l-69 155h70l46 -102l81 102h75l-124 -155h-79zM42 171c0 159 76 295 234 295c77 0 132 -32 154 -92l-60 -39c-15 41 -48 61 -94 61c-113 0 -153 -113 -153 -218c0 -66 30 -118 97 -118c45 0 84 21 113 62l53 -42c-41 -58 -101 -90 -175 -90
c-113 0 -169 75 -169 181z" />
    <glyph glyph-name="cdotaccent" unicode="&#x10b;" horiz-adv-x="438" 
d="M309 558c-27 0 -48 13 -48 45c0 45 27 64 64 64c23 0 46 -17 46 -47c0 -44 -30 -62 -62 -62zM42 171c0 159 76 295 234 295c77 0 132 -32 154 -92l-60 -39c-15 41 -48 61 -94 61c-113 0 -153 -113 -153 -218c0 -66 30 -118 97 -118c45 0 84 21 113 62l53 -42
c-41 -58 -101 -90 -175 -90c-113 0 -169 75 -169 181z" />
    <glyph glyph-name="ccedilla" unicode="&#xe7;" horiz-adv-x="438" 
d="M220 60c45 0 84 21 113 62l53 -42c-36 -51 -87 -82 -149 -89l-26 -47c42 0 73 -19 73 -65c0 -57 -42 -95 -112 -95c-32 0 -61 10 -82 22l10 55c19 -16 46 -26 73 -26c29 0 45 16 45 36c0 22 -18 28 -46 28h-34l-3 6l45 87c-92 13 -138 83 -138 179c0 159 76 295 234 295
c77 0 132 -32 154 -92l-60 -39c-15 41 -48 61 -94 61c-113 0 -153 -113 -153 -218c0 -66 30 -118 97 -118z" />
    <glyph glyph-name="dcaron" unicode="&#x10f;" horiz-adv-x="502" 
d="M438 690h78l-122 -690h-75l8 41c-31 -28 -71 -51 -128 -51c-104 0 -156 67 -156 181c0 186 87 295 225 295c60 0 101 -27 121 -54zM600 542h-61l50 148h88zM124 178c0 -68 25 -116 96 -116c54 0 94 27 117 56l39 219c-13 25 -42 56 -97 56c-107 0 -155 -91 -155 -215z
" />
    <glyph glyph-name="dcroat" unicode="&#x111;" horiz-adv-x="502" 
d="M556 590l-10 -56h-58l-94 -534h-75l8 41c-31 -28 -71 -51 -128 -51c-104 0 -156 67 -156 181c0 186 87 295 225 295c60 0 101 -27 121 -54l22 122h-103l10 56h102l18 100h78l-18 -100h58zM337 118l39 219c-13 25 -42 56 -97 56c-107 0 -155 -91 -155 -215
c0 -68 25 -116 96 -116c54 0 94 27 117 56z" />
    <glyph glyph-name="eth" unicode="&#xf0;" horiz-adv-x="518" 
d="M524 590l-61 -27c13 -46 21 -99 21 -156c0 -222 -82 -417 -270 -417c-116 0 -172 73 -172 181c0 168 91 276 224 276c84 0 120 -46 140 -88c6 60 0 119 -16 171l-80 -35l-19 52l79 35c-19 41 -44 77 -74 108h99c18 -19 35 -45 49 -76l62 28zM219 59c97 0 150 92 168 198
c-11 59 -49 116 -116 116c-105 0 -150 -94 -150 -196c0 -65 27 -118 98 -118z" />
    <glyph glyph-name="egrave" unicode="&#xe8;" horiz-adv-x="455" 
d="M282 696l44 -155h-67l-56 155h79zM217 58c42 0 88 16 126 50l30 -56c-33 -33 -93 -62 -160 -62c-129 0 -172 80 -172 176c0 166 88 300 230 300c102 0 154 -67 154 -156c0 -42 -13 -80 -23 -106h-280c-12 -86 11 -146 95 -146zM344 264c2 7 7 18 7 46c0 53 -29 90 -82 90
c-77 0 -119 -60 -137 -136h212z" />
    <glyph glyph-name="eacute" unicode="&#xe9;" horiz-adv-x="455" 
d="M436 696l-110 -155h-75l99 155h86zM217 58c42 0 88 16 126 50l30 -56c-33 -33 -93 -62 -160 -62c-129 0 -172 80 -172 176c0 166 88 300 230 300c102 0 154 -67 154 -156c0 -42 -13 -80 -23 -106h-280c-12 -86 11 -146 95 -146zM344 264c2 7 7 18 7 46
c0 53 -29 90 -82 90c-77 0 -119 -60 -137 -136h212z" />
    <glyph glyph-name="ecircumflex" unicode="&#xea;" horiz-adv-x="455" 
d="M362 696l68 -155h-69l-46 101l-82 -101h-75l125 155h79zM217 58c42 0 88 16 126 50l30 -56c-33 -33 -93 -62 -160 -62c-129 0 -172 80 -172 176c0 166 88 300 230 300c102 0 154 -67 154 -156c0 -42 -13 -80 -23 -106h-280c-12 -86 11 -146 95 -146zM344 264
c2 7 7 18 7 46c0 53 -29 90 -82 90c-77 0 -119 -60 -137 -136h212z" />
    <glyph glyph-name="ecaron" unicode="&#x11b;" horiz-adv-x="455" 
d="M257 541l-70 155h70l46 -102l82 102h74l-123 -155h-79zM217 58c42 0 88 16 126 50l30 -56c-33 -33 -93 -62 -160 -62c-129 0 -172 80 -172 176c0 166 88 300 230 300c102 0 154 -67 154 -156c0 -42 -13 -80 -23 -106h-280c-12 -86 11 -146 95 -146zM344 264
c2 7 7 18 7 46c0 53 -29 90 -82 90c-77 0 -119 -60 -137 -136h212z" />
    <glyph glyph-name="edieresis" unicode="&#xeb;" horiz-adv-x="455" 
d="M214 558c-27 0 -47 15 -47 44c0 44 26 65 62 65c24 0 48 -16 48 -46c0 -46 -31 -63 -63 -63zM389 558c-28 0 -47 15 -47 44c0 44 25 65 61 65c24 0 48 -16 48 -46c0 -46 -30 -63 -62 -63zM217 58c42 0 88 16 126 50l30 -56c-33 -33 -93 -62 -160 -62
c-129 0 -172 80 -172 176c0 166 88 300 230 300c102 0 154 -67 154 -156c0 -42 -13 -80 -23 -106h-280c-12 -86 11 -146 95 -146zM344 264c2 7 7 18 7 46c0 53 -29 90 -82 90c-77 0 -119 -60 -137 -136h212z" />
    <glyph glyph-name="emacron" unicode="&#x113;" horiz-adv-x="455" 
d="M448 640l-12 -65h-267l11 65h268zM217 58c42 0 88 16 126 50l30 -56c-33 -33 -93 -62 -160 -62c-129 0 -172 80 -172 176c0 166 88 300 230 300c102 0 154 -67 154 -156c0 -42 -13 -80 -23 -106h-280c-12 -86 11 -146 95 -146zM344 264c2 7 7 18 7 46c0 53 -29 90 -82 90
c-77 0 -119 -60 -137 -136h212z" />
    <glyph glyph-name="ebreve" unicode="&#x115;" horiz-adv-x="455" 
d="M451 683c-14 -79 -70 -138 -155 -138c-81 0 -122 59 -108 138h54c-5 -45 18 -78 62 -78c47 0 80 33 91 78h56zM217 58c42 0 88 16 126 50l30 -56c-33 -33 -93 -62 -160 -62c-129 0 -172 80 -172 176c0 166 88 300 230 300c102 0 154 -67 154 -156c0 -42 -13 -80 -23 -106
h-280c-12 -86 11 -146 95 -146zM344 264c2 7 7 18 7 46c0 53 -29 90 -82 90c-77 0 -119 -60 -137 -136h212z" />
    <glyph glyph-name="edotaccent" unicode="&#x117;" horiz-adv-x="455" 
d="M306 558c-27 0 -48 13 -48 45c0 45 27 64 64 64c23 0 46 -17 46 -47c0 -44 -30 -62 -62 -62zM217 58c42 0 88 16 126 50l30 -56c-33 -33 -93 -62 -160 -62c-129 0 -172 80 -172 176c0 166 88 300 230 300c102 0 154 -67 154 -156c0 -42 -13 -80 -23 -106h-280
c-12 -86 11 -146 95 -146zM344 264c2 7 7 18 7 46c0 53 -29 90 -82 90c-77 0 -119 -60 -137 -136h212z" />
    <glyph glyph-name="eogonek" unicode="&#x119;" horiz-adv-x="455" 
d="M402 204h-280c-12 -86 11 -146 95 -146c42 0 88 16 126 50l29 -54l1 -2c-6 -6 -14 -12 -22 -18l-76 -75c-39 -37 -53 -54 -53 -78c0 -17 11 -33 35 -33c18 0 44 11 65 26l-12 -68c-21 -11 -48 -22 -83 -22c-56 0 -88 30 -88 75c0 44 28 72 82 123l9 9
c-6 -1 -11 -1 -17 -1c-129 0 -172 80 -172 176c0 166 88 300 230 300c102 0 154 -67 154 -156c0 -42 -13 -80 -23 -106zM269 400c-77 0 -119 -60 -137 -136h212c2 7 7 18 7 46c0 53 -29 90 -82 90z" />
    <glyph glyph-name="gcircumflex" unicode="&#x11d;" horiz-adv-x="499" 
d="M377 696l69 -155h-70l-46 101l-81 -101h-75l124 155h79zM471 456l-86 -491c-17 -98 -94 -169 -205 -169c-116 0 -166 65 -154 138h70c-5 -36 19 -73 88 -73c67 0 111 40 122 101l13 79c-26 -27 -67 -51 -118 -51c-111 0 -158 71 -158 180c0 173 80 296 226 296
c64 0 101 -27 120 -57l7 47h75zM124 178c0 -63 24 -116 95 -116c46 0 88 25 114 57l39 218c-14 28 -45 56 -94 56c-108 0 -154 -98 -154 -215z" />
    <glyph glyph-name="gbreve" unicode="&#x11f;" horiz-adv-x="499" 
d="M465 683c-13 -79 -69 -138 -154 -138c-81 0 -122 59 -108 138h54c-5 -45 18 -78 62 -78c47 0 80 33 91 78h55zM471 456l-86 -491c-17 -98 -94 -169 -205 -169c-116 0 -166 65 -154 138h70c-5 -36 19 -73 88 -73c67 0 111 40 122 101l13 79c-26 -27 -67 -51 -118 -51
c-111 0 -158 71 -158 180c0 173 80 296 226 296c64 0 101 -27 120 -57l7 47h75zM124 178c0 -63 24 -116 95 -116c46 0 88 25 114 57l39 218c-14 28 -45 56 -94 56c-108 0 -154 -98 -154 -215z" />
    <glyph glyph-name="gdotaccent" unicode="&#x121;" horiz-adv-x="499" 
d="M316 558c-27 0 -48 13 -48 45c0 45 27 64 63 64c24 0 47 -17 47 -47c0 -44 -30 -62 -62 -62zM471 456l-86 -491c-17 -98 -94 -169 -205 -169c-116 0 -166 65 -154 138h70c-5 -36 19 -73 88 -73c67 0 111 40 122 101l13 79c-26 -27 -67 -51 -118 -51
c-111 0 -158 71 -158 180c0 173 80 296 226 296c64 0 101 -27 120 -57l7 47h75zM124 178c0 -63 24 -116 95 -116c46 0 88 25 114 57l39 218c-14 28 -45 56 -94 56c-108 0 -154 -98 -154 -215z" />
    <glyph glyph-name="uni0123" unicode="&#x123;" horiz-adv-x="499" 
d="M357 727h62l-64 -175h-90zM471 456l-86 -491c-17 -98 -94 -169 -205 -169c-116 0 -166 65 -154 138h70c-5 -36 19 -73 88 -73c67 0 111 40 122 101l13 79c-26 -27 -67 -51 -118 -51c-111 0 -158 71 -158 180c0 173 80 296 226 296c64 0 101 -27 120 -57l7 47h75zM124 178
c0 -63 24 -116 95 -116c46 0 88 25 114 57l39 218c-14 28 -45 56 -94 56c-108 0 -154 -98 -154 -215z" />
    <glyph glyph-name="hcircumflex" unicode="&#x125;" horiz-adv-x="503" 
d="M416 889l69 -155h-70l-46 101l-81 -101h-75l124 155h79zM150 690h78l-48 -278c30 28 84 54 140 54c108 0 149 -60 129 -175l-51 -291h-78l51 285c12 75 -6 108 -80 108c-50 0 -95 -25 -125 -53l-60 -340h-78z" />
    <glyph glyph-name="hbar" unicode="&#x127;" horiz-adv-x="503" 
d="M320 466c108 0 149 -60 129 -175l-51 -291h-78l51 285c12 75 -6 108 -80 108c-50 0 -95 -25 -125 -53l-60 -340h-78l94 534h-56l9 56h57l18 100h78l-17 -100h102l-10 -56h-102l-21 -122c30 28 84 54 140 54z" />
    <glyph glyph-name="dotlessi" unicode="&#x131;" horiz-adv-x="214" 
d="M109 456h78l-81 -456h-78z" />
    <glyph glyph-name="igrave" unicode="&#xec;" horiz-adv-x="214" 
d="M156 696l44 -155h-68l-55 155h79zM109 456h78l-81 -456h-78z" />
    <glyph glyph-name="iacute" unicode="&#xed;" horiz-adv-x="215" 
d="M305 696l-110 -155h-75l99 155h86zM109 456h78l-81 -456h-78z" />
    <glyph glyph-name="ibreve" unicode="&#x12d;" horiz-adv-x="215" 
d="M318 683c-14 -79 -69 -138 -154 -138c-82 0 -122 59 -108 138h53c-4 -45 18 -78 63 -78c47 0 80 33 91 78h55zM109 456h78l-81 -456h-78z" />
    <glyph glyph-name="icircumflex" unicode="&#xee;" horiz-adv-x="215" 
d="M230 696l69 -155h-70l-46 101l-81 -101h-75l124 155h79zM109 456h78l-81 -456h-78z" />
    <glyph glyph-name="itilde" unicode="&#x129;" horiz-adv-x="215" 
d="M294 573c-15 15 -35 25 -56 25c-39 0 -88 -38 -143 -38c-27 0 -50 12 -59 24l16 61c12 -16 28 -25 54 -25c41 0 83 39 142 39c33 0 51 -14 63 -25zM109 456h78l-81 -456h-78z" />
    <glyph glyph-name="idieresis" unicode="&#xef;" horiz-adv-x="215" 
d="M80 558c-28 0 -48 15 -48 44c0 44 26 65 62 65c24 0 48 -16 48 -46c0 -46 -31 -63 -62 -63zM255 558c-28 0 -48 15 -48 44c0 44 26 65 62 65c24 0 48 -16 48 -46c0 -46 -31 -63 -62 -63zM109 456h78l-81 -456h-78z" />
    <glyph glyph-name="imacron" unicode="&#x12b;" horiz-adv-x="215" 
d="M313 640l-12 -65h-267l11 65h268zM109 456h78l-81 -456h-78z" />
    <glyph glyph-name="iogonek" unicode="&#x12f;" horiz-adv-x="215" 
d="M185 677c25 0 46 -14 46 -45c0 -46 -34 -64 -65 -64c-27 0 -46 12 -46 42c0 46 30 67 65 67zM30 13l79 443h78l-81 -456l-80 -58c-28 -21 -42 -38 -42 -62c0 -15 10 -32 36 -32c19 0 42 11 64 26l-11 -69c-22 -11 -46 -21 -82 -21c-56 0 -90 33 -90 77c0 46 27 75 71 108
z" />
    <glyph glyph-name="uni0237" unicode="&#x237;" horiz-adv-x="214" 
d="M-84 -169c64 25 93 63 107 141l85 484h79l-85 -476c-19 -108 -63 -171 -151 -206z" />
    <glyph glyph-name="jcircumflex" unicode="&#x135;" horiz-adv-x="215" 
d="M230 696l68 -155h-69l-46 101l-81 -101h-76l125 155h79zM-84 -169c64 25 93 63 107 141l85 484h79l-85 -476c-19 -108 -63 -171 -151 -206z" />
    <glyph glyph-name="uni0137" unicode="&#x137;" horiz-adv-x="458" 
d="M316 0l-97 228l-85 -73l-28 -155h-78l122 690h78l-76 -432l226 198h106l-204 -176l119 -280h-83zM157 -216h-61l50 148h89z" />
    <glyph glyph-name="kgreenlandic" unicode="&#x138;" horiz-adv-x="461" 
d="M315 0l-96 222l-87 -73l-26 -149h-78l81 456h78l-37 -204l233 204h106l-209 -181l119 -275h-84z" />
    <glyph glyph-name="lacute" unicode="&#x13a;" horiz-adv-x="230" 
d="M343 888l-110 -155h-75l99 155h86zM226 690l-99 -562c-8 -44 -1 -58 28 -58h28l-12 -72h-41c-78 0 -95 45 -82 123l100 569h78z" />
    <glyph glyph-name="lcaron" unicode="&#x13e;" horiz-adv-x="224" 
d="M229 690l-99 -562c-8 -44 -1 -58 29 -58h28l-13 -72h-41c-78 0 -95 45 -81 123l99 569h78zM323 542h-61l50 148h89z" />
    <glyph glyph-name="uni013C" unicode="&#x13c;" horiz-adv-x="224" 
d="M229 690l-99 -562c-9 -44 -2 -58 28 -58h28l-12 -72h-41c-78 0 -96 45 -82 123l100 569h78zM62 -216h-62l50 148h89z" />
    <glyph glyph-name="lslash" unicode="&#x142;" horiz-adv-x="252" 
d="M184 345l-38 -217c-8 -44 -1 -58 29 -58h27l-12 -72h-41c-78 0 -95 45 -82 123l33 189l-66 -28l12 66l66 28l55 314h78l-49 -279l71 30l-11 -66z" />
    <glyph glyph-name="ldot" unicode="&#x140;" horiz-adv-x="353" 
d="M229 690l-99 -562c-8 -44 -1 -58 29 -58h28l-13 -72h-41c-78 0 -95 45 -81 123l99 569h78zM301 305c-32 0 -55 24 -55 53c0 41 32 69 72 69c31 0 54 -24 54 -54c0 -40 -32 -68 -71 -68z" />
    <glyph glyph-name="nacute" unicode="&#x144;" horiz-adv-x="502" 
d="M447 696l-110 -155h-75l99 155h86zM109 456h76l-9 -48c31 31 84 58 144 58c106 0 150 -58 129 -175l-52 -291h-78l51 285c13 75 -5 108 -79 108c-50 0 -96 -23 -125 -53l-60 -340h-78z" />
    <glyph glyph-name="ncaron" unicode="&#x148;" horiz-adv-x="497" 
d="M274 541l-69 155h70l46 -102l81 102h75l-124 -155h-79zM112 456h76l-9 -48c32 31 85 58 144 58c107 0 151 -58 130 -175l-52 -291h-78l51 285c13 75 -5 108 -80 108c-50 0 -96 -23 -125 -53l-60 -340h-78z" />
    <glyph glyph-name="ntilde" unicode="&#xf1;" horiz-adv-x="497" 
d="M444 573c-15 15 -35 25 -57 25c-39 0 -88 -38 -142 -38c-28 0 -51 12 -60 24l16 61c12 -16 29 -25 54 -25c41 0 83 39 142 39c33 0 51 -14 63 -25zM109 456h76l-9 -48c31 31 84 58 144 58c106 0 150 -58 129 -175l-52 -291h-78l51 285c13 75 -5 108 -79 108
c-50 0 -96 -23 -125 -53l-60 -340h-78z" />
    <glyph glyph-name="uni0146" unicode="&#x146;" horiz-adv-x="497" 
d="M109 456h76l-9 -48c31 31 84 58 144 58c106 0 150 -58 129 -175l-52 -291h-78l51 285c13 75 -5 108 -79 108c-50 0 -96 -23 -125 -53l-60 -340h-78zM169 -216h-61l50 148h89z" />
    <glyph glyph-name="napostrophe" unicode="&#x149;" horiz-adv-x="502" 
d="M102 548h-61l50 148h88zM109 456h76l-9 -48c31 31 84 58 144 58c106 0 150 -58 129 -175l-52 -291h-78l51 285c13 75 -5 108 -79 108c-50 0 -96 -23 -125 -53l-60 -340h-78z" />
    <glyph glyph-name="ograve" unicode="&#xf2;" horiz-adv-x="488" 
d="M299 696l44 -155h-67l-56 155h79zM278 466c119 0 169 -78 169 -185c0 -145 -76 -291 -238 -291c-116 0 -167 78 -167 186c0 148 78 290 236 290zM213 61c108 0 154 116 154 220c0 70 -27 114 -93 114c-104 0 -152 -112 -152 -219c0 -69 27 -115 91 -115z" />
    <glyph glyph-name="oacute" unicode="&#xf3;" horiz-adv-x="482" 
d="M442 696l-110 -155h-75l99 155h86zM278 466c119 0 169 -78 169 -185c0 -145 -76 -291 -238 -291c-116 0 -167 78 -167 186c0 148 78 290 236 290zM213 61c108 0 154 116 154 220c0 70 -27 114 -93 114c-104 0 -152 -112 -152 -219c0 -69 27 -115 91 -115z" />
    <glyph glyph-name="ocircumflex" unicode="&#xf4;" horiz-adv-x="482" 
d="M368 696l68 -155h-69l-46 101l-81 -101h-76l125 155h79zM278 466c119 0 169 -78 169 -185c0 -145 -76 -291 -238 -291c-116 0 -167 78 -167 186c0 148 78 290 236 290zM213 61c108 0 154 116 154 220c0 70 -27 114 -93 114c-104 0 -152 -112 -152 -219
c0 -69 27 -115 91 -115z" />
    <glyph glyph-name="otilde" unicode="&#xf5;" horiz-adv-x="482" 
d="M435 573c-15 15 -35 25 -56 25c-39 0 -88 -38 -143 -38c-27 0 -50 12 -59 24l16 61c12 -16 29 -25 54 -25c41 0 83 39 142 39c33 0 51 -14 63 -25zM278 466c119 0 169 -78 169 -185c0 -145 -76 -291 -238 -291c-116 0 -167 78 -167 186c0 148 78 290 236 290zM213 61
c108 0 154 116 154 220c0 70 -27 114 -93 114c-104 0 -152 -112 -152 -219c0 -69 27 -115 91 -115z" />
    <glyph glyph-name="odieresis" unicode="&#xf6;" horiz-adv-x="482" 
d="M219 558c-28 0 -47 15 -47 44c0 44 25 65 61 65c24 0 48 -16 48 -46c0 -46 -31 -63 -62 -63zM394 558c-28 0 -48 15 -48 44c0 44 26 65 62 65c24 0 48 -16 48 -46c0 -46 -31 -63 -62 -63zM278 466c119 0 169 -78 169 -185c0 -145 -76 -291 -238 -291
c-116 0 -167 78 -167 186c0 148 78 290 236 290zM213 61c108 0 154 116 154 220c0 70 -27 114 -93 114c-104 0 -152 -112 -152 -219c0 -69 27 -115 91 -115z" />
    <glyph glyph-name="omacron" unicode="&#x14d;" horiz-adv-x="482" 
d="M452 640l-12 -65h-267l11 65h268zM278 466c119 0 169 -78 169 -185c0 -145 -76 -291 -238 -291c-116 0 -167 78 -167 186c0 148 78 290 236 290zM213 61c108 0 154 116 154 220c0 70 -27 114 -93 114c-104 0 -152 -112 -152 -219c0 -69 27 -115 91 -115z" />
    <glyph glyph-name="obreve" unicode="&#x14f;" horiz-adv-x="482" 
d="M456 683c-14 -79 -69 -138 -154 -138c-82 0 -122 59 -109 138h54c-4 -45 18 -78 63 -78c47 0 79 33 90 78h56zM278 466c119 0 169 -78 169 -185c0 -145 -76 -291 -238 -291c-116 0 -167 78 -167 186c0 148 78 290 236 290zM213 61c108 0 154 116 154 220
c0 70 -27 114 -93 114c-104 0 -152 -112 -152 -219c0 -69 27 -115 91 -115z" />
    <glyph glyph-name="ohungarumlaut" unicode="&#x151;" horiz-adv-x="482" 
d="M367 696l-110 -155h-74l100 155h84zM516 696l-110 -155h-74l99 155h85zM278 466c119 0 169 -78 169 -185c0 -145 -76 -291 -238 -291c-116 0 -167 78 -167 186c0 148 78 290 236 290zM213 61c108 0 154 116 154 220c0 70 -27 114 -93 114c-104 0 -152 -112 -152 -219
c0 -69 27 -115 91 -115z" />
    <glyph glyph-name="oslash" unicode="&#xf8;" horiz-adv-x="488" 
d="M485 456l-61 -67c16 -30 23 -67 23 -108c0 -145 -76 -291 -238 -291c-48 0 -86 14 -112 37l-25 -27h-64l59 65c-17 31 -25 68 -25 111c0 148 78 290 236 290c50 0 88 -14 115 -38l25 28h67zM122 176c0 -16 1 -31 5 -44l214 238c-15 16 -37 25 -67 25
c-104 0 -152 -112 -152 -219zM367 281c0 15 -1 28 -4 41l-214 -237c15 -15 36 -24 64 -24c108 0 154 116 154 220z" />
    <glyph glyph-name="oslashacute" unicode="&#x1ff;" horiz-adv-x="488" 
d="M415 696l-109 -155h-76l100 155h85zM485 456l-61 -67c16 -30 23 -67 23 -108c0 -145 -76 -291 -238 -291c-48 0 -86 14 -112 37l-25 -27h-64l59 65c-17 31 -25 68 -25 111c0 148 78 290 236 290c50 0 88 -14 115 -38l25 28h67zM122 176c0 -16 1 -31 5 -44l214 238
c-15 16 -37 25 -67 25c-104 0 -152 -112 -152 -219zM367 281c0 15 -1 28 -4 41l-214 -237c15 -15 36 -24 64 -24c108 0 154 116 154 220z" />
    <glyph glyph-name="oe" unicode="&#x153;" horiz-adv-x="773" 
d="M534 58c42 0 89 18 127 53l31 -59c-35 -33 -96 -62 -163 -62c-83 0 -129 32 -149 84c-37 -51 -92 -84 -172 -84c-112 0 -165 76 -165 185c0 158 76 291 239 291c87 0 124 -40 144 -93c34 54 91 93 166 93c107 0 151 -74 151 -158c0 -42 -13 -78 -23 -104h-280
c-14 -88 11 -146 94 -146zM661 264c2 7 8 18 8 46c0 55 -30 90 -82 90c-78 0 -118 -59 -136 -136h210zM215 61c113 0 152 104 152 218c0 68 -27 116 -93 116c-106 0 -151 -101 -151 -217c0 -69 28 -117 92 -117z" />
    <glyph glyph-name="racute" unicode="&#x155;" horiz-adv-x="331" 
d="M361 696l-110 -155h-75l99 155h86zM173 389c25 41 68 77 126 77c23 0 44 -3 58 -7l-22 -82c-16 5 -35 8 -53 8c-53 0 -94 -37 -123 -87l-53 -298h-78l81 456h75l-12 -67h1z" />
    <glyph glyph-name="rcaron" unicode="&#x159;" horiz-adv-x="331" 
d="M188 541l-70 155h70l46 -102l81 102h75l-123 -155h-79zM173 389c25 41 68 77 126 77c23 0 44 -3 58 -7l-22 -82c-16 5 -35 8 -53 8c-53 0 -94 -37 -123 -87l-53 -298h-78l81 456h75l-12 -67h1z" />
    <glyph glyph-name="uni0157" unicode="&#x157;" horiz-adv-x="330" 
d="M173 389c25 41 68 77 126 77c23 0 44 -3 58 -7l-22 -82c-16 5 -35 8 -53 8c-53 0 -94 -37 -123 -87l-53 -298h-78l81 456h75l-12 -67h1zM22 -216h-61l50 148h89z" />
    <glyph glyph-name="sacute" unicode="&#x15b;" horiz-adv-x="415" 
d="M403 696l-110 -155h-75l99 155h86zM345 355c-19 28 -55 48 -105 48c-67 0 -95 -38 -95 -79c0 -25 15 -45 55 -57l49 -16c73 -22 110 -57 110 -114c0 -80 -63 -147 -192 -147c-91 0 -139 42 -159 77l53 46c19 -30 46 -61 111 -61c60 0 106 26 106 77c0 30 -22 47 -67 60
l-51 16c-62 20 -95 58 -95 110c0 69 50 151 181 151c75 0 128 -34 150 -64z" />
    <glyph glyph-name="scircumflex" unicode="&#x15d;" horiz-adv-x="415" 
d="M334 696l68 -155h-69l-46 101l-81 -101h-76l125 155h79zM345 355c-19 28 -55 48 -105 48c-67 0 -95 -38 -95 -79c0 -25 15 -45 55 -57l49 -16c73 -22 110 -57 110 -114c0 -80 -63 -147 -192 -147c-91 0 -139 42 -159 77l53 46c19 -30 46 -61 111 -61c60 0 106 26 106 77
c0 30 -22 47 -67 60l-51 16c-62 20 -95 58 -95 110c0 69 50 151 181 151c75 0 128 -34 150 -64z" />
    <glyph glyph-name="scaron" unicode="&#x161;" horiz-adv-x="415" 
d="M229 541l-69 155h70l46 -102l81 102h75l-124 -155h-79zM345 355c-19 28 -55 48 -105 48c-67 0 -95 -38 -95 -79c0 -25 15 -45 55 -57l49 -16c73 -22 110 -57 110 -114c0 -80 -63 -147 -192 -147c-91 0 -139 42 -159 77l53 46c19 -30 46 -61 111 -61c60 0 106 26 106 77
c0 30 -22 47 -67 60l-51 16c-62 20 -95 58 -95 110c0 69 50 151 181 151c75 0 128 -34 150 -64z" />
    <glyph glyph-name="scedilla" unicode="&#x15f;" horiz-adv-x="415" 
d="M249 251c73 -22 110 -57 110 -114c0 -74 -55 -138 -166 -146l-26 -47c42 0 73 -19 73 -65c0 -57 -42 -95 -111 -95c-33 0 -62 10 -82 22l10 55c18 -16 45 -26 72 -26c29 0 45 16 45 36c0 22 -18 28 -45 28h-35l-3 6l45 87c-71 8 -110 44 -128 75l53 46
c19 -30 46 -61 111 -61c60 0 106 26 106 77c0 30 -22 47 -67 60l-51 16c-62 20 -95 58 -95 110c0 69 50 151 181 151c75 0 128 -34 150 -64l-51 -47c-19 28 -55 48 -105 48c-67 0 -95 -38 -95 -79c0 -25 15 -45 55 -57z" />
    <glyph glyph-name="uni0219" unicode="&#x219;" horiz-adv-x="415" 
d="M345 355c-19 28 -55 48 -105 48c-67 0 -95 -38 -95 -79c0 -25 15 -45 55 -57l49 -16c73 -22 110 -57 110 -114c0 -80 -63 -147 -192 -147c-91 0 -139 42 -159 77l53 46c19 -30 46 -61 111 -61c60 0 106 26 106 77c0 30 -22 47 -67 60l-51 16c-62 20 -95 58 -95 110
c0 69 50 151 181 151c75 0 128 -34 150 -64zM130 -216h-61l50 148h88z" />
    <glyph glyph-name="germandbls" unicode="&#xdf;" horiz-adv-x="530" 
d="M116 495c23 132 84 205 200 205c102 0 157 -55 157 -139c0 -106 -121 -174 -121 -216c0 -17 13 -34 38 -51l32 -25c37 -30 62 -66 62 -118c0 -92 -74 -162 -178 -162c-47 0 -83 11 -112 29l36 66c19 -14 42 -29 74 -29c58 0 100 41 100 93c0 30 -14 51 -40 73l-35 28
c-34 27 -57 47 -57 87c0 74 119 130 119 217c0 49 -30 77 -82 77c-79 0 -104 -63 -117 -135l-126 -711h-76z" />
    <glyph glyph-name="tcaron" unicode="&#x165;" horiz-adv-x="323" 
d="M395 542h-61l50 148h89zM160 131c-9 -46 5 -69 45 -69c19 0 42 7 62 15l-5 -68c-22 -11 -53 -19 -83 -19c-88 0 -113 54 -99 133l47 265h-81l9 58l84 10l20 115l81 14l-23 -129h115l-12 -68h-115z" />
    <glyph glyph-name="uni021B" unicode="&#x21b;" horiz-adv-x="317" 
d="M163 131c-8 -46 5 -69 45 -69c19 0 43 7 62 15l-5 -68c-22 -11 -52 -19 -82 -19c-88 0 -114 54 -99 133l47 265h-82l10 58l83 10l21 115l80 14l-23 -129h115l-12 -68h-115zM108 -216h-61l50 148h89z" />
    <glyph glyph-name="tbar" unicode="&#x167;" horiz-adv-x="320" 
d="M327 388h-115l-20 -112h83l-10 -57h-83l-15 -88c-9 -46 5 -69 45 -69c19 0 42 7 62 15l-5 -68c-22 -11 -53 -19 -83 -19c-88 0 -113 54 -99 133l17 96h-77l10 57h77l20 112h-82l10 58l84 10l20 115l81 14l-23 -129h114z" />
    <glyph glyph-name="thorn" unicode="&#xfe;" horiz-adv-x="505" 
d="M68 -216h-78l157 892h78l-45 -257c30 29 70 47 129 47c105 0 153 -76 153 -181c0 -167 -72 -295 -229 -295c-60 0 -102 24 -119 52zM381 277c0 64 -26 116 -98 116c-53 0 -94 -26 -117 -56l-39 -219c13 -25 41 -56 98 -56c119 0 156 106 156 215z" />
    <glyph glyph-name="ugrave" unicode="&#xf9;" horiz-adv-x="502" 
d="M300 696l45 -155h-68l-55 155h78zM393 0h-76l9 48c-31 -31 -84 -58 -144 -58c-106 0 -150 58 -129 175l52 291h78l-51 -285c-13 -75 5 -108 79 -108c50 0 97 23 126 53l59 340h78z" />
    <glyph glyph-name="uacute" unicode="&#xfa;" horiz-adv-x="502" 
d="M444 696l-110 -155h-75l99 155h86zM393 0h-76l9 48c-31 -31 -84 -58 -144 -58c-106 0 -150 58 -129 175l52 291h78l-51 -285c-13 -75 5 -108 79 -108c50 0 97 23 126 53l59 340h78z" />
    <glyph glyph-name="ucircumflex" unicode="&#xfb;" horiz-adv-x="502" 
d="M370 696l69 -155h-70l-46 101l-81 -101h-75l124 155h79zM393 0h-76l9 48c-31 -31 -84 -58 -144 -58c-106 0 -150 58 -129 175l52 291h78l-51 -285c-13 -75 5 -108 79 -108c50 0 97 23 126 53l59 340h78z" />
    <glyph glyph-name="utilde" unicode="&#x169;" horiz-adv-x="502" 
d="M433 573c-15 15 -35 25 -56 25c-39 0 -88 -38 -143 -38c-27 0 -50 12 -59 24l16 61c12 -16 28 -25 54 -25c41 0 83 39 142 39c33 0 51 -14 63 -25zM393 0h-76l9 48c-31 -31 -84 -58 -144 -58c-106 0 -150 58 -129 175l52 291h78l-51 -285c-13 -75 5 -108 79 -108
c50 0 97 23 126 53l59 340h78z" />
    <glyph glyph-name="udieresis" unicode="&#xfc;" horiz-adv-x="502" 
d="M220 558c-28 0 -47 15 -47 44c0 44 25 65 61 65c24 0 48 -16 48 -46c0 -46 -31 -63 -62 -63zM395 558c-28 0 -48 15 -48 44c0 44 26 65 62 65c24 0 48 -16 48 -46c0 -46 -31 -63 -62 -63zM393 0h-76l9 48c-31 -31 -84 -58 -144 -58c-106 0 -150 58 -129 175l52 291h78
l-51 -285c-13 -75 5 -108 79 -108c50 0 97 23 126 53l59 340h78z" />
    <glyph glyph-name="umacron" unicode="&#x16b;" horiz-adv-x="502" 
d="M458 640l-12 -65h-267l11 65h268zM393 0h-76l9 48c-31 -31 -84 -58 -144 -58c-106 0 -150 58 -129 175l52 291h78l-51 -285c-13 -75 5 -108 79 -108c50 0 97 23 126 53l59 340h78z" />
    <glyph glyph-name="ubreve" unicode="&#x16d;" horiz-adv-x="502" 
d="M460 683c-14 -79 -69 -138 -154 -138c-82 0 -122 59 -109 138h54c-4 -45 18 -78 63 -78c47 0 79 33 90 78h56zM393 0h-76l9 48c-31 -31 -84 -58 -144 -58c-106 0 -150 58 -129 175l52 291h78l-51 -285c-13 -75 5 -108 79 -108c50 0 97 23 126 53l59 340h78z" />
    <glyph glyph-name="uring" unicode="&#x16f;" horiz-adv-x="502" 
d="M213 609c0 60 44 108 114 108c57 0 88 -37 88 -81c0 -59 -44 -108 -117 -108c-53 0 -85 38 -85 81zM264 614c0 -23 14 -41 40 -41c36 0 59 26 59 58c0 24 -14 41 -42 41c-34 0 -57 -26 -57 -58zM393 0h-76l9 48c-31 -31 -84 -58 -144 -58c-106 0 -150 58 -129 175l52 291
h78l-51 -285c-13 -75 5 -108 79 -108c50 0 97 23 126 53l59 340h78z" />
    <glyph glyph-name="uhungarumlaut" unicode="&#x171;" horiz-adv-x="502" 
d="M373 696l-111 -155h-73l99 155h85zM522 696l-111 -155h-73l98 155h86zM393 0h-76l9 48c-31 -31 -84 -58 -144 -58c-106 0 -150 58 -129 175l52 291h78l-51 -285c-13 -75 5 -108 79 -108c50 0 97 23 126 53l59 340h78z" />
    <glyph glyph-name="uogonek" unicode="&#x173;" horiz-adv-x="502" 
d="M313 -58c-28 -21 -41 -38 -41 -62c0 -15 9 -32 35 -32c19 0 42 11 64 26l-11 -69c-22 -11 -46 -21 -82 -21c-56 0 -90 33 -90 77c0 46 27 75 71 108l61 46l6 33c-31 -31 -84 -58 -144 -58c-106 0 -150 58 -129 175l52 291h78l-51 -285c-13 -75 5 -108 79 -108
c50 0 97 23 126 53l59 340h78l-81 -456z" />
    <glyph glyph-name="wacute" unicode="&#x1e83;" horiz-adv-x="726" 
d="M559 696l-110 -155h-75l99 155h86zM441 456l44 -369l171 369h87l-221 -456h-87l-49 355l-174 -355h-87l-61 456h81l41 -369l175 369h80z" />
    <glyph glyph-name="wcircumflex" unicode="&#x175;" horiz-adv-x="726" 
d="M482 696l69 -155h-70l-46 101l-81 -101h-75l124 155h79zM441 456l44 -369l171 369h87l-221 -456h-87l-49 355l-174 -355h-87l-61 456h81l41 -369l175 369h80z" />
    <glyph glyph-name="wdieresis" unicode="&#x1e85;" horiz-adv-x="726" 
d="M333 558c-28 0 -48 15 -48 44c0 44 26 65 62 65c24 0 48 -16 48 -46c0 -46 -31 -63 -62 -63zM507 558c-28 0 -47 15 -47 44c0 44 26 65 62 65c24 0 48 -16 48 -46c0 -46 -31 -63 -63 -63zM441 456l44 -369l171 369h87l-221 -456h-87l-49 355l-174 -355h-87l-61 456h81
l41 -369l175 369h80z" />
    <glyph glyph-name="wgrave" unicode="&#x1e81;" horiz-adv-x="726" 
d="M407 696l45 -155h-68l-55 155h78zM441 456l44 -369l171 369h87l-221 -456h-87l-49 355l-174 -355h-87l-61 456h81l41 -369l175 369h80z" />
    <glyph glyph-name="yacute" unicode="&#xfd;" horiz-adv-x="463" 
d="M427 696l-110 -155h-75l99 155h86zM216 122l179 334h91l-382 -672h-86l144 249l-104 423h85z" />
    <glyph glyph-name="ycircumflex" unicode="&#x177;" horiz-adv-x="463" 
d="M356 696l69 -155h-70l-46 101l-81 -101h-75l124 155h79zM216 122l179 334h91l-382 -672h-86l144 249l-104 423h85z" />
    <glyph glyph-name="ydieresis" unicode="&#xff;" horiz-adv-x="463" 
d="M207 558c-28 0 -47 15 -47 44c0 44 25 65 61 65c24 0 48 -16 48 -46c0 -46 -31 -63 -62 -63zM382 558c-28 0 -48 15 -48 44c0 44 26 65 62 65c24 0 48 -16 48 -46c0 -46 -30 -63 -62 -63zM216 122l179 334h91l-382 -672h-86l144 249l-104 423h85z" />
    <glyph glyph-name="ygrave" unicode="&#x1ef3;" horiz-adv-x="463" 
d="M286 696l44 -155h-68l-55 155h79zM216 122l179 334h91l-382 -672h-86l144 249l-104 423h85z" />
    <glyph glyph-name="zacute" unicode="&#x17a;" horiz-adv-x="394" 
d="M392 696l-110 -155h-75l99 155h86zM381 401l-266 -333h211l-12 -68h-316l10 55l268 333h-199l11 68h303z" />
    <glyph glyph-name="zcaron" unicode="&#x17e;" horiz-adv-x="394" 
d="M219 541l-69 155h70l45 -102l82 102h74l-123 -155h-79zM381 401l-266 -333h211l-12 -68h-316l10 55l268 333h-199l11 68h303z" />
    <glyph glyph-name="zdotaccent" unicode="&#x17c;" horiz-adv-x="394" 
d="M271 558c-27 0 -48 13 -48 45c0 45 27 64 63 64c24 0 47 -17 47 -47c0 -44 -30 -62 -62 -62zM381 401l-266 -333h211l-12 -68h-316l10 55l268 333h-199l11 68h303z" />
    <glyph glyph-name="IJ" unicode="&#x132;" horiz-adv-x="717" 
d="M161 676h84l-119 -676h-84zM315 132c17 -48 46 -68 98 -68c89 0 129 56 149 173l78 439h80l-78 -445c-29 -164 -101 -241 -234 -241c-87 0 -143 41 -162 101z" />
    <glyph glyph-name="ij" unicode="&#x133;" horiz-adv-x="428" 
d="M166 568c-27 0 -46 12 -46 42c0 46 30 67 65 67c25 0 46 -14 46 -45c0 -46 -34 -64 -65 -64zM380 568c-27 0 -46 13 -46 42c0 46 29 67 65 67c24 0 46 -14 46 -45c0 -46 -33 -64 -65 -64zM109 456h78l-81 -456h-78zM130 -169c64 25 93 63 107 141l85 484h79l-85 -476
c-19 -108 -63 -171 -151 -206z" />
    <glyph glyph-name="acute" unicode="&#xb4;" horiz-adv-x="570" 
d="M495 696l-110 -155h-75l99 155h86z" />
    <glyph glyph-name="circumflex" unicode="&#x2c6;" horiz-adv-x="570" 
d="M456 696l69 -155h-70l-46 101l-81 -101h-75l124 155h79z" />
    <glyph glyph-name="caron" unicode="&#x2c7;" horiz-adv-x="570" 
d="M350 541l-70 155h70l46 -102l81 102h75l-123 -155h-79z" />
    <glyph glyph-name="tilde" unicode="&#x2dc;" horiz-adv-x="570" 
d="M522 573c-15 15 -35 25 -56 25c-39 0 -88 -38 -143 -38c-27 0 -50 12 -59 24l16 61c12 -16 28 -25 54 -25c41 0 83 39 142 39c33 0 51 -14 63 -25z" />
    <glyph glyph-name="dieresis" unicode="&#xa8;" horiz-adv-x="570" 
d="M307 558c-28 0 -47 15 -47 44c0 44 25 65 61 65c24 0 48 -16 48 -46c0 -46 -31 -63 -62 -63zM482 558c-28 0 -48 15 -48 44c0 44 26 65 62 65c24 0 48 -16 48 -46c0 -46 -31 -63 -62 -63z" />
    <glyph glyph-name="macron" unicode="&#xaf;" horiz-adv-x="570" 
d="M541 640l-12 -65h-267l11 65h268z" />
    <glyph glyph-name="breve" unicode="&#x2d8;" horiz-adv-x="570" 
d="M545 683c-14 -79 -69 -138 -154 -138c-82 0 -122 59 -109 138h54c-4 -45 18 -78 63 -78c47 0 79 33 90 78h56z" />
    <glyph glyph-name="ring" unicode="&#x2da;" horiz-adv-x="570" 
d="M302 609c0 60 44 108 114 108c57 0 88 -37 88 -81c0 -59 -44 -108 -117 -108c-53 0 -85 38 -85 81zM353 614c0 -23 14 -41 40 -41c36 0 59 26 59 58c0 24 -14 41 -42 41c-34 0 -57 -26 -57 -58z" />
    <glyph glyph-name="hungarumlaut" unicode="&#x2dd;" horiz-adv-x="570" 
d="M421 696l-111 -155h-73l99 155h85zM570 696l-111 -155h-73l98 155h86z" />
    <glyph glyph-name="dotaccent" unicode="&#x2d9;" horiz-adv-x="570" 
d="M395 558c-27 0 -48 13 -48 45c0 45 27 64 63 64c24 0 47 -17 47 -47c0 -44 -30 -62 -62 -62z" />
    <glyph glyph-name="cedilla" unicode="&#xb8;" horiz-adv-x="570" 
d="M330 0l-31 -56c42 0 73 -19 73 -65c0 -57 -42 -95 -112 -95c-33 0 -62 10 -82 22l10 55c18 -16 45 -26 73 -26c29 0 44 16 44 36c0 22 -17 28 -45 28h-34l-3 6l53 103z" />
    <glyph glyph-name="ogonek" unicode="&#x2db;" horiz-adv-x="570" 
d="M304 -58c-28 -21 -42 -38 -42 -62c0 -15 10 -32 35 -32c20 0 43 11 65 26l-12 -69c-21 -11 -46 -21 -81 -21c-56 0 -90 33 -90 77c0 46 27 75 71 108l63 48l71 -17z" />
    <glyph glyph-name="uniF6C3" unicode="&#xf6c3;" horiz-adv-x="0" 
d="M-309 -216h-61l50 148h89z" />
    <glyph glyph-name="ellipsis" unicode="&#x2026;" horiz-adv-x="597" 
d="M77 -7c-30 0 -52 24 -52 52c0 38 30 65 68 65c29 0 51 -24 51 -51c0 -39 -30 -66 -67 -66zM265 -7c-30 0 -52 24 -52 52c0 38 30 65 68 65c30 0 52 -24 52 -51c0 -39 -30 -66 -68 -66zM450 -7c-31 0 -52 24 -52 52c0 38 30 65 68 65c29 0 51 -24 51 -51
c0 -39 -30 -66 -67 -66z" />
    <glyph glyph-name="uni00AD" unicode="&#xad;" horiz-adv-x="398" 
d="M334 304v-68h-258v68h258z" />
    <glyph glyph-name="exclamdown" unicode="&#xa1;" horiz-adv-x="222" 
d="M150 466c30 0 52 -24 52 -51c0 -39 -30 -66 -68 -66c-30 0 -52 24 -52 52c0 38 30 65 68 65zM148 248l-68 -465h-96l98 465h66z" />
    <glyph glyph-name="questiondown" unicode="&#xbf;" horiz-adv-x="430" 
d="M262 467c30 0 51 -23 51 -50c0 -39 -30 -67 -68 -67c-31 0 -52 22 -52 50c0 39 31 67 69 67zM145 -226c-101 0 -165 61 -165 145c0 157 178 184 203 329h83c-30 -169 -203 -206 -203 -318c0 -42 27 -82 84 -82c59 0 105 36 114 90l76 -6c-15 -86 -76 -158 -192 -158z" />
    <glyph glyph-name="quoteleft" unicode="&#x2018;" horiz-adv-x="213" 
d="M179 676h61l-63 -223h-88z" />
    <glyph glyph-name="quoteright" unicode="&#x2019;" horiz-adv-x="209" 
d="M156 453h-62l64 223h89z" />
    <glyph glyph-name="quotedblleft" unicode="&#x201c;" horiz-adv-x="348" 
d="M179 676h61l-63 -223h-88zM313 676h62l-64 -223h-88z" />
    <glyph glyph-name="quotedblright" unicode="&#x201d;" horiz-adv-x="343" 
d="M156 453h-62l64 223h89zM290 453h-61l63 223h89z" />
    <glyph glyph-name="quotesinglbase" unicode="&#x201a;" horiz-adv-x="220" 
d="M51 -112h-62l63 223h89z" />
    <glyph glyph-name="quotedblbase" unicode="&#x201e;" horiz-adv-x="354" 
d="M50 -112h-61l63 223h89zM184 -112h-61l63 223h89z" />
    <glyph glyph-name="guilsinglleft" unicode="&#x2039;" horiz-adv-x="300" 
d="M248 485l43 -43l-158 -177l96 -178l-56 -32l-134 215z" />
    <glyph glyph-name="guilsinglright" unicode="&#x203a;" horiz-adv-x="300" 
d="M66 55l-43 43l159 177l-96 178l55 32l134 -215z" />
    <glyph glyph-name="guillemotleft" unicode="&#xab;" horiz-adv-x="482" 
d="M248 485l43 -43l-158 -177l96 -178l-56 -32l-134 215zM431 485l43 -43l-159 -177l96 -178l-55 -32l-135 215z" />
    <glyph glyph-name="guillemotright" unicode="&#xbb;" horiz-adv-x="482" 
d="M66 55l-43 43l159 177l-96 178l55 32l134 -215zM249 55l-43 43l158 177l-96 178l56 32l134 -215z" />
    <glyph glyph-name="endash" unicode="&#x2013;" horiz-adv-x="598" 
d="M535 304v-68h-459v68h459z" />
    <glyph glyph-name="emdash" unicode="&#x2014;" horiz-adv-x="738" 
d="M675 304v-68h-599v68h599z" />
    <glyph glyph-name="bullet" unicode="&#x2022;" horiz-adv-x="381" 
d="M197 161c-65 0 -112 46 -112 108c0 63 47 108 112 108c66 0 112 -45 112 -108c0 -62 -46 -108 -112 -108z" />
    <glyph glyph-name="periodcentered" unicode="&#xb7;" horiz-adv-x="239" 
d="M125 211c-32 0 -55 24 -55 53c0 40 31 68 71 68c32 0 54 -24 54 -53c0 -41 -31 -68 -70 -68z" />
    <glyph glyph-name="uni2219" unicode="&#x2219;" horiz-adv-x="238" 
d="M124 211c-32 0 -54 24 -54 53c0 40 31 68 71 68c31 0 54 -24 54 -53c0 -41 -31 -68 -71 -68z" />
    <glyph glyph-name="dagger" unicode="&#x2020;" horiz-adv-x="403" 
d="M185 297l70 393h58l-70 -393h143l-10 -55h-143l-80 -458h-58l80 458h-143l10 55h143z" />
    <glyph glyph-name="daggerdbl" unicode="&#x2021;" horiz-adv-x="453" 
d="M239 449l43 241h59l-43 -241h143l-10 -55h-143l-54 -310h142l-9 -55h-143l-43 -245h-59l43 245h-143l10 55h144l54 310h-143l9 55h143z" />
    <glyph glyph-name="section" unicode="&#xa7;" horiz-adv-x="539" 
d="M491 284c0 -70 -52 -118 -94 -141c28 -21 49 -48 49 -92c0 -109 -99 -166 -234 -166c-112 0 -181 43 -208 98l58 51c28 -44 68 -82 158 -82c80 0 139 26 139 83c0 33 -43 58 -83 76l-76 35c-83 34 -125 70 -125 136c0 62 46 112 92 142c-27 21 -48 50 -48 93
c0 98 102 169 227 169c105 0 160 -32 196 -93l-60 -49c-31 49 -73 75 -146 75c-60 0 -130 -34 -130 -89c0 -33 37 -57 93 -80l56 -23c83 -33 136 -67 136 -143zM230 393c-40 -23 -70 -62 -70 -97c0 -36 30 -61 82 -82l93 -41c31 21 71 53 71 99c0 40 -34 63 -86 84z" />
    <glyph glyph-name="paragraph" unicode="&#xb6;" horiz-adv-x="485" 
d="M335 456l-88 -499h-72l36 205c-114 0 -167 35 -167 115c0 103 59 179 188 179h103zM202 -173c60 28 87 61 101 140l86 489h73l-85 -478c-18 -103 -47 -167 -145 -204z" />
    <glyph glyph-name="brokenbar" unicode="&#xa6;" horiz-adv-x="253" 
d="M99 306v384h58v-384h-58zM157 170v-386h-58v386h58z" />
    <glyph glyph-name="copyright" unicode="&#xa9;" horiz-adv-x="821" 
d="M75 337c0 214 153 358 356 358c202 0 354 -144 354 -358s-152 -360 -354 -360c-203 0 -356 146 -356 360zM139 337c0 -182 122 -298 292 -298c169 0 290 116 290 298s-121 296 -290 296c-170 0 -292 -114 -292 -296zM315 335c0 -86 33 -142 113 -142c47 0 79 20 103 53
l48 -44c-37 -46 -82 -73 -153 -73c-110 0 -183 78 -183 206c0 126 77 205 184 205c71 0 115 -32 148 -67l-47 -44c-26 27 -52 47 -99 47c-78 0 -114 -56 -114 -141z" />
    <glyph glyph-name="uni2117" unicode="&#x2117;" horiz-adv-x="821" 
d="M75 337c0 214 153 358 356 358c202 0 354 -144 354 -358s-152 -360 -354 -360c-203 0 -356 146 -356 360zM139 337c0 -182 122 -298 292 -298c169 0 290 116 290 298s-121 296 -290 296c-170 0 -292 -114 -292 -296zM449 535c103 0 150 -52 150 -126
c0 -73 -47 -124 -150 -124h-85v-151h-62v401h147zM534 410c0 39 -20 73 -83 73h-87v-144h87c63 0 83 31 83 71z" />
    <glyph glyph-name="registered" unicode="&#xae;" horiz-adv-x="821" 
d="M75 337c0 214 153 358 356 358c202 0 354 -144 354 -358s-152 -360 -354 -360c-203 0 -356 146 -356 360zM139 337c0 -182 122 -298 292 -298c169 0 290 116 290 298s-121 296 -290 296c-170 0 -292 -114 -292 -296zM285 536h146c104 0 149 -41 149 -115
c0 -58 -40 -101 -109 -112l121 -176h-72l-113 170h-60v-170h-62v403zM519 420c0 32 -20 66 -85 66h-87v-133h83c66 0 89 37 89 67z" />
    <glyph glyph-name="trademark" unicode="&#x2122;" horiz-adv-x="611" 
d="M306 607l-7 -37h-73l-36 -200h-44l36 200h-74l7 37h191zM524 607h62l-16 -237h-43l17 188l-86 -188h-49l-15 186l-52 -186h-42l68 237h60l14 -187z" />
    <glyph glyph-name="currency" unicode="&#xa4;" horiz-adv-x="561" 
d="M422 354c9 -22 14 -50 14 -79c0 -30 -5 -57 -15 -81l81 -82l-55 -54l-79 77c-21 -14 -50 -22 -84 -22c-33 0 -63 8 -84 22l-73 -74l-53 53l76 77c-11 24 -16 52 -16 84c0 28 4 54 14 77l-77 81l55 54l73 -75c22 15 52 23 87 23c36 0 67 -9 88 -24l74 74l52 -52zM285 184
c57 0 81 36 81 91s-23 89 -81 89c-57 0 -81 -34 -81 -89s23 -91 81 -91z" />
    <glyph glyph-name="Euro" unicode="&#x20ac;" horiz-adv-x="552" 
d="M405 611c-89 0 -155 -73 -191 -179h249l-33 -58h-232c-5 -25 -9 -52 -11 -79h203l-32 -57h-174v-6c0 -106 38 -168 129 -168c43 0 94 14 150 47l11 -76c-54 -30 -108 -46 -169 -46c-137 0 -208 76 -208 243v6h-52l10 57h44c3 27 6 54 11 79h-41l10 58h45
c46 155 149 254 288 254c66 0 122 -18 166 -43l-39 -68c-35 21 -78 36 -134 36z" />
    <glyph glyph-name="cent" unicode="&#xa2;" horiz-adv-x="465" 
d="M227 60c46 0 84 21 113 62l54 -42c-41 -60 -103 -90 -177 -90c-13 0 -26 1 -37 3l-26 -63l-47 13l26 65c-56 30 -83 91 -83 166c0 151 69 292 234 292c12 0 23 -1 34 -2l31 77l48 -13l-31 -77c34 -15 59 -41 71 -77l-59 -39c-8 22 -22 38 -40 48l-131 -321
c7 -1 13 -2 20 -2zM130 178c0 -39 11 -74 34 -95l126 313h-7c-113 0 -153 -113 -153 -218z" />
    <glyph glyph-name="sterling" unicode="&#xa3;" horiz-adv-x="539" 
d="M122 327l21 120c23 134 94 239 236 239c98 0 151 -36 188 -94l-60 -50c-32 53 -73 69 -132 69c-85 0 -134 -67 -151 -168l-20 -116h180l-10 -57h-181l-35 -201h278l-12 -69h-359l47 270h-63l11 57h62z" />
    <glyph glyph-name="florin" unicode="&#x192;" horiz-adv-x="332" 
d="M145 -74c-15 -85 -57 -152 -149 -152c-27 0 -58 5 -69 9l13 71c15 -5 33 -8 48 -8c51 0 72 36 82 94l79 446h-92l12 69h92l16 93c15 84 56 152 152 152c23 0 53 -5 65 -9l-13 -71c-15 5 -31 8 -48 8c-50 0 -71 -34 -81 -93l-14 -80h99l-12 -69h-99z" />
    <glyph glyph-name="yen" unicode="&#xa5;" horiz-adv-x="566" 
d="M237 296l-26 79h-112l9 57h82l-84 244h88l103 -325l217 325h98l-171 -244h84l-10 -57h-115l-55 -79h156l-10 -58h-168l-42 -238h-84l42 238h-165l10 58h153z" />
    <glyph glyph-name="uni20A8" unicode="&#x20a8;" horiz-adv-x="514" 
d="M546 676l-10 -57h-126c27 -23 38 -64 36 -110h71l-11 -58h-69c-21 -86 -91 -148 -188 -159l122 -292h-93l-115 284h-98l11 68h101c99 0 148 35 172 99h-255l11 58h255c-1 63 -31 98 -126 98h-113l12 69h413z" />
    <glyph glyph-name="ordfeminine" unicode="&#xaa;" horiz-adv-x="345" 
d="M248 350l5 32c-22 -20 -56 -39 -93 -39s-79 16 -79 70c0 68 66 97 149 105l44 5l5 24c4 29 -7 45 -44 45c-39 0 -54 -12 -58 -29l-3 -16h-53c0 8 1 15 2 21c8 40 48 71 116 71s109 -28 98 -93l-35 -196h-54zM142 418c0 -18 15 -28 36 -28c32 0 58 18 79 35l10 58l-39 -6
c-55 -8 -86 -24 -86 -59z" />
    <glyph glyph-name="ordmasculine" unicode="&#xba;" horiz-adv-x="358" 
d="M246 639c73 0 111 -46 111 -117c0 -99 -45 -179 -155 -179c-72 0 -111 45 -111 118c0 96 47 178 155 178zM207 395c62 0 90 59 90 125c0 38 -17 67 -56 67c-62 0 -89 -57 -89 -123c0 -40 16 -69 55 -69z" />
    <glyph glyph-name="uni00B9" unicode="&#xb9;" horiz-adv-x="227" 
d="M161 437l51 285l-100 -36l-7 54l126 46h53l-61 -349h-62z" />
    <glyph glyph-name="uni00B2" unicode="&#xb2;" horiz-adv-x="298" 
d="M249 793c59 0 103 -32 103 -94c0 -54 -40 -95 -93 -139l-85 -73h146l-8 -49h-232l7 42l135 117c42 36 68 64 68 101c0 25 -16 45 -44 45c-36 0 -59 -23 -66 -61h-60c8 67 57 111 129 111z" />
    <glyph glyph-name="uni00B3" unicode="&#xb3;" horiz-adv-x="311" 
d="M286 613c29 -6 53 -31 53 -73c0 -66 -64 -109 -139 -109c-88 0 -119 40 -109 96h58c-4 -27 14 -45 54 -45c42 0 73 24 73 60c0 30 -22 49 -63 49h-36l8 49h35c47 0 78 22 78 61c0 25 -18 41 -50 41c-36 0 -59 -20 -63 -45h-60c9 56 57 95 127 95c58 0 110 -26 110 -88
c0 -53 -36 -83 -76 -91z" />
    <glyph glyph-name="fraction" unicode="&#x2044;" horiz-adv-x="175" 
d="M-110 0h-72l504 676h75z" />
    <glyph glyph-name="uni2215" unicode="&#x2215;" horiz-adv-x="175" 
d="M-110 0h-72l504 676h75z" />
    <glyph glyph-name="onehalf" unicode="&#xbd;" horiz-adv-x="697" 
d="M135 0h-72l504 676h74zM153 325l50 285l-99 -35l-8 53l126 47h53l-61 -350h-61zM553 355c59 0 103 -32 103 -93c0 -55 -41 -95 -93 -140l-85 -73h146l-9 -49h-231l7 42l134 117c43 36 68 65 68 101c0 25 -16 45 -43 45c-37 0 -59 -23 -67 -61h-59c8 67 57 111 129 111z
" />
    <glyph glyph-name="uni2153" unicode="&#x2153;" horiz-adv-x="709" 
d="M136 0h-73l504 676h75zM168 325l51 285l-100 -35l-8 53l127 47h53l-61 -350h-62zM597 176c29 -5 54 -30 54 -72c0 -67 -64 -110 -140 -110c-87 0 -118 40 -109 96h59c-5 -27 14 -45 54 -45c42 0 73 25 73 61c0 29 -22 48 -64 48h-36l9 49h34c48 0 79 22 79 61
c0 25 -18 41 -50 41c-36 0 -60 -20 -63 -45h-60c9 57 57 95 127 95c58 0 110 -25 110 -88c0 -52 -37 -82 -77 -91z" />
    <glyph glyph-name="onequarter" unicode="&#xbc;" horiz-adv-x="659" 
d="M136 0h-73l504 676h75zM168 325l51 285l-100 -35l-8 53l127 47h53l-61 -350h-62zM601 71h-47l-12 -71h-60l12 71h-171l8 44l209 235h64l-41 -230h47zM503 120l25 143l-126 -143h101z" />
    <glyph glyph-name="oneeighth" unicode="&#x215b;" horiz-adv-x="714" 
d="M136 0h-73l504 676h75zM168 325l51 285l-100 -35l-8 53l127 47h53l-61 -350h-62zM512 -6c-75 0 -120 31 -120 91c0 51 38 86 81 98c-28 10 -46 28 -46 63c0 71 63 109 137 109c72 0 114 -30 114 -86c0 -48 -32 -79 -73 -91c28 -9 51 -29 51 -71c0 -73 -65 -113 -144 -113
zM561 305c-43 0 -70 -22 -70 -61c0 -25 21 -40 52 -40c38 0 71 20 71 61c0 25 -20 40 -53 40zM534 155c-50 0 -78 -29 -78 -65c0 -30 26 -45 60 -45c42 0 77 22 77 63c0 29 -22 47 -59 47z" />
    <glyph glyph-name="uni2154" unicode="&#x2154;" horiz-adv-x="765" 
d="M246 680c59 0 103 -32 103 -94c0 -54 -41 -94 -93 -139l-85 -73h146l-9 -49h-231l7 42l134 117c43 36 68 65 68 101c0 25 -16 45 -43 45c-37 0 -59 -23 -67 -61h-59c8 67 57 111 129 111zM200 0h-72l504 676h74zM654 176c29 -5 54 -30 54 -72c0 -67 -65 -110 -140 -110
c-87 0 -118 40 -109 96h59c-5 -27 13 -45 54 -45c42 0 73 25 73 61c0 29 -22 48 -64 48h-36l9 49h34c48 0 79 22 79 61c0 25 -18 41 -50 41c-36 0 -60 -20 -63 -45h-60c9 57 57 95 127 95c57 0 110 -25 110 -88c0 -52 -37 -82 -77 -91z" />
    <glyph glyph-name="threequarters" unicode="&#xbe;" horiz-adv-x="703" 
d="M280 501c29 -5 54 -30 54 -72c0 -67 -65 -110 -140 -110c-87 0 -118 40 -109 96h59c-5 -27 13 -45 53 -45c42 0 74 25 74 61c0 29 -22 48 -64 48h-36l9 49h34c47 0 79 22 79 61c0 25 -19 41 -50 41c-36 0 -60 -20 -64 -45h-59c9 57 57 95 126 95c58 0 110 -25 110 -88
c0 -52 -36 -82 -76 -91zM188 0h-72l504 676h75zM645 71h-46l-13 -71h-60l12 71h-170l8 44l208 235h65l-41 -230h46zM548 120l25 143l-126 -143h101z" />
    <glyph glyph-name="threeeighths" unicode="&#x215c;" horiz-adv-x="758" 
d="M281 501c29 -5 53 -30 53 -72c0 -67 -64 -110 -140 -110c-87 0 -118 40 -108 96h58c-5 -27 14 -45 54 -45c42 0 73 25 73 61c0 29 -22 48 -63 48h-36l8 49h34c48 0 79 22 79 61c0 25 -18 41 -50 41c-36 0 -60 -20 -63 -45h-60c9 57 57 95 127 95c58 0 110 -25 110 -88
c0 -52 -36 -82 -76 -91zM189 0h-73l504 676h75zM558 -6c-75 0 -120 31 -120 91c0 51 37 86 81 98c-28 10 -46 28 -46 63c0 71 62 109 137 109c71 0 113 -30 113 -86c0 -48 -31 -79 -72 -91c28 -9 51 -29 51 -71c0 -73 -65 -113 -144 -113zM607 305c-43 0 -71 -22 -71 -61
c0 -25 21 -40 52 -40c39 0 72 20 72 61c0 25 -21 40 -53 40zM580 155c-51 0 -79 -29 -79 -65c0 -30 26 -45 60 -45c42 0 78 22 78 63c0 29 -22 47 -59 47z" />
    <glyph glyph-name="fiveeighths" unicode="&#x215d;" horiz-adv-x="749" 
d="M182 0h-72l504 676h75zM332 454c0 -79 -58 -135 -143 -135c-92 0 -118 45 -108 100h59c-5 -29 11 -49 52 -49c46 0 77 30 77 80c0 30 -20 49 -53 49c-23 0 -44 -8 -60 -18l-48 6l57 188h193l-9 -49h-143l-26 -86c9 4 31 10 56 10c49 0 96 -24 96 -96zM548 -6
c-75 0 -120 31 -120 91c0 51 38 86 81 98c-28 10 -46 28 -46 63c0 71 63 109 137 109c72 0 114 -30 114 -86c0 -48 -32 -79 -73 -91c28 -9 51 -29 51 -71c0 -73 -65 -113 -144 -113zM597 305c-43 0 -70 -22 -70 -61c0 -25 21 -40 52 -40c38 0 71 20 71 61
c0 25 -20 40 -53 40zM570 155c-50 0 -78 -29 -78 -65c0 -30 26 -45 60 -45c42 0 77 22 77 63c0 29 -22 47 -59 47z" />
    <glyph glyph-name="seveneighths" unicode="&#x215e;" horiz-adv-x="674" 
d="M105 0h-73l504 676h75zM286 626h-163l9 49h232l-7 -43l-189 -307h-67zM474 -6c-75 0 -120 31 -120 91c0 51 37 86 81 98c-28 10 -46 28 -46 63c0 71 62 109 137 109c71 0 113 -30 113 -86c0 -48 -31 -79 -73 -91c29 -9 51 -29 51 -71c0 -73 -64 -113 -143 -113zM522 305
c-42 0 -70 -22 -70 -61c0 -25 21 -40 52 -40c39 0 71 20 71 61c0 25 -20 40 -53 40zM496 155c-51 0 -79 -29 -79 -65c0 -30 26 -45 60 -45c42 0 78 22 78 63c0 29 -22 47 -59 47z" />
    <glyph glyph-name="perthousand" unicode="&#x2030;" horiz-adv-x="1067" 
d="M247 680c77 0 116 -47 116 -130c0 -123 -48 -230 -169 -230c-85 0 -117 55 -117 130c0 129 54 230 170 230zM182 0h-73l504 676h75zM197 370c72 0 103 73 103 180c0 49 -17 80 -56 80c-67 0 -104 -69 -104 -180c0 -49 17 -80 57 -80zM604 355c77 0 117 -47 117 -130
c0 -123 -49 -230 -169 -230c-85 0 -117 55 -117 130c0 129 54 230 169 230zM911 355c78 0 117 -47 117 -130c0 -123 -48 -230 -169 -230c-85 0 -117 55 -117 130c0 129 54 230 169 230zM555 45c72 0 103 73 103 180c0 49 -17 80 -57 80c-66 0 -103 -69 -103 -180
c0 -49 17 -80 57 -80zM862 45c72 0 103 73 103 180c0 49 -17 80 -56 80c-67 0 -104 -69 -104 -180c0 -49 17 -80 57 -80z" />
    <glyph glyph-name="minus" unicode="&#x2212;" 
d="M56 304h462v-68h-462v68z" />
    <glyph glyph-name="plusminus" unicode="&#xb1;" 
d="M54 438h193v199h74v-199h196v-68h-196v-175h-74v175h-193v68zM54 101h463v-68h-463v68z" />
    <glyph glyph-name="multiply" unicode="&#xd7;" 
d="M76 111l157 157l-161 160l53 54l161 -161l159 159l51 -51l-160 -159l162 -161l-54 -53l-160 161l-158 -157z" />
    <glyph glyph-name="divide" unicode="&#xf7;" 
d="M290 391c-35 0 -60 25 -60 58c0 35 25 59 60 59s60 -24 60 -59c0 -33 -25 -58 -60 -58zM56 304h463v-68h-463v68zM290 30c-35 0 -60 25 -60 59c0 33 25 58 60 58s60 -25 60 -58c0 -34 -25 -59 -60 -59z" />
    <glyph glyph-name="notequal" unicode="&#x2260;" horiz-adv-x="554" 
d="M489 352h-159l-42 -164h201v-68h-218l-31 -125l-46 10l29 115h-127v68h144l40 164h-184v69h202l29 118l47 -10l-27 -108h142v-69z" />
    <glyph glyph-name="approxequal" unicode="&#x2248;" 
d="M490 359c-25 -31 -57 -52 -101 -52c-76 0 -148 67 -206 67c-42 0 -70 -36 -82 -43l-17 61c25 31 63 52 105 52c66 0 140 -68 202 -68c38 0 71 36 82 45zM488 149c-24 -30 -56 -51 -101 -51c-74 0 -145 68 -203 68c-42 0 -72 -36 -85 -43l-16 61c25 30 63 50 105 50
c67 0 142 -68 202 -68c39 0 70 37 82 45z" />
    <glyph glyph-name="lessequal" unicode="&#x2264;" horiz-adv-x="554" 
d="M90 431l393 166v-74l-323 -131l323 -130v-75l-393 166v78zM88 98h392v-66h-392v66z" />
    <glyph glyph-name="greaterequal" unicode="&#x2265;" horiz-adv-x="554" 
d="M504 353l-393 -166v75l322 130l-322 131v74l393 -166v-78zM96 98h391v-66h-391v66z" />
    <glyph glyph-name="logicalnot" unicode="&#xac;" 
d="M51 380h462v-259h-75v191h-387v68z" />
    <glyph glyph-name="uni0394" unicode="&#x394;" horiz-adv-x="645" 
d="M353 676h98l143 -676h-622zM390 593l-286 -522h387z" />
    <glyph glyph-name="uni03A9" unicode="&#x3a9;" horiz-adv-x="684" 
d="M180 69c-51 47 -96 143 -96 244c0 182 98 373 336 373c164 0 231 -119 231 -253c0 -184 -106 -302 -199 -364h146l-12 -69h-241l13 69c101 67 206 186 206 359c0 103 -46 185 -154 185c-169 0 -240 -155 -240 -305c0 -100 46 -191 101 -239l-12 -69h-241l12 69h150z" />
    <glyph glyph-name="uni03BC" unicode="&#x3bc;" horiz-adv-x="511" 
d="M-10 -216l119 672h78l-52 -287c-12 -75 11 -106 80 -106c51 0 97 24 126 55l61 338h77l-59 -331c-7 -32 0 -56 24 -56c9 0 16 1 21 2l-11 -70c-12 -3 -25 -5 -37 -5c-43 0 -66 23 -75 54c-33 -31 -82 -60 -148 -60c-42 0 -68 10 -85 27l-41 -233h-78z" />
    <glyph glyph-name="pi" unicode="&#x3c0;" horiz-adv-x="496" 
d="M40 0l68 388h-68l12 68h468l-12 -68h-69l-44 -252c-5 -33 -11 -67 27 -67c6 0 14 1 21 2l-12 -70c-14 -3 -30 -5 -44 -5c-74 0 -85 50 -71 131l45 261h-175l-68 -388h-78z" />
    <glyph glyph-name="degree" unicode="&#xb0;" horiz-adv-x="349" 
d="M97 526c0 84 59 160 151 160c71 0 114 -48 114 -119c0 -83 -59 -159 -152 -159c-70 0 -113 49 -113 118zM150 528c0 -38 22 -70 63 -70c58 0 97 48 97 107c0 38 -23 71 -65 71c-57 0 -95 -50 -95 -108z" />
    <glyph glyph-name="estimated" unicode="&#x212e;" horiz-adv-x="753" 
d="M221 338v-230c49 -49 109 -74 183 -74c105 0 182 45 245 152l45 -27c-78 -121 -157 -171 -290 -171c-199 0 -327 154 -327 350c0 197 128 350 327 350c195 0 327 -145 328 -350h-511zM590 384v184c-54 50 -116 75 -187 75c-73 0 -133 -26 -182 -75v-184h369z" />
    <glyph glyph-name="eng" unicode="&#x14b;" horiz-adv-x="502" 
d="M108 456h76l-9 -50c32 34 86 60 148 60c108 0 146 -56 126 -172l-55 -310c-20 -115 -64 -176 -150 -212l-34 57c65 30 91 67 105 143l55 313c13 73 -5 108 -79 108c-50 0 -97 -23 -126 -53l-60 -340h-78z" />
    <glyph glyph-name="Eng" unicode="&#x14a;" horiz-adv-x="657" 
d="M341 -165c61 26 87 63 101 137l3 20l-225 548l-94 -540h-85l120 676h92l221 -540l95 540h86l-123 -692c-20 -117 -66 -177 -153 -212z" />
    <glyph glyph-name="infinity" unicode="&#x221e;" horiz-adv-x="709" 
d="M665 287c0 -101 -73 -179 -168 -179c-73 0 -115 45 -143 105c-47 -56 -100 -104 -168 -104c-73 0 -129 49 -129 132c0 99 75 178 168 178c76 0 115 -49 145 -110c45 57 99 112 168 112c72 0 127 -52 127 -134zM322 263c-20 43 -52 94 -95 94c-56 0 -104 -49 -104 -113
c0 -45 29 -74 72 -74c45 0 93 51 127 93zM600 282c0 45 -27 75 -72 75s-91 -54 -125 -96c21 -46 46 -91 92 -91c60 0 105 47 105 112z" />
    <glyph glyph-name="partialdiff" unicode="&#x2202;" horiz-adv-x="518" 
d="M395 690c53 -55 89 -167 89 -283c0 -204 -74 -417 -271 -417c-120 0 -171 80 -171 181c0 166 86 276 224 276c76 0 123 -43 139 -89c13 132 -28 247 -107 332h97zM220 59c96 0 153 102 168 202c-12 56 -51 112 -117 112c-103 0 -151 -90 -151 -196
c0 -62 27 -118 100 -118z" />
    <glyph glyph-name="integral" unicode="&#x222b;" horiz-adv-x="356" 
d="M163 -74c-17 -93 -60 -152 -158 -152c-17 0 -47 5 -58 9l12 68c16 -2 33 -5 53 -5c47 0 67 28 77 88l109 620c16 91 60 152 158 152c17 0 47 -5 58 -9l-11 -68c-16 3 -33 5 -54 5c-46 0 -67 -30 -76 -88z" />
    <glyph glyph-name="radical" unicode="&#x221a;" horiz-adv-x="588" 
d="M261 -216h-88l-82 344l-75 -35l-16 60l149 67l74 -343l347 819h83z" />
    <glyph glyph-name="summation" unicode="&#x2211;" 
d="M442 -216h-478l16 89l313 372l-186 354l15 77h475l-12 -69h-397l193 -368l-324 -387h396z" />
    <glyph glyph-name="product" unicode="&#x220f;" horiz-adv-x="716" 
d="M752 676l-12 -69h-64l-145 -823h-82l146 824h-339l-145 -824h-82l145 823h-64l12 69h630z" />
    <glyph glyph-name="lozenge" unicode="&#x25ca;" horiz-adv-x="574" 
d="M283 0h-73l-161 351l284 345h73l163 -345zM363 617l-226 -275l119 -263l224 282z" />
    <glyph glyph-name="uniF8FF" unicode="&#xf8ff;" horiz-adv-x="600" 
d="M111 656h413v-656h-413v656zM486 39v578h-337v-578h337z" />
    <glyph glyph-name="exclam.sc" horiz-adv-x="222" 
d="M68 163l49 344h88l-74 -344h-63zM72 -5c-27 0 -45 20 -45 42c0 33 26 56 60 56c26 0 46 -19 46 -43c0 -31 -28 -55 -61 -55z" />
    <glyph glyph-name="numbersign.sc" horiz-adv-x="510" 
d="M26 141l20 65h78l35 107h-75l19 64h78l44 130h71l-44 -130h92l43 130h72l-43 -130h80l-20 -64h-81l-37 -107h81l-20 -65h-83l-46 -141h-73l47 141h-90l-47 -141h-73l48 141h-76zM196 206h90l37 107h-91z" />
    <glyph glyph-name="dollar.sc" horiz-adv-x="450" 
d="M280 277c63 -21 110 -59 110 -126c0 -92 -71 -151 -182 -158l-12 -70h-42l12 69c-102 6 -138 56 -150 96l64 41c10 -34 33 -67 98 -71l29 166l-19 7c-66 23 -106 58 -106 122c0 85 62 155 176 162l10 54h42l-10 -55c76 -6 116 -38 133 -74l-62 -41c-15 27 -41 45 -82 49
l-29 -164zM161 361c0 -27 13 -46 59 -63l27 150c-57 -7 -86 -41 -86 -87zM220 58c62 7 92 38 92 85c0 30 -16 50 -65 68z" />
    <glyph glyph-name="percent.sc" horiz-adv-x="656" 
d="M201 511c67 0 98 -38 98 -104c0 -95 -41 -171 -137 -171c-69 0 -99 41 -99 104c0 102 46 171 138 171zM164 0h-64l399 507h65zM165 280c50 0 77 48 77 129c0 38 -14 57 -44 57c-49 0 -77 -43 -77 -128c0 -37 13 -58 44 -58zM504 271c67 0 98 -38 98 -104
c0 -95 -41 -171 -137 -171c-69 0 -99 41 -99 104c0 102 46 171 138 171zM467 40c51 0 77 48 77 129c0 38 -13 58 -44 58c-48 0 -76 -44 -76 -129c0 -37 13 -58 43 -58z" />
    <glyph glyph-name="ampersand.sc" horiz-adv-x="524" 
d="M391 132c-6 -6 -11 -12 -17 -19l86 -107l-2 -6h-80l-52 66c-46 -41 -100 -74 -173 -74c-83 0 -129 41 -129 106c0 74 76 119 136 157l11 7l-11 14c-19 24 -51 63 -51 106c0 73 63 133 166 133c78 0 129 -45 129 -108c0 -58 -47 -96 -117 -142l-23 -15l70 -86l12 13l85 94
l49 -42zM214 313l13 -16l26 16c49 31 80 51 80 88c0 30 -21 53 -64 53c-56 0 -89 -33 -89 -72c0 -25 15 -48 34 -69zM161 53c46 0 87 27 125 63l-78 99l-17 -11c-53 -34 -94 -60 -94 -99c0 -31 26 -52 64 -52z" />
    <glyph glyph-name="section.sc" horiz-adv-x="459" 
d="M401 213c0 -47 -34 -83 -71 -103c24 -17 39 -36 39 -71c0 -75 -84 -125 -190 -125c-84 0 -148 30 -172 72l46 44c22 -33 66 -57 131 -57c63 0 102 21 102 55c0 24 -31 38 -64 52l-73 31c-55 23 -91 47 -91 100c0 43 30 81 69 105c-19 16 -37 34 -37 70
c0 75 89 129 181 129c76 0 135 -19 164 -68l-50 -42c-26 38 -72 50 -119 50c-49 0 -94 -23 -94 -57c0 -25 32 -40 70 -55l59 -24c60 -25 100 -50 100 -106zM186 288c-27 -13 -50 -35 -50 -63s26 -44 63 -58l73 -29c21 10 52 32 52 61c0 33 -32 49 -70 63z" />
    <glyph glyph-name="paragraph.sc" horiz-adv-x="435" 
d="M281 342l-64 -364h-66l25 139c-93 0 -134 30 -134 89c0 79 47 136 154 136h85zM181 -124c46 23 69 48 78 101l65 365h66l-62 -353c-14 -79 -43 -133 -116 -161z" />
    <glyph glyph-name="parenleft.sc" horiz-adv-x="257" 
d="M94 -167c-36 72 -58 164 -58 252c0 203 70 316 176 442l58 -20c-88 -127 -157 -244 -157 -424c0 -70 15 -156 41 -229z" />
    <glyph glyph-name="slash.sc" horiz-adv-x="301" 
d="M315 498l-246 -498h-76l2 10l244 497h78z" />
    <glyph glyph-name="parenright.sc" horiz-adv-x="256" 
d="M-29 -146c116 164 155 267 155 416c0 78 -17 168 -41 237l60 20c34 -72 59 -158 59 -254c0 -185 -60 -305 -176 -440z" />
    <glyph glyph-name="bracketleft.sc" horiz-adv-x="277" 
d="M288 522l-11 -62h-92l-99 -560h92l-10 -62h-170l120 684h170z" />
    <glyph glyph-name="backslash.sc" horiz-adv-x="298" 
d="M80 507h75l73 -497l-2 -10h-72l-75 498z" />
    <glyph glyph-name="bracketright.sc" horiz-adv-x="277" 
d="M262 522l-120 -684h-169l11 62h92l99 560h-92l11 62h168z" />
    <glyph glyph-name="braceleft.sc" horiz-adv-x="275" 
d="M184 261c-11 -59 -31 -76 -57 -82c23 -10 38 -28 27 -83l-25 -147c-8 -41 4 -53 40 -53l-10 -58c-85 0 -120 28 -106 108l25 143c8 45 -13 61 -60 61l10 55c48 0 73 15 82 63l26 149c14 79 56 101 143 101l-11 -59c-35 0 -51 -10 -59 -51z" />
    <glyph glyph-name="bar.sc" horiz-adv-x="243" 
d="M88 -162v684h50v-684h-50z" />
    <glyph glyph-name="braceright.sc" horiz-adv-x="274" 
d="M74 100c11 59 31 76 57 82c-23 10 -39 28 -28 83l25 142c8 41 -4 53 -40 53l10 58c85 0 121 -28 106 -108l-25 -143c-8 -45 13 -61 60 -61l-10 -55c-48 0 -73 -15 -82 -63l-26 -149c-14 -79 -56 -101 -143 -101l11 59c35 0 52 10 59 51z" />
    <glyph glyph-name="zero.sc" horiz-adv-x="498" 
d="M292 515c104 0 161 -64 161 -188c0 -186 -71 -335 -237 -335c-105 0 -163 66 -163 189c0 188 73 334 239 334zM220 57c103 0 155 105 155 270c0 76 -26 123 -86 123c-103 0 -156 -104 -156 -269c0 -77 26 -124 87 -124z" />
    <glyph glyph-name="one.sc" horiz-adv-x="326" 
d="M135 0l75 427l-146 -54l-11 66l181 68h67l-89 -507h-77z" />
    <glyph glyph-name="two.sc" horiz-adv-x="431" 
d="M257 515c85 0 143 -46 143 -130s-56 -138 -133 -205l-132 -117h217l-11 -63h-327l10 55l193 171c65 56 102 98 102 156c0 40 -23 68 -69 68c-54 0 -88 -37 -98 -92h-76c14 90 75 157 181 157z" />
    <glyph glyph-name="three.sc" horiz-adv-x="449" 
d="M307 257c39 -10 74 -47 74 -106c0 -89 -79 -159 -196 -159c-125 0 -166 60 -152 136h75c-7 -42 17 -71 82 -71c66 0 112 40 112 97c0 44 -36 74 -98 74h-48l12 63h47c72 0 120 34 120 94c0 38 -27 65 -76 65c-56 0 -92 -31 -99 -71h-77c12 74 72 136 180 136
c90 0 153 -44 153 -124c0 -76 -54 -118 -109 -134z" />
    <glyph glyph-name="four.sc" horiz-adv-x="468" 
d="M406 107h-69l-19 -107h-77l19 107h-246l10 56l303 344h81l-60 -337h69zM271 170l41 224l-197 -224h156z" />
    <glyph glyph-name="five.sc" horiz-adv-x="438" 
d="M381 190c0 -106 -76 -198 -205 -198c-125 0 -162 64 -149 144h76c-8 -46 14 -79 78 -79c81 0 118 60 118 126c0 46 -28 76 -80 76c-36 0 -66 -14 -91 -29l-61 9l80 268h271l-11 -63h-206l-43 -138c17 7 51 18 79 18c83 0 144 -40 144 -134z" />
    <glyph glyph-name="six.sc" horiz-adv-x="470" 
d="M360 379c7 43 -20 71 -74 71c-85 0 -134 -88 -147 -176c22 19 65 49 126 49c92 0 147 -47 147 -135c0 -109 -78 -196 -205 -196c-107 0 -156 74 -156 186c0 184 85 337 239 337c112 0 158 -61 145 -136h-75zM131 201c-9 -88 15 -144 81 -144c74 0 119 52 119 125
c0 47 -28 78 -84 78c-48 0 -94 -31 -116 -59z" />
    <glyph glyph-name="seven.sc" horiz-adv-x="391" 
d="M306 444h-234l11 63h326l-10 -55l-271 -452h-89z" />
    <glyph glyph-name="eight.sc" horiz-adv-x="473" 
d="M201 -8c-107 0 -166 48 -166 129c0 82 69 130 122 143c-40 12 -70 41 -70 96c0 89 77 155 194 155c95 0 156 -44 156 -121c0 -78 -53 -120 -109 -134c41 -13 78 -43 78 -105c0 -103 -86 -163 -205 -163zM275 450c-63 0 -108 -36 -108 -92c0 -42 34 -66 81 -66
c60 0 109 32 109 95c0 38 -31 63 -82 63zM206 57c72 0 121 37 121 101c0 45 -38 71 -91 71c-64 0 -119 -34 -119 -101c0 -45 34 -71 89 -71z" />
    <glyph glyph-name="nine.sc" horiz-adv-x="470" 
d="M119 128c-7 -43 21 -71 74 -71c85 0 134 88 147 176c-22 -19 -65 -49 -125 -49c-92 0 -148 47 -148 135c0 109 78 196 205 196c108 0 156 -74 156 -186c0 -184 -84 -337 -239 -337c-112 0 -158 61 -145 136h75zM349 306c8 88 -16 144 -81 144c-74 0 -120 -52 -120 -125
c0 -47 28 -78 84 -78c48 0 94 31 117 59z" />
    <glyph glyph-name="question.sc" horiz-adv-x="371" 
d="M223 515c86 0 137 -46 137 -117c0 -116 -144 -143 -160 -235h-78c22 121 161 152 161 229c0 32 -22 56 -63 56c-48 0 -75 -26 -81 -60l-72 7c10 64 59 120 156 120zM134 -5c-27 0 -45 20 -45 43c0 32 27 55 60 55c27 0 46 -19 46 -42c0 -32 -27 -56 -61 -56z" />
    <glyph glyph-name="a.sc" horiz-adv-x="497" 
d="M336 126h-205l-66 -126h-88l274 507h93l96 -507h-83zM163 190h164l-41 236z" />
    <glyph glyph-name="b.sc" horiz-adv-x="485" 
d="M126 507h161c98 0 152 -35 152 -113c0 -75 -44 -118 -94 -131c44 -10 79 -45 79 -104c0 -108 -72 -159 -216 -159h-172zM246 294c86 0 109 40 109 91c0 36 -24 58 -83 58h-78l-27 -149h79zM218 64c93 0 124 38 124 98c0 41 -27 67 -97 67h-89l-29 -165h91z" />
    <glyph glyph-name="c.sc" horiz-adv-x="485" 
d="M135 196c0 -87 38 -137 111 -137c52 0 92 28 120 64l56 -43c-38 -53 -95 -88 -182 -88c-120 0 -188 68 -188 202c0 182 85 321 265 321c88 0 142 -38 163 -91l-65 -38c-15 37 -50 62 -100 62c-132 0 -180 -123 -180 -252z" />
    <glyph glyph-name="d.sc" horiz-adv-x="537" 
d="M126 507h148c141 0 220 -59 220 -192c0 -212 -91 -315 -300 -315h-158zM196 64c144 0 216 69 216 249c0 89 -46 130 -149 130h-69l-67 -379h69z" />
    <glyph glyph-name="e.sc" horiz-adv-x="450" 
d="M372 64l-11 -64h-325l90 507h321l-11 -64h-242l-27 -153h212l-11 -65h-212l-29 -161h245z" />
    <glyph glyph-name="f.sc" horiz-adv-x="435" 
d="M126 507h313l-11 -64h-234l-29 -167h198l-11 -65h-199l-37 -211h-80z" />
    <glyph glyph-name="g.sc" horiz-adv-x="526" 
d="M288 273h199c-1 -14 -3 -38 -4 -45c-21 -137 -93 -236 -239 -236c-129 0 -193 73 -193 201c0 197 103 322 272 322c86 0 142 -33 167 -88l-65 -38c-20 39 -50 59 -109 59c-107 0 -183 -93 -183 -256c0 -88 35 -134 115 -134c92 0 138 70 151 150h-122z" />
    <glyph glyph-name="h.sc" horiz-adv-x="556" 
d="M450 507h79l-89 -507h-80l41 232h-245l-40 -232h-80l90 507h79l-38 -210h246z" />
    <glyph glyph-name="i.sc" horiz-adv-x="232" 
d="M126 507h79l-89 -507h-80z" />
    <glyph glyph-name="j.sc" horiz-adv-x="402" 
d="M62 108c11 -31 33 -49 73 -49c57 0 96 33 111 117l58 331h76l-60 -337c-22 -127 -87 -178 -189 -178c-74 0 -118 32 -134 79z" />
    <glyph glyph-name="k.sc" horiz-adv-x="500" 
d="M145 165l-29 -165h-80l90 507h79l-41 -235l261 235h104l-232 -212l139 -295h-87l-113 244z" />
    <glyph glyph-name="l.sc" horiz-adv-x="392" 
d="M343 64l-11 -64h-296l90 507h79l-78 -443h216z" />
    <glyph glyph-name="m.sc" horiz-adv-x="689" 
d="M519 507h109l-27 -507h-76l25 414l-201 -414h-87l-53 413l-125 -413h-77l157 507h105l51 -409z" />
    <glyph glyph-name="n.sc" horiz-adv-x="557" 
d="M453 507h78l-90 -507h-81l-178 383l-65 -383h-81l90 507h83l177 -380z" />
    <glyph glyph-name="o.sc" horiz-adv-x="539" 
d="M497 317c0 -198 -92 -325 -263 -325c-129 0 -183 82 -183 197c0 170 72 326 263 326c127 0 183 -80 183 -198zM132 188c0 -75 28 -129 107 -129c107 0 177 86 177 257c0 75 -28 132 -107 132c-123 0 -177 -114 -177 -260z" />
    <glyph glyph-name="p.sc" horiz-adv-x="468" 
d="M150 194l-34 -194h-80l90 507h167c105 0 159 -47 159 -132c0 -112 -69 -181 -207 -181h-95zM161 259h87c89 0 122 47 122 111c0 44 -25 73 -89 73h-87z" />
    <glyph glyph-name="q.sc" horiz-adv-x="534" 
d="M501 317c0 -96 -22 -175 -63 -231l41 -46l-52 -48l-39 44c-40 -28 -91 -44 -151 -44c-128 0 -182 82 -182 197c0 170 71 326 263 326c126 0 183 -80 183 -198zM242 59c37 0 70 10 97 31l-105 119l49 46l101 -111c23 42 36 99 36 172c0 75 -29 132 -108 132
c-122 0 -176 -114 -176 -260c0 -75 28 -129 106 -129z" />
    <glyph glyph-name="r.sc" horiz-adv-x="494" 
d="M126 507h180c108 0 166 -42 166 -123c0 -96 -59 -151 -157 -162l102 -222h-85l-95 216h-84l-38 -216h-79zM389 379c0 40 -28 64 -96 64h-99l-29 -162h100c88 0 124 34 124 98z" />
    <glyph glyph-name="s.sc" horiz-adv-x="448" 
d="M369 399c-16 31 -48 49 -99 49c-70 0 -106 -39 -106 -90c0 -28 15 -49 65 -65l50 -17c63 -20 109 -58 109 -125c0 -98 -81 -159 -204 -159c-118 0 -156 54 -170 96l64 41c11 -37 32 -70 109 -70c79 0 117 34 117 87c0 31 -19 51 -73 70l-47 17c-66 23 -104 56 -104 120
c0 89 69 162 194 162c92 0 138 -35 157 -75z" />
    <glyph glyph-name="t.sc" horiz-adv-x="435" 
d="M451 507l-11 -64h-145l-79 -443h-79l78 443h-146l11 64h371z" />
    <glyph glyph-name="u.sc" horiz-adv-x="532" 
d="M230 -8c-117 0 -189 57 -165 198l56 317h79l-56 -317c-16 -92 15 -131 92 -131s124 40 140 131l55 317h80l-56 -317c-25 -141 -105 -198 -225 -198z" />
    <glyph glyph-name="v.sc" horiz-adv-x="486" 
d="M514 507l-261 -507h-101l-81 507h79l64 -427l212 427h88z" />
    <glyph glyph-name="w.sc" horiz-adv-x="775" 
d="M478 507l45 -419l187 419h85l-232 -507h-98l-47 401l-188 -401h-97l-55 507h79l39 -419l192 419h90z" />
    <glyph glyph-name="x.sc" horiz-adv-x="475" 
d="M167 507l81 -194l152 194h94l-197 -245l114 -262h-87l-86 206l-159 -206h-94l206 262l-111 245h87z" />
    <glyph glyph-name="y.sc" horiz-adv-x="470" 
d="M155 0l35 200l-123 307h84l89 -235l168 235h93l-231 -307l-36 -200h-79z" />
    <glyph glyph-name="z.sc" horiz-adv-x="425" 
d="M416 450l-308 -386h247l-12 -64h-343l9 56l309 387h-227l10 64h326z" />
    <glyph glyph-name="agrave.sc" horiz-adv-x="497" 
d="M301 726l45 -155h-66l-55 155h76zM336 126h-205l-66 -126h-88l274 507h93l96 -507h-83zM163 190h164l-41 236z" />
    <glyph glyph-name="aacute.sc" horiz-adv-x="497" 
d="M456 726l-110 -155h-72l99 155h83zM336 126h-205l-66 -126h-88l274 507h93l96 -507h-83zM163 190h164l-41 236z" />
    <glyph glyph-name="acircumflex.sc" horiz-adv-x="497" 
d="M376 726l70 -155h-71l-45 101l-82 -101h-74l124 155h78zM336 126h-205l-66 -126h-88l274 507h93l96 -507h-83zM163 190h164l-41 236z" />
    <glyph glyph-name="atilde.sc" horiz-adv-x="497" 
d="M437 603c-15 15 -35 25 -56 25c-44 0 -86 -38 -143 -38c-28 0 -51 12 -59 24l16 61c12 -16 28 -25 54 -25c45 0 80 39 142 39c33 0 51 -14 63 -25zM336 126h-205l-66 -126h-88l274 507h93l96 -507h-83zM163 190h164l-41 236z" />
    <glyph glyph-name="adieresis.sc" horiz-adv-x="497" 
d="M229 590c-27 0 -47 14 -47 43c0 45 27 63 62 63c23 0 45 -15 45 -45c0 -44 -30 -61 -60 -61zM402 590c-26 0 -46 14 -46 43c0 45 26 63 61 63c24 0 46 -15 46 -45c0 -44 -30 -61 -61 -61zM336 126h-205l-66 -126h-88l274 507h93l96 -507h-83zM163 190h164l-41 236z" />
    <glyph glyph-name="amacron.sc" horiz-adv-x="497" 
d="M460 666l-12 -65h-266l12 65h266zM336 126h-205l-66 -126h-88l274 507h93l96 -507h-83zM163 190h164l-41 236z" />
    <glyph glyph-name="abreve.sc" horiz-adv-x="497" 
d="M465 703c-14 -79 -68 -138 -155 -138c-82 0 -122 59 -108 138h54c-5 -45 17 -78 62 -78c47 0 80 33 91 78h56zM336 126h-205l-66 -126h-88l274 507h93l96 -507h-83zM163 190h164l-41 236z" />
    <glyph glyph-name="aring.sc" horiz-adv-x="497" 
d="M223 637c0 60 44 108 114 108c56 0 88 -38 88 -81c0 -59 -44 -109 -116 -109c-55 0 -86 39 -86 82zM274 641c0 -22 14 -39 41 -39c36 0 58 25 58 57c0 23 -14 40 -42 40c-34 0 -57 -25 -57 -58zM336 126h-205l-66 -126h-88l274 507h93l96 -507h-83zM163 190h164l-41 236z
" />
    <glyph glyph-name="aringacute.sc" horiz-adv-x="497" 
d="M214 638c0 51 35 94 91 103l67 79h80l-79 -85c26 -12 42 -40 42 -73c0 -59 -47 -106 -115 -106c-57 0 -86 39 -86 82zM264 641c0 -23 14 -40 40 -40c37 0 60 25 60 59c0 23 -15 40 -42 40c-35 0 -58 -25 -58 -59zM336 126h-205l-66 -126h-88l274 507h93l96 -507h-83z
M163 190h164l-41 236z" />
    <glyph glyph-name="aogonek.sc" horiz-adv-x="498" 
d="M319 -120c0 -15 9 -32 35 -32c19 0 42 11 64 26l-11 -69c-22 -11 -46 -21 -81 -21c-57 0 -90 33 -90 77c0 46 26 75 70 108l50 38l-20 119h-205l-66 -126h-88l274 507h93l96 -507l-80 -58c-28 -21 -41 -38 -41 -62zM163 190h164l-41 236z" />
    <glyph glyph-name="ae.sc" horiz-adv-x="779" 
d="M701 64l-11 -64h-325l22 126h-194l-112 -126h-104l454 507h345l-11 -64h-242l-27 -153h212l-11 -65h-213l-28 -161h245zM398 190l38 213l-190 -213h152z" />
    <glyph glyph-name="aeacute.sc" horiz-adv-x="779" 
d="M714 726l-110 -155h-72l99 155h83zM701 64l-11 -64h-325l22 126h-194l-112 -126h-104l454 507h345l-11 -64h-242l-27 -153h212l-11 -65h-213l-28 -161h245zM398 190l38 213l-190 -213h152z" />
    <glyph glyph-name="cacute.sc" horiz-adv-x="485" 
d="M466 734l-110 -155h-72l99 155h83zM135 196c0 -87 38 -137 111 -137c52 0 92 28 120 64l56 -43c-38 -53 -95 -88 -182 -88c-120 0 -188 68 -188 202c0 182 85 321 265 321c88 0 142 -38 163 -91l-65 -38c-15 37 -50 62 -100 62c-132 0 -180 -123 -180 -252z" />
    <glyph glyph-name="ccircumflex.sc" horiz-adv-x="480" 
d="M398 726l69 -155h-70l-46 101l-81 -101h-75l124 155h79zM139 196c0 -87 38 -137 111 -137c51 0 91 28 119 64l57 -43c-39 -53 -96 -88 -182 -88c-120 0 -189 68 -189 202c0 182 85 321 266 321c87 0 141 -38 162 -91l-65 -38c-15 37 -50 62 -100 62
c-132 0 -179 -123 -179 -252z" />
    <glyph glyph-name="ccaron.sc" horiz-adv-x="480" 
d="M292 571l-69 155h70l46 -102l81 102h76l-125 -155h-79zM139 196c0 -87 38 -137 111 -137c51 0 91 28 119 64l57 -43c-39 -53 -96 -88 -182 -88c-120 0 -189 68 -189 202c0 182 85 321 266 321c87 0 141 -38 162 -91l-65 -38c-15 37 -50 62 -100 62
c-132 0 -179 -123 -179 -252z" />
    <glyph glyph-name="cdotaccent.sc" horiz-adv-x="480" 
d="M334 590c-27 0 -47 14 -47 43c0 45 27 63 62 63c23 0 45 -15 45 -45c0 -44 -30 -61 -60 -61zM135 196c0 -87 38 -137 111 -137c52 0 92 28 120 64l56 -43c-38 -53 -95 -88 -182 -88c-120 0 -188 68 -188 202c0 182 85 321 265 321c88 0 142 -38 163 -91l-65 -38
c-15 37 -50 62 -100 62c-132 0 -180 -123 -180 -252z" />
    <glyph glyph-name="ccedilla.sc" horiz-adv-x="479" 
d="M250 59c51 0 91 28 119 64l57 -43c-35 -48 -86 -81 -159 -87l-27 -49c42 0 73 -19 73 -65c0 -57 -42 -95 -112 -95c-32 0 -61 10 -82 22l10 55c19 -16 46 -26 73 -26c29 0 45 16 45 36c0 22 -18 28 -46 28h-34l-3 6l46 89c-99 12 -155 79 -155 200c0 182 85 321 266 321
c87 0 141 -38 162 -91l-65 -38c-15 37 -50 62 -100 62c-132 0 -179 -123 -179 -252c0 -87 38 -137 111 -137z" />
    <glyph glyph-name="dcaron.sc" horiz-adv-x="537" 
d="M270 571l-69 155h70l46 -102l81 102h75l-124 -155h-79zM126 507h148c141 0 220 -59 220 -192c0 -212 -91 -315 -300 -315h-158zM196 64c144 0 216 69 216 249c0 89 -46 130 -149 130h-69l-67 -379h69z" />
    <glyph glyph-name="dcroat.sc" horiz-adv-x="543" 
d="M289 507c141 0 220 -59 220 -192c0 -212 -91 -315 -300 -315h-158l41 230h-67l11 57h66l39 220h148zM211 64c144 0 216 69 216 249c0 89 -46 130 -149 130h-69l-28 -156h92l-10 -57h-92l-29 -166h69z" />
    <glyph glyph-name="eth.sc" horiz-adv-x="543" 
d="M289 507c141 0 220 -59 220 -192c0 -212 -91 -315 -300 -315h-158l41 230h-67l11 57h66l39 220h148zM211 64c144 0 216 69 216 249c0 89 -46 130 -149 130h-69l-28 -156h92l-10 -57h-92l-29 -166h69z" />
    <glyph glyph-name="egrave.sc" horiz-adv-x="450" 
d="M290 726l45 -155h-66l-55 155h76zM372 64l-11 -64h-325l90 507h321l-11 -64h-242l-27 -153h212l-11 -65h-212l-29 -161h245z" />
    <glyph glyph-name="eacute.sc" horiz-adv-x="444" 
d="M443 726l-110 -155h-72l99 155h83zM375 64l-11 -64h-324l90 507h320l-11 -64h-241l-27 -153h212l-12 -65h-212l-28 -161h244z" />
    <glyph glyph-name="ecircumflex.sc" horiz-adv-x="444" 
d="M366 726l69 -155h-70l-46 101l-81 -101h-75l124 155h79zM375 64l-11 -64h-324l90 507h320l-11 -64h-241l-27 -153h212l-12 -65h-212l-28 -161h244z" />
    <glyph glyph-name="ecaron.sc" horiz-adv-x="444" 
d="M260 571l-69 155h70l46 -102l81 102h75l-124 -155h-79zM375 64l-11 -64h-324l90 507h320l-11 -64h-241l-27 -153h212l-12 -65h-212l-28 -161h244z" />
    <glyph glyph-name="edieresis.sc" horiz-adv-x="444" 
d="M218 590c-27 0 -47 14 -47 43c0 45 27 63 62 63c23 0 45 -15 45 -45c0 -44 -30 -61 -60 -61zM391 590c-26 0 -46 14 -46 43c0 45 26 63 61 63c24 0 46 -15 46 -45c0 -44 -30 -61 -61 -61zM375 64l-11 -64h-324l90 507h320l-11 -64h-241l-27 -153h212l-12 -65h-212
l-28 -161h244z" />
    <glyph glyph-name="emacron.sc" horiz-adv-x="444" 
d="M449 666l-12 -65h-266l12 65h266zM375 64l-11 -64h-324l90 507h320l-11 -64h-241l-27 -153h212l-12 -65h-212l-28 -161h244z" />
    <glyph glyph-name="ebreve.sc" horiz-adv-x="444" 
d="M454 703c-14 -79 -68 -138 -155 -138c-82 0 -122 59 -108 138h54c-5 -45 17 -78 62 -78c47 0 80 33 91 78h56zM375 64l-11 -64h-324l90 507h320l-11 -64h-241l-27 -153h212l-12 -65h-212l-28 -161h244z" />
    <glyph glyph-name="edotaccent.sc" horiz-adv-x="444" 
d="M301 590c-26 0 -46 14 -46 43c0 45 26 63 61 63c24 0 46 -15 46 -45c0 -44 -30 -61 -61 -61zM372 64l-11 -64h-325l90 507h321l-11 -64h-242l-27 -153h212l-11 -65h-212l-29 -161h245z" />
    <glyph glyph-name="eogonek.sc" horiz-adv-x="443" 
d="M438 443h-241l-27 -153h212l-12 -65h-212l-28 -161h244l-11 -64l-80 -58c-28 -21 -41 -38 -41 -62c0 -15 9 -32 35 -32c19 0 42 11 64 26l-11 -69c-22 -11 -46 -21 -82 -21c-56 0 -90 33 -90 77c0 46 27 75 71 108l41 31h-231l90 507h320z" />
    <glyph glyph-name="gcircumflex.sc" horiz-adv-x="526" 
d="M399 726l69 -155h-70l-46 101l-81 -101h-75l124 155h79zM288 273h199c-1 -14 -3 -38 -4 -45c-21 -137 -93 -236 -239 -236c-129 0 -193 73 -193 201c0 197 103 322 272 322c86 0 142 -33 167 -88l-65 -38c-20 39 -50 59 -109 59c-107 0 -183 -93 -183 -256
c0 -88 35 -134 115 -134c92 0 138 70 151 150h-122z" />
    <glyph glyph-name="gbreve.sc" horiz-adv-x="521" 
d="M492 703c-14 -79 -68 -138 -155 -138c-82 0 -122 59 -108 138h54c-5 -45 18 -78 62 -78c47 0 80 33 91 78h56zM292 273h199c-1 -14 -4 -38 -5 -45c-21 -137 -92 -236 -239 -236c-129 0 -192 73 -192 201c0 197 103 322 271 322c86 0 143 -33 167 -88l-64 -38
c-21 39 -50 59 -109 59c-107 0 -184 -93 -184 -256c0 -88 35 -134 115 -134c93 0 139 70 151 150h-122z" />
    <glyph glyph-name="gdotaccent.sc" horiz-adv-x="521" 
d="M339 590c-26 0 -46 14 -46 43c0 45 26 63 61 63c24 0 46 -15 46 -45c0 -44 -30 -61 -61 -61zM288 273h199c-1 -14 -3 -38 -4 -45c-21 -137 -93 -236 -239 -236c-129 0 -193 73 -193 201c0 197 103 322 272 322c86 0 142 -33 167 -88l-65 -38c-20 39 -50 59 -109 59
c-107 0 -183 -93 -183 -256c0 -88 35 -134 115 -134c92 0 138 70 151 150h-122z" />
    <glyph glyph-name="uni0123.sc" horiz-adv-x="521" 
d="M292 273h199c-1 -14 -4 -38 -5 -45c-21 -137 -92 -236 -239 -236c-129 0 -192 73 -192 201c0 197 103 322 271 322c86 0 143 -33 167 -88l-64 -38c-21 39 -50 59 -109 59c-107 0 -184 -93 -184 -256c0 -88 35 -134 115 -134c93 0 139 70 151 150h-122zM196 -216h-61
l50 148h88z" />
    <glyph glyph-name="hcircumflex.sc" horiz-adv-x="556" 
d="M406 726l69 -155h-70l-46 101l-81 -101h-75l124 155h79zM450 507h79l-89 -507h-80l41 232h-245l-40 -232h-80l90 507h79l-38 -210h246z" />
    <glyph glyph-name="hbar.sc" horiz-adv-x="558" 
d="M113 427l14 80h78l-14 -80h247l14 80h78l-14 -80h38l-10 -56h-38l-65 -371h-79l41 232h-246l-41 -232h-79l65 371h-38l10 56h39zM427 371h-246l-13 -74h247z" />
    <glyph glyph-name="igrave.sc" horiz-adv-x="232" 
d="M168 726l45 -155h-66l-55 155h76zM126 507h79l-89 -507h-80z" />
    <glyph glyph-name="iacute.sc" horiz-adv-x="232" 
d="M331 726l-109 -155h-72l99 155h82zM135 507h79l-89 -507h-80z" />
    <glyph glyph-name="ibreve.sc" horiz-adv-x="232" 
d="M341 703c-14 -79 -69 -138 -155 -138c-82 0 -122 59 -108 138h54c-5 -45 17 -78 62 -78c47 0 80 33 91 78h56zM135 507h79l-89 -507h-80z" />
    <glyph glyph-name="icircumflex.sc" horiz-adv-x="232" 
d="M252 726l70 -155h-71l-45 101l-82 -101h-74l124 155h78zM135 507h79l-89 -507h-80z" />
    <glyph glyph-name="itilde.sc" horiz-adv-x="232" 
d="M319 603c-15 15 -36 25 -57 25c-43 0 -85 -38 -142 -38c-28 0 -51 12 -60 24l16 61c12 -16 29 -25 55 -25c45 0 80 39 142 39c32 0 50 -14 62 -25zM135 507h79l-89 -507h-80z" />
    <glyph glyph-name="idieresis.sc" horiz-adv-x="232" 
d="M104 590c-26 0 -46 14 -46 43c0 45 26 63 61 63c24 0 46 -15 46 -45c0 -44 -30 -61 -61 -61zM278 590c-27 0 -47 14 -47 43c0 45 27 63 62 63c23 0 45 -15 45 -45c0 -44 -30 -61 -60 -61zM135 507h79l-89 -507h-80z" />
    <glyph glyph-name="imacron.sc" horiz-adv-x="232" 
d="M335 666l-11 -65h-266l11 65h266zM135 507h79l-89 -507h-80z" />
    <glyph glyph-name="i.sc.loclTRK" horiz-adv-x="232" 
d="M182 590c-27 0 -46 14 -46 43c0 45 26 63 61 63c24 0 45 -15 45 -45c0 -44 -30 -61 -60 -61zM126 507h79l-89 -507h-80z" />
    <glyph glyph-name="iogonek.sc" horiz-adv-x="226" 
d="M39 -58c-28 -21 -42 -38 -42 -62c0 -15 10 -32 36 -32c19 0 42 11 64 26l-12 -69c-21 -11 -46 -21 -81 -21c-56 0 -90 33 -90 77c0 46 27 75 71 108l57 44l88 494h78l-89 -507z" />
    <glyph glyph-name="jcircumflex.sc" horiz-adv-x="402" 
d="M415 726l69 -155h-70l-46 101l-81 -101h-75l124 155h79zM62 108c11 -31 33 -49 73 -49c57 0 96 33 111 117l58 331h76l-60 -337c-22 -127 -87 -178 -189 -178c-74 0 -118 32 -134 79z" />
    <glyph glyph-name="uni0137.sc" horiz-adv-x="500" 
d="M145 165l-29 -165h-80l90 507h79l-41 -235l261 235h104l-232 -212l139 -295h-87l-113 244zM161 -216h-61l50 148h89z" />
    <glyph glyph-name="lacute.sc" horiz-adv-x="392" 
d="M308 726l-110 -155h-72l99 155h83zM343 64l-11 -64h-296l90 507h79l-78 -443h216z" />
    <glyph glyph-name="lcaron.sc" horiz-adv-x="392" 
d="M343 64l-11 -64h-296l90 507h79l-78 -443h216zM362 352h-59l51 155h86z" />
    <glyph glyph-name="uni013C.sc" horiz-adv-x="387" 
d="M347 64l-11 -64h-296l90 507h79l-78 -443h216zM135 -216h-62l50 148h89z" />
    <glyph glyph-name="lslash.sc" horiz-adv-x="399" 
d="M351 64l-11 -64h-296l35 196l-61 -25l12 66l60 25l44 245h78l-36 -211l74 32l-11 -66l-75 -31l-30 -167h217z" />
    <glyph glyph-name="ldot.sc" horiz-adv-x="426" 
d="M343 64l-11 -64h-296l90 507h79l-78 -443h216zM324 231c-27 0 -47 14 -47 43c0 44 27 63 62 63c23 0 45 -15 45 -45c0 -45 -30 -61 -60 -61z" />
    <glyph glyph-name="nacute.sc" horiz-adv-x="557" 
d="M472 726l-110 -155h-72l99 155h83zM453 507h78l-90 -507h-81l-178 383l-65 -383h-81l90 507h83l177 -380z" />
    <glyph glyph-name="ncaron.sc" horiz-adv-x="557" 
d="M300 571l-69 155h70l46 -102l81 102h76l-125 -155h-79zM453 507h78l-90 -507h-81l-178 383l-65 -383h-81l90 507h83l177 -380z" />
    <glyph glyph-name="ntilde.sc" horiz-adv-x="557" 
d="M473 603c-15 15 -35 25 -57 25c-43 0 -85 -38 -142 -38c-28 0 -51 12 -60 24l17 61c11 -16 28 -25 54 -25c45 0 80 39 142 39c32 0 50 -14 63 -25zM453 507h78l-90 -507h-81l-178 383l-65 -383h-81l90 507h83l177 -380z" />
    <glyph glyph-name="uni0146.sc" horiz-adv-x="557" 
d="M453 507h78l-90 -507h-81l-178 383l-65 -383h-81l90 507h83l177 -380zM197 -216h-62l51 148h88z" />
    <glyph glyph-name="ograve.sc" horiz-adv-x="539" 
d="M325 726l45 -155h-66l-55 155h76zM497 317c0 -198 -92 -325 -263 -325c-129 0 -183 82 -183 197c0 170 72 326 263 326c127 0 183 -80 183 -198zM132 188c0 -75 28 -129 107 -129c107 0 177 86 177 257c0 75 -28 132 -107 132c-123 0 -177 -114 -177 -260z" />
    <glyph glyph-name="oacute.sc" horiz-adv-x="539" 
d="M475 726l-110 -155h-72l99 155h83zM497 317c0 -198 -92 -325 -263 -325c-129 0 -183 82 -183 197c0 170 72 326 263 326c127 0 183 -80 183 -198zM132 188c0 -75 28 -129 107 -129c107 0 177 86 177 257c0 75 -28 132 -107 132c-123 0 -177 -114 -177 -260z" />
    <glyph glyph-name="ocircumflex.sc" horiz-adv-x="539" 
d="M397 726l70 -155h-71l-46 101l-81 -101h-75l124 155h79zM497 317c0 -198 -92 -325 -263 -325c-129 0 -183 82 -183 197c0 170 72 326 263 326c127 0 183 -80 183 -198zM132 188c0 -75 28 -129 107 -129c107 0 177 86 177 257c0 75 -28 132 -107 132
c-123 0 -177 -114 -177 -260z" />
    <glyph glyph-name="otilde.sc" horiz-adv-x="539" 
d="M464 603c-15 15 -36 25 -57 25c-43 0 -86 -38 -142 -38c-28 0 -51 12 -60 24l16 61c12 -16 28 -25 55 -25c45 0 79 39 142 39c32 0 50 -14 62 -25zM497 317c0 -198 -92 -325 -263 -325c-129 0 -183 82 -183 197c0 170 72 326 263 326c127 0 183 -80 183 -198zM132 188
c0 -75 28 -129 107 -129c107 0 177 86 177 257c0 75 -28 132 -107 132c-123 0 -177 -114 -177 -260z" />
    <glyph glyph-name="odieresis.sc" horiz-adv-x="539" 
d="M249 590c-27 0 -46 14 -46 43c0 45 26 63 61 63c24 0 46 -15 46 -45c0 -44 -30 -61 -61 -61zM423 590c-27 0 -47 14 -47 43c0 45 27 63 62 63c23 0 45 -15 45 -45c0 -44 -30 -61 -60 -61zM497 317c0 -198 -92 -325 -263 -325c-129 0 -183 82 -183 197
c0 170 72 326 263 326c127 0 183 -80 183 -198zM132 188c0 -75 28 -129 107 -129c107 0 177 86 177 257c0 75 -28 132 -107 132c-123 0 -177 -114 -177 -260z" />
    <glyph glyph-name="omacron.sc" horiz-adv-x="539" 
d="M480 666l-11 -65h-266l12 65h265zM497 317c0 -198 -92 -325 -263 -325c-129 0 -183 82 -183 197c0 170 72 326 263 326c127 0 183 -80 183 -198zM132 188c0 -75 28 -129 107 -129c107 0 177 86 177 257c0 75 -28 132 -107 132c-123 0 -177 -114 -177 -260z" />
    <glyph glyph-name="obreve.sc" horiz-adv-x="539" 
d="M485 703c-14 -79 -68 -138 -155 -138c-81 0 -122 59 -108 138h54c-5 -45 18 -78 62 -78c47 0 80 33 91 78h56zM497 317c0 -198 -92 -325 -263 -325c-129 0 -183 82 -183 197c0 170 72 326 263 326c127 0 183 -80 183 -198zM132 188c0 -75 28 -129 107 -129
c107 0 177 86 177 257c0 75 -28 132 -107 132c-123 0 -177 -114 -177 -260z" />
    <glyph glyph-name="ohungarumlaut.sc" horiz-adv-x="539" 
d="M400 726l-110 -155h-71l99 155h82zM546 726l-110 -155h-71l100 155h81zM497 317c0 -198 -92 -325 -263 -325c-129 0 -183 82 -183 197c0 170 72 326 263 326c127 0 183 -80 183 -198zM132 188c0 -75 28 -129 107 -129c107 0 177 86 177 257c0 75 -28 132 -107 132
c-123 0 -177 -114 -177 -260z" />
    <glyph glyph-name="oslash.sc" horiz-adv-x="539" 
d="M536 507l-65 -72c18 -32 26 -72 26 -118c0 -198 -92 -325 -263 -325c-55 0 -97 15 -126 41l-30 -33h-69l67 74c-17 32 -25 71 -25 115c0 170 72 326 263 326c53 0 93 -14 123 -38l27 30h72zM132 188c0 -17 1 -32 4 -46l249 277c-17 18 -42 29 -76 29
c-123 0 -177 -114 -177 -260zM416 316c0 19 -2 36 -6 52l-250 -278c17 -19 42 -31 79 -31c107 0 177 86 177 257z" />
    <glyph glyph-name="oslashacute.sc" horiz-adv-x="539" 
d="M473 726l-110 -155h-72l99 155h83zM536 507l-65 -72c18 -32 26 -72 26 -118c0 -198 -92 -325 -263 -325c-55 0 -97 15 -126 41l-30 -33h-69l67 74c-17 32 -25 71 -25 115c0 170 72 326 263 326c53 0 93 -14 123 -38l27 30h72zM132 188c0 -17 1 -32 4 -46l249 277
c-17 18 -42 29 -76 29c-123 0 -177 -114 -177 -260zM416 316c0 19 -2 36 -6 52l-250 -278c17 -19 42 -31 79 -31c107 0 177 86 177 257z" />
    <glyph glyph-name="oe.sc" horiz-adv-x="706" 
d="M628 64l-12 -64h-311c-21 -6 -43 -8 -71 -8c-136 0 -183 88 -183 197c0 175 75 326 263 326c27 0 53 -2 76 -8h313l-11 -64h-242l-27 -153h212l-11 -65h-212l-29 -161h245zM239 59c26 0 47 4 65 12l64 365c-15 8 -35 12 -59 12c-121 0 -176 -109 -176 -260
c0 -73 27 -129 106 -129z" />
    <glyph glyph-name="racute.sc" horiz-adv-x="494" 
d="M433 726l-110 -155h-72l99 155h83zM126 507h180c108 0 166 -42 166 -123c0 -96 -59 -151 -157 -162l102 -222h-85l-95 216h-84l-38 -216h-79zM389 379c0 40 -28 64 -96 64h-99l-29 -162h100c88 0 124 34 124 98z" />
    <glyph glyph-name="rcaron.sc" horiz-adv-x="494" 
d="M250 571l-70 155h71l46 -102l81 102h75l-124 -155h-79zM126 507h180c108 0 166 -42 166 -123c0 -96 -59 -151 -157 -162l102 -222h-85l-95 216h-84l-38 -216h-79zM389 379c0 40 -28 64 -96 64h-99l-29 -162h100c88 0 124 34 124 98z" />
    <glyph glyph-name="uni0157.sc" horiz-adv-x="494" 
d="M126 507h180c108 0 166 -42 166 -123c0 -96 -59 -151 -157 -162l102 -222h-85l-95 216h-84l-38 -216h-79zM389 379c0 40 -28 64 -96 64h-99l-29 -162h100c88 0 124 34 124 98zM153 -216h-61l50 148h89z" />
    <glyph glyph-name="sacute.sc" horiz-adv-x="448" 
d="M432 726l-110 -155h-72l99 155h83zM369 399c-16 31 -48 49 -99 49c-70 0 -106 -39 -106 -90c0 -28 15 -49 65 -65l50 -17c63 -20 109 -58 109 -125c0 -98 -81 -159 -204 -159c-118 0 -156 54 -170 96l64 41c11 -37 32 -70 109 -70c79 0 117 34 117 87c0 31 -19 51 -73 70
l-47 17c-66 23 -104 56 -104 120c0 89 69 162 194 162c92 0 138 -35 157 -75z" />
    <glyph glyph-name="scircumflex.sc" horiz-adv-x="448" 
d="M352 726l69 -155h-70l-46 101l-81 -101h-75l124 155h79zM369 399c-16 31 -48 49 -99 49c-70 0 -106 -39 -106 -90c0 -28 15 -49 65 -65l50 -17c63 -20 109 -58 109 -125c0 -98 -81 -159 -204 -159c-118 0 -156 54 -170 96l64 41c11 -37 32 -70 109 -70
c79 0 117 34 117 87c0 31 -19 51 -73 70l-47 17c-66 23 -104 56 -104 120c0 89 69 162 194 162c92 0 138 -35 157 -75z" />
    <glyph glyph-name="scaron.sc" horiz-adv-x="448" 
d="M246 571l-70 155h71l46 -102l81 102h75l-124 -155h-79zM369 399c-16 31 -48 49 -99 49c-70 0 -106 -39 -106 -90c0 -28 15 -49 65 -65l50 -17c63 -20 109 -58 109 -125c0 -98 -81 -159 -204 -159c-118 0 -156 54 -170 96l64 41c11 -37 32 -70 109 -70c79 0 117 34 117 87
c0 31 -19 51 -73 70l-47 17c-66 23 -104 56 -104 120c0 89 69 162 194 162c92 0 138 -35 157 -75z" />
    <glyph glyph-name="scedilla.sc" horiz-adv-x="448" 
d="M279 276c63 -20 109 -58 109 -125c0 -90 -68 -148 -174 -158l-27 -49c42 0 73 -19 73 -65c0 -57 -42 -95 -112 -95c-33 0 -61 10 -82 22l10 55c19 -16 46 -26 73 -26c29 0 45 16 45 36c0 22 -18 28 -46 28h-34l-3 6l45 88c-96 8 -129 56 -142 95l64 41
c11 -37 32 -70 109 -70c79 0 117 34 117 87c0 31 -19 51 -73 70l-47 17c-66 23 -104 56 -104 120c0 89 69 162 194 162c92 0 138 -35 157 -75l-62 -41c-16 31 -48 49 -99 49c-70 0 -106 -39 -106 -90c0 -28 15 -49 65 -65z" />
    <glyph glyph-name="uni0219.sc" horiz-adv-x="448" 
d="M369 399c-16 31 -48 49 -99 49c-70 0 -106 -39 -106 -90c0 -28 15 -49 65 -65l50 -17c63 -20 109 -58 109 -125c0 -98 -81 -159 -204 -159c-118 0 -156 54 -170 96l64 41c11 -37 32 -70 109 -70c79 0 117 34 117 87c0 31 -19 51 -73 70l-47 17c-66 23 -104 56 -104 120
c0 89 69 162 194 162c92 0 138 -35 157 -75zM146 -216h-62l51 148h88z" />
    <glyph glyph-name="tcaron.sc" horiz-adv-x="435" 
d="M238 571l-69 155h70l46 -102l81 102h75l-124 -155h-79zM451 507l-11 -64h-145l-79 -443h-79l78 443h-146l11 64h371z" />
    <glyph glyph-name="uni021B.sc" horiz-adv-x="435" 
d="M451 507l-11 -64h-145l-79 -443h-79l78 443h-146l11 64h371zM130 -216h-61l50 148h89z" />
    <glyph glyph-name="tbar.sc" horiz-adv-x="435" 
d="M186 274l29 169h-146l11 64h371l-11 -64h-145l-31 -169h80l-10 -56h-79l-39 -218h-79l38 218h-79l10 56h80z" />
    <glyph glyph-name="thorn.sc" horiz-adv-x="468" 
d="M132 97l-16 -97h-80l90 507h79l-17 -97h89c100 0 159 -43 159 -131c0 -110 -70 -182 -208 -182h-96zM144 161h88c89 0 121 49 121 112c0 44 -26 72 -89 72h-88z" />
    <glyph glyph-name="ugrave.sc" horiz-adv-x="532" 
d="M318 726l45 -155h-66l-55 155h76zM230 -8c-117 0 -189 57 -165 198l56 317h79l-56 -317c-16 -92 15 -131 92 -131s124 40 140 131l55 317h80l-56 -317c-25 -141 -105 -198 -225 -198z" />
    <glyph glyph-name="uacute.sc" horiz-adv-x="532" 
d="M458 726l-110 -155h-72l99 155h83zM230 -8c-117 0 -189 57 -165 198l56 317h79l-56 -317c-16 -92 15 -131 92 -131s124 40 140 131l55 317h80l-56 -317c-25 -141 -105 -198 -225 -198z" />
    <glyph glyph-name="ucircumflex.sc" horiz-adv-x="532" 
d="M393 726l69 -155h-70l-46 101l-81 -101h-75l124 155h79zM230 -8c-117 0 -189 57 -165 198l56 317h79l-56 -317c-16 -92 15 -131 92 -131s124 40 140 131l55 317h80l-56 -317c-25 -141 -105 -198 -225 -198z" />
    <glyph glyph-name="utilde.sc" horiz-adv-x="532" 
d="M460 603c-15 15 -36 25 -57 25c-43 0 -85 -38 -142 -38c-28 0 -51 12 -60 24l16 61c12 -16 29 -25 55 -25c45 0 80 39 142 39c32 0 50 -14 62 -25zM230 -8c-117 0 -189 57 -165 198l56 317h79l-56 -317c-16 -92 15 -131 92 -131s124 40 140 131l55 317h80l-56 -317
c-25 -141 -105 -198 -225 -198z" />
    <glyph glyph-name="udieresis.sc" horiz-adv-x="532" 
d="M245 590c-26 0 -46 14 -46 43c0 45 26 63 61 63c24 0 46 -15 46 -45c0 -44 -30 -61 -61 -61zM419 590c-27 0 -47 14 -47 43c0 45 27 63 62 63c23 0 45 -15 45 -45c0 -44 -30 -61 -60 -61zM230 -8c-117 0 -189 57 -165 198l56 317h79l-56 -317c-16 -92 15 -131 92 -131
s124 40 140 131l55 317h80l-56 -317c-25 -141 -105 -198 -225 -198z" />
    <glyph glyph-name="umacron.sc" horiz-adv-x="532" 
d="M477 666l-12 -65h-266l12 65h266zM230 -8c-117 0 -189 57 -165 198l56 317h79l-56 -317c-16 -92 15 -131 92 -131s124 40 140 131l55 317h80l-56 -317c-25 -141 -105 -198 -225 -198z" />
    <glyph glyph-name="ubreve.sc" horiz-adv-x="532" 
d="M481 703c-14 -79 -68 -138 -155 -138c-81 0 -121 59 -107 138h54c-5 -45 17 -78 62 -78c47 0 79 33 91 78h55zM230 -8c-117 0 -189 57 -165 198l56 317h79l-56 -317c-16 -92 15 -131 92 -131s124 40 140 131l55 317h80l-56 -317c-25 -141 -105 -198 -225 -198z" />
    <glyph glyph-name="uring.sc" horiz-adv-x="532" 
d="M240 637c0 60 44 108 114 108c56 0 88 -38 88 -81c0 -59 -45 -109 -117 -109c-54 0 -85 39 -85 82zM291 641c0 -22 14 -39 40 -39c36 0 59 25 59 57c0 23 -14 40 -42 40c-34 0 -57 -25 -57 -58zM230 -8c-117 0 -189 57 -165 198l56 317h79l-56 -317
c-16 -92 15 -131 92 -131s124 40 140 131l55 317h80l-56 -317c-25 -141 -105 -198 -225 -198z" />
    <glyph glyph-name="uhungarumlaut.sc" horiz-adv-x="541" 
d="M397 726l-110 -155h-71l100 155h81zM543 726l-110 -155h-71l100 155h81zM230 -8c-117 0 -189 57 -165 198l56 317h79l-56 -317c-16 -92 15 -131 92 -131s124 40 140 131l55 317h80l-56 -317c-25 -141 -105 -198 -225 -198z" />
    <glyph glyph-name="uogonek.sc" horiz-adv-x="532" 
d="M431 507h80l-56 -317c-20 -113 -75 -172 -158 -191l-69 -50c-28 -21 -42 -38 -42 -61c0 -16 10 -33 35 -33c20 0 43 11 65 26l-12 -69c-21 -10 -46 -21 -81 -21c-56 0 -90 33 -90 77c0 46 27 75 71 109l22 17c-96 10 -153 69 -131 196l56 317h79l-56 -317
c-16 -92 15 -131 92 -131s124 40 140 131z" />
    <glyph glyph-name="wacute.sc" horiz-adv-x="775" 
d="M577 726l-110 -155h-72l99 155h83zM478 507l45 -419l187 419h85l-232 -507h-98l-47 401l-188 -401h-97l-55 507h79l39 -419l192 419h90z" />
    <glyph glyph-name="wcircumflex.sc" horiz-adv-x="775" 
d="M511 726l69 -155h-70l-46 101l-81 -101h-75l124 155h79zM478 507l45 -419l187 419h85l-232 -507h-98l-47 401l-188 -401h-97l-55 507h79l39 -419l192 419h90z" />
    <glyph glyph-name="wdieresis.sc" horiz-adv-x="775" 
d="M362 590c-26 0 -46 14 -46 43c0 45 27 63 62 63c23 0 45 -15 45 -45c0 -44 -30 -61 -61 -61zM536 590c-27 0 -46 14 -46 43c0 45 26 63 61 63c24 0 45 -15 45 -45c0 -44 -30 -61 -60 -61zM478 507l45 -419l187 419h85l-232 -507h-98l-47 401l-188 -401h-97l-55 507h79
l39 -419l192 419h90z" />
    <glyph glyph-name="wgrave.sc" horiz-adv-x="775" 
d="M431 726l45 -155h-66l-55 155h76zM478 507l45 -419l187 419h85l-232 -507h-98l-47 401l-188 -401h-97l-55 507h79l39 -419l192 419h90z" />
    <glyph glyph-name="yacute.sc" horiz-adv-x="470" 
d="M424 726l-110 -155h-72l99 155h83zM155 0l35 200l-123 307h84l89 -235l168 235h93l-231 -307l-36 -200h-79z" />
    <glyph glyph-name="ycircumflex.sc" horiz-adv-x="470" 
d="M359 726l69 -155h-70l-46 101l-81 -101h-75l124 155h79zM155 0l35 200l-123 307h84l89 -235l168 235h93l-231 -307l-36 -200h-79z" />
    <glyph glyph-name="ydieresis.sc" horiz-adv-x="470" 
d="M211 590c-27 0 -47 14 -47 43c0 45 27 63 62 63c23 0 45 -15 45 -45c0 -44 -30 -61 -60 -61zM384 590c-26 0 -46 14 -46 43c0 45 26 63 61 63c24 0 46 -15 46 -45c0 -44 -30 -61 -61 -61zM155 0l35 200l-123 307h84l89 -235l168 235h93l-231 -307l-36 -200h-79z" />
    <glyph glyph-name="ygrave.sc" horiz-adv-x="470" 
d="M285 726l45 -155h-66l-55 155h76zM155 0l35 200l-123 307h84l89 -235l168 235h93l-231 -307l-36 -200h-79z" />
    <glyph glyph-name="zacute.sc" horiz-adv-x="425" 
d="M407 726l-110 -155h-72l99 155h83zM416 450l-308 -386h247l-12 -64h-343l9 56l309 387h-227l10 64h326z" />
    <glyph glyph-name="zcaron.sc" horiz-adv-x="425" 
d="M233 571l-69 155h70l46 -102l81 102h75l-124 -155h-79zM416 450l-308 -386h247l-12 -64h-343l9 56l309 387h-227l10 64h326z" />
    <glyph glyph-name="zdotaccent.sc" horiz-adv-x="425" 
d="M278 590c-27 0 -47 14 -47 43c0 45 27 63 62 63c23 0 45 -15 45 -45c0 -44 -30 -61 -60 -61zM416 450l-308 -386h247l-12 -64h-343l9 56l309 387h-227l10 64h326z" />
    <glyph glyph-name="ij.sc" horiz-adv-x="634" 
d="M126 507h79l-89 -507h-80zM294 108c11 -31 33 -49 73 -49c57 0 96 33 111 117l58 331h76l-60 -337c-22 -127 -87 -178 -189 -178c-74 0 -118 32 -134 79z" />
    <glyph glyph-name="germandbls.sc" horiz-adv-x="537" 
d="M491 461l-11 -57l-143 -122l49 -21c56 -25 88 -66 88 -129c0 -86 -70 -139 -171 -139c-85 0 -129 37 -148 66l49 50c17 -27 47 -51 100 -51c54 0 87 28 87 72c0 35 -14 57 -51 74l-93 43l8 50l148 127c-25 15 -58 24 -100 24c-79 0 -120 -43 -135 -128l-57 -320h-79
l59 329c23 131 102 186 216 186c77 0 141 -22 184 -54z" />
    <glyph glyph-name="fi.sc" horiz-adv-x="667" 
d="M126 507h313l-11 -64h-234l-29 -167h198l-11 -65h-199l-37 -211h-80zM561 507h79l-89 -507h-80z" />
    <glyph glyph-name="fl.sc" horiz-adv-x="828" 
d="M126 507h313l-11 -64h-234l-29 -167h198l-11 -65h-199l-37 -211h-80zM778 64l-11 -64h-296l90 507h79l-78 -443h216z" />
    <glyph glyph-name="eng.sc" horiz-adv-x="557" 
d="M452 507h78l-91 -519c-14 -73 -43 -128 -120 -161l-41 58c48 21 68 47 81 112l-177 386l-66 -383h-81l90 507h85l174 -382z" />
    <glyph glyph-name="grave.sc" horiz-adv-x="570" 
d="M423 726l45 -155h-66l-55 155h76z" />
    <glyph glyph-name="acute.sc" horiz-adv-x="570" 
d="M500 726l-110 -155h-72l99 155h83z" />
    <glyph glyph-name="circumflex.sc" horiz-adv-x="570" 
d="M461 726l69 -155h-70l-46 101l-81 -101h-75l124 155h79z" />
    <glyph glyph-name="caron.sc" horiz-adv-x="570" 
d="M355 571l-70 155h71l46 -102l81 102h75l-124 -155h-79z" />
    <glyph glyph-name="caronalt.sc" horiz-adv-x="570" 
d="M362 352h-60l51 155h86z" />
    <glyph glyph-name="tilde.sc" horiz-adv-x="570" 
d="M528 603c-16 15 -36 25 -57 25c-44 0 -86 -38 -142 -38c-28 0 -51 12 -60 24l16 61c12 -16 28 -25 54 -25c46 0 80 39 143 39c32 0 50 -14 62 -25z" />
    <glyph glyph-name="dieresis.sc" horiz-adv-x="570" 
d="M313 590c-26 0 -46 14 -46 43c0 45 26 63 61 63c24 0 46 -15 46 -45c0 -44 -30 -61 -61 -61zM487 590c-27 0 -47 14 -47 43c0 45 27 63 62 63c23 0 45 -15 45 -45c0 -44 -30 -61 -60 -61z" />
    <glyph glyph-name="macron.sc" horiz-adv-x="570" 
d="M544 666l-11 -65h-266l11 65h266z" />
    <glyph glyph-name="breve.sc" horiz-adv-x="570" 
d="M549 703c-14 -79 -68 -138 -155 -138c-81 0 -122 59 -108 138h54c-4 -45 18 -78 62 -78c47 0 80 33 91 78h56z" />
    <glyph glyph-name="ring.sc" horiz-adv-x="570" 
d="M307 637c0 60 44 108 114 108c56 0 88 -38 88 -81c0 -59 -44 -109 -117 -109c-54 0 -85 39 -85 82zM358 641c0 -22 14 -39 40 -39c36 0 59 25 59 57c0 23 -14 40 -42 40c-34 0 -57 -25 -57 -58z" />
    <glyph glyph-name="hungarumlaut.sc" horiz-adv-x="570" 
d="M426 726l-110 -155h-71l99 155h82zM572 726l-110 -155h-71l100 155h81z" />
    <glyph glyph-name="dotaccent.sc" horiz-adv-x="570" 
d="M400 590c-27 0 -46 14 -46 43c0 45 26 63 61 63c24 0 45 -15 45 -45c0 -44 -30 -61 -60 -61z" />
    <glyph glyph-name="exclamdown.sc" horiz-adv-x="221" 
d="M158 512c27 0 46 -20 46 -43c0 -32 -25 -55 -59 -55c-27 0 -46 20 -46 43c0 32 26 55 59 55zM162 344l-48 -344h-88l74 344h62z" />
    <glyph glyph-name="questiondown.sc" horiz-adv-x="369" 
d="M245 512c27 0 45 -19 45 -42c0 -32 -27 -56 -61 -56c-27 0 -45 19 -45 42c0 32 28 56 61 56zM152 -8c-88 0 -133 50 -133 111c0 122 141 139 159 241h76c-22 -122 -159 -146 -159 -228c0 -30 21 -57 63 -57c46 0 78 26 84 60l71 -7c-12 -64 -64 -120 -161 -120z" />
    <glyph glyph-name="Euro.sc" horiz-adv-x="469" 
d="M324 447c-71 0 -116 -51 -141 -120h195l-26 -49h-182c-4 -17 -6 -35 -8 -53h164l-26 -50h-140v-1c0 -76 35 -115 100 -115c35 0 76 11 119 35l8 -70c-42 -20 -85 -32 -134 -32c-116 0 -174 58 -175 183h-43l9 50h36c1 18 4 36 7 53h-34l9 49h38c35 113 115 188 231 188
c53 0 97 -12 135 -31l-36 -62c-27 14 -62 25 -106 25z" />
    <glyph glyph-name="cent.sc" horiz-adv-x="393" 
d="M183 54c34 0 66 18 89 48l43 -38c-32 -46 -83 -72 -144 -72c-8 0 -16 0 -23 1l-20 -47l-37 11l19 45c-55 20 -74 69 -74 131c0 107 58 217 190 217c10 0 19 -1 28 -2l24 58l38 -11l-24 -57c29 -11 51 -32 61 -60l-56 -36c-6 15 -17 27 -30 35l-94 -223h10zM109 139
c0 -34 8 -59 28 -73l92 222h-5c-76 0 -115 -68 -115 -149z" />
    <glyph glyph-name="sterling.sc" horiz-adv-x="459" 
d="M97 249l15 86c18 100 74 180 192 180c76 0 122 -27 154 -73l-55 -47c-26 38 -59 51 -103 51c-67 0 -102 -48 -112 -114l-15 -83h141l-10 -50h-140l-24 -138h219l-11 -61h-295l35 199h-50l9 50h50z" />
    <glyph glyph-name="florin.sc" horiz-adv-x="310" 
d="M127 -57c-11 -64 -50 -113 -122 -113c-25 0 -50 5 -59 8l11 64c12 -5 28 -6 40 -6c39 0 55 27 61 63l56 321h-71l10 61h72l13 70c12 69 53 113 124 114c21 0 47 -4 56 -7l-11 -63c-12 3 -27 5 -40 5c-35 0 -53 -21 -60 -62l-10 -57h78l-10 -61h-78z" />
    <glyph glyph-name="yen.sc" horiz-adv-x="482" 
d="M186 225l-20 52h-95l8 50h69l-68 180h82l78 -230l161 230h93l-134 -180h70l-9 -50h-96l-40 -52h127l-9 -49h-139l-31 -176h-75l30 176h-135l8 49h125z" />
    <glyph glyph-name="uni20A8.sc" horiz-adv-x="447" 
d="M450 507l-10 -54h-96c16 -16 24 -38 22 -73h62l-9 -45h-59c-16 -65 -67 -109 -134 -120l97 -215h-88l-91 206h-94l11 64h80c83 0 120 21 134 65h-202l8 45h202c1 41 -18 64 -87 64h-104l11 63h347z" />
    <glyph glyph-name="perthousand.sc" horiz-adv-x="909" 
d="M201 511c67 0 98 -38 98 -104c0 -95 -41 -171 -137 -171c-69 0 -99 41 -99 104c0 102 46 171 138 171zM164 0h-64l399 507h65zM165 280c50 0 77 48 77 129c0 38 -14 57 -44 57c-49 0 -77 -43 -77 -128c0 -37 13 -58 44 -58zM504 271c67 0 98 -38 98 -104
c0 -95 -41 -171 -137 -171c-69 0 -99 41 -99 104c0 102 46 171 138 171zM758 271c67 0 99 -38 99 -104c0 -95 -42 -171 -138 -171c-69 0 -99 41 -99 104c0 102 46 171 138 171zM467 40c51 0 77 48 77 129c0 38 -13 58 -44 58c-48 0 -76 -44 -76 -129c0 -37 13 -58 43 -58z
M722 40c50 0 77 48 77 129c0 38 -14 58 -44 58c-48 0 -76 -44 -76 -129c0 -37 12 -58 43 -58z" />
    <glyph glyph-name="zero.tf" 
d="M351 686c122 0 184 -101 184 -241c0 -258 -89 -455 -299 -455c-121 0 -183 99 -183 242c0 258 89 454 298 454zM245 62c135 0 205 154 205 383c0 101 -33 169 -108 169c-134 0 -205 -153 -205 -382c0 -102 33 -170 108 -170z" />
    <glyph glyph-name="one.tf" 
d="M76 71h163l90 509l-169 -68l-13 79l208 85h75l-107 -605h146l-13 -71h-392z" />
    <glyph glyph-name="two.tf" 
d="M351 686c107 0 173 -69 173 -166c0 -112 -72 -183 -168 -276l-182 -174h285l-13 -70h-399l10 62l246 232c85 82 135 141 135 223c0 57 -32 97 -92 97c-75 0 -121 -53 -133 -131h-80c15 119 92 203 218 203z" />
    <glyph glyph-name="three.tf" 
d="M384 344c50 -13 102 -58 102 -140c0 -125 -96 -214 -244 -214c-146 0 -200 79 -183 175h79c-11 -60 29 -103 109 -103c93 0 154 58 154 143c0 65 -48 107 -127 107h-59l13 70h59c91 0 159 49 159 138c0 54 -36 94 -101 94c-78 0 -126 -47 -136 -105h-81
c14 94 84 177 222 177c112 0 182 -67 182 -160c0 -107 -79 -167 -148 -182z" />
    <glyph glyph-name="four.tf" 
d="M507 148h-91l-26 -148h-82l26 148h-307l11 63l386 465h85l-80 -458h91zM347 218l58 331l-270 -331h212z" />
    <glyph glyph-name="five.tf" 
d="M491 254c0 -143 -91 -264 -251 -264c-148 0 -197 87 -179 189h78c-11 -65 21 -118 106 -118c106 0 160 90 160 187c0 65 -36 109 -105 109c-45 0 -84 -18 -118 -41l-69 8l102 352h331l-13 -70h-263l-60 -208c21 13 63 32 108 32c100 0 173 -61 173 -176z" />
    <glyph glyph-name="six.tf" 
d="M463 509c10 65 -26 105 -97 105c-100 0 -172 -105 -195 -259c26 31 91 74 161 74c110 0 179 -66 179 -177c0 -151 -92 -262 -252 -262c-128 0 -185 100 -185 233c0 241 95 463 297 463c133 0 189 -78 171 -177h-79zM161 265c-3 -14 -5 -34 -5 -47
c-2 -91 29 -157 107 -157c105 0 163 84 163 186c0 67 -37 112 -111 112c-63 0 -123 -45 -154 -94z" />
    <glyph glyph-name="seven.tf" 
d="M452 606h-298l12 70h395l-10 -62l-345 -614h-96z" />
    <glyph glyph-name="eight.tf" 
d="M248 -10c-119 0 -198 58 -198 167c0 117 83 179 159 196c-50 16 -90 56 -90 127c0 124 97 206 240 206c111 0 186 -58 186 -160c0 -104 -67 -162 -142 -181c46 -14 98 -53 98 -138c0 -138 -105 -217 -253 -217zM352 614c-87 0 -148 -50 -148 -137c0 -58 44 -93 107 -93
c80 0 148 47 148 136c0 60 -40 94 -107 94zM254 62c96 0 163 54 163 148c0 66 -49 103 -119 103c-87 0 -162 -53 -162 -148c0 -66 46 -103 118 -103z" />
    <glyph glyph-name="nine.tf" 
d="M143 167c-10 -65 26 -105 97 -105c101 0 172 105 195 259c-26 -31 -91 -74 -161 -74c-109 0 -179 66 -179 177c0 151 92 262 252 262c129 0 186 -100 186 -233c0 -241 -96 -463 -298 -463c-133 0 -189 78 -171 177h79zM445 411c4 14 5 34 6 47c1 91 -30 157 -108 157
c-104 0 -162 -84 -162 -186c0 -67 37 -112 110 -112c64 0 123 45 154 94z" />
    <glyph glyph-name="zero.tosf" 
d="M342 586c128 0 188 -92 188 -221c0 -213 -91 -375 -288 -375c-127 0 -189 91 -189 220c0 214 91 376 289 376zM253 64c129 0 192 118 192 297c0 90 -34 151 -114 151c-129 0 -193 -118 -193 -297c0 -91 34 -151 115 -151z" />
    <glyph glyph-name="one.tosf" 
d="M85 73h159l72 407l-162 -59l-13 74l201 80h72l-89 -502h136l-13 -73h-376z" />
    <glyph glyph-name="two.tosf" 
d="M61 0l10 57l245 193c84 67 115 105 115 169c0 57 -35 95 -95 95c-71 0 -120 -56 -132 -128h-80c17 115 99 200 222 200c109 0 168 -71 168 -160c0 -105 -63 -160 -143 -222l-171 -138h254l-12 -66h-381z" />
    <glyph glyph-name="three.tosf" 
d="M366 244c50 -13 102 -58 102 -140c0 -125 -96 -215 -244 -215c-146 0 -200 80 -183 176h79c-11 -60 29 -103 109 -103c93 0 154 58 154 143c0 65 -48 107 -127 107h-59l13 70h59c91 0 159 49 159 138c0 54 -36 94 -101 94c-78 0 -126 -48 -136 -105h-81
c14 94 84 177 222 177c112 0 182 -67 182 -161c0 -106 -79 -167 -148 -181z" />
    <glyph glyph-name="four.tosf" 
d="M490 48h-91l-26 -148h-82l26 148h-308l11 63l386 465h86l-81 -458h91zM329 118l59 331l-270 -331h211z" />
    <glyph glyph-name="five.tosf" 
d="M473 153c0 -144 -92 -265 -251 -265c-148 0 -198 88 -179 190h78c-11 -66 20 -118 105 -118c107 0 160 90 160 187c0 65 -35 109 -105 109c-45 0 -84 -18 -117 -42l-69 9l101 352h331l-13 -70h-262l-61 -208c21 13 63 32 108 32c100 0 174 -61 174 -176z" />
    <glyph glyph-name="six.tosf" 
d="M463 509c10 65 -26 105 -97 105c-100 0 -172 -105 -195 -259c26 31 91 74 161 74c110 0 179 -66 179 -177c0 -151 -92 -262 -252 -262c-128 0 -185 100 -185 233c0 241 95 463 297 463c133 0 189 -78 171 -177h-79zM161 265c-3 -14 -5 -34 -5 -47
c-2 -91 29 -157 107 -157c105 0 163 84 163 186c0 67 -37 112 -111 112c-63 0 -123 -45 -154 -94z" />
    <glyph glyph-name="seven.tosf" 
d="M436 506h-298l12 70h396l-11 -62l-344 -614h-96z" />
    <glyph glyph-name="eight.tosf" 
d="M248 -10c-119 0 -198 58 -198 167c0 117 83 179 159 196c-50 16 -90 56 -90 127c0 124 97 206 240 206c111 0 186 -58 186 -160c0 -104 -67 -162 -142 -181c46 -14 98 -53 98 -138c0 -138 -105 -217 -253 -217zM352 614c-87 0 -148 -50 -148 -137c0 -58 44 -93 107 -93
c80 0 148 47 148 136c0 60 -40 94 -107 94zM254 62c96 0 163 54 163 148c0 66 -49 103 -119 103c-87 0 -162 -53 -162 -148c0 -66 46 -103 118 -103z" />
    <glyph glyph-name="nine.tosf" 
d="M126 66c-10 -65 26 -104 97 -104c100 0 171 104 194 259c-25 -31 -90 -74 -161 -74c-109 0 -179 66 -179 177c0 151 93 262 253 262c128 0 185 -100 185 -234c0 -240 -95 -463 -297 -463c-134 0 -189 79 -171 177h79zM428 310c3 15 5 35 5 47c2 92 -29 157 -107 157
c-105 0 -163 -83 -163 -185c0 -68 37 -112 111 -112c63 0 123 45 154 93z" />
    <glyph glyph-name="Euro.tf" 
d="M413 611c-89 0 -155 -73 -191 -179h249l-33 -58h-232c-5 -25 -9 -52 -11 -79h203l-32 -57h-174v-6c0 -106 38 -168 129 -168c43 0 94 14 150 47l11 -76c-55 -30 -108 -46 -169 -46c-137 0 -208 76 -208 243v6h-52l10 57h44c3 27 6 54 11 79h-41l10 58h45
c46 155 149 254 287 254c67 0 123 -18 167 -43l-39 -68c-35 21 -78 36 -134 36z" />
    <glyph glyph-name="cent.tf" 
d="M278 60c46 0 84 21 113 62l54 -42c-41 -60 -103 -90 -177 -90c-13 0 -26 1 -37 3l-26 -63l-47 13l26 65c-56 30 -83 91 -83 166c0 151 69 292 234 292c12 0 23 -1 34 -2l31 77l48 -13l-31 -77c34 -15 59 -41 71 -77l-59 -39c-8 22 -22 38 -40 48l-131 -321
c7 -1 13 -2 20 -2zM181 178c0 -39 11 -74 34 -95l126 313h-7c-113 0 -153 -113 -153 -218z" />
    <glyph glyph-name="sterling.tf" 
d="M136 327l21 120c23 134 93 239 235 239c98 0 152 -36 189 -94l-61 -50c-32 53 -73 69 -131 69c-85 0 -134 -67 -151 -168l-21 -116h180l-10 -57h-180l-36 -201h279l-12 -69h-359l46 270h-62l10 57h63z" />
    <glyph glyph-name="florin.tf" 
d="M269 -74c-14 -85 -57 -152 -149 -152c-27 0 -57 5 -68 9l12 71c15 -5 33 -8 48 -8c52 0 73 36 82 94l79 446h-91l12 69h92l16 93c14 84 55 152 151 152c23 0 54 -5 65 -9l-12 -71c-16 5 -32 8 -48 8c-50 0 -71 -34 -82 -93l-13 -80h99l-13 -69h-98z" />
    <glyph glyph-name="yen.tf" 
d="M237 296l-26 79h-112l9 57h82l-85 244h88l104 -325l217 325h98l-171 -244h84l-11 -57h-114l-55 -79h156l-11 -58h-167l-43 -238h-83l41 238h-164l10 58h153z" />
    <glyph glyph-name="uni20A8.tf" 
d="M573 676l-10 -57h-126c27 -23 38 -64 36 -110h71l-11 -58h-69c-21 -86 -91 -148 -188 -159l122 -292h-93l-115 284h-98l11 68h101c99 0 148 35 171 99h-254l11 58h255c-1 63 -31 98 -126 98h-113l12 69h413z" />
    <glyph glyph-name="dollar.tf" 
d="M365 360c68 -25 129 -63 129 -153c0 -116 -81 -207 -225 -216l-17 -94h-54l17 94c-123 9 -161 77 -175 128l66 42c13 -47 37 -91 121 -97l44 245l-27 9c-66 25 -119 68 -119 150c0 106 72 206 212 217l13 74h54l-13 -74c88 -8 142 -51 161 -98l-66 -45
c-16 40 -54 64 -108 69l-42 -240zM211 475c0 -43 29 -69 74 -86l39 220c-75 -12 -113 -67 -113 -134zM282 65c84 11 126 64 126 134c0 50 -37 74 -84 92l-2 1z" />
    <glyph glyph-name="zero.osf" horiz-adv-x="584" 
d="M353 586c129 0 191 -92 191 -221c0 -214 -92 -375 -291 -375c-129 0 -191 92 -191 221c0 213 91 375 291 375zM263 64c131 0 196 117 196 296c0 91 -35 152 -117 152c-131 0 -196 -118 -196 -297c0 -91 35 -151 117 -151z" />
    <glyph glyph-name="one.osf" horiz-adv-x="361" 
d="M158 0l85 486l-165 -66l-11 73l201 82h72l-101 -575h-81z" />
    <glyph glyph-name="two.osf" horiz-adv-x="497" 
d="M20 0l10 57l245 193c84 67 115 105 115 169c0 57 -35 95 -95 95c-71 0 -120 -56 -132 -128h-80c17 115 99 200 222 200c109 0 169 -71 169 -160c0 -105 -64 -160 -144 -222l-171 -138h254l-12 -66h-381z" />
    <glyph glyph-name="three.osf" horiz-adv-x="521" 
d="M350 244c49 -13 101 -58 101 -140c0 -125 -96 -214 -244 -214c-145 0 -200 79 -183 175h79c-11 -60 29 -103 110 -103c93 0 153 58 153 143c0 65 -48 107 -126 107h-59l12 70h59c91 0 160 49 160 138c0 54 -36 94 -102 94c-78 0 -125 -47 -135 -105h-82
c14 94 84 177 222 177c112 0 182 -67 182 -160c0 -107 -79 -167 -147 -182z" />
    <glyph glyph-name="four.osf" horiz-adv-x="552" 
d="M488 48h-91l-26 -148h-82l26 148h-307l11 63l386 465h85l-80 -458h90zM328 118l58 331l-270 -331h212z" />
    <glyph glyph-name="five.osf" horiz-adv-x="509" 
d="M450 154c0 -143 -91 -264 -251 -264c-148 0 -197 87 -179 189h78c-11 -65 21 -118 105 -118c107 0 160 90 160 187c0 65 -35 109 -104 109c-46 0 -84 -18 -118 -41l-69 8l101 352h331l-12 -70h-263l-60 -208c20 13 62 32 107 32c101 0 174 -61 174 -176z" />
    <glyph glyph-name="six.osf" horiz-adv-x="546" 
d="M459 509c10 65 -26 105 -97 105c-101 0 -172 -105 -195 -259c25 31 91 74 161 74c109 0 179 -66 179 -177c0 -151 -93 -262 -252 -262c-129 0 -186 100 -186 233c0 241 96 463 298 463c133 0 188 -78 171 -177h-79zM156 265c-3 -14 -4 -34 -5 -47
c-1 -91 30 -157 107 -157c105 0 163 84 163 186c0 67 -37 112 -110 112c-64 0 -124 -45 -155 -94z" />
    <glyph glyph-name="seven.osf" horiz-adv-x="465" 
d="M391 506h-298l12 70h396l-11 -62l-345 -614h-96z" />
    <glyph glyph-name="eight.osf" horiz-adv-x="551" 
d="M246 -10c-119 0 -198 58 -198 167c0 117 83 179 159 196c-50 16 -89 56 -89 127c0 124 96 206 239 206c111 0 186 -58 186 -160c0 -104 -67 -162 -142 -181c46 -14 98 -53 98 -138c0 -138 -105 -217 -253 -217zM350 614c-86 0 -148 -50 -148 -137c0 -58 44 -93 108 -93
c79 0 147 47 147 136c0 60 -40 94 -107 94zM252 62c96 0 163 54 163 148c0 66 -49 103 -118 103c-88 0 -163 -53 -163 -148c0 -66 46 -103 118 -103z" />
    <glyph glyph-name="nine.osf" horiz-adv-x="547" 
d="M122 66c-11 -65 26 -104 96 -104c101 0 172 104 195 259c-25 -31 -90 -74 -161 -74c-109 0 -179 66 -179 177c0 151 93 262 253 262c128 0 185 -100 185 -234c0 -240 -95 -463 -297 -463c-134 0 -189 79 -171 177h79zM424 310c3 15 5 35 5 47c2 92 -29 157 -107 157
c-105 0 -163 -83 -163 -185c0 -68 37 -112 111 -112c63 0 123 45 154 93z" />
    <glyph glyph-name="uni2070" unicode="&#x2070;" horiz-adv-x="347" 
d="M276 791c77 0 116 -47 116 -130c0 -123 -48 -230 -168 -230c-86 0 -117 55 -117 131c0 128 53 229 169 229zM226 481c73 0 103 73 103 180c0 49 -16 81 -56 81c-67 0 -104 -69 -104 -180c0 -50 17 -81 57 -81z" />
    <glyph glyph-name="uni2074" unicode="&#x2074;" horiz-adv-x="321" 
d="M355 508h-47l-12 -71h-60l12 71h-170l7 44l209 235h64l-41 -230h47zM257 557l25 143l-125 -143h100z" />
    <glyph glyph-name="uni2075" unicode="&#x2075;" horiz-adv-x="303" 
d="M339 566c0 -79 -58 -135 -143 -135c-92 0 -118 45 -108 100h59c-5 -29 11 -49 52 -49c45 0 77 30 77 80c0 30 -20 49 -54 49c-22 0 -43 -8 -60 -18l-48 6l57 188h193l-8 -49h-143l-27 -86c10 4 32 10 57 10c49 0 96 -24 96 -96z" />
    <glyph glyph-name="uni2076" unicode="&#x2076;" horiz-adv-x="327" 
d="M273 741c-54 0 -87 -50 -98 -111c15 11 45 29 85 29c53 0 102 -24 102 -96c0 -75 -59 -133 -145 -133c-80 0 -111 57 -111 128c0 127 57 233 170 233c82 0 111 -42 102 -95h-59c5 28 -12 45 -46 45zM167 571c-6 -48 6 -90 53 -90c52 0 80 36 80 79c0 30 -19 51 -54 51
c-34 0 -65 -22 -79 -40z" />
    <glyph glyph-name="uni2077" unicode="&#x2077;" horiz-adv-x="268" 
d="M280 738h-164l9 49h232l-7 -43l-189 -307h-67z" />
    <glyph glyph-name="uni2078" unicode="&#x2078;" horiz-adv-x="330" 
d="M215 431c-75 0 -120 30 -120 90c0 51 37 87 81 98c-28 10 -46 29 -46 64c0 70 62 109 137 109c72 0 113 -30 113 -87c0 -47 -31 -79 -72 -91c28 -9 51 -29 51 -71c0 -73 -65 -112 -144 -112zM264 742c-43 0 -71 -22 -71 -61c0 -25 21 -40 52 -40c39 0 72 20 72 60
c0 25 -20 41 -53 41zM237 592c-51 0 -79 -30 -79 -65c0 -30 26 -45 60 -45c43 0 78 22 78 63c0 28 -22 47 -59 47z" />
    <glyph glyph-name="uni2079" unicode="&#x2079;" horiz-adv-x="328" 
d="M206 480c54 0 88 49 99 111c-15 -12 -46 -29 -86 -29c-53 0 -102 24 -102 95c0 76 59 134 145 134c80 0 111 -57 111 -129c0 -126 -57 -232 -170 -232c-82 0 -111 42 -102 95h59c-5 -28 12 -45 46 -45zM312 650c6 47 -6 90 -53 90c-52 0 -79 -36 -79 -79
c0 -30 18 -51 52 -51c35 0 66 21 80 40z" />
    <glyph glyph-name="uni2080" unicode="&#x2080;" horiz-adv-x="347" 
d="M181 255c77 0 117 -47 117 -130c0 -123 -49 -230 -169 -230c-85 0 -117 55 -117 130c0 129 53 230 169 230zM132 -55c72 0 103 73 103 180c0 49 -17 80 -57 80c-67 0 -103 -69 -103 -180c0 -49 17 -80 57 -80z" />
    <glyph glyph-name="uni2081" unicode="&#x2081;" horiz-adv-x="227" 
d="M66 -100l51 285l-99 -35l-8 53l126 47h53l-61 -350h-62z" />
    <glyph glyph-name="uni2082" unicode="&#x2082;" horiz-adv-x="298" 
d="M154 255c59 0 103 -32 103 -93c0 -55 -41 -95 -93 -140l-85 -73h146l-8 -49h-232l7 42l135 117c42 36 67 65 67 101c0 25 -16 45 -43 45c-37 0 -59 -23 -66 -61h-60c8 67 57 111 129 111z" />
    <glyph glyph-name="uni2083" unicode="&#x2083;" horiz-adv-x="311" 
d="M191 76c29 -5 54 -30 54 -72c0 -67 -65 -110 -140 -110c-88 0 -118 40 -109 96h58c-4 -27 14 -45 54 -45c42 0 74 25 74 61c0 29 -23 48 -64 48h-36l9 49h34c47 0 79 22 79 61c0 25 -19 41 -51 41c-35 0 -59 -20 -63 -45h-60c9 57 57 95 127 95c58 0 110 -25 110 -88
c0 -52 -36 -82 -76 -91z" />
    <glyph glyph-name="uni2084" unicode="&#x2084;" horiz-adv-x="322" 
d="M260 -29h-46l-13 -71h-60l12 71h-170l8 44l208 235h65l-41 -230h46zM162 20l25 143l-125 -143h100z" />
    <glyph glyph-name="uni2085" unicode="&#x2085;" horiz-adv-x="303" 
d="M245 30c0 -80 -58 -136 -143 -136c-92 0 -118 45 -108 100h59c-5 -29 11 -49 52 -49c45 0 76 30 76 80c0 30 -19 49 -53 49c-22 0 -43 -8 -60 -18l-48 6l57 188h193l-8 -49h-143l-27 -86c10 4 32 10 57 10c48 0 96 -24 96 -95z" />
    <glyph glyph-name="uni2086" unicode="&#x2086;" horiz-adv-x="327" 
d="M179 205c-55 0 -88 -49 -99 -111c15 12 45 30 85 30c53 0 103 -25 103 -96c0 -76 -60 -134 -145 -134c-81 0 -112 57 -112 128c0 128 57 233 170 233c82 0 111 -42 102 -95h-58c5 28 -13 45 -46 45zM72 36c-5 -48 6 -91 53 -91c52 0 80 36 80 79c0 30 -19 52 -53 52
c-35 0 -66 -22 -80 -40z" />
    <glyph glyph-name="uni2087" unicode="&#x2087;" horiz-adv-x="269" 
d="M185 201h-163l9 49h231l-7 -43l-188 -307h-67z" />
    <glyph glyph-name="uni2088" unicode="&#x2088;" horiz-adv-x="330" 
d="M120 -106c-75 0 -120 31 -120 91c0 51 38 86 81 98c-28 10 -46 28 -46 63c0 71 63 109 137 109c72 0 114 -30 114 -86c0 -48 -32 -79 -73 -91c28 -9 51 -29 51 -71c0 -73 -65 -113 -144 -113zM169 205c-43 0 -70 -22 -70 -61c0 -25 21 -40 52 -40c38 0 71 20 71 61
c0 25 -20 40 -53 40zM142 55c-50 0 -78 -29 -78 -65c0 -30 26 -45 60 -45c42 0 77 22 77 63c0 29 -22 47 -59 47z" />
    <glyph glyph-name="uni2089" unicode="&#x2089;" horiz-adv-x="327" 
d="M111 -56c55 0 88 49 99 112c-15 -13 -45 -30 -86 -30c-52 0 -102 25 -102 96c0 75 60 133 145 133c81 0 112 -57 112 -128c0 -127 -57 -233 -171 -233c-81 0 -110 43 -102 95h59c-5 -28 13 -45 46 -45zM218 114c5 48 -6 91 -54 91c-51 0 -78 -36 -78 -80
c0 -30 17 -51 52 -51c34 0 66 22 80 40z" />
    <glyph glyph-name="zero.denom" horiz-adv-x="346" 
d="M190 355c77 0 116 -47 116 -130c0 -123 -48 -230 -169 -230c-85 0 -116 55 -116 130c0 129 53 230 169 230zM140 45c72 0 103 73 103 180c0 49 -16 80 -56 80c-67 0 -104 -69 -104 -180c0 -49 17 -80 57 -80z" />
    <glyph glyph-name="one.denom" horiz-adv-x="225" 
d="M75 0l51 285l-99 -35l-8 53l126 47h53l-61 -350h-62z" />
    <glyph glyph-name="two.denom" horiz-adv-x="296" 
d="M163 355c59 0 103 -32 103 -93c0 -55 -41 -95 -93 -140l-85 -73h146l-8 -49h-232l7 42l135 117c42 36 67 65 67 101c0 25 -16 45 -43 45c-37 0 -59 -23 -66 -61h-60c8 67 57 111 129 111z" />
    <glyph glyph-name="three.denom" horiz-adv-x="309" 
d="M200 176c29 -5 54 -30 54 -72c0 -67 -65 -110 -140 -110c-88 0 -118 40 -109 96h58c-4 -27 14 -45 54 -45c42 0 74 25 74 61c0 29 -23 48 -64 48h-36l9 49h34c47 0 79 22 79 61c0 25 -19 41 -51 41c-35 0 -59 -20 -63 -45h-60c9 57 57 95 127 95c58 0 110 -25 110 -88
c0 -52 -36 -82 -76 -91z" />
    <glyph glyph-name="four.denom" horiz-adv-x="320" 
d="M268 71h-46l-13 -71h-60l12 71h-170l8 44l208 235h65l-41 -230h46zM170 120l25 143l-125 -143h100z" />
    <glyph glyph-name="five.denom" horiz-adv-x="303" 
d="M254 130c0 -80 -58 -136 -143 -136c-92 0 -118 45 -108 100h59c-5 -29 11 -49 52 -49c45 0 76 30 76 80c0 30 -19 49 -53 49c-22 0 -43 -8 -60 -18l-48 6l57 188h193l-8 -49h-143l-27 -86c10 4 32 10 57 10c48 0 96 -24 96 -95z" />
    <glyph glyph-name="six.denom" horiz-adv-x="326" 
d="M188 305c-55 0 -88 -49 -99 -111c15 12 45 30 85 30c53 0 103 -25 103 -96c0 -76 -60 -134 -145 -134c-81 0 -112 57 -112 128c0 128 57 233 170 233c82 0 111 -42 102 -95h-58c5 28 -13 45 -46 45zM81 136c-5 -48 6 -91 53 -91c52 0 80 36 80 79c0 30 -19 52 -53 52
c-35 0 -66 -22 -80 -40z" />
    <glyph glyph-name="seven.denom" horiz-adv-x="267" 
d="M194 301h-164l9 49h232l-7 -43l-189 -307h-67z" />
    <glyph glyph-name="eight.denom" horiz-adv-x="328" 
d="M129 -6c-75 0 -120 31 -120 91c0 51 38 86 81 98c-28 10 -46 28 -46 63c0 71 63 109 137 109c72 0 114 -30 114 -86c0 -48 -32 -79 -73 -91c28 -9 51 -29 51 -71c0 -73 -65 -113 -144 -113zM178 305c-43 0 -70 -22 -70 -61c0 -25 21 -40 52 -40c38 0 71 20 71 61
c0 25 -20 40 -53 40zM151 155c-50 0 -78 -29 -78 -65c0 -30 26 -45 60 -45c42 0 77 22 77 63c0 29 -22 47 -59 47z" />
    <glyph glyph-name="nine.denom" horiz-adv-x="326" 
d="M120 44c54 0 88 49 99 112c-15 -13 -45 -30 -86 -30c-53 0 -102 25 -102 96c0 75 60 133 145 133c80 0 111 -57 111 -128c0 -127 -57 -233 -170 -233c-81 0 -111 43 -102 95h59c-5 -28 12 -45 46 -45zM226 214c6 48 -6 91 -53 91c-52 0 -79 -36 -79 -80
c0 -30 18 -51 53 -51c34 0 65 22 79 40z" />
    <glyph glyph-name="zero.num" horiz-adv-x="347" 
d="M257 680c77 0 116 -47 116 -130c0 -123 -48 -230 -169 -230c-85 0 -117 55 -117 130c0 129 54 230 170 230zM207 370c72 0 103 73 103 180c0 49 -17 80 -56 80c-67 0 -104 -69 -104 -180c0 -49 17 -80 57 -80z" />
    <glyph glyph-name="one.num" horiz-adv-x="227" 
d="M142 325l51 285l-100 -35l-8 53l127 47h53l-62 -350h-61z" />
    <glyph glyph-name="two.num" horiz-adv-x="298" 
d="M229 680c59 0 103 -32 103 -94c0 -54 -40 -94 -93 -139l-85 -73h146l-8 -49h-232l7 42l135 117c42 36 68 65 68 101c0 25 -16 45 -44 45c-36 0 -59 -23 -66 -61h-60c8 67 57 111 129 111z" />
    <glyph glyph-name="three.num" horiz-adv-x="310" 
d="M266 501c29 -5 53 -30 53 -72c0 -67 -64 -110 -139 -110c-88 0 -119 40 -109 96h58c-4 -27 14 -45 54 -45c42 0 73 25 73 61c0 29 -22 48 -63 48h-36l8 49h35c47 0 78 22 78 61c0 25 -18 41 -50 41c-36 0 -59 -20 -63 -45h-60c9 57 57 95 127 95c58 0 110 -25 110 -88
c0 -52 -36 -82 -76 -91z" />
    <glyph glyph-name="four.num" horiz-adv-x="316" 
d="M329 396h-46l-12 -71h-61l13 71h-171l8 44l208 235h65l-41 -230h46zM232 445l25 143l-126 -143h101z" />
    <glyph glyph-name="five.num" horiz-adv-x="298" 
d="M314 454c0 -79 -58 -135 -143 -135c-92 0 -118 45 -108 100h59c-5 -29 11 -49 52 -49c45 0 77 30 77 80c0 30 -20 49 -54 49c-22 0 -43 -8 -59 -18l-48 6l56 188h193l-8 -49h-143l-27 -86c10 4 32 10 57 10c49 0 96 -24 96 -96z" />
    <glyph glyph-name="six.num" horiz-adv-x="322" 
d="M248 630c-55 0 -88 -49 -99 -111c15 12 45 30 86 30c52 0 102 -25 102 -96c0 -76 -60 -134 -145 -134c-80 0 -112 57 -112 128c0 128 57 233 171 233c81 0 110 -42 102 -95h-59c5 28 -13 45 -46 45zM141 461c-5 -48 6 -91 54 -91c51 0 79 36 79 79c0 30 -18 52 -53 52
c-34 0 -66 -22 -80 -40z" />
    <glyph glyph-name="seven.num" horiz-adv-x="269" 
d="M261 626h-164l9 49h232l-7 -43l-189 -307h-67z" />
    <glyph glyph-name="eight.num" horiz-adv-x="324" 
d="M190 319c-75 0 -120 31 -120 91c0 51 37 86 81 97c-28 11 -46 29 -46 64c0 71 62 109 137 109c71 0 113 -30 113 -86c0 -48 -31 -79 -73 -91c29 -9 51 -29 51 -71c0 -73 -64 -113 -143 -113zM238 630c-42 0 -70 -22 -70 -61c0 -25 21 -40 52 -40c39 0 71 20 71 61
c0 25 -20 40 -53 40zM212 480c-51 0 -79 -29 -79 -65c0 -30 26 -45 60 -45c42 0 78 22 78 63c0 29 -22 47 -59 47z" />
    <glyph glyph-name="nine.num" horiz-adv-x="323" 
d="M181 369c55 0 88 49 99 112c-15 -13 -45 -30 -86 -30c-53 0 -102 25 -102 95c0 76 60 134 145 134c80 0 112 -57 112 -128c0 -127 -58 -233 -171 -233c-81 0 -111 43 -102 95h59c-5 -28 12 -45 46 -45zM287 539c6 47 -6 91 -53 91c-51 0 -79 -36 -79 -80
c0 -30 18 -51 53 -51c34 0 66 22 79 40z" />
    <glyph glyph-name="arrowleft" unicode="&#x2190;" horiz-adv-x="750" 
d="M334 547l46 -47l-186 -187h490v-68h-490l186 -187l-46 -47l-268 268z" />
    <glyph glyph-name="arrowup" unicode="&#x2191;" horiz-adv-x="750" 
d="M663 338l-48 -47l-187 187v-491h-68v491l-187 -186l-47 46l268 268z" />
    <glyph glyph-name="arrowright" unicode="&#x2192;" horiz-adv-x="750" 
d="M437 17l-46 47l186 187h-491v68h491l-186 187l46 47l268 -268z" />
    <glyph glyph-name="arrowdown" unicode="&#x2193;" horiz-adv-x="750" 
d="M107 225l47 46l187 -186v491h69v-491l186 186l47 -46l-268 -268z" />
    <glyph glyph-name="uni2196" unicode="&#x2196;" horiz-adv-x="750" 
d="M543 510v-66h-264l347 -348l-49 -48l-347 347v-264h-67v379h380z" />
    <glyph glyph-name="uni2197" unicode="&#x2197;" horiz-adv-x="750" 
d="M588 131h-66v264l-347 -347l-49 48l347 348h-263v66h378v-379z" />
    <glyph glyph-name="uni2198" unicode="&#x2198;" horiz-adv-x="750" 
d="M220 54v66h264l-347 348l48 48l348 -347v264h66v-379h-379z" />
    <glyph glyph-name="uni2199" unicode="&#x2199;" horiz-adv-x="750" 
d="M183 433h67v-264l347 347l49 -48l-347 -348h263v-66h-379v379z" />
    <glyph glyph-name="parenleft.case" horiz-adv-x="280" 
d="M135 -122c-40 93 -68 211 -68 325c0 279 90 438 224 600l63 -22c-117 -175 -204 -326 -204 -581c0 -93 17 -206 47 -300z" />
    <glyph glyph-name="parenright.case" horiz-adv-x="284" 
d="M-15 -100c152 227 201 366 201 576c0 104 -20 218 -48 305l63 22c38 -90 68 -202 68 -325c0 -252 -73 -415 -227 -600z" />
    <glyph glyph-name="hyphen.case" horiz-adv-x="401" 
d="M352 364v-68h-258v68h258z" />
    <glyph glyph-name="bracketleft.case" horiz-adv-x="302" 
d="M370 790l-11 -67h-116l-136 -772h116l-12 -67h-196l159 906h196z" />
    <glyph glyph-name="bracketright.case" horiz-adv-x="308" 
d="M344 790l-160 -906h-196l13 67h115l136 772h-115l11 67h196z" />
    <glyph glyph-name="braceleft.case" horiz-adv-x="305" 
d="M241 443c-13 -79 -38 -99 -68 -107c25 -16 42 -50 30 -108l-37 -208c-10 -59 7 -76 52 -76l-10 -60c-100 0 -138 41 -121 140l35 200c11 61 -10 82 -71 82l11 62c61 0 90 24 102 87l35 202c19 107 61 133 169 133l-12 -65c-47 0 -68 -17 -78 -75z" />
    <glyph glyph-name="bar.case" horiz-adv-x="262" 
d="M131 -116v906h57v-906h-57z" />
    <glyph glyph-name="braceright.case" horiz-adv-x="299" 
d="M115 233c14 79 39 101 69 109c-25 16 -43 48 -31 106l37 206c10 59 -7 76 -53 76l11 60c100 0 138 -44 121 -142l-36 -198c-10 -61 11 -82 72 -82l-12 -62c-60 0 -88 -20 -100 -82l-36 -208c-19 -106 -61 -132 -169 -132l12 65c47 0 68 17 78 75z" />
    <glyph glyph-name="guilsinglleft.case" horiz-adv-x="326" 
d="M280 545l43 -43l-159 -177l96 -178l-55 -32l-134 215z" />
    <glyph glyph-name="guilsinglright.case" horiz-adv-x="327" 
d="M101 115l-43 43l159 177l-96 178l55 32l134 -215z" />
    <glyph glyph-name="guillemotleft.case" horiz-adv-x="504" 
d="M274 545l43 -43l-158 -177l96 -178l-56 -32l-134 215zM457 545l43 -43l-159 -177l96 -178l-55 -32l-135 215z" />
    <glyph glyph-name="guillemotright.case" horiz-adv-x="510" 
d="M101 115l-43 43l159 177l-96 178l55 32l134 -215zM284 115l-43 43l159 177l-97 178l56 32l134 -215z" />
    <glyph glyph-name="endash.case" horiz-adv-x="601" 
d="M552 364v-68h-459v68h459z" />
    <glyph glyph-name="emdash.case" horiz-adv-x="746" 
d="M697 364v-68h-598v68h598z" />
    <glyph glyph-name="bullet.case" horiz-adv-x="378" 
d="M215 221c-65 0 -113 46 -113 108c0 63 48 108 113 108s112 -45 112 -108c0 -62 -47 -108 -112 -108z" />
    <glyph glyph-name="periodcentered.case" horiz-adv-x="252" 
d="M151 311c-32 0 -55 24 -55 53c0 40 31 68 72 68c31 0 53 -24 53 -53c0 -41 -31 -68 -70 -68z" />
    <glyph glyph-name="circle" unicode="&#x25cb;" horiz-adv-x="790" 
d="M76 338c0 209 143 348 339 348c197 0 339 -139 339 -348c0 -208 -142 -349 -339 -349c-196 0 -339 141 -339 349zM137 338c0 -181 112 -290 278 -290c167 0 278 109 278 290c0 182 -111 289 -278 289c-166 0 -278 -107 -278 -289z" />
    <glyph glyph-name="brokenbar.sc" horiz-adv-x="253" 
d="M103 290v292h50v-292h-50zM153 188v-290h-50v290h50z" />
    <glyph glyph-name="uni1EB8" unicode="&#x1eb8;" horiz-adv-x="519" 
d="M445 71l-13 -71h-390l119 676h387l-12 -71h-304l-39 -224h269l-13 -71h-269l-42 -239h307zM206 -172c-27 0 -48 13 -48 45c0 45 27 64 63 64c24 0 47 -17 47 -47c0 -44 -30 -62 -62 -62z" />
    <glyph glyph-name="Gcaron" unicode="&#x1e6;" horiz-adv-x="626" 
d="M363 761l-70 155h70l46 -102l81 102h75l-123 -155h-79zM358 361h240c0 -12 -2 -27 -2 -33c-10 -152 -82 -338 -302 -338c-148 0 -226 101 -226 258c0 289 132 438 343 438c107 0 169 -47 195 -114l-67 -41c-23 54 -62 81 -133 81c-159 0 -252 -125 -252 -362
c0 -113 45 -187 146 -187c139 0 195 118 204 225h-158z" />
    <glyph glyph-name="uni021E" unicode="&#x21e;" horiz-adv-x="651" 
d="M376 761l-70 155h70l46 -102l81 102h75l-123 -155h-79zM565 676h83l-120 -676h-83l56 319h-320l-55 -319h-84l119 676h84l-51 -286h320z" />
    <glyph glyph-name="uni1E24" unicode="&#x1e24;" horiz-adv-x="651" 
d="M565 676h83l-120 -676h-83l56 319h-320l-55 -319h-84l119 676h84l-51 -286h320zM267 -172c-27 0 -48 13 -48 45c0 45 27 64 63 64c24 0 47 -17 47 -47c0 -44 -30 -62 -62 -62z" />
    <glyph glyph-name="uni1ECA" unicode="&#x1eca;" horiz-adv-x="248" 
d="M161 676h84l-119 -676h-84zM66 -172c-27 0 -48 13 -48 45c0 45 27 64 63 64c24 0 47 -17 47 -47c0 -44 -30 -62 -62 -62z" />
    <glyph glyph-name="uni1E36" unicode="&#x1e36;" horiz-adv-x="457" 
d="M411 71l-13 -71h-356l119 676h84l-107 -605h273zM170 -172c-27 0 -48 13 -48 45c0 45 27 64 63 64c24 0 47 -17 47 -47c0 -44 -30 -62 -62 -62z" />
    <glyph glyph-name="uni1E44" unicode="&#x1e44;" horiz-adv-x="656" 
d="M439 762c-27 0 -48 13 -48 45c0 45 27 64 63 64c24 0 47 -17 47 -47c0 -44 -30 -62 -62 -62zM570 676h84l-120 -676h-91l-222 541l-94 -541h-86l121 676h92l221 -538z" />
    <glyph glyph-name="uni1ECC" unicode="&#x1ecc;" horiz-adv-x="643" 
d="M615 432c0 -230 -85 -442 -329 -442c-147 0 -218 102 -218 252c0 233 83 444 328 444c153 0 219 -106 219 -254zM154 242c0 -102 37 -178 138 -178c138 0 237 110 237 368c0 101 -37 180 -139 180c-181 0 -236 -181 -236 -370zM263 -172c-27 0 -48 13 -48 45
c0 45 27 64 63 64c24 0 47 -17 47 -47c0 -44 -30 -62 -62 -62z" />
    <glyph glyph-name="uni1E62" unicode="&#x1e62;" horiz-adv-x="526" 
d="M466 542c-18 45 -63 70 -128 70c-93 0 -145 -61 -145 -137c0 -45 29 -71 77 -88l76 -27c67 -25 128 -63 128 -153c0 -122 -90 -217 -250 -217c-146 0 -189 74 -204 129l66 42c14 -51 41 -98 143 -98c103 0 157 57 157 136c0 50 -37 74 -84 92l-78 27
c-66 25 -119 68 -119 150c0 112 81 218 238 218c105 0 168 -47 189 -99zM204 -172c-27 0 -48 13 -48 45c0 45 27 64 63 64c24 0 47 -17 47 -47c0 -44 -30 -62 -62 -62z" />
    <glyph glyph-name="uni1E9E" unicode="&#x1e9e;" horiz-adv-x="634" 
d="M604 608l-11 -61l-195 -168l72 -34c68 -31 108 -82 108 -155c0 -118 -75 -199 -211 -199c-113 0 -165 53 -186 100l60 51c17 -40 54 -78 127 -78c81 0 121 49 121 116c0 50 -21 81 -69 103l-123 57l10 56l205 178c-35 23 -82 38 -136 38c-109 0 -155 -57 -178 -183
l-77 -429h-84l80 444c32 177 120 242 268 242c90 0 170 -36 219 -78z" />
    <glyph glyph-name="uni0162" unicode="&#x162;" horiz-adv-x="514" 
d="M109 676h452l-12 -71h-184l-107 -605h-13l-31 -56c42 0 73 -19 73 -65c0 -57 -42 -95 -111 -95c-33 0 -62 10 -82 22l10 55c18 -16 45 -26 72 -26c29 0 45 16 45 36c0 22 -18 28 -45 28h-35l-3 6l50 95h-14l107 605h-184z" />
    <glyph glyph-name="uni01D3" unicode="&#x1d3;" horiz-adv-x="626" 
d="M355 744l-70 155h70l46 -102l81 102h75l-123 -155h-79zM281 -10c-143 0 -233 73 -200 262l75 424h84l-75 -425c-24 -134 20 -187 120 -187c99 0 163 52 187 187l74 425h84l-75 -424c-33 -190 -135 -262 -274 -262z" />
    <glyph glyph-name="uni1EE4" unicode="&#x1ee4;" horiz-adv-x="626" 
d="M281 -10c-143 0 -233 73 -200 262l75 424h84l-75 -425c-24 -134 20 -187 120 -187c99 0 163 52 187 187l74 425h84l-75 -424c-33 -190 -135 -262 -274 -262zM255 -172c-27 0 -48 13 -48 45c0 45 27 64 63 64c24 0 47 -17 47 -47c0 -44 -30 -62 -62 -62z" />
    <glyph glyph-name="uni1EB9" unicode="&#x1eb9;" horiz-adv-x="455" 
d="M217 58c42 0 88 16 126 50l30 -56c-33 -33 -93 -62 -160 -62c-129 0 -172 80 -172 176c0 166 88 300 230 300c102 0 154 -67 154 -156c0 -42 -13 -80 -23 -106h-280c-12 -86 11 -146 95 -146zM344 264c2 7 7 18 7 46c0 53 -29 90 -82 90c-77 0 -119 -60 -137 -136h212z
M169 -172c-27 0 -48 13 -48 45c0 45 27 64 63 64c24 0 47 -17 47 -47c0 -44 -30 -62 -62 -62z" />
    <glyph glyph-name="gcaron" unicode="&#x1e7;" horiz-adv-x="499" 
d="M257 541l-70 155h70l46 -102l81 102h75l-124 -155h-78zM471 456l-86 -491c-17 -98 -94 -169 -205 -169c-116 0 -166 65 -154 138h70c-5 -36 19 -73 88 -73c67 0 111 40 122 101l13 79c-26 -27 -67 -51 -118 -51c-111 0 -158 71 -158 180c0 173 80 296 226 296
c64 0 101 -27 120 -57l7 47h75zM124 178c0 -63 24 -116 95 -116c46 0 88 25 114 57l39 218c-14 28 -45 56 -94 56c-108 0 -154 -98 -154 -215z" />
    <glyph glyph-name="uni021F" unicode="&#x21f;" horiz-adv-x="503" 
d="M300 734l-70 155h70l46 -102l81 102h75l-123 -155h-79zM150 690h78l-48 -278c30 28 84 54 140 54c108 0 149 -60 129 -175l-51 -291h-78l51 285c12 75 -6 108 -80 108c-50 0 -95 -25 -125 -53l-60 -340h-78z" />
    <glyph glyph-name="uni1E25" unicode="&#x1e25;" horiz-adv-x="503" 
d="M150 690h78l-48 -278c30 28 84 54 140 54c108 0 149 -60 129 -175l-51 -291h-78l51 285c12 75 -6 108 -80 108c-50 0 -95 -25 -125 -53l-60 -340h-78zM193 -172c-27 0 -48 13 -48 45c0 45 27 64 63 64c24 0 47 -17 47 -47c0 -44 -30 -62 -62 -62z" />
    <glyph glyph-name="uni1ECB" unicode="&#x1ecb;" horiz-adv-x="214" 
d="M166 568c-27 0 -46 12 -46 42c0 46 30 67 65 67c25 0 46 -14 46 -45c0 -46 -34 -64 -65 -64zM109 456h78l-81 -456h-78zM49 -172c-27 0 -48 13 -48 45c0 45 27 64 63 64c24 0 47 -17 47 -47c0 -44 -30 -62 -62 -62z" />
    <glyph glyph-name="uni1E37" unicode="&#x1e37;" horiz-adv-x="230" 
d="M226 690l-99 -562c-8 -44 -1 -58 28 -58h28l-12 -72h-41c-78 0 -95 45 -82 123l100 569h78zM56 -172c-27 0 -48 13 -48 45c0 45 27 64 63 64c24 0 47 -17 47 -47c0 -44 -30 -62 -62 -62z" />
    <glyph glyph-name="uni1E45" unicode="&#x1e45;" horiz-adv-x="502" 
d="M322 558c-27 0 -48 13 -48 45c0 45 27 64 63 64c24 0 47 -17 47 -47c0 -44 -30 -62 -62 -62zM109 456h76l-9 -48c31 31 84 58 144 58c106 0 150 -58 129 -175l-52 -291h-78l51 285c13 75 -5 108 -79 108c-50 0 -96 -23 -125 -53l-60 -340h-78z" />
    <glyph glyph-name="uni1ECD" unicode="&#x1ecd;" horiz-adv-x="488" 
d="M278 466c119 0 169 -78 169 -185c0 -145 -76 -291 -238 -291c-116 0 -167 78 -167 186c0 148 78 290 236 290zM213 61c108 0 154 116 154 220c0 70 -27 114 -93 114c-104 0 -152 -112 -152 -219c0 -69 27 -115 91 -115zM185 -172c-27 0 -48 13 -48 45c0 45 27 64 63 64
c24 0 47 -17 47 -47c0 -44 -30 -62 -62 -62z" />
    <glyph glyph-name="uni1E63" unicode="&#x1e63;" horiz-adv-x="415" 
d="M345 355c-19 28 -55 48 -105 48c-67 0 -95 -38 -95 -79c0 -25 15 -45 55 -57l49 -16c73 -22 110 -57 110 -114c0 -80 -63 -147 -192 -147c-91 0 -139 42 -159 77l53 46c19 -30 46 -61 111 -61c60 0 106 26 106 77c0 30 -22 47 -67 60l-51 16c-62 20 -95 58 -95 110
c0 69 50 151 181 151c75 0 128 -34 150 -64zM149 -172c-27 0 -48 13 -48 45c0 45 27 64 63 64c24 0 47 -17 47 -47c0 -44 -30 -62 -62 -62z" />
    <glyph glyph-name="uni0163" unicode="&#x163;" horiz-adv-x="317" 
d="M208 388l-45 -257c-8 -46 5 -69 45 -69c19 0 43 7 62 15l-5 -68c-22 -11 -52 -19 -82 -19l-25 -46c42 0 73 -19 73 -65c0 -57 -42 -95 -112 -95c-33 0 -62 10 -82 22l10 55c19 -16 45 -26 73 -26c29 0 44 16 44 36c0 22 -17 28 -45 28h-34l-3 6l48 94
c-45 18 -57 64 -46 124l47 265h-82l10 58l83 10l21 115l80 14l-23 -129h115l-12 -68h-115z" />
    <glyph glyph-name="uni01D4" unicode="&#x1d4;" horiz-adv-x="502" 
d="M254 541l-70 155h70l46 -102l81 102h75l-123 -155h-79zM393 0h-76l9 48c-31 -31 -84 -58 -144 -58c-106 0 -150 58 -129 175l52 291h78l-51 -285c-13 -75 5 -108 79 -108c50 0 97 23 126 53l59 340h78z" />
    <glyph glyph-name="uni1EE5" unicode="&#x1ee5;" horiz-adv-x="502" 
d="M393 0h-76l9 48c-31 -31 -84 -58 -144 -58c-106 0 -150 58 -129 175l52 291h78l-51 -285c-13 -75 5 -108 79 -108c50 0 97 23 126 53l59 340h78zM174 -172c-27 0 -48 13 -48 45c0 45 27 64 63 64c24 0 47 -17 47 -47c0 -44 -30 -62 -62 -62z" />
    <glyph glyph-name="uni0163.sc" horiz-adv-x="435" 
d="M80 507h371l-11 -64h-145l-79 -443h-10l-31 -56c42 0 73 -19 73 -65c0 -57 -42 -95 -111 -95c-33 0 -62 10 -82 22l10 55c18 -16 45 -26 72 -26c29 0 45 16 45 36c0 22 -18 28 -45 28h-35l-3 6l50 95h-12l78 443h-146z" />
    <glyph glyph-name="uni0410" unicode="&#x410;" horiz-adv-x="585" 
d="M419 179h-263l-90 -179h-94l350 676h99l112 -676h-88zM191 250h218l-49 340z" />
    <glyph glyph-name="uni0411" unicode="&#x411;" horiz-adv-x="557" 
d="M506 605h-272l-36 -204h108c125 0 198 -70 198 -178c0 -136 -86 -223 -254 -223h-207l107 605h-1l12 71h357zM295 329h-110l-45 -258h118c109 0 159 59 159 147c0 69 -39 111 -122 111z" />
    <glyph glyph-name="uni0412" unicode="&#x412;" horiz-adv-x="565" 
d="M161 676h196c111 0 178 -51 178 -147c0 -97 -55 -162 -126 -178c56 -13 102 -58 102 -139c0 -157 -101 -212 -265 -212h-204zM299 385c116 0 147 65 147 137c0 50 -30 83 -108 83h-106l-39 -220h106zM255 71c125 0 170 49 170 145c0 58 -38 98 -126 98h-118l-43 -243h117
z" />
    <glyph glyph-name="uni0413" unicode="&#x413;" horiz-adv-x="484" 
d="M161 676h374l-13 -71h-290l-106 -605h-84z" />
    <glyph glyph-name="uni0403" unicode="&#x403;" horiz-adv-x="484" 
d="M542 916l-110 -155h-75l99 155h86zM161 676h374l-13 -71h-290l-106 -605h-84z" />
    <glyph glyph-name="uni0490" unicode="&#x490;" horiz-adv-x="500" 
d="M42 0l119 676h306l22 123h82l-33 -194h-306l-106 -605h-84z" />
    <glyph glyph-name="uni0414" unicode="&#x414;" horiz-adv-x="633" 
d="M-58 -122l34 193h46c37 20 66 81 93 192l100 413h406l-106 -605h68l-33 -193h-83l21 122h-441l-22 -122h-83zM123 71h308l94 534h-243l-88 -362c-19 -78 -41 -135 -71 -172z" />
    <glyph glyph-name="uni0415" unicode="&#x415;" horiz-adv-x="519" 
d="M445 71l-13 -71h-390l119 676h387l-12 -71h-304l-39 -224h269l-13 -71h-269l-42 -239h307z" />
    <glyph glyph-name="uni0400" unicode="&#x400;" horiz-adv-x="519" 
d="M350 916l44 -155h-67l-56 155h79zM445 71l-13 -71h-390l119 676h387l-12 -71h-304l-39 -224h269l-13 -71h-269l-42 -239h307z" />
    <glyph glyph-name="uni0401" unicode="&#x401;" horiz-adv-x="519" 
d="M273 778c-28 0 -47 15 -47 44c0 44 25 65 61 65c24 0 48 -16 48 -46c0 -46 -31 -63 -62 -63zM448 778c-28 0 -48 15 -48 44c0 44 26 65 62 65c24 0 48 -16 48 -46c0 -46 -31 -63 -62 -63zM445 71l-13 -71h-390l119 676h387l-12 -71h-304l-39 -224h269l-13 -71h-269
l-42 -239h307z" />
    <glyph glyph-name="uni0416" unicode="&#x416;" horiz-adv-x="857" 
d="M917 676l-294 -343l176 -333h-95l-156 305h-64l-53 -305h-84l53 305h-63l-254 -305h-105l296 349l-174 327h91l157 -301h65l53 301h84l-53 -301h64l254 301h102z" />
    <glyph glyph-name="uni0417" unicode="&#x417;" horiz-adv-x="523" 
d="M360 344c52 -13 109 -58 109 -142c0 -123 -100 -212 -254 -212c-147 0 -208 80 -193 175h79c-10 -60 35 -103 119 -103c99 0 164 58 164 142c0 67 -56 108 -136 108h-62l11 70h62c97 0 170 49 170 137c0 55 -40 95 -111 95c-86 0 -136 -48 -144 -105h-82
c11 93 83 177 231 177c116 0 191 -67 191 -162c0 -105 -82 -165 -154 -180z" />
    <glyph glyph-name="uni0418" unicode="&#x418;" horiz-adv-x="680" 
d="M576 676h90l-120 -676h-84l94 530l-437 -530h-88l120 676h83l-93 -528z" />
    <glyph glyph-name="uni0419" unicode="&#x419;" horiz-adv-x="680" 
d="M398 765c-83 0 -125 59 -112 138h60c-7 -48 10 -83 57 -83c49 0 76 35 84 83h62c-14 -79 -65 -138 -151 -138zM576 676h90l-120 -676h-84l94 530l-437 -530h-88l120 676h83l-93 -528z" />
    <glyph glyph-name="uni040D" unicode="&#x40d;" horiz-adv-x="680" 
d="M440 761h-67l-56 155h79zM576 676h90l-120 -676h-84l94 530l-437 -530h-88l120 676h83l-93 -528z" />
    <glyph glyph-name="uni041A" unicode="&#x41a;" horiz-adv-x="552" 
d="M42 0l119 676h84l-54 -301h71l249 301h103l-289 -340l168 -336h-95l-146 305h-73l-53 -305h-84z" />
    <glyph glyph-name="uni040C" unicode="&#x40c;" horiz-adv-x="552" 
d="M506 916l-110 -155h-75l99 155h86zM42 0l119 676h84l-54 -301h71l249 301h103l-289 -340l168 -336h-95l-146 305h-73l-53 -305h-84z" />
    <glyph glyph-name="uni041B" unicode="&#x41b;" horiz-adv-x="655" 
d="M0 69c7 -4 18 -5 31 -5c47 0 78 49 112 188l103 424h407l-120 -676h-84l107 605h-243l-90 -370c-45 -187 -100 -245 -184 -245c-27 0 -47 5 -56 11z" />
    <glyph glyph-name="uni041C" unicode="&#x41c;" horiz-adv-x="824" 
d="M657 676h116l-37 -676h-82l36 577l-274 -577h-91l-67 576l-171 -576h-81l205 676h111l65 -569z" />
    <glyph glyph-name="uni041D" unicode="&#x41d;" horiz-adv-x="651" 
d="M565 676h83l-120 -676h-83l56 319h-320l-55 -319h-84l119 676h84l-51 -286h320z" />
    <glyph glyph-name="uni041E" unicode="&#x41e;" horiz-adv-x="643" 
d="M615 432c0 -230 -85 -442 -329 -442c-147 0 -218 102 -218 252c0 233 83 444 328 444c153 0 219 -106 219 -254zM154 242c0 -102 37 -178 138 -178c138 0 237 110 237 368c0 101 -37 180 -139 180c-181 0 -236 -181 -236 -370z" />
    <glyph glyph-name="uni041F" unicode="&#x41f;" horiz-adv-x="634" 
d="M631 676l-119 -676h-84l106 605h-302l-106 -605h-84l119 676h470z" />
    <glyph glyph-name="uni0420" unicode="&#x420;" horiz-adv-x="546" 
d="M172 267l-46 -267h-84l119 676h202c125 0 188 -66 188 -170c0 -143 -81 -239 -255 -239h-124zM184 338h117c129 0 163 78 163 165c0 58 -31 102 -115 102h-117z" />
    <glyph glyph-name="uni0421" unicode="&#x421;" horiz-adv-x="569" 
d="M155 253c0 -106 41 -189 143 -189c61 0 118 34 154 86l63 -45c-50 -67 -121 -115 -225 -115c-149 0 -223 105 -223 261c0 273 122 435 330 435c100 0 172 -48 196 -117l-69 -41c-17 53 -68 84 -130 84c-151 0 -239 -134 -239 -359z" />
    <glyph glyph-name="uni0422" unicode="&#x422;" horiz-adv-x="514" 
d="M561 676l-12 -71h-184l-107 -605h-84l107 605h-184l12 71h452z" />
    <glyph glyph-name="uni0423" unicode="&#x423;" horiz-adv-x="523" 
d="M498 676h94l-429 -676h-92l162 257l-136 419h86l105 -340z" />
    <glyph glyph-name="uni040E" unicode="&#x40e;" horiz-adv-x="523" 
d="M349 765c-83 0 -125 59 -112 138h60c-7 -48 10 -83 57 -83c49 0 76 35 84 83h62c-14 -79 -65 -138 -151 -138zM498 676h94l-429 -676h-92l162 257l-136 419h86l105 -340z" />
    <glyph glyph-name="uni0424" unicode="&#x424;" horiz-adv-x="713" 
d="M63 287c0 214 119 334 321 337l13 72h84l-13 -72c135 -4 221 -99 221 -235c0 -215 -120 -334 -322 -337l-12 -72h-84l12 72c-131 4 -220 97 -220 235zM150 289c0 -97 53 -160 148 -163l74 424c-142 -3 -222 -94 -222 -261zM381 127c143 3 221 90 221 258
c0 96 -52 162 -148 165z" />
    <glyph glyph-name="uni0425" unicode="&#x425;" horiz-adv-x="551" 
d="M199 676l104 -269l200 269h101l-250 -327l140 -349h-90l-112 287l-212 -287h-101l263 349l-135 327h92z" />
    <glyph glyph-name="uni0427" unicode="&#x427;" horiz-adv-x="550" 
d="M463 676h84l-119 -676h-84l49 278c-31 -13 -80 -26 -146 -26c-123 0 -181 73 -160 194l41 230h83l-40 -225c-13 -74 11 -123 104 -123c60 0 104 11 131 25z" />
    <glyph glyph-name="uni0426" unicode="&#x426;" horiz-adv-x="644" 
d="M42 0l119 676h84l-107 -605h303l106 605h84l-106 -605h68l-33 -193h-83l21 122h-456z" />
    <glyph glyph-name="uni0428" unicode="&#x428;" horiz-adv-x="999" 
d="M42 0l119 676h84l-107 -605h292l106 605h84l-106 -605h292l106 605h84l-119 -676h-835z" />
    <glyph glyph-name="uni0429" unicode="&#x429;" horiz-adv-x="1008" 
d="M996 676l-107 -605h70l-34 -193h-83l21 122h-821l119 676h84l-107 -605h292l106 605h84l-106 -605h292l106 605h84z" />
    <glyph glyph-name="uni040F" unicode="&#x40f;" horiz-adv-x="634" 
d="M631 676l-119 -676h-184l-22 -122h-84l22 122h-202l119 676h84l-107 -605h303l106 605h84z" />
    <glyph glyph-name="uni042C" unicode="&#x42c;" horiz-adv-x="544" 
d="M196 401h108c126 0 199 -70 199 -178c0 -136 -87 -223 -254 -223h-207l119 676h84zM184 329l-46 -258h118c110 0 159 59 159 147c0 69 -38 111 -121 111h-110z" />
    <glyph glyph-name="uni042A" unicode="&#x42a;" horiz-adv-x="645" 
d="M406 401c125 0 198 -70 198 -178c0 -136 -86 -223 -254 -223h-207l107 605h-153l12 71h237l-49 -275h109zM358 71c109 0 159 59 159 147c0 69 -39 111 -122 111h-110l-45 -258h118z" />
    <glyph glyph-name="uni042B" unicode="&#x42b;" horiz-adv-x="789" 
d="M196 401h108c126 0 199 -70 199 -178c0 -136 -87 -223 -254 -223h-207l119 676h84zM702 676h84l-119 -676h-84zM184 329l-46 -258h118c110 0 159 59 159 147c0 69 -38 111 -121 111h-110z" />
    <glyph glyph-name="uni0409" unicode="&#x409;" horiz-adv-x="951" 
d="M712 401c126 0 199 -70 199 -178c0 -136 -87 -223 -254 -223h-208l107 605h-243l-90 -370c-45 -187 -100 -245 -184 -245c-27 0 -47 5 -56 11l17 68c7 -4 18 -5 31 -5c47 0 78 49 112 188l103 424h407l-49 -275h108zM664 71c109 0 159 59 159 147c0 69 -39 111 -122 111
h-109l-46 -258h118z" />
    <glyph glyph-name="uni040A" unicode="&#x40a;" horiz-adv-x="947" 
d="M708 401c125 0 198 -70 198 -178c0 -136 -86 -223 -254 -223h-207l56 319h-320l-55 -319h-84l119 676h84l-51 -286h320l50 286h84l-49 -275h109zM660 71c109 0 159 59 159 147c0 69 -39 111 -122 111h-110l-45 -258h118z" />
    <glyph glyph-name="uni0405" unicode="&#x405;" horiz-adv-x="526" 
d="M466 542c-18 45 -63 70 -128 70c-93 0 -145 -61 -145 -137c0 -45 29 -71 77 -88l76 -27c67 -25 128 -63 128 -153c0 -122 -90 -217 -250 -217c-146 0 -189 74 -204 129l66 42c14 -51 41 -98 143 -98c103 0 157 57 157 136c0 50 -37 74 -84 92l-78 27
c-66 25 -119 68 -119 150c0 112 81 218 238 218c105 0 168 -47 189 -99z" />
    <glyph glyph-name="uni0404" unicode="&#x404;" horiz-adv-x="569" 
d="M394 612c-119 0 -199 -83 -227 -229h254l-12 -71h-252c-1 -19 -2 -39 -2 -59c0 -106 41 -189 143 -189c61 0 118 34 154 86l63 -45c-50 -67 -121 -115 -225 -115c-149 0 -223 105 -223 261c0 273 122 435 330 435c100 0 172 -48 196 -117l-69 -41c-17 53 -68 84 -130 84z
" />
    <glyph glyph-name="uni042D" unicode="&#x42d;" horiz-adv-x="557" 
d="M318 686c177 0 242 -152 207 -347c-39 -223 -142 -349 -319 -349c-103 0 -170 49 -194 118l71 39c17 -50 67 -83 134 -83c117 0 184 98 217 248h-267l13 71h265c13 132 -28 229 -139 229c-63 0 -120 -33 -155 -86l-58 43c48 69 127 117 225 117z" />
    <glyph glyph-name="uni0406" unicode="&#x406;" horiz-adv-x="248" 
d="M161 676h84l-119 -676h-84z" />
    <glyph glyph-name="uni0407" unicode="&#x407;" horiz-adv-x="248" 
d="M129 762c-28 0 -47 15 -47 44c0 44 25 65 61 65c24 0 48 -16 48 -46c0 -46 -31 -63 -62 -63zM304 762c-28 0 -48 15 -48 44c0 44 26 65 62 65c24 0 48 -16 48 -46c0 -46 -31 -63 -62 -63zM161 676h84l-119 -676h-84z" />
    <glyph glyph-name="uni0408" unicode="&#x408;" horiz-adv-x="470" 
d="M67 132c17 -48 46 -68 98 -68c89 0 129 56 149 173l78 439h80l-78 -445c-29 -164 -101 -241 -234 -241c-87 0 -143 41 -162 101z" />
    <glyph glyph-name="uni040B" unicode="&#x40b;" horiz-adv-x="686" 
d="M478 424c123 0 181 -73 160 -194l-41 -230h-83l40 225c13 74 -11 123 -104 123c-60 0 -104 -11 -131 -25l-57 -323h-84l107 605h-189l13 71h474l-13 -71h-201l-37 -207c31 13 80 26 146 26z" />
    <glyph glyph-name="uni042E" unicode="&#x42e;" horiz-adv-x="871" 
d="M624 686c153 0 219 -106 219 -254c0 -230 -85 -442 -329 -442c-147 0 -218 102 -218 252c0 23 1 46 3 69h-117l-55 -311h-84l119 676h84l-52 -297h113c29 173 121 307 317 307zM520 64c137 0 237 110 237 368c0 101 -37 180 -139 180c-182 0 -236 -181 -236 -370
c0 -102 37 -178 138 -178z" />
    <glyph glyph-name="uni042F" unicode="&#x42f;" horiz-adv-x="568" 
d="M325 676h240l-126 -676h-83l55 298h-118l-214 -298h-100l228 309c-81 22 -124 79 -124 167c0 119 79 200 242 200zM424 369l43 236h-147c-103 0 -150 -50 -150 -127c0 -75 39 -109 131 -109h123z" />
    <glyph glyph-name="uni0402" unicode="&#x402;" horiz-adv-x="700" 
d="M452 422c140 0 203 -83 203 -189c0 -149 -91 -237 -233 -237c-32 0 -58 4 -77 10l19 71c16 -4 34 -8 53 -8c91 0 151 51 151 157c0 64 -37 122 -137 122c-53 0 -101 -13 -129 -26l-56 -322h-84l106 605h-172l13 71h457l-13 -71h-201l-36 -208c27 11 74 25 136 25z" />
    <glyph glyph-name="uni0492" unicode="&#x492;" horiz-adv-x="512" 
d="M522 605h-290l-45 -254h177l-12 -68h-176l-50 -283h-84l50 283h-77l12 68h77l57 325h374z" />
    <glyph glyph-name="uni049A" unicode="&#x49a;" horiz-adv-x="552" 
d="M325 336l133 -265h74l-34 -193h-83l21 122h-38l-146 305h-73l-53 -305h-84l119 676h84l-54 -301h71l249 301h103z" />
    <glyph glyph-name="uni04B2" unicode="&#x4b2;" horiz-adv-x="551" 
d="M354 349l112 -278h73l-34 -193h-83l21 122h-39l-112 287l-212 -287h-101l263 349l-135 327h92l104 -269l200 269h101z" />
    <glyph glyph-name="uni04D4" unicode="&#x4d4;" horiz-adv-x="910" 
d="M-28 0l532 676h435l-12 -71h-304l-39 -224h269l-13 -71h-269l-42 -241h306l-11 -69h-392l32 179h-250l-141 -179h-101zM476 249l63 351l-274 -351h211z" />
    <glyph glyph-name="uni0430" unicode="&#x430;" horiz-adv-x="502" 
d="M396 456h78l-80 -456h-75l8 41c-31 -28 -71 -51 -128 -51c-104 0 -156 67 -156 181c0 186 87 295 225 295c60 0 101 -27 121 -54zM124 178c0 -68 25 -116 96 -116c54 0 94 27 117 56l39 219c-13 25 -42 56 -97 56c-107 0 -155 -91 -155 -215z" />
    <glyph glyph-name="uni0431" unicode="&#x431;" horiz-adv-x="488" 
d="M342 566c-105 -20 -153 -72 -191 -192c37 51 88 73 138 73c98 0 156 -65 156 -176c0 -167 -95 -281 -229 -281c-111 0 -167 65 -167 193c0 199 73 411 256 448c104 21 113 34 115 59h72c1 -66 -21 -98 -150 -124zM268 377c-79 0 -141 -90 -141 -207
c0 -70 29 -110 97 -110c79 0 141 88 141 205c0 73 -34 112 -97 112z" />
    <glyph glyph-name="uni0432" unicode="&#x432;" horiz-adv-x="443" 
d="M28 0l80 456h150c110 0 148 -46 148 -106c0 -53 -33 -97 -77 -110c37 -14 64 -48 64 -97c0 -92 -61 -143 -185 -143h-180zM153 266h79c56 0 92 28 92 75c0 42 -31 53 -81 53h-68zM117 62h97c51 0 98 22 98 82c0 39 -30 60 -84 60h-86z" />
    <glyph glyph-name="uni0433" unicode="&#x433;" horiz-adv-x="381" 
d="M108 456h296l-12 -68h-218l-68 -388h-78z" />
    <glyph glyph-name="uni0453" unicode="&#x453;" horiz-adv-x="381" 
d="M402 696l-110 -155h-75l99 155h86zM108 456h296l-12 -68h-218l-68 -388h-78z" />
    <glyph glyph-name="uni0491" unicode="&#x491;" horiz-adv-x="390" 
d="M28 0l80 456h227l21 119h78l-33 -187h-227l-68 -388h-78z" />
    <glyph glyph-name="uni0434" unicode="&#x434;" horiz-adv-x="513" 
d="M-48 -119l33 187h41c26 15 46 55 67 135l63 253h318l-68 -388h62l-32 -187h-79l22 119h-329l-20 -119h-78zM114 68h214l57 320h-169l-50 -199c-12 -46 -27 -90 -52 -121z" />
    <glyph glyph-name="uni0435" unicode="&#x435;" horiz-adv-x="455" 
d="M217 58c42 0 88 16 126 50l30 -56c-33 -33 -93 -62 -160 -62c-129 0 -172 80 -172 176c0 166 88 300 230 300c102 0 154 -67 154 -156c0 -42 -13 -80 -23 -106h-280c-12 -86 11 -146 95 -146zM344 264c2 7 7 18 7 46c0 53 -29 90 -82 90c-77 0 -119 -60 -137 -136h212z
" />
    <glyph glyph-name="uni0450" unicode="&#x450;" horiz-adv-x="455" 
d="M273 696l44 -155h-67l-56 155h79zM217 58c42 0 88 16 126 50l30 -56c-33 -33 -93 -62 -160 -62c-129 0 -172 80 -172 176c0 166 88 300 230 300c102 0 154 -67 154 -156c0 -42 -13 -80 -23 -106h-280c-12 -86 11 -146 95 -146zM344 264c2 7 7 18 7 46c0 53 -29 90 -82 90
c-77 0 -119 -60 -137 -136h212z" />
    <glyph glyph-name="uni0451" unicode="&#x451;" horiz-adv-x="455" 
d="M197 558c-28 0 -47 15 -47 44c0 44 25 65 61 65c24 0 48 -16 48 -46c0 -46 -31 -63 -62 -63zM372 558c-28 0 -48 15 -48 44c0 44 26 65 62 65c24 0 48 -16 48 -46c0 -46 -31 -63 -62 -63zM217 58c42 0 88 16 126 50l30 -56c-33 -33 -93 -62 -160 -62
c-129 0 -172 80 -172 176c0 166 88 300 230 300c102 0 154 -67 154 -156c0 -42 -13 -80 -23 -106h-280c-12 -86 11 -146 95 -146zM344 264c2 7 7 18 7 46c0 53 -29 90 -82 90c-77 0 -119 -60 -137 -136h212z" />
    <glyph glyph-name="uni0436" unicode="&#x436;" horiz-adv-x="641" 
d="M-28 0l200 235l-117 221h85l98 -193h50l34 193h78l-34 -193h46l161 193h96l-199 -232l117 -224h-86l-96 195h-51l-34 -195h-78l34 195h-48l-160 -195h-96z" />
    <glyph glyph-name="uni0437" unicode="&#x437;" horiz-adv-x="412" 
d="M276 233c34 -10 70 -41 70 -96c0 -84 -75 -144 -190 -144s-167 51 -154 129h76c-7 -41 25 -64 81 -64c62 0 105 31 105 79c0 43 -36 64 -90 64h-73l11 64h70c60 0 109 27 109 76c0 37 -31 57 -77 57c-51 0 -84 -23 -91 -63h-78c13 74 72 128 178 128
c93 0 147 -50 147 -119c0 -50 -41 -99 -94 -111z" />
    <glyph glyph-name="uni0438" unicode="&#x438;" horiz-adv-x="489" 
d="M384 456h77l-80 -456h-76l57 323l-259 -323h-75l80 456h76l-57 -319z" />
    <glyph glyph-name="uni0439" unicode="&#x439;" horiz-adv-x="489" 
d="M292 545c-83 0 -125 59 -112 138h60c-7 -48 10 -83 57 -83c49 0 76 35 84 83h62c-14 -79 -65 -138 -151 -138zM384 456h77l-80 -456h-76l57 323l-259 -323h-75l80 456h76l-57 -319z" />
    <glyph glyph-name="uni045D" unicode="&#x45d;" horiz-adv-x="489" 
d="M334 541h-67l-56 155h79zM384 456h77l-80 -456h-76l57 323l-259 -323h-75l80 456h76l-57 -319z" />
    <glyph glyph-name="uni043A" unicode="&#x43a;" horiz-adv-x="422" 
d="M28 0l80 456h78l-34 -193h44l159 193h95l-194 -230l112 -226h-87l-94 195h-47l-34 -195h-78z" />
    <glyph glyph-name="uni045C" unicode="&#x45c;" horiz-adv-x="422" 
d="M406 696l-110 -155h-75l99 155h86zM28 0l80 456h78l-34 -193h44l159 193h95l-194 -230l112 -226h-87l-94 195h-47l-34 -195h-78z" />
    <glyph glyph-name="uni043B" unicode="&#x43b;" horiz-adv-x="517" 
d="M171 456h318l-80 -456h-78l69 388h-169l-54 -212c-32 -125 -83 -182 -151 -182c-21 0 -40 5 -50 9l26 66c6 -2 13 -3 21 -3c34 0 58 36 83 132z" />
    <glyph glyph-name="uni043C" unicode="&#x43c;" horiz-adv-x="608" 
d="M450 456h104l-27 -456h-73l26 366l-173 -366h-84l-41 364l-107 -364h-74l138 456h101l39 -361z" />
    <glyph glyph-name="uni043D" unicode="&#x43d;" horiz-adv-x="492" 
d="M386 456h78l-80 -456h-78l36 202h-201l-35 -202h-78l80 456h78l-33 -186h201z" />
    <glyph glyph-name="uni043E" unicode="&#x43e;" horiz-adv-x="488" 
d="M278 466c119 0 169 -78 169 -185c0 -145 -76 -291 -238 -291c-116 0 -167 78 -167 186c0 148 78 290 236 290zM213 61c108 0 154 116 154 220c0 70 -27 114 -93 114c-104 0 -152 -112 -152 -219c0 -69 27 -115 91 -115z" />
    <glyph glyph-name="uni043F" unicode="&#x43f;" horiz-adv-x="493" 
d="M465 456l-80 -456h-78l69 388h-202l-68 -388h-78l80 456h357z" />
    <glyph glyph-name="uni0440" unicode="&#x440;" horiz-adv-x="505" 
d="M68 -216h-78l119 672h74l-7 -42c27 26 70 52 128 52c105 0 157 -71 157 -182c0 -184 -83 -294 -225 -294c-63 0 -105 25 -123 53zM380 277c0 63 -24 116 -97 116c-54 0 -94 -26 -118 -56l-38 -219c13 -25 41 -56 97 -56c109 0 156 91 156 215z" />
    <glyph glyph-name="uni0441" unicode="&#x441;" horiz-adv-x="438" 
d="M42 171c0 159 76 295 234 295c77 0 132 -32 154 -92l-60 -39c-15 41 -48 61 -94 61c-113 0 -153 -113 -153 -218c0 -66 30 -118 97 -118c45 0 84 21 113 62l53 -42c-41 -58 -101 -90 -175 -90c-113 0 -169 75 -169 181z" />
    <glyph glyph-name="uni0442" unicode="&#x442;" horiz-adv-x="380" 
d="M408 456l-12 -68h-139l-68 -388h-78l68 388h-139l12 68h356z" />
    <glyph glyph-name="uni0443" unicode="&#x443;" horiz-adv-x="463" 
d="M216 122l179 334h91l-382 -672h-86l144 249l-104 423h85z" />
    <glyph glyph-name="uni045E" unicode="&#x45e;" horiz-adv-x="463" 
d="M415 683c-14 -79 -65 -138 -151 -138c-83 0 -125 59 -112 138h60c-7 -48 10 -83 57 -83c49 0 76 35 84 83h62zM216 122l179 334h91l-382 -672h-86l144 249l-104 423h85z" />
    <glyph glyph-name="uni0444" unicode="&#x444;" horiz-adv-x="616" 
d="M572 269c0 -175 -97 -277 -268 -279l-36 -206h-78l36 206c-110 4 -182 83 -182 198c0 173 95 276 266 278l40 224h78l-40 -225c112 -3 184 -78 184 -196zM239 62l59 333c-115 -2 -173 -75 -173 -203c0 -78 39 -127 114 -130zM317 61c115 2 174 75 174 204
c0 76 -38 126 -115 129z" />
    <glyph glyph-name="uni0445" unicode="&#x445;" horiz-adv-x="438" 
d="M373 0h-87l-72 173l-134 -173h-96l185 229l-105 227h87l73 -172l134 172h96l-186 -228z" />
    <glyph glyph-name="uni0447" unicode="&#x447;" horiz-adv-x="441" 
d="M335 456h78l-81 -456h-78l31 176c-22 -8 -63 -15 -108 -15c-96 0 -141 61 -124 153l26 142h78l-26 -139c-9 -53 8 -87 76 -87c36 0 71 6 90 12z" />
    <glyph glyph-name="uni0446" unicode="&#x446;" horiz-adv-x="504" 
d="M28 0l80 456h78l-68 -388h201l68 388h78l-68 -388h62l-32 -187h-78l21 119h-342z" />
    <glyph glyph-name="uni0448" unicode="&#x448;" horiz-adv-x="768" 
d="M28 0l80 456h78l-68 -388h199l68 388h78l-69 -388h200l68 388h78l-80 -456h-632z" />
    <glyph glyph-name="uni0449" unicode="&#x449;" horiz-adv-x="778" 
d="M28 0l80 456h78l-68 -388h199l68 388h78l-69 -388h200l68 388h78l-69 -388h63l-33 -187h-78l21 119h-616z" />
    <glyph glyph-name="uni045F" unicode="&#x45f;" horiz-adv-x="493" 
d="M465 456l-80 -456h-131l-21 -122h-78l21 122h-148l80 456h78l-68 -388h201l68 388h78z" />
    <glyph glyph-name="uni044C" unicode="&#x44c;" horiz-adv-x="443" 
d="M158 295h79c103 0 157 -44 157 -126c0 -104 -65 -169 -193 -169h-173l80 456h78zM147 234l-31 -172h89c75 0 109 41 109 105c0 43 -27 67 -89 67h-78z" />
    </font>
</defs>
</svg>
