<?xml version="1.0" standalone="no"?>
<!DOCTYPE svg PUBLIC "-//W3C//DTD SVG 1.1//EN" "http://www.w3.org/Graphics/SVG/1.1/DTD/svg11.dtd" >
<svg xmlns="http://www.w3.org/2000/svg" xmlns:xlink="http://www.w3.org/1999/xlink" version="1.1">
<metadata>
Created by FontForge 20190801 at Thu Sep 13 21:38:52 2018
 By Jimmy Wärting
Copyright \(c\) 2014-2018 by Hannes von Doehren, Livius Dietzel. All rights reserved.
</metadata>
<defs>
<font id="BrixSans-ExtraLightItalic" horiz-adv-x="560" >
  <font-face 
    font-family="Brix Sans ExtraLight"
    font-weight="250"
    font-style="italic"
    font-stretch="normal"
    units-per-em="1000"
    panose-1="2 11 2 0 0 0 0 0 0 0"
    ascent="720"
    descent="-280"
    x-height="456"
    cap-height="676"
    bbox="-411 -226 1104 969"
    underline-thickness="30"
    underline-position="-85"
    slope="-10"
    stemh="39"
    stemv="40"
    unicode-range="U+0020-FB02"
  />
<missing-glyph horiz-adv-x="513" 
d="M59 656h413v-656h-413v656zM434 40v576h-337v-576h337z" />
    <glyph glyph-name="fi" unicode="fi" horiz-adv-x="526" 
d="M441 420h-265l-112 -636h-38l112 636h-79l4 26l81 10l14 79c16 90 51 155 141 155h46l-7 -36h-39c-63 0 -89 -38 -103 -119l-14 -79h304l-81 -456h-38zM490 591c-18 0 -32 10 -32 31c0 33 21 48 46 48c17 0 32 -10 32 -32c0 -32 -24 -47 -46 -47z" />
    <glyph glyph-name="fl" unicode="fl" horiz-adv-x="511" 
d="M338 654h-39c-63 0 -89 -38 -103 -119l-14 -79h141l-6 -36h-141l-112 -636h-38l112 636h-79l4 26l81 10l14 79c16 90 51 155 141 155h46zM500 690l-102 -580c-11 -56 -4 -74 29 -74h34l-6 -36h-30c-66 0 -78 34 -64 113l101 577h38z" />
    <glyph glyph-name="f_f" unicode="ff" horiz-adv-x="580" 
d="M617 654h-39c-63 0 -89 -38 -103 -119l-14 -79h141l-6 -36h-141l-112 -636h-38l112 636h-241l-112 -636h-38l112 636h-79l4 26l81 10l14 79c16 90 51 155 141 155h46l-7 -36h-39c-63 0 -89 -38 -103 -119l-14 -79h241l14 79c16 90 51 155 141 155h46z" />
    <glyph glyph-name=".notdef" horiz-adv-x="513" 
d="M59 656h413v-656h-413v656zM434 40v576h-337v-576h337z" />
    <glyph glyph-name=".null" horiz-adv-x="0" 
 />
    <glyph glyph-name="space" unicode=" " horiz-adv-x="237" 
 />
    <glyph glyph-name="exclam" unicode="!" horiz-adv-x="212" 
d="M86 199l76 477h48l-93 -477h-31zM68 -7c-20 0 -36 17 -36 37c0 28 21 47 47 47c21 0 37 -17 37 -37c0 -28 -21 -47 -48 -47z" />
    <glyph glyph-name="quotedbl" unicode="&#x22;" horiz-adv-x="322" 
d="M146 676h51l-53 -244h-31zM281 676h49l-53 -244h-32z" />
    <glyph glyph-name="numbersign" unicode="#" horiz-adv-x="573" 
d="M50 227l7 36h102l57 180h-96l7 36h102l64 197h37l-63 -197h157l65 197h37l-63 -197h105l-7 -36h-110l-58 -180h104l-7 -36h-110l-72 -227h-38l73 227h-158l-73 -227h-38l73 227h-97zM197 263h158l57 180h-157z" />
    <glyph glyph-name="dollar" unicode="$" horiz-adv-x="521" 
d="M480 566c-19 50 -64 78 -131 81l-51 -291l37 -13c65 -22 124 -56 124 -144c0 -106 -77 -204 -226 -209l-16 -93h-40l17 94c-124 9 -154 79 -166 131l38 16c10 -51 35 -102 134 -108l53 298l-23 8c-66 23 -117 58 -117 139c0 98 75 200 203 210l13 74h40l-13 -74
c87 -5 145 -49 161 -97zM250 372l10 -3l49 276c-102 -11 -155 -86 -155 -170c0 -55 36 -82 96 -103zM316 307l-25 8l-51 -285c119 6 178 80 178 169c0 61 -46 89 -102 108z" />
    <glyph glyph-name="percent" unicode="%" horiz-adv-x="735" 
d="M258 679c68 0 106 -40 106 -125c0 -111 -46 -221 -155 -221c-81 0 -106 53 -106 125c0 120 53 221 155 221zM166 0h-48l508 676h50zM208 365c91 0 118 97 118 189c0 57 -20 94 -67 94c-83 0 -119 -90 -119 -190c0 -57 20 -93 68 -93zM581 341c68 0 106 -40 106 -125
c0 -111 -46 -221 -155 -221c-81 0 -106 53 -106 125c0 120 53 221 155 221zM531 27c91 0 118 97 118 189c0 57 -20 94 -67 94c-83 0 -119 -90 -119 -190c0 -57 20 -93 68 -93z" />
    <glyph glyph-name="ampersand" unicode="&#x26;" horiz-adv-x="622" 
d="M461 170l-24 -29l106 -136l-1 -5h-49l-84 109c-62 -68 -130 -120 -224 -120c-107 0 -146 58 -146 123c0 99 87 157 165 209l28 19l-29 37c-24 32 -62 82 -62 140c0 94 77 169 198 169c100 0 153 -59 153 -134c0 -77 -54 -116 -136 -173l-67 -46l123 -159l20 24l128 155
l31 -28zM232 406l33 -43l64 44c70 48 121 82 121 145c0 47 -34 95 -111 95c-94 0 -157 -60 -157 -130c0 -45 25 -78 50 -111zM185 28c78 0 140 50 199 114l-129 168l-23 -16c-82 -56 -152 -100 -152 -182c0 -48 38 -84 105 -84z" />
    <glyph glyph-name="quotesingle" unicode="'" horiz-adv-x="190" 
d="M148 676h50l-53 -244h-32z" />
    <glyph glyph-name="parenleft" unicode="(" horiz-adv-x="253" 
d="M111 -222c-36 93 -59 204 -59 315c0 297 95 450 219 610l35 -10c-123 -177 -211 -318 -211 -596c0 -100 19 -214 50 -309z" />
    <glyph glyph-name="parenright" unicode=")" horiz-adv-x="254" 
d="M-46 -212c148 218 210 357 210 599c0 115 -23 222 -52 306l35 10c32 -82 59 -189 59 -314c0 -260 -59 -402 -219 -611z" />
    <glyph glyph-name="asterisk" unicode="*" horiz-adv-x="453" 
d="M126 377l122 125l-138 46l23 37l133 -53l24 164h44l-34 -163l147 50l5 -41l-147 -42l70 -128l-37 -24l-64 134l-120 -133z" />
    <glyph glyph-name="plus" unicode="+" 
d="M68 288h198v203h38v-203h201v-36h-201v-202h-38v202h-198v36z" />
    <glyph glyph-name="comma" unicode="," horiz-adv-x="205" 
d="M33 -115h-34l58 193h50z" />
    <glyph glyph-name="hyphen" unicode="-" horiz-adv-x="388" 
d="M316 287v-36h-232v36h232z" />
    <glyph glyph-name="period" unicode="." horiz-adv-x="215" 
d="M72 -7c-20 0 -36 17 -36 37c0 28 21 47 47 47c22 0 37 -17 37 -37c0 -28 -20 -47 -48 -47z" />
    <glyph glyph-name="slash" unicode="/" horiz-adv-x="315" 
d="M38 0h-40l315 676h43z" />
    <glyph glyph-name="zero" unicode="0" horiz-adv-x="583" 
d="M365 686c117 0 178 -95 178 -241c0 -241 -84 -455 -288 -455c-117 0 -176 95 -176 241c0 241 83 455 286 455zM256 29c177 0 245 202 245 416c0 120 -42 202 -136 202c-177 0 -245 -201 -245 -416c0 -120 42 -202 136 -202z" />
    <glyph glyph-name="one" unicode="1" horiz-adv-x="355" 
d="M181 0l112 631l-203 -83l-6 39l218 89h39l-120 -676h-40z" />
    <glyph glyph-name="two" unicode="2" horiz-adv-x="496" 
d="M317 686c100 0 160 -66 160 -158c0 -109 -67 -178 -167 -274l-227 -216h329l-7 -38h-386l6 36l257 243c98 94 153 158 153 249c0 68 -41 119 -119 119c-89 0 -147 -62 -162 -149h-42c19 109 92 188 205 188z" />
    <glyph glyph-name="three" unicode="3" horiz-adv-x="529" 
d="M348 348c52 -13 109 -57 109 -146c0 -121 -93 -212 -234 -212c-137 0 -192 79 -177 164h39c-13 -70 37 -125 138 -125c121 0 192 75 192 173c0 78 -62 129 -151 129h-56l7 38h56c102 0 191 58 191 162c0 66 -45 116 -129 116c-100 0 -159 -61 -171 -129h-43
c15 83 84 168 214 168c106 0 170 -65 170 -155c0 -109 -80 -166 -155 -183z" />
    <glyph glyph-name="four" unicode="4" horiz-adv-x="553" 
d="M499 161h-108l-28 -161h-40l28 161h-322l6 36l407 479h40l-84 -477h108zM358 199l72 406l-343 -406h271z" />
    <glyph glyph-name="five" unicode="5" horiz-adv-x="514" 
d="M454 254c0 -136 -84 -264 -239 -264c-142 0 -188 91 -171 186h38c-13 -78 22 -148 133 -148c128 0 197 109 197 226c0 79 -44 131 -128 131c-54 0 -99 -21 -141 -49h-42l98 340h315l-7 -38h-280l-76 -259c25 18 78 45 133 45c104 0 170 -63 170 -170z" />
    <glyph glyph-name="six" unicode="6" horiz-adv-x="548" 
d="M484 518c12 80 -35 129 -124 129c-118 0 -211 -127 -237 -322c27 40 104 99 187 99c115 0 179 -64 179 -174c0 -142 -86 -260 -242 -260c-122 0 -172 90 -172 224c0 251 106 472 285 472c122 0 179 -74 162 -168h-38zM122 270c-4 -17 -6 -42 -6 -56
c0 -108 37 -186 131 -186c128 0 201 101 201 222c0 82 -47 135 -138 135c-75 0 -151 -55 -188 -115z" />
    <glyph glyph-name="seven" unicode="7" horiz-adv-x="442" 
d="M432 638h-327l7 38h373l-6 -36l-351 -640h-49z" />
    <glyph glyph-name="eight" unicode="8" horiz-adv-x="554" 
d="M242 -10c-111 0 -187 55 -187 164c0 124 93 187 168 200c-52 13 -97 53 -97 129c0 119 92 203 226 203c104 0 175 -55 175 -154c0 -108 -75 -170 -150 -184c52 -12 106 -52 106 -141c0 -136 -103 -217 -241 -217zM352 647c-108 0 -184 -60 -184 -164
c0 -69 55 -113 135 -113c98 0 183 58 183 162c0 74 -51 115 -134 115zM242 29c117 0 200 65 200 178c0 77 -61 124 -147 124c-107 0 -198 -66 -198 -177c0 -81 56 -125 145 -125z" />
    <glyph glyph-name="nine" unicode="9" horiz-adv-x="550" 
d="M104 158c-12 -80 35 -129 124 -129c118 0 211 127 237 322c-27 -40 -104 -99 -187 -99c-115 0 -179 64 -179 174c0 142 86 260 242 260c122 0 172 -90 172 -224c0 -251 -106 -472 -285 -472c-122 0 -179 74 -162 168h38zM466 406c4 17 6 42 6 56c0 108 -37 186 -131 186
c-128 0 -201 -101 -201 -222c0 -82 47 -135 138 -135c75 0 151 55 188 115z" />
    <glyph glyph-name="colon" unicode=":" horiz-adv-x="232" 
d="M145 381c-21 0 -36 17 -36 37c0 29 20 48 47 48c21 0 36 -17 36 -38c0 -28 -20 -47 -47 -47zM74 -7c-20 0 -34 15 -34 35c0 28 23 49 49 49c21 0 35 -15 35 -35c0 -28 -23 -49 -50 -49z" />
    <glyph glyph-name="semicolon" unicode=";" horiz-adv-x="226" 
d="M140 381c-21 0 -36 17 -36 37c0 29 21 48 47 48c21 0 37 -17 37 -38c0 -28 -21 -47 -48 -47zM40 -115h-33l58 193h50z" />
    <glyph glyph-name="less" unicode="&#x3c;" 
d="M89 288l362 172v-42l-321 -148l321 -147v-43l-362 172v36z" />
    <glyph glyph-name="equal" unicode="=" 
d="M467 403v-36h-362v36h362zM467 174v-36h-362v36h362z" />
    <glyph glyph-name="greater" unicode="&#x3e;" 
d="M480 252l-362 -172v43l321 147l-321 148v42l362 -172v-36z" />
    <glyph glyph-name="question" unicode="?" horiz-adv-x="430" 
d="M281 686c98 0 154 -63 154 -146c0 -152 -182 -176 -211 -341h-45c31 177 212 216 212 341c0 53 -35 106 -110 106c-68 0 -126 -40 -139 -113h-44c16 87 77 153 183 153zM166 -7c-20 0 -37 17 -37 37c0 28 21 47 47 47c21 0 37 -17 37 -37c0 -28 -20 -47 -47 -47z" />
    <glyph glyph-name="at" unicode="@" horiz-adv-x="863" 
d="M493 83c-32 -33 -88 -61 -145 -61c-73 0 -119 42 -119 133c0 144 110 296 250 296c60 0 95 -25 111 -58l17 49h39l-106 -309c-18 -52 -12 -74 16 -74c95 0 227 126 227 350c0 103 -61 203 -236 203c-280 0 -459 -240 -459 -515c0 -134 64 -233 228 -233
c75 0 142 18 201 47l5 -37c-55 -26 -123 -49 -206 -49c-183 0 -268 108 -268 272c0 294 201 554 499 554c197 0 276 -113 276 -242c0 -248 -158 -387 -267 -387c-53 0 -68 23 -63 61zM574 349c-9 28 -30 65 -94 65c-113 0 -210 -128 -210 -259c0 -63 32 -96 79 -96
c65 0 117 38 149 71z" />
    <glyph glyph-name="A" unicode="A" horiz-adv-x="574" 
d="M433 202h-297l-106 -202h-47l357 676h52l119 -676h-45zM156 240h270l-65 394z" />
    <glyph glyph-name="B" unicode="B" horiz-adv-x="554" 
d="M174 676h172c104 0 169 -48 169 -138c0 -101 -54 -172 -133 -187c59 -10 106 -57 106 -140c0 -155 -90 -211 -247 -211h-186zM292 369c139 0 179 81 179 169c0 62 -37 100 -131 100h-133l-47 -269h132zM241 38c145 0 206 51 206 173c0 72 -47 120 -153 120h-141l-52 -293
h140z" />
    <glyph glyph-name="C" unicode="C" horiz-adv-x="563" 
d="M119 245c0 -116 45 -216 166 -216c67 0 134 31 175 91l34 -23c-45 -64 -116 -107 -209 -107c-142 0 -207 100 -207 255c0 281 122 441 316 441c90 0 163 -41 184 -107l-36 -23c-19 62 -81 91 -148 91c-169 0 -275 -143 -275 -402z" />
    <glyph glyph-name="D" unicode="D" horiz-adv-x="624" 
d="M174 676h157c178 0 256 -80 256 -225c0 -332 -150 -451 -365 -451h-167zM224 38c189 0 322 109 322 413c0 113 -59 187 -216 187h-123l-106 -600h123z" />
    <glyph glyph-name="E" unicode="E" horiz-adv-x="512" 
d="M424 38l-7 -38h-362l119 676h358l-6 -38h-319l-47 -268h290l-7 -38h-290l-52 -294h323z" />
    <glyph glyph-name="F" unicode="F" horiz-adv-x="501" 
d="M174 676h359l-7 -38h-319l-51 -289h276l-6 -38h-277l-54 -311h-40z" />
    <glyph glyph-name="G" unicode="G" horiz-adv-x="620" 
d="M358 354h220v-8c0 -139 -61 -356 -290 -356c-146 0 -209 102 -209 255c0 282 123 441 329 441c101 0 157 -43 182 -105l-32 -24c-27 63 -70 90 -150 90c-182 0 -288 -143 -288 -402c0 -120 46 -218 168 -218c177 0 238 156 245 287h-182z" />
    <glyph glyph-name="H" unicode="H" horiz-adv-x="643" 
d="M587 676h40l-120 -676h-40l60 340h-373l-59 -340h-40l119 676h40l-53 -298h373z" />
    <glyph glyph-name="I" unicode="I" horiz-adv-x="231" 
d="M174 676h40l-119 -676h-40z" />
    <glyph glyph-name="J" unicode="J" horiz-adv-x="470" 
d="M39 104c24 -59 63 -75 121 -75c110 0 158 71 183 212l77 435h40l-77 -437c-30 -169 -101 -249 -223 -249c-79 0 -134 37 -154 93z" />
    <glyph glyph-name="K" unicode="K" horiz-adv-x="569" 
d="M138 245l-43 -245h-40l119 676h40l-66 -369l412 369h59l-309 -280l190 -396h-51l-173 370z" />
    <glyph glyph-name="L" unicode="L" horiz-adv-x="452" 
d="M395 38l-7 -38h-333l119 676h40l-113 -638h294z" />
    <glyph glyph-name="M" unicode="M" horiz-adv-x="825" 
d="M694 676h58l-22 -676h-44l24 626l-317 -626h-44l-96 630l-197 -630h-42l215 676h56l94 -619z" />
    <glyph glyph-name="N" unicode="N" horiz-adv-x="656" 
d="M600 676h40l-120 -676h-45l-271 618l-108 -618h-41l120 676h45l271 -617z" />
    <glyph glyph-name="O" unicode="O" horiz-adv-x="640" 
d="M602 439c0 -224 -79 -449 -318 -449c-142 0 -206 100 -206 247c0 223 78 449 316 449c143 0 208 -98 208 -247zM119 237c0 -120 45 -208 165 -208c162 0 277 124 277 410c0 117 -44 208 -167 208c-234 0 -275 -239 -275 -410z" />
    <glyph glyph-name="P" unicode="P" horiz-adv-x="532" 
d="M145 285l-50 -285h-40l119 676h181c122 0 176 -62 176 -158c0 -126 -62 -233 -237 -233h-149zM151 323h145c154 0 194 95 194 195c0 68 -37 120 -138 120h-145z" />
    <glyph glyph-name="Q" unicode="Q" horiz-adv-x="631" 
d="M602 439c0 -141 -31 -282 -114 -368l41 -58l-32 -24l-39 56c-45 -35 -102 -55 -174 -55c-142 0 -206 100 -206 247c0 223 78 449 316 449c143 0 208 -98 208 -247zM284 29c57 0 109 16 151 48l-146 210l31 22l145 -205c60 65 96 175 96 335c0 117 -44 208 -167 208
c-234 0 -275 -239 -275 -410c0 -120 45 -208 165 -208z" />
    <glyph glyph-name="R" unicode="R" horiz-adv-x="566" 
d="M174 676h200c125 0 186 -54 186 -148c0 -127 -82 -203 -214 -207l143 -321h-47l-139 319h-152l-57 -319h-39zM518 528c0 68 -42 110 -148 110h-163l-50 -281h163c148 0 198 70 198 171z" />
    <glyph glyph-name="S" unicode="S" horiz-adv-x="526" 
d="M484 566c-20 53 -70 81 -143 81c-120 0 -183 -81 -183 -172c0 -55 36 -82 96 -103l85 -29c65 -22 124 -56 124 -144c0 -109 -81 -209 -237 -209c-148 0 -181 76 -194 132l38 16c11 -55 39 -109 156 -109c131 0 196 76 196 170c0 61 -46 89 -102 108l-86 29
c-66 23 -117 58 -117 139c0 103 83 211 224 211c97 0 163 -47 180 -98z" />
    <glyph glyph-name="T" unicode="T" horiz-adv-x="504" 
d="M547 676l-6 -38h-197l-113 -638h-40l113 638h-197l6 38h434z" />
    <glyph glyph-name="U" unicode="U" horiz-adv-x="631" 
d="M282 -10c-134 0 -221 66 -188 256l76 430h40l-77 -435c-28 -158 33 -212 149 -212c113 0 196 53 224 212l76 435h40l-76 -430c-33 -191 -135 -256 -264 -256z" />
    <glyph glyph-name="V" unicode="V" horiz-adv-x="563" 
d="M615 676l-349 -676h-50l-110 676h44l96 -632l323 632h46z" />
    <glyph glyph-name="W" unicode="W" horiz-adv-x="923" 
d="M563 676l69 -624l291 624h48l-320 -676h-52l-69 619l-286 -619h-52l-82 676h44l71 -624l289 624h49z" />
    <glyph glyph-name="X" unicode="X" horiz-adv-x="531" 
d="M167 676l124 -294l228 294h52l-255 -326l150 -350h-46l-135 317l-246 -317h-52l274 350l-141 326h47z" />
    <glyph glyph-name="Y" unicode="Y" horiz-adv-x="535" 
d="M207 0l49 277l-152 399h44l133 -357l258 357h51l-294 -399l-49 -277h-40z" />
    <glyph glyph-name="Z" unicode="Z" horiz-adv-x="486" 
d="M510 641l-452 -603h349l-7 -38h-400l6 35l452 603h-325l7 38h376z" />
    <glyph glyph-name="bracketleft" unicode="[" horiz-adv-x="264" 
d="M313 690l-6 -36h-116l-147 -834h116l-6 -36h-154l159 906h154z" />
    <glyph glyph-name="backslash" unicode="\" horiz-adv-x="309" 
d="M116 676h39l77 -676h-36z" />
    <glyph glyph-name="bracketright" unicode="]" horiz-adv-x="264" 
d="M268 690l-160 -906h-154l7 36h116l147 834h-116l6 36h154z" />
    <glyph glyph-name="asciicircum" unicode="^" 
d="M362 698l171 -220l-29 -28l-148 192l-216 -192l-26 28z" />
    <glyph glyph-name="underscore" unicode="_" horiz-adv-x="494" 
d="M395 -31l-6 -36h-380l6 36h380z" />
    <glyph glyph-name="grave" unicode="`" horiz-adv-x="570" 
d="M402 696l49 -147h-37l-57 147h45z" />
    <glyph glyph-name="a" unicode="a" horiz-adv-x="498" 
d="M419 456h38l-80 -456h-38l9 46c-31 -29 -75 -56 -138 -56c-110 0 -158 68 -158 178c0 182 80 298 230 298c64 0 107 -29 128 -63zM92 168c0 -85 31 -141 118 -141c69 0 120 38 148 79l43 243c-12 35 -47 80 -119 80c-124 0 -190 -100 -190 -261z" />
    <glyph glyph-name="b" unicode="b" horiz-adv-x="499" 
d="M150 405c31 35 79 61 137 61c109 0 160 -64 160 -176c0 -161 -66 -300 -231 -300c-63 0 -107 29 -128 63l-17 -53h-30l122 690h38zM407 290c0 79 -32 139 -120 139c-73 0 -122 -47 -146 -82l-43 -240c12 -36 46 -80 118 -80c140 0 191 121 191 263z" />
    <glyph glyph-name="c" unicode="c" horiz-adv-x="439" 
d="M52 169c0 156 71 297 227 297c69 0 120 -29 142 -84l-32 -21c-18 49 -57 68 -110 68c-138 0 -187 -135 -187 -260c0 -79 38 -142 121 -142c52 0 98 19 132 67l32 -21c-39 -53 -95 -83 -164 -83c-106 0 -161 68 -161 179z" />
    <glyph glyph-name="d" unicode="d" horiz-adv-x="498" 
d="M461 690h38l-122 -690h-38l9 46c-31 -29 -75 -56 -138 -56c-110 0 -158 68 -158 178c0 182 80 298 230 298c64 0 107 -29 128 -63zM92 168c0 -85 31 -141 118 -141c69 0 120 38 148 79l43 243c-12 35 -47 80 -119 80c-124 0 -190 -100 -190 -261z" />
    <glyph glyph-name="e" unicode="e" horiz-adv-x="453" 
d="M206 27c46 0 100 18 139 57l17 -31c-28 -32 -91 -63 -156 -63c-126 0 -156 82 -156 164c0 170 77 312 223 312c92 0 142 -59 142 -153c0 -40 -11 -70 -20 -96h-301c-16 -109 6 -190 112 -190zM365 253c2 8 10 23 10 60c0 63 -31 116 -102 116c-99 0 -151 -78 -173 -176
h265z" />
    <glyph glyph-name="f" unicode="f" horiz-adv-x="301" 
d="M338 654h-39c-63 0 -89 -38 -103 -119l-14 -79h141l-6 -36h-141l-112 -636h-38l112 636h-79l4 26l81 10l14 79c16 90 51 155 141 155h46z" />
    <glyph glyph-name="g" unicode="g" horiz-adv-x="494" 
d="M453 456l-88 -498c-15 -88 -89 -159 -189 -159c-112 0 -155 66 -145 125h39c-6 -43 23 -88 106 -88c82 0 137 51 150 124l16 91c-30 -32 -74 -61 -133 -61c-111 0 -157 72 -157 178c0 161 72 298 228 298c70 0 106 -30 125 -65l9 55h39zM92 168c0 -76 30 -141 117 -141
c60 0 111 36 143 80l43 241c-17 41 -53 81 -115 81c-138 0 -188 -131 -188 -261z" />
    <glyph glyph-name="h" unicode="h" horiz-adv-x="503" 
d="M163 690h38l-50 -285c36 35 100 61 154 61c116 0 153 -55 133 -169l-53 -297h-38l53 297c16 92 -5 132 -96 132c-68 0 -123 -32 -162 -72l-63 -357h-38z" />
    <glyph glyph-name="i" unicode="i" horiz-adv-x="200" 
d="M164 591c-18 0 -32 10 -32 31c0 33 21 48 46 48c17 0 32 -10 32 -32c0 -32 -24 -47 -46 -47zM122 456h38l-81 -456h-38z" />
    <glyph glyph-name="j" unicode="j" horiz-adv-x="199" 
d="M162 591c-18 0 -31 10 -31 31c0 33 20 48 45 48c17 0 32 -10 32 -32c0 -32 -23 -47 -46 -47zM-76 -192c73 23 93 59 110 154l87 494h38l-89 -500c-21 -117 -58 -162 -138 -182z" />
    <glyph glyph-name="k" unicode="k" horiz-adv-x="437" 
d="M324 0l-117 248l-99 -83l-29 -165h-38l122 690h38l-83 -469l277 235h58l-214 -182l131 -274h-46z" />
    <glyph glyph-name="l" unicode="l" horiz-adv-x="210" 
d="M199 690l-102 -580c-11 -56 -4 -74 29 -74h34l-6 -36h-30c-66 0 -78 34 -64 113l101 577h38z" />
    <glyph glyph-name="m" unicode="m" horiz-adv-x="777" 
d="M122 456h38l-9 -50c37 35 92 60 139 60c72 0 112 -25 134 -70c45 45 104 70 159 70c109 0 149 -53 129 -169l-52 -297h-38l53 297c17 96 -10 132 -92 132c-61 0 -111 -30 -148 -72l-63 -357h-37l63 357c-14 49 -49 72 -108 72c-61 0 -111 -34 -148 -71l-63 -358h-38z" />
    <glyph glyph-name="n" unicode="n" horiz-adv-x="503" 
d="M122 456h38l-10 -52c37 38 100 62 155 62c116 0 154 -54 133 -169l-53 -297h-38l53 297c16 92 -4 132 -96 132c-68 0 -124 -29 -162 -72l-63 -357h-38z" />
    <glyph glyph-name="o" unicode="o" horiz-adv-x="488" 
d="M280 466c113 0 158 -76 158 -179c0 -131 -62 -297 -231 -297c-108 0 -156 75 -156 181c0 138 69 295 229 295zM207 27c145 0 191 152 191 260c0 84 -33 142 -118 142c-137 0 -189 -144 -189 -258c0 -84 34 -144 116 -144z" />
    <glyph glyph-name="p" unicode="p" horiz-adv-x="500" 
d="M41 -216h-38l119 672h37l-7 -46c28 28 70 56 136 56c112 0 159 -71 159 -179c0 -189 -85 -297 -230 -297c-67 0 -110 27 -129 63zM407 287c0 77 -29 142 -119 142c-68 0 -120 -37 -147 -80l-43 -243c13 -35 46 -79 119 -79c124 0 190 98 190 260z" />
    <glyph glyph-name="q" unicode="q" horiz-adv-x="499" 
d="M348 45c-31 -27 -69 -55 -135 -55c-109 0 -160 62 -160 175c0 156 56 301 231 301c70 0 106 -29 127 -62l17 52h30l-118 -672h-38zM93 165c0 -88 37 -138 120 -138c73 0 122 45 146 79l43 242c-12 36 -44 81 -118 81c-155 0 -191 -143 -191 -264z" />
    <glyph glyph-name="r" unicode="r" horiz-adv-x="315" 
d="M148 384c31 48 73 82 133 82c23 0 44 -2 59 -6l-13 -42c-14 5 -32 8 -46 8c-67 0 -110 -51 -147 -117l-55 -309h-38l81 456h38l-13 -72h1z" />
    <glyph glyph-name="s" unicode="s" horiz-adv-x="410" 
d="M350 380c-17 27 -52 49 -108 49c-91 0 -125 -53 -125 -107c0 -28 19 -55 68 -70l43 -12c78 -23 114 -53 114 -111c0 -85 -72 -139 -178 -139c-89 0 -129 42 -148 76l31 25c18 -31 40 -64 117 -64c79 0 138 35 138 102c0 39 -31 60 -85 75l-43 12c-66 19 -97 57 -97 106
c0 69 49 144 165 144c71 0 120 -32 139 -62z" />
    <glyph glyph-name="t" unicode="t" horiz-adv-x="309" 
d="M123 114c-10 -56 2 -87 52 -87c24 0 50 9 72 21l6 -34c-22 -13 -51 -24 -80 -24c-82 0 -102 48 -88 124l54 306h-85l4 26l87 10l21 118l40 10l-23 -128h134l-6 -36h-134z" />
    <glyph glyph-name="u" unicode="u" horiz-adv-x="503" 
d="M381 0h-38l10 52c-37 -38 -100 -62 -155 -62c-116 0 -154 54 -133 169l53 297h38l-53 -297c-16 -92 4 -132 96 -132c68 0 124 29 162 72l63 357h38z" />
    <glyph glyph-name="v" unicode="v" horiz-adv-x="442" 
d="M451 456l-246 -456h-47l-87 456h42l73 -417l219 417h46z" />
    <glyph glyph-name="w" unicode="w" horiz-adv-x="715" 
d="M420 456l56 -407l198 407h48l-229 -456h-46l-58 404l-201 -404h-45l-69 456h44l54 -407l200 407h48z" />
    <glyph glyph-name="x" unicode="x" horiz-adv-x="410" 
d="M336 0h-45l-89 196l-158 -196h-50l186 229l-106 227h44l90 -195l158 195h51l-188 -228z" />
    <glyph glyph-name="y" unicode="y" horiz-adv-x="455" 
d="M208 88l210 368h49l-392 -672h-47l150 257l-110 415h44z" />
    <glyph glyph-name="z" unicode="z" horiz-adv-x="386" 
d="M371 422l-310 -386h248l-6 -36h-301l6 34l310 386h-230l6 36h283z" />
    <glyph glyph-name="braceleft" unicode="{" horiz-adv-x="267" 
d="M170 334c-10 -57 -27 -89 -58 -99c23 -17 33 -46 23 -98l-39 -219c-13 -77 5 -98 61 -98l-6 -36c-80 0 -110 36 -93 133l39 220c11 63 -3 82 -67 82l7 36c63 0 84 19 95 79l39 223c19 107 55 133 140 133l-7 -36c-58 0 -82 -21 -95 -97z" />
    <glyph glyph-name="bar" unicode="|" horiz-adv-x="252" 
d="M110 -216v906h37v-906h-37z" />
    <glyph glyph-name="braceright" unicode="}" horiz-adv-x="267" 
d="M101 140c10 57 27 89 58 99c-23 17 -33 46 -23 98l39 219c13 77 -5 98 -61 98l6 36c80 0 110 -36 93 -133l-39 -220c-11 -63 3 -82 67 -82l-7 -36c-63 0 -84 -19 -95 -79l-39 -223c-19 -107 -55 -133 -140 -133l7 36c58 0 82 21 95 97z" />
    <glyph glyph-name="asciitilde" unicode="~" 
d="M430 252c-14 18 -34 40 -63 40c-47 0 -97 -83 -166 -83c-37 0 -74 24 -83 40l20 37c13 -16 30 -40 63 -40c55 0 98 83 166 83c44 0 77 -31 87 -43z" />
    <glyph glyph-name="Agrave" unicode="&#xc0;" horiz-adv-x="574" 
d="M352 899l49 -147h-37l-57 147h45zM433 202h-297l-106 -202h-47l357 676h52l119 -676h-45zM156 240h270l-65 394z" />
    <glyph glyph-name="Aacute" unicode="&#xc1;" horiz-adv-x="574" 
d="M510 899l-108 -147h-43l101 147h50zM433 202h-297l-106 -202h-47l357 676h52l119 -676h-45zM156 240h270l-65 394z" />
    <glyph glyph-name="Acircumflex" unicode="&#xc2;" horiz-adv-x="574" 
d="M428 899l71 -147h-38l-58 113l-97 -113h-43l124 147h41zM433 202h-297l-106 -202h-47l357 676h52l119 -676h-45zM156 240h270l-65 394z" />
    <glyph glyph-name="Atilde" unicode="&#xc3;" horiz-adv-x="574" 
d="M501 784c-11 16 -29 26 -47 26c-36 0 -79 -36 -131 -36c-26 0 -49 14 -56 27l15 34c10 -14 25 -24 47 -24c42 0 79 36 131 36c31 0 49 -17 57 -27zM433 202h-297l-106 -202h-47l357 676h52l119 -676h-45zM156 240h270l-65 394z" />
    <glyph glyph-name="Adieresis" unicode="&#xc4;" horiz-adv-x="574" 
d="M308 784c-18 0 -33 12 -33 33c0 33 18 46 43 46c17 0 34 -12 34 -34c0 -32 -22 -45 -44 -45zM470 784c-18 0 -33 12 -33 33c0 33 18 46 43 46c17 0 34 -12 34 -34c0 -32 -21 -45 -44 -45zM433 202h-297l-106 -202h-47l357 676h52l119 -676h-45zM156 240h270l-65 394z" />
    <glyph glyph-name="Amacron" unicode="&#x100;" horiz-adv-x="574" 
d="M520 832l-7 -36h-249l6 36h250zM433 202h-297l-106 -202h-47l357 676h52l119 -676h-45zM156 240h270l-65 394z" />
    <glyph glyph-name="Abreve" unicode="&#x102;" horiz-adv-x="574" 
d="M519 882c-13 -74 -63 -125 -135 -125c-68 0 -110 51 -97 125h34c-9 -51 12 -90 66 -90c55 0 88 39 97 90h35zM433 202h-297l-106 -202h-47l357 676h52l119 -676h-45zM156 240h270l-65 394z" />
    <glyph glyph-name="Aring" unicode="&#xc5;" horiz-adv-x="574" 
d="M296 794c0 63 46 103 109 103c50 0 82 -32 82 -75c0 -63 -46 -104 -110 -104c-48 0 -81 32 -81 76zM332 797c0 -29 18 -48 49 -48c41 0 70 28 70 70c0 29 -18 47 -50 47c-40 0 -69 -27 -69 -69zM433 202h-297l-106 -202h-47l357 676h52l119 -676h-45zM156 240h270
l-65 394z" />
    <glyph glyph-name="Aringacute" unicode="&#x1fa;" horiz-adv-x="574" 
d="M287 795c0 57 41 100 101 102l69 72h49l-79 -76c30 -9 51 -36 51 -73c0 -62 -48 -102 -109 -102c-52 0 -82 33 -82 77zM323 797c0 -29 18 -47 48 -47c42 0 70 27 70 69c0 29 -18 47 -49 47c-40 0 -69 -27 -69 -69zM433 202h-297l-106 -202h-47l357 676h52l119 -676h-45z
M156 240h270l-65 394z" />
    <glyph glyph-name="Aogonek" unicode="&#x104;" horiz-adv-x="574" 
d="M379 -138c0 -20 12 -42 44 -42c21 0 41 11 61 25l-7 -42c-13 -8 -33 -19 -62 -19c-50 0 -77 34 -77 72c0 45 28 75 60 98l67 50l-32 198h-297l-106 -202h-47l357 676h52l119 -676l-87 -66c-33 -26 -45 -45 -45 -72zM156 240h270l-65 394z" />
    <glyph glyph-name="AE" unicode="&#xc6;" horiz-adv-x="908" 
d="M-17 0l563 676h383l-7 -38h-318l-48 -268h291l-7 -38h-290l-52 -294h322l-6 -38h-363l36 201h-284l-169 -201h-51zM493 239l71 399l-330 -399h259z" />
    <glyph glyph-name="AEacute" unicode="&#x1fc;" horiz-adv-x="908" 
d="M842 899l-108 -147h-43l101 147h50zM-17 0l563 676h383l-7 -38h-318l-48 -268h291l-7 -38h-290l-52 -294h322l-6 -38h-363l36 201h-284l-169 -201h-51zM493 239l71 399l-330 -399h259z" />
    <glyph glyph-name="Cacute" unicode="&#x106;" horiz-adv-x="563" 
d="M537 898l-108 -147h-43l101 147h50zM119 245c0 -116 45 -216 166 -216c67 0 134 31 175 91l34 -23c-45 -64 -116 -107 -209 -107c-142 0 -207 100 -207 255c0 281 122 441 316 441c90 0 163 -41 184 -107l-36 -23c-19 62 -81 91 -148 91c-169 0 -275 -143 -275 -402z" />
    <glyph glyph-name="Ccircumflex" unicode="&#x108;" horiz-adv-x="563" 
d="M459 899l71 -147h-38l-58 113l-97 -113h-43l124 147h41zM119 245c0 -116 45 -216 166 -216c67 0 134 31 175 91l34 -23c-45 -64 -116 -107 -209 -107c-142 0 -207 100 -207 255c0 281 122 441 316 441c90 0 163 -41 184 -107l-36 -23c-19 62 -81 91 -148 91
c-169 0 -275 -143 -275 -402z" />
    <glyph glyph-name="Ccaron" unicode="&#x10c;" horiz-adv-x="563" 
d="M391 752l-72 147h39l58 -113l97 113h42l-123 -147h-41zM119 245c0 -116 45 -216 166 -216c67 0 134 31 175 91l34 -23c-45 -64 -116 -107 -209 -107c-142 0 -207 100 -207 255c0 281 122 441 316 441c90 0 163 -41 184 -107l-36 -23c-19 62 -81 91 -148 91
c-169 0 -275 -143 -275 -402z" />
    <glyph glyph-name="Cdotaccent" unicode="&#x10a;" horiz-adv-x="563" 
d="M418 784c-18 0 -33 12 -33 33c0 33 18 46 43 46c17 0 34 -12 34 -34c0 -32 -21 -45 -44 -45zM119 245c0 -116 45 -216 166 -216c67 0 134 31 175 91l34 -23c-45 -64 -116 -107 -209 -107c-142 0 -207 100 -207 255c0 281 122 441 316 441c90 0 163 -41 184 -107l-36 -23
c-19 62 -81 91 -148 91c-169 0 -275 -143 -275 -402z" />
    <glyph glyph-name="Ccedilla" unicode="&#xc7;" horiz-adv-x="563" 
d="M394 686c90 0 163 -41 184 -107l-36 -23c-19 62 -81 91 -148 91c-169 0 -275 -143 -275 -402c0 -116 45 -216 166 -216c67 0 134 31 175 91l34 -23c-43 -61 -110 -103 -197 -107l-30 -54c40 0 71 -18 71 -64s-32 -88 -99 -88c-27 0 -54 11 -71 22l7 38
c17 -15 40 -24 67 -24c36 0 55 22 55 47c0 29 -23 36 -55 36h-26l-1 4l43 84c-123 13 -180 109 -180 254c0 281 122 441 316 441z" />
    <glyph glyph-name="Dcaron" unicode="&#x10e;" horiz-adv-x="624" 
d="M363 752l-72 147h39l58 -113l97 113h42l-123 -147h-41zM174 676h157c178 0 256 -80 256 -225c0 -332 -150 -451 -365 -451h-167zM224 38c189 0 322 109 322 413c0 113 -59 187 -216 187h-123l-106 -600h123z" />
    <glyph glyph-name="Dcroat" unicode="&#x110;" horiz-adv-x="629" 
d="M117 328h-69l7 36h69l55 312h157c178 0 256 -80 256 -225c0 -332 -150 -451 -365 -451h-167zM229 38c189 0 322 109 322 413c0 113 -59 187 -216 187h-123l-49 -274h114l-7 -36h-113l-51 -290h123z" />
    <glyph glyph-name="Eth" unicode="&#xd0;" horiz-adv-x="629" 
d="M117 328h-69l7 36h69l55 312h157c178 0 256 -80 256 -225c0 -332 -150 -451 -365 -451h-167zM229 38c189 0 322 109 322 413c0 113 -59 187 -216 187h-123l-49 -274h114l-7 -36h-113l-51 -290h123z" />
    <glyph glyph-name="Egrave" unicode="&#xc8;" horiz-adv-x="512" 
d="M342 899l49 -147h-37l-57 147h45zM424 38l-7 -38h-362l119 676h358l-6 -38h-319l-47 -268h290l-7 -38h-290l-52 -294h323z" />
    <glyph glyph-name="Eacute" unicode="&#xc9;" horiz-adv-x="512" 
d="M494 899l-108 -147h-43l101 147h50zM424 38l-7 -38h-362l119 676h358l-6 -38h-319l-47 -268h290l-7 -38h-290l-52 -294h323z" />
    <glyph glyph-name="Ecircumflex" unicode="&#xca;" horiz-adv-x="512" 
d="M415 899l71 -147h-38l-58 113l-97 -113h-43l124 147h41zM424 38l-7 -38h-362l119 676h358l-6 -38h-319l-47 -268h290l-7 -38h-290l-52 -294h323z" />
    <glyph glyph-name="Ecaron" unicode="&#x11a;" horiz-adv-x="512" 
d="M347 752l-72 147h39l58 -113l97 113h42l-123 -147h-41zM424 38l-7 -38h-362l119 676h358l-6 -38h-319l-47 -268h290l-7 -38h-290l-52 -294h323z" />
    <glyph glyph-name="Edieresis" unicode="&#xcb;" horiz-adv-x="512" 
d="M293 784c-18 0 -33 12 -33 33c0 33 18 46 43 46c17 0 34 -12 34 -34c0 -32 -22 -45 -44 -45zM455 784c-18 0 -33 12 -33 33c0 33 18 46 43 46c17 0 34 -12 34 -34c0 -32 -21 -45 -44 -45zM424 38l-7 -38h-362l119 676h358l-6 -38h-319l-47 -268h290l-7 -38h-290l-52 -294
h323z" />
    <glyph glyph-name="Emacron" unicode="&#x112;" horiz-adv-x="512" 
d="M507 832l-7 -36h-249l6 36h250zM424 38l-7 -38h-362l119 676h358l-6 -38h-319l-47 -268h290l-7 -38h-290l-52 -294h323z" />
    <glyph glyph-name="Ebreve" unicode="&#x114;" horiz-adv-x="512" 
d="M505 882c-13 -74 -63 -125 -135 -125c-68 0 -110 51 -97 125h34c-9 -51 12 -90 66 -90c55 0 88 39 97 90h35zM424 38l-7 -38h-362l119 676h358l-6 -38h-319l-47 -268h290l-7 -38h-290l-52 -294h323z" />
    <glyph glyph-name="Edotaccent" unicode="&#x116;" horiz-adv-x="512" 
d="M375 784c-18 0 -33 12 -33 33c0 33 18 46 43 46c17 0 34 -12 34 -34c0 -32 -21 -45 -44 -45zM424 38l-7 -38h-362l119 676h358l-6 -38h-319l-47 -268h290l-7 -38h-290l-52 -294h323z" />
    <glyph glyph-name="Eogonek" unicode="&#x118;" horiz-adv-x="512" 
d="M526 638h-319l-47 -268h290l-7 -38h-290l-52 -294h323l-7 -38l-87 -66c-33 -26 -45 -45 -45 -72c0 -20 12 -42 44 -42c21 0 41 11 61 25l-7 -42c-13 -8 -33 -19 -62 -19c-50 0 -77 34 -77 72c0 45 28 75 60 98l62 46h-311l119 676h358z" />
    <glyph glyph-name="Gcircumflex" unicode="&#x11c;" horiz-adv-x="620" 
d="M472 899l71 -147h-38l-58 113l-97 -113h-43l124 147h41zM358 354h220v-8c0 -139 -61 -356 -290 -356c-146 0 -209 102 -209 255c0 282 123 441 329 441c101 0 157 -43 182 -105l-32 -24c-27 63 -70 90 -150 90c-182 0 -288 -143 -288 -402c0 -120 46 -218 168 -218
c177 0 238 156 245 287h-182z" />
    <glyph glyph-name="Gbreve" unicode="&#x11e;" horiz-adv-x="620" 
d="M566 882c-13 -74 -63 -125 -135 -125c-68 0 -110 51 -97 125h34c-9 -51 12 -90 66 -90c55 0 88 39 97 90h35zM358 354h220v-8c0 -139 -61 -356 -290 -356c-146 0 -209 102 -209 255c0 282 123 441 329 441c101 0 157 -43 182 -105l-32 -24c-27 63 -70 90 -150 90
c-182 0 -288 -143 -288 -402c0 -120 46 -218 168 -218c177 0 238 156 245 287h-182z" />
    <glyph glyph-name="Gdotaccent" unicode="&#x120;" horiz-adv-x="620" 
d="M434 784c-18 0 -33 12 -33 33c0 33 18 46 43 46c17 0 34 -12 34 -34c0 -32 -21 -45 -44 -45zM358 354h220v-8c0 -139 -61 -356 -290 -356c-146 0 -209 102 -209 255c0 282 123 441 329 441c101 0 157 -43 182 -105l-32 -24c-27 63 -70 90 -150 90
c-182 0 -288 -143 -288 -402c0 -120 46 -218 168 -218c177 0 238 156 245 287h-182z" />
    <glyph glyph-name="uni0122" unicode="&#x122;" horiz-adv-x="620" 
d="M358 354h220v-8c0 -139 -61 -356 -290 -356c-146 0 -209 102 -209 255c0 282 123 441 329 441c101 0 157 -43 182 -105l-32 -24c-27 63 -70 90 -150 90c-182 0 -288 -143 -288 -402c0 -120 46 -218 168 -218c177 0 238 156 245 287h-182zM243 -216h-33l49 143h50z" />
    <glyph glyph-name="Hcircumflex" unicode="&#x124;" horiz-adv-x="643" 
d="M460 899l71 -147h-38l-58 113l-97 -113h-43l124 147h41zM587 676h40l-120 -676h-40l60 340h-373l-59 -340h-40l119 676h40l-53 -298h373z" />
    <glyph glyph-name="Hbar" unicode="&#x126;" horiz-adv-x="644" 
d="M152 549l23 127h40l-23 -127h373l23 127h40l-23 -127h50l-7 -35h-49l-91 -514h-40l60 340h-372l-60 -340h-40l90 514h-45l6 35h45zM559 514h-373l-24 -136h373z" />
    <glyph glyph-name="Igrave" unicode="&#xcc;" horiz-adv-x="231" 
d="M180 899l49 -147h-37l-57 147h45zM174 676h40l-119 -676h-40z" />
    <glyph glyph-name="Iacute" unicode="&#xcd;" horiz-adv-x="231" 
d="M321 899l-108 -147h-43l101 147h50zM174 676h40l-119 -676h-40z" />
    <glyph glyph-name="Ibreve" unicode="&#x12c;" horiz-adv-x="231" 
d="M343 882c-13 -74 -63 -125 -135 -125c-68 0 -110 51 -97 125h34c-9 -51 12 -90 66 -90c55 0 88 39 97 90h35zM174 676h40l-119 -676h-40z" />
    <glyph glyph-name="Icircumflex" unicode="&#xce;" horiz-adv-x="231" 
d="M249 899l71 -147h-38l-58 113l-97 -113h-43l124 147h41zM174 676h40l-119 -676h-40z" />
    <glyph glyph-name="Itilde" unicode="&#x128;" horiz-adv-x="231" 
d="M320 784c-11 16 -29 26 -47 26c-36 0 -79 -36 -131 -36c-26 0 -49 14 -56 27l15 34c10 -14 25 -24 47 -24c42 0 79 36 131 36c31 0 49 -17 57 -27zM174 676h40l-119 -676h-40z" />
    <glyph glyph-name="Idieresis" unicode="&#xcf;" horiz-adv-x="231" 
d="M129 784c-18 0 -33 12 -33 33c0 33 18 46 43 46c17 0 34 -12 34 -34c0 -32 -22 -45 -44 -45zM291 784c-18 0 -33 12 -33 33c0 33 18 46 43 46c17 0 34 -12 34 -34c0 -32 -21 -45 -44 -45zM174 676h40l-119 -676h-40z" />
    <glyph glyph-name="Imacron" unicode="&#x12a;" horiz-adv-x="231" 
d="M344 832l-7 -36h-249l6 36h250zM174 676h40l-119 -676h-40z" />
    <glyph glyph-name="Idotaccent" unicode="&#x130;" horiz-adv-x="231" 
d="M213 784c-18 0 -33 12 -33 33c0 33 18 46 43 46c17 0 34 -12 34 -34c0 -32 -21 -45 -44 -45zM174 676h40l-119 -676h-40z" />
    <glyph glyph-name="Iogonek" unicode="&#x12e;" horiz-adv-x="231" 
d="M8 -66c-33 -26 -45 -45 -45 -72c0 -20 12 -42 44 -42c21 0 41 11 61 25l-7 -42c-13 -8 -33 -19 -62 -19c-50 0 -77 34 -77 72c0 45 28 75 60 98l75 56l117 666h40l-119 -676z" />
    <glyph glyph-name="Jcircumflex" unicode="&#x134;" horiz-adv-x="470" 
d="M497 899l71 -147h-38l-58 113l-97 -113h-43l124 147h41zM39 104c24 -59 63 -75 121 -75c110 0 158 71 183 212l77 435h40l-77 -437c-30 -169 -101 -249 -223 -249c-79 0 -134 37 -154 93z" />
    <glyph glyph-name="uni0136" unicode="&#x136;" horiz-adv-x="569" 
d="M138 245l-43 -245h-40l119 676h40l-66 -369l412 369h59l-309 -280l190 -396h-51l-173 370zM180 -216h-33l49 143h50z" />
    <glyph glyph-name="Lacute" unicode="&#x139;" horiz-adv-x="452" 
d="M322 899l-108 -147h-43l101 147h50zM395 38l-7 -38h-333l119 676h40l-113 -638h294z" />
    <glyph glyph-name="Lcaron" unicode="&#x13d;" horiz-adv-x="452" 
d="M395 38l-7 -38h-333l119 676h40l-113 -638h294zM426 533h-33l49 143h50z" />
    <glyph glyph-name="uni013B" unicode="&#x13b;" horiz-adv-x="452" 
d="M395 38l-7 -38h-333l119 676h40l-113 -638h294zM169 -216h-33l49 143h50z" />
    <glyph glyph-name="Lslash" unicode="&#x141;" horiz-adv-x="465" 
d="M409 38l-7 -38h-333l47 270l-85 -35l7 40l85 34l65 367h40l-62 -350l97 39l-7 -39l-97 -40l-44 -248h294z" />
    <glyph glyph-name="Ldot" unicode="&#x13f;" horiz-adv-x="452" 
d="M395 38l-7 -38h-333l119 676h40l-113 -638h294zM349 315c-20 0 -36 17 -36 37c0 28 21 47 47 47c22 0 37 -17 37 -37c0 -28 -20 -47 -48 -47z" />
    <glyph glyph-name="Nacute" unicode="&#x143;" horiz-adv-x="656" 
d="M547 899l-108 -147h-43l101 147h50zM600 676h40l-120 -676h-45l-271 618l-108 -618h-41l120 676h45l271 -617z" />
    <glyph glyph-name="Ncaron" unicode="&#x147;" horiz-adv-x="656" 
d="M399 752l-72 147h39l58 -113l97 113h42l-123 -147h-41zM600 676h40l-120 -676h-45l-271 618l-108 -618h-41l120 676h45l271 -617z" />
    <glyph glyph-name="Ntilde" unicode="&#xd1;" horiz-adv-x="656" 
d="M540 784c-11 16 -29 26 -47 26c-36 0 -79 -36 -131 -36c-26 0 -49 14 -56 27l15 34c10 -14 25 -24 47 -24c42 0 79 36 131 36c31 0 49 -17 57 -27zM600 676h40l-120 -676h-45l-271 618l-108 -618h-41l120 676h45l271 -617z" />
    <glyph glyph-name="uni0145" unicode="&#x145;" horiz-adv-x="656" 
d="M600 676h40l-120 -676h-45l-271 618l-108 -618h-41l120 676h45l271 -617zM238 -216h-33l49 143h50z" />
    <glyph glyph-name="Ograve" unicode="&#xd2;" horiz-adv-x="640" 
d="M387 898l49 -147h-37l-57 147h45zM602 439c0 -224 -79 -449 -318 -449c-142 0 -206 100 -206 247c0 223 78 449 316 449c143 0 208 -98 208 -247zM119 237c0 -120 45 -208 165 -208c162 0 277 124 277 410c0 117 -44 208 -167 208c-234 0 -275 -239 -275 -410z" />
    <glyph glyph-name="Oacute" unicode="&#xd3;" horiz-adv-x="640" 
d="M542 899l-108 -147h-43l101 147h50zM602 439c0 -224 -79 -449 -318 -449c-142 0 -206 100 -206 247c0 223 78 449 316 449c143 0 208 -98 208 -247zM119 237c0 -120 45 -208 165 -208c162 0 277 124 277 410c0 117 -44 208 -167 208c-234 0 -275 -239 -275 -410z" />
    <glyph glyph-name="Ocircumflex" unicode="&#xd4;" horiz-adv-x="640" 
d="M459 899l71 -147h-38l-58 113l-97 -113h-43l124 147h41zM602 439c0 -224 -79 -449 -318 -449c-142 0 -206 100 -206 247c0 223 78 449 316 449c143 0 208 -98 208 -247zM119 237c0 -120 45 -208 165 -208c162 0 277 124 277 410c0 117 -44 208 -167 208
c-234 0 -275 -239 -275 -410z" />
    <glyph glyph-name="Otilde" unicode="&#xd5;" horiz-adv-x="640" 
d="M532 784c-11 16 -29 26 -47 26c-36 0 -79 -36 -131 -36c-26 0 -49 14 -56 27l15 34c10 -14 25 -24 47 -24c42 0 79 36 131 36c31 0 49 -17 57 -27zM602 439c0 -224 -79 -449 -318 -449c-142 0 -206 100 -206 247c0 223 78 449 316 449c143 0 208 -98 208 -247zM119 237
c0 -120 45 -208 165 -208c162 0 277 124 277 410c0 117 -44 208 -167 208c-234 0 -275 -239 -275 -410z" />
    <glyph glyph-name="Odieresis" unicode="&#xd6;" horiz-adv-x="640" 
d="M338 784c-18 0 -33 12 -33 33c0 33 18 46 43 46c17 0 34 -12 34 -34c0 -32 -22 -45 -44 -45zM500 784c-18 0 -33 12 -33 33c0 33 18 46 43 46c17 0 34 -12 34 -34c0 -32 -21 -45 -44 -45zM602 439c0 -224 -79 -449 -318 -449c-142 0 -206 100 -206 247
c0 223 78 449 316 449c143 0 208 -98 208 -247zM119 237c0 -120 45 -208 165 -208c162 0 277 124 277 410c0 117 -44 208 -167 208c-234 0 -275 -239 -275 -410z" />
    <glyph glyph-name="Omacron" unicode="&#x14c;" horiz-adv-x="640" 
d="M552 832l-7 -36h-249l6 36h250zM602 439c0 -224 -79 -449 -318 -449c-142 0 -206 100 -206 247c0 223 78 449 316 449c143 0 208 -98 208 -247zM119 237c0 -120 45 -208 165 -208c162 0 277 124 277 410c0 117 -44 208 -167 208c-234 0 -275 -239 -275 -410z" />
    <glyph glyph-name="Obreve" unicode="&#x14e;" horiz-adv-x="640" 
d="M552 882c-13 -74 -63 -125 -135 -125c-68 0 -110 51 -97 125h34c-9 -51 12 -90 66 -90c55 0 88 39 97 90h35zM602 439c0 -224 -79 -449 -318 -449c-142 0 -206 100 -206 247c0 223 78 449 316 449c143 0 208 -98 208 -247zM119 237c0 -120 45 -208 165 -208
c162 0 277 124 277 410c0 117 -44 208 -167 208c-234 0 -275 -239 -275 -410z" />
    <glyph glyph-name="Ohungarumlaut" unicode="&#x150;" horiz-adv-x="640" 
d="M474 899l-109 -147h-40l101 147h48zM599 899l-109 -147h-40l100 147h49zM602 439c0 -224 -79 -449 -318 -449c-142 0 -206 100 -206 247c0 223 78 449 316 449c143 0 208 -98 208 -247zM119 237c0 -120 45 -208 165 -208c162 0 277 124 277 410c0 117 -44 208 -167 208
c-234 0 -275 -239 -275 -410z" />
    <glyph glyph-name="Oslash" unicode="&#xd8;" horiz-adv-x="641" 
d="M668 676l-90 -101c16 -38 24 -84 24 -136c0 -224 -79 -449 -318 -449c-75 0 -128 28 -162 75l-58 -65h-46l86 97c-17 39 -26 86 -26 140c0 223 78 449 316 449c77 0 132 -28 165 -78l61 68h48zM119 237c0 -39 5 -75 16 -106l396 445c-26 44 -70 71 -137 71
c-234 0 -275 -239 -275 -410zM561 439c0 37 -4 71 -14 101l-396 -443c25 -42 68 -68 133 -68c162 0 277 124 277 410z" />
    <glyph glyph-name="Oslashacute" unicode="&#x1fe;" horiz-adv-x="641" 
d="M542 899l-108 -147h-43l101 147h50zM668 676l-90 -101c16 -38 24 -84 24 -136c0 -224 -79 -449 -318 -449c-75 0 -128 28 -162 75l-58 -65h-46l86 97c-17 39 -26 86 -26 140c0 223 78 449 316 449c77 0 132 -28 165 -78l61 68h48zM119 237c0 -39 5 -75 16 -106l396 445
c-26 44 -70 71 -137 71c-234 0 -275 -239 -275 -410zM561 439c0 37 -4 71 -14 101l-396 -443c25 -42 68 -68 133 -68c162 0 277 124 277 410z" />
    <glyph glyph-name="OE" unicode="&#x152;" horiz-adv-x="834" 
d="M746 38l-7 -38h-361c-28 -6 -66 -10 -101 -10c-142 0 -199 105 -199 245c0 201 65 451 323 451c33 0 69 -4 98 -10h356l-7 -38h-318l-48 -268h290l-7 -38h-289l-52 -294h322zM284 29c33 0 69 3 100 10l105 595c-30 9 -62 13 -95 13c-222 0 -274 -228 -274 -411
c0 -119 45 -207 164 -207z" />
    <glyph glyph-name="Racute" unicode="&#x154;" horiz-adv-x="566" 
d="M484 898l-108 -147h-43l101 147h50zM174 676h200c125 0 186 -54 186 -148c0 -127 -82 -203 -214 -207l143 -321h-47l-139 319h-152l-57 -319h-39zM518 528c0 68 -42 110 -148 110h-163l-50 -281h163c148 0 198 70 198 171z" />
    <glyph glyph-name="Rcaron" unicode="&#x158;" horiz-adv-x="566" 
d="M334 752l-72 147h39l58 -113l97 113h42l-123 -147h-41zM174 676h200c125 0 186 -54 186 -148c0 -127 -82 -203 -214 -207l143 -321h-47l-139 319h-152l-57 -319h-39zM518 528c0 68 -42 110 -148 110h-163l-50 -281h163c148 0 198 70 198 171z" />
    <glyph glyph-name="uni0156" unicode="&#x156;" horiz-adv-x="566" 
d="M174 676h200c125 0 186 -54 186 -148c0 -127 -82 -203 -214 -207l143 -321h-47l-139 319h-152l-57 -319h-39zM518 528c0 68 -42 110 -148 110h-163l-50 -281h163c148 0 198 70 198 171zM175 -216h-33l49 143h50z" />
    <glyph glyph-name="Sacute" unicode="&#x15a;" horiz-adv-x="526" 
d="M480 899l-108 -147h-43l101 147h50zM484 566c-20 53 -70 81 -143 81c-120 0 -183 -81 -183 -172c0 -55 36 -82 96 -103l85 -29c65 -22 124 -56 124 -144c0 -109 -81 -209 -237 -209c-148 0 -181 76 -194 132l38 16c11 -55 39 -109 156 -109c131 0 196 76 196 170
c0 61 -46 89 -102 108l-86 29c-66 23 -117 58 -117 139c0 103 83 211 224 211c97 0 163 -47 180 -98z" />
    <glyph glyph-name="Scircumflex" unicode="&#x15c;" horiz-adv-x="526" 
d="M403 899l71 -147h-38l-58 113l-97 -113h-43l124 147h41zM484 566c-20 53 -70 81 -143 81c-120 0 -183 -81 -183 -172c0 -55 36 -82 96 -103l85 -29c65 -22 124 -56 124 -144c0 -109 -81 -209 -237 -209c-148 0 -181 76 -194 132l38 16c11 -55 39 -109 156 -109
c131 0 196 76 196 170c0 61 -46 89 -102 108l-86 29c-66 23 -117 58 -117 139c0 103 83 211 224 211c97 0 163 -47 180 -98z" />
    <glyph glyph-name="Scaron" unicode="&#x160;" horiz-adv-x="526" 
d="M335 752l-72 147h39l58 -113l97 113h42l-123 -147h-41zM484 566c-20 53 -70 81 -143 81c-120 0 -183 -81 -183 -172c0 -55 36 -82 96 -103l85 -29c65 -22 124 -56 124 -144c0 -109 -81 -209 -237 -209c-148 0 -181 76 -194 132l38 16c11 -55 39 -109 156 -109
c131 0 196 76 196 170c0 61 -46 89 -102 108l-86 29c-66 23 -117 58 -117 139c0 103 83 211 224 211c97 0 163 -47 180 -98z" />
    <glyph glyph-name="Scedilla" unicode="&#x15e;" horiz-adv-x="526" 
d="M341 647c-120 0 -183 -81 -183 -172c0 -55 36 -82 96 -103l85 -29c65 -22 124 -56 124 -144c0 -107 -78 -205 -228 -209l-30 -54c40 0 71 -18 71 -64s-32 -88 -99 -88c-27 0 -54 11 -71 22l7 38c17 -15 40 -24 67 -24c36 0 55 22 55 47c0 29 -23 36 -55 36h-26l-1 4
l43 84c-123 10 -152 79 -164 131l38 16c11 -55 39 -109 156 -109c131 0 196 76 196 170c0 61 -46 89 -102 108l-86 29c-66 23 -117 58 -117 139c0 103 83 211 224 211c97 0 163 -47 180 -98l-37 -22c-20 53 -70 81 -143 81z" />
    <glyph glyph-name="uni0218" unicode="&#x218;" horiz-adv-x="526" 
d="M484 566c-20 53 -70 81 -143 81c-120 0 -183 -81 -183 -172c0 -55 36 -82 96 -103l85 -29c65 -22 124 -56 124 -144c0 -109 -81 -209 -237 -209c-148 0 -181 76 -194 132l38 16c11 -55 39 -109 156 -109c131 0 196 76 196 170c0 61 -46 89 -102 108l-86 29
c-66 23 -117 58 -117 139c0 103 83 211 224 211c97 0 163 -47 180 -98zM173 -216h-33l49 143h50z" />
    <glyph glyph-name="Tcaron" unicode="&#x164;" horiz-adv-x="504" 
d="M327 752l-72 147h39l58 -113l97 113h42l-123 -147h-41zM547 676l-6 -38h-197l-113 -638h-40l113 638h-197l6 38h434z" />
    <glyph glyph-name="uni021A" unicode="&#x21a;" horiz-adv-x="504" 
d="M547 676l-6 -38h-197l-113 -638h-40l113 638h-197l6 38h434zM159 -216h-33l49 143h50z" />
    <glyph glyph-name="Tbar" unicode="&#x166;" horiz-adv-x="504" 
d="M255 364l49 274h-197l6 38h434l-6 -38h-197l-49 -274h91l-6 -36h-91l-58 -328h-40l58 328h-91l6 36h91z" />
    <glyph glyph-name="Thorn" unicode="&#xde;" horiz-adv-x="533" 
d="M120 147l-25 -147h-40l119 677h39l-25 -139h147c119 0 172 -64 172 -153c0 -135 -61 -238 -241 -238h-146zM127 185h145c153 0 193 95 193 195c0 68 -36 120 -137 120h-145z" />
    <glyph glyph-name="Ugrave" unicode="&#xd9;" horiz-adv-x="631" 
d="M384 898l49 -147h-37l-57 147h45zM282 -10c-134 0 -221 66 -188 256l76 430h40l-77 -435c-28 -158 33 -212 149 -212c113 0 196 53 224 212l76 435h40l-76 -430c-33 -191 -135 -256 -264 -256z" />
    <glyph glyph-name="Uacute" unicode="&#xda;" horiz-adv-x="631" 
d="M537 899l-108 -147h-43l101 147h50zM282 -10c-134 0 -221 66 -188 256l76 430h40l-77 -435c-28 -158 33 -212 149 -212c113 0 196 53 224 212l76 435h40l-76 -430c-33 -191 -135 -256 -264 -256z" />
    <glyph glyph-name="Ucircumflex" unicode="&#xdb;" horiz-adv-x="631" 
d="M455 899l71 -147h-38l-58 113l-97 -113h-43l124 147h41zM282 -10c-134 0 -221 66 -188 256l76 430h40l-77 -435c-28 -158 33 -212 149 -212c113 0 196 53 224 212l76 435h40l-76 -430c-33 -191 -135 -256 -264 -256z" />
    <glyph glyph-name="Utilde" unicode="&#x168;" horiz-adv-x="631" 
d="M527 784c-11 16 -29 26 -47 26c-36 0 -79 -36 -131 -36c-26 0 -49 14 -56 27l15 34c10 -14 25 -24 47 -24c42 0 79 36 131 36c31 0 49 -17 57 -27zM282 -10c-134 0 -221 66 -188 256l76 430h40l-77 -435c-28 -158 33 -212 149 -212c113 0 196 53 224 212l76 435h40
l-76 -430c-33 -191 -135 -256 -264 -256z" />
    <glyph glyph-name="Udieresis" unicode="&#xdc;" horiz-adv-x="631" 
d="M334 784c-18 0 -33 12 -33 33c0 33 18 46 43 46c17 0 34 -12 34 -34c0 -32 -22 -45 -44 -45zM496 784c-18 0 -33 12 -33 33c0 33 18 46 43 46c17 0 34 -12 34 -34c0 -32 -21 -45 -44 -45zM282 -10c-134 0 -221 66 -188 256l76 430h40l-77 -435c-28 -158 33 -212 149 -212
c113 0 196 53 224 212l76 435h40l-76 -430c-33 -191 -135 -256 -264 -256z" />
    <glyph glyph-name="Umacron" unicode="&#x16a;" horiz-adv-x="631" 
d="M547 832l-7 -36h-249l6 36h250zM282 -10c-134 0 -221 66 -188 256l76 430h40l-77 -435c-28 -158 33 -212 149 -212c113 0 196 53 224 212l76 435h40l-76 -430c-33 -191 -135 -256 -264 -256z" />
    <glyph glyph-name="Ubreve" unicode="&#x16c;" horiz-adv-x="631" 
d="M545 882c-13 -74 -63 -125 -135 -125c-68 0 -110 51 -97 125h34c-9 -51 12 -90 66 -90c55 0 88 39 97 90h35zM282 -10c-134 0 -221 66 -188 256l76 430h40l-77 -435c-28 -158 33 -212 149 -212c113 0 196 53 224 212l76 435h40l-76 -430c-33 -191 -135 -256 -264 -256z
" />
    <glyph glyph-name="Uring" unicode="&#x16e;" horiz-adv-x="631" 
d="M326 814c0 63 46 103 109 103c50 0 82 -32 82 -75c0 -63 -46 -104 -110 -104c-48 0 -81 32 -81 76zM362 817c0 -29 18 -48 49 -48c41 0 70 28 70 70c0 29 -18 47 -50 47c-40 0 -69 -27 -69 -69zM282 -10c-134 0 -221 66 -188 256l76 430h40l-77 -435
c-28 -158 33 -212 149 -212c113 0 196 53 224 212l76 435h40l-76 -430c-33 -191 -135 -256 -264 -256z" />
    <glyph glyph-name="Uhungarumlaut" unicode="&#x170;" horiz-adv-x="631" 
d="M470 899l-109 -147h-40l101 147h48zM595 899l-109 -147h-40l100 147h49zM282 -10c-134 0 -221 66 -188 256l76 430h40l-77 -435c-28 -158 33 -212 149 -212c113 0 196 53 224 212l76 435h40l-76 -430c-33 -191 -135 -256 -264 -256z" />
    <glyph glyph-name="Uogonek" unicode="&#x172;" horiz-adv-x="631" 
d="M582 676h40l-76 -430c-30 -174 -117 -243 -230 -254l-76 -58c-33 -26 -45 -45 -45 -72c0 -20 12 -42 44 -42c21 0 41 11 61 25l-7 -42c-13 -8 -33 -19 -62 -19c-50 0 -77 34 -77 72c0 45 28 75 60 98l49 36c-123 7 -200 75 -169 256l76 430h40l-77 -435
c-28 -158 33 -212 149 -212c113 0 196 53 224 212z" />
    <glyph glyph-name="Wacute" unicode="&#x1e82;" horiz-adv-x="923" 
d="M674 898l-108 -147h-43l101 147h50zM563 676l69 -624l291 624h48l-320 -676h-52l-69 619l-286 -619h-52l-82 676h44l71 -624l289 624h49z" />
    <glyph glyph-name="Wcircumflex" unicode="&#x174;" horiz-adv-x="923" 
d="M602 899l71 -147h-38l-58 113l-97 -113h-43l124 147h41zM563 676l69 -624l291 624h48l-320 -676h-52l-69 619l-286 -619h-52l-82 676h44l71 -624l289 624h49z" />
    <glyph glyph-name="Wdieresis" unicode="&#x1e84;" horiz-adv-x="923" 
d="M479 784c-18 0 -33 12 -33 33c0 33 18 46 43 46c17 0 34 -12 34 -34c0 -32 -22 -45 -44 -45zM641 784c-18 0 -33 12 -33 33c0 33 18 46 43 46c17 0 34 -12 34 -34c0 -32 -21 -45 -44 -45zM563 676l69 -624l291 624h48l-320 -676h-52l-69 619l-286 -619h-52l-82 676h44
l71 -624l289 624h49z" />
    <glyph glyph-name="Wgrave" unicode="&#x1e80;" horiz-adv-x="923" 
d="M524 899l49 -147h-37l-57 147h45zM563 676l69 -624l291 624h48l-320 -676h-52l-69 619l-286 -619h-52l-82 676h44l71 -624l289 624h49z" />
    <glyph glyph-name="Yacute" unicode="&#xdd;" horiz-adv-x="535" 
d="M486 916l-108 -147h-43l101 147h50zM207 0l49 277l-152 399h44l133 -357l258 357h51l-294 -399l-49 -277h-40z" />
    <glyph glyph-name="Ycircumflex" unicode="&#x176;" horiz-adv-x="535" 
d="M403 899l71 -147h-38l-58 113l-97 -113h-43l124 147h41zM207 0l49 277l-152 399h44l133 -357l258 357h51l-294 -399l-49 -277h-40z" />
    <glyph glyph-name="Ydieresis" unicode="&#x178;" horiz-adv-x="535" 
d="M280 784c-18 0 -33 12 -33 33c0 33 18 46 43 46c17 0 34 -12 34 -34c0 -32 -22 -45 -44 -45zM442 784c-18 0 -33 12 -33 33c0 33 18 46 43 46c17 0 34 -12 34 -34c0 -32 -21 -45 -44 -45zM207 0l49 277l-152 399h44l133 -357l258 357h51l-294 -399l-49 -277h-40z" />
    <glyph glyph-name="Ygrave" unicode="&#x1ef2;" horiz-adv-x="535" 
d="M322 899l49 -147h-37l-57 147h45zM207 0l49 277l-152 399h44l133 -357l258 357h51l-294 -399l-49 -277h-40z" />
    <glyph glyph-name="Zacute" unicode="&#x179;" horiz-adv-x="486" 
d="M461 916l-108 -147h-43l101 147h50zM510 641l-452 -603h349l-7 -38h-400l6 35l452 603h-325l7 38h376z" />
    <glyph glyph-name="Zcaron" unicode="&#x17d;" horiz-adv-x="486" 
d="M319 752l-72 147h39l58 -113l97 113h42l-123 -147h-41zM510 641l-452 -603h349l-7 -38h-400l6 35l452 603h-325l7 38h376z" />
    <glyph glyph-name="Zdotaccent" unicode="&#x17b;" horiz-adv-x="486" 
d="M346 784c-18 0 -33 12 -33 33c0 33 18 46 43 46c17 0 34 -12 34 -34c0 -32 -21 -45 -44 -45zM510 641l-452 -603h349l-7 -38h-400l6 35l452 603h-325l7 38h376z" />
    <glyph glyph-name="agrave" unicode="&#xe0;" horiz-adv-x="498" 
d="M287 696l49 -147h-37l-57 147h45zM419 456h38l-80 -456h-38l9 46c-31 -29 -75 -56 -138 -56c-110 0 -158 68 -158 178c0 182 80 298 230 298c64 0 107 -29 128 -63zM92 168c0 -85 31 -141 118 -141c69 0 120 38 148 79l43 243c-12 35 -47 80 -119 80
c-124 0 -190 -100 -190 -261z" />
    <glyph glyph-name="aacute" unicode="&#xe1;" horiz-adv-x="498" 
d="M428 696l-108 -147h-43l101 147h50zM419 456h38l-80 -456h-38l9 46c-31 -29 -75 -56 -138 -56c-110 0 -158 68 -158 178c0 182 80 298 230 298c64 0 107 -29 128 -63zM92 168c0 -85 31 -141 118 -141c69 0 120 38 148 79l43 243c-12 35 -47 80 -119 80
c-124 0 -190 -100 -190 -261z" />
    <glyph glyph-name="acircumflex" unicode="&#xe2;" horiz-adv-x="498" 
d="M356 696l71 -147h-38l-58 113l-97 -113h-43l124 147h41zM419 456h38l-80 -456h-38l9 46c-31 -29 -75 -56 -138 -56c-110 0 -158 68 -158 178c0 182 80 298 230 298c64 0 107 -29 128 -63zM92 168c0 -85 31 -141 118 -141c69 0 120 38 148 79l43 243
c-12 35 -47 80 -119 80c-124 0 -190 -100 -190 -261z" />
    <glyph glyph-name="atilde" unicode="&#xe3;" horiz-adv-x="498" 
d="M427 581c-11 16 -29 26 -47 26c-36 0 -79 -36 -131 -36c-26 0 -49 14 -56 27l15 34c10 -14 25 -24 47 -24c42 0 79 36 131 36c31 0 49 -17 57 -27zM419 456h38l-80 -456h-38l9 46c-31 -29 -75 -56 -138 -56c-110 0 -158 68 -158 178c0 182 80 298 230 298
c64 0 107 -29 128 -63zM92 168c0 -85 31 -141 118 -141c69 0 120 38 148 79l43 243c-12 35 -47 80 -119 80c-124 0 -190 -100 -190 -261z" />
    <glyph glyph-name="adieresis" unicode="&#xe4;" horiz-adv-x="498" 
d="M236 581c-18 0 -33 12 -33 33c0 33 18 46 43 46c17 0 34 -12 34 -34c0 -32 -22 -45 -44 -45zM398 581c-18 0 -33 12 -33 33c0 33 18 46 43 46c17 0 34 -12 34 -34c0 -32 -21 -45 -44 -45zM419 456h38l-80 -456h-38l9 46c-31 -29 -75 -56 -138 -56
c-110 0 -158 68 -158 178c0 182 80 298 230 298c64 0 107 -29 128 -63zM92 168c0 -85 31 -141 118 -141c69 0 120 38 148 79l43 243c-12 35 -47 80 -119 80c-124 0 -190 -100 -190 -261z" />
    <glyph glyph-name="amacron" unicode="&#x101;" horiz-adv-x="498" 
d="M451 629l-7 -36h-249l6 36h250zM419 456h38l-80 -456h-38l9 46c-31 -29 -75 -56 -138 -56c-110 0 -158 68 -158 178c0 182 80 298 230 298c64 0 107 -29 128 -63zM92 168c0 -85 31 -141 118 -141c69 0 120 38 148 79l43 243c-12 35 -47 80 -119 80
c-124 0 -190 -100 -190 -261z" />
    <glyph glyph-name="abreve" unicode="&#x103;" horiz-adv-x="498" 
d="M450 679c-13 -74 -63 -125 -135 -125c-68 0 -110 51 -97 125h34c-9 -51 12 -90 66 -90c55 0 88 39 97 90h35zM419 456h38l-80 -456h-38l9 46c-31 -29 -75 -56 -138 -56c-110 0 -158 68 -158 178c0 182 80 298 230 298c64 0 107 -29 128 -63zM92 168
c0 -85 31 -141 118 -141c69 0 120 38 148 79l43 243c-12 35 -47 80 -119 80c-124 0 -190 -100 -190 -261z" />
    <glyph glyph-name="aring" unicode="&#xe5;" horiz-adv-x="498" 
d="M226 611c0 63 46 103 109 103c50 0 82 -32 82 -75c0 -63 -46 -104 -110 -104c-48 0 -81 32 -81 76zM262 614c0 -29 18 -48 49 -48c41 0 70 28 70 70c0 29 -18 47 -50 47c-40 0 -69 -27 -69 -69zM419 456h38l-80 -456h-38l9 46c-31 -29 -75 -56 -138 -56
c-110 0 -158 68 -158 178c0 182 80 298 230 298c64 0 107 -29 128 -63zM92 168c0 -85 31 -141 118 -141c69 0 120 38 148 79l43 243c-12 35 -47 80 -119 80c-124 0 -190 -100 -190 -261z" />
    <glyph glyph-name="aringacute" unicode="&#x1fb;" horiz-adv-x="498" 
d="M220 602c0 57 38 100 98 102l67 69h52l-77 -73c30 -9 51 -36 51 -73c0 -62 -48 -102 -109 -102c-52 0 -82 33 -82 77zM256 604c0 -29 18 -47 48 -47c42 0 70 27 70 69c0 29 -18 47 -49 47c-40 0 -69 -27 -69 -69zM419 456h38l-80 -456h-38l9 46c-31 -29 -75 -56 -138 -56
c-110 0 -158 68 -158 178c0 182 80 298 230 298c64 0 107 -29 128 -63zM92 168c0 -85 31 -141 118 -141c69 0 120 38 148 79l43 243c-12 35 -47 80 -119 80c-124 0 -190 -100 -190 -261z" />
    <glyph glyph-name="aogonek" unicode="&#x105;" horiz-adv-x="498" 
d="M419 456h38l-80 -456h-9l-87 -66c-33 -26 -45 -45 -45 -72c0 -20 12 -42 44 -42c21 0 41 11 61 25l-7 -42c-13 -8 -33 -19 -62 -19c-50 0 -77 34 -77 72c0 45 28 75 60 98l78 58l8 -3l7 37c-31 -29 -75 -56 -138 -56c-110 0 -158 68 -158 178c0 182 80 298 230 298
c64 0 107 -29 128 -63zM358 106l43 243c-12 35 -47 80 -119 80c-124 0 -190 -100 -190 -261c0 -85 31 -141 118 -141c69 0 120 38 148 79z" />
    <glyph glyph-name="ae" unicode="&#xe6;" horiz-adv-x="710" 
d="M458 27c40 0 99 19 139 58l18 -32c-28 -32 -91 -63 -156 -63c-81 0 -128 30 -145 87c-45 -52 -114 -87 -190 -87s-123 38 -123 100c0 109 88 149 216 166l101 13l11 60c11 68 -10 100 -92 100c-75 0 -117 -26 -124 -68l-6 -34h-37c0 12 1 20 3 34c11 59 58 105 165 105
c83 0 126 -27 129 -83c34 53 85 83 159 83c94 0 142 -71 142 -149c0 -40 -11 -74 -20 -100h-301c-19 -112 6 -190 111 -190zM618 253c2 8 10 23 10 60c0 63 -32 116 -102 116c-99 0 -149 -76 -172 -176h264zM41 96c0 -42 26 -69 83 -69c66 0 126 35 164 73l24 133l-98 -13
c-105 -14 -173 -44 -173 -124z" />
    <glyph glyph-name="aeacute" unicode="&#x1fd;" horiz-adv-x="710" 
d="M563 696l-108 -147h-43l101 147h50zM458 27c40 0 99 19 139 58l18 -32c-28 -32 -91 -63 -156 -63c-81 0 -128 30 -145 87c-45 -52 -114 -87 -190 -87s-123 38 -123 100c0 109 88 149 216 166l101 13l11 60c11 68 -10 100 -92 100c-75 0 -117 -26 -124 -68l-6 -34h-37
c0 12 1 20 3 34c11 59 58 105 165 105c83 0 126 -27 129 -83c34 53 85 83 159 83c94 0 142 -71 142 -149c0 -40 -11 -74 -20 -100h-301c-19 -112 6 -190 111 -190zM618 253c2 8 10 23 10 60c0 63 -32 116 -102 116c-99 0 -149 -76 -172 -176h264zM41 96c0 -42 26 -69 83 -69
c66 0 126 35 164 73l24 133l-98 -13c-105 -14 -173 -44 -173 -124z" />
    <glyph glyph-name="cacute" unicode="&#x107;" horiz-adv-x="439" 
d="M399 696l-108 -147h-43l101 147h50zM52 169c0 156 71 297 227 297c69 0 120 -29 142 -84l-32 -21c-18 49 -57 68 -110 68c-138 0 -187 -135 -187 -260c0 -79 38 -142 121 -142c52 0 98 19 132 67l32 -21c-39 -53 -95 -83 -164 -83c-106 0 -161 68 -161 179z" />
    <glyph glyph-name="ccircumflex" unicode="&#x109;" horiz-adv-x="439" 
d="M350 696l71 -147h-38l-58 113l-97 -113h-43l124 147h41zM52 169c0 156 71 297 227 297c69 0 120 -29 142 -84l-32 -21c-18 49 -57 68 -110 68c-138 0 -187 -135 -187 -260c0 -79 38 -142 121 -142c52 0 98 19 132 67l32 -21c-39 -53 -95 -83 -164 -83
c-106 0 -161 68 -161 179z" />
    <glyph glyph-name="ccaron" unicode="&#x10d;" horiz-adv-x="439" 
d="M282 549l-72 147h39l58 -113l97 113h42l-123 -147h-41zM52 169c0 156 71 297 227 297c69 0 120 -29 142 -84l-32 -21c-18 49 -57 68 -110 68c-138 0 -187 -135 -187 -260c0 -79 38 -142 121 -142c52 0 98 19 132 67l32 -21c-39 -53 -95 -83 -164 -83
c-106 0 -161 68 -161 179z" />
    <glyph glyph-name="cdotaccent" unicode="&#x10b;" horiz-adv-x="439" 
d="M310 581c-18 0 -33 12 -33 33c0 33 18 46 43 46c17 0 34 -12 34 -34c0 -32 -21 -45 -44 -45zM52 169c0 156 71 297 227 297c69 0 120 -29 142 -84l-32 -21c-18 49 -57 68 -110 68c-138 0 -187 -135 -187 -260c0 -79 38 -142 121 -142c52 0 98 19 132 67l32 -21
c-39 -53 -95 -83 -164 -83c-106 0 -161 68 -161 179z" />
    <glyph glyph-name="ccedilla" unicode="&#xe7;" horiz-adv-x="439" 
d="M279 429c-138 0 -187 -135 -187 -260c0 -79 38 -142 121 -142c52 0 98 19 132 67l32 -21c-36 -49 -86 -78 -147 -82l-30 -55c40 0 71 -18 71 -64s-32 -88 -99 -88c-27 0 -54 11 -71 22l7 38c17 -15 40 -24 67 -24c36 0 55 22 55 47c0 29 -23 36 -55 36h-26l-1 4l42 84
c-91 9 -138 75 -138 178c0 156 71 297 227 297c69 0 120 -29 142 -84l-32 -21c-18 49 -57 68 -110 68z" />
    <glyph glyph-name="dcaron" unicode="&#x10f;" horiz-adv-x="498" 
d="M461 690h38l-122 -690h-38l9 46c-31 -29 -75 -56 -138 -56c-110 0 -158 68 -158 178c0 182 80 298 230 298c64 0 107 -29 128 -63zM567 547h-33l49 143h50zM92 168c0 -85 31 -141 118 -141c69 0 120 38 148 79l43 243c-12 35 -47 80 -119 80c-124 0 -190 -100 -190 -261z
" />
    <glyph glyph-name="dcroat" unicode="&#x111;" horiz-adv-x="498" 
d="M543 578l-7 -36h-63l-96 -542h-38l9 46c-31 -29 -75 -56 -138 -56c-110 0 -158 68 -158 178c0 182 80 298 230 298c64 0 107 -29 128 -63l25 139h-120l7 36h119l20 112h38l-20 -112h64zM358 106l43 243c-12 35 -47 80 -119 80c-124 0 -190 -100 -190 -261
c0 -85 31 -141 118 -141c69 0 120 38 148 79z" />
    <glyph glyph-name="eth" unicode="&#xf0;" horiz-adv-x="518" 
d="M513 597l-65 -32c14 -44 22 -96 22 -156c0 -241 -83 -419 -258 -419c-109 0 -161 69 -161 179c0 168 89 278 226 278c94 0 128 -55 150 -106c7 78 2 146 -18 206l-89 -44l-14 34l90 44c-18 41 -45 77 -81 109h59c23 -22 44 -52 61 -90l64 31zM212 27
c123 0 181 108 203 227c-10 75 -54 156 -139 156c-131 0 -184 -120 -184 -240c0 -78 32 -143 120 -143z" />
    <glyph glyph-name="egrave" unicode="&#xe8;" horiz-adv-x="453" 
d="M265 696l49 -147h-37l-57 147h45zM206 27c46 0 100 18 139 57l17 -31c-28 -32 -91 -63 -156 -63c-126 0 -156 82 -156 164c0 170 77 312 223 312c92 0 142 -59 142 -153c0 -40 -11 -70 -20 -96h-301c-16 -109 6 -190 112 -190zM365 253c2 8 10 23 10 60
c0 63 -31 116 -102 116c-99 0 -151 -78 -173 -176h265z" />
    <glyph glyph-name="eacute" unicode="&#xe9;" horiz-adv-x="453" 
d="M418 696l-108 -147h-43l101 147h50zM206 27c46 0 100 18 139 57l17 -31c-28 -32 -91 -63 -156 -63c-126 0 -156 82 -156 164c0 170 77 312 223 312c92 0 142 -59 142 -153c0 -40 -11 -70 -20 -96h-301c-16 -109 6 -190 112 -190zM365 253c2 8 10 23 10 60
c0 63 -31 116 -102 116c-99 0 -151 -78 -173 -176h265z" />
    <glyph glyph-name="ecircumflex" unicode="&#xea;" horiz-adv-x="453" 
d="M339 696l71 -147h-38l-58 113l-97 -113h-43l124 147h41zM206 27c46 0 100 18 139 57l17 -31c-28 -32 -91 -63 -156 -63c-126 0 -156 82 -156 164c0 170 77 312 223 312c92 0 142 -59 142 -153c0 -40 -11 -70 -20 -96h-301c-16 -109 6 -190 112 -190zM365 253
c2 8 10 23 10 60c0 63 -31 116 -102 116c-99 0 -151 -78 -173 -176h265z" />
    <glyph glyph-name="ecaron" unicode="&#x11b;" horiz-adv-x="453" 
d="M274 549l-72 147h39l58 -113l97 113h42l-123 -147h-41zM206 27c46 0 100 18 139 57l17 -31c-28 -32 -91 -63 -156 -63c-126 0 -156 82 -156 164c0 170 77 312 223 312c92 0 142 -59 142 -153c0 -40 -11 -70 -20 -96h-301c-16 -109 6 -190 112 -190zM365 253
c2 8 10 23 10 60c0 63 -31 116 -102 116c-99 0 -151 -78 -173 -176h265z" />
    <glyph glyph-name="edieresis" unicode="&#xeb;" horiz-adv-x="453" 
d="M221 581c-18 0 -33 12 -33 33c0 33 18 46 43 46c17 0 34 -12 34 -34c0 -32 -22 -45 -44 -45zM383 581c-18 0 -33 12 -33 33c0 33 18 46 43 46c17 0 34 -12 34 -34c0 -32 -21 -45 -44 -45zM206 27c46 0 100 18 139 57l17 -31c-28 -32 -91 -63 -156 -63
c-126 0 -156 82 -156 164c0 170 77 312 223 312c92 0 142 -59 142 -153c0 -40 -11 -70 -20 -96h-301c-16 -109 6 -190 112 -190zM365 253c2 8 10 23 10 60c0 63 -31 116 -102 116c-99 0 -151 -78 -173 -176h265z" />
    <glyph glyph-name="emacron" unicode="&#x113;" horiz-adv-x="453" 
d="M435 629l-7 -36h-249l6 36h250zM206 27c46 0 100 18 139 57l17 -31c-28 -32 -91 -63 -156 -63c-126 0 -156 82 -156 164c0 170 77 312 223 312c92 0 142 -59 142 -153c0 -40 -11 -70 -20 -96h-301c-16 -109 6 -190 112 -190zM365 253c2 8 10 23 10 60
c0 63 -31 116 -102 116c-99 0 -151 -78 -173 -176h265z" />
    <glyph glyph-name="ebreve" unicode="&#x115;" horiz-adv-x="453" 
d="M433 679c-13 -74 -63 -125 -135 -125c-68 0 -110 51 -97 125h34c-9 -51 12 -90 66 -90c55 0 88 39 97 90h35zM206 27c46 0 100 18 139 57l17 -31c-28 -32 -91 -63 -156 -63c-126 0 -156 82 -156 164c0 170 77 312 223 312c92 0 142 -59 142 -153c0 -40 -11 -70 -20 -96
h-301c-16 -109 6 -190 112 -190zM365 253c2 8 10 23 10 60c0 63 -31 116 -102 116c-99 0 -151 -78 -173 -176h265z" />
    <glyph glyph-name="edotaccent" unicode="&#x117;" horiz-adv-x="453" 
d="M305 581c-18 0 -33 12 -33 33c0 33 18 46 43 46c17 0 34 -12 34 -34c0 -32 -21 -45 -44 -45zM206 27c46 0 100 18 139 57l17 -31c-28 -32 -91 -63 -156 -63c-126 0 -156 82 -156 164c0 170 77 312 223 312c92 0 142 -59 142 -153c0 -40 -11 -70 -20 -96h-301
c-16 -109 6 -190 112 -190zM365 253c2 8 10 23 10 60c0 63 -31 116 -102 116c-99 0 -151 -78 -173 -176h265z" />
    <glyph glyph-name="eogonek" unicode="&#x119;" horiz-adv-x="453" 
d="M395 217h-301c-16 -109 6 -190 112 -190c46 0 100 18 139 57l17 -31l-12 -12l-109 -107c-31 -30 -44 -44 -44 -72c0 -20 12 -42 45 -42c20 0 41 11 60 25l-7 -40c-13 -9 -35 -21 -64 -21c-50 0 -75 32 -75 70c0 47 29 71 58 99l44 43c-17 -4 -34 -6 -52 -6
c-126 0 -156 82 -156 164c0 170 77 312 223 312c92 0 142 -59 142 -153c0 -40 -11 -70 -20 -96zM273 429c-99 0 -151 -78 -173 -176h265c2 8 10 23 10 60c0 63 -31 116 -102 116z" />
    <glyph glyph-name="gcircumflex" unicode="&#x11d;" horiz-adv-x="494" 
d="M354 696l71 -147h-38l-58 113l-97 -113h-43l124 147h41zM453 456l-88 -498c-15 -88 -89 -159 -189 -159c-112 0 -155 66 -145 125h39c-6 -43 23 -88 106 -88c82 0 137 51 150 124l16 91c-30 -32 -74 -61 -133 -61c-111 0 -157 72 -157 178c0 161 72 298 228 298
c70 0 106 -30 125 -65l9 55h39zM92 168c0 -76 30 -141 117 -141c60 0 111 36 143 80l43 241c-17 41 -53 81 -115 81c-138 0 -188 -131 -188 -261z" />
    <glyph glyph-name="gbreve" unicode="&#x11f;" horiz-adv-x="494" 
d="M441 679c-13 -74 -63 -125 -135 -125c-68 0 -110 51 -97 125h34c-9 -51 12 -90 66 -90c55 0 88 39 97 90h35zM453 456l-88 -498c-15 -88 -89 -159 -189 -159c-112 0 -155 66 -145 125h39c-6 -43 23 -88 106 -88c82 0 137 51 150 124l16 91c-30 -32 -74 -61 -133 -61
c-111 0 -157 72 -157 178c0 161 72 298 228 298c70 0 106 -30 125 -65l9 55h39zM92 168c0 -76 30 -141 117 -141c60 0 111 36 143 80l43 241c-17 41 -53 81 -115 81c-138 0 -188 -131 -188 -261z" />
    <glyph glyph-name="gdotaccent" unicode="&#x121;" horiz-adv-x="494" 
d="M311 581c-18 0 -33 12 -33 33c0 33 18 46 43 46c17 0 34 -12 34 -34c0 -32 -21 -45 -44 -45zM453 456l-88 -498c-15 -88 -89 -159 -189 -159c-112 0 -155 66 -145 125h39c-6 -43 23 -88 106 -88c82 0 137 51 150 124l16 91c-30 -32 -74 -61 -133 -61
c-111 0 -157 72 -157 178c0 161 72 298 228 298c70 0 106 -30 125 -65l9 55h39zM92 168c0 -76 30 -141 117 -141c60 0 111 36 143 80l43 241c-17 41 -53 81 -115 81c-138 0 -188 -131 -188 -261z" />
    <glyph glyph-name="uni0123" unicode="&#x123;" horiz-adv-x="494" 
d="M355 721h34l-58 -163h-51zM453 456l-88 -498c-15 -88 -89 -159 -189 -159c-112 0 -155 66 -145 125h39c-6 -43 23 -88 106 -88c82 0 137 51 150 124l16 91c-30 -32 -74 -61 -133 -61c-111 0 -157 72 -157 178c0 161 72 298 228 298c70 0 106 -30 125 -65l9 55h39zM92 168
c0 -76 30 -141 117 -141c60 0 111 36 143 80l43 241c-17 41 -53 81 -115 81c-138 0 -188 -131 -188 -261z" />
    <glyph glyph-name="hcircumflex" unicode="&#x125;" horiz-adv-x="503" 
d="M396 884l71 -147h-38l-58 113l-97 -113h-43l124 147h41zM163 690h38l-50 -285c36 35 100 61 154 61c116 0 153 -55 133 -169l-53 -297h-38l53 297c16 92 -5 132 -96 132c-68 0 -123 -32 -162 -72l-63 -357h-38z" />
    <glyph glyph-name="hbar" unicode="&#x127;" horiz-adv-x="503" 
d="M305 466c116 0 153 -55 133 -169l-53 -297h-38l53 297c16 92 -5 132 -96 132c-68 0 -123 -32 -162 -72l-63 -357h-38l96 542h-68l6 36h68l20 112h38l-20 -112h115l-6 -36h-115l-24 -137c36 35 100 61 154 61z" />
    <glyph glyph-name="dotlessi" unicode="&#x131;" horiz-adv-x="200" 
d="M122 456h38l-81 -456h-38z" />
    <glyph glyph-name="igrave" unicode="&#xec;" horiz-adv-x="200" 
d="M130 696l49 -147h-37l-57 147h45zM122 456h38l-81 -456h-38z" />
    <glyph glyph-name="iacute" unicode="&#xed;" horiz-adv-x="201" 
d="M283 696l-108 -147h-43l101 147h50zM122 456h38l-81 -456h-38z" />
    <glyph glyph-name="ibreve" unicode="&#x12d;" horiz-adv-x="201" 
d="M296 679c-13 -74 -63 -125 -135 -125c-68 0 -110 51 -97 125h34c-9 -51 12 -90 66 -90c55 0 88 39 97 90h35zM122 456h38l-81 -456h-38z" />
    <glyph glyph-name="icircumflex" unicode="&#xee;" horiz-adv-x="201" 
d="M205 696l71 -147h-38l-58 113l-97 -113h-43l124 147h41zM122 456h38l-81 -456h-38z" />
    <glyph glyph-name="itilde" unicode="&#x129;" horiz-adv-x="201" 
d="M277 581c-11 16 -29 26 -47 26c-36 0 -79 -36 -131 -36c-26 0 -49 14 -56 27l15 34c10 -14 25 -24 47 -24c42 0 79 36 131 36c31 0 49 -17 57 -27zM122 456h38l-81 -456h-38z" />
    <glyph glyph-name="idieresis" unicode="&#xef;" horiz-adv-x="201" 
d="M83 581c-18 0 -33 12 -33 33c0 33 18 46 43 46c17 0 34 -12 34 -34c0 -32 -22 -45 -44 -45zM245 581c-18 0 -33 12 -33 33c0 33 18 46 43 46c17 0 34 -12 34 -34c0 -32 -21 -45 -44 -45zM122 456h38l-81 -456h-38z" />
    <glyph glyph-name="imacron" unicode="&#x12b;" horiz-adv-x="201" 
d="M296 629l-7 -36h-249l6 36h250zM122 456h38l-81 -456h-38z" />
    <glyph glyph-name="iogonek" unicode="&#x12f;" horiz-adv-x="200" 
d="M178 670c17 0 32 -10 32 -32c0 -32 -24 -47 -46 -47c-18 0 -32 10 -32 31c0 33 21 48 46 48zM43 11l79 445h38l-81 -456l-87 -66c-33 -26 -45 -45 -45 -72c0 -20 12 -42 44 -42c21 0 41 11 61 25l-7 -42c-13 -8 -33 -19 -62 -19c-50 0 -77 34 -77 72c0 45 28 75 60 98z
" />
    <glyph glyph-name="uni0237" unicode="&#x237;" horiz-adv-x="199" 
d="M-76 -192c73 23 93 59 110 154l87 494h38l-89 -500c-21 -117 -58 -162 -138 -182z" />
    <glyph glyph-name="jcircumflex" unicode="&#x135;" horiz-adv-x="201" 
d="M204 696l71 -147h-38l-58 113l-97 -113h-43l124 147h41zM-76 -192c73 23 93 59 110 154l87 494h38l-89 -500c-21 -117 -58 -162 -138 -182z" />
    <glyph glyph-name="uni0137" unicode="&#x137;" horiz-adv-x="437" 
d="M324 0l-117 248l-99 -83l-29 -165h-38l122 690h38l-83 -469l277 235h58l-214 -182l131 -274h-46zM137 -216h-33l49 143h50z" />
    <glyph glyph-name="kgreenlandic" unicode="&#x138;" horiz-adv-x="437" 
d="M326 0l-117 248l-101 -83l-29 -165h-38l81 456h38l-43 -238l281 238h55l-214 -182l131 -274h-44z" />
    <glyph glyph-name="lacute" unicode="&#x13a;" horiz-adv-x="210" 
d="M320 884l-108 -147h-43l101 147h50zM199 690l-102 -580c-11 -56 -4 -74 29 -74h34l-6 -36h-30c-66 0 -78 34 -64 113l101 577h38z" />
    <glyph glyph-name="lcaron" unicode="&#x13e;" horiz-adv-x="201" 
d="M199 690l-102 -580c-11 -56 -4 -74 29 -74h34l-6 -36h-30c-66 0 -78 34 -64 113l101 577h38zM277 547h-33l49 143h50z" />
    <glyph glyph-name="uni013C" unicode="&#x13c;" horiz-adv-x="201" 
d="M198 690l-102 -580c-11 -56 -4 -74 29 -74h34l-6 -36h-30c-66 0 -78 34 -64 113l101 577h38zM44 -216h-33l49 143h50z" />
    <glyph glyph-name="lslash" unicode="&#x142;" horiz-adv-x="239" 
d="M157 348l-42 -238c-11 -56 -4 -74 29 -74h34l-6 -36h-30c-66 0 -78 34 -64 113l38 219l-72 -29l7 40l72 29l56 318h38l-53 -302l83 33l-7 -40z" />
    <glyph glyph-name="ldot" unicode="&#x140;" horiz-adv-x="310" 
d="M199 690l-102 -580c-11 -56 -4 -74 29 -74h34l-6 -36h-30c-66 0 -78 34 -64 113l101 577h38zM273 319c-20 0 -36 17 -36 37c0 28 21 47 47 47c22 0 37 -17 37 -37c0 -28 -20 -47 -48 -47z" />
    <glyph glyph-name="nacute" unicode="&#x144;" horiz-adv-x="503" 
d="M431 696l-108 -147h-43l101 147h50zM122 456h38l-10 -52c37 38 100 62 155 62c116 0 154 -54 133 -169l-53 -297h-38l53 297c16 92 -4 132 -96 132c-68 0 -124 -29 -162 -72l-63 -357h-38z" />
    <glyph glyph-name="ncaron" unicode="&#x148;" horiz-adv-x="494" 
d="M294 549l-72 147h39l58 -113l97 113h42l-123 -147h-41zM122 456h38l-10 -52c37 38 100 62 155 62c116 0 154 -54 133 -169l-53 -297h-38l53 297c16 92 -4 132 -96 132c-68 0 -124 -29 -162 -72l-63 -357h-38z" />
    <glyph glyph-name="ntilde" unicode="&#xf1;" horiz-adv-x="494" 
d="M433 581c-11 16 -29 26 -47 26c-36 0 -79 -36 -131 -36c-26 0 -49 14 -56 27l15 34c10 -14 25 -24 47 -24c42 0 79 36 131 36c31 0 49 -17 57 -27zM122 456h38l-10 -52c37 38 100 62 155 62c116 0 154 -54 133 -169l-53 -297h-38l53 297c16 92 -4 132 -96 132
c-68 0 -124 -29 -162 -72l-63 -357h-38z" />
    <glyph glyph-name="uni0146" unicode="&#x146;" horiz-adv-x="494" 
d="M122 456h38l-10 -52c37 38 100 62 155 62c116 0 154 -54 133 -169l-53 -297h-38l53 297c16 92 -4 132 -96 132c-68 0 -124 -29 -162 -72l-63 -357h-38zM160 -216h-33l49 143h50z" />
    <glyph glyph-name="napostrophe" unicode="&#x149;" horiz-adv-x="503" 
d="M97 553h-33l49 143h50zM122 456h38l-10 -52c37 38 100 62 155 62c116 0 154 -54 133 -169l-53 -297h-38l53 297c16 92 -4 132 -96 132c-68 0 -124 -29 -162 -72l-63 -357h-38z" />
    <glyph glyph-name="ograve" unicode="&#xf2;" horiz-adv-x="488" 
d="M282 696l49 -147h-37l-57 147h45zM280 466c113 0 158 -76 158 -179c0 -131 -62 -297 -231 -297c-108 0 -156 75 -156 181c0 138 69 295 229 295zM207 27c145 0 191 152 191 260c0 84 -33 142 -118 142c-137 0 -189 -144 -189 -258c0 -84 34 -144 116 -144z" />
    <glyph glyph-name="oacute" unicode="&#xf3;" horiz-adv-x="479" 
d="M425 696l-108 -147h-43l101 147h50zM280 466c113 0 158 -76 158 -179c0 -131 -62 -297 -231 -297c-108 0 -156 75 -156 181c0 138 69 295 229 295zM207 27c145 0 191 152 191 260c0 84 -33 142 -118 142c-137 0 -189 -144 -189 -258c0 -84 34 -144 116 -144z" />
    <glyph glyph-name="ocircumflex" unicode="&#xf4;" horiz-adv-x="479" 
d="M349 696l71 -147h-38l-58 113l-97 -113h-43l124 147h41zM280 466c113 0 158 -76 158 -179c0 -131 -62 -297 -231 -297c-108 0 -156 75 -156 181c0 138 69 295 229 295zM207 27c145 0 191 152 191 260c0 84 -33 142 -118 142c-137 0 -189 -144 -189 -258
c0 -84 34 -144 116 -144z" />
    <glyph glyph-name="otilde" unicode="&#xf5;" horiz-adv-x="479" 
d="M424 581c-11 16 -29 26 -47 26c-36 0 -79 -36 -131 -36c-26 0 -49 14 -56 27l15 34c10 -14 25 -24 47 -24c42 0 79 36 131 36c31 0 49 -17 57 -27zM280 466c113 0 158 -76 158 -179c0 -131 -62 -297 -231 -297c-108 0 -156 75 -156 181c0 138 69 295 229 295zM207 27
c145 0 191 152 191 260c0 84 -33 142 -118 142c-137 0 -189 -144 -189 -258c0 -84 34 -144 116 -144z" />
    <glyph glyph-name="odieresis" unicode="&#xf6;" horiz-adv-x="479" 
d="M229 581c-18 0 -33 12 -33 33c0 33 18 46 43 46c17 0 34 -12 34 -34c0 -32 -22 -45 -44 -45zM391 581c-18 0 -33 12 -33 33c0 33 18 46 43 46c17 0 34 -12 34 -34c0 -32 -21 -45 -44 -45zM280 466c113 0 158 -76 158 -179c0 -131 -62 -297 -231 -297
c-108 0 -156 75 -156 181c0 138 69 295 229 295zM207 27c145 0 191 152 191 260c0 84 -33 142 -118 142c-137 0 -189 -144 -189 -258c0 -84 34 -144 116 -144z" />
    <glyph glyph-name="omacron" unicode="&#x14d;" horiz-adv-x="479" 
d="M441 629l-7 -36h-249l6 36h250zM280 466c113 0 158 -76 158 -179c0 -131 -62 -297 -231 -297c-108 0 -156 75 -156 181c0 138 69 295 229 295zM207 27c145 0 191 152 191 260c0 84 -33 142 -118 142c-137 0 -189 -144 -189 -258c0 -84 34 -144 116 -144z" />
    <glyph glyph-name="obreve" unicode="&#x14f;" horiz-adv-x="479" 
d="M440 679c-13 -74 -63 -125 -135 -125c-68 0 -110 51 -97 125h34c-9 -51 12 -90 66 -90c55 0 88 39 97 90h35zM280 466c113 0 158 -76 158 -179c0 -131 -62 -297 -231 -297c-108 0 -156 75 -156 181c0 138 69 295 229 295zM207 27c145 0 191 152 191 260
c0 84 -33 142 -118 142c-137 0 -189 -144 -189 -258c0 -84 34 -144 116 -144z" />
    <glyph glyph-name="ohungarumlaut" unicode="&#x151;" horiz-adv-x="479" 
d="M366 696l-109 -147h-40l101 147h48zM491 696l-109 -147h-40l100 147h49zM280 466c113 0 158 -76 158 -179c0 -131 -62 -297 -231 -297c-108 0 -156 75 -156 181c0 138 69 295 229 295zM207 27c145 0 191 152 191 260c0 84 -33 142 -118 142c-137 0 -189 -144 -189 -258
c0 -84 34 -144 116 -144z" />
    <glyph glyph-name="oslash" unicode="&#xf8;" horiz-adv-x="488" 
d="M471 456l-56 -62c16 -29 23 -66 23 -107c0 -131 -62 -297 -231 -297c-51 0 -89 17 -114 45l-32 -35h-42l56 62c-16 30 -24 67 -24 109c0 138 69 295 229 295c53 0 91 -17 116 -45l31 35h44zM91 171c0 -29 4 -55 13 -76l265 297c-19 23 -48 37 -89 37
c-137 0 -189 -144 -189 -258zM398 287c0 28 -4 53 -12 75l-266 -297c19 -24 47 -38 87 -38c145 0 191 152 191 260z" />
    <glyph glyph-name="oslashacute" unicode="&#x1ff;" horiz-adv-x="488" 
d="M399 696l-108 -147h-43l101 147h50zM471 456l-56 -62c16 -29 23 -66 23 -107c0 -131 -62 -297 -231 -297c-51 0 -89 17 -114 45l-32 -35h-42l56 62c-16 30 -24 67 -24 109c0 138 69 295 229 295c53 0 91 -17 116 -45l31 35h44zM91 171c0 -29 4 -55 13 -76l265 297
c-19 23 -48 37 -89 37c-137 0 -189 -144 -189 -258zM398 287c0 28 -4 53 -12 75l-266 -297c19 -24 47 -38 87 -38c145 0 191 152 191 260z" />
    <glyph glyph-name="oe" unicode="&#x153;" horiz-adv-x="787" 
d="M539 27c47 0 101 20 140 61l17 -35c-29 -32 -92 -63 -157 -63c-91 0 -136 40 -149 101c-34 -60 -91 -101 -182 -101c-109 0 -156 69 -156 181c0 157 75 295 229 295c103 0 136 -51 150 -116c30 66 90 116 176 116c101 0 142 -65 142 -153c0 -40 -11 -70 -20 -96h-301
c-19 -112 6 -190 111 -190zM208 27c147 0 190 132 190 260c0 81 -31 142 -117 142c-134 0 -189 -126 -189 -258c0 -82 34 -144 116 -144zM699 253c2 8 10 23 10 60c0 67 -33 116 -102 116c-100 0 -149 -76 -172 -176h264z" />
    <glyph glyph-name="racute" unicode="&#x155;" horiz-adv-x="315" 
d="M337 696l-108 -147h-43l101 147h50zM148 384c31 48 73 82 133 82c23 0 44 -2 59 -6l-13 -42c-14 5 -32 8 -46 8c-67 0 -110 -51 -147 -117l-55 -309h-38l81 456h38l-13 -72h1z" />
    <glyph glyph-name="rcaron" unicode="&#x159;" horiz-adv-x="315" 
d="M201 549l-72 147h39l58 -113l97 113h42l-123 -147h-41zM148 384c31 48 73 82 133 82c23 0 44 -2 59 -6l-13 -42c-14 5 -32 8 -46 8c-67 0 -110 -51 -147 -117l-55 -309h-38l81 456h38l-13 -72h1z" />
    <glyph glyph-name="uni0157" unicode="&#x157;" horiz-adv-x="314" 
d="M148 384c31 48 73 82 133 82c23 0 44 -2 59 -6l-13 -42c-14 5 -32 8 -46 8c-67 0 -110 -51 -147 -117l-55 -309h-38l81 456h38l-13 -72h1zM5 -216h-33l49 143h50z" />
    <glyph glyph-name="sacute" unicode="&#x15b;" horiz-adv-x="410" 
d="M384 696l-108 -147h-43l101 147h50zM350 380c-17 27 -52 49 -108 49c-91 0 -125 -53 -125 -107c0 -28 19 -55 68 -70l43 -12c78 -23 114 -53 114 -111c0 -85 -72 -139 -178 -139c-89 0 -129 42 -148 76l31 25c18 -31 40 -64 117 -64c79 0 138 35 138 102
c0 39 -31 60 -85 75l-43 12c-66 19 -97 57 -97 106c0 69 49 144 165 144c71 0 120 -32 139 -62z" />
    <glyph glyph-name="scircumflex" unicode="&#x15d;" horiz-adv-x="410" 
d="M313 696l71 -147h-38l-58 113l-97 -113h-43l124 147h41zM350 380c-17 27 -52 49 -108 49c-91 0 -125 -53 -125 -107c0 -28 19 -55 68 -70l43 -12c78 -23 114 -53 114 -111c0 -85 -72 -139 -178 -139c-89 0 -129 42 -148 76l31 25c18 -31 40 -64 117 -64
c79 0 138 35 138 102c0 39 -31 60 -85 75l-43 12c-66 19 -97 57 -97 106c0 69 49 144 165 144c71 0 120 -32 139 -62z" />
    <glyph glyph-name="scaron" unicode="&#x161;" horiz-adv-x="410" 
d="M249 549l-72 147h39l58 -113l97 113h42l-123 -147h-41zM350 380c-17 27 -52 49 -108 49c-91 0 -125 -53 -125 -107c0 -28 19 -55 68 -70l43 -12c78 -23 114 -53 114 -111c0 -85 -72 -139 -178 -139c-89 0 -129 42 -148 76l31 25c18 -31 40 -64 117 -64
c79 0 138 35 138 102c0 39 -31 60 -85 75l-43 12c-66 19 -97 57 -97 106c0 69 49 144 165 144c71 0 120 -32 139 -62z" />
    <glyph glyph-name="scedilla" unicode="&#x15f;" horiz-adv-x="410" 
d="M242 429c-91 0 -125 -53 -125 -107c0 -28 19 -55 68 -70l43 -12c78 -23 114 -53 114 -111c0 -80 -63 -132 -158 -138l-30 -55c40 0 71 -18 71 -64s-32 -88 -99 -88c-27 0 -54 11 -71 22l7 38c17 -15 40 -24 67 -24c36 0 55 22 55 47c0 29 -23 36 -55 36h-26l-1 4l42 84
c-75 5 -110 44 -128 75l31 25c18 -31 40 -64 117 -64c79 0 138 35 138 102c0 39 -31 60 -85 75l-43 12c-66 19 -97 57 -97 106c0 69 49 144 165 144c71 0 120 -32 139 -62l-31 -24c-17 27 -52 49 -108 49z" />
    <glyph glyph-name="uni0219" unicode="&#x219;" horiz-adv-x="410" 
d="M350 380c-17 27 -52 49 -108 49c-91 0 -125 -53 -125 -107c0 -28 19 -55 68 -70l43 -12c78 -23 114 -53 114 -111c0 -85 -72 -139 -178 -139c-89 0 -129 42 -148 76l31 25c18 -31 40 -64 117 -64c79 0 138 35 138 102c0 39 -31 60 -85 75l-43 12c-66 19 -97 57 -97 106
c0 69 49 144 165 144c71 0 120 -32 139 -62zM115 -216h-33l49 143h50z" />
    <glyph glyph-name="germandbls" unicode="&#xdf;" horiz-adv-x="518" 
d="M130 502c22 124 69 198 177 198c90 0 140 -41 140 -126c0 -107 -132 -180 -132 -225c0 -18 15 -36 48 -57l36 -25c43 -30 65 -68 65 -120c0 -83 -73 -158 -176 -158c-39 0 -76 11 -98 28l20 37c21 -13 44 -27 78 -27c78 0 136 52 136 120c0 38 -18 63 -50 87l-38 28
c-35 26 -62 44 -62 87c0 63 133 135 133 225c0 58 -36 89 -100 89c-94 0 -124 -80 -138 -161l-127 -718h-39z" />
    <glyph glyph-name="tcaron" unicode="&#x165;" horiz-adv-x="309" 
d="M356 547h-33l49 143h50zM123 114c-10 -56 2 -87 52 -87c24 0 50 9 72 21l6 -34c-22 -13 -51 -24 -80 -24c-82 0 -102 48 -88 124l54 306h-85l4 26l87 10l21 118l40 10l-23 -128h134l-6 -36h-134z" />
    <glyph glyph-name="uni021B" unicode="&#x21b;" horiz-adv-x="300" 
d="M123 114c-10 -56 2 -87 52 -87c24 0 50 9 72 21l6 -34c-22 -13 -51 -24 -80 -24c-82 0 -102 48 -88 124l54 306h-85l4 26l87 10l21 118l40 10l-23 -128h134l-6 -36h-134zM88 -216h-33l49 143h50z" />
    <glyph glyph-name="tbar" unicode="&#x167;" horiz-adv-x="304" 
d="M316 420h-134l-26 -150h99l-6 -36h-100l-21 -120c-10 -56 2 -87 52 -87c24 0 50 9 72 21l6 -34c-22 -13 -51 -24 -80 -24c-82 0 -102 48 -88 124l21 120h-84l7 36h84l26 150h-85l4 26l87 10l21 118l40 10l-23 -128h134z" />
    <glyph glyph-name="thorn" unicode="&#xfe;" horiz-adv-x="499" 
d="M41 -216h-38l157 892h38l-46 -265c28 30 77 55 141 55c114 0 154 -78 154 -179c0 -158 -65 -297 -233 -297c-65 0 -107 26 -126 61zM407 287c0 78 -31 142 -119 142c-68 0 -120 -37 -147 -80l-43 -243c12 -35 46 -79 119 -79c140 0 190 123 190 260z" />
    <glyph glyph-name="ugrave" unicode="&#xf9;" horiz-adv-x="503" 
d="M284 696l49 -147h-37l-57 147h45zM381 0h-38l10 52c-37 -38 -100 -62 -155 -62c-116 0 -154 54 -133 169l53 297h38l-53 -297c-16 -92 4 -132 96 -132c68 0 124 29 162 72l63 357h38z" />
    <glyph glyph-name="uacute" unicode="&#xfa;" horiz-adv-x="503" 
d="M428 696l-108 -147h-43l101 147h50zM381 0h-38l10 52c-37 -38 -100 -62 -155 -62c-116 0 -154 54 -133 169l53 297h38l-53 -297c-16 -92 4 -132 96 -132c68 0 124 29 162 72l63 357h38z" />
    <glyph glyph-name="ucircumflex" unicode="&#xfb;" horiz-adv-x="503" 
d="M350 696l71 -147h-38l-58 113l-97 -113h-43l124 147h41zM381 0h-38l10 52c-37 -38 -100 -62 -155 -62c-116 0 -154 54 -133 169l53 297h38l-53 -297c-16 -92 4 -132 96 -132c68 0 124 29 162 72l63 357h38z" />
    <glyph glyph-name="utilde" unicode="&#x169;" horiz-adv-x="503" 
d="M421 581c-11 16 -29 26 -47 26c-36 0 -79 -36 -131 -36c-26 0 -49 14 -56 27l15 34c10 -14 25 -24 47 -24c42 0 79 36 131 36c31 0 49 -17 57 -27zM381 0h-38l10 52c-37 -38 -100 -62 -155 -62c-116 0 -154 54 -133 169l53 297h38l-53 -297c-16 -92 4 -132 96 -132
c68 0 124 29 162 72l63 357h38z" />
    <glyph glyph-name="udieresis" unicode="&#xfc;" horiz-adv-x="503" 
d="M230 581c-18 0 -33 12 -33 33c0 33 18 46 43 46c17 0 34 -12 34 -34c0 -32 -22 -45 -44 -45zM392 581c-18 0 -33 12 -33 33c0 33 18 46 43 46c17 0 34 -12 34 -34c0 -32 -21 -45 -44 -45zM381 0h-38l10 52c-37 -38 -100 -62 -155 -62c-116 0 -154 54 -133 169l53 297h38
l-53 -297c-16 -92 4 -132 96 -132c68 0 124 29 162 72l63 357h38z" />
    <glyph glyph-name="umacron" unicode="&#x16b;" horiz-adv-x="503" 
d="M445 629l-7 -36h-249l6 36h250zM381 0h-38l10 52c-37 -38 -100 -62 -155 -62c-116 0 -154 54 -133 169l53 297h38l-53 -297c-16 -92 4 -132 96 -132c68 0 124 29 162 72l63 357h38z" />
    <glyph glyph-name="ubreve" unicode="&#x16d;" horiz-adv-x="503" 
d="M444 679c-13 -74 -63 -125 -135 -125c-68 0 -110 51 -97 125h34c-9 -51 12 -90 66 -90c55 0 88 39 97 90h35zM381 0h-38l10 52c-37 -38 -100 -62 -155 -62c-116 0 -154 54 -133 169l53 297h38l-53 -297c-16 -92 4 -132 96 -132c68 0 124 29 162 72l63 357h38z" />
    <glyph glyph-name="uring" unicode="&#x16f;" horiz-adv-x="503" 
d="M220 611c0 63 46 103 109 103c50 0 82 -32 82 -75c0 -63 -46 -104 -110 -104c-48 0 -81 32 -81 76zM256 614c0 -29 18 -48 49 -48c41 0 70 28 70 70c0 29 -18 47 -50 47c-40 0 -69 -27 -69 -69zM381 0h-38l10 52c-37 -38 -100 -62 -155 -62c-116 0 -154 54 -133 169
l53 297h38l-53 -297c-16 -92 4 -132 96 -132c68 0 124 29 162 72l63 357h38z" />
    <glyph glyph-name="uhungarumlaut" unicode="&#x171;" horiz-adv-x="503" 
d="M370 696l-109 -147h-40l101 147h48zM495 696l-109 -147h-40l100 147h49zM381 0h-38l10 52c-37 -38 -100 -62 -155 -62c-116 0 -154 54 -133 169l53 297h38l-53 -297c-16 -92 4 -132 96 -132c68 0 124 29 162 72l63 357h38z" />
    <glyph glyph-name="uogonek" unicode="&#x173;" horiz-adv-x="503" 
d="M294 -66c-33 -26 -45 -45 -45 -72c0 -20 12 -42 44 -42c21 0 41 11 61 25l-7 -42c-13 -8 -33 -19 -62 -19c-50 0 -77 34 -77 72c0 45 28 75 60 98l77 57l8 41c-37 -38 -100 -62 -155 -62c-116 0 -154 54 -133 169l53 297h38l-53 -297c-16 -92 4 -132 96 -132
c68 0 124 29 162 72l63 357h38l-81 -456z" />
    <glyph glyph-name="wacute" unicode="&#x1e83;" horiz-adv-x="715" 
d="M537 696l-108 -147h-43l101 147h50zM420 456l56 -407l198 407h48l-229 -456h-46l-58 404l-201 -404h-45l-69 456h44l54 -407l200 407h48z" />
    <glyph glyph-name="wcircumflex" unicode="&#x175;" horiz-adv-x="715" 
d="M458 696l71 -147h-38l-58 113l-97 -113h-43l124 147h41zM420 456l56 -407l198 407h48l-229 -456h-46l-58 404l-201 -404h-45l-69 456h44l54 -407l200 407h48z" />
    <glyph glyph-name="wdieresis" unicode="&#x1e85;" horiz-adv-x="715" 
d="M337 581c-18 0 -33 12 -33 33c0 33 18 46 43 46c17 0 34 -12 34 -34c0 -32 -22 -45 -44 -45zM499 581c-18 0 -33 12 -33 33c0 33 18 46 43 46c17 0 34 -12 34 -34c0 -32 -21 -45 -44 -45zM420 456l56 -407l198 407h48l-229 -456h-46l-58 404l-201 -404h-45l-69 456h44
l54 -407l200 407h48z" />
    <glyph glyph-name="wgrave" unicode="&#x1e81;" horiz-adv-x="715" 
d="M385 696l49 -147h-37l-57 147h45zM420 456l56 -407l198 407h48l-229 -456h-46l-58 404l-201 -404h-45l-69 456h44l54 -407l200 407h48z" />
    <glyph glyph-name="yacute" unicode="&#xfd;" horiz-adv-x="455" 
d="M407 696l-108 -147h-43l101 147h50zM208 88l210 368h49l-392 -672h-47l150 257l-110 415h44z" />
    <glyph glyph-name="ycircumflex" unicode="&#x177;" horiz-adv-x="455" 
d="M334 696l71 -147h-38l-58 113l-97 -113h-43l124 147h41zM208 88l210 368h49l-392 -672h-47l150 257l-110 415h44z" />
    <glyph glyph-name="ydieresis" unicode="&#xff;" horiz-adv-x="455" 
d="M214 581c-18 0 -33 12 -33 33c0 33 18 46 43 46c17 0 34 -12 34 -34c0 -32 -22 -45 -44 -45zM376 581c-18 0 -33 12 -33 33c0 33 18 46 43 46c17 0 34 -12 34 -34c0 -32 -21 -45 -44 -45zM208 88l210 368h49l-392 -672h-47l150 257l-110 415h44z" />
    <glyph glyph-name="ygrave" unicode="&#x1ef3;" horiz-adv-x="455" 
d="M266 696l49 -147h-37l-57 147h45zM208 88l210 368h49l-392 -672h-47l150 257l-110 415h44z" />
    <glyph glyph-name="zacute" unicode="&#x17a;" horiz-adv-x="386" 
d="M372 696l-108 -147h-43l101 147h50zM371 422l-310 -386h248l-6 -36h-301l6 34l310 386h-230l6 36h283z" />
    <glyph glyph-name="zcaron" unicode="&#x17e;" horiz-adv-x="386" 
d="M235 549l-72 147h39l58 -113l97 113h42l-123 -147h-41zM371 422l-310 -386h248l-6 -36h-301l6 34l310 386h-230l6 36h283z" />
    <glyph glyph-name="zdotaccent" unicode="&#x17c;" horiz-adv-x="386" 
d="M267 581c-18 0 -33 12 -33 33c0 33 18 46 43 46c17 0 34 -12 34 -34c0 -32 -21 -45 -44 -45zM371 422l-310 -386h248l-6 -36h-301l6 34l310 386h-230l6 36h283z" />
    <glyph glyph-name="IJ" unicode="&#x132;" horiz-adv-x="701" 
d="M174 676h40l-119 -676h-40zM270 104c24 -59 63 -75 121 -75c110 0 158 71 183 212l77 435h40l-77 -437c-30 -169 -101 -249 -223 -249c-79 0 -134 37 -154 93z" />
    <glyph glyph-name="ij" unicode="&#x133;" horiz-adv-x="399" 
d="M164 591c-18 0 -32 10 -32 31c0 33 21 48 46 48c17 0 32 -10 32 -32c0 -32 -24 -47 -46 -47zM362 591c-18 0 -31 10 -31 31c0 33 20 48 45 48c17 0 32 -10 32 -32c0 -32 -23 -47 -46 -47zM122 456h38l-81 -456h-38zM124 -192c73 23 93 59 110 154l87 494h38l-89 -500
c-21 -117 -58 -162 -138 -182z" />
    <glyph glyph-name="acute" unicode="&#xb4;" horiz-adv-x="570" 
d="M479 696l-108 -147h-43l101 147h50z" />
    <glyph glyph-name="circumflex" unicode="&#x2c6;" horiz-adv-x="570" 
d="M437 696l71 -147h-38l-58 113l-97 -113h-43l124 147h41z" />
    <glyph glyph-name="caron" unicode="&#x2c7;" horiz-adv-x="570" 
d="M370 549l-72 147h39l58 -113l97 113h42l-123 -147h-41z" />
    <glyph glyph-name="tilde" unicode="&#x2dc;" horiz-adv-x="570" 
d="M510 581c-11 16 -29 26 -47 26c-36 0 -79 -36 -131 -36c-26 0 -49 14 -56 27l15 34c10 -14 25 -24 47 -24c42 0 79 36 131 36c31 0 49 -17 57 -27z" />
    <glyph glyph-name="dieresis" unicode="&#xa8;" horiz-adv-x="570" 
d="M317 581c-18 0 -33 12 -33 33c0 33 18 46 43 46c17 0 34 -12 34 -34c0 -32 -22 -45 -44 -45zM479 581c-18 0 -33 12 -33 33c0 33 18 46 43 46c17 0 34 -12 34 -34c0 -32 -21 -45 -44 -45z" />
    <glyph glyph-name="macron" unicode="&#xaf;" horiz-adv-x="570" 
d="M530 629l-7 -36h-249l6 36h250z" />
    <glyph glyph-name="breve" unicode="&#x2d8;" horiz-adv-x="570" 
d="M529 679c-13 -74 -63 -125 -135 -125c-68 0 -110 51 -97 125h34c-9 -51 12 -90 66 -90c55 0 88 39 97 90h35z" />
    <glyph glyph-name="ring" unicode="&#x2da;" horiz-adv-x="570" 
d="M308 611c0 63 46 103 109 103c50 0 82 -32 82 -75c0 -63 -46 -104 -110 -104c-48 0 -81 32 -81 76zM344 614c0 -29 18 -48 49 -48c41 0 70 28 70 70c0 29 -18 47 -50 47c-40 0 -69 -27 -69 -69z" />
    <glyph glyph-name="hungarumlaut" unicode="&#x2dd;" horiz-adv-x="570" 
d="M416 696l-109 -147h-40l101 147h48zM541 696l-109 -147h-40l100 147h49z" />
    <glyph glyph-name="dotaccent" unicode="&#x2d9;" horiz-adv-x="570" 
d="M398 581c-18 0 -33 12 -33 33c0 33 18 46 43 46c17 0 34 -12 34 -34c0 -32 -21 -45 -44 -45z" />
    <glyph glyph-name="cedilla" unicode="&#xb8;" horiz-adv-x="570" 
d="M323 0l-35 -64c40 0 71 -18 71 -64s-32 -88 -99 -88c-27 0 -54 11 -71 22l7 38c17 -15 40 -24 67 -24c36 0 55 22 55 47c0 29 -23 36 -55 36h-26l-1 4l50 99z" />
    <glyph glyph-name="ogonek" unicode="&#x2db;" horiz-adv-x="570" 
d="M275 -66c-33 -26 -45 -45 -45 -72c0 -20 12 -42 44 -42c21 0 41 11 61 25l-7 -42c-13 -8 -33 -19 -62 -19c-50 0 -77 34 -77 72c0 45 28 75 60 98l78 58l35 -12z" />
    <glyph glyph-name="uniF6C3" unicode="&#xf6c3;" horiz-adv-x="0" 
d="M-318 -216h-33l49 143h50z" />
    <glyph glyph-name="ellipsis" unicode="&#x2026;" horiz-adv-x="527" 
d="M72 -7c-20 0 -36 17 -36 37c0 28 21 47 47 47c21 0 37 -17 37 -37c0 -28 -21 -47 -48 -47zM229 -7c-21 0 -36 17 -36 37c0 28 20 47 46 47c22 0 37 -17 37 -37c0 -28 -20 -47 -47 -47zM385 -7c-21 0 -36 17 -36 37c0 28 20 47 47 47c21 0 36 -17 36 -37
c0 -28 -20 -47 -47 -47z" />
    <glyph glyph-name="uni00AD" unicode="&#xad;" horiz-adv-x="388" 
d="M316 287v-36h-232v36h232z" />
    <glyph glyph-name="exclamdown" unicode="&#xa1;" horiz-adv-x="205" 
d="M141 466c21 0 36 -17 36 -37c0 -28 -20 -47 -47 -47c-21 0 -37 17 -37 37c0 28 21 47 48 47zM125 260l-76 -477h-51l94 477h33z" />
    <glyph glyph-name="questiondown" unicode="&#xbf;" horiz-adv-x="429" 
d="M260 467c20 0 37 -17 37 -37c0 -28 -21 -47 -47 -47c-21 0 -37 17 -37 37c0 28 20 47 47 47zM145 -226c-98 0 -154 63 -154 146c0 152 182 176 211 341h45c-31 -177 -212 -216 -212 -341c0 -53 35 -106 110 -106c68 0 126 40 139 113h44c-16 -87 -77 -153 -183 -153z" />
    <glyph glyph-name="quoteleft" unicode="&#x2018;" horiz-adv-x="197" 
d="M181 676h34l-58 -193h-51z" />
    <glyph glyph-name="quoteright" unicode="&#x2019;" horiz-adv-x="194" 
d="M144 483h-35l58 193h51z" />
    <glyph glyph-name="quotedblleft" unicode="&#x201c;" horiz-adv-x="297" 
d="M181 676h34l-58 -193h-51zM280 676h35l-58 -193h-51z" />
    <glyph glyph-name="quotedblright" unicode="&#x201d;" horiz-adv-x="293" 
d="M144 483h-35l58 193h51zM243 483h-34l57 193h52z" />
    <glyph glyph-name="quotesinglbase" unicode="&#x201a;" horiz-adv-x="206" 
d="M34 -115h-35l58 193h51z" />
    <glyph glyph-name="quotedblbase" unicode="&#x201e;" horiz-adv-x="306" 
d="M34 -115h-35l58 193h51zM133 -115h-34l57 193h52z" />
    <glyph glyph-name="guilsinglleft" unicode="&#x2039;" horiz-adv-x="280" 
d="M237 470l26 -25l-161 -177l98 -179l-33 -19l-118 200z" />
    <glyph glyph-name="guilsinglright" unicode="&#x203a;" horiz-adv-x="279" 
d="M57 70l-26 25l161 177l-98 179l33 19l118 -200z" />
    <glyph glyph-name="guillemotleft" unicode="&#xab;" horiz-adv-x="436" 
d="M237 470l26 -25l-161 -177l98 -179l-33 -19l-118 200zM393 470l26 -25l-161 -177l98 -179l-33 -19l-118 200z" />
    <glyph glyph-name="guillemotright" unicode="&#xbb;" horiz-adv-x="435" 
d="M57 70l-26 25l161 177l-98 179l33 19l118 -200zM213 70l-26 25l161 177l-98 179l33 19l118 -200z" />
    <glyph glyph-name="endash" unicode="&#x2013;" horiz-adv-x="588" 
d="M516 287v-36h-432v36h432z" />
    <glyph glyph-name="emdash" unicode="&#x2014;" horiz-adv-x="728" 
d="M656 287v-36h-572v36h572z" />
    <glyph glyph-name="bullet" unicode="&#x2022;" horiz-adv-x="361" 
d="M187 183c-50 0 -88 36 -88 86s38 86 88 86c52 0 88 -36 88 -86s-36 -86 -88 -86z" />
    <glyph glyph-name="periodcentered" unicode="&#xb7;" horiz-adv-x="224" 
d="M117 227c-20 0 -36 17 -36 37c0 28 21 47 47 47c22 0 37 -17 37 -37c0 -28 -20 -47 -48 -47z" />
    <glyph glyph-name="uni2219" unicode="&#x2219;" horiz-adv-x="224" 
d="M117 227c-20 0 -36 17 -36 37c0 28 21 47 47 47c22 0 37 -17 37 -37c0 -28 -20 -47 -48 -47z" />
    <glyph glyph-name="dagger" unicode="&#x2020;" horiz-adv-x="401" 
d="M193 287l71 403h39l-71 -403h147l-7 -36h-147l-82 -467h-39l82 467h-149l7 36h149z" />
    <glyph glyph-name="daggerdbl" unicode="&#x2021;" horiz-adv-x="463" 
d="M254 449l43 241h39l-43 -241h148l-6 -36h-148l-61 -348h147l-6 -36h-148l-43 -245h-39l43 245h-148l7 36h148l61 348h-148l6 36h148z" />
    <glyph glyph-name="section" unicode="&#xa7;" horiz-adv-x="537" 
d="M477 272c0 -66 -59 -119 -108 -144c35 -23 60 -48 60 -95c0 -103 -103 -148 -217 -148c-119 0 -174 47 -200 100l36 28c29 -47 71 -89 164 -89c94 0 176 33 176 108c0 36 -46 65 -98 90l-97 46c-71 33 -105 67 -105 126c0 61 53 110 103 140c-30 21 -56 50 -56 99
c0 90 101 153 209 153c97 0 150 -27 189 -99l-36 -25c-36 60 -81 85 -153 85c-75 0 -167 -42 -167 -114c0 -41 50 -72 114 -100l62 -27c68 -30 124 -56 124 -134zM230 415c-57 -28 -101 -76 -101 -121c0 -41 34 -71 83 -93l118 -52c45 25 105 64 105 123
c0 47 -44 72 -101 97z" />
    <glyph glyph-name="paragraph" unicode="&#xb6;" horiz-adv-x="451" 
d="M315 456l-94 -530h-39l44 249c-120 0 -176 27 -176 109c0 98 54 172 173 172h92zM182 -191c67 22 91 54 108 153l87 494h40l-87 -494c-20 -107 -42 -160 -140 -188z" />
    <glyph glyph-name="brokenbar" unicode="&#xa6;" horiz-adv-x="252" 
d="M109 306v384h38v-384h-38zM147 170v-386h-38v386h38z" />
    <glyph glyph-name="copyright" unicode="&#xa9;" horiz-adv-x="810" 
d="M87 339c0 214 147 347 339 347c191 0 337 -133 337 -347s-146 -350 -337 -350c-192 0 -339 136 -339 350zM128 339c0 -193 126 -311 298 -311c171 0 296 118 296 311s-125 308 -296 308c-172 0 -298 -115 -298 -308zM286 335c0 -101 37 -173 133 -173c49 0 86 17 115 59
l32 -23c-39 -52 -81 -75 -147 -75c-115 0 -174 84 -174 212c0 129 66 213 177 213c63 0 107 -29 137 -63l-29 -25c-29 32 -59 49 -108 49c-96 0 -136 -71 -136 -174z" />
    <glyph glyph-name="uni2117" unicode="&#x2117;" horiz-adv-x="810" 
d="M87 339c0 214 147 347 339 347c191 0 337 -133 337 -347s-146 -350 -337 -350c-192 0 -339 136 -339 350zM128 339c0 -193 126 -311 298 -311c171 0 296 118 296 311s-125 308 -296 308c-172 0 -298 -115 -298 -308zM439 544c100 0 145 -53 145 -125
c0 -71 -46 -124 -145 -124h-99v-167h-39v416h138zM543 419c0 51 -27 90 -103 90h-100v-178h100c76 0 103 38 103 88z" />
    <glyph glyph-name="registered" unicode="&#xae;" horiz-adv-x="810" 
d="M87 339c0 214 147 347 339 347c191 0 337 -133 337 -347s-146 -350 -337 -350c-192 0 -339 136 -339 350zM128 339c0 -193 126 -311 298 -311c171 0 296 118 296 311s-125 308 -296 308c-172 0 -298 -115 -298 -308zM287 545h141c98 0 144 -42 144 -116
c0 -65 -46 -110 -126 -117l141 -184h-50l-136 182h-74v-182h-40v417zM533 429c0 41 -24 81 -103 81h-103v-165h98c81 0 108 46 108 84z" />
    <glyph glyph-name="trademark" unicode="&#x2122;" horiz-adv-x="622" 
d="M304 607l-5 -29h-75l-37 -208h-32l37 208h-73l5 29h180zM538 607h45l-11 -237h-32l13 200l-98 -200h-37l-23 199l-60 -199h-31l73 237h44l22 -198z" />
    <glyph glyph-name="currency" unicode="&#xa4;" horiz-adv-x="535" 
d="M389 359c12 -23 17 -50 17 -81c0 -33 -6 -63 -19 -87l79 -79l-28 -29l-79 75c-21 -19 -51 -29 -89 -29c-37 0 -68 10 -89 28l-72 -72l-29 29l75 75c-14 24 -20 55 -20 89c0 31 6 59 19 83l-76 77l28 28l72 -73c22 20 54 32 93 32c40 0 73 -12 94 -32l73 72l28 -28z
M270 166c69 0 97 46 97 112c0 65 -27 110 -96 110s-97 -45 -97 -110c0 -66 27 -112 96 -112z" />
    <glyph glyph-name="Euro" unicode="&#x20ac;" 
d="M410 647c-111 0 -192 -97 -233 -225h267l-25 -38h-253c-7 -32 -13 -65 -16 -99h216l-24 -38h-194v-18c0 -136 42 -201 153 -201c49 0 105 18 164 55l11 -40c-58 -34 -116 -54 -175 -54c-133 0 -194 66 -194 240v18h-52l7 38h47c3 34 7 67 14 99h-44l7 38h47
c44 154 142 264 277 264c66 0 124 -20 162 -46l-24 -36c-37 26 -77 43 -138 43z" />
    <glyph glyph-name="cent" unicode="&#xa2;" horiz-adv-x="468" 
d="M397 361c-10 29 -28 47 -51 57l-158 -387c10 -3 21 -4 33 -4c52 0 98 19 132 67l32 -21c-39 -53 -95 -83 -164 -83c-17 0 -33 2 -47 5l-26 -63l-37 11l27 66c-52 27 -78 83 -78 160c0 156 71 297 227 297c12 0 24 -1 35 -3l31 78l38 -11l-31 -77c32 -14 56 -38 69 -71z
M153 46l154 382c-6 1 -13 1 -20 1c-138 0 -187 -135 -187 -260c0 -53 17 -98 53 -123z" />
    <glyph glyph-name="sterling" unicode="&#xa3;" horiz-adv-x="535" 
d="M130 318l23 129c23 137 95 239 224 239c94 0 147 -30 179 -87l-34 -25c-34 60 -80 73 -145 73c-104 0 -164 -82 -184 -204l-22 -125h203l-7 -38h-203l-43 -242h305l-7 -38h-344l48 280h-67l7 38h67z" />
    <glyph glyph-name="florin" unicode="&#x192;" horiz-adv-x="320" 
d="M122 -68c-16 -89 -51 -158 -142 -158c-18 0 -40 3 -50 6l7 40c14 -4 26 -7 43 -7c64 0 89 47 101 119l86 485h-100l6 38h101l15 87c15 88 49 158 140 158c18 0 40 -3 50 -6l-7 -40c-14 4 -26 7 -43 7c-64 0 -88 -47 -100 -119l-15 -87h108l-7 -38h-107z" />
    <glyph glyph-name="yen" unicode="&#xa5;" horiz-adv-x="547" 
d="M254 286l-37 99h-100l6 38h79l-96 253h44l133 -359l257 359h51l-185 -253h80l-7 -38h-101l-73 -99h157l-7 -38h-163l-44 -248h-39l43 248h-160l7 38h155z" />
    <glyph glyph-name="uni20A8" unicode="&#x20a8;" horiz-adv-x="491" 
d="M514 676l-6 -38h-129c36 -26 48 -72 44 -129h62l-7 -38h-62c-23 -98 -97 -162 -203 -170l137 -301h-50l-134 299h-89l6 39h102c110 0 167 53 188 133h-266l7 38h266c6 76 -23 129 -125 129h-119l7 38h371z" />
    <glyph glyph-name="ordfeminine" unicode="&#xaa;" horiz-adv-x="351" 
d="M260 350l5 32c-21 -18 -60 -39 -92 -39c-35 0 -82 6 -82 68c0 63 69 93 144 103l55 7l5 32c5 35 -8 52 -51 52c-48 0 -63 -13 -67 -32l-4 -21h-39c0 9 1 16 2 21c7 36 42 66 108 66c65 0 100 -25 89 -85l-36 -204h-37zM131 411c0 -21 16 -33 43 -33c42 0 73 25 98 46
l12 64l-50 -7c-64 -9 -103 -26 -103 -70z" />
    <glyph glyph-name="ordmasculine" unicode="&#xba;" horiz-adv-x="371" 
d="M251 639c70 0 109 -41 109 -116c0 -102 -52 -180 -151 -180c-68 0 -108 39 -108 118c0 97 55 178 150 178zM210 377c76 0 111 70 111 146c0 45 -20 82 -70 82c-76 0 -111 -68 -111 -144c0 -47 20 -84 70 -84z" />
    <glyph glyph-name="uni00B9" unicode="&#xb9;" horiz-adv-x="207" 
d="M165 450l52 294l-103 -37l-6 35l120 44h32l-59 -336h-36z" />
    <glyph glyph-name="uni00B2" unicode="&#xb2;" horiz-adv-x="283" 
d="M242 792c57 0 92 -28 92 -86c0 -50 -37 -90 -88 -133l-107 -90h166l-6 -32h-216l5 28l136 118c47 40 74 70 74 109c0 30 -21 55 -56 55c-42 0 -72 -26 -80 -68h-37c10 60 58 99 117 99z" />
    <glyph glyph-name="uni00B3" unicode="&#xb3;" horiz-adv-x="300" 
d="M272 621c30 -4 54 -30 54 -71c0 -58 -60 -106 -128 -106c-82 0 -111 38 -103 87h35c-5 -31 16 -54 68 -54c55 0 91 32 91 73c0 35 -28 57 -74 57h-34l5 32h32c52 0 93 25 93 70c0 30 -23 51 -64 51c-46 0 -76 -27 -80 -56h-37c8 53 62 87 117 87c54 0 100 -21 100 -82
c0 -51 -37 -80 -75 -88z" />
    <glyph glyph-name="fraction" unicode="&#x2044;" horiz-adv-x="160" 
d="M-131 0h-48l508 676h50z" />
    <glyph glyph-name="uni2215" unicode="&#x2215;" horiz-adv-x="160" 
d="M-131 0h-48l508 676h50z" />
    <glyph glyph-name="onehalf" unicode="&#xbd;" horiz-adv-x="651" 
d="M92 0h-48l508 676h50zM156 338l52 294l-103 -37l-6 35l120 44h32l-59 -336h-36zM504 341c57 0 92 -28 92 -86c0 -50 -37 -90 -88 -133l-107 -90h166l-6 -32h-216l5 28l136 118c47 40 74 70 74 109c0 30 -21 55 -56 55c-42 0 -72 -26 -80 -68h-37c10 60 58 99 117 99z" />
    <glyph glyph-name="uni2153" unicode="&#x2153;" horiz-adv-x="662" 
d="M95 0h-48l508 676h50zM175 338l52 294l-103 -37l-6 35l120 44h32l-59 -336h-36zM542 171c30 -4 54 -30 54 -71c0 -58 -60 -106 -128 -106c-82 0 -111 38 -103 87h35c-5 -31 16 -54 68 -54c55 0 91 32 91 73c0 35 -28 57 -74 57h-34l5 32h32c52 0 93 25 93 70
c0 30 -23 51 -64 51c-46 0 -76 -27 -80 -56h-37c8 53 62 87 117 87c54 0 100 -21 100 -82c0 -51 -37 -80 -75 -88z" />
    <glyph glyph-name="onequarter" unicode="&#xbc;" horiz-adv-x="623" 
d="M95 0h-48l508 676h50zM175 338l52 294l-103 -37l-6 35l120 44h32l-59 -336h-36zM560 74h-54l-13 -74h-35l13 74h-172l5 30l212 232h37l-41 -230h54zM477 106l30 172l-157 -172h127z" />
    <glyph glyph-name="oneeighth" unicode="&#x215b;" horiz-adv-x="666" 
d="M95 0h-48l508 676h50zM175 338l52 294l-103 -37l-6 35l120 44h32l-59 -336h-36zM469 -6c-72 0 -111 27 -111 87c0 49 39 85 80 95c-27 9 -46 24 -46 61c0 63 58 104 124 104s104 -26 104 -81c0 -44 -29 -76 -72 -88c28 -9 51 -27 51 -69c0 -65 -58 -109 -130 -109z
M517 310c-53 0 -87 -27 -87 -73c0 -28 26 -48 65 -48c47 0 88 25 88 72c0 30 -25 49 -66 49zM490 158c-64 0 -95 -36 -95 -78c0 -36 30 -53 73 -53c54 0 94 26 94 75c0 34 -28 56 -72 56z" />
    <glyph glyph-name="uni2154" unicode="&#x2154;" horiz-adv-x="726" 
d="M246 679c57 0 92 -28 92 -86c0 -50 -37 -90 -88 -133l-107 -90h166l-6 -32h-216l5 28l136 118c47 40 74 70 74 109c0 30 -21 55 -56 55c-42 0 -72 -26 -80 -68h-37c10 60 58 99 117 99zM167 0h-48l508 676h50zM605 171c30 -4 54 -30 54 -71c0 -58 -60 -106 -128 -106
c-82 0 -111 38 -103 87h35c-5 -31 16 -54 68 -54c55 0 91 32 91 73c0 35 -28 57 -74 57h-34l5 32h32c52 0 93 25 93 70c0 30 -23 51 -64 51c-46 0 -76 -27 -80 -56h-37c8 53 62 87 117 87c54 0 100 -21 100 -82c0 -51 -37 -80 -75 -88z" />
    <glyph glyph-name="threequarters" unicode="&#xbe;" horiz-adv-x="681" 
d="M273 509c30 -4 54 -30 54 -71c0 -58 -60 -106 -128 -106c-82 0 -111 38 -103 87h35c-5 -31 16 -54 68 -54c55 0 91 32 91 73c0 35 -28 57 -74 57h-34l5 32h32c52 0 93 25 93 70c0 30 -23 51 -64 51c-46 0 -76 -27 -80 -56h-37c8 53 62 87 117 87c54 0 100 -21 100 -82
c0 -51 -37 -80 -75 -88zM162 0h-48l508 676h50zM616 74h-54l-13 -74h-35l13 74h-172l5 30l212 232h37l-41 -230h54zM533 106l30 172l-157 -172h127z" />
    <glyph glyph-name="threeeighths" unicode="&#x215c;" horiz-adv-x="723" 
d="M273 509c30 -4 54 -30 54 -71c0 -58 -60 -106 -128 -106c-82 0 -111 38 -103 87h35c-5 -31 16 -54 68 -54c55 0 91 32 91 73c0 35 -28 57 -74 57h-34l5 32h32c52 0 93 25 93 70c0 30 -23 51 -64 51c-46 0 -76 -27 -80 -56h-37c8 53 62 87 117 87c54 0 100 -21 100 -82
c0 -51 -37 -80 -75 -88zM162 0h-48l508 676h50zM526 -6c-72 0 -111 27 -111 87c0 49 39 85 80 95c-27 9 -46 24 -46 61c0 63 58 104 124 104s104 -26 104 -81c0 -44 -29 -76 -72 -88c28 -9 51 -27 51 -69c0 -65 -58 -109 -130 -109zM574 310c-53 0 -87 -27 -87 -73
c0 -28 26 -48 65 -48c47 0 88 25 88 72c0 30 -25 49 -66 49zM547 158c-64 0 -95 -36 -95 -78c0 -36 30 -53 73 -53c54 0 94 26 94 75c0 34 -28 56 -72 56z" />
    <glyph glyph-name="fiveeighths" unicode="&#x215d;" horiz-adv-x="714" 
d="M156 0h-48l508 676h50zM322 461c0 -68 -53 -129 -130 -129c-87 0 -110 45 -101 95h36c-6 -34 10 -62 65 -62c54 0 94 34 94 97c0 36 -24 57 -65 57c-26 0 -50 -9 -71 -21l-30 2l53 174h177l-6 -32h-146l-33 -104c13 6 39 14 68 14c48 0 89 -22 89 -91zM516 -6
c-72 0 -111 27 -111 87c0 49 39 85 80 95c-27 9 -46 24 -46 61c0 63 58 104 124 104s104 -26 104 -81c0 -44 -29 -76 -72 -88c28 -9 51 -27 51 -69c0 -65 -58 -109 -130 -109zM564 310c-53 0 -87 -27 -87 -73c0 -28 26 -48 65 -48c47 0 88 25 88 72c0 30 -25 49 -66 49z
M537 158c-64 0 -95 -36 -95 -78c0 -36 30 -53 73 -53c54 0 94 26 94 75c0 34 -28 56 -72 56z" />
    <glyph glyph-name="seveneighths" unicode="&#x215e;" horiz-adv-x="632" 
d="M71 0h-48l508 676h50zM306 642h-170l6 32h210l-5 -28l-184 -308h-41zM435 -6c-72 0 -111 27 -111 87c0 49 39 85 80 95c-27 9 -46 24 -46 61c0 63 58 104 124 104s104 -26 104 -81c0 -44 -29 -76 -72 -88c28 -9 51 -27 51 -69c0 -65 -58 -109 -130 -109zM483 310
c-53 0 -87 -27 -87 -73c0 -28 26 -48 65 -48c47 0 88 25 88 72c0 30 -25 49 -66 49zM456 158c-64 0 -95 -36 -95 -78c0 -36 30 -53 73 -53c54 0 94 26 94 75c0 34 -28 56 -72 56z" />
    <glyph glyph-name="perthousand" unicode="&#x2030;" horiz-adv-x="993" 
d="M237 679c68 0 106 -40 106 -125c0 -111 -46 -221 -155 -221c-81 0 -106 53 -106 125c0 120 53 221 155 221zM139 0h-48l508 676h50zM187 365c91 0 118 97 118 189c0 57 -20 94 -67 94c-83 0 -119 -90 -119 -190c0 -57 20 -93 68 -93zM558 341c68 0 106 -40 106 -125
c0 -111 -46 -221 -155 -221c-81 0 -106 53 -106 125c0 120 53 221 155 221zM843 341c68 0 106 -40 106 -125c0 -111 -46 -221 -155 -221c-81 0 -106 53 -106 125c0 120 53 221 155 221zM508 27c91 0 118 97 118 189c0 57 -20 94 -67 94c-83 0 -119 -90 -119 -190
c0 -57 20 -93 68 -93zM793 27c91 0 118 97 118 189c0 57 -20 94 -67 94c-83 0 -119 -90 -119 -190c0 -57 20 -93 68 -93z" />
    <glyph glyph-name="minus" unicode="&#x2212;" 
d="M68 288h437v-36h-437v36z" />
    <glyph glyph-name="plusminus" unicode="&#xb1;" 
d="M67 418h198v203h38v-203h201v-36h-201v-202h-38v202h-198v36zM67 75h437v-36h-437v36z" />
    <glyph glyph-name="multiply" unicode="&#xd7;" 
d="M95 109l161 160l-164 163l28 29l164 -164l162 163l29 -28l-163 -163l163 -163l-29 -28l-162 163l-161 -161z" />
    <glyph glyph-name="divide" unicode="&#xf7;" 
d="M290 402c-24 0 -42 18 -42 42c0 25 18 43 42 43c25 0 43 -18 43 -43c0 -24 -18 -42 -43 -42zM69 288h437v-36h-437v36zM290 50c-24 0 -42 18 -42 42s18 42 42 42c25 0 43 -18 43 -42s-18 -42 -43 -42z" />
    <glyph glyph-name="notequal" unicode="&#x2260;" horiz-adv-x="551" 
d="M471 367h-147l-49 -193h196v-36h-206l-36 -142l-33 8l34 134h-121v36h130l49 193h-179v36h188l35 136l34 -8l-33 -128h138v-36z" />
    <glyph glyph-name="approxequal" unicode="&#x2248;" 
d="M479 377c-23 -37 -54 -60 -97 -60c-65 0 -150 70 -191 70c-46 0 -69 -47 -69 -47l-27 26c21 37 52 60 98 60c54 0 144 -73 189 -73c44 0 70 50 70 50zM477 177c-23 -37 -54 -60 -97 -60c-63 0 -148 73 -189 73c-46 0 -71 -50 -71 -50l-27 26c21 37 52 60 98 60
c56 0 146 -73 189 -73c44 0 70 50 70 50z" />
    <glyph glyph-name="lessequal" unicode="&#x2264;" horiz-adv-x="551" 
d="M99 388l362 172v-42l-321 -148l321 -147v-43l-362 172v36zM96 76h362v-36h-362v36z" />
    <glyph glyph-name="greaterequal" unicode="&#x2265;" horiz-adv-x="551" 
d="M484 352l-362 -172v43l321 147l-321 148v42l362 -172v-36zM104 76h362v-36h-362v36z" />
    <glyph glyph-name="logicalnot" unicode="&#xac;" 
d="M63 353h437v-229h-38v193h-399v36z" />
    <glyph glyph-name="uni0394" unicode="&#x394;" horiz-adv-x="655" 
d="M379 676h57l156 -676h-609zM403 638l-346 -600h478z" />
    <glyph glyph-name="uni03A9" unicode="&#x3a9;" horiz-adv-x="655" 
d="M195 38c-55 46 -106 151 -106 265c0 197 100 383 320 383c145 0 208 -108 208 -247c0 -208 -122 -341 -217 -401h157l-6 -38h-217l7 38c119 74 235 204 235 401c0 118 -53 208 -174 208c-185 0 -272 -167 -272 -344c0 -114 52 -212 118 -265l-7 -38h-217l7 38h164z" />
    <glyph glyph-name="uni03BC" unicode="&#x3bc;" horiz-adv-x="509" 
d="M3 -216l119 672h38l-54 -301c-15 -92 14 -128 99 -128c64 0 121 30 160 73l63 356h38l-62 -352c-7 -38 -1 -70 28 -70c10 0 17 1 22 2l-6 -35c-7 -2 -15 -3 -23 -3c-38 0 -57 25 -62 56c-36 -32 -90 -64 -158 -64c-62 0 -99 15 -120 42l-44 -248h-38z" />
    <glyph glyph-name="pi" unicode="&#x3c0;" horiz-adv-x="490" 
d="M53 0l74 420h-79l6 36h458l-6 -36h-81l-52 -298c-7 -42 -16 -88 29 -88c6 0 17 1 25 2l-7 -35c-10 -2 -19 -3 -28 -3c-62 0 -72 40 -57 124l52 298h-222l-74 -420h-38z" />
    <glyph glyph-name="degree" unicode="&#xb0;" horiz-adv-x="369" 
d="M108 526c0 88 64 160 150 160c66 0 113 -39 113 -118c0 -87 -63 -160 -150 -160c-66 0 -113 40 -113 118zM145 526c0 -48 29 -83 76 -83c64 0 114 52 114 125c0 48 -29 83 -77 83c-64 0 -113 -52 -113 -125z" />
    <glyph glyph-name="estimated" unicode="&#x212e;" horiz-adv-x="773" 
d="M231 338v-230c49 -49 109 -74 183 -74c105 0 182 45 245 152l45 -27c-78 -121 -157 -171 -290 -171c-199 0 -327 154 -327 350c0 197 128 350 327 350c195 0 327 -145 328 -350h-511zM600 384v184c-54 50 -116 75 -187 75c-73 0 -133 -26 -182 -75v-184h369z" />
    <glyph glyph-name="eng" unicode="&#x14b;" horiz-adv-x="502" 
d="M121 456h38l-9 -53c36 39 98 63 156 63c118 0 151 -55 131 -169l-59 -335c-23 -127 -63 -168 -140 -188l-8 34c72 24 93 59 110 154l59 335c16 89 -4 132 -95 132c-69 0 -125 -29 -163 -72l-63 -357h-38z" />
    <glyph glyph-name="Eng" unicode="&#x14a;" horiz-adv-x="658" 
d="M365 -190c72 24 92 62 108 152l5 28l-275 625l-108 -615h-41l120 676h45l271 -618l109 618h43l-126 -714c-23 -131 -66 -168 -143 -188z" />
    <glyph glyph-name="infinity" unicode="&#x221e;" horiz-adv-x="735" 
d="M680 287c0 -96 -71 -177 -170 -177c-75 0 -110 52 -140 118c-45 -58 -106 -117 -173 -117c-74 0 -129 43 -129 130c0 94 72 176 169 176c78 0 112 -57 143 -121c45 58 104 123 171 123c75 0 129 -45 129 -132zM352 264c-26 51 -64 116 -116 116c-68 0 -129 -60 -129 -139
c0 -56 37 -94 90 -94c57 0 114 68 155 117zM641 286c0 56 -35 94 -91 94c-57 0 -108 -69 -151 -119c25 -56 53 -114 111 -114c73 0 131 59 131 139z" />
    <glyph glyph-name="partialdiff" unicode="&#x2202;" horiz-adv-x="518" 
d="M374 690c57 -51 97 -159 97 -281c0 -212 -71 -419 -258 -419c-117 0 -161 80 -161 178c0 166 80 279 225 279c82 0 133 -52 150 -107c12 153 -14 258 -108 350h55zM213 27c123 0 188 123 204 234c-12 70 -58 149 -140 149c-128 0 -185 -112 -185 -240
c0 -74 32 -143 121 -143z" />
    <glyph glyph-name="integral" unicode="&#x222b;" horiz-adv-x="350" 
d="M142 -68c-19 -103 -56 -158 -140 -158c-18 0 -40 3 -50 6l7 40c15 -4 26 -7 43 -7c64 0 89 38 102 119l109 616c17 100 55 158 140 158c18 0 40 -3 50 -6l-7 -39c-14 4 -25 7 -43 7c-63 0 -89 -42 -102 -120z" />
    <glyph glyph-name="radical" unicode="&#x221a;" horiz-adv-x="583" 
d="M247 -216h-51l-94 376l-79 -39l-11 40l118 58l93 -394l371 871h44z" />
    <glyph glyph-name="summation" unicode="&#x2211;" horiz-adv-x="557" 
d="M434 -216h-464l9 55l332 404l-193 384l10 49h459l-6 -38h-424l203 -399l-342 -417h422z" />
    <glyph glyph-name="product" unicode="&#x220f;" horiz-adv-x="711" 
d="M739 676l-6 -38h-65l-151 -854h-41l151 854h-399l-150 -854h-41l150 854h-64l6 38h610z" />
    <glyph glyph-name="lozenge" unicode="&#x25ca;" horiz-adv-x="564" 
d="M260 0h-35l-173 348l296 348h35l172 -348zM363 654l-262 -310l145 -301l262 311z" />
    <glyph glyph-name="uniF8FF" unicode="&#xf8ff;" horiz-adv-x="621" 
d="M122 656h413v-656h-413v656zM497 40v576h-337v-576h337z" />
    <glyph glyph-name="exclam.sc" horiz-adv-x="209" 
d="M75 152l56 355h48l-71 -355h-33zM65 -5c-19 0 -30 13 -30 29c0 23 18 41 42 41c19 0 32 -13 32 -30c0 -22 -20 -40 -44 -40z" />
    <glyph glyph-name="numbersign.sc" horiz-adv-x="493" 
d="M40 163l8 37h82l42 128h-77l8 36h82l48 143h39l-48 -143h119l48 143h40l-48 -143h83l-7 -36h-88l-44 -128h84l-8 -37h-88l-54 -163h-40l54 163h-118l-54 -163h-41l56 163h-78zM170 200h118l43 128h-119z" />
    <glyph glyph-name="dollar.sc" horiz-adv-x="451" 
d="M386 419c-16 34 -48 54 -97 57l-37 -207l12 -3c72 -21 116 -56 116 -123c0 -81 -60 -145 -177 -151l-12 -69h-35l12 69c-105 6 -131 57 -141 98l39 19c9 -38 26 -76 109 -80l37 211l-11 4c-71 22 -109 54 -109 117c0 79 61 149 168 154l10 54h35l-10 -55
c74 -5 112 -36 127 -73zM216 280l3 -1l35 197c-80 -7 -120 -56 -120 -115c0 -38 21 -62 82 -81zM248 229l-3 1l-35 -200c86 6 127 50 127 113c0 43 -27 66 -89 86z" />
    <glyph glyph-name="percent.sc" horiz-adv-x="622" 
d="M199 511c60 0 89 -30 89 -98c0 -91 -44 -166 -126 -166c-63 0 -89 35 -89 98c0 102 50 166 126 166zM135 0h-43l403 507h44zM162 276c62 0 90 63 90 137c0 45 -17 68 -54 68c-60 0 -89 -56 -89 -136c0 -44 16 -69 53 -69zM470 260c60 0 89 -30 89 -98
c0 -91 -44 -166 -126 -166c-63 0 -89 35 -89 98c0 102 50 166 126 166zM433 25c62 0 90 63 90 137c0 45 -17 68 -54 68c-60 0 -89 -56 -89 -136c0 -44 16 -69 53 -69z" />
    <glyph glyph-name="ampersand.sc" horiz-adv-x="527" 
d="M378 129c-6 -7 -12 -14 -18 -20l88 -105l-1 -4h-47l-67 80c-49 -50 -103 -88 -178 -88c-82 0 -121 37 -121 101c0 66 71 112 132 151l19 12l-21 25c-20 25 -50 62 -50 106c0 71 61 128 159 128c76 0 126 -40 126 -104c0 -55 -46 -89 -112 -133l-45 -29l93 -111l16 18
l99 112l28 -27zM194 306l24 -29l48 30c54 35 93 57 93 104c0 38 -27 68 -86 68c-77 0 -119 -44 -119 -92c0 -32 19 -57 40 -81zM156 27c61 0 107 36 152 83l-100 118l-20 -13c-65 -41 -114 -75 -114 -121c0 -40 36 -67 82 -67z" />
    <glyph glyph-name="section.sc" horiz-adv-x="459" 
d="M390 202c0 -42 -41 -82 -83 -102c29 -18 48 -38 48 -76c0 -66 -86 -110 -177 -110c-86 0 -141 33 -165 74l29 25c22 -37 67 -64 136 -64c76 0 135 29 135 75c0 31 -36 47 -78 65l-83 35c-47 20 -81 42 -81 98c0 38 32 79 79 101c-22 16 -45 34 -45 77
c0 65 86 115 169 115c53 0 126 -13 157 -74l-32 -21c-33 51 -84 59 -125 59c-65 0 -127 -32 -127 -79c0 -35 42 -53 90 -72l55 -22c57 -23 98 -44 98 -104zM186 306c-41 -17 -75 -48 -75 -84c0 -31 28 -52 68 -68l91 -37c33 15 79 45 79 85c0 38 -39 55 -80 71z" />
    <glyph glyph-name="paragraph.sc" horiz-adv-x="409" 
d="M267 342l-69 -390h-37l31 176c-98 0 -142 23 -142 84c0 75 43 130 141 130h76zM167 -139c53 18 72 42 85 112l65 369h37l-65 -367c-13 -78 -35 -123 -113 -145z" />
    <glyph glyph-name="parenleft.sc" horiz-adv-x="243" 
d="M98 -167c-32 72 -52 157 -52 244c0 218 73 328 171 450l34 -10c-92 -127 -164 -236 -164 -436c0 -77 18 -163 45 -237z" />
    <glyph glyph-name="slash.sc" horiz-adv-x="279" 
d="M286 499l-246 -499h-39l1 9l244 498h42z" />
    <glyph glyph-name="parenright.sc" horiz-adv-x="243" 
d="M-24 -156c114 158 163 261 163 436c0 88 -20 171 -45 237l34 10c28 -65 52 -147 52 -245c0 -195 -53 -301 -170 -449z" />
    <glyph glyph-name="bracketleft.sc" horiz-adv-x="256" 
d="M260 522l-6 -37h-91l-108 -610h91l-6 -37h-132l120 684h132z" />
    <glyph glyph-name="backslash.sc" horiz-adv-x="272" 
d="M87 507h39l69 -498l-2 -9h-36l-71 499z" />
    <glyph glyph-name="bracketright.sc" horiz-adv-x="257" 
d="M232 522l-120 -684h-132l6 37h92l107 610h-91l7 37h131z" />
    <glyph glyph-name="braceleft.sc" horiz-adv-x="261" 
d="M152 253c-10 -56 -27 -70 -49 -76c19 -8 33 -20 22 -76l-28 -163c-10 -53 3 -68 49 -68l-6 -32c-68 0 -96 20 -81 101l28 161c8 47 -6 61 -56 61l6 33c51 0 69 15 77 60l29 163c13 76 47 101 117 101l-7 -35c-44 0 -64 -14 -73 -67z" />
    <glyph glyph-name="bar.sc" horiz-adv-x="248" 
d="M98 -162v684h35v-684h-35z" />
    <glyph glyph-name="braceright.sc" horiz-adv-x="260" 
d="M91 103c10 56 27 70 49 76c-19 8 -33 20 -22 76l28 163c10 53 -3 68 -49 68l6 32c68 0 96 -20 81 -101l-28 -161c-8 -47 6 -61 56 -61l-6 -33c-51 0 -69 -15 -77 -60l-29 -163c-13 -76 -47 -101 -117 -101l7 35c44 0 64 14 73 67z" />
    <glyph glyph-name="zero.sc" horiz-adv-x="494" 
d="M292 515c104 0 148 -67 148 -187c0 -184 -76 -336 -227 -336c-105 0 -150 69 -150 188c0 186 76 335 229 335zM213 29c133 0 187 141 187 299c0 92 -33 150 -108 150c-132 0 -188 -139 -188 -298c0 -93 34 -151 109 -151z" />
    <glyph glyph-name="one.sc" horiz-adv-x="312" 
d="M148 0l82 464l-159 -60l-8 36l176 67h37l-89 -507h-39z" />
    <glyph glyph-name="two.sc" horiz-adv-x="429" 
d="M254 515c84 0 135 -41 135 -123c0 -83 -53 -134 -133 -204l-173 -152h259l-6 -36h-315l6 33l202 180c77 66 118 111 118 179c0 52 -32 86 -93 86c-66 0 -111 -45 -123 -108h-42c15 80 75 145 165 145z" />
    <glyph glyph-name="three.sc" horiz-adv-x="454" 
d="M299 261c39 -10 77 -47 77 -110c0 -82 -71 -159 -187 -159c-122 0 -160 60 -148 126h41c-9 -50 21 -89 107 -89c90 0 146 55 146 122c0 56 -48 93 -120 93h-46l7 36h45c81 0 148 42 148 115c0 47 -35 83 -101 83c-75 0 -121 -43 -130 -91h-42c12 65 75 128 172 128
c87 0 142 -41 142 -120c0 -76 -55 -117 -111 -134z" />
    <glyph glyph-name="four.sc" horiz-adv-x="472" 
d="M408 118h-84l-21 -118h-40l21 118h-259l6 33l321 356h41l-63 -353h84zM291 154l49 283l-257 -283h208z" />
    <glyph glyph-name="five.sc" horiz-adv-x="441" 
d="M373 188c0 -98 -73 -196 -193 -196c-125 0 -156 67 -143 141h42c-10 -57 12 -104 101 -104c98 0 151 76 151 159c0 59 -36 94 -101 94c-45 0 -82 -16 -114 -35l-35 2l77 258h257l-6 -36h-221l-55 -178c19 10 62 26 98 26c91 0 142 -42 142 -131z" />
    <glyph glyph-name="six.sc" horiz-adv-x="469" 
d="M383 387c9 55 -25 91 -94 91c-105 0 -168 -115 -183 -224c23 23 75 65 146 65c98 0 149 -47 149 -134c0 -110 -83 -193 -194 -193c-104 0 -146 68 -146 182c0 183 88 341 228 341c101 0 148 -58 135 -128h-41zM103 204c-8 -110 22 -175 104 -175c92 0 153 65 153 156
c0 59 -37 98 -108 98c-59 0 -120 -41 -149 -79z" />
    <glyph glyph-name="seven.sc" horiz-adv-x="382" 
d="M339 471h-259l6 36h306l-6 -33l-276 -474h-48z" />
    <glyph glyph-name="eight.sc" horiz-adv-x="472" 
d="M200 -8c-104 0 -155 45 -155 126c0 87 75 135 129 146c-42 12 -76 39 -76 99c0 84 79 152 182 152c87 0 147 -40 147 -116c0 -82 -57 -122 -116 -137c42 -10 84 -41 84 -107c0 -100 -85 -163 -195 -163zM280 478c-83 0 -140 -46 -140 -115c0 -51 43 -82 106 -82
c77 0 140 40 140 118c0 47 -41 79 -106 79zM200 29c91 0 154 45 154 126c0 55 -48 89 -116 89c-82 0 -151 -44 -151 -126c0 -56 44 -89 113 -89z" />
    <glyph glyph-name="nine.sc" horiz-adv-x="469" 
d="M95 120c-9 -55 25 -91 94 -91c105 0 168 115 183 224c-23 -23 -75 -65 -146 -65c-98 0 -149 47 -149 134c0 110 83 193 194 193c104 0 146 -68 146 -182c0 -183 -88 -341 -228 -341c-101 0 -148 58 -135 128h41zM375 303c8 110 -22 175 -104 175
c-92 0 -153 -65 -153 -156c0 -59 37 -98 108 -98c59 0 120 41 149 79z" />
    <glyph glyph-name="question.sc" horiz-adv-x="371" 
d="M224 515c79 0 128 -39 128 -112c0 -113 -149 -143 -168 -251h-45c23 126 170 161 170 251c0 42 -30 74 -85 74c-59 0 -97 -29 -106 -80l-42 2c11 65 60 116 148 116zM135 -5c-18 0 -30 13 -30 30c0 22 20 40 42 40c19 0 32 -13 32 -30c0 -22 -20 -40 -44 -40z" />
    <glyph glyph-name="a.sc" horiz-adv-x="486" 
d="M348 146h-235l-80 -146h-46l280 507h51l102 -507h-44zM132 182h210l-56 281z" />
    <glyph glyph-name="b.sc" horiz-adv-x="475" 
d="M138 507h142c90 0 141 -30 141 -108c0 -77 -44 -123 -98 -136c48 -11 80 -46 80 -105c0 -102 -64 -158 -202 -158h-153zM240 280c106 0 137 54 137 119c0 47 -30 72 -103 72h-102l-34 -191h102zM207 36c111 0 155 42 155 122c0 53 -36 86 -121 86h-109l-37 -208h112z" />
    <glyph glyph-name="c.sc" horiz-adv-x="479" 
d="M104 189c0 -100 44 -160 131 -160c58 0 106 27 139 69l31 -26c-37 -47 -93 -80 -170 -80c-117 0 -174 65 -174 197c0 173 74 326 254 326c82 0 132 -34 151 -83l-36 -22c-18 44 -60 67 -116 67c-162 0 -210 -157 -210 -288z" />
    <glyph glyph-name="d.sc" horiz-adv-x="531" 
d="M138 507h133c135 0 208 -52 208 -185c0 -214 -86 -322 -294 -322h-137zM189 36c174 0 249 91 249 286c0 100 -53 149 -172 149h-94l-77 -435h94z" />
    <glyph glyph-name="e.sc" horiz-adv-x="444" 
d="M353 36l-6 -36h-299l90 507h295l-6 -36h-255l-34 -191h230l-6 -36h-230l-37 -208h258z" />
    <glyph glyph-name="f.sc" horiz-adv-x="436" 
d="M138 507h294l-6 -36h-254l-36 -206h219l-6 -36h-220l-40 -229h-41z" />
    <glyph glyph-name="g.sc" horiz-adv-x="517" 
d="M287 267h181c0 -7 -2 -22 -3 -28c-22 -137 -84 -247 -228 -247c-127 0 -177 69 -177 193c0 187 94 330 253 330c90 0 137 -32 162 -81l-36 -23c-24 45 -57 66 -126 66c-126 0 -212 -119 -212 -292c0 -95 36 -157 136 -157c117 0 170 94 186 202h-143z" />
    <glyph glyph-name="h.sc" horiz-adv-x="549" 
d="M470 507h40l-89 -507h-41l44 250h-292l-44 -250h-40l90 507h39l-39 -221h293z" />
    <glyph glyph-name="i.sc" horiz-adv-x="216" 
d="M138 507h39l-89 -507h-40z" />
    <glyph glyph-name="j.sc" horiz-adv-x="404" 
d="M39 85c18 -40 47 -56 91 -56c70 0 124 40 143 151l57 327h40l-58 -329c-24 -138 -89 -186 -182 -186c-65 0 -108 29 -125 72z" />
    <glyph glyph-name="k.sc" horiz-adv-x="486" 
d="M121 180l-32 -180h-41l90 507h40l-47 -271l316 271h58l-244 -210l154 -297h-48l-139 271z" />
    <glyph glyph-name="l.sc" horiz-adv-x="387" 
d="M329 36l-6 -36h-275l90 507h40l-83 -471h234z" />
    <glyph glyph-name="m.sc" horiz-adv-x="691" 
d="M553 507h57l-14 -507h-42l14 455l-238 -455h-44l-80 457l-148 -457h-44l166 507h58l77 -450z" />
    <glyph glyph-name="n.sc" horiz-adv-x="557" 
d="M479 507h40l-90 -507h-43l-220 447l-77 -447h-41l90 507h42l221 -447z" />
    <glyph glyph-name="o.sc" horiz-adv-x="536" 
d="M485 321c0 -215 -102 -329 -254 -329c-121 0 -171 73 -171 192c0 173 74 331 251 331c119 0 174 -70 174 -194zM101 184c0 -92 35 -155 130 -155c131 0 214 102 214 292c0 89 -36 156 -134 156c-156 0 -210 -146 -210 -293z" />
    <glyph glyph-name="p.sc" horiz-adv-x="455" 
d="M125 210l-37 -210h-40l90 507h151c101 0 145 -44 145 -124c0 -99 -61 -173 -195 -173h-114zM131 246h112c108 0 150 58 150 137c0 53 -31 88 -109 88h-113z" />
    <glyph glyph-name="q.sc" horiz-adv-x="527" 
d="M485 321c0 -109 -26 -191 -71 -247l47 -55l-29 -27l-46 54c-41 -36 -94 -54 -155 -54c-121 0 -171 73 -171 192c0 173 74 331 251 331c119 0 174 -70 174 -194zM231 29c52 0 96 16 130 47l-117 138l28 26l116 -135c36 49 57 122 57 216c0 89 -36 156 -134 156
c-156 0 -210 -146 -210 -293c0 -92 35 -155 130 -155z" />
    <glyph glyph-name="r.sc" horiz-adv-x="487" 
d="M138 507h165c105 0 154 -39 154 -116c0 -93 -63 -149 -171 -154l119 -237h-46l-115 234h-115l-42 -234h-39zM415 391c0 52 -36 80 -117 80h-127l-35 -200h127c108 0 152 44 152 120z" />
    <glyph glyph-name="s.sc" horiz-adv-x="448" 
d="M384 419c-18 37 -54 58 -113 58c-92 0 -139 -52 -139 -116c0 -38 21 -62 82 -81l48 -14c72 -21 116 -56 116 -123c0 -85 -65 -151 -193 -151c-121 0 -149 55 -160 98l39 19c9 -40 28 -80 121 -80c102 0 150 46 150 114c0 43 -27 66 -89 86l-47 15
c-71 22 -109 54 -109 117c0 82 66 154 181 154c89 0 133 -34 149 -74z" />
    <glyph glyph-name="t.sc" horiz-adv-x="425" 
d="M438 507l-6 -36h-157l-83 -471h-40l83 471h-158l6 36h355z" />
    <glyph glyph-name="u.sc" horiz-adv-x="536" 
d="M229 -8c-111 0 -177 51 -153 193l57 322h40l-58 -325c-20 -113 27 -153 118 -153c90 0 153 42 173 153l57 325h40l-57 -322c-25 -142 -101 -193 -217 -193z" />
    <glyph glyph-name="v.sc" horiz-adv-x="477" 
d="M496 507l-272 -507h-51l-94 507h42l83 -464l246 464h46z" />
    <glyph glyph-name="w.sc" horiz-adv-x="768" 
d="M455 507l61 -458l221 458h46l-248 -507h-51l-61 451l-219 -451h-50l-71 507h43l60 -458l222 458h47z" />
    <glyph glyph-name="x.sc" horiz-adv-x="457" 
d="M139 507l98 -215l176 215h52l-202 -245l123 -262h-47l-106 232l-189 -232h-52l215 262l-115 245h47z" />
    <glyph glyph-name="y.sc" horiz-adv-x="457" 
d="M168 0l37 206l-127 301h44l108 -261l197 261h51l-233 -301l-37 -206h-40z" />
    <glyph glyph-name="z.sc" horiz-adv-x="418" 
d="M411 474l-352 -438h278l-7 -36h-327l5 33l351 438h-257l6 36h309z" />
    <glyph glyph-name="agrave.sc" horiz-adv-x="486" 
d="M277 726l49 -147h-38l-56 147h45zM348 146h-235l-80 -146h-46l280 507h51l102 -507h-44zM132 182h210l-56 281z" />
    <glyph glyph-name="aacute.sc" horiz-adv-x="486" 
d="M435 726l-108 -147h-42l100 147h50zM348 146h-235l-80 -146h-46l280 507h51l102 -507h-44zM132 182h210l-56 281z" />
    <glyph glyph-name="acircumflex.sc" horiz-adv-x="486" 
d="M352 726l72 -147h-39l-58 113l-97 -113h-43l124 147h41zM348 146h-235l-80 -146h-46l280 507h51l102 -507h-44zM132 182h210l-56 281z" />
    <glyph glyph-name="atilde.sc" horiz-adv-x="486" 
d="M421 611c-11 16 -29 26 -47 26c-39 0 -77 -36 -131 -36c-26 0 -49 14 -56 27l15 34c10 -14 25 -24 48 -24c44 0 76 36 131 36c30 0 48 -17 56 -27zM348 146h-235l-80 -146h-46l280 507h51l102 -507h-44zM132 182h210l-56 281z" />
    <glyph glyph-name="adieresis.sc" horiz-adv-x="486" 
d="M231 611c-19 0 -33 11 -33 32c0 33 20 47 45 47c17 0 32 -11 32 -33c0 -32 -22 -46 -44 -46zM393 611c-19 0 -33 11 -33 32c0 33 20 47 45 47c17 0 32 -11 32 -33c0 -32 -22 -46 -44 -46zM348 146h-235l-80 -146h-46l280 507h51l102 -507h-44zM132 182h210l-56 281z" />
    <glyph glyph-name="amacron.sc" horiz-adv-x="486" 
d="M444 660l-7 -40h-250l8 40h249zM348 146h-235l-80 -146h-46l280 507h51l102 -507h-44zM132 182h210l-56 281z" />
    <glyph glyph-name="abreve.sc" horiz-adv-x="486" 
d="M443 699c-13 -74 -66 -125 -137 -125c-68 0 -108 51 -95 125h34c-9 -51 12 -90 65 -90c55 0 89 39 98 90h35zM348 146h-235l-80 -146h-46l280 507h51l102 -507h-44zM132 182h210l-56 281z" />
    <glyph glyph-name="aring.sc" horiz-adv-x="486" 
d="M223 638c0 63 46 103 109 103c49 0 82 -32 82 -75c0 -63 -46 -104 -110 -104c-49 0 -81 32 -81 76zM259 641c0 -29 18 -47 49 -47c41 0 70 27 70 69c0 29 -19 47 -50 47c-40 0 -69 -27 -69 -69zM348 146h-235l-80 -146h-46l280 507h51l102 -507h-44zM132 182h210l-56 281
z" />
    <glyph glyph-name="aringacute.sc" horiz-adv-x="486" 
d="M215 639c0 57 41 100 101 102l70 73h49l-80 -77c30 -9 51 -36 51 -73c0 -62 -48 -102 -109 -102c-52 0 -82 33 -82 77zM251 641c0 -29 18 -47 48 -47c42 0 70 27 70 69c0 29 -18 47 -49 47c-40 0 -69 -27 -69 -69zM348 146h-235l-80 -146h-46l280 507h51l102 -507h-44z
M132 182h210l-56 281z" />
    <glyph glyph-name="aogonek.sc" horiz-adv-x="487" 
d="M288 -138c0 -20 12 -42 44 -42c21 0 41 11 61 25l-7 -42c-13 -8 -33 -19 -62 -19c-50 0 -77 34 -77 72c0 45 28 75 60 98l68 51l-27 141h-235l-80 -146h-46l280 507h51l102 -507l-87 -66c-33 -26 -45 -45 -45 -72zM132 182h210l-56 281z" />
    <glyph glyph-name="ae.sc" horiz-adv-x="772" 
d="M681 36l-6 -36h-299l26 146h-223l-135 -146h-57l474 507h300l-6 -36h-255l-34 -191h230l-6 -36h-230l-37 -208h258zM408 182l47 262l-243 -262h196z" />
    <glyph glyph-name="aeacute.sc" horiz-adv-x="772" 
d="M697 726l-108 -147h-42l100 147h50zM681 36l-6 -36h-299l26 146h-223l-135 -146h-57l474 507h300l-6 -36h-255l-34 -191h230l-6 -36h-230l-37 -208h258zM408 182l47 262l-243 -262h196z" />
    <glyph glyph-name="cacute.sc" horiz-adv-x="479" 
d="M448 734l-108 -147h-42l100 147h50zM104 189c0 -100 44 -160 131 -160c58 0 106 27 139 69l31 -26c-37 -47 -93 -80 -170 -80c-117 0 -174 65 -174 197c0 173 74 326 254 326c82 0 132 -34 151 -83l-36 -22c-18 44 -60 67 -116 67c-162 0 -210 -157 -210 -288z" />
    <glyph glyph-name="ccircumflex.sc" horiz-adv-x="471" 
d="M374 726l72 -147h-39l-58 113l-97 -113h-43l124 147h41zM104 189c0 -100 44 -160 131 -160c58 0 106 27 139 69l31 -26c-37 -47 -93 -80 -170 -80c-117 0 -174 65 -174 197c0 173 74 326 254 326c82 0 132 -34 151 -83l-36 -22c-18 44 -60 67 -116 67
c-162 0 -210 -157 -210 -288z" />
    <glyph glyph-name="ccaron.sc" horiz-adv-x="471" 
d="M308 579l-72 147h39l58 -113l97 113h43l-124 -147h-41zM104 189c0 -100 44 -160 131 -160c58 0 106 27 139 69l31 -26c-37 -47 -93 -80 -170 -80c-117 0 -174 65 -174 197c0 173 74 326 254 326c82 0 132 -34 151 -83l-36 -22c-18 44 -60 67 -116 67
c-162 0 -210 -157 -210 -288z" />
    <glyph glyph-name="cdotaccent.sc" horiz-adv-x="471" 
d="M335 611c-19 0 -33 11 -33 32c0 33 20 47 45 47c17 0 32 -11 32 -33c0 -32 -22 -46 -44 -46zM104 189c0 -100 44 -160 131 -160c58 0 106 27 139 69l31 -26c-37 -47 -93 -80 -170 -80c-117 0 -174 65 -174 197c0 173 74 326 254 326c82 0 132 -34 151 -83l-36 -22
c-18 44 -60 67 -116 67c-162 0 -210 -157 -210 -288z" />
    <glyph glyph-name="ccedilla.sc" horiz-adv-x="469" 
d="M315 515c82 0 132 -34 151 -83l-36 -22c-18 44 -60 67 -116 67c-162 0 -210 -157 -210 -288c0 -100 44 -160 131 -160c58 0 106 27 139 69l31 -26c-34 -43 -84 -75 -152 -79l-31 -57c40 0 71 -18 71 -64s-32 -88 -99 -88c-27 0 -54 11 -71 22l7 38c17 -15 40 -24 67 -24
c36 0 55 22 55 47c0 29 -23 36 -55 36h-26l-1 4l43 86c-102 8 -152 72 -152 196c0 173 74 326 254 326z" />
    <glyph glyph-name="dcaron.sc" horiz-adv-x="531" 
d="M287 579l-72 147h39l58 -113l97 113h43l-124 -147h-41zM138 507h133c135 0 208 -52 208 -185c0 -214 -86 -322 -294 -322h-137zM189 36c174 0 249 91 249 286c0 100 -53 149 -172 149h-94l-77 -435h94z" />
    <glyph glyph-name="dcroat.sc" horiz-adv-x="537" 
d="M286 507c135 0 208 -52 208 -185c0 -214 -86 -322 -294 -322h-137l43 240h-73l7 36h72l41 231h133zM204 36c174 0 249 91 249 286c0 100 -53 149 -172 149h-94l-35 -195h109l-7 -36h-108l-36 -204h94z" />
    <glyph glyph-name="eth.sc" horiz-adv-x="537" 
d="M286 507c135 0 208 -52 208 -185c0 -214 -86 -322 -294 -322h-137l43 240h-73l7 36h72l41 231h133zM204 36c174 0 249 91 249 286c0 100 -53 149 -172 149h-94l-35 -195h109l-7 -36h-108l-36 -204h94z" />
    <glyph glyph-name="egrave.sc" horiz-adv-x="444" 
d="M270 726l49 -147h-38l-56 147h45zM353 36l-6 -36h-299l90 507h295l-6 -36h-255l-34 -191h230l-6 -36h-230l-37 -208h258z" />
    <glyph glyph-name="eacute.sc" horiz-adv-x="435" 
d="M422 726l-108 -147h-42l100 147h50zM353 36l-6 -36h-299l90 507h295l-6 -36h-255l-34 -191h230l-6 -36h-230l-37 -208h258z" />
    <glyph glyph-name="ecircumflex.sc" horiz-adv-x="435" 
d="M341 726l72 -147h-39l-58 113l-97 -113h-43l124 147h41zM353 36l-6 -36h-299l90 507h295l-6 -36h-255l-34 -191h230l-6 -36h-230l-37 -208h258z" />
    <glyph glyph-name="ecaron.sc" horiz-adv-x="435" 
d="M274 579l-72 147h39l58 -113l97 113h43l-124 -147h-41zM353 36l-6 -36h-299l90 507h295l-6 -36h-255l-34 -191h230l-6 -36h-230l-37 -208h258z" />
    <glyph glyph-name="edieresis.sc" horiz-adv-x="435" 
d="M220 611c-19 0 -33 11 -33 32c0 33 20 47 45 47c17 0 32 -11 32 -33c0 -32 -22 -46 -44 -46zM382 611c-19 0 -33 11 -33 32c0 33 20 47 45 47c17 0 32 -11 32 -33c0 -32 -22 -46 -44 -46zM353 36l-6 -36h-299l90 507h295l-6 -36h-255l-34 -191h230l-6 -36h-230l-37 -208
h258z" />
    <glyph glyph-name="emacron.sc" horiz-adv-x="435" 
d="M433 660l-7 -40h-250l8 40h249zM353 36l-6 -36h-299l90 507h295l-6 -36h-255l-34 -191h230l-6 -36h-230l-37 -208h258z" />
    <glyph glyph-name="ebreve.sc" horiz-adv-x="435" 
d="M432 699c-13 -74 -66 -125 -137 -125c-68 0 -108 51 -95 125h34c-9 -51 12 -90 65 -90c55 0 89 39 98 90h35zM353 36l-6 -36h-299l90 507h295l-6 -36h-255l-34 -191h230l-6 -36h-230l-37 -208h258z" />
    <glyph glyph-name="edotaccent.sc" horiz-adv-x="435" 
d="M301 611c-19 0 -33 11 -33 32c0 33 20 47 45 47c17 0 32 -11 32 -33c0 -32 -22 -46 -44 -46zM353 36l-6 -36h-299l90 507h295l-6 -36h-255l-34 -191h230l-6 -36h-230l-37 -208h258z" />
    <glyph glyph-name="eogonek.sc" horiz-adv-x="434" 
d="M426 471h-255l-34 -191h230l-6 -36h-230l-37 -208h258l-6 -36l-87 -66c-33 -26 -45 -45 -45 -72c0 -20 12 -42 44 -42c21 0 41 11 61 25l-7 -42c-13 -8 -33 -19 -62 -19c-50 0 -77 34 -77 72c0 45 28 75 60 98l62 46h-248l90 507h295z" />
    <glyph glyph-name="gcircumflex.sc" horiz-adv-x="517" 
d="M376 726l72 -147h-39l-58 113l-97 -113h-43l124 147h41zM287 267h181c0 -7 -2 -22 -3 -28c-22 -137 -84 -247 -228 -247c-127 0 -177 69 -177 193c0 187 94 330 253 330c90 0 137 -32 162 -81l-36 -23c-24 45 -57 66 -126 66c-126 0 -212 -119 -212 -292
c0 -95 36 -157 136 -157c117 0 170 94 186 202h-143z" />
    <glyph glyph-name="gbreve.sc" horiz-adv-x="508" 
d="M467 699c-13 -74 -66 -125 -137 -125c-68 0 -108 51 -95 125h34c-9 -51 12 -90 65 -90c55 0 89 39 98 90h35zM287 267h181c0 -7 -2 -22 -3 -28c-22 -137 -84 -247 -228 -247c-127 0 -177 69 -177 193c0 187 94 330 253 330c90 0 137 -32 162 -81l-36 -23
c-24 45 -57 66 -126 66c-126 0 -212 -119 -212 -292c0 -95 36 -157 136 -157c117 0 170 94 186 202h-143z" />
    <glyph glyph-name="gdotaccent.sc" horiz-adv-x="508" 
d="M337 611c-19 0 -33 11 -33 32c0 33 20 47 45 47c17 0 32 -11 32 -33c0 -32 -22 -46 -44 -46zM287 267h181c0 -7 -2 -22 -3 -28c-22 -137 -84 -247 -228 -247c-127 0 -177 69 -177 193c0 187 94 330 253 330c90 0 137 -32 162 -81l-36 -23c-24 45 -57 66 -126 66
c-126 0 -212 -119 -212 -292c0 -95 36 -157 136 -157c117 0 170 94 186 202h-143z" />
    <glyph glyph-name="uni0123.sc" horiz-adv-x="508" 
d="M287 267h181c0 -7 -2 -22 -3 -28c-22 -137 -84 -247 -228 -247c-127 0 -177 69 -177 193c0 187 94 330 253 330c90 0 137 -32 162 -81l-36 -23c-24 45 -57 66 -126 66c-126 0 -212 -119 -212 -292c0 -95 36 -157 136 -157c117 0 170 94 186 202h-143zM178 -216h-33
l49 143h50z" />
    <glyph glyph-name="hcircumflex.sc" horiz-adv-x="549" 
d="M384 726l72 -147h-39l-58 113l-97 -113h-43l124 147h41zM470 507h40l-89 -507h-41l44 250h-292l-44 -250h-40l90 507h39l-39 -221h293z" />
    <glyph glyph-name="hbar.sc" horiz-adv-x="550" 
d="M122 411l17 96h38l-17 -96h295l17 96h39l-17 -96h41l-6 -36h-41l-66 -375h-40l44 250h-294l-44 -250h-39l66 375h-46l6 36h47zM448 375h-294l-16 -89h295z" />
    <glyph glyph-name="igrave.sc" horiz-adv-x="216" 
d="M142 726l49 -147h-38l-56 147h45zM138 507h39l-89 -507h-40z" />
    <glyph glyph-name="iacute.sc" horiz-adv-x="216" 
d="M308 726l-108 -147h-42l100 147h50zM147 507h39l-89 -507h-40z" />
    <glyph glyph-name="ibreve.sc" horiz-adv-x="216" 
d="M317 699c-13 -74 -66 -125 -137 -125c-68 0 -108 51 -95 125h34c-9 -51 12 -90 65 -90c55 0 89 39 98 90h35zM147 507h39l-89 -507h-40z" />
    <glyph glyph-name="icircumflex.sc" horiz-adv-x="216" 
d="M226 726l72 -147h-39l-58 113l-97 -113h-43l124 147h41zM147 507h39l-89 -507h-40z" />
    <glyph glyph-name="itilde.sc" horiz-adv-x="216" 
d="M299 611c-11 16 -29 26 -47 26c-39 0 -77 -36 -131 -36c-26 0 -49 14 -56 27l15 34c10 -14 25 -24 48 -24c44 0 76 36 131 36c30 0 48 -17 56 -27zM147 507h39l-89 -507h-40z" />
    <glyph glyph-name="idieresis.sc" horiz-adv-x="216" 
d="M105 611c-19 0 -33 11 -33 32c0 33 20 47 45 47c17 0 32 -11 32 -33c0 -32 -22 -46 -44 -46zM267 611c-19 0 -33 11 -33 32c0 33 20 47 45 47c17 0 32 -11 32 -33c0 -32 -22 -46 -44 -46zM147 507h39l-89 -507h-40z" />
    <glyph glyph-name="imacron.sc" horiz-adv-x="216" 
d="M318 660l-7 -40h-250l8 40h249zM147 507h39l-89 -507h-40z" />
    <glyph glyph-name="i.sc.loclTRK" horiz-adv-x="216" 
d="M177 611c-19 0 -33 11 -33 32c0 33 20 47 45 47c17 0 32 -11 32 -33c0 -32 -22 -46 -44 -46zM138 507h39l-89 -507h-40z" />
    <glyph glyph-name="iogonek.sc" horiz-adv-x="207" 
d="M1 -66c-33 -26 -45 -45 -45 -72c0 -20 12 -42 44 -42c21 0 41 11 61 25l-7 -42c-13 -8 -33 -19 -62 -19c-50 0 -77 34 -77 72c0 45 28 75 60 98l75 56l88 497h39l-89 -507z" />
    <glyph glyph-name="jcircumflex.sc" horiz-adv-x="404" 
d="M404 726l72 -147h-39l-58 113l-97 -113h-43l124 147h41zM39 85c18 -40 47 -56 91 -56c70 0 124 40 143 151l57 327h40l-58 -329c-24 -138 -89 -186 -182 -186c-65 0 -108 29 -125 72z" />
    <glyph glyph-name="uni0137.sc" horiz-adv-x="486" 
d="M121 180l-32 -180h-41l90 507h40l-47 -271l316 271h58l-244 -210l154 -297h-48l-139 271zM143 -216h-33l49 143h50z" />
    <glyph glyph-name="lacute.sc" horiz-adv-x="387" 
d="M285 726l-108 -147h-42l100 147h50zM329 36l-6 -36h-275l90 507h40l-83 -471h234z" />
    <glyph glyph-name="lcaron.sc" horiz-adv-x="387" 
d="M329 36l-6 -36h-275l90 507h40l-83 -471h234zM346 364h-34l49 143h50z" />
    <glyph glyph-name="uni013C.sc" horiz-adv-x="378" 
d="M329 36l-6 -36h-275l90 507h40l-83 -471h234zM122 -216h-33l49 143h50z" />
    <glyph glyph-name="lslash.sc" horiz-adv-x="396" 
d="M339 36l-6 -36h-275l38 213l-70 -28l7 40l70 28l45 254h39l-41 -237l82 34l-7 -40l-83 -34l-34 -194h235z" />
    <glyph glyph-name="ldot.sc" horiz-adv-x="412" 
d="M329 36l-6 -36h-275l90 507h40l-83 -471h234zM309 231c-19 0 -33 11 -33 32c0 33 20 47 45 47c17 0 32 -11 32 -33c0 -32 -22 -46 -44 -46z" />
    <glyph glyph-name="nacute.sc" horiz-adv-x="557" 
d="M456 726l-108 -147h-42l100 147h50zM479 507h40l-90 -507h-43l-220 447l-77 -447h-41l90 507h42l221 -447z" />
    <glyph glyph-name="ncaron.sc" horiz-adv-x="557" 
d="M321 579l-72 147h39l58 -113l97 113h43l-124 -147h-41zM479 507h40l-90 -507h-43l-220 447l-77 -447h-41l90 507h42l221 -447z" />
    <glyph glyph-name="ntilde.sc" horiz-adv-x="557" 
d="M461 611c-11 16 -29 26 -47 26c-39 0 -77 -36 -131 -36c-26 0 -49 14 -56 27l15 34c10 -14 25 -24 48 -24c44 0 76 36 131 36c30 0 48 -17 56 -27zM479 507h40l-90 -507h-43l-220 447l-77 -447h-41l90 507h42l221 -447z" />
    <glyph glyph-name="uni0146.sc" horiz-adv-x="557" 
d="M479 507h40l-90 -507h-43l-220 447l-77 -447h-41l90 507h42l221 -447zM188 -216h-33l49 143h50z" />
    <glyph glyph-name="ograve.sc" horiz-adv-x="536" 
d="M308 726l49 -147h-38l-56 147h45zM485 321c0 -215 -102 -329 -254 -329c-121 0 -171 73 -171 192c0 173 74 331 251 331c119 0 174 -70 174 -194zM101 184c0 -92 35 -155 130 -155c131 0 214 102 214 292c0 89 -36 156 -134 156c-156 0 -210 -146 -210 -293z" />
    <glyph glyph-name="oacute.sc" horiz-adv-x="536" 
d="M459 726l-108 -147h-42l100 147h50zM485 321c0 -215 -102 -329 -254 -329c-121 0 -171 73 -171 192c0 173 74 331 251 331c119 0 174 -70 174 -194zM101 184c0 -92 35 -155 130 -155c131 0 214 102 214 292c0 89 -36 156 -134 156c-156 0 -210 -146 -210 -293z" />
    <glyph glyph-name="ocircumflex.sc" horiz-adv-x="536" 
d="M377 726l72 -147h-39l-58 113l-97 -113h-43l124 147h41zM485 321c0 -215 -102 -329 -254 -329c-121 0 -171 73 -171 192c0 173 74 331 251 331c119 0 174 -70 174 -194zM101 184c0 -92 35 -155 130 -155c131 0 214 102 214 292c0 89 -36 156 -134 156
c-156 0 -210 -146 -210 -293z" />
    <glyph glyph-name="otilde.sc" horiz-adv-x="536" 
d="M450 611c-11 16 -29 26 -47 26c-39 0 -77 -36 -131 -36c-26 0 -49 14 -56 27l15 34c10 -14 25 -24 48 -24c44 0 76 36 131 36c30 0 48 -17 56 -27zM485 321c0 -215 -102 -329 -254 -329c-121 0 -171 73 -171 192c0 173 74 331 251 331c119 0 174 -70 174 -194zM101 184
c0 -92 35 -155 130 -155c131 0 214 102 214 292c0 89 -36 156 -134 156c-156 0 -210 -146 -210 -293z" />
    <glyph glyph-name="odieresis.sc" horiz-adv-x="536" 
d="M256 611c-19 0 -33 11 -33 32c0 33 20 47 45 47c17 0 32 -11 32 -33c0 -32 -22 -46 -44 -46zM418 611c-19 0 -33 11 -33 32c0 33 20 47 45 47c17 0 32 -11 32 -33c0 -32 -22 -46 -44 -46zM485 321c0 -215 -102 -329 -254 -329c-121 0 -171 73 -171 192
c0 173 74 331 251 331c119 0 174 -70 174 -194zM101 184c0 -92 35 -155 130 -155c131 0 214 102 214 292c0 89 -36 156 -134 156c-156 0 -210 -146 -210 -293z" />
    <glyph glyph-name="omacron.sc" horiz-adv-x="536" 
d="M469 660l-7 -40h-250l8 40h249zM485 321c0 -215 -102 -329 -254 -329c-121 0 -171 73 -171 192c0 173 74 331 251 331c119 0 174 -70 174 -194zM101 184c0 -92 35 -155 130 -155c131 0 214 102 214 292c0 89 -36 156 -134 156c-156 0 -210 -146 -210 -293z" />
    <glyph glyph-name="obreve.sc" horiz-adv-x="536" 
d="M467 699c-13 -74 -66 -125 -137 -125c-68 0 -108 51 -95 125h34c-9 -51 12 -90 65 -90c55 0 89 39 98 90h35zM485 321c0 -215 -102 -329 -254 -329c-121 0 -171 73 -171 192c0 173 74 331 251 331c119 0 174 -70 174 -194zM101 184c0 -92 35 -155 130 -155
c131 0 214 102 214 292c0 89 -36 156 -134 156c-156 0 -210 -146 -210 -293z" />
    <glyph glyph-name="ohungarumlaut.sc" horiz-adv-x="536" 
d="M394 726l-108 -147h-41l101 147h48zM519 726l-109 -147h-40l101 147h48zM485 321c0 -215 -102 -329 -254 -329c-121 0 -171 73 -171 192c0 173 74 331 251 331c119 0 174 -70 174 -194zM101 184c0 -92 35 -155 130 -155c131 0 214 102 214 292c0 89 -36 156 -134 156
c-156 0 -210 -146 -210 -293z" />
    <glyph glyph-name="oslash.sc" horiz-adv-x="536" 
d="M523 507l-62 -69c16 -31 24 -70 24 -117c0 -215 -102 -329 -254 -329c-59 0 -101 17 -128 49l-37 -41h-50l65 73c-14 30 -21 67 -21 111c0 173 74 331 251 331c56 0 98 -16 127 -45l33 37h52zM101 184c0 -29 3 -55 11 -77l298 332c-22 24 -54 38 -99 38
c-156 0 -210 -146 -210 -293zM445 321c0 31 -4 60 -14 84l-300 -333c20 -27 53 -43 100 -43c131 0 214 102 214 292z" />
    <glyph glyph-name="oslashacute.sc" horiz-adv-x="536" 
d="M457 726l-108 -147h-42l100 147h50zM523 507l-62 -69c16 -31 24 -70 24 -117c0 -215 -102 -329 -254 -329c-59 0 -101 17 -128 49l-37 -41h-50l65 73c-14 30 -21 67 -21 111c0 173 74 331 251 331c56 0 98 -16 127 -45l33 37h52zM101 184c0 -29 3 -55 11 -77l298 332
c-22 24 -54 38 -99 38c-156 0 -210 -146 -210 -293zM445 321c0 31 -4 60 -14 84l-300 -333c20 -27 53 -43 100 -43c131 0 214 102 214 292z" />
    <glyph glyph-name="oe.sc" horiz-adv-x="697" 
d="M606 36l-7 -36h-295c-21 -6 -43 -8 -72 -8c-132 0 -172 84 -172 192c0 182 79 331 251 331c28 0 56 -2 79 -8h296l-6 -36h-256l-33 -191h230l-6 -36h-230l-37 -208h258zM232 29c29 0 54 4 76 13l74 423c-19 8 -42 12 -71 12c-154 0 -210 -138 -210 -294
c0 -87 35 -154 131 -154z" />
    <glyph glyph-name="racute.sc" horiz-adv-x="487" 
d="M413 726l-108 -147h-42l100 147h50zM138 507h165c105 0 154 -39 154 -116c0 -93 -63 -149 -171 -154l119 -237h-46l-115 234h-115l-42 -234h-39zM415 391c0 52 -36 80 -117 80h-127l-35 -200h127c108 0 152 44 152 120z" />
    <glyph glyph-name="rcaron.sc" horiz-adv-x="487" 
d="M267 579l-72 147h39l58 -113l97 113h43l-124 -147h-41zM138 507h165c105 0 154 -39 154 -116c0 -93 -63 -149 -171 -154l119 -237h-46l-115 234h-115l-42 -234h-39zM415 391c0 52 -36 80 -117 80h-127l-35 -200h127c108 0 152 44 152 120z" />
    <glyph glyph-name="uni0157.sc" horiz-adv-x="487" 
d="M138 507h165c105 0 154 -39 154 -116c0 -93 -63 -149 -171 -154l119 -237h-46l-115 234h-115l-42 -234h-39zM415 391c0 52 -36 80 -117 80h-127l-35 -200h127c108 0 152 44 152 120zM137 -216h-33l49 143h50z" />
    <glyph glyph-name="sacute.sc" horiz-adv-x="448" 
d="M414 726l-108 -147h-42l100 147h50zM384 419c-18 37 -54 58 -113 58c-92 0 -139 -52 -139 -116c0 -38 21 -62 82 -81l48 -14c72 -21 116 -56 116 -123c0 -85 -65 -151 -193 -151c-121 0 -149 55 -160 98l39 19c9 -40 28 -80 121 -80c102 0 150 46 150 114
c0 43 -27 66 -89 86l-47 15c-71 22 -109 54 -109 117c0 82 66 154 181 154c89 0 133 -34 149 -74z" />
    <glyph glyph-name="scircumflex.sc" horiz-adv-x="448" 
d="M333 726l72 -147h-39l-58 113l-97 -113h-43l124 147h41zM384 419c-18 37 -54 58 -113 58c-92 0 -139 -52 -139 -116c0 -38 21 -62 82 -81l48 -14c72 -21 116 -56 116 -123c0 -85 -65 -151 -193 -151c-121 0 -149 55 -160 98l39 19c9 -40 28 -80 121 -80
c102 0 150 46 150 114c0 43 -27 66 -89 86l-47 15c-71 22 -109 54 -109 117c0 82 66 154 181 154c89 0 133 -34 149 -74z" />
    <glyph glyph-name="scaron.sc" horiz-adv-x="448" 
d="M266 579l-72 147h39l58 -113l97 113h43l-124 -147h-41zM384 419c-18 37 -54 58 -113 58c-92 0 -139 -52 -139 -116c0 -38 21 -62 82 -81l48 -14c72 -21 116 -56 116 -123c0 -85 -65 -151 -193 -151c-121 0 -149 55 -160 98l39 19c9 -40 28 -80 121 -80
c102 0 150 46 150 114c0 43 -27 66 -89 86l-47 15c-71 22 -109 54 -109 117c0 82 66 154 181 154c89 0 133 -34 149 -74z" />
    <glyph glyph-name="scedilla.sc" horiz-adv-x="448" 
d="M271 477c-92 0 -139 -52 -139 -116c0 -38 21 -62 82 -81l48 -14c72 -21 116 -56 116 -123c0 -80 -57 -143 -170 -150l-31 -57c40 0 71 -18 71 -64s-32 -88 -99 -88c-27 0 -54 11 -71 22l7 38c17 -15 40 -24 67 -24c36 0 55 22 55 47c0 29 -23 36 -55 36h-26l-1 4l43 85
c-107 5 -133 57 -143 98l39 19c9 -40 28 -80 121 -80c102 0 150 46 150 114c0 43 -27 66 -89 86l-47 15c-71 22 -109 54 -109 117c0 82 66 154 181 154c89 0 133 -34 149 -74l-36 -22c-18 37 -54 58 -113 58z" />
    <glyph glyph-name="uni0219.sc" horiz-adv-x="448" 
d="M384 419c-18 37 -54 58 -113 58c-92 0 -139 -52 -139 -116c0 -38 21 -62 82 -81l48 -14c72 -21 116 -56 116 -123c0 -85 -65 -151 -193 -151c-121 0 -149 55 -160 98l39 19c9 -40 28 -80 121 -80c102 0 150 46 150 114c0 43 -27 66 -89 86l-47 15
c-71 22 -109 54 -109 117c0 82 66 154 181 154c89 0 133 -34 149 -74zM132 -216h-33l49 143h50z" />
    <glyph glyph-name="tcaron.sc" horiz-adv-x="425" 
d="M254 579l-72 147h39l58 -113l97 113h43l-124 -147h-41zM438 507l-6 -36h-157l-83 -471h-40l83 471h-158l6 36h355z" />
    <glyph glyph-name="uni021B.sc" horiz-adv-x="425" 
d="M438 507l-6 -36h-157l-83 -471h-40l83 471h-158l6 36h355zM117 -216h-33l49 143h50z" />
    <glyph glyph-name="tbar.sc" horiz-adv-x="425" 
d="M200 270l35 201h-158l6 36h355l-6 -36h-157l-36 -201h90l-6 -36h-90l-41 -234h-40l41 234h-91l6 36h92z" />
    <glyph glyph-name="thorn.sc" horiz-adv-x="457" 
d="M106 105l-18 -105h-40l90 507h39l-18 -105h111c95 0 146 -38 146 -124c0 -96 -59 -173 -194 -173h-116zM113 141h113c108 0 149 61 149 137c0 54 -32 88 -110 88h-113z" />
    <glyph glyph-name="ugrave.sc" horiz-adv-x="536" 
d="M302 726l49 -147h-38l-56 147h45zM229 -8c-111 0 -177 51 -153 193l57 322h40l-58 -325c-20 -113 27 -153 118 -153c90 0 153 42 173 153l57 325h40l-57 -322c-25 -142 -101 -193 -217 -193z" />
    <glyph glyph-name="uacute.sc" horiz-adv-x="536" 
d="M445 726l-108 -147h-42l100 147h50zM229 -8c-111 0 -177 51 -153 193l57 322h40l-58 -325c-20 -113 27 -153 118 -153c90 0 153 42 173 153l57 325h40l-57 -322c-25 -142 -101 -193 -217 -193z" />
    <glyph glyph-name="ucircumflex.sc" horiz-adv-x="536" 
d="M376 726l72 -147h-39l-58 113l-97 -113h-43l124 147h41zM229 -8c-111 0 -177 51 -153 193l57 322h40l-58 -325c-20 -113 27 -153 118 -153c90 0 153 42 173 153l57 325h40l-57 -322c-25 -142 -101 -193 -217 -193z" />
    <glyph glyph-name="utilde.sc" horiz-adv-x="536" 
d="M450 611c-11 16 -29 26 -47 26c-39 0 -77 -36 -131 -36c-26 0 -49 14 -56 27l15 34c10 -14 25 -24 48 -24c44 0 76 36 131 36c30 0 48 -17 56 -27zM229 -8c-111 0 -177 51 -153 193l57 322h40l-58 -325c-20 -113 27 -153 118 -153c90 0 153 42 173 153l57 325h40
l-57 -322c-25 -142 -101 -193 -217 -193z" />
    <glyph glyph-name="udieresis.sc" horiz-adv-x="536" 
d="M256 611c-19 0 -33 11 -33 32c0 33 20 47 45 47c17 0 32 -11 32 -33c0 -32 -22 -46 -44 -46zM418 611c-19 0 -33 11 -33 32c0 33 20 47 45 47c17 0 32 -11 32 -33c0 -32 -22 -46 -44 -46zM229 -8c-111 0 -177 51 -153 193l57 322h40l-58 -325c-20 -113 27 -153 118 -153
c90 0 153 42 173 153l57 325h40l-57 -322c-25 -142 -101 -193 -217 -193z" />
    <glyph glyph-name="umacron.sc" horiz-adv-x="536" 
d="M469 660l-7 -40h-250l8 40h249zM229 -8c-111 0 -177 51 -153 193l57 322h40l-58 -325c-20 -113 27 -153 118 -153c90 0 153 42 173 153l57 325h40l-57 -322c-25 -142 -101 -193 -217 -193z" />
    <glyph glyph-name="ubreve.sc" horiz-adv-x="536" 
d="M468 699c-13 -74 -66 -125 -137 -125c-68 0 -108 51 -95 125h34c-9 -51 12 -90 65 -90c55 0 89 39 98 90h35zM229 -8c-111 0 -177 51 -153 193l57 322h40l-58 -325c-20 -113 27 -153 118 -153c90 0 153 42 173 153l57 325h40l-57 -322c-25 -142 -101 -193 -217 -193z" />
    <glyph glyph-name="uring.sc" horiz-adv-x="536" 
d="M248 638c0 63 46 103 109 103c49 0 82 -32 82 -75c0 -63 -46 -104 -110 -104c-49 0 -81 32 -81 76zM284 641c0 -29 18 -47 49 -47c41 0 70 27 70 69c0 29 -19 47 -50 47c-40 0 -69 -27 -69 -69zM229 -8c-111 0 -177 51 -153 193l57 322h40l-58 -325
c-20 -113 27 -153 118 -153c90 0 153 42 173 153l57 325h40l-57 -322c-25 -142 -101 -193 -217 -193z" />
    <glyph glyph-name="uhungarumlaut.sc" horiz-adv-x="536" 
d="M393 726l-108 -147h-41l101 147h48zM518 726l-109 -147h-40l101 147h48zM229 -8c-111 0 -177 51 -153 193l57 322h40l-58 -325c-20 -113 27 -153 118 -153c90 0 153 42 173 153l57 325h40l-57 -322c-25 -142 -101 -193 -217 -193z" />
    <glyph glyph-name="uogonek.sc" horiz-adv-x="536" 
d="M463 507h40l-57 -322c-21 -118 -76 -173 -161 -188l-76 -58c-33 -26 -45 -45 -45 -72c0 -20 12 -42 44 -42c21 0 41 11 61 25l-7 -42c-13 -8 -33 -19 -62 -19c-50 0 -77 34 -77 72c0 45 28 75 60 98l44 33c-110 0 -175 52 -151 193l57 322h40l-58 -325
c-20 -113 27 -153 118 -153c90 0 153 42 173 153z" />
    <glyph glyph-name="wacute.sc" horiz-adv-x="768" 
d="M559 726l-108 -147h-42l100 147h50zM455 507l61 -458l221 458h46l-248 -507h-51l-61 451l-219 -451h-50l-71 507h43l60 -458l222 458h47z" />
    <glyph glyph-name="wcircumflex.sc" horiz-adv-x="768" 
d="M490 726l72 -147h-39l-58 113l-97 -113h-43l124 147h41zM455 507l61 -458l221 458h46l-248 -507h-51l-61 451l-219 -451h-50l-71 507h43l60 -458l222 458h47z" />
    <glyph glyph-name="wdieresis.sc" horiz-adv-x="768" 
d="M369 611c-19 0 -33 11 -33 32c0 33 20 47 45 47c17 0 32 -11 32 -33c0 -32 -22 -46 -44 -46zM531 611c-19 0 -33 11 -33 32c0 33 20 47 45 47c17 0 32 -11 32 -33c0 -32 -22 -46 -44 -46zM455 507l61 -458l221 458h46l-248 -507h-51l-61 451l-219 -451h-50l-71 507h43
l60 -458l222 458h47z" />
    <glyph glyph-name="wgrave.sc" horiz-adv-x="768" 
d="M412 726l49 -147h-38l-56 147h45zM455 507l61 -458l221 458h46l-248 -507h-51l-61 451l-219 -451h-50l-71 507h43l60 -458l222 458h47z" />
    <glyph glyph-name="yacute.sc" horiz-adv-x="457" 
d="M403 726l-108 -147h-42l100 147h50zM168 0l37 206l-127 301h44l108 -261l197 261h51l-233 -301l-37 -206h-40z" />
    <glyph glyph-name="ycircumflex.sc" horiz-adv-x="457" 
d="M334 726l72 -147h-39l-58 113l-97 -113h-43l124 147h41zM168 0l37 206l-127 301h44l108 -261l197 261h51l-233 -301l-37 -206h-40z" />
    <glyph glyph-name="ydieresis.sc" horiz-adv-x="457" 
d="M213 611c-19 0 -33 11 -33 32c0 33 20 47 45 47c17 0 32 -11 32 -33c0 -32 -22 -46 -44 -46zM375 611c-19 0 -33 11 -33 32c0 33 20 47 45 47c17 0 32 -11 32 -33c0 -32 -22 -46 -44 -46zM168 0l37 206l-127 301h44l108 -261l197 261h51l-233 -301l-37 -206h-40z" />
    <glyph glyph-name="ygrave.sc" horiz-adv-x="457" 
d="M263 726l49 -147h-38l-56 147h45zM168 0l37 206l-127 301h44l108 -261l197 261h51l-233 -301l-37 -206h-40z" />
    <glyph glyph-name="zacute.sc" horiz-adv-x="418" 
d="M390 726l-108 -147h-42l100 147h50zM411 474l-352 -438h278l-7 -36h-327l5 33l351 438h-257l6 36h309z" />
    <glyph glyph-name="zcaron.sc" horiz-adv-x="418" 
d="M250 579l-72 147h39l58 -113l97 113h43l-124 -147h-41zM411 474l-352 -438h278l-7 -36h-327l5 33l351 438h-257l6 36h309z" />
    <glyph glyph-name="zdotaccent.sc" horiz-adv-x="418" 
d="M277 611c-19 0 -33 11 -33 32c0 33 20 47 45 47c17 0 32 -11 32 -33c0 -32 -22 -46 -44 -46zM411 474l-352 -438h278l-7 -36h-327l5 33l351 438h-257l6 36h309z" />
    <glyph glyph-name="ij.sc" horiz-adv-x="620" 
d="M138 507h39l-89 -507h-40zM255 85c18 -40 47 -56 91 -56c70 0 124 40 143 151l57 327h40l-58 -329c-24 -138 -89 -186 -182 -186c-65 0 -108 29 -125 72z" />
    <glyph glyph-name="germandbls.sc" horiz-adv-x="527" 
d="M478 460l-6 -32l-173 -139l69 -30c53 -23 86 -63 86 -128c0 -87 -64 -137 -167 -137c-94 0 -135 44 -151 77l35 20c14 -30 47 -61 118 -61c77 0 124 38 124 97c0 48 -18 79 -65 99l-99 43l4 31l178 142c-30 21 -71 35 -124 35c-97 0 -146 -52 -164 -153l-59 -324h-40
l61 331c24 130 98 184 204 184c71 0 129 -21 169 -55z" />
    <glyph glyph-name="fi.sc" horiz-adv-x="652" 
d="M138 507h294l-6 -36h-254l-36 -206h219l-6 -36h-220l-40 -229h-41zM574 507h39l-89 -507h-40z" />
    <glyph glyph-name="fl.sc" horiz-adv-x="823" 
d="M138 507h294l-6 -36h-254l-36 -206h219l-6 -36h-220l-40 -229h-41zM765 36l-6 -36h-275l90 507h40l-83 -471h234z" />
    <glyph glyph-name="eng.sc" horiz-adv-x="557" 
d="M478 507h40l-94 -532c-13 -71 -37 -126 -113 -149l-12 34c58 20 74 50 89 135l-222 452l-78 -447h-41l90 507h42l220 -449z" />
    <glyph glyph-name="grave.sc" horiz-adv-x="570" 
d="M407 726l49 -147h-38l-56 147h45z" />
    <glyph glyph-name="acute.sc" horiz-adv-x="570" 
d="M484 726l-108 -147h-42l100 147h50z" />
    <glyph glyph-name="circumflex.sc" horiz-adv-x="570" 
d="M442 726l72 -147h-39l-58 113l-97 -113h-43l124 147h41z" />
    <glyph glyph-name="caron.sc" horiz-adv-x="570" 
d="M375 579l-72 147h39l58 -113l97 113h43l-124 -147h-41z" />
    <glyph glyph-name="caronalt.sc" horiz-adv-x="570" 
d="M355 364h-34l49 143h50z" />
    <glyph glyph-name="tilde.sc" horiz-adv-x="570" 
d="M515 611c-11 16 -29 26 -47 26c-39 0 -77 -36 -131 -36c-26 0 -49 14 -56 27l15 34c10 -14 25 -24 48 -24c44 0 76 36 131 36c30 0 48 -17 56 -27z" />
    <glyph glyph-name="dieresis.sc" horiz-adv-x="570" 
d="M322 611c-19 0 -33 11 -33 32c0 33 20 47 45 47c17 0 32 -11 32 -33c0 -32 -22 -46 -44 -46zM484 611c-19 0 -33 11 -33 32c0 33 20 47 45 47c17 0 32 -11 32 -33c0 -32 -22 -46 -44 -46z" />
    <glyph glyph-name="macron.sc" horiz-adv-x="570" 
d="M535 660l-7 -40h-250l8 40h249z" />
    <glyph glyph-name="breve.sc" horiz-adv-x="570" 
d="M533 699c-13 -74 -66 -125 -137 -125c-68 0 -108 51 -95 125h34c-9 -51 12 -90 65 -90c55 0 89 39 98 90h35z" />
    <glyph glyph-name="ring.sc" horiz-adv-x="570" 
d="M313 638c0 63 46 103 109 103c49 0 82 -32 82 -75c0 -63 -46 -104 -110 -104c-49 0 -81 32 -81 76zM349 641c0 -29 18 -47 49 -47c41 0 70 27 70 69c0 29 -19 47 -50 47c-40 0 -69 -27 -69 -69z" />
    <glyph glyph-name="hungarumlaut.sc" horiz-adv-x="570" 
d="M421 726l-108 -147h-41l101 147h48zM546 726l-109 -147h-40l101 147h48z" />
    <glyph glyph-name="dotaccent.sc" horiz-adv-x="570" 
d="M403 611c-19 0 -33 11 -33 32c0 33 20 47 45 47c17 0 32 -11 32 -33c0 -32 -22 -46 -44 -46z" />
    <glyph glyph-name="exclamdown.sc" horiz-adv-x="208" 
d="M152 512c19 0 31 -14 31 -30c0 -23 -17 -40 -41 -40c-19 0 -32 14 -32 31c0 22 18 39 42 39zM142 355l-55 -355h-47l71 355h31z" />
    <glyph glyph-name="questiondown.sc" horiz-adv-x="369" 
d="M243 512c18 0 31 -14 31 -31c0 -22 -19 -39 -42 -39c-19 0 -32 14 -32 31c0 22 19 39 43 39zM151 -8c-81 0 -124 48 -124 105c0 122 146 139 167 258h40c-22 -127 -165 -154 -165 -250c0 -38 27 -75 86 -75c53 0 100 29 109 80l39 -2c-12 -65 -64 -116 -152 -116z" />
    <glyph glyph-name="Euro.sc" horiz-adv-x="480" 
d="M329 477c-91 0 -148 -70 -177 -158h211l-19 -33h-201c-6 -23 -10 -47 -12 -70h177l-18 -33h-161v-14c0 -88 35 -140 122 -140c41 0 87 14 133 42l5 -40c-46 -24 -90 -39 -138 -39c-117 0 -162 61 -162 177v14h-44l6 33h40c2 24 6 47 11 70h-39l6 33h41
c34 110 107 196 219 196c55 0 98 -14 133 -34l-22 -34c-29 18 -63 30 -111 30z" />
    <glyph glyph-name="cent.sc" horiz-adv-x="396" 
d="M313 266c-9 19 -23 32 -41 40l-115 -277c6 -1 13 -1 21 -1c39 0 74 17 101 52l27 -23c-30 -39 -74 -65 -128 -65c-13 0 -25 1 -36 3l-19 -47l-30 9l19 46c-49 20 -65 66 -65 129c0 109 58 218 180 218c10 0 19 -1 28 -2l24 58l31 -9l-24 -57c29 -10 49 -29 60 -55z
M127 38l114 275c-4 1 -9 1 -13 1c-96 0 -142 -87 -142 -182c0 -45 11 -78 41 -94z" />
    <glyph glyph-name="sterling.sc" horiz-adv-x="461" 
d="M106 241l17 94c19 104 74 180 181 180c70 0 119 -22 145 -68l-30 -25c-27 45 -65 55 -115 55c-86 0 -130 -65 -142 -145l-16 -91h161l-6 -33h-161l-31 -173h243l-6 -35h-282l36 208h-54l6 33h54z" />
    <glyph glyph-name="florin.sc" horiz-adv-x="302" 
d="M106 -52c-12 -69 -47 -118 -116 -118c-17 0 -34 3 -42 6l7 37c11 -4 22 -6 35 -6c50 0 70 37 78 84l62 355h-80l6 35h80l12 65c14 76 51 118 114 119c16 0 35 -3 43 -5l-7 -37c-11 3 -23 5 -36 5c-46 0 -67 -29 -76 -82l-11 -65h86l-6 -35h-86z" />
    <glyph glyph-name="yen.sc" horiz-adv-x="467" 
d="M203 217l-28 69h-87l5 33h68l-78 188h43l102 -257l197 257h51l-148 -188h68l-6 -33h-87l-54 -69h129l-6 -33h-133l-33 -184h-38l32 184h-130l5 33h128z" />
    <glyph glyph-name="uni20A8.sc" horiz-adv-x="424" 
d="M418 507l-7 -36h-96c22 -20 32 -43 29 -88h52l-7 -36h-51c-18 -69 -74 -113 -153 -123l109 -224h-50l-107 221h-75l7 36h81c83 0 128 33 146 90h-212l7 36h211c3 54 -21 88 -101 88h-95l7 36h305z" />
    <glyph glyph-name="perthousand.sc" horiz-adv-x="855" 
d="M199 511c60 0 89 -30 89 -98c0 -91 -44 -166 -126 -166c-63 0 -89 35 -89 98c0 102 50 166 126 166zM135 0h-43l403 507h44zM162 276c62 0 90 63 90 137c0 45 -17 68 -54 68c-60 0 -89 -56 -89 -136c0 -44 16 -69 53 -69zM470 260c60 0 89 -30 89 -98
c0 -91 -44 -166 -126 -166c-63 0 -89 35 -89 98c0 102 50 166 126 166zM705 260c60 0 89 -30 89 -98c0 -91 -44 -166 -126 -166c-63 0 -89 35 -89 98c0 102 50 166 126 166zM433 25c62 0 90 63 90 137c0 45 -17 68 -54 68c-60 0 -89 -56 -89 -136c0 -44 16 -69 53 -69z
M668 25c62 0 90 63 90 137c0 45 -17 68 -54 68c-60 0 -89 -56 -89 -136c0 -44 16 -69 53 -69z" />
    <glyph glyph-name="zero.tf" 
d="M350 686c117 0 178 -95 178 -241c0 -241 -84 -455 -288 -455c-117 0 -176 95 -176 241c0 241 83 455 286 455zM241 29c177 0 245 202 245 416c0 120 -42 202 -136 202c-177 0 -245 -201 -245 -416c0 -120 42 -202 136 -202z" />
    <glyph glyph-name="one.tf" 
d="M83 38h173l104 591l-188 -76l-8 40l206 83h39l-113 -638h155l-7 -38h-368z" />
    <glyph glyph-name="two.tf" 
d="M349 686c100 0 160 -66 160 -158c0 -109 -67 -178 -167 -274l-227 -216h329l-7 -38h-386l6 36l257 243c98 94 153 158 153 249c0 68 -41 119 -119 119c-89 0 -147 -62 -162 -149h-42c19 109 92 188 205 188z" />
    <glyph glyph-name="three.tf" 
d="M364 348c52 -13 109 -57 109 -146c0 -121 -93 -212 -234 -212c-137 0 -192 79 -177 164h39c-13 -70 37 -125 138 -125c121 0 192 75 192 173c0 78 -62 129 -151 129h-56l7 38h56c102 0 191 58 191 162c0 66 -45 116 -129 116c-100 0 -159 -61 -171 -129h-43
c15 83 84 168 214 168c106 0 170 -65 170 -155c0 -109 -80 -166 -155 -183z" />
    <glyph glyph-name="four.tf" 
d="M503 161h-108l-28 -161h-40l28 161h-322l6 36l407 479h40l-84 -477h108zM362 199l72 406l-343 -406h271z" />
    <glyph glyph-name="five.tf" 
d="M477 254c0 -136 -84 -264 -239 -264c-142 0 -188 91 -171 186h38c-13 -78 22 -148 133 -148c128 0 197 109 197 226c0 79 -44 131 -128 131c-54 0 -99 -21 -141 -49h-42l98 340h315l-7 -38h-280l-76 -259c25 18 78 45 133 45c104 0 170 -63 170 -170z" />
    <glyph glyph-name="six.tf" 
d="M490 518c12 80 -35 129 -124 129c-118 0 -211 -127 -237 -322c27 40 104 99 187 99c115 0 179 -64 179 -174c0 -142 -86 -260 -242 -260c-122 0 -172 90 -172 224c0 251 106 472 285 472c122 0 179 -74 162 -168h-38zM128 270c-4 -17 -6 -42 -6 -56
c0 -108 37 -186 131 -186c128 0 201 101 201 222c0 82 -47 135 -138 135c-75 0 -151 -55 -188 -115z" />
    <glyph glyph-name="seven.tf" 
d="M492 638h-327l7 38h373l-6 -36l-351 -640h-49z" />
    <glyph glyph-name="eight.tf" 
d="M245 -10c-111 0 -187 55 -187 164c0 124 93 187 168 200c-52 13 -97 53 -97 129c0 119 92 203 226 203c104 0 175 -55 175 -154c0 -108 -75 -170 -150 -184c52 -12 106 -52 106 -141c0 -136 -103 -217 -241 -217zM355 647c-108 0 -184 -60 -184 -164
c0 -69 55 -113 135 -113c98 0 183 58 183 162c0 74 -51 115 -134 115zM245 29c117 0 200 65 200 178c0 77 -61 124 -147 124c-107 0 -198 -66 -198 -177c0 -81 56 -125 145 -125z" />
    <glyph glyph-name="nine.tf" 
d="M109 158c-12 -80 35 -129 124 -129c118 0 211 127 237 322c-27 -40 -104 -99 -187 -99c-115 0 -179 64 -179 174c0 142 86 260 242 260c122 0 172 -90 172 -224c0 -251 -106 -472 -285 -472c-122 0 -179 74 -162 168h38zM471 406c4 17 6 42 6 56c0 108 -37 186 -131 186
c-128 0 -201 -101 -201 -222c0 -82 47 -135 138 -135c75 0 151 55 188 115z" />
    <glyph glyph-name="zero.tosf" 
d="M344 586c121 0 176 -87 176 -214c0 -214 -88 -382 -281 -382c-121 0 -176 87 -176 214c0 214 87 382 281 382zM246 29c165 0 232 152 232 338c0 108 -43 180 -141 180c-165 0 -233 -152 -233 -338c0 -108 44 -180 142 -180z" />
    <glyph glyph-name="one.tosf" 
d="M96 38h163l86 491l-178 -64l-7 38l195 72h39l-95 -537h145l-7 -38h-348z" />
    <glyph glyph-name="two.tosf" 
d="M76 0l6 34l266 217c96 79 112 115 112 181c0 68 -43 115 -119 115c-83 0 -146 -69 -160 -156h-44c19 111 99 195 211 195c97 0 155 -60 155 -153c0 -104 -64 -158 -136 -216l-220 -179h291l-7 -38h-355z" />
    <glyph glyph-name="three.tosf" 
d="M346 248c52 -13 109 -57 109 -146c0 -121 -93 -212 -234 -212c-137 0 -192 79 -177 164h39c-13 -70 37 -125 138 -125c121 0 192 75 192 173c0 78 -62 129 -151 129h-56l7 38h56c102 0 191 58 191 162c0 66 -45 116 -129 116c-100 0 -159 -61 -171 -129h-43
c15 83 84 168 214 168c106 0 170 -65 170 -155c0 -109 -80 -166 -155 -183z" />
    <glyph glyph-name="four.tosf" 
d="M486 61h-108l-28 -161h-40l28 161h-322l6 36l407 479h40l-84 -477h108zM345 99l72 406l-343 -406h271z" />
    <glyph glyph-name="five.tosf" 
d="M458 152c0 -136 -84 -264 -239 -264c-142 0 -188 91 -171 186h38c-13 -78 22 -148 133 -148c128 0 197 109 197 226c0 79 -44 131 -128 131c-54 0 -99 -21 -141 -49h-42l98 340h315l-7 -38h-280l-76 -259c25 18 78 45 133 45c104 0 170 -63 170 -170z" />
    <glyph glyph-name="six.tosf" 
d="M490 518c12 80 -35 129 -124 129c-118 0 -211 -127 -237 -322c27 40 104 99 187 99c115 0 179 -64 179 -174c0 -142 -86 -260 -242 -260c-122 0 -172 90 -172 224c0 251 106 472 285 472c122 0 179 -74 162 -168h-38zM128 270c-4 -17 -6 -42 -6 -56
c0 -108 37 -186 131 -186c128 0 201 101 201 222c0 82 -47 135 -138 135c-75 0 -151 -55 -188 -115z" />
    <glyph glyph-name="seven.tosf" 
d="M477 538h-327l7 38h373l-6 -36l-351 -640h-49z" />
    <glyph glyph-name="eight.tosf" 
d="M245 -10c-111 0 -187 55 -187 164c0 124 93 187 168 200c-52 13 -97 53 -97 129c0 119 92 203 226 203c104 0 175 -55 175 -154c0 -108 -75 -170 -150 -184c52 -12 106 -52 106 -141c0 -136 -103 -217 -241 -217zM355 647c-108 0 -184 -60 -184 -164
c0 -69 55 -113 135 -113c98 0 183 58 183 162c0 74 -51 115 -134 115zM245 29c117 0 200 65 200 178c0 77 -61 124 -147 124c-107 0 -198 -66 -198 -177c0 -81 56 -125 145 -125z" />
    <glyph glyph-name="nine.tosf" 
d="M92 58c-12 -80 35 -129 124 -129c118 0 211 127 237 322c-27 -40 -104 -99 -187 -99c-115 0 -179 64 -179 174c0 142 86 260 242 260c122 0 172 -90 172 -224c0 -251 -106 -472 -285 -472c-122 0 -179 74 -162 168h38zM454 306c4 17 6 42 6 56c0 108 -37 186 -131 186
c-128 0 -201 -101 -201 -222c0 -82 47 -135 138 -135c75 0 151 55 188 115z" />
    <glyph glyph-name="Euro.tf" 
d="M411 647c-111 0 -192 -97 -233 -225h267l-25 -38h-253c-7 -32 -13 -65 -16 -99h216l-24 -38h-194v-18c0 -136 42 -201 153 -201c49 0 105 18 164 55l11 -40c-58 -34 -116 -54 -175 -54c-133 0 -194 66 -194 240v18h-52l7 38h47c3 34 7 67 14 99h-44l7 38h47
c44 154 142 264 277 264c66 0 124 -20 162 -46l-24 -36c-37 26 -77 43 -138 43z" />
    <glyph glyph-name="cent.tf" 
d="M443 361c-10 29 -28 47 -51 57l-158 -387c10 -3 21 -4 33 -4c52 0 98 19 132 67l32 -21c-39 -53 -95 -83 -164 -83c-17 0 -33 2 -47 5l-26 -63l-37 11l27 66c-52 27 -78 83 -78 160c0 156 71 297 227 297c12 0 24 -1 35 -3l31 78l38 -11l-31 -77c32 -14 56 -38 69 -71z
M199 46l154 382c-6 1 -13 1 -20 1c-138 0 -187 -135 -187 -260c0 -53 17 -98 53 -123z" />
    <glyph glyph-name="sterling.tf" 
d="M142 318l23 129c23 137 95 239 224 239c94 0 147 -30 179 -87l-34 -25c-34 60 -80 73 -145 73c-104 0 -164 -82 -184 -204l-22 -125h203l-7 -38h-203l-43 -242h305l-7 -38h-344l48 280h-67l7 38h67z" />
    <glyph glyph-name="florin.tf" 
d="M248 -68c-16 -89 -51 -158 -142 -158c-18 0 -40 3 -50 6l7 40c14 -4 26 -7 43 -7c64 0 89 47 101 119l86 485h-100l6 38h101l15 87c15 88 49 158 140 158c18 0 40 -3 50 -6l-7 -40c-14 4 -26 7 -43 7c-64 0 -88 -47 -100 -119l-15 -87h108l-7 -38h-107z" />
    <glyph glyph-name="yen.tf" 
d="M260 286l-37 99h-100l6 38h79l-96 253h44l133 -359l257 359h51l-185 -253h80l-7 -38h-101l-73 -99h157l-7 -38h-163l-44 -248h-39l43 248h-160l7 38h155z" />
    <glyph glyph-name="uni20A8.tf" 
d="M549 676l-6 -38h-129c36 -26 48 -72 44 -129h62l-7 -38h-62c-23 -98 -97 -162 -203 -170l137 -301h-50l-134 299h-89l6 39h102c110 0 167 53 188 133h-266l7 38h266c6 76 -23 129 -125 129h-119l7 38h371z" />
    <glyph glyph-name="dollar.tf" 
d="M499 566c-19 50 -64 78 -131 81l-51 -291l37 -13c65 -22 124 -56 124 -144c0 -106 -77 -204 -226 -209l-16 -93h-40l17 94c-124 9 -154 79 -166 131l38 16c10 -51 35 -102 134 -108l53 298l-23 8c-66 23 -117 58 -117 139c0 98 75 200 203 210l13 74h40l-13 -74
c87 -5 145 -49 161 -97zM269 372l10 -3l49 276c-102 -11 -155 -86 -155 -170c0 -55 36 -82 96 -103zM335 307l-25 8l-51 -285c119 6 178 80 178 169c0 61 -46 89 -102 108z" />
    <glyph glyph-name="zero.osf" horiz-adv-x="579" 
d="M353 586c121 0 176 -87 176 -214c0 -214 -88 -382 -281 -382c-121 0 -176 87 -176 214c0 214 87 382 281 382zM255 29c165 0 232 152 232 338c0 108 -43 180 -141 180c-165 0 -233 -152 -233 -338c0 -108 44 -180 142 -180z" />
    <glyph glyph-name="one.osf" horiz-adv-x="344" 
d="M171 0l93 528l-180 -73l-7 40l196 80h38l-101 -575h-39z" />
    <glyph glyph-name="two.osf" horiz-adv-x="488" 
d="M31 0l6 34l266 217c96 79 112 115 112 181c0 68 -43 115 -119 115c-83 0 -146 -69 -160 -156h-44c19 111 99 195 211 195c97 0 155 -60 155 -153c0 -104 -64 -158 -136 -216l-220 -179h291l-7 -38h-355z" />
    <glyph glyph-name="three.osf" horiz-adv-x="521" 
d="M331 248c52 -13 109 -57 109 -146c0 -121 -93 -212 -234 -212c-137 0 -192 79 -177 164h39c-13 -70 37 -125 138 -125c121 0 192 75 192 173c0 78 -62 129 -151 129h-56l7 38h56c102 0 191 58 191 162c0 66 -45 116 -129 116c-100 0 -159 -61 -171 -129h-43
c15 83 84 168 214 168c106 0 170 -65 170 -155c0 -109 -80 -166 -155 -183z" />
    <glyph glyph-name="four.osf" horiz-adv-x="550" 
d="M485 61h-108l-28 -161h-40l28 161h-322l6 36l407 479h40l-84 -477h108zM344 99l72 406l-343 -406h271z" />
    <glyph glyph-name="five.osf" horiz-adv-x="507" 
d="M436 154c0 -136 -84 -264 -239 -264c-142 0 -188 91 -171 186h38c-13 -78 22 -148 133 -148c128 0 197 109 197 226c0 79 -44 131 -128 131c-54 0 -99 -21 -141 -49h-42l98 340h315l-7 -38h-280l-76 -259c25 18 78 45 133 45c104 0 170 -63 170 -170z" />
    <glyph glyph-name="six.osf" horiz-adv-x="539" 
d="M484 518c12 80 -35 129 -124 129c-118 0 -211 -127 -237 -322c27 40 104 99 187 99c115 0 179 -64 179 -174c0 -142 -86 -260 -242 -260c-122 0 -172 90 -172 224c0 251 106 472 285 472c122 0 179 -74 162 -168h-38zM122 270c-4 -17 -6 -42 -6 -56
c0 -108 37 -186 131 -186c128 0 201 101 201 222c0 82 -47 135 -138 135c-75 0 -151 -55 -188 -115z" />
    <glyph glyph-name="seven.osf" horiz-adv-x="453" 
d="M428 538h-327l7 38h373l-6 -36l-351 -640h-49z" />
    <glyph glyph-name="eight.osf" horiz-adv-x="545" 
d="M242 -10c-111 0 -187 55 -187 164c0 124 93 187 168 200c-52 13 -97 53 -97 129c0 119 92 203 226 203c104 0 175 -55 175 -154c0 -108 -75 -170 -150 -184c52 -12 106 -52 106 -141c0 -136 -103 -217 -241 -217zM352 647c-108 0 -184 -60 -184 -164
c0 -69 55 -113 135 -113c98 0 183 58 183 162c0 74 -51 115 -134 115zM242 29c117 0 200 65 200 178c0 77 -61 124 -147 124c-107 0 -198 -66 -198 -177c0 -81 56 -125 145 -125z" />
    <glyph glyph-name="nine.osf" horiz-adv-x="540" 
d="M86 58c-12 -80 35 -129 124 -129c118 0 211 127 237 322c-27 -40 -104 -99 -187 -99c-115 0 -179 64 -179 174c0 142 86 260 242 260c122 0 172 -90 172 -224c0 -251 -106 -472 -285 -472c-122 0 -179 74 -162 168h38zM448 306c4 17 6 42 6 56c0 108 -37 186 -131 186
c-128 0 -201 -101 -201 -222c0 -82 47 -135 138 -135c75 0 151 55 188 115z" />
    <glyph glyph-name="uni2070" unicode="&#x2070;" horiz-adv-x="330" 
d="M266 791c68 0 106 -40 106 -125c0 -111 -46 -221 -155 -221c-81 0 -106 53 -106 125c0 120 53 221 155 221zM216 477c91 0 118 97 118 189c0 57 -20 94 -67 94c-83 0 -119 -90 -119 -190c0 -57 20 -93 68 -93z" />
    <glyph glyph-name="uni2074" unicode="&#x2074;" horiz-adv-x="308" 
d="M344 524h-54l-13 -74h-35l13 74h-172l5 30l212 232h37l-41 -230h54zM261 556l30 172l-157 -172h127z" />
    <glyph glyph-name="uni2075" unicode="&#x2075;" horiz-adv-x="290" 
d="M323 573c0 -68 -53 -129 -130 -129c-87 0 -110 45 -101 95h36c-6 -34 10 -62 65 -62c54 0 94 34 94 97c0 36 -24 57 -65 57c-26 0 -50 -9 -71 -21l-30 2l53 174h177l-6 -32h-146l-33 -104c13 6 39 14 68 14c48 0 89 -22 89 -91z" />
    <glyph glyph-name="uni2076" unicode="&#x2076;" horiz-adv-x="311" 
d="M268 759c-63 0 -106 -61 -119 -135c15 14 48 38 92 38c51 0 103 -17 103 -93c0 -67 -56 -126 -132 -126c-78 0 -102 52 -102 121c0 132 66 226 157 226c73 0 100 -38 92 -87h-35c6 34 -14 56 -56 56zM146 582c-5 -53 7 -106 65 -106c62 0 97 44 97 94c0 35 -23 61 -65 61
c-40 0 -81 -28 -97 -49z" />
    <glyph glyph-name="uni2077" unicode="&#x2077;" horiz-adv-x="250" 
d="M289 754h-170l6 32h210l-5 -28l-184 -308h-41z" />
    <glyph glyph-name="uni2078" unicode="&#x2078;" horiz-adv-x="315" 
d="M211 444c-72 0 -111 27 -111 87c0 49 39 85 80 95c-27 9 -46 24 -46 61c0 63 58 104 124 104s104 -26 104 -81c0 -44 -29 -76 -72 -88c28 -9 51 -27 51 -69c0 -65 -58 -109 -130 -109zM259 760c-53 0 -87 -27 -87 -73c0 -28 26 -48 65 -48c47 0 88 25 88 72
c0 30 -25 49 -66 49zM232 608c-64 0 -95 -36 -95 -78c0 -36 30 -53 73 -53c54 0 94 26 94 75c0 34 -28 56 -72 56z" />
    <glyph glyph-name="uni2079" unicode="&#x2079;" horiz-adv-x="312" 
d="M196 475c63 0 106 60 119 135c-15 -15 -48 -38 -92 -38c-51 0 -103 17 -103 92c0 67 56 126 132 126c78 0 102 -52 102 -121c0 -131 -66 -226 -157 -226c-73 0 -100 39 -92 87h35c-6 -34 14 -55 56 -55zM318 652c5 52 -7 106 -65 106c-62 0 -96 -44 -96 -94
c0 -36 22 -61 64 -61c40 0 81 27 97 49z" />
    <glyph glyph-name="uni2080" unicode="&#x2080;" horiz-adv-x="330" 
d="M169 241c68 0 106 -40 106 -125c0 -111 -46 -221 -155 -221c-81 0 -106 53 -106 125c0 120 53 221 155 221zM119 -73c91 0 118 97 118 189c0 57 -20 94 -67 94c-83 0 -119 -90 -119 -190c0 -57 20 -93 68 -93z" />
    <glyph glyph-name="uni2081" unicode="&#x2081;" horiz-adv-x="207" 
d="M68 -100l52 294l-103 -37l-6 35l120 44h32l-59 -336h-36z" />
    <glyph glyph-name="uni2082" unicode="&#x2082;" horiz-adv-x="283" 
d="M145 241c57 0 92 -28 92 -86c0 -50 -37 -90 -88 -133l-107 -90h166l-6 -32h-216l5 28l136 118c47 40 74 70 74 109c0 30 -21 55 -56 55c-42 0 -72 -26 -80 -68h-37c10 60 58 99 117 99z" />
    <glyph glyph-name="uni2083" unicode="&#x2083;" horiz-adv-x="300" 
d="M175 71c30 -4 54 -30 54 -71c0 -58 -60 -106 -128 -106c-82 0 -111 38 -103 87h35c-5 -31 16 -54 68 -54c55 0 91 32 91 73c0 35 -28 57 -74 57h-34l5 32h32c52 0 93 25 93 70c0 30 -23 51 -64 51c-46 0 -76 -27 -80 -56h-37c8 53 62 87 117 87c54 0 100 -21 100 -82
c0 -51 -37 -80 -75 -88z" />
    <glyph glyph-name="uni2084" unicode="&#x2084;" horiz-adv-x="309" 
d="M247 -26h-54l-13 -74h-35l13 74h-172l5 30l212 232h37l-41 -230h54zM164 6l30 172l-157 -172h127z" />
    <glyph glyph-name="uni2085" unicode="&#x2085;" horiz-adv-x="291" 
d="M227 23c0 -68 -53 -129 -130 -129c-87 0 -110 45 -101 95h36c-6 -34 10 -62 65 -62c54 0 94 34 94 97c0 36 -24 57 -65 57c-26 0 -50 -9 -71 -21l-30 2l53 174h177l-6 -32h-146l-33 -104c13 6 39 14 68 14c48 0 89 -22 89 -91z" />
    <glyph glyph-name="uni2086" unicode="&#x2086;" horiz-adv-x="311" 
d="M171 210c-63 0 -106 -61 -119 -135c15 14 48 38 92 38c51 0 103 -17 103 -93c0 -67 -56 -126 -132 -126c-78 0 -102 52 -102 121c0 132 66 226 157 226c73 0 100 -38 92 -87h-35c6 34 -14 56 -56 56zM49 33c-5 -53 7 -106 65 -106c62 0 97 44 97 94c0 35 -23 61 -65 61
c-40 0 -81 -28 -97 -49z" />
    <glyph glyph-name="uni2087" unicode="&#x2087;" horiz-adv-x="251" 
d="M192 204h-170l6 32h210l-5 -28l-184 -308h-41z" />
    <glyph glyph-name="uni2088" unicode="&#x2088;" horiz-adv-x="315" 
d="M114 -106c-72 0 -111 27 -111 87c0 49 39 85 80 95c-27 9 -46 24 -46 61c0 63 58 104 124 104s104 -26 104 -81c0 -44 -29 -76 -72 -88c28 -9 51 -27 51 -69c0 -65 -58 -109 -130 -109zM162 210c-53 0 -87 -27 -87 -73c0 -28 26 -48 65 -48c47 0 88 25 88 72
c0 30 -25 49 -66 49zM135 58c-64 0 -95 -36 -95 -78c0 -36 30 -53 73 -53c54 0 94 26 94 75c0 34 -28 56 -72 56z" />
    <glyph glyph-name="uni2089" unicode="&#x2089;" horiz-adv-x="311" 
d="M99 -74c63 0 106 60 119 135c-15 -15 -48 -38 -92 -38c-51 0 -103 17 -103 92c0 67 56 126 132 126c78 0 102 -52 102 -121c0 -131 -66 -226 -157 -226c-73 0 -100 39 -92 87h35c-6 -34 14 -55 56 -55zM221 103c5 52 -7 106 -65 106c-62 0 -96 -44 -96 -94
c0 -36 22 -61 64 -61c40 0 81 27 97 49z" />
    <glyph glyph-name="zero.denom" horiz-adv-x="328" 
d="M178 341c68 0 106 -40 106 -125c0 -111 -46 -221 -155 -221c-81 0 -106 53 -106 125c0 120 53 221 155 221zM128 27c91 0 118 97 118 189c0 57 -20 94 -67 94c-83 0 -119 -90 -119 -190c0 -57 20 -93 68 -93z" />
    <glyph glyph-name="one.denom" horiz-adv-x="204" 
d="M77 0l52 294l-103 -37l-6 35l120 44h32l-59 -336h-36z" />
    <glyph glyph-name="two.denom" horiz-adv-x="281" 
d="M154 341c57 0 92 -28 92 -86c0 -50 -37 -90 -88 -133l-107 -90h166l-6 -32h-216l5 28l136 118c47 40 74 70 74 109c0 30 -21 55 -56 55c-42 0 -72 -26 -80 -68h-37c10 60 58 99 117 99z" />
    <glyph glyph-name="three.denom" horiz-adv-x="297" 
d="M184 171c30 -4 54 -30 54 -71c0 -58 -60 -106 -128 -106c-82 0 -111 38 -103 87h35c-5 -31 16 -54 68 -54c55 0 91 32 91 73c0 35 -28 57 -74 57h-34l5 32h32c52 0 93 25 93 70c0 30 -23 51 -64 51c-46 0 -76 -27 -80 -56h-37c8 53 62 87 117 87c54 0 100 -21 100 -82
c0 -51 -37 -80 -75 -88z" />
    <glyph glyph-name="four.denom" horiz-adv-x="306" 
d="M255 74h-54l-13 -74h-35l13 74h-172l5 30l212 232h37l-41 -230h54zM172 106l30 172l-157 -172h127z" />
    <glyph glyph-name="five.denom" horiz-adv-x="290" 
d="M236 123c0 -68 -53 -129 -130 -129c-87 0 -110 45 -101 95h36c-6 -34 10 -62 65 -62c54 0 94 34 94 97c0 36 -24 57 -65 57c-26 0 -50 -9 -71 -21l-30 2l53 174h177l-6 -32h-146l-33 -104c13 6 39 14 68 14c48 0 89 -22 89 -91z" />
    <glyph glyph-name="six.denom" horiz-adv-x="308" 
d="M180 310c-63 0 -106 -61 -119 -135c15 14 48 38 92 38c51 0 103 -17 103 -93c0 -67 -56 -126 -132 -126c-78 0 -102 52 -102 121c0 132 66 226 157 226c73 0 100 -38 92 -87h-35c6 34 -14 56 -56 56zM58 133c-5 -53 7 -106 65 -106c62 0 97 44 97 94c0 35 -23 61 -65 61
c-40 0 -81 -28 -97 -49z" />
    <glyph glyph-name="seven.denom" horiz-adv-x="247" 
d="M201 304h-170l6 32h210l-5 -28l-184 -308h-41z" />
    <glyph glyph-name="eight.denom" horiz-adv-x="312" 
d="M123 -6c-72 0 -111 27 -111 87c0 49 39 85 80 95c-27 9 -46 24 -46 61c0 63 58 104 124 104s104 -26 104 -81c0 -44 -29 -76 -72 -88c28 -9 51 -27 51 -69c0 -65 -58 -109 -130 -109zM171 310c-53 0 -87 -27 -87 -73c0 -28 26 -48 65 -48c47 0 88 25 88 72
c0 30 -25 49 -66 49zM144 158c-64 0 -95 -36 -95 -78c0 -36 30 -53 73 -53c54 0 94 26 94 75c0 34 -28 56 -72 56z" />
    <glyph glyph-name="nine.denom" horiz-adv-x="309" 
d="M108 26c63 0 106 60 119 135c-15 -15 -48 -38 -92 -38c-51 0 -103 17 -103 92c0 67 56 126 132 126c78 0 102 -52 102 -121c0 -131 -66 -226 -157 -226c-73 0 -100 39 -92 87h35c-6 -34 14 -55 56 -55zM230 203c5 52 -7 106 -65 106c-62 0 -96 -44 -96 -94
c0 -36 22 -61 64 -61c40 0 81 27 97 49z" />
    <glyph glyph-name="zero.num" horiz-adv-x="331" 
d="M247 679c68 0 106 -40 106 -125c0 -111 -46 -221 -155 -221c-81 0 -106 53 -106 125c0 120 53 221 155 221zM197 365c91 0 118 97 118 189c0 57 -20 94 -67 94c-83 0 -119 -90 -119 -190c0 -57 20 -93 68 -93z" />
    <glyph glyph-name="one.num" horiz-adv-x="208" 
d="M146 338l52 294l-103 -37l-6 35l120 44h32l-59 -336h-36z" />
    <glyph glyph-name="two.num" horiz-adv-x="283" 
d="M222 679c57 0 92 -28 92 -86c0 -50 -37 -90 -88 -133l-107 -90h166l-6 -32h-216l5 28l136 118c47 40 74 70 74 109c0 30 -21 55 -56 55c-42 0 -72 -26 -80 -68h-37c10 60 58 99 117 99z" />
    <glyph glyph-name="three.num" horiz-adv-x="299" 
d="M252 509c30 -4 54 -30 54 -71c0 -58 -60 -106 -128 -106c-82 0 -111 38 -103 87h35c-5 -31 16 -54 68 -54c55 0 91 32 91 73c0 35 -28 57 -74 57h-34l5 32h32c52 0 93 25 93 70c0 30 -23 51 -64 51c-46 0 -76 -27 -80 -56h-37c8 53 62 87 117 87c54 0 100 -21 100 -82
c0 -51 -37 -80 -75 -88z" />
    <glyph glyph-name="four.num" horiz-adv-x="299" 
d="M315 412h-54l-13 -74h-35l13 74h-172l5 30l212 232h37l-41 -230h54zM232 444l30 172l-157 -172h127z" />
    <glyph glyph-name="five.num" horiz-adv-x="282" 
d="M295 461c0 -68 -53 -129 -130 -129c-87 0 -110 45 -101 95h36c-6 -34 10 -62 65 -62c54 0 94 34 94 97c0 36 -24 57 -65 57c-26 0 -50 -9 -71 -21l-30 2l53 174h177l-6 -32h-146l-33 -104c13 6 39 14 68 14c48 0 89 -22 89 -91z" />
    <glyph glyph-name="six.num" horiz-adv-x="302" 
d="M239 648c-63 0 -106 -61 -119 -135c15 14 48 38 92 38c51 0 103 -17 103 -93c0 -67 -56 -126 -132 -126c-78 0 -102 52 -102 121c0 132 66 226 157 226c73 0 100 -38 92 -87h-35c6 34 -14 56 -56 56zM117 471c-5 -53 7 -106 65 -106c62 0 97 44 97 94c0 35 -23 61 -65 61
c-40 0 -81 -28 -97 -49z" />
    <glyph glyph-name="seven.num" horiz-adv-x="252" 
d="M271 642h-170l6 32h210l-5 -28l-184 -308h-41z" />
    <glyph glyph-name="eight.num" horiz-adv-x="306" 
d="M182 332c-72 0 -111 27 -111 87c0 49 39 85 80 95c-27 9 -46 24 -46 61c0 63 58 104 124 104s104 -26 104 -81c0 -44 -29 -76 -72 -88c28 -9 51 -27 51 -69c0 -65 -58 -109 -130 -109zM230 648c-53 0 -87 -27 -87 -73c0 -28 26 -48 65 -48c47 0 88 25 88 72
c0 30 -25 49 -66 49zM203 496c-64 0 -95 -36 -95 -78c0 -36 30 -53 73 -53c54 0 94 26 94 75c0 34 -28 56 -72 56z" />
    <glyph glyph-name="nine.num" horiz-adv-x="303" 
d="M168 364c63 0 106 60 119 135c-15 -15 -48 -38 -92 -38c-51 0 -103 17 -103 92c0 67 56 126 132 126c78 0 102 -52 102 -121c0 -131 -66 -226 -157 -226c-73 0 -100 39 -92 87h35c-6 -34 14 -55 56 -55zM290 541c5 52 -7 106 -65 106c-62 0 -96 -44 -96 -94
c0 -36 22 -61 64 -61c40 0 81 27 97 49z" />
    <glyph glyph-name="arrowleft" unicode="&#x2190;" horiz-adv-x="750" 
d="M319 523l28 -28l-204 -205h538v-37h-538l203 -204l-27 -28l-249 250z" />
    <glyph glyph-name="arrowup" unicode="&#x2191;" horiz-adv-x="750" 
d="M645 337l-28 -28l-205 204v-538h-37v538l-204 -203l-28 27l250 249z" />
    <glyph glyph-name="arrowright" unicode="&#x2192;" horiz-adv-x="750" 
d="M448 20l-28 28l204 205h-538v37h538l-203 204l27 28l249 -250z" />
    <glyph glyph-name="arrowdown" unicode="&#x2193;" horiz-adv-x="750" 
d="M120 204l28 28l205 -204v538h37v-538l204 203l28 -27l-250 -249z" />
    <glyph glyph-name="uni2196" unicode="&#x2196;" horiz-adv-x="750" 
d="M520 495v-39h-289l381 -381l-27 -27l-381 381v-288h-39v354h355z" />
    <glyph glyph-name="uni2197" unicode="&#x2197;" horiz-adv-x="750" 
d="M577 140h-39v289l-381 -381l-27 27l381 381h-288v39h354v-355z" />
    <glyph glyph-name="uni2198" unicode="&#x2198;" horiz-adv-x="750" 
d="M234 48v39h289l-381 381l27 27l381 -381v288h39v-354h-355z" />
    <glyph glyph-name="uni2199" unicode="&#x2199;" horiz-adv-x="750" 
d="M191 403h39v-289l381 381l27 -27l-381 -381h288v-39h-354v355z" />
    <glyph glyph-name="parenleft.case" horiz-adv-x="259" 
d="M133 -122c-36 93 -59 204 -59 315c0 297 95 450 219 610l35 -10c-123 -177 -211 -318 -211 -596c0 -100 19 -214 50 -309z" />
    <glyph glyph-name="parenright.case" horiz-adv-x="268" 
d="M-10 -112c148 218 210 357 210 599c0 115 -23 222 -52 306l35 10c32 -82 59 -189 59 -314c0 -260 -59 -402 -219 -611z" />
    <glyph glyph-name="hyphen.case" horiz-adv-x="389" 
d="M331 347v-36h-232v36h232z" />
    <glyph glyph-name="bracketleft.case" horiz-adv-x="273" 
d="M335 790l-6 -36h-116l-147 -834h116l-6 -36h-154l159 906h154z" />
    <glyph glyph-name="bracketright.case" horiz-adv-x="282" 
d="M308 790l-160 -906h-154l7 36h116l147 834h-116l6 36h154z" />
    <glyph glyph-name="braceleft.case" horiz-adv-x="283" 
d="M202 434c-10 -57 -27 -89 -58 -99c23 -17 33 -46 23 -98l-39 -219c-13 -77 5 -98 61 -98l-6 -36c-80 0 -110 36 -93 133l39 220c11 63 -3 82 -67 82l7 36c63 0 84 19 95 79l39 223c19 107 55 133 140 133l-7 -36c-58 0 -82 -21 -95 -97z" />
    <glyph glyph-name="bar.case" horiz-adv-x="262" 
d="M141 -116v906h37v-906h-37z" />
    <glyph glyph-name="braceright.case" horiz-adv-x="275" 
d="M129 240c10 57 27 89 58 99c-23 17 -33 46 -23 98l39 219c13 77 -5 98 -61 98l6 36c80 0 110 -36 93 -133l-39 -220c-11 -63 3 -82 67 -82l-7 -36c-63 0 -84 -19 -95 -79l-39 -223c-19 -107 -55 -133 -140 -133l7 36c58 0 82 21 95 97z" />
    <glyph glyph-name="guilsinglleft.case" horiz-adv-x="313" 
d="M272 530l26 -25l-161 -177l98 -179l-33 -19l-118 200z" />
    <glyph glyph-name="guilsinglright.case" horiz-adv-x="312" 
d="M94 130l-26 25l161 177l-98 179l33 19l118 -200z" />
    <glyph glyph-name="guillemotleft.case" horiz-adv-x="460" 
d="M263 530l26 -25l-161 -177l98 -179l-33 -19l-118 200zM419 530l26 -25l-161 -177l98 -179l-33 -19l-118 200z" />
    <glyph glyph-name="guillemotright.case" horiz-adv-x="468" 
d="M94 130l-26 25l161 177l-98 179l33 19l118 -200zM250 130l-26 25l161 177l-98 179l33 19l118 -200z" />
    <glyph glyph-name="endash.case" horiz-adv-x="588" 
d="M530 347v-36h-432v36h432z" />
    <glyph glyph-name="emdash.case" horiz-adv-x="737" 
d="M679 347v-36h-572v36h572z" />
    <glyph glyph-name="bullet.case" horiz-adv-x="358" 
d="M204 243c-50 0 -88 36 -88 86s38 86 88 86c52 0 88 -36 88 -86s-36 -86 -88 -86z" />
    <glyph glyph-name="periodcentered.case" horiz-adv-x="242" 
d="M147 327c-20 0 -36 17 -36 37c0 28 21 47 47 47c22 0 37 -17 37 -37c0 -28 -20 -47 -48 -47z" />
    <glyph glyph-name="circle" unicode="&#x25cb;" horiz-adv-x="810" 
d="M87 339c0 214 147 347 339 347c191 0 337 -133 337 -347s-146 -350 -337 -350c-192 0 -339 136 -339 350zM127 339c0 -199 124 -311 299 -311c174 0 297 112 297 311s-123 308 -297 308c-175 0 -299 -109 -299 -308z" />
    <glyph glyph-name="brokenbar.sc" horiz-adv-x="256" 
d="M113 290v292h34v-292h-34zM147 188v-290h-34v290h34z" />
    <glyph glyph-name="uni1EB8" unicode="&#x1eb8;" horiz-adv-x="512" 
d="M424 38l-7 -38h-362l119 676h358l-6 -38h-319l-47 -268h290l-7 -38h-290l-52 -294h323zM207 -149c-18 0 -33 12 -33 33c0 33 18 46 43 46c17 0 34 -12 34 -34c0 -32 -21 -45 -44 -45z" />
    <glyph glyph-name="Gcaron" unicode="&#x1e6;" horiz-adv-x="620" 
d="M381 769l-72 147h39l58 -113l97 113h42l-123 -147h-41zM358 354h220v-8c0 -139 -61 -356 -290 -356c-146 0 -209 102 -209 255c0 282 123 441 329 441c101 0 157 -43 182 -105l-32 -24c-27 63 -70 90 -150 90c-182 0 -288 -143 -288 -402c0 -120 46 -218 168 -218
c177 0 238 156 245 287h-182z" />
    <glyph glyph-name="uni021E" unicode="&#x21e;" horiz-adv-x="643" 
d="M393 769l-72 147h39l58 -113l97 113h42l-123 -147h-41zM587 676h40l-120 -676h-40l60 340h-373l-59 -340h-40l119 676h40l-53 -298h373z" />
    <glyph glyph-name="uni1E24" unicode="&#x1e24;" horiz-adv-x="643" 
d="M587 676h40l-120 -676h-40l60 340h-373l-59 -340h-40l119 676h40l-53 -298h373zM266 -149c-18 0 -33 12 -33 33c0 33 18 46 43 46c17 0 34 -12 34 -34c0 -32 -21 -45 -44 -45z" />
    <glyph glyph-name="uni1ECA" unicode="&#x1eca;" horiz-adv-x="231" 
d="M174 676h40l-119 -676h-40zM60 -149c-18 0 -33 12 -33 33c0 33 18 46 43 46c17 0 34 -12 34 -34c0 -32 -21 -45 -44 -45z" />
    <glyph glyph-name="uni1E36" unicode="&#x1e36;" horiz-adv-x="452" 
d="M395 38l-7 -38h-333l119 676h40l-113 -638h294zM170 -149c-18 0 -33 12 -33 33c0 33 18 46 43 46c17 0 34 -12 34 -34c0 -32 -21 -45 -44 -45z" />
    <glyph glyph-name="uni1E44" unicode="&#x1e44;" horiz-adv-x="656" 
d="M441 784c-18 0 -33 12 -33 33c0 33 18 46 43 46c17 0 34 -12 34 -34c0 -32 -21 -45 -44 -45zM600 676h40l-120 -676h-45l-271 618l-108 -618h-41l120 676h45l271 -617z" />
    <glyph glyph-name="uni1ECC" unicode="&#x1ecc;" horiz-adv-x="640" 
d="M602 439c0 -224 -79 -449 -318 -449c-142 0 -206 100 -206 247c0 223 78 449 316 449c143 0 208 -98 208 -247zM119 237c0 -120 45 -208 165 -208c162 0 277 124 277 410c0 117 -44 208 -167 208c-234 0 -275 -239 -275 -410zM264 -149c-18 0 -33 12 -33 33
c0 33 18 46 43 46c17 0 34 -12 34 -34c0 -32 -21 -45 -44 -45z" />
    <glyph glyph-name="uni1E62" unicode="&#x1e62;" horiz-adv-x="526" 
d="M484 566c-20 53 -70 81 -143 81c-120 0 -183 -81 -183 -172c0 -55 36 -82 96 -103l85 -29c65 -22 124 -56 124 -144c0 -109 -81 -209 -237 -209c-148 0 -181 76 -194 132l38 16c11 -55 39 -109 156 -109c131 0 196 76 196 170c0 61 -46 89 -102 108l-86 29
c-66 23 -117 58 -117 139c0 103 83 211 224 211c97 0 163 -47 180 -98zM207 -149c-18 0 -33 12 -33 33c0 33 18 46 43 46c17 0 34 -12 34 -34c0 -32 -21 -45 -44 -45z" />
    <glyph glyph-name="uni1E9E" unicode="&#x1e9e;" horiz-adv-x="622" 
d="M591 606l-6 -30l-228 -187l98 -47c64 -31 100 -81 100 -155c0 -117 -66 -195 -204 -195c-121 0 -169 55 -186 109l35 15c13 -43 54 -87 152 -87c111 0 161 63 161 153c0 63 -26 102 -80 128l-125 60l6 32l234 192c-40 30 -102 54 -165 54c-128 0 -185 -59 -213 -213
l-79 -435h-40l82 449c32 175 113 237 257 237c82 0 153 -34 201 -80z" />
    <glyph glyph-name="uni0162" unicode="&#x162;" horiz-adv-x="504" 
d="M113 676h434l-6 -38h-197l-113 -638l-35 -64c40 0 71 -18 71 -64s-32 -88 -99 -88c-27 0 -54 11 -71 22l7 38c17 -15 40 -24 67 -24c36 0 55 22 55 47c0 29 -23 36 -55 36h-26l-1 4l47 93l113 638h-197z" />
    <glyph glyph-name="uni01D3" unicode="&#x1d3;" horiz-adv-x="631" 
d="M378 751l-72 147h39l58 -113l97 113h42l-123 -147h-41zM282 -10c-134 0 -221 66 -188 256l76 430h40l-77 -435c-28 -158 33 -212 149 -212c113 0 196 53 224 212l76 435h40l-76 -430c-33 -191 -135 -256 -264 -256z" />
    <glyph glyph-name="uni1EE4" unicode="&#x1ee4;" horiz-adv-x="631" 
d="M282 -10c-134 0 -221 66 -188 256l76 430h40l-77 -435c-28 -158 33 -212 149 -212c113 0 196 53 224 212l76 435h40l-76 -430c-33 -191 -135 -256 -264 -256zM260 -149c-18 0 -33 12 -33 33c0 33 18 46 43 46c17 0 34 -12 34 -34c0 -32 -21 -45 -44 -45z" />
    <glyph glyph-name="uni1EB9" unicode="&#x1eb9;" horiz-adv-x="453" 
d="M206 27c46 0 100 18 139 57l17 -31c-28 -32 -91 -63 -156 -63c-126 0 -156 82 -156 164c0 170 77 312 223 312c92 0 142 -59 142 -153c0 -40 -11 -70 -20 -96h-301c-16 -109 6 -190 112 -190zM365 253c2 8 10 23 10 60c0 63 -31 116 -102 116c-99 0 -151 -78 -173 -176
h265zM171 -149c-18 0 -33 12 -33 33c0 33 18 46 43 46c17 0 34 -12 34 -34c0 -32 -21 -45 -44 -45z" />
    <glyph glyph-name="gcaron" unicode="&#x1e7;" horiz-adv-x="494" 
d="M273 549l-72 147h39l58 -113l97 113h42l-123 -147h-41zM453 456l-88 -498c-15 -88 -89 -159 -189 -159c-112 0 -155 66 -145 125h39c-6 -43 23 -88 106 -88c82 0 137 51 150 124l16 91c-30 -32 -74 -61 -133 -61c-111 0 -157 72 -157 178c0 161 72 298 228 298
c70 0 106 -30 125 -65l9 55h39zM92 168c0 -76 30 -141 117 -141c60 0 111 36 143 80l43 241c-17 41 -53 81 -115 81c-138 0 -188 -131 -188 -261z" />
    <glyph glyph-name="uni021F" unicode="&#x21f;" horiz-adv-x="503" 
d="M321 737l-72 147h39l58 -113l97 113h42l-123 -147h-41zM163 690h38l-50 -285c36 35 100 61 154 61c116 0 153 -55 133 -169l-53 -297h-38l53 297c16 92 -5 132 -96 132c-68 0 -123 -32 -162 -72l-63 -357h-38z" />
    <glyph glyph-name="uni1E25" unicode="&#x1e25;" horiz-adv-x="503" 
d="M163 690h38l-50 -285c36 35 100 61 154 61c116 0 153 -55 133 -169l-53 -297h-38l53 297c16 92 -5 132 -96 132c-68 0 -123 -32 -162 -72l-63 -357h-38zM196 -149c-18 0 -33 12 -33 33c0 33 18 46 43 46c17 0 34 -12 34 -34c0 -32 -21 -45 -44 -45z" />
    <glyph glyph-name="uni1ECB" unicode="&#x1ecb;" horiz-adv-x="200" 
d="M164 591c-18 0 -32 10 -32 31c0 33 21 48 46 48c17 0 32 -10 32 -32c0 -32 -24 -47 -46 -47zM122 456h38l-81 -456h-38zM44 -149c-18 0 -33 12 -33 33c0 33 18 46 43 46c17 0 34 -12 34 -34c0 -32 -21 -45 -44 -45z" />
    <glyph glyph-name="uni1E37" unicode="&#x1e37;" horiz-adv-x="210" 
d="M199 690l-102 -580c-11 -56 -4 -74 29 -74h34l-6 -36h-30c-66 0 -78 34 -64 113l101 577h38zM49 -149c-18 0 -33 12 -33 33c0 33 18 46 43 46c17 0 34 -12 34 -34c0 -32 -21 -45 -44 -45z" />
    <glyph glyph-name="uni1E45" unicode="&#x1e45;" horiz-adv-x="503" 
d="M325 581c-18 0 -33 12 -33 33c0 33 18 46 43 46c17 0 34 -12 34 -34c0 -32 -21 -45 -44 -45zM122 456h38l-10 -52c37 38 100 62 155 62c116 0 154 -54 133 -169l-53 -297h-38l53 297c16 92 -4 132 -96 132c-68 0 -124 -29 -162 -72l-63 -357h-38z" />
    <glyph glyph-name="uni1ECD" unicode="&#x1ecd;" horiz-adv-x="488" 
d="M280 466c113 0 158 -76 158 -179c0 -131 -62 -297 -231 -297c-108 0 -156 75 -156 181c0 138 69 295 229 295zM207 27c145 0 191 152 191 260c0 84 -33 142 -118 142c-137 0 -189 -144 -189 -258c0 -84 34 -144 116 -144zM188 -149c-18 0 -33 12 -33 33c0 33 18 46 43 46
c17 0 34 -12 34 -34c0 -32 -21 -45 -44 -45z" />
    <glyph glyph-name="uni1E63" unicode="&#x1e63;" horiz-adv-x="410" 
d="M350 380c-17 27 -52 49 -108 49c-91 0 -125 -53 -125 -107c0 -28 19 -55 68 -70l43 -12c78 -23 114 -53 114 -111c0 -85 -72 -139 -178 -139c-89 0 -129 42 -148 76l31 25c18 -31 40 -64 117 -64c79 0 138 35 138 102c0 39 -31 60 -85 75l-43 12c-66 19 -97 57 -97 106
c0 69 49 144 165 144c71 0 120 -32 139 -62zM149 -149c-18 0 -33 12 -33 33c0 33 18 46 43 46c17 0 34 -12 34 -34c0 -32 -21 -45 -44 -45z" />
    <glyph glyph-name="uni0163" unicode="&#x163;" horiz-adv-x="300" 
d="M177 420l-54 -306c-10 -56 2 -87 52 -87c24 0 50 9 72 21l6 -34c-22 -13 -51 -24 -80 -24h-4l-30 -54c40 0 71 -18 71 -64s-32 -88 -99 -88c-27 0 -54 11 -71 22l7 38c17 -15 40 -24 67 -24c36 0 55 22 55 47c0 29 -23 36 -55 36h-26l-1 4l45 88c-48 15 -58 58 -47 119
l54 306h-85l4 26l87 10l21 118l40 10l-23 -128h134l-6 -36h-134z" />
    <glyph glyph-name="uni01D4" unicode="&#x1d4;" horiz-adv-x="503" 
d="M275 549l-72 147h39l58 -113l97 113h42l-123 -147h-41zM381 0h-38l10 52c-37 -38 -100 -62 -155 -62c-116 0 -154 54 -133 169l53 297h38l-53 -297c-16 -92 4 -132 96 -132c68 0 124 29 162 72l63 357h38z" />
    <glyph glyph-name="uni1EE5" unicode="&#x1ee5;" horiz-adv-x="503" 
d="M381 0h-38l10 52c-37 -38 -100 -62 -155 -62c-116 0 -154 54 -133 169l53 297h38l-53 -297c-16 -92 4 -132 96 -132c68 0 124 29 162 72l63 357h38zM177 -149c-18 0 -33 12 -33 33c0 33 18 46 43 46c17 0 34 -12 34 -34c0 -32 -21 -45 -44 -45z" />
    <glyph glyph-name="uni0163.sc" horiz-adv-x="425" 
d="M83 507h355l-6 -36h-157l-83 -471l-35 -64c40 0 71 -18 71 -64s-32 -88 -99 -88c-27 0 -54 11 -71 22l7 38c17 -15 40 -24 67 -24c36 0 55 22 55 47c0 29 -23 36 -55 36h-26l-1 4l47 93l83 471h-158z" />
    <glyph glyph-name="uni0410" unicode="&#x410;" horiz-adv-x="574" 
d="M433 202h-297l-106 -202h-47l357 676h52l119 -676h-45zM156 240h270l-65 394z" />
    <glyph glyph-name="uni0411" unicode="&#x411;" horiz-adv-x="546" 
d="M492 638h-283l-44 -251h131c124 0 185 -68 185 -172c0 -128 -81 -215 -238 -215h-186l112 638h-1l6 38h324zM294 349h-135l-55 -311h144c130 0 192 71 192 175c0 85 -46 136 -146 136z" />
    <glyph glyph-name="uni0412" unicode="&#x412;" horiz-adv-x="554" 
d="M174 676h172c104 0 169 -48 169 -138c0 -101 -54 -172 -133 -187c59 -10 106 -57 106 -140c0 -155 -90 -211 -247 -211h-186zM292 369c139 0 179 81 179 169c0 62 -37 100 -131 100h-133l-47 -269h132zM241 38c145 0 206 51 206 173c0 72 -47 120 -153 120h-141l-52 -293
h140z" />
    <glyph glyph-name="uni0413" unicode="&#x413;" horiz-adv-x="479" 
d="M174 676h353l-7 -38h-313l-112 -638h-40z" />
    <glyph glyph-name="uni0403" unicode="&#x403;" horiz-adv-x="479" 
d="M530 916l-108 -147h-43l101 147h50zM174 676h353l-7 -38h-313l-112 -638h-40z" />
    <glyph glyph-name="uni0490" unicode="&#x490;" horiz-adv-x="495" 
d="M55 0l119 676h330l21 122h38l-27 -160h-329l-112 -638h-40z" />
    <glyph glyph-name="uni0414" unicode="&#x414;" horiz-adv-x="607" 
d="M-60 -122l28 160h47c40 21 72 80 97 183l110 455h368l-112 -638h70l-27 -160h-39l21 122h-501l-22 -122h-40zM71 38h367l105 600h-290l-103 -426c-20 -84 -44 -141 -79 -174z" />
    <glyph glyph-name="uni0415" unicode="&#x415;" horiz-adv-x="512" 
d="M424 38l-7 -38h-362l119 676h358l-6 -38h-319l-47 -268h290l-7 -38h-290l-52 -294h323z" />
    <glyph glyph-name="uni0400" unicode="&#x400;" horiz-adv-x="512" 
d="M331 916l49 -147h-37l-57 147h45zM424 38l-7 -38h-362l119 676h358l-6 -38h-319l-47 -268h290l-7 -38h-290l-52 -294h323z" />
    <glyph glyph-name="uni0401" unicode="&#x401;" horiz-adv-x="512" 
d="M280 801c-18 0 -33 12 -33 33c0 33 18 46 43 46c17 0 34 -12 34 -34c0 -32 -22 -45 -44 -45zM442 801c-18 0 -33 12 -33 33c0 33 18 46 43 46c17 0 34 -12 34 -34c0 -32 -21 -45 -44 -45zM424 38l-7 -38h-362l119 676h358l-6 -38h-319l-47 -268h290l-7 -38h-290l-52 -294
h323z" />
    <glyph glyph-name="uni0416" unicode="&#x416;" horiz-adv-x="830" 
d="M880 676l-311 -340l191 -336h-44l-182 324h-82l-57 -324h-40l57 324h-82l-288 -324h-53l311 347l-191 329h44l182 -316h83l56 316h40l-56 -316h83l286 316h53z" />
    <glyph glyph-name="uni0417" unicode="&#x417;" horiz-adv-x="526" 
d="M345 348c54 -13 115 -57 115 -148c0 -119 -96 -210 -242 -210c-139 0 -198 79 -185 164h39c-11 -70 43 -125 146 -125c126 0 200 75 200 172c0 79 -67 130 -159 130h-58l6 38h59c106 0 198 58 198 161c0 67 -48 117 -136 117c-107 0 -168 -61 -178 -129h-43
c12 82 83 168 221 168c109 0 177 -65 177 -157c0 -107 -82 -164 -160 -181z" />
    <glyph glyph-name="uni0418" unicode="&#x418;" horiz-adv-x="680" 
d="M609 676h44l-120 -676h-40l108 606l-511 -606h-45l120 676h39l-107 -607z" />
    <glyph glyph-name="uni0419" unicode="&#x419;" horiz-adv-x="680" 
d="M403 774c-68 0 -110 51 -97 125h35c-9 -52 12 -92 65 -92c54 0 87 40 96 92h36c-13 -74 -63 -125 -135 -125zM609 676h44l-120 -676h-40l108 606l-511 -606h-45l120 676h39l-107 -607z" />
    <glyph glyph-name="uni040D" unicode="&#x40d;" horiz-adv-x="680" 
d="M433 769h-37l-57 147h45zM609 676h44l-120 -676h-40l108 606l-511 -606h-45l120 676h39l-107 -607z" />
    <glyph glyph-name="uni041A" unicode="&#x41a;" horiz-adv-x="531" 
d="M55 0l119 676h40l-56 -316h90l281 316h52l-303 -337l184 -339h-46l-172 324h-92l-57 -324h-40z" />
    <glyph glyph-name="uni040C" unicode="&#x40c;" horiz-adv-x="531" 
d="M480 916l-108 -147h-43l101 147h50zM55 0l119 676h40l-56 -316h90l281 316h52l-303 -337l184 -339h-46l-172 324h-92l-57 -324h-40z" />
    <glyph glyph-name="uni041B" unicode="&#x41b;" horiz-adv-x="658" 
d="M5 34c9 -4 21 -5 36 -5c56 0 91 61 123 192l111 455h367l-119 -676h-40l113 638h-290l-103 -424c-39 -160 -87 -224 -162 -224c-21 0 -39 3 -49 9z" />
    <glyph glyph-name="uni041C" unicode="&#x41c;" horiz-adv-x="825" 
d="M694 676h58l-22 -676h-44l24 626l-317 -626h-44l-96 630l-197 -630h-42l215 676h56l94 -619z" />
    <glyph glyph-name="uni041D" unicode="&#x41d;" horiz-adv-x="643" 
d="M587 676h40l-120 -676h-40l60 340h-373l-59 -340h-40l119 676h40l-53 -298h373z" />
    <glyph glyph-name="uni041E" unicode="&#x41e;" horiz-adv-x="640" 
d="M602 439c0 -224 -79 -449 -318 -449c-142 0 -206 100 -206 247c0 223 78 449 316 449c143 0 208 -98 208 -247zM119 237c0 -120 45 -208 165 -208c162 0 277 124 277 410c0 117 -44 208 -167 208c-234 0 -275 -239 -275 -410z" />
    <glyph glyph-name="uni041F" unicode="&#x41f;" horiz-adv-x="624" 
d="M608 676l-119 -676h-40l112 638h-354l-112 -638h-40l119 676h434z" />
    <glyph glyph-name="uni0420" unicode="&#x420;" horiz-adv-x="532" 
d="M145 285l-50 -285h-40l119 676h181c122 0 176 -62 176 -158c0 -126 -62 -233 -237 -233h-149zM151 323h145c154 0 194 95 194 195c0 68 -37 120 -138 120h-145z" />
    <glyph glyph-name="uni0421" unicode="&#x421;" horiz-adv-x="563" 
d="M119 245c0 -116 45 -216 166 -216c67 0 134 31 175 91l34 -23c-45 -64 -116 -107 -209 -107c-142 0 -207 100 -207 255c0 281 122 441 316 441c90 0 163 -41 184 -107l-36 -23c-19 62 -81 91 -148 91c-169 0 -275 -143 -275 -402z" />
    <glyph glyph-name="uni0422" unicode="&#x422;" horiz-adv-x="504" 
d="M547 676l-6 -38h-197l-113 -638h-40l113 638h-197l6 38h434z" />
    <glyph glyph-name="uni0423" unicode="&#x423;" horiz-adv-x="506" 
d="M518 676h47l-437 -676h-46l168 261l-142 415h41l127 -378z" />
    <glyph glyph-name="uni040E" unicode="&#x40e;" horiz-adv-x="506" 
d="M342 774c-68 0 -110 51 -97 125h35c-9 -52 12 -92 65 -92c54 0 87 40 96 92h36c-13 -74 -63 -125 -135 -125zM518 676h47l-437 -676h-46l168 261l-142 415h41l127 -378z" />
    <glyph glyph-name="uni0424" unicode="&#x424;" horiz-adv-x="679" 
d="M72 281c0 219 113 340 316 341l14 74h40l-13 -74c127 -2 216 -96 216 -229c0 -219 -113 -338 -317 -339l-12 -74h-40l12 74c-127 1 -216 95 -216 227zM113 283c0 -115 72 -190 183 -190l86 490c-174 0 -269 -105 -269 -300zM336 93c176 1 268 102 268 300
c0 113 -70 189 -183 190z" />
    <glyph glyph-name="uni0425" unicode="&#x425;" horiz-adv-x="531" 
d="M167 676l124 -294l228 294h52l-255 -326l150 -350h-46l-135 317l-246 -317h-52l274 350l-141 326h47z" />
    <glyph glyph-name="uni0427" unicode="&#x427;" horiz-adv-x="537" 
d="M481 676h40l-119 -676h-40l51 291c-33 -14 -87 -29 -160 -29c-130 0 -177 74 -157 186l41 228h38l-41 -228c-15 -86 10 -147 123 -147c80 0 129 14 164 32z" />
    <glyph glyph-name="uni0426" unicode="&#x426;" horiz-adv-x="626" 
d="M55 0l119 676h40l-112 -638h354l112 638h40l-112 -638h71l-27 -160h-39l21 122h-467z" />
    <glyph glyph-name="uni0428" unicode="&#x428;" horiz-adv-x="990" 
d="M55 0l119 676h40l-112 -638h340l112 638h40l-112 -638h340l112 638h40l-119 -676h-800z" />
    <glyph glyph-name="uni0429" unicode="&#x429;" horiz-adv-x="990" 
d="M974 676l-112 -638h71l-27 -160h-39l21 122h-833l119 676h40l-112 -638h340l112 638h40l-112 -638h340l112 638h40z" />
    <glyph glyph-name="uni040F" unicode="&#x40f;" horiz-adv-x="624" 
d="M608 676l-119 -676h-188l-21 -122h-40l21 122h-206l119 676h40l-112 -638h354l112 638h40z" />
    <glyph glyph-name="uni042C" unicode="&#x42c;" horiz-adv-x="528" 
d="M163 387h131c124 0 185 -68 185 -172c0 -128 -81 -215 -238 -215h-186l119 676h40zM157 349l-55 -311h144c130 0 192 71 192 175c0 85 -46 136 -146 136h-135z" />
    <glyph glyph-name="uni042A" unicode="&#x42a;" horiz-adv-x="620" 
d="M386 387c124 0 185 -68 185 -172c0 -128 -81 -215 -238 -215h-186l112 638h-152l6 38h193l-51 -289h131zM338 38c130 0 192 71 192 175c0 85 -46 136 -146 136h-135l-55 -311h144z" />
    <glyph glyph-name="uni042B" unicode="&#x42b;" horiz-adv-x="754" 
d="M163 387h131c124 0 185 -68 185 -172c0 -128 -81 -215 -238 -215h-186l119 676h40zM697 676h40l-119 -676h-40zM157 349l-55 -311h144c130 0 192 71 192 175c0 85 -46 136 -146 136h-135z" />
    <glyph glyph-name="uni0409" unicode="&#x409;" horiz-adv-x="956" 
d="M722 387c124 0 185 -68 185 -172c0 -128 -81 -215 -238 -215h-186l112 638h-289l-103 -424c-39 -160 -87 -224 -162 -224c-21 0 -39 3 -49 9l13 35c9 -4 21 -5 36 -5c56 0 91 61 123 192l111 455h367l-51 -289h131zM674 38c130 0 192 71 192 175c0 85 -46 136 -146 136
h-135l-55 -311h144z" />
    <glyph glyph-name="uni040A" unicode="&#x40a;" horiz-adv-x="940" 
d="M706 387c124 0 185 -68 185 -172c0 -128 -81 -215 -238 -215h-186l60 340h-373l-59 -340h-40l119 676h40l-53 -298h373l52 298h41l-51 -289h130zM658 38c130 0 192 71 192 175c0 85 -46 136 -146 136h-135l-55 -311h144z" />
    <glyph glyph-name="uni0405" unicode="&#x405;" horiz-adv-x="526" 
d="M484 566c-20 53 -70 81 -143 81c-120 0 -183 -81 -183 -172c0 -55 36 -82 96 -103l85 -29c65 -22 124 -56 124 -144c0 -109 -81 -209 -237 -209c-148 0 -181 76 -194 132l38 16c11 -55 39 -109 156 -109c131 0 196 76 196 170c0 61 -46 89 -102 108l-86 29
c-66 23 -117 58 -117 139c0 103 83 211 224 211c97 0 163 -47 180 -98z" />
    <glyph glyph-name="uni0404" unicode="&#x404;" horiz-adv-x="563" 
d="M394 686c90 0 163 -41 184 -107l-36 -23c-19 62 -81 91 -148 91c-139 0 -235 -97 -265 -275h277l-6 -38h-276c-3 -28 -5 -58 -5 -89c0 -116 45 -216 166 -216c67 0 134 31 175 91l34 -23c-45 -64 -116 -107 -209 -107c-142 0 -207 100 -207 255c0 281 122 441 316 441z
" />
    <glyph glyph-name="uni042D" unicode="&#x42d;" horiz-adv-x="552" 
d="M316 686c169 0 226 -166 194 -347c-40 -224 -131 -349 -299 -349c-95 0 -167 44 -188 108l35 18c19 -58 83 -87 160 -87c143 0 218 128 250 305h-288l7 38h287c17 148 -25 275 -160 275c-70 0 -137 -29 -176 -91l-30 23c43 64 122 107 208 107z" />
    <glyph glyph-name="uni0406" unicode="&#x406;" horiz-adv-x="231" 
d="M174 676h40l-119 -676h-40z" />
    <glyph glyph-name="uni0407" unicode="&#x407;" horiz-adv-x="231" 
d="M129 784c-18 0 -33 12 -33 33c0 33 18 46 43 46c17 0 34 -12 34 -34c0 -32 -22 -45 -44 -45zM291 784c-18 0 -33 12 -33 33c0 33 18 46 43 46c17 0 34 -12 34 -34c0 -32 -21 -45 -44 -45zM174 676h40l-119 -676h-40z" />
    <glyph glyph-name="uni0408" unicode="&#x408;" horiz-adv-x="470" 
d="M39 104c24 -59 63 -75 121 -75c110 0 158 71 183 212l77 435h40l-77 -437c-30 -169 -101 -249 -223 -249c-79 0 -134 37 -154 93z" />
    <glyph glyph-name="uni040B" unicode="&#x40b;" horiz-adv-x="673" 
d="M459 414c130 0 177 -74 157 -186l-41 -228h-38l41 228c15 86 -10 147 -123 147c-80 0 -129 -14 -164 -32l-60 -343h-40l112 638h-197l7 38h456l-7 -38h-219l-44 -253c33 14 87 29 160 29z" />
    <glyph glyph-name="uni042E" unicode="&#x42e;" horiz-adv-x="851" 
d="M605 686c143 0 208 -98 208 -247c0 -224 -79 -449 -318 -449c-142 0 -206 100 -206 247c0 30 1 60 4 89h-138l-57 -326h-40l60 341v21h4l55 314h40l-55 -314h136c26 175 114 324 307 324zM495 29c162 0 277 124 277 410c0 117 -44 208 -167 208
c-234 0 -275 -239 -275 -410c0 -120 45 -208 165 -208z" />
    <glyph glyph-name="uni042F" unicode="&#x42f;" horiz-adv-x="561" 
d="M319 676h226l-126 -676h-39l58 319h-152l-249 -319h-50l254 323c-95 13 -145 65 -145 164c0 111 73 189 223 189zM294 357h151l52 281h-180c-125 0 -180 -62 -180 -151c0 -87 44 -130 157 -130z" />
    <glyph glyph-name="uni0402" unicode="&#x402;" horiz-adv-x="689" 
d="M436 413c139 0 199 -87 199 -185c0 -155 -91 -232 -232 -232c-22 0 -46 4 -63 9l9 38c15 -4 34 -8 55 -8c115 0 190 62 190 191c0 78 -43 148 -163 148c-69 0 -123 -17 -155 -33l-60 -341h-40l112 638h-182l7 38h439l-7 -38h-217l-45 -256c31 13 82 31 153 31z" />
    <glyph glyph-name="uni0492" unicode="&#x492;" horiz-adv-x="510" 
d="M520 638h-313l-51 -292h185l-6 -36h-186l-54 -310h-40l55 310h-84l6 36h84l58 330h353z" />
    <glyph glyph-name="uni049A" unicode="&#x49a;" horiz-adv-x="531" 
d="M278 339l163 -301h58l-27 -160h-39l21 122h-38l-172 324h-92l-57 -324h-40l119 676h40l-56 -316h90l281 316h52z" />
    <glyph glyph-name="uni04B2" unicode="&#x4b2;" horiz-adv-x="531" 
d="M316 350l134 -312h55l-27 -160h-39l21 122h-40l-135 317l-246 -317h-52l274 350l-141 326h47l124 -294l228 294h52z" />
    <glyph glyph-name="uni04D4" unicode="&#x4d4;" horiz-adv-x="908" 
d="M-17 0l563 676h383l-7 -38h-318l-48 -268h291l-7 -38h-290l-52 -294h322l-6 -38h-363l36 201h-284l-169 -201h-51zM493 239l71 399l-330 -399h259z" />
    <glyph glyph-name="uni0430" unicode="&#x430;" horiz-adv-x="498" 
d="M419 456h38l-80 -456h-38l9 46c-31 -29 -75 -56 -138 -56c-110 0 -158 68 -158 178c0 182 80 298 230 298c64 0 107 -29 128 -63zM92 168c0 -85 31 -141 118 -141c69 0 120 38 148 79l43 243c-12 35 -47 80 -119 80c-124 0 -190 -100 -190 -261z" />
    <glyph glyph-name="uni0431" unicode="&#x431;" horiz-adv-x="490" 
d="M344 598c-116 -22 -172 -78 -227 -244c43 72 106 99 158 99c105 0 162 -62 162 -179c0 -167 -90 -284 -218 -284c-111 0 -162 59 -162 187c0 179 75 422 255 454c119 21 131 34 134 59h35c-2 -51 -20 -70 -137 -92zM271 416c-97 0 -175 -110 -175 -249
c0 -88 36 -140 126 -140c98 0 176 105 176 246c0 93 -44 143 -127 143z" />
    <glyph glyph-name="uni0432" unicode="&#x432;" horiz-adv-x="434" 
d="M41 0l80 456h132c101 0 139 -41 139 -103c0 -56 -38 -101 -84 -115c38 -9 70 -43 70 -95c0 -95 -64 -143 -167 -143h-170zM123 255h107c71 0 119 40 119 97c0 54 -40 68 -102 68h-95zM85 36h126c63 0 125 27 125 105c0 49 -37 78 -106 78h-113z" />
    <glyph glyph-name="uni0433" unicode="&#x433;" horiz-adv-x="380" 
d="M121 456h279l-6 -36h-241l-74 -420h-38z" />
    <glyph glyph-name="uni0453" unicode="&#x453;" horiz-adv-x="380" 
d="M391 696l-108 -147h-43l101 147h50zM121 456h279l-6 -36h-241l-74 -420h-38z" />
    <glyph glyph-name="uni0491" unicode="&#x491;" horiz-adv-x="388" 
d="M41 0l80 456h250l21 122h38l-28 -158h-249l-74 -420h-38z" />
    <glyph glyph-name="uni0434" unicode="&#x434;" horiz-adv-x="502" 
d="M-47 -122l28 158h42c28 14 49 53 68 125l75 295h288l-74 -420h64l-28 -158h-38l22 122h-388l-21 -122h-38zM74 36h268l68 384h-216l-66 -264c-11 -44 -25 -90 -54 -120z" />
    <glyph glyph-name="uni0435" unicode="&#x435;" horiz-adv-x="453" 
d="M206 27c46 0 100 18 139 57l17 -31c-28 -32 -91 -63 -156 -63c-126 0 -156 82 -156 164c0 170 77 312 223 312c92 0 142 -59 142 -153c0 -40 -11 -70 -20 -96h-301c-16 -109 6 -190 112 -190zM365 253c2 8 10 23 10 60c0 63 -31 116 -102 116c-99 0 -151 -78 -173 -176
h265z" />
    <glyph glyph-name="uni0450" unicode="&#x450;" horiz-adv-x="453" 
d="M256 696l49 -147h-37l-57 147h45zM206 27c46 0 100 18 139 57l17 -31c-28 -32 -91 -63 -156 -63c-126 0 -156 82 -156 164c0 170 77 312 223 312c92 0 142 -59 142 -153c0 -40 -11 -70 -20 -96h-301c-16 -109 6 -190 112 -190zM365 253c2 8 10 23 10 60
c0 63 -31 116 -102 116c-99 0 -151 -78 -173 -176h265z" />
    <glyph glyph-name="uni0451" unicode="&#x451;" horiz-adv-x="453" 
d="M205 581c-18 0 -33 12 -33 33c0 33 18 46 43 46c17 0 34 -12 34 -34c0 -32 -22 -45 -44 -45zM367 581c-18 0 -33 12 -33 33c0 33 18 46 43 46c17 0 34 -12 34 -34c0 -32 -21 -45 -44 -45zM206 27c46 0 100 18 139 57l17 -31c-28 -32 -91 -63 -156 -63
c-126 0 -156 82 -156 164c0 170 77 312 223 312c92 0 142 -59 142 -153c0 -40 -11 -70 -20 -96h-301c-16 -109 6 -190 112 -190zM365 253c2 8 10 23 10 60c0 63 -31 116 -102 116c-99 0 -151 -78 -173 -176h265z" />
    <glyph glyph-name="uni0436" unicode="&#x436;" horiz-adv-x="636" 
d="M-16 0l216 232l-134 224h44l123 -208h70l36 208h38l-36 -208h65l195 208h51l-215 -227l133 -229h-44l-121 212h-71l-37 -212h-38l37 212h-66l-195 -212h-51z" />
    <glyph glyph-name="uni0437" unicode="&#x437;" horiz-adv-x="405" 
d="M253 234c31 -7 75 -42 75 -97c0 -85 -74 -144 -181 -144c-104 0 -150 50 -141 108h40c-6 -39 25 -71 102 -71c81 0 139 44 139 107c0 50 -49 80 -114 80h-59l7 37h59c78 0 135 40 135 100c0 44 -33 72 -96 72c-72 0 -113 -32 -121 -73h-41c10 56 61 110 166 110
c90 0 132 -47 132 -106c0 -60 -46 -109 -102 -123z" />
    <glyph glyph-name="uni0438" unicode="&#x438;" horiz-adv-x="488" 
d="M407 456h40l-80 -456h-38l68 386l-315 -386h-41l80 456h38l-68 -388z" />
    <glyph glyph-name="uni0439" unicode="&#x439;" horiz-adv-x="488" 
d="M292 554c-68 0 -110 51 -97 125h35c-9 -52 12 -92 65 -92c54 0 87 40 96 92h36c-13 -74 -63 -125 -135 -125zM407 456h40l-80 -456h-38l68 386l-315 -386h-41l80 456h38l-68 -388z" />
    <glyph glyph-name="uni045D" unicode="&#x45d;" horiz-adv-x="488" 
d="M322 549h-37l-57 147h45zM407 456h40l-80 -456h-38l68 386l-315 -386h-41l80 456h38l-68 -388z" />
    <glyph glyph-name="uni043A" unicode="&#x43a;" horiz-adv-x="414" 
d="M41 0l80 456h38l-36 -208h64l193 208h50l-213 -228l131 -228h-45l-119 212h-68l-37 -212h-38z" />
    <glyph glyph-name="uni045C" unicode="&#x45c;" horiz-adv-x="414" 
d="M386 696l-108 -147h-43l101 147h50zM41 0l80 456h38l-36 -208h64l193 208h50l-213 -228l131 -228h-45l-119 212h-68l-37 -212h-38z" />
    <glyph glyph-name="uni043B" unicode="&#x43b;" horiz-adv-x="520" 
d="M187 456h292l-80 -456h-38l74 420h-219l-67 -265c-27 -105 -68 -160 -129 -160c-15 0 -29 3 -38 7l17 34c8 -3 14 -4 24 -4c37 0 68 40 91 132z" />
    <glyph glyph-name="uni043C" unicode="&#x43c;" horiz-adv-x="602" 
d="M475 456h54l-16 -456h-39l16 406l-205 -406h-43l-64 407l-128 -407h-41l146 456h54l62 -401z" />
    <glyph glyph-name="uni043D" unicode="&#x43d;" horiz-adv-x="494" 
d="M415 456h38l-80 -456h-38l39 222h-256l-39 -222h-38l80 456h38l-35 -198h256z" />
    <glyph glyph-name="uni043E" unicode="&#x43e;" horiz-adv-x="488" 
d="M280 466c113 0 158 -76 158 -179c0 -131 -62 -297 -231 -297c-108 0 -156 75 -156 181c0 138 69 295 229 295zM207 27c145 0 191 152 191 260c0 84 -33 142 -118 142c-137 0 -189 -144 -189 -258c0 -84 34 -144 116 -144z" />
    <glyph glyph-name="uni043F" unicode="&#x43f;" horiz-adv-x="494" 
d="M453 456l-80 -456h-38l74 420h-256l-74 -420h-38l80 456h332z" />
    <glyph glyph-name="uni0440" unicode="&#x440;" horiz-adv-x="500" 
d="M41 -216h-38l119 672h37l-7 -46c28 28 70 56 136 56c112 0 159 -71 159 -179c0 -189 -85 -297 -230 -297c-67 0 -110 27 -129 63zM407 287c0 77 -29 142 -119 142c-68 0 -120 -37 -147 -80l-43 -243c13 -35 46 -79 119 -79c124 0 190 98 190 260z" />
    <glyph glyph-name="uni0441" unicode="&#x441;" horiz-adv-x="439" 
d="M52 169c0 156 71 297 227 297c69 0 120 -29 142 -84l-32 -21c-18 49 -57 68 -110 68c-138 0 -187 -135 -187 -260c0 -79 38 -142 121 -142c52 0 98 19 132 67l32 -21c-39 -53 -95 -83 -164 -83c-106 0 -161 68 -161 179z" />
    <glyph glyph-name="uni0442" unicode="&#x442;" horiz-adv-x="370" 
d="M396 456l-6 -36h-152l-74 -420h-38l74 420h-152l6 36h342z" />
    <glyph glyph-name="uni0443" unicode="&#x443;" horiz-adv-x="455" 
d="M208 88l210 368h49l-392 -672h-47l150 257l-110 415h44z" />
    <glyph glyph-name="uni045E" unicode="&#x45e;" horiz-adv-x="455" 
d="M395 679c-13 -74 -63 -125 -135 -125c-68 0 -110 51 -97 125h35c-9 -52 12 -92 65 -92c54 0 87 40 96 92h36zM208 88l210 368h49l-392 -672h-47l150 257l-110 415h44z" />
    <glyph glyph-name="uni0444" unicode="&#x444;" horiz-adv-x="582" 
d="M528 276c0 -180 -89 -285 -261 -286l-36 -206h-38l37 207c-103 3 -176 79 -176 191c0 176 86 283 259 284l40 224h38l-40 -225c105 -3 177 -77 177 -189zM94 184c0 -92 52 -153 142 -156l71 401c-143 -1 -213 -92 -213 -245zM274 27c144 1 213 93 213 248
c0 90 -50 150 -142 153z" />
    <glyph glyph-name="uni0445" unicode="&#x445;" horiz-adv-x="410" 
d="M336 0h-45l-89 196l-158 -196h-50l186 229l-106 227h44l90 -195l158 195h51l-188 -228z" />
    <glyph glyph-name="uni0447" unicode="&#x447;" horiz-adv-x="431" 
d="M352 456h38l-81 -456h-38l34 190c-24 -8 -70 -17 -118 -17c-101 0 -141 59 -125 147l25 136h38l-25 -137c-12 -67 10 -110 94 -110c51 0 94 7 117 17z" />
    <glyph glyph-name="uni0446" unicode="&#x446;" horiz-adv-x="501" 
d="M41 0l80 456h38l-74 -420h256l74 420h38l-74 -420h64l-28 -158h-38l22 122h-358z" />
    <glyph glyph-name="uni0448" unicode="&#x448;" horiz-adv-x="776" 
d="M41 0l80 456h38l-74 -420h250l74 420h38l-74 -420h250l74 420h38l-80 -456h-614z" />
    <glyph glyph-name="uni0449" unicode="&#x449;" horiz-adv-x="783" 
d="M41 0l80 456h38l-74 -420h250l74 420h38l-74 -420h250l74 420h38l-74 -420h64l-28 -158h-38l22 122h-640z" />
    </font>
</defs>
</svg>
