<?xml version="1.0" standalone="no"?>
<!DOCTYPE svg PUBLIC "-//W3C//DTD SVG 1.1//EN" "http://www.w3.org/Graphics/SVG/1.1/DTD/svg11.dtd" >
<svg xmlns="http://www.w3.org/2000/svg" xmlns:xlink="http://www.w3.org/1999/xlink" version="1.1">
<metadata>
Created by FontForge 20190801 at Thu Sep 13 21:38:52 2018
 By Jimmy Wärting
Copyright \(c\) 2014-2018 by Hannes von Doehren, Livius Dietzel. All rights reserved.
</metadata>
<defs>
<font id="BrixSans-MediumItalic" horiz-adv-x="502" >
  <font-face 
    font-family="Brix Sans Medium"
    font-weight="500"
    font-style="italic"
    font-stretch="normal"
    units-per-em="1000"
    panose-1="2 11 6 0 0 0 0 0 0 0"
    ascent="720"
    descent="-280"
    x-height="456"
    cap-height="676"
    bbox="-428 -229 1125 986"
    underline-thickness="71"
    underline-position="-65"
    slope="-10"
    stemh="92"
    stemv="99"
    unicode-range="U+0020-FB02"
  />
<missing-glyph horiz-adv-x="513" 
d="M59 656h413v-656h-413v656zM434 39v578h-337v-578h337z" />
    <glyph glyph-name="fi" unicode="fi" horiz-adv-x="550" 
d="M415 371h-199l-103 -587h-99l104 587h-71l13 75l72 10l13 71c19 104 68 163 170 163h65l-15 -85h-51c-44 0 -61 -26 -70 -79l-13 -70h298l-81 -456h-98zM496 555c-32 0 -54 15 -54 49c0 52 34 76 75 76c28 0 53 -16 53 -51c0 -53 -38 -74 -74 -74z" />
    <glyph glyph-name="fl" unicode="fl" horiz-adv-x="565" 
d="M365 605h-51c-44 0 -61 -26 -70 -79l-13 -70h118l-15 -85h-118l-103 -587h-99l104 587h-71l13 75l72 10l13 71c19 104 68 163 170 163h65zM565 690l-98 -552c-6 -38 1 -50 29 -50h25l-16 -91h-47c-84 0 -104 50 -91 129l99 564h99z" />
    <glyph glyph-name="f_f" unicode="ff" horiz-adv-x="614" 
d="M654 605h-51c-43 0 -60 -26 -70 -79l-13 -70h119l-15 -85h-118l-104 -587h-98l103 587h-191l-103 -587h-99l104 587h-71l13 75l72 10l13 71c19 104 68 163 170 163h65l-15 -85h-51c-44 0 -61 -26 -70 -79l-13 -70h191l13 71c19 104 68 163 169 163h65z" />
    <glyph glyph-name=".notdef" horiz-adv-x="513" 
d="M59 656h413v-656h-413v656zM434 39v578h-337v-578h337z" />
    <glyph glyph-name=".null" horiz-adv-x="0" 
 />
    <glyph glyph-name="space" unicode=" " horiz-adv-x="207" 
 />
    <glyph glyph-name="exclam" unicode="!" horiz-adv-x="239" 
d="M77 218l63 458h119l-99 -458h-83zM82 -6c-35 0 -60 26 -60 58c0 44 34 75 79 75c34 0 59 -27 59 -58c0 -45 -35 -75 -78 -75z" />
    <glyph glyph-name="quotedbl" unicode="&#x22;" horiz-adv-x="362" 
d="M130 676h97l-55 -244h-74zM292 676h95l-55 -244h-75z" />
    <glyph glyph-name="numbersign" unicode="#" horiz-adv-x="610" 
d="M29 187l28 88h96l44 141h-93l27 88h95l55 172h94l-55 -172h109l56 172h94l-54 -172h98l-28 -88h-100l-44 -141h97l-28 -88h-100l-59 -187h-95l61 187h-109l-61 -187h-95l61 187h-94zM247 275h109l44 141h-109z" />
    <glyph glyph-name="dollar" unicode="$" horiz-adv-x="526" 
d="M350 369c68 -26 130 -67 130 -158c0 -121 -83 -210 -226 -221l-16 -93h-61l16 93c-121 10 -163 77 -179 127l82 57c13 -46 38 -86 114 -92l38 217l-28 10c-67 26 -121 73 -121 156c0 109 72 209 217 220l13 74h61l-13 -75c90 -8 141 -51 162 -98l-81 -57
c-15 36 -50 58 -97 63l-38 -213zM209 474c0 -35 22 -58 57 -73l33 190c-60 -13 -90 -58 -90 -117zM271 84c66 12 99 55 99 115c0 41 -27 64 -65 79z" />
    <glyph glyph-name="percent" unicode="%" horiz-adv-x="797" 
d="M266 681c82 0 121 -51 121 -133c0 -129 -49 -235 -176 -235c-87 0 -122 56 -122 133c0 134 54 235 177 235zM217 0h-86l502 676h88zM216 373c63 0 95 60 95 175c0 45 -14 73 -50 73c-59 0 -96 -58 -96 -175c0 -46 15 -73 51 -73zM643 363c82 0 121 -51 121 -134
c0 -129 -49 -235 -175 -235c-88 0 -123 56 -123 134c0 134 54 235 177 235zM593 54c63 0 96 61 96 175c0 46 -15 74 -51 74c-59 0 -96 -58 -96 -175c0 -46 16 -74 51 -74z" />
    <glyph glyph-name="ampersand" unicode="&#x26;" horiz-adv-x="621" 
d="M486 178l-24 -28l103 -142l-2 -8h-107l-58 82c-57 -52 -125 -93 -215 -93c-104 0 -160 61 -160 136c0 109 96 166 172 215l14 10l-13 18c-22 30 -62 83 -62 140c0 97 80 179 209 179c98 0 159 -69 159 -146c0 -81 -58 -130 -148 -191l-25 -17l81 -112c5 6 9 11 14 16
l103 123l66 -56zM268 418l13 -18l27 18c61 42 98 70 98 117c0 33 -24 67 -71 67c-62 0 -106 -44 -106 -94c0 -33 18 -61 39 -90zM190 74c60 0 110 34 157 80l-91 130l-21 -14c-69 -49 -115 -79 -115 -134c0 -36 27 -62 70 -62z" />
    <glyph glyph-name="quotesingle" unicode="'" horiz-adv-x="200" 
d="M131 676h95l-54 -244h-75z" />
    <glyph glyph-name="parenleft" unicode="(" horiz-adv-x="282" 
d="M109 -222c-43 94 -72 215 -72 330c0 270 87 432 226 596l78 -29c-115 -174 -201 -331 -201 -573c0 -89 17 -203 46 -295z" />
    <glyph glyph-name="parenright" unicode=")" horiz-adv-x="281" 
d="M-52 -193c155 231 197 369 197 563c0 98 -19 216 -45 305l77 29c40 -95 73 -210 73 -332c0 -247 -81 -421 -232 -594z" />
    <glyph glyph-name="asterisk" unicode="*" horiz-adv-x="449" 
d="M96 371l110 111l-119 25l37 86l118 -43l17 146h94l-33 -145l135 39l2 -91l-127 -19l62 -113l-80 -52l-53 123l-110 -123z" />
    <glyph glyph-name="plus" unicode="+" horiz-adv-x="560" 
d="M49 312h190v198h94v-198h192v-85h-192v-197h-94v197h-190v85z" />
    <glyph glyph-name="comma" unicode="," horiz-adv-x="227" 
d="M59 -110h-75l66 238h108z" />
    <glyph glyph-name="hyphen" unicode="-" horiz-adv-x="403" 
d="M344 313v-85h-272v85h272z" />
    <glyph glyph-name="period" unicode="." horiz-adv-x="238" 
d="M84 -6c-38 0 -64 28 -64 61c0 47 36 80 84 80c36 0 63 -28 63 -62c0 -47 -37 -79 -83 -79z" />
    <glyph glyph-name="slash" unicode="/" horiz-adv-x="362" 
d="M93 0h-104l316 676h108z" />
    <glyph glyph-name="zero" unicode="0" horiz-adv-x="592" 
d="M374 687c128 0 193 -106 193 -244c0 -267 -93 -454 -311 -454c-127 0 -192 103 -192 245c0 268 94 453 310 453zM269 79c119 0 191 128 191 364c0 93 -30 154 -99 154c-118 0 -190 -127 -190 -363c0 -94 29 -155 98 -155z" />
    <glyph glyph-name="one" unicode="1" horiz-adv-x="382" 
d="M161 0l99 564l-178 -70l-12 91l224 91h92l-120 -676h-105z" />
    <glyph glyph-name="two" unicode="2" 
d="M318 687c110 0 180 -72 180 -172c0 -112 -76 -184 -169 -276l-158 -152h261l-15 -87h-407l13 75l239 227c80 76 127 132 127 209c0 51 -28 86 -78 86c-68 0 -107 -49 -119 -121h-100c15 124 92 211 226 211z" />
    <glyph glyph-name="three" unicode="3" horiz-adv-x="526" 
d="M372 342c48 -13 97 -58 97 -137c0 -127 -97 -216 -249 -216c-150 0 -204 80 -186 182h100c-10 -55 25 -92 94 -92c79 0 134 50 134 128c0 58 -41 95 -114 95h-60l15 87h60c86 0 144 44 144 126c0 48 -31 82 -87 82c-67 0 -108 -40 -117 -92h-102c13 99 84 182 226 182
c115 0 189 -69 189 -164c0 -105 -79 -167 -144 -181z" />
    <glyph glyph-name="four" unicode="4" horiz-adv-x="552" 
d="M500 141h-82l-25 -141h-104l25 141h-300l14 77l375 458h109l-78 -448h81zM329 228l52 292l-232 -292h180z" />
    <glyph glyph-name="five" unicode="5" horiz-adv-x="512" 
d="M469 255c0 -148 -95 -266 -257 -266c-151 0 -202 86 -183 192h99c-10 -59 20 -102 90 -102c96 0 142 80 142 166c0 58 -32 98 -93 98c-41 0 -76 -17 -105 -38l-84 12l104 359h339l-16 -87h-254l-52 -181c19 11 55 25 95 25c98 0 175 -59 175 -178z" />
    <glyph glyph-name="six" unicode="6" horiz-adv-x="554" 
d="M441 505c9 57 -22 92 -83 92c-92 0 -151 -93 -173 -227c25 27 84 61 148 61c106 0 179 -67 179 -178c0 -156 -96 -264 -258 -264c-132 0 -192 106 -192 239c0 235 89 459 303 459c140 0 194 -81 176 -182h-100zM170 263c-3 -13 -4 -30 -5 -43c-2 -83 25 -141 95 -141
c92 0 143 74 143 166c0 60 -32 100 -96 100c-58 0 -110 -40 -137 -82z" />
    <glyph glyph-name="seven" unicode="7" horiz-adv-x="461" 
d="M376 589h-284l15 87h408l-13 -76l-341 -600h-121z" />
    <glyph glyph-name="eight" unicode="8" horiz-adv-x="559" 
d="M243 -11c-122 0 -203 61 -203 170c0 113 77 174 154 193c-49 18 -85 57 -85 127c0 126 99 208 246 208c115 0 192 -60 192 -164c0 -102 -64 -159 -137 -180c42 -15 93 -53 93 -136c0 -139 -106 -218 -260 -218zM345 597c-76 0 -129 -45 -129 -123c0 -53 38 -83 92 -83
c70 0 129 42 129 123c0 53 -34 83 -92 83zM253 79c85 0 144 49 144 133c0 60 -43 92 -104 92c-77 0 -144 -47 -144 -134c0 -58 40 -91 104 -91z" />
    <glyph glyph-name="nine" unicode="9" horiz-adv-x="555" 
d="M153 171c-9 -57 22 -92 83 -92c91 0 151 93 172 227c-24 -27 -83 -61 -147 -61c-106 0 -179 67 -179 178c0 156 96 264 258 264c132 0 192 -106 192 -239c0 -235 -89 -459 -303 -459c-140 0 -195 81 -176 182h100zM424 413c3 13 4 30 5 43c2 83 -25 141 -95 141
c-92 0 -143 -74 -143 -166c0 -60 32 -100 96 -100c58 0 109 40 137 82z" />
    <glyph glyph-name="colon" unicode=":" horiz-adv-x="249" 
d="M146 332c-35 0 -60 27 -60 59c0 45 34 75 79 75c34 0 59 -26 59 -59c0 -44 -35 -75 -78 -75zM85 -6c-34 0 -59 26 -59 57c0 45 35 76 79 76c35 0 59 -26 59 -58c0 -44 -36 -75 -79 -75z" />
    <glyph glyph-name="semicolon" unicode=";" horiz-adv-x="245" 
d="M145 332c-35 0 -60 27 -60 59c0 45 35 75 79 75c34 0 60 -26 60 -59c0 -44 -35 -75 -79 -75zM65 -110h-75l66 238h108z" />
    <glyph glyph-name="less" unicode="&#x3c;" horiz-adv-x="560" 
d="M67 320l410 163v-92l-324 -122l324 -120v-92l-410 163v100z" />
    <glyph glyph-name="equal" unicode="=" horiz-adv-x="560" 
d="M490 430v-85h-409v85h409zM490 196v-85h-409v85h409z" />
    <glyph glyph-name="greater" unicode="&#x3e;" horiz-adv-x="560" 
d="M504 220l-409 -163v92l324 120l-324 122v92l409 -163v-100z" />
    <glyph glyph-name="question" unicode="?" horiz-adv-x="435" 
d="M282 686c102 0 170 -60 170 -145c0 -159 -175 -187 -198 -323h-103c29 165 199 202 199 307c0 36 -23 69 -71 69c-55 0 -94 -33 -101 -77l-92 8c14 86 74 161 196 161zM164 -6c-35 0 -59 25 -59 56c0 45 36 77 80 77c35 0 59 -25 59 -57c0 -44 -36 -76 -80 -76z" />
    <glyph glyph-name="at" unicode="@" horiz-adv-x="878" 
d="M488 74c-35 -35 -80 -60 -141 -60c-71 0 -120 52 -120 136c0 148 111 296 238 296c56 0 87 -22 104 -47l14 38h85l-92 -271c-20 -55 -21 -86 11 -86c80 0 184 117 184 311c0 104 -61 191 -222 191c-271 0 -435 -233 -435 -470c0 -131 68 -215 217 -215
c66 0 129 14 186 40l4 -71c-55 -24 -119 -44 -194 -44c-198 0 -294 119 -294 285c0 293 209 550 521 550c205 0 298 -123 298 -264c0 -234 -144 -387 -277 -387c-63 0 -89 28 -87 68zM546 330c-15 19 -36 39 -75 39c-86 0 -154 -110 -154 -207c0 -47 22 -68 55 -68
c39 0 81 20 107 44z" />
    <glyph glyph-name="A" unicode="A" horiz-adv-x="590" 
d="M411 166h-245l-81 -166h-119l347 676h123l109 -676h-112zM209 255h191l-40 311z" />
    <glyph glyph-name="B" unicode="B" horiz-adv-x="571" 
d="M154 676h208c115 0 184 -53 184 -151c0 -96 -56 -157 -123 -174c55 -15 100 -59 100 -138c0 -159 -106 -213 -274 -213h-214zM303 393c103 0 130 56 130 121c0 44 -27 73 -96 73h-92l-34 -194h92zM262 89c115 0 151 47 151 130c0 51 -32 86 -112 86h-106l-38 -216h105z
" />
    <glyph glyph-name="C" unicode="C" horiz-adv-x="572" 
d="M173 258c0 -102 39 -176 131 -176c58 0 110 36 143 83l78 -56c-52 -68 -123 -119 -233 -119c-152 0 -230 108 -230 264c0 270 122 432 337 432c105 0 176 -51 202 -123l-87 -50c-16 48 -61 81 -119 81c-143 0 -222 -130 -222 -336z" />
    <glyph glyph-name="D" unicode="D" horiz-adv-x="635" 
d="M154 676h185c178 0 273 -84 273 -240c0 -307 -126 -436 -374 -436h-203zM237 89c154 0 264 75 264 338c0 105 -51 160 -176 160h-80l-88 -498h80z" />
    <glyph glyph-name="E" unicode="E" horiz-adv-x="523" 
d="M456 89l-16 -89h-405l119 676h402l-15 -89h-296l-35 -200h258l-16 -88h-258l-37 -210h299z" />
    <glyph glyph-name="F" unicode="F" horiz-adv-x="504" 
d="M154 676h391l-16 -89h-284l-39 -218h241l-16 -89h-241l-48 -280h-107z" />
    <glyph glyph-name="G" unicode="G" horiz-adv-x="629" 
d="M359 364h250c-1 -16 -3 -37 -4 -46c-15 -158 -93 -328 -308 -328c-149 0 -235 100 -235 259c0 294 138 437 351 437c110 0 174 -49 201 -118l-85 -51c-20 49 -57 77 -124 77c-147 0 -233 -116 -233 -341c0 -110 44 -172 134 -172c119 0 173 99 183 194h-146z" />
    <glyph glyph-name="H" unicode="H" horiz-adv-x="655" 
d="M553 676h107l-120 -676h-107l55 308h-293l-53 -308h-107l119 676h107l-50 -279h293z" />
    <glyph glyph-name="I" unicode="I" horiz-adv-x="257" 
d="M154 676h107l-119 -676h-107z" />
    <glyph glyph-name="J" unicode="J" horiz-adv-x="469" 
d="M82 146c12 -42 37 -64 86 -64c77 0 113 49 131 153l78 441h102l-80 -449c-28 -161 -101 -237 -238 -237c-92 0 -148 43 -167 106z" />
    <glyph glyph-name="K" unicode="K" horiz-adv-x="591" 
d="M180 218l-38 -218h-107l119 676h107l-55 -307l317 307l135 -1l-286 -282l164 -393h-118l-129 321z" />
    <glyph glyph-name="L" unicode="L" horiz-adv-x="460" 
d="M419 89l-15 -89h-369l119 676h107l-104 -587h262z" />
    <glyph glyph-name="M" unicode="M" horiz-adv-x="823" 
d="M637 676h146l-44 -676h-102l42 551l-251 -551h-116l-51 548l-157 -548h-102l200 676h139l50 -543z" />
    <glyph glyph-name="N" unicode="N" horiz-adv-x="656" 
d="M554 676h107l-120 -676h-114l-197 501l-87 -501h-109l121 676h117l195 -496z" />
    <glyph glyph-name="O" unicode="O" horiz-adv-x="645" 
d="M622 429c0 -234 -88 -439 -335 -439c-149 0 -225 103 -225 254c0 238 86 442 335 442c158 0 225 -110 225 -257zM172 244c0 -92 33 -162 124 -162c125 0 216 104 216 347c0 93 -33 165 -124 165c-154 0 -216 -152 -216 -350z" />
    <glyph glyph-name="P" unicode="P" horiz-adv-x="554" 
d="M186 257l-44 -257h-107l119 676h214c126 0 194 -68 194 -177c0 -152 -92 -242 -265 -242h-111zM202 346h102c115 0 146 70 146 149c0 53 -28 92 -103 92h-102z" />
    <glyph glyph-name="Q" unicode="Q" horiz-adv-x="641" 
d="M627 429c0 -128 -26 -247 -91 -329l38 -47l-71 -64l-37 47c-46 -29 -104 -46 -174 -46c-149 0 -224 103 -224 254c0 238 85 442 334 442c158 0 225 -110 225 -257zM301 82c39 0 74 10 105 31l-130 166l67 60l125 -155c31 56 49 137 49 245c0 93 -33 165 -124 165
c-154 0 -216 -152 -216 -350c0 -92 33 -162 124 -162z" />
    <glyph glyph-name="R" unicode="R" horiz-adv-x="579" 
d="M154 676h229c132 0 201 -65 201 -165c0 -128 -78 -199 -191 -216l117 -295h-116l-106 287h-96l-50 -287h-107zM473 506c0 49 -30 81 -111 81h-117l-38 -211h117c107 0 149 46 149 130z" />
    <glyph glyph-name="S" unicode="S" horiz-adv-x="525" 
d="M457 529c-18 42 -59 65 -121 65c-79 0 -125 -51 -125 -120c0 -39 26 -64 68 -79l70 -26c68 -26 130 -67 130 -158c0 -129 -95 -222 -256 -222c-145 0 -193 74 -210 128l82 57c15 -50 42 -93 136 -93c88 0 136 47 136 118c0 44 -32 67 -74 83l-74 27
c-67 26 -121 73 -121 156c0 116 81 221 245 221c110 0 172 -48 195 -100z" />
    <glyph glyph-name="T" unicode="T" horiz-adv-x="519" 
d="M569 676l-16 -89h-177l-104 -587h-107l104 587h-177l15 89h462z" />
    <glyph glyph-name="U" unicode="U" horiz-adv-x="624" 
d="M281 -10c-148 0 -240 76 -207 265l74 421h107l-74 -420c-21 -122 14 -174 106 -174c91 0 145 52 167 174l73 420h107l-74 -421c-33 -190 -135 -265 -279 -265z" />
    <glyph glyph-name="V" unicode="V" horiz-adv-x="577" 
d="M645 676l-329 -676h-136l-89 676h109l63 -566l265 566h117z" />
    <glyph glyph-name="W" unicode="W" horiz-adv-x="926" 
d="M599 676l42 -555l231 555h115l-293 -676h-132l-46 530l-232 -530h-132l-56 676h108l36 -555l237 555h122z" />
    <glyph glyph-name="X" unicode="X" horiz-adv-x="562" 
d="M215 676l95 -256l185 256h126l-247 -327l135 -349h-114l-100 271l-194 -271h-127l258 349l-132 327h115z" />
    <glyph glyph-name="Y" unicode="Y" horiz-adv-x="561" 
d="M187 0l47 267l-146 409h112l100 -312l207 312h125l-291 -409l-47 -267h-107z" />
    <glyph glyph-name="Z" unicode="Z" horiz-adv-x="498" 
d="M519 597l-378 -508h296l-15 -89h-428l13 77l378 510h-272l15 89h405z" />
    <glyph glyph-name="bracketleft" unicode="[" horiz-adv-x="307" 
d="M363 690l-15 -84h-115l-130 -738h115l-14 -84h-219l159 906h219z" />
    <glyph glyph-name="backslash" unicode="\" horiz-adv-x="351" 
d="M106 676h100l78 -676h-97z" />
    <glyph glyph-name="bracketright" unicode="]" horiz-adv-x="307" 
d="M325 690l-160 -906h-218l15 84h116l130 738h-116l15 84h218z" />
    <glyph glyph-name="asciicircum" unicode="^" horiz-adv-x="560" 
d="M364 699l194 -248l-70 -67l-140 182l-204 -182l-63 67z" />
    <glyph glyph-name="underscore" unicode="_" horiz-adv-x="469" 
d="M382 -31l-12 -67h-380l12 67h380z" />
    <glyph glyph-name="grave" unicode="`" horiz-adv-x="570" 
d="M428 696l42 -160h-84l-55 160h97z" />
    <glyph glyph-name="a" unicode="a" horiz-adv-x="504" 
d="M384 456h99l-80 -456h-95l7 39c-29 -28 -68 -49 -122 -49c-101 0 -154 66 -154 182c0 188 90 294 221 294c59 0 99 -26 117 -49zM141 184c0 -60 22 -103 85 -103c45 0 79 21 101 44l36 206c-13 20 -39 44 -85 44c-99 0 -137 -87 -137 -191z" />
    <glyph glyph-name="b" unicode="b" horiz-adv-x="504" 
d="M194 418c24 25 67 48 119 48c103 0 153 -71 153 -175c0 -176 -77 -301 -231 -301c-67 0 -106 26 -125 53l-38 -43h-50l122 690h98zM364 274c0 57 -23 101 -86 101c-49 0 -83 -26 -99 -45l-36 -201c12 -23 39 -48 83 -48c94 0 138 78 138 193z" />
    <glyph glyph-name="c" unicode="c" horiz-adv-x="438" 
d="M37 172c0 160 78 294 237 294c81 0 138 -33 161 -97l-75 -48c-13 38 -43 57 -86 57c-100 0 -135 -101 -135 -196c0 -58 25 -105 84 -105c43 0 78 22 104 59l64 -52c-43 -61 -104 -94 -181 -94c-116 0 -173 79 -173 182z" />
    <glyph glyph-name="d" unicode="d" horiz-adv-x="504" 
d="M426 690h99l-122 -690h-95l7 39c-29 -28 -68 -49 -122 -49c-101 0 -154 66 -154 182c0 188 90 294 221 294c59 0 99 -26 117 -49zM141 184c0 -60 22 -103 85 -103c45 0 79 21 101 44l36 206c-13 20 -39 44 -85 44c-99 0 -137 -87 -137 -191z" />
    <glyph glyph-name="e" unicode="e" horiz-adv-x="456" 
d="M223 74c39 0 82 16 119 47l37 -70c-36 -33 -94 -61 -163 -61c-130 0 -180 79 -180 182c0 164 94 294 235 294c107 0 159 -72 159 -157c0 -43 -14 -86 -24 -112h-269c-11 -73 13 -123 86 -123zM332 269c2 7 7 16 7 39c0 48 -29 77 -72 77c-66 0 -103 -51 -118 -116h183z
" />
    <glyph glyph-name="f" unicode="f" horiz-adv-x="325" 
d="M365 605h-51c-44 0 -61 -26 -70 -79l-13 -70h118l-15 -85h-118l-103 -587h-99l104 587h-71l13 75l72 10l13 71c19 104 68 163 170 163h65z" />
    <glyph glyph-name="g" unicode="g" 
d="M481 456l-86 -488c-18 -102 -97 -173 -213 -173c-119 0 -172 64 -159 144h87c-5 -32 17 -65 78 -65c59 0 97 35 107 89l13 73c-25 -24 -64 -46 -112 -46c-110 0 -157 70 -157 181c0 180 83 295 224 295c61 0 99 -25 117 -52l7 42h94zM140 183c0 -55 22 -102 84 -102
c39 0 76 19 99 44l37 207c-13 21 -40 43 -83 43c-92 0 -137 -81 -137 -192z" />
    <glyph glyph-name="h" unicode="h" 
d="M144 690h98l-47 -274c27 25 76 50 133 50c103 0 147 -62 127 -178l-51 -288h-98l49 278c11 66 -5 97 -70 97c-41 0 -82 -22 -106 -44l-59 -331h-98z" />
    <glyph glyph-name="i" unicode="i" horiz-adv-x="222" 
d="M167 555c-31 0 -53 15 -53 49c0 52 34 76 75 76c28 0 53 -16 53 -51c0 -53 -39 -74 -75 -74zM102 456h99l-81 -456h-99z" />
    <glyph glyph-name="j" unicode="j" horiz-adv-x="222" 
d="M168 555c-32 0 -54 15 -54 49c0 52 34 76 76 76c27 0 52 -16 52 -51c0 -53 -38 -74 -74 -74zM-88 -158c59 27 93 66 105 136l85 478h99l-82 -463c-19 -104 -66 -176 -158 -219z" />
    <glyph glyph-name="k" unicode="k" horiz-adv-x="468" 
d="M312 0l-87 218l-78 -68l-27 -150h-98l122 690h98l-72 -412l199 178h131l-199 -173l114 -283h-103z" />
    <glyph glyph-name="l" unicode="l" horiz-adv-x="240" 
d="M240 690l-98 -552c-6 -38 1 -50 29 -50h25l-16 -91h-47c-84 0 -104 50 -91 129l99 564h99z" />
    <glyph glyph-name="m" unicode="m" horiz-adv-x="778" 
d="M102 456h96l-8 -46c28 29 72 56 125 56c71 0 104 -28 124 -68c33 36 90 68 161 68c109 0 152 -57 132 -170l-52 -296h-99l51 288c11 60 -7 87 -66 87c-43 0 -81 -20 -105 -44l-59 -331h-98l57 324c-10 31 -35 51 -79 51c-42 0 -76 -21 -104 -44l-58 -331h-99z" />
    <glyph glyph-name="n" unicode="n" 
d="M102 456h96l-8 -46c28 28 76 56 138 56c101 0 148 -60 127 -178l-51 -288h-99l50 278c11 66 -6 97 -71 97c-40 0 -82 -20 -106 -44l-58 -331h-99z" />
    <glyph glyph-name="o" unicode="o" horiz-adv-x="488" 
d="M278 466c121 0 173 -78 173 -188c0 -153 -83 -288 -241 -288c-120 0 -172 80 -172 189c0 153 83 287 240 287zM216 79c89 0 134 98 134 199c0 62 -23 99 -79 99c-87 0 -132 -94 -132 -198c0 -62 23 -100 77 -100z" />
    <glyph glyph-name="p" unicode="p" horiz-adv-x="508" 
d="M82 -216h-99l119 672h94l-7 -40c26 25 70 50 124 50c100 0 156 -71 156 -184c0 -181 -83 -292 -223 -292c-62 0 -103 24 -120 48zM366 271c0 57 -22 104 -86 104c-46 0 -81 -21 -102 -45l-36 -206c13 -20 38 -43 86 -43c101 0 138 87 138 190z" />
    <glyph glyph-name="q" unicode="q" horiz-adv-x="500" 
d="M305 30c-24 -20 -57 -40 -109 -40c-105 0 -158 67 -158 179c0 169 79 297 225 297c69 0 110 -27 129 -53l37 43h50l-118 -672h-99zM141 180c0 -60 24 -99 84 -99c49 0 81 25 97 43l36 202c-12 23 -37 49 -80 49c-100 0 -137 -88 -137 -195z" />
    <glyph glyph-name="r" unicode="r" horiz-adv-x="339" 
d="M186 391c22 38 65 75 122 75c24 0 44 -3 58 -7l-26 -104c-18 6 -38 9 -57 9c-46 0 -86 -30 -111 -71l-52 -293h-99l81 456h95l-12 -65h1z" />
    <glyph glyph-name="s" unicode="s" horiz-adv-x="418" 
d="M342 342c-20 28 -57 48 -102 48c-56 0 -80 -31 -80 -66c0 -22 13 -39 48 -50l52 -17c71 -21 108 -59 108 -115c0 -78 -59 -152 -199 -152c-93 0 -144 43 -166 77l65 57c19 -29 49 -59 108 -59c50 0 89 22 89 64c0 26 -17 40 -57 52l-56 19c-59 19 -94 58 -94 112
c0 69 51 154 190 154c78 0 132 -35 156 -65z" />
    <glyph glyph-name="t" unicode="t" horiz-adv-x="330" 
d="M179 140c-8 -41 7 -59 41 -59c17 0 39 5 57 11l-11 -86c-22 -9 -53 -16 -84 -16c-90 0 -119 57 -104 138l43 244h-80l13 74l82 10l20 113l101 16l-23 -129h105l-15 -84h-104z" />
    <glyph glyph-name="u" unicode="u" 
d="M400 0h-96l8 46c-28 -28 -76 -56 -138 -56c-101 0 -148 60 -127 178l51 288h99l-50 -278c-11 -66 5 -97 71 -97c40 0 82 20 106 44l58 331h99z" />
    <glyph glyph-name="v" unicode="v" horiz-adv-x="468" 
d="M492 456l-237 -456h-120l-80 456h103l50 -359l174 359h110z" />
    <glyph glyph-name="w" unicode="w" horiz-adv-x="732" 
d="M451 456l38 -349l158 349h107l-217 -456h-109l-44 329l-160 -329h-108l-57 456h100l35 -349l161 349h96z" />
    <glyph glyph-name="x" unicode="x" horiz-adv-x="452" 
d="M393 0h-109l-64 160l-122 -160h-119l185 229l-105 227h109l65 -160l121 160h120l-186 -228z" />
    <glyph glyph-name="y" unicode="y" horiz-adv-x="468" 
d="M221 140l163 316h112l-377 -672h-106l141 245l-102 427h108z" />
    <glyph glyph-name="z" unicode="z" horiz-adv-x="399" 
d="M387 389l-244 -304h192l-15 -85h-324l12 67l246 304h-183l14 85h314z" />
    <glyph glyph-name="braceleft" unicode="{" horiz-adv-x="300" 
d="M227 347c-16 -89 -45 -103 -74 -111c26 -15 47 -51 34 -112l-36 -204c-9 -48 8 -63 48 -63l-13 -73c-110 0 -153 44 -135 143l33 190c11 60 -14 82 -74 82l14 76c60 0 93 27 105 91l33 192c19 105 63 132 184 132l-15 -80c-41 0 -61 -15 -69 -63z" />
    <glyph glyph-name="bar" unicode="|" horiz-adv-x="254" 
d="M95 -216v906h68v-906h-68z" />
    <glyph glyph-name="braceright" unicode="}" horiz-adv-x="300" 
d="M77 130c16 89 46 107 74 114c-25 15 -47 48 -34 109l35 201c9 48 -7 63 -47 63l13 73c109 0 153 -48 135 -146l-34 -187c-10 -60 15 -82 74 -82l-14 -76c-59 0 -91 -20 -102 -84l-36 -200c-19 -106 -63 -131 -183 -131l14 80c41 0 61 15 70 63z" />
    <glyph glyph-name="asciitilde" unicode="~" horiz-adv-x="560" 
d="M447 224c-22 19 -46 31 -75 31c-54 0 -117 -63 -188 -63c-37 0 -66 14 -81 27l22 97c18 -19 36 -32 68 -32c58 0 110 67 191 67c42 0 69 -18 86 -32z" />
    <glyph glyph-name="Agrave" unicode="&#xc0;" horiz-adv-x="590" 
d="M387 900l42 -160h-84l-54 160h96zM411 166h-245l-81 -166h-119l347 676h123l109 -676h-112zM209 255h191l-40 311z" />
    <glyph glyph-name="Aacute" unicode="&#xc1;" horiz-adv-x="590" 
d="M540 900l-111 -160h-92l99 160h104zM411 166h-245l-81 -166h-119l347 676h123l109 -676h-112zM209 255h191l-40 311z" />
    <glyph glyph-name="Acircumflex" unicode="&#xc2;" horiz-adv-x="590" 
d="M465 900l68 -160h-87l-39 96l-73 -96h-92l124 160h99zM411 166h-245l-81 -166h-119l347 676h123l109 -676h-112zM209 255h191l-40 311z" />
    <glyph glyph-name="Atilde" unicode="&#xc3;" horiz-adv-x="590" 
d="M527 772c-17 15 -38 26 -61 26c-40 0 -93 -40 -149 -40c-28 0 -51 12 -61 23l17 74c13 -16 30 -24 57 -24c40 0 85 39 148 39c34 0 52 -12 66 -23zM411 166h-245l-81 -166h-119l347 676h123l109 -676h-112zM209 255h191l-40 311z" />
    <glyph glyph-name="Adieresis" unicode="&#xc4;" horiz-adv-x="590" 
d="M300 749c-33 0 -55 17 -55 51c0 50 29 74 71 74c28 0 56 -17 56 -52c0 -53 -36 -73 -72 -73zM481 749c-33 0 -55 17 -55 51c0 50 30 74 71 74c28 0 56 -17 56 -52c0 -53 -36 -73 -72 -73zM411 166h-245l-81 -166h-119l347 676h123l109 -676h-112zM209 255h191l-40 311z
" />
    <glyph glyph-name="Amacron" unicode="&#x100;" horiz-adv-x="590" 
d="M546 851l-15 -81h-276l13 81h278zM411 166h-245l-81 -166h-119l347 676h123l109 -676h-112zM209 255h191l-40 311z" />
    <glyph glyph-name="Abreve" unicode="&#x102;" horiz-adv-x="590" 
d="M552 890c-14 -82 -72 -145 -165 -145c-88 0 -128 63 -113 145h64c-3 -42 21 -72 61 -72c42 0 75 30 87 72h66zM411 166h-245l-81 -166h-119l347 676h123l109 -676h-112zM209 255h191l-40 311z" />
    <glyph glyph-name="Aring" unicode="&#xc5;" horiz-adv-x="590" 
d="M297 797c0 59 42 112 116 112c60 0 91 -41 91 -84c0 -58 -44 -111 -120 -111c-57 0 -87 41 -87 83zM355 803c0 -19 12 -36 36 -36c33 0 53 25 53 52c0 20 -12 37 -38 37c-31 0 -51 -25 -51 -53zM411 166h-245l-81 -166h-119l347 676h123l109 -676h-112zM209 255h191
l-40 311z" />
    <glyph glyph-name="Aringacute" unicode="&#x1fa;" horiz-adv-x="590" 
d="M289 799c0 49 31 92 85 104l66 83h96l-79 -90c24 -13 38 -42 38 -73c0 -58 -48 -108 -118 -108c-61 0 -88 42 -88 84zM345 803c0 -20 13 -37 36 -37c35 0 55 24 55 54c0 20 -12 37 -38 37c-32 0 -53 -25 -53 -54zM411 166h-245l-81 -166h-119l347 676h123l109 -676h-112z
M209 255h191l-40 311z" />
    <glyph glyph-name="Aogonek" unicode="&#x104;" horiz-adv-x="590" 
d="M429 -110c0 -14 8 -27 30 -27c19 0 43 11 66 26l-14 -83c-25 -12 -52 -22 -91 -22c-59 0 -97 32 -97 80c0 46 27 75 77 113l33 26l-22 163h-245l-81 -166h-119l347 676h123l109 -676l-77 -54c-25 -19 -39 -35 -39 -56zM209 255h191l-40 311z" />
    <glyph glyph-name="AE" unicode="&#xc6;" horiz-adv-x="911" 
d="M-34 0l515 676h464l-16 -89h-296l-35 -200h258l-15 -88h-258l-38 -214h298l-14 -85h-407l30 167h-232l-127 -167h-127zM467 254l59 326l-245 -326h186z" />
    <glyph glyph-name="AEacute" unicode="&#x1fc;" horiz-adv-x="911" 
d="M846 900l-110 -160h-93l99 160h104zM-34 0l515 676h464l-16 -89h-296l-35 -200h258l-15 -88h-258l-38 -214h298l-14 -85h-407l30 167h-232l-127 -167h-127zM467 254l59 326l-245 -326h186z" />
    <glyph glyph-name="Cacute" unicode="&#x106;" horiz-adv-x="572" 
d="M563 900l-110 -160h-93l99 160h104zM173 258c0 -102 39 -176 131 -176c58 0 110 36 143 83l78 -56c-52 -68 -123 -119 -233 -119c-152 0 -230 108 -230 264c0 270 122 432 337 432c105 0 176 -51 202 -123l-87 -50c-16 48 -61 81 -119 81c-143 0 -222 -130 -222 -336z
" />
    <glyph glyph-name="Ccircumflex" unicode="&#x108;" horiz-adv-x="572" 
d="M492 900l67 -160h-86l-40 96l-73 -96h-92l125 160h99zM173 258c0 -102 39 -176 131 -176c58 0 110 36 143 83l78 -56c-52 -68 -123 -119 -233 -119c-152 0 -230 108 -230 264c0 270 122 432 337 432c105 0 176 -51 202 -123l-87 -50c-16 48 -61 81 -119 81
c-143 0 -222 -130 -222 -336z" />
    <glyph glyph-name="Ccaron" unicode="&#x10c;" horiz-adv-x="572" 
d="M364 740l-68 160h86l40 -95l73 95h91l-123 -160h-99zM173 258c0 -102 39 -176 131 -176c58 0 110 36 143 83l78 -56c-52 -68 -123 -119 -233 -119c-152 0 -230 108 -230 264c0 270 122 432 337 432c105 0 176 -51 202 -123l-87 -50c-16 48 -61 81 -119 81
c-143 0 -222 -130 -222 -336z" />
    <glyph glyph-name="Cdotaccent" unicode="&#x10a;" horiz-adv-x="572" 
d="M419 750c-32 0 -57 14 -57 51c0 52 33 74 75 74c27 0 53 -19 53 -54c0 -51 -35 -71 -71 -71zM173 258c0 -102 39 -176 131 -176c58 0 110 36 143 83l78 -56c-52 -68 -123 -119 -233 -119c-152 0 -230 108 -230 264c0 270 122 432 337 432c105 0 176 -51 202 -123l-87 -50
c-16 48 -61 81 -119 81c-143 0 -222 -130 -222 -336z" />
    <glyph glyph-name="Ccedilla" unicode="&#xc7;" horiz-adv-x="572" 
d="M304 82c58 0 110 36 143 83l78 -56c-49 -64 -115 -113 -215 -119l-24 -42c43 0 74 -20 74 -66c0 -62 -47 -98 -118 -98c-36 0 -66 10 -88 23l12 63c19 -17 48 -27 75 -27c26 0 40 12 40 30s-15 24 -41 24h-39l-3 7l47 90c-121 20 -183 121 -183 260
c0 270 122 432 337 432c105 0 176 -51 202 -123l-87 -50c-16 48 -61 81 -119 81c-143 0 -222 -130 -222 -336c0 -102 39 -176 131 -176z" />
    <glyph glyph-name="Dcaron" unicode="&#x10e;" horiz-adv-x="635" 
d="M329 740l-68 160h86l40 -95l73 95h91l-123 -160h-99zM154 676h185c178 0 273 -84 273 -240c0 -307 -126 -436 -374 -436h-203zM237 89c154 0 264 75 264 338c0 105 -51 160 -176 160h-80l-88 -498h80z" />
    <glyph glyph-name="Dcroat" unicode="&#x110;" horiz-adv-x="641" 
d="M94 311h-60l12 68h61l52 297h185c178 0 274 -84 274 -240c0 -307 -126 -436 -374 -436h-204zM243 89c153 0 263 75 263 338c0 105 -50 160 -175 160h-81l-37 -208h108l-11 -68h-109l-38 -222h80z" />
    <glyph glyph-name="Eth" unicode="&#xd0;" horiz-adv-x="641" 
d="M94 311h-60l12 68h61l52 297h185c178 0 274 -84 274 -240c0 -307 -126 -436 -374 -436h-204zM243 89c153 0 263 75 263 338c0 105 -50 160 -175 160h-81l-37 -208h108l-11 -68h-109l-38 -222h80z" />
    <glyph glyph-name="Egrave" unicode="&#xc8;" horiz-adv-x="523" 
d="M375 900l42 -160h-84l-55 160h97zM456 89l-16 -89h-405l119 676h402l-15 -89h-296l-35 -200h258l-16 -88h-258l-37 -210h299z" />
    <glyph glyph-name="Eacute" unicode="&#xc9;" horiz-adv-x="523" 
d="M521 900l-110 -160h-92l98 160h104zM456 89l-16 -89h-405l119 676h402l-15 -89h-296l-35 -200h258l-16 -88h-258l-37 -210h299z" />
    <glyph glyph-name="Ecircumflex" unicode="&#xca;" horiz-adv-x="523" 
d="M445 900l67 -160h-86l-39 96l-74 -96h-92l125 160h99zM456 89l-16 -89h-405l119 676h402l-15 -89h-296l-35 -200h258l-16 -88h-258l-37 -210h299z" />
    <glyph glyph-name="Ecaron" unicode="&#x11a;" horiz-adv-x="523" 
d="M318 740l-68 160h86l39 -95l74 95h91l-123 -160h-99zM456 89l-16 -89h-405l119 676h402l-15 -89h-296l-35 -200h258l-16 -88h-258l-37 -210h299z" />
    <glyph glyph-name="Edieresis" unicode="&#xcb;" horiz-adv-x="523" 
d="M281 750c-33 0 -55 16 -55 50c0 50 29 75 71 75c28 0 56 -18 56 -52c0 -53 -36 -73 -72 -73zM462 750c-33 0 -55 16 -55 50c0 50 30 75 71 75c28 0 56 -18 56 -52c0 -53 -36 -73 -72 -73zM456 89l-16 -89h-405l119 676h402l-15 -89h-296l-35 -200h258l-16 -88h-258
l-37 -210h299z" />
    <glyph glyph-name="Emacron" unicode="&#x112;" horiz-adv-x="523" 
d="M526 851l-15 -81h-276l13 81h278zM456 89l-16 -89h-405l119 676h402l-15 -89h-296l-35 -200h258l-16 -88h-258l-37 -210h299z" />
    <glyph glyph-name="Ebreve" unicode="&#x114;" horiz-adv-x="523" 
d="M532 890c-14 -82 -72 -145 -164 -145c-89 0 -128 63 -114 145h64c-3 -42 21 -72 61 -72c43 0 75 30 87 72h66zM456 89l-16 -89h-405l119 676h402l-15 -89h-296l-35 -200h258l-16 -88h-258l-37 -210h299z" />
    <glyph glyph-name="Edotaccent" unicode="&#x116;" horiz-adv-x="523" 
d="M373 750c-32 0 -57 14 -57 51c0 52 33 74 75 74c27 0 53 -19 53 -54c0 -51 -35 -71 -71 -71zM456 89l-16 -89h-405l119 676h402l-15 -89h-296l-35 -200h258l-16 -88h-258l-37 -210h299z" />
    <glyph glyph-name="Eogonek" unicode="&#x118;" horiz-adv-x="524" 
d="M541 587h-296l-35 -200h258l-16 -88h-258l-37 -210h299l-16 -89l-76 -54c-26 -19 -40 -35 -40 -56c0 -14 9 -27 31 -27c18 0 43 11 66 26l-14 -83c-26 -12 -53 -22 -91 -22c-60 0 -97 32 -97 80c0 46 26 75 76 113l30 23h-290l119 676h402z" />
    <glyph glyph-name="Gcircumflex" unicode="&#x11c;" horiz-adv-x="629" 
d="M503 900l67 -160h-86l-39 96l-73 -96h-92l124 160h99zM359 364h250c-1 -16 -3 -37 -4 -46c-15 -158 -93 -328 -308 -328c-149 0 -235 100 -235 259c0 294 138 437 351 437c110 0 174 -49 201 -118l-85 -51c-20 49 -57 77 -124 77c-147 0 -233 -116 -233 -341
c0 -110 44 -172 134 -172c119 0 173 99 183 194h-146z" />
    <glyph glyph-name="Gbreve" unicode="&#x11e;" horiz-adv-x="629" 
d="M593 890c-14 -82 -72 -145 -164 -145c-89 0 -128 63 -114 145h64c-3 -42 21 -72 61 -72c43 0 75 30 87 72h66zM359 364h250c-1 -16 -3 -37 -4 -46c-15 -158 -93 -328 -308 -328c-149 0 -235 100 -235 259c0 294 138 437 351 437c110 0 174 -49 201 -118l-85 -51
c-20 49 -57 77 -124 77c-147 0 -233 -116 -233 -341c0 -110 44 -172 134 -172c119 0 173 99 183 194h-146z" />
    <glyph glyph-name="Gdotaccent" unicode="&#x120;" horiz-adv-x="629" 
d="M433 750c-32 0 -56 14 -56 51c0 52 32 74 74 74c27 0 53 -19 53 -54c0 -51 -35 -71 -71 -71zM359 364h250c-1 -16 -3 -37 -4 -46c-15 -158 -93 -328 -308 -328c-149 0 -235 100 -235 259c0 294 138 437 351 437c110 0 174 -49 201 -118l-85 -51c-20 49 -57 77 -124 77
c-147 0 -233 -116 -233 -341c0 -110 44 -172 134 -172c119 0 173 99 183 194h-146z" />
    <glyph glyph-name="uni0122" unicode="&#x122;" horiz-adv-x="629" 
d="M359 364h250c-1 -16 -3 -37 -4 -46c-15 -158 -93 -328 -308 -328c-149 0 -235 100 -235 259c0 294 138 437 351 437c110 0 174 -49 201 -118l-85 -51c-20 49 -57 77 -124 77c-147 0 -233 -116 -233 -341c0 -110 44 -172 134 -172c119 0 173 99 183 194h-146zM262 -216
h-76l51 151h109z" />
    <glyph glyph-name="Hcircumflex" unicode="&#x124;" horiz-adv-x="655" 
d="M495 900l67 -160h-86l-39 96l-73 -96h-92l124 160h99zM553 676h107l-120 -676h-107l55 308h-293l-53 -308h-107l119 676h107l-50 -279h293z" />
    <glyph glyph-name="Hbar" unicode="&#x126;" horiz-adv-x="656" 
d="M136 573l18 103h107l-18 -103h292l19 103h106l-19 -103h45l-12 -67h-44l-90 -506h-106l54 308h-292l-54 -308h-107l89 506h-42l12 67h42zM523 506h-292l-19 -109h292z" />
    <glyph glyph-name="Igrave" unicode="&#xcc;" horiz-adv-x="257" 
d="M220 900l42 -160h-84l-55 160h97zM154 676h107l-119 -676h-107z" />
    <glyph glyph-name="Iacute" unicode="&#xcd;" horiz-adv-x="257" 
d="M360 900l-110 -160h-93l99 160h104zM154 676h107l-119 -676h-107z" />
    <glyph glyph-name="Ibreve" unicode="&#x12c;" horiz-adv-x="257" 
d="M382 889c-14 -81 -72 -144 -164 -144c-89 0 -128 63 -114 144h64c-2 -41 21 -72 61 -72c43 0 75 31 87 72h66zM154 676h107l-119 -676h-107z" />
    <glyph glyph-name="Icircumflex" unicode="&#xce;" horiz-adv-x="257" 
d="M294 900l68 -160h-87l-39 96l-73 -96h-92l124 160h99zM154 676h107l-119 -676h-107z" />
    <glyph glyph-name="Itilde" unicode="&#x128;" horiz-adv-x="257" 
d="M354 772c-18 15 -39 26 -62 26c-40 0 -92 -40 -148 -40c-29 0 -52 12 -62 23l17 74c13 -16 30 -24 58 -24c40 0 84 39 147 39c34 0 52 -12 67 -23zM154 676h107l-119 -676h-107z" />
    <glyph glyph-name="Idieresis" unicode="&#xcf;" horiz-adv-x="257" 
d="M130 749c-33 0 -55 17 -55 51c0 50 29 74 71 74c28 0 56 -17 56 -52c0 -53 -36 -73 -72 -73zM311 749c-33 0 -55 17 -55 51c0 50 30 74 71 74c28 0 56 -17 56 -52c0 -53 -36 -73 -72 -73zM154 676h107l-119 -676h-107z" />
    <glyph glyph-name="Imacron" unicode="&#x12a;" horiz-adv-x="257" 
d="M378 850l-14 -80h-277l14 80h277zM154 676h107l-119 -676h-107z" />
    <glyph glyph-name="Idotaccent" unicode="&#x130;" horiz-adv-x="257" 
d="M222 749c-31 0 -56 15 -56 52c0 52 33 73 74 73c28 0 54 -19 54 -53c0 -51 -35 -72 -72 -72zM154 676h107l-119 -676h-107z" />
    <glyph glyph-name="Iogonek" unicode="&#x12e;" horiz-adv-x="257" 
d="M65 -54c-25 -19 -40 -35 -40 -56c0 -14 9 -27 31 -27c19 0 43 11 66 26l-14 -83c-26 -12 -53 -22 -91 -22c-59 0 -97 32 -97 80c0 46 27 75 77 113l39 31l118 668h107l-119 -676z" />
    <glyph glyph-name="Jcircumflex" unicode="&#x134;" horiz-adv-x="469" 
d="M516 900l68 -160h-87l-39 95l-73 -95h-92l125 160h98zM82 146c12 -42 37 -64 86 -64c77 0 113 49 131 153l78 441h102l-80 -449c-28 -161 -101 -237 -238 -237c-92 0 -148 43 -167 106z" />
    <glyph glyph-name="uni0136" unicode="&#x136;" horiz-adv-x="591" 
d="M180 218l-38 -218h-107l119 676h107l-55 -307l317 307l135 -1l-286 -282l164 -393h-118l-129 321zM202 -216h-77l51 151h109z" />
    <glyph glyph-name="Lacute" unicode="&#x139;" horiz-adv-x="460" 
d="M358 899l-110 -160h-93l99 160h104zM419 89l-15 -89h-369l119 676h107l-104 -587h262z" />
    <glyph glyph-name="Lcaron" unicode="&#x13d;" horiz-adv-x="460" 
d="M455 526h-76l51 151h109zM419 89l-15 -89h-369l119 676h107l-104 -587h262z" />
    <glyph glyph-name="uni013B" unicode="&#x13b;" horiz-adv-x="460" 
d="M419 89l-15 -89h-369l119 676h107l-104 -587h262zM178 -216h-76l50 151h109z" />
    <glyph glyph-name="Lslash" unicode="&#x141;" horiz-adv-x="479" 
d="M439 89l-15 -89h-370l45 254l-80 -34l14 79l80 33l60 344h107l-52 -296l91 38l-14 -79l-91 -38l-37 -212h262z" />
    <glyph glyph-name="Ldot" unicode="&#x13f;" horiz-adv-x="460" 
d="M419 89l-15 -89h-369l119 676h107l-104 -587h262zM369 309c-38 0 -65 28 -65 62c0 47 37 80 85 80c36 0 62 -28 62 -63c0 -46 -37 -79 -82 -79z" />
    <glyph glyph-name="Nacute" unicode="&#x143;" horiz-adv-x="656" 
d="M572 900l-110 -160h-93l99 160h104zM554 676h107l-120 -676h-114l-197 501l-87 -501h-109l121 676h117l195 -496z" />
    <glyph glyph-name="Ncaron" unicode="&#x147;" horiz-adv-x="656" 
d="M370 740l-68 160h86l39 -95l74 95h91l-123 -160h-99zM554 676h107l-120 -676h-114l-197 501l-87 -501h-109l121 676h117l195 -496z" />
    <glyph glyph-name="Ntilde" unicode="&#xd1;" horiz-adv-x="656" 
d="M560 772c-18 15 -39 26 -62 26c-40 0 -92 -40 -148 -40c-29 0 -52 12 -61 23l16 74c13 -16 31 -24 58 -24c40 0 85 39 148 39c34 0 52 -12 66 -23zM554 676h107l-120 -676h-114l-197 501l-87 -501h-109l121 676h117l195 -496z" />
    <glyph glyph-name="uni0145" unicode="&#x145;" horiz-adv-x="656" 
d="M554 676h107l-120 -676h-114l-197 501l-87 -501h-109l121 676h117l195 -496zM254 -216h-76l50 151h109z" />
    <glyph glyph-name="Ograve" unicode="&#xd2;" horiz-adv-x="645" 
d="M418 899l42 -160h-84l-55 160h97zM622 429c0 -234 -88 -439 -335 -439c-149 0 -225 103 -225 254c0 238 86 442 335 442c158 0 225 -110 225 -257zM172 244c0 -92 33 -162 124 -162c125 0 216 104 216 347c0 93 -33 165 -124 165c-154 0 -216 -152 -216 -350z" />
    <glyph glyph-name="Oacute" unicode="&#xd3;" horiz-adv-x="645" 
d="M569 900l-110 -160h-92l98 160h104zM622 429c0 -234 -88 -439 -335 -439c-149 0 -225 103 -225 254c0 238 86 442 335 442c158 0 225 -110 225 -257zM172 244c0 -92 33 -162 124 -162c125 0 216 104 216 347c0 93 -33 165 -124 165c-154 0 -216 -152 -216 -350z" />
    <glyph glyph-name="Ocircumflex" unicode="&#xd4;" horiz-adv-x="645" 
d="M490 900l68 -160h-86l-40 96l-73 -96h-92l125 160h98zM622 429c0 -234 -88 -439 -335 -439c-149 0 -225 103 -225 254c0 238 86 442 335 442c158 0 225 -110 225 -257zM172 244c0 -92 33 -162 124 -162c125 0 216 104 216 347c0 93 -33 165 -124 165
c-154 0 -216 -152 -216 -350z" />
    <glyph glyph-name="Otilde" unicode="&#xd5;" horiz-adv-x="645" 
d="M554 772c-18 15 -39 26 -62 26c-40 0 -92 -40 -148 -40c-29 0 -52 12 -62 23l17 74c13 -16 30 -24 58 -24c40 0 84 39 147 39c34 0 52 -12 67 -23zM622 429c0 -234 -88 -439 -335 -439c-149 0 -225 103 -225 254c0 238 86 442 335 442c158 0 225 -110 225 -257zM172 244
c0 -92 33 -162 124 -162c125 0 216 104 216 347c0 93 -33 165 -124 165c-154 0 -216 -152 -216 -350z" />
    <glyph glyph-name="Odieresis" unicode="&#xd6;" horiz-adv-x="645" 
d="M327 750c-33 0 -55 16 -55 50c0 50 29 75 71 75c28 0 56 -18 56 -52c0 -53 -36 -73 -72 -73zM508 750c-33 0 -55 16 -55 50c0 50 30 75 72 75c27 0 55 -18 55 -52c0 -53 -35 -73 -72 -73zM622 429c0 -234 -88 -439 -335 -439c-149 0 -225 103 -225 254
c0 238 86 442 335 442c158 0 225 -110 225 -257zM172 244c0 -92 33 -162 124 -162c125 0 216 104 216 347c0 93 -33 165 -124 165c-154 0 -216 -152 -216 -350z" />
    <glyph glyph-name="Omacron" unicode="&#x14c;" horiz-adv-x="645" 
d="M573 851l-15 -81h-276l14 81h277zM622 429c0 -234 -88 -439 -335 -439c-149 0 -225 103 -225 254c0 238 86 442 335 442c158 0 225 -110 225 -257zM172 244c0 -92 33 -162 124 -162c125 0 216 104 216 347c0 93 -33 165 -124 165c-154 0 -216 -152 -216 -350z" />
    <glyph glyph-name="Obreve" unicode="&#x14e;" horiz-adv-x="645" 
d="M580 890c-14 -82 -72 -145 -165 -145c-88 0 -128 63 -114 145h65c-3 -42 20 -72 60 -72c43 0 76 30 88 72h66zM622 429c0 -234 -88 -439 -335 -439c-149 0 -225 103 -225 254c0 238 86 442 335 442c158 0 225 -110 225 -257zM172 244c0 -92 33 -162 124 -162
c125 0 216 104 216 347c0 93 -33 165 -124 165c-154 0 -216 -152 -216 -350z" />
    <glyph glyph-name="Ohungarumlaut" unicode="&#x150;" horiz-adv-x="645" 
d="M487 900l-112 -160h-90l98 160h104zM649 900l-112 -160h-90l97 160h105zM622 429c0 -234 -88 -439 -335 -439c-149 0 -225 103 -225 254c0 238 86 442 335 442c158 0 225 -110 225 -257zM172 244c0 -92 33 -162 124 -162c125 0 216 104 216 347c0 93 -33 165 -124 165
c-154 0 -216 -152 -216 -350z" />
    <glyph glyph-name="Oslash" unicode="&#xd8;" horiz-adv-x="645" 
d="M695 676l-98 -110c17 -39 25 -86 25 -137c0 -234 -88 -439 -335 -439c-67 0 -119 21 -156 57l-42 -47h-93l94 105c-19 39 -28 86 -28 139c0 238 86 442 335 442c70 0 123 -22 159 -59l44 49h95zM172 244c0 -15 1 -30 3 -44l309 346c-19 30 -50 48 -96 48
c-154 0 -216 -152 -216 -350zM512 429c0 14 -1 27 -2 40l-308 -343c19 -28 50 -44 94 -44c125 0 216 104 216 347z" />
    <glyph glyph-name="Oslashacute" unicode="&#x1fe;" horiz-adv-x="645" 
d="M569 900l-110 -160h-92l98 160h104zM695 676l-98 -110c17 -39 25 -86 25 -137c0 -234 -88 -439 -335 -439c-67 0 -119 21 -156 57l-42 -47h-93l94 105c-19 39 -28 86 -28 139c0 238 86 442 335 442c70 0 123 -22 159 -59l44 49h95zM172 244c0 -15 1 -30 3 -44l309 346
c-19 30 -50 48 -96 48c-154 0 -216 -152 -216 -350zM512 429c0 14 -1 27 -2 40l-308 -343c19 -28 50 -44 94 -44c125 0 216 104 216 347z" />
    <glyph glyph-name="OE" unicode="&#x152;" horiz-adv-x="853" 
d="M786 89l-16 -89h-405c-25 -6 -51 -10 -81 -10c-157 0 -222 114 -222 255c0 209 70 441 338 441c29 0 61 -4 84 -10h402l-15 -89h-296l-35 -200h258l-16 -88h-258l-37 -210h299zM296 82c31 0 60 4 85 13l85 479c-20 11 -47 20 -78 20c-149 0 -216 -147 -216 -350
c0 -92 33 -162 124 -162z" />
    <glyph glyph-name="Racute" unicode="&#x154;" horiz-adv-x="579" 
d="M518 900l-110 -160h-93l99 160h104zM154 676h229c132 0 201 -65 201 -165c0 -128 -78 -199 -191 -216l117 -295h-116l-106 287h-96l-50 -287h-107zM473 506c0 49 -30 81 -111 81h-117l-38 -211h117c107 0 149 46 149 130z" />
    <glyph glyph-name="Rcaron" unicode="&#x158;" horiz-adv-x="579" 
d="M315 740l-68 160h87l39 -95l73 95h92l-124 -160h-99zM154 676h229c132 0 201 -65 201 -165c0 -128 -78 -199 -191 -216l117 -295h-116l-106 287h-96l-50 -287h-107zM473 506c0 49 -30 81 -111 81h-117l-38 -211h117c107 0 149 46 149 130z" />
    <glyph glyph-name="uni0156" unicode="&#x156;" horiz-adv-x="579" 
d="M154 676h229c132 0 201 -65 201 -165c0 -128 -78 -199 -191 -216l117 -295h-116l-106 287h-96l-50 -287h-107zM473 506c0 49 -30 81 -111 81h-117l-38 -211h117c107 0 149 46 149 130zM202 -216h-76l51 151h109z" />
    <glyph glyph-name="Sacute" unicode="&#x15a;" horiz-adv-x="525" 
d="M506 900l-110 -160h-93l99 160h104zM457 529c-18 42 -59 65 -121 65c-79 0 -125 -51 -125 -120c0 -39 26 -64 68 -79l70 -26c68 -26 130 -67 130 -158c0 -129 -95 -222 -256 -222c-145 0 -193 74 -210 128l82 57c15 -50 42 -93 136 -93c88 0 136 47 136 118
c0 44 -32 67 -74 83l-74 27c-67 26 -121 73 -121 156c0 116 81 221 245 221c110 0 172 -48 195 -100z" />
    <glyph glyph-name="Scircumflex" unicode="&#x15c;" horiz-adv-x="525" 
d="M432 900l68 -160h-87l-39 96l-73 -96h-92l124 160h99zM457 529c-18 42 -59 65 -121 65c-79 0 -125 -51 -125 -120c0 -39 26 -64 68 -79l70 -26c68 -26 130 -67 130 -158c0 -129 -95 -222 -256 -222c-145 0 -193 74 -210 128l82 57c15 -50 42 -93 136 -93
c88 0 136 47 136 118c0 44 -32 67 -74 83l-74 27c-67 26 -121 73 -121 156c0 116 81 221 245 221c110 0 172 -48 195 -100z" />
    <glyph glyph-name="Scaron" unicode="&#x160;" horiz-adv-x="525" 
d="M305 740l-68 160h86l39 -95l73 95h92l-124 -160h-98zM457 529c-18 42 -59 65 -121 65c-79 0 -125 -51 -125 -120c0 -39 26 -64 68 -79l70 -26c68 -26 130 -67 130 -158c0 -129 -95 -222 -256 -222c-145 0 -193 74 -210 128l82 57c15 -50 42 -93 136 -93
c88 0 136 47 136 118c0 44 -32 67 -74 83l-74 27c-67 26 -121 73 -121 156c0 116 81 221 245 221c110 0 172 -48 195 -100z" />
    <glyph glyph-name="Scedilla" unicode="&#x15e;" horiz-adv-x="525" 
d="M349 369c68 -26 130 -67 130 -158c0 -123 -86 -213 -233 -221l-23 -42c43 0 74 -20 74 -66c0 -62 -47 -98 -118 -98c-36 0 -66 10 -88 23l12 63c19 -17 48 -27 75 -27c26 0 40 12 40 30s-15 24 -41 24h-39l-4 7l47 87c-113 13 -153 78 -168 126l82 57
c15 -50 42 -93 136 -93c88 0 136 47 136 118c0 44 -32 67 -74 83l-74 27c-67 26 -121 73 -121 156c0 116 81 221 245 221c110 0 172 -48 195 -100l-81 -57c-18 42 -59 65 -121 65c-79 0 -125 -51 -125 -120c0 -39 26 -64 68 -79z" />
    <glyph glyph-name="uni0218" unicode="&#x218;" horiz-adv-x="525" 
d="M457 529c-18 42 -59 65 -121 65c-79 0 -125 -51 -125 -120c0 -39 26 -64 68 -79l70 -26c68 -26 130 -67 130 -158c0 -129 -95 -222 -256 -222c-145 0 -193 74 -210 128l82 57c15 -50 42 -93 136 -93c88 0 136 47 136 118c0 44 -32 67 -74 83l-74 27
c-67 26 -121 73 -121 156c0 116 81 221 245 221c110 0 172 -48 195 -100zM188 -216h-76l51 151h109z" />
    <glyph glyph-name="Tcaron" unicode="&#x164;" horiz-adv-x="519" 
d="M301 740l-68 160h86l40 -96l73 96h91l-123 -160h-99zM569 676l-16 -89h-177l-104 -587h-107l104 587h-177l15 89h462z" />
    <glyph glyph-name="uni021A" unicode="&#x21a;" horiz-adv-x="519" 
d="M569 676l-16 -89h-177l-104 -587h-107l104 587h-177l15 89h462zM177 -216h-76l51 151h109z" />
    <glyph glyph-name="Tbar" unicode="&#x166;" horiz-adv-x="519" 
d="M229 365l40 222h-177l15 89h462l-16 -89h-177l-40 -222h84l-11 -68h-84l-53 -297h-107l53 297h-84l11 68h84z" />
    <glyph glyph-name="Thorn" unicode="&#xde;" horiz-adv-x="550" 
d="M164 131l-22 -131h-107l119 677h106l-22 -127h105c127 0 197 -68 197 -171c0 -155 -84 -248 -262 -248h-114zM180 219h102c114 0 146 70 146 150c0 53 -28 92 -103 92h-102z" />
    <glyph glyph-name="Ugrave" unicode="&#xd9;" horiz-adv-x="624" 
d="M407 899l42 -160h-84l-55 160h97zM281 -10c-148 0 -240 76 -207 265l74 421h107l-74 -420c-21 -122 14 -174 106 -174c91 0 145 52 167 174l73 420h107l-74 -421c-33 -190 -135 -265 -279 -265z" />
    <glyph glyph-name="Uacute" unicode="&#xda;" horiz-adv-x="624" 
d="M559 900l-111 -160h-92l98 160h105zM281 -10c-148 0 -240 76 -207 265l74 421h107l-74 -420c-21 -122 14 -174 106 -174c91 0 145 52 167 174l73 420h107l-74 -421c-33 -190 -135 -265 -279 -265z" />
    <glyph glyph-name="Ucircumflex" unicode="&#xdb;" horiz-adv-x="624" 
d="M481 900l67 -160h-86l-40 96l-73 -96h-92l125 160h99zM281 -10c-148 0 -240 76 -207 265l74 421h107l-74 -420c-21 -122 14 -174 106 -174c91 0 145 52 167 174l73 420h107l-74 -421c-33 -190 -135 -265 -279 -265z" />
    <glyph glyph-name="Utilde" unicode="&#x168;" horiz-adv-x="624" 
d="M543 772c-18 15 -39 26 -62 26c-40 0 -92 -40 -148 -40c-29 0 -52 12 -62 23l17 74c13 -16 30 -24 58 -24c40 0 85 39 148 39c33 0 51 -12 66 -23zM281 -10c-148 0 -240 76 -207 265l74 421h107l-74 -420c-21 -122 14 -174 106 -174c91 0 145 52 167 174l73 420h107
l-74 -421c-33 -190 -135 -265 -279 -265z" />
    <glyph glyph-name="Udieresis" unicode="&#xdc;" horiz-adv-x="624" 
d="M317 750c-34 0 -56 16 -56 50c0 50 30 75 72 75c27 0 55 -18 55 -52c0 -53 -35 -73 -71 -73zM498 750c-33 0 -55 16 -55 50c0 50 29 75 71 75c28 0 56 -18 56 -52c0 -53 -36 -73 -72 -73zM281 -10c-148 0 -240 76 -207 265l74 421h107l-74 -420
c-21 -122 14 -174 106 -174c91 0 145 52 167 174l73 420h107l-74 -421c-33 -190 -135 -265 -279 -265z" />
    <glyph glyph-name="Umacron" unicode="&#x16a;" horiz-adv-x="624" 
d="M561 851l-15 -81h-276l14 81h277zM281 -10c-148 0 -240 76 -207 265l74 421h107l-74 -420c-21 -122 14 -174 106 -174c91 0 145 52 167 174l73 420h107l-74 -421c-33 -190 -135 -265 -279 -265z" />
    <glyph glyph-name="Ubreve" unicode="&#x16c;" horiz-adv-x="624" 
d="M567 890c-15 -82 -73 -145 -165 -145c-89 0 -128 63 -114 145h64c-2 -42 21 -72 61 -72c43 0 75 30 87 72h67zM281 -10c-148 0 -240 76 -207 265l74 421h107l-74 -420c-21 -122 14 -174 106 -174c91 0 145 52 167 174l73 420h107l-74 -421c-33 -190 -135 -265 -279 -265z
" />
    <glyph glyph-name="Uring" unicode="&#x16e;" horiz-adv-x="624" 
d="M314 812c0 59 43 111 117 111c60 0 91 -40 91 -84c0 -58 -44 -111 -120 -111c-57 0 -88 41 -88 84zM373 818c0 -20 12 -37 36 -37c33 0 53 25 53 52c0 20 -12 37 -38 37c-31 0 -51 -25 -51 -52zM281 -10c-148 0 -240 76 -207 265l74 421h107l-74 -420
c-21 -122 14 -174 106 -174c91 0 145 52 167 174l73 420h107l-74 -421c-33 -190 -135 -265 -279 -265z" />
    <glyph glyph-name="Uhungarumlaut" unicode="&#x170;" horiz-adv-x="624" 
d="M478 900l-112 -160h-90l98 160h104zM639 900l-111 -160h-91l98 160h104zM281 -10c-148 0 -240 76 -207 265l74 421h107l-74 -420c-21 -122 14 -174 106 -174c91 0 145 52 167 174l73 420h107l-74 -421c-33 -190 -135 -265 -279 -265z" />
    <glyph glyph-name="Uogonek" unicode="&#x172;" horiz-adv-x="624" 
d="M527 676h107l-74 -421c-28 -162 -106 -240 -218 -260l-70 -49c-25 -19 -40 -35 -40 -56c0 -14 9 -27 31 -27c19 0 43 11 66 26l-14 -83c-26 -12 -53 -22 -91 -22c-59 0 -97 32 -97 80c0 46 26 75 77 113l22 17c-115 18 -181 97 -152 261l74 421h107l-74 -420
c-21 -122 14 -174 106 -174c91 0 145 52 167 174z" />
    <glyph glyph-name="Wacute" unicode="&#x1e82;" horiz-adv-x="926" 
d="M704 899l-110 -160h-93l99 160h104zM599 676l42 -555l231 555h115l-293 -676h-132l-46 530l-232 -530h-132l-56 676h108l36 -555l237 555h122z" />
    <glyph glyph-name="Wcircumflex" unicode="&#x174;" horiz-adv-x="926" 
d="M629 900l68 -160h-86l-40 96l-73 -96h-92l125 160h98zM599 676l42 -555l231 555h115l-293 -676h-132l-46 530l-232 -530h-132l-56 676h108l36 -555l237 555h122z" />
    <glyph glyph-name="Wdieresis" unicode="&#x1e84;" horiz-adv-x="926" 
d="M464 750c-33 0 -55 16 -55 50c0 50 30 75 72 75c27 0 55 -18 55 -52c0 -53 -36 -73 -72 -73zM646 750c-33 0 -55 16 -55 50c0 50 29 75 71 75c28 0 56 -18 56 -52c0 -53 -36 -73 -72 -73zM599 676l42 -555l231 555h115l-293 -676h-132l-46 530l-232 -530h-132l-56 676
h108l36 -555l237 555h122z" />
    <glyph glyph-name="Wgrave" unicode="&#x1e80;" horiz-adv-x="926" 
d="M549 900l42 -160h-84l-54 160h96zM599 676l42 -555l231 555h115l-293 -676h-132l-46 530l-232 -530h-132l-56 676h108l36 -555l237 555h122z" />
    <glyph glyph-name="Yacute" unicode="&#xdd;" horiz-adv-x="561" 
d="M523 916l-110 -160h-93l99 160h104zM187 0l47 267l-146 409h112l100 -312l207 312h125l-291 -409l-47 -267h-107z" />
    <glyph glyph-name="Ycircumflex" unicode="&#x176;" horiz-adv-x="561" 
d="M440 900l68 -160h-87l-39 96l-73 -96h-92l125 160h98zM187 0l47 267l-146 409h112l100 -312l207 312h125l-291 -409l-47 -267h-107z" />
    <glyph glyph-name="Ydieresis" unicode="&#x178;" horiz-adv-x="561" 
d="M271 750c-33 0 -55 16 -55 50c0 50 29 75 71 75c28 0 56 -18 56 -52c0 -53 -36 -73 -72 -73zM452 750c-33 0 -55 16 -55 50c0 50 29 75 71 75c28 0 56 -18 56 -52c0 -53 -36 -73 -72 -73zM187 0l47 267l-146 409h112l100 -312l207 312h125l-291 -409l-47 -267h-107z" />
    <glyph glyph-name="Ygrave" unicode="&#x1ef2;" horiz-adv-x="561" 
d="M362 900l42 -160h-84l-55 160h97zM187 0l47 267l-146 409h112l100 -312l207 312h125l-291 -409l-47 -267h-107z" />
    <glyph glyph-name="Zacute" unicode="&#x179;" horiz-adv-x="498" 
d="M491 916l-110 -160h-93l99 160h104zM519 597l-378 -508h296l-15 -89h-428l13 77l378 510h-272l15 89h405z" />
    <glyph glyph-name="Zcaron" unicode="&#x17d;" horiz-adv-x="498" 
d="M291 740l-68 160h86l40 -95l73 95h91l-123 -160h-99zM519 597l-378 -508h296l-15 -89h-428l13 77l378 510h-272l15 89h405z" />
    <glyph glyph-name="Zdotaccent" unicode="&#x17b;" horiz-adv-x="498" 
d="M346 750c-31 0 -56 14 -56 51c0 52 32 74 74 74c28 0 53 -19 53 -54c0 -51 -35 -71 -71 -71zM519 597l-378 -508h296l-15 -89h-428l13 77l378 510h-272l15 89h405z" />
    <glyph glyph-name="agrave" unicode="&#xe0;" horiz-adv-x="504" 
d="M316 696l42 -160h-84l-55 160h97zM384 456h99l-80 -456h-95l7 39c-29 -28 -68 -49 -122 -49c-101 0 -154 66 -154 182c0 188 90 294 221 294c59 0 99 -26 117 -49zM141 184c0 -60 22 -103 85 -103c45 0 79 21 101 44l36 206c-13 20 -39 44 -85 44
c-99 0 -137 -87 -137 -191z" />
    <glyph glyph-name="aacute" unicode="&#xe1;" horiz-adv-x="504" 
d="M455 696l-110 -160h-93l99 160h104zM384 456h99l-80 -456h-95l7 39c-29 -28 -68 -49 -122 -49c-101 0 -154 66 -154 182c0 188 90 294 221 294c59 0 99 -26 117 -49zM141 184c0 -60 22 -103 85 -103c45 0 79 21 101 44l36 206c-13 20 -39 44 -85 44
c-99 0 -137 -87 -137 -191z" />
    <glyph glyph-name="acircumflex" unicode="&#xe2;" horiz-adv-x="504" 
d="M390 696l68 -160h-87l-39 96l-73 -96h-92l124 160h99zM384 456h99l-80 -456h-95l7 39c-29 -28 -68 -49 -122 -49c-101 0 -154 66 -154 182c0 188 90 294 221 294c59 0 99 -26 117 -49zM141 184c0 -60 22 -103 85 -103c45 0 79 21 101 44l36 206c-13 20 -39 44 -85 44
c-99 0 -137 -87 -137 -191z" />
    <glyph glyph-name="atilde" unicode="&#xe3;" horiz-adv-x="504" 
d="M450 568c-18 15 -39 26 -62 26c-40 0 -92 -40 -148 -40c-29 0 -52 12 -62 23l17 74c13 -16 30 -24 58 -24c40 0 84 39 147 39c34 0 52 -12 67 -23zM384 456h99l-80 -456h-95l7 39c-29 -28 -68 -49 -122 -49c-101 0 -154 66 -154 182c0 188 90 294 221 294
c59 0 99 -26 117 -49zM141 184c0 -60 22 -103 85 -103c45 0 79 21 101 44l36 206c-13 20 -39 44 -85 44c-99 0 -137 -87 -137 -191z" />
    <glyph glyph-name="adieresis" unicode="&#xe4;" horiz-adv-x="504" 
d="M226 545c-33 0 -55 17 -55 51c0 50 29 74 71 74c28 0 56 -17 56 -52c0 -53 -36 -73 -72 -73zM407 545c-33 0 -55 17 -55 51c0 50 30 74 71 74c28 0 56 -17 56 -52c0 -53 -36 -73 -72 -73zM384 456h99l-80 -456h-95l7 39c-29 -28 -68 -49 -122 -49
c-101 0 -154 66 -154 182c0 188 90 294 221 294c59 0 99 -26 117 -49zM141 184c0 -60 22 -103 85 -103c45 0 79 21 101 44l36 206c-13 20 -39 44 -85 44c-99 0 -137 -87 -137 -191z" />
    <glyph glyph-name="amacron" unicode="&#x101;" horiz-adv-x="504" 
d="M474 646l-14 -80h-277l14 80h277zM384 456h99l-80 -456h-95l7 39c-29 -28 -68 -49 -122 -49c-101 0 -154 66 -154 182c0 188 90 294 221 294c59 0 99 -26 117 -49zM141 184c0 -60 22 -103 85 -103c45 0 79 21 101 44l36 206c-13 20 -39 44 -85 44
c-99 0 -137 -87 -137 -191z" />
    <glyph glyph-name="abreve" unicode="&#x103;" horiz-adv-x="504" 
d="M477 685c-14 -81 -72 -144 -164 -144c-89 0 -128 63 -114 144h64c-2 -41 21 -72 61 -72c43 0 75 31 87 72h66zM384 456h99l-80 -456h-95l7 39c-29 -28 -68 -49 -122 -49c-101 0 -154 66 -154 182c0 188 90 294 221 294c59 0 99 -26 117 -49zM141 184
c0 -60 22 -103 85 -103c45 0 79 21 101 44l36 206c-13 20 -39 44 -85 44c-99 0 -137 -87 -137 -191z" />
    <glyph glyph-name="aring" unicode="&#xe5;" horiz-adv-x="504" 
d="M220 608c0 58 43 111 117 111c60 0 91 -40 91 -84c0 -58 -44 -111 -120 -111c-57 0 -88 41 -88 84zM279 613c0 -19 12 -36 36 -36c33 0 53 25 53 52c0 20 -12 37 -38 37c-31 0 -51 -25 -51 -53zM384 456h99l-80 -456h-95l7 39c-29 -28 -68 -49 -122 -49
c-101 0 -154 66 -154 182c0 188 90 294 221 294c59 0 99 -26 117 -49zM141 184c0 -60 22 -103 85 -103c45 0 79 21 101 44l36 206c-13 20 -39 44 -85 44c-99 0 -137 -87 -137 -191z" />
    <glyph glyph-name="aringacute" unicode="&#x1fb;" horiz-adv-x="504" 
d="M219 599c0 52 34 98 96 107l53 74h96l-77 -84c24 -13 38 -42 38 -72c0 -59 -47 -109 -118 -109c-60 0 -88 42 -88 84zM275 603c0 -20 13 -37 37 -37c35 0 54 24 54 54c0 20 -12 37 -38 37c-32 0 -53 -25 -53 -54zM384 456h99l-80 -456h-95l7 39c-29 -28 -68 -49 -122 -49
c-101 0 -154 66 -154 182c0 188 90 294 221 294c59 0 99 -26 117 -49zM141 184c0 -60 22 -103 85 -103c45 0 79 21 101 44l36 206c-13 20 -39 44 -85 44c-99 0 -137 -87 -137 -191z" />
    <glyph glyph-name="aogonek" unicode="&#x105;" horiz-adv-x="504" 
d="M384 456h99l-80 -456h-9l-77 -54c-25 -19 -40 -35 -40 -56c0 -14 9 -27 31 -27c19 0 43 11 66 26l-14 -83c-26 -12 -53 -22 -91 -22c-59 0 -97 32 -97 80c0 46 29 77 82 113l56 40h1l4 22c-29 -28 -68 -49 -122 -49c-101 0 -154 66 -154 182c0 188 90 294 221 294
c59 0 99 -26 117 -49zM226 81c45 0 79 21 101 44l36 206c-13 20 -39 44 -85 44c-99 0 -137 -87 -137 -191c0 -60 22 -103 85 -103z" />
    <glyph glyph-name="ae" unicode="&#xe6;" horiz-adv-x="693" 
d="M454 74c36 0 81 16 119 47l37 -70c-37 -34 -96 -62 -164 -62c-77 0 -124 26 -149 73c-44 -41 -103 -73 -181 -73c-81 0 -130 45 -130 110c0 115 89 159 230 171l65 7l7 37c7 46 -6 72 -66 72c-51 0 -83 -20 -89 -49l-3 -23h-84c1 10 2 21 4 32c12 71 76 120 186 120
c65 0 111 -19 129 -59c34 38 81 59 141 59c108 0 156 -77 156 -155c0 -43 -14 -88 -24 -114h-270c-11 -75 14 -123 86 -123zM564 269c2 7 6 16 6 39c0 48 -29 77 -72 77c-66 0 -102 -51 -117 -116h183zM89 113c0 -29 19 -46 54 -46c40 0 81 21 109 48l18 98l-59 -8
c-79 -11 -122 -37 -122 -92z" />
    <glyph glyph-name="aeacute" unicode="&#x1fd;" horiz-adv-x="693" 
d="M581 696l-110 -160h-93l99 160h104zM454 74c36 0 81 16 119 47l37 -70c-37 -34 -96 -62 -164 -62c-77 0 -124 26 -149 73c-44 -41 -103 -73 -181 -73c-81 0 -130 45 -130 110c0 115 89 159 230 171l65 7l7 37c7 46 -6 72 -66 72c-51 0 -83 -20 -89 -49l-3 -23h-84
c1 10 2 21 4 32c12 71 76 120 186 120c65 0 111 -19 129 -59c34 38 81 59 141 59c108 0 156 -77 156 -155c0 -43 -14 -88 -24 -114h-270c-11 -75 14 -123 86 -123zM564 269c2 7 6 16 6 39c0 48 -29 77 -72 77c-66 0 -102 -51 -117 -116h183zM89 113c0 -29 19 -46 54 -46
c40 0 81 21 109 48l18 98l-59 -8c-79 -11 -122 -37 -122 -92z" />
    <glyph glyph-name="cacute" unicode="&#x107;" horiz-adv-x="438" 
d="M422 696l-110 -160h-93l99 160h104zM37 172c0 160 78 294 237 294c81 0 138 -33 161 -97l-75 -48c-13 38 -43 57 -86 57c-100 0 -135 -101 -135 -196c0 -58 25 -105 84 -105c43 0 78 22 104 59l64 -52c-43 -61 -104 -94 -181 -94c-116 0 -173 79 -173 182z" />
    <glyph glyph-name="ccircumflex" unicode="&#x109;" horiz-adv-x="438" 
d="M378 696l67 -160h-86l-39 96l-73 -96h-92l124 160h99zM37 172c0 160 78 294 237 294c81 0 138 -33 161 -97l-75 -48c-13 38 -43 57 -86 57c-100 0 -135 -101 -135 -196c0 -58 25 -105 84 -105c43 0 78 22 104 59l64 -52c-43 -61 -104 -94 -181 -94
c-116 0 -173 79 -173 182z" />
    <glyph glyph-name="ccaron" unicode="&#x10d;" horiz-adv-x="438" 
d="M252 536l-68 160h87l39 -96l73 96h92l-124 -160h-99zM37 172c0 160 78 294 237 294c81 0 138 -33 161 -97l-75 -48c-13 38 -43 57 -86 57c-100 0 -135 -101 -135 -196c0 -58 25 -105 84 -105c43 0 78 22 104 59l64 -52c-43 -61 -104 -94 -181 -94
c-116 0 -173 79 -173 182z" />
    <glyph glyph-name="cdotaccent" unicode="&#x10b;" horiz-adv-x="438" 
d="M309 545c-32 0 -56 15 -56 52c0 52 32 73 74 73c27 0 53 -19 53 -53c0 -51 -35 -72 -71 -72zM37 172c0 160 78 294 237 294c81 0 138 -33 161 -97l-75 -48c-13 38 -43 57 -86 57c-100 0 -135 -101 -135 -196c0 -58 25 -105 84 -105c43 0 78 22 104 59l64 -52
c-43 -61 -104 -94 -181 -94c-116 0 -173 79 -173 182z" />
    <glyph glyph-name="ccedilla" unicode="&#xe7;" horiz-adv-x="438" 
d="M223 77c43 0 78 22 104 59l64 -52c-37 -53 -88 -84 -150 -92l-24 -44c43 0 74 -20 74 -66c0 -62 -47 -98 -118 -98c-36 0 -66 10 -88 23l11 63c20 -17 49 -27 76 -27c26 0 39 12 39 30s-14 24 -40 24h-39l-4 7l47 89c-93 14 -138 87 -138 179c0 160 78 294 237 294
c81 0 138 -33 161 -97l-75 -48c-13 38 -43 57 -86 57c-100 0 -135 -101 -135 -196c0 -58 25 -105 84 -105z" />
    <glyph glyph-name="dcaron" unicode="&#x10f;" horiz-adv-x="504" 
d="M426 690h99l-122 -690h-95l7 39c-29 -28 -68 -49 -122 -49c-101 0 -154 66 -154 182c0 188 90 294 221 294c59 0 99 -26 117 -49zM617 539h-76l51 151h109zM141 184c0 -60 22 -103 85 -103c45 0 79 21 101 44l36 206c-13 20 -39 44 -85 44c-99 0 -137 -87 -137 -191z" />
    <glyph glyph-name="dcroat" unicode="&#x111;" horiz-adv-x="504" 
d="M562 597l-11 -68h-54l-94 -529h-95l7 39c-29 -28 -68 -49 -122 -49c-101 0 -154 66 -154 182c0 188 90 294 221 294c59 0 99 -26 117 -49l20 112h-93l12 68h93l17 93h99l-16 -93h53zM327 125l36 206c-13 20 -39 44 -85 44c-99 0 -137 -87 -137 -191
c0 -60 22 -103 85 -103c45 0 79 21 101 44z" />
    <glyph glyph-name="eth" unicode="&#xf0;" horiz-adv-x="519" 
d="M529 587l-59 -25c13 -47 21 -101 21 -156c0 -212 -81 -417 -277 -417c-118 0 -177 76 -177 183c0 168 93 275 224 275c77 0 115 -41 133 -79c6 53 0 105 -15 155l-74 -32l-21 61l72 31c-18 40 -43 77 -70 107h121c16 -18 30 -41 42 -68l60 26zM223 76
c83 0 133 84 149 182c-11 51 -45 96 -104 96c-90 0 -132 -81 -132 -174c0 -57 24 -104 87 -104z" />
    <glyph glyph-name="egrave" unicode="&#xe8;" horiz-adv-x="456" 
d="M292 696l42 -160h-84l-55 160h97zM223 74c39 0 82 16 119 47l37 -70c-36 -33 -94 -61 -163 -61c-130 0 -180 79 -180 182c0 164 94 294 235 294c107 0 159 -72 159 -157c0 -43 -14 -86 -24 -112h-269c-11 -73 13 -123 86 -123zM332 269c2 7 7 16 7 39c0 48 -29 77 -72 77
c-66 0 -103 -51 -118 -116h183z" />
    <glyph glyph-name="eacute" unicode="&#xe9;" horiz-adv-x="456" 
d="M445 696l-110 -160h-92l98 160h104zM223 74c39 0 82 16 119 47l37 -70c-36 -33 -94 -61 -163 -61c-130 0 -180 79 -180 182c0 164 94 294 235 294c107 0 159 -72 159 -157c0 -43 -14 -86 -24 -112h-269c-11 -73 13 -123 86 -123zM332 269c2 7 7 16 7 39
c0 48 -29 77 -72 77c-66 0 -103 -51 -118 -116h183z" />
    <glyph glyph-name="ecircumflex" unicode="&#xea;" horiz-adv-x="456" 
d="M373 696l68 -160h-86l-40 96l-73 -96h-92l125 160h98zM223 74c39 0 82 16 119 47l37 -70c-36 -33 -94 -61 -163 -61c-130 0 -180 79 -180 182c0 164 94 294 235 294c107 0 159 -72 159 -157c0 -43 -14 -86 -24 -112h-269c-11 -73 13 -123 86 -123zM332 269c2 7 7 16 7 39
c0 48 -29 77 -72 77c-66 0 -103 -51 -118 -116h183z" />
    <glyph glyph-name="ecaron" unicode="&#x11b;" horiz-adv-x="456" 
d="M248 536l-68 160h86l39 -96l74 96h91l-124 -160h-98zM223 74c39 0 82 16 119 47l37 -70c-36 -33 -94 -61 -163 -61c-130 0 -180 79 -180 182c0 164 94 294 235 294c107 0 159 -72 159 -157c0 -43 -14 -86 -24 -112h-269c-11 -73 13 -123 86 -123zM332 269c2 7 7 16 7 39
c0 48 -29 77 -72 77c-66 0 -103 -51 -118 -116h183z" />
    <glyph glyph-name="edieresis" unicode="&#xeb;" horiz-adv-x="456" 
d="M211 545c-33 0 -55 17 -55 51c0 50 30 74 72 74c27 0 55 -17 55 -52c0 -53 -36 -73 -72 -73zM392 545c-33 0 -55 17 -55 51c0 50 30 74 72 74c27 0 55 -17 55 -52c0 -53 -35 -73 -72 -73zM223 74c39 0 82 16 119 47l37 -70c-36 -33 -94 -61 -163 -61
c-130 0 -180 79 -180 182c0 164 94 294 235 294c107 0 159 -72 159 -157c0 -43 -14 -86 -24 -112h-269c-11 -73 13 -123 86 -123zM332 269c2 7 7 16 7 39c0 48 -29 77 -72 77c-66 0 -103 -51 -118 -116h183z" />
    <glyph glyph-name="emacron" unicode="&#x113;" horiz-adv-x="456" 
d="M455 646l-15 -80h-276l13 80h278zM223 74c39 0 82 16 119 47l37 -70c-36 -33 -94 -61 -163 -61c-130 0 -180 79 -180 182c0 164 94 294 235 294c107 0 159 -72 159 -157c0 -43 -14 -86 -24 -112h-269c-11 -73 13 -123 86 -123zM332 269c2 7 7 16 7 39c0 48 -29 77 -72 77
c-66 0 -103 -51 -118 -116h183z" />
    <glyph glyph-name="ebreve" unicode="&#x115;" horiz-adv-x="456" 
d="M460 685c-14 -81 -73 -144 -165 -144c-88 0 -128 63 -114 144h64c-2 -41 21 -72 61 -72c43 0 75 31 87 72h67zM223 74c39 0 82 16 119 47l37 -70c-36 -33 -94 -61 -163 -61c-130 0 -180 79 -180 182c0 164 94 294 235 294c107 0 159 -72 159 -157c0 -43 -14 -86 -24 -112
h-269c-11 -73 13 -123 86 -123zM332 269c2 7 7 16 7 39c0 48 -29 77 -72 77c-66 0 -103 -51 -118 -116h183z" />
    <glyph glyph-name="edotaccent" unicode="&#x117;" horiz-adv-x="456" 
d="M307 545c-32 0 -57 15 -57 52c0 52 33 73 75 73c27 0 53 -19 53 -53c0 -51 -35 -72 -71 -72zM223 74c39 0 82 16 119 47l37 -70c-36 -33 -94 -61 -163 -61c-130 0 -180 79 -180 182c0 164 94 294 235 294c107 0 159 -72 159 -157c0 -43 -14 -86 -24 -112h-269
c-11 -73 13 -123 86 -123zM332 269c2 7 7 16 7 39c0 48 -29 77 -72 77c-66 0 -103 -51 -118 -116h183z" />
    <glyph glyph-name="eogonek" unicode="&#x119;" horiz-adv-x="456" 
d="M406 197h-269c-11 -73 13 -123 86 -123c39 0 82 16 119 47l35 -66l2 -4c-8 -8 -18 -15 -29 -22l-58 -57c-42 -40 -57 -60 -57 -81c0 -15 11 -28 30 -28c16 0 45 11 67 26l-14 -82c-26 -13 -55 -23 -93 -23c-60 0 -95 30 -95 77c0 41 26 70 86 129
c-130 0 -180 79 -180 182c0 164 94 294 235 294c107 0 159 -72 159 -157c0 -43 -14 -86 -24 -112zM267 385c-66 0 -103 -51 -118 -116h183c2 7 7 16 7 39c0 48 -29 77 -72 77z" />
    <glyph glyph-name="gcircumflex" unicode="&#x11d;" 
d="M389 696l67 -160h-86l-39 96l-73 -96h-92l124 160h99zM481 456l-86 -488c-18 -102 -97 -173 -213 -173c-119 0 -172 64 -159 144h87c-5 -32 17 -65 78 -65c59 0 97 35 107 89l13 73c-25 -24 -64 -46 -112 -46c-110 0 -157 70 -157 181c0 180 83 295 224 295
c61 0 99 -25 117 -52l7 42h94zM140 183c0 -55 22 -102 84 -102c39 0 76 19 99 44l37 207c-13 21 -40 43 -83 43c-92 0 -137 -81 -137 -192z" />
    <glyph glyph-name="gbreve" unicode="&#x11f;" 
d="M478 685c-14 -81 -72 -144 -164 -144c-89 0 -128 63 -114 144h64c-3 -41 21 -72 61 -72c42 0 75 31 87 72h66zM481 456l-86 -488c-18 -102 -97 -173 -213 -173c-119 0 -172 64 -159 144h87c-5 -32 17 -65 78 -65c59 0 97 35 107 89l13 73c-25 -24 -64 -46 -112 -46
c-110 0 -157 70 -157 181c0 180 83 295 224 295c61 0 99 -25 117 -52l7 42h94zM140 183c0 -55 22 -102 84 -102c39 0 76 19 99 44l37 207c-13 21 -40 43 -83 43c-92 0 -137 -81 -137 -192z" />
    <glyph glyph-name="gdotaccent" unicode="&#x121;" 
d="M319 545c-32 0 -57 15 -57 52c0 52 33 73 75 73c27 0 53 -19 53 -53c0 -51 -35 -72 -71 -72zM481 456l-86 -488c-18 -102 -97 -173 -213 -173c-119 0 -172 64 -159 144h87c-5 -32 17 -65 78 -65c59 0 97 35 107 89l13 73c-25 -24 -64 -46 -112 -46
c-110 0 -157 70 -157 181c0 180 83 295 224 295c61 0 99 -25 117 -52l7 42h94zM140 183c0 -55 22 -102 84 -102c39 0 76 19 99 44l37 207c-13 21 -40 43 -83 43c-92 0 -137 -81 -137 -192z" />
    <glyph glyph-name="uni0123" unicode="&#x123;" 
d="M358 730h77l-67 -180h-111zM481 456l-86 -488c-18 -102 -97 -173 -213 -173c-119 0 -172 64 -159 144h87c-5 -32 17 -65 78 -65c59 0 97 35 107 89l13 73c-25 -24 -64 -46 -112 -46c-110 0 -157 70 -157 181c0 180 83 295 224 295c61 0 99 -25 117 -52l7 42h94zM140 183
c0 -55 22 -102 84 -102c39 0 76 19 99 44l37 207c-13 21 -40 43 -83 43c-92 0 -137 -81 -137 -192z" />
    <glyph glyph-name="hcircumflex" unicode="&#x125;" 
d="M427 891l68 -160h-87l-39 96l-73 -96h-92l124 160h99zM144 690h98l-47 -274c27 25 76 50 133 50c103 0 147 -62 127 -178l-51 -288h-98l49 278c11 66 -5 97 -70 97c-41 0 -82 -22 -106 -44l-59 -331h-98z" />
    <glyph glyph-name="hbar" unicode="&#x127;" 
d="M328 466c103 0 147 -62 127 -178l-51 -288h-98l49 278c11 66 -5 97 -70 97c-41 0 -82 -22 -106 -44l-59 -331h-98l94 529h-52l12 68h52l16 93h98l-16 -93h96l-12 -68h-96l-19 -113c27 25 76 50 133 50z" />
    <glyph glyph-name="dotlessi" unicode="&#x131;" horiz-adv-x="222" 
d="M102 456h99l-81 -456h-99z" />
    <glyph glyph-name="igrave" unicode="&#xec;" horiz-adv-x="222" 
d="M169 696l42 -160h-84l-54 160h96zM102 456h99l-81 -456h-99z" />
    <glyph glyph-name="iacute" unicode="&#xed;" horiz-adv-x="222" 
d="M316 696l-110 -160h-93l99 160h104zM102 456h99l-81 -456h-99z" />
    <glyph glyph-name="ibreve" unicode="&#x12d;" horiz-adv-x="222" 
d="M330 685c-14 -81 -73 -144 -165 -144c-88 0 -128 63 -114 144h64c-2 -41 21 -72 61 -72c43 0 75 31 87 72h67zM102 456h99l-81 -456h-99z" />
    <glyph glyph-name="icircumflex" unicode="&#xee;" horiz-adv-x="222" 
d="M243 696l68 -160h-86l-40 96l-73 -96h-92l125 160h98zM102 456h99l-81 -456h-99z" />
    <glyph glyph-name="itilde" unicode="&#x129;" horiz-adv-x="222" 
d="M303 568c-17 15 -38 26 -61 26c-40 0 -93 -40 -149 -40c-28 0 -51 12 -61 23l17 74c13 -16 30 -24 57 -24c40 0 85 39 148 39c34 0 52 -12 66 -23zM102 456h99l-81 -456h-99z" />
    <glyph glyph-name="idieresis" unicode="&#xef;" horiz-adv-x="222" 
d="M78 545c-33 0 -55 17 -55 51c0 50 30 74 72 74c27 0 55 -17 55 -52c0 -53 -36 -73 -72 -73zM260 545c-34 0 -56 17 -56 51c0 50 30 74 72 74c27 0 56 -17 56 -52c0 -53 -36 -73 -72 -73zM102 456h99l-81 -456h-99z" />
    <glyph glyph-name="imacron" unicode="&#x12b;" horiz-adv-x="222" 
d="M322 646l-15 -80h-276l13 80h278zM102 456h99l-81 -456h-99z" />
    <glyph glyph-name="iogonek" unicode="&#x12f;" horiz-adv-x="222" 
d="M189 680c28 0 53 -16 53 -51c0 -53 -39 -74 -75 -74c-31 0 -53 15 -53 49c0 52 34 76 75 76zM24 14l78 442h99l-81 -456l-76 -54c-26 -19 -40 -35 -40 -56c0 -14 9 -27 31 -27c18 0 43 11 66 26l-14 -83c-26 -12 -53 -22 -91 -22c-60 0 -97 32 -97 80c0 46 26 75 76 113z
" />
    <glyph glyph-name="uni0237" unicode="&#x237;" horiz-adv-x="222" 
d="M-88 -158c59 27 93 66 105 136l85 478h99l-82 -463c-19 -104 -66 -176 -158 -219z" />
    <glyph glyph-name="jcircumflex" unicode="&#x135;" horiz-adv-x="223" 
d="M243 696l68 -160h-87l-39 96l-73 -96h-92l124 160h99zM-88 -158c59 27 93 66 105 136l85 478h99l-82 -463c-19 -104 -66 -176 -158 -219z" />
    <glyph glyph-name="uni0137" unicode="&#x137;" horiz-adv-x="468" 
d="M312 0l-87 218l-78 -68l-27 -150h-98l122 690h98l-72 -412l199 178h131l-199 -173l114 -283h-103zM168 -216h-76l51 151h108z" />
    <glyph glyph-name="kgreenlandic" unicode="&#x138;" horiz-adv-x="473" 
d="M310 0l-86 208l-79 -67l-25 -141h-99l81 456h99l-34 -186l208 186h132l-206 -180l113 -276h-104z" />
    <glyph glyph-name="lacute" unicode="&#x13a;" horiz-adv-x="240" 
d="M354 890l-110 -160h-93l99 160h104zM240 690l-98 -552c-6 -38 1 -50 29 -50h25l-16 -91h-47c-84 0 -104 50 -91 129l99 564h99z" />
    <glyph glyph-name="lcaron" unicode="&#x13e;" horiz-adv-x="235" 
d="M245 690l-97 -552c-7 -38 0 -50 28 -50h25l-16 -91h-47c-84 0 -104 50 -91 129l99 564h99zM347 539h-76l51 151h109z" />
    <glyph glyph-name="uni013C" unicode="&#x13c;" horiz-adv-x="235" 
d="M245 690l-98 -552c-7 -38 0 -50 29 -50h24l-16 -91h-46c-84 0 -105 50 -91 129l99 564h99zM71 -216h-76l50 151h109z" />
    <glyph glyph-name="lslash" unicode="&#x142;" horiz-adv-x="259" 
d="M199 344l-37 -206c-7 -38 0 -50 29 -50h24l-16 -91h-47c-84 0 -104 50 -90 129l30 173l-63 -27l14 79l63 27l55 312h99l-47 -267l65 28l-14 -79z" />
    <glyph glyph-name="ldot" unicode="&#x140;" horiz-adv-x="375" 
d="M245 690l-97 -552c-7 -38 0 -50 28 -50h25l-16 -91h-47c-84 0 -104 50 -91 129l99 564h99zM316 298c-39 0 -65 28 -65 61c0 48 37 81 84 81c36 0 63 -28 63 -63c0 -47 -37 -79 -82 -79z" />
    <glyph glyph-name="nacute" unicode="&#x144;" 
d="M454 696l-110 -160h-93l99 160h104zM102 456h96l-8 -46c28 28 76 56 138 56c101 0 148 -60 127 -178l-51 -288h-99l50 278c11 66 -6 97 -71 97c-40 0 -82 -20 -106 -44l-58 -331h-99z" />
    <glyph glyph-name="ncaron" unicode="&#x148;" horiz-adv-x="498" 
d="M264 536l-68 160h87l39 -96l73 96h92l-124 -160h-99zM107 456h96l-8 -46c28 28 76 56 138 56c101 0 148 -60 127 -178l-51 -288h-99l50 278c11 66 -5 97 -71 97c-40 0 -82 -20 -106 -44l-58 -331h-99z" />
    <glyph glyph-name="ntilde" unicode="&#xf1;" horiz-adv-x="498" 
d="M449 568c-17 15 -38 26 -61 26c-40 0 -93 -40 -149 -40c-28 0 -51 12 -61 23l17 74c13 -16 30 -24 57 -24c41 0 85 39 148 39c34 0 52 -12 66 -23zM102 456h96l-8 -46c28 28 76 56 138 56c101 0 148 -60 127 -178l-51 -288h-99l50 278c11 66 -6 97 -71 97
c-40 0 -82 -20 -106 -44l-58 -331h-99z" />
    <glyph glyph-name="uni0146" unicode="&#x146;" horiz-adv-x="498" 
d="M102 456h96l-8 -46c28 28 76 56 138 56c101 0 148 -60 127 -178l-51 -288h-99l50 278c11 66 -6 97 -71 97c-40 0 -82 -20 -106 -44l-58 -331h-99zM174 -216h-76l51 151h108z" />
    <glyph glyph-name="napostrophe" unicode="&#x149;" 
d="M105 546h-77l51 151h109zM102 456h96l-8 -46c28 28 76 56 138 56c101 0 148 -60 127 -178l-51 -288h-99l50 278c11 66 -6 97 -71 97c-40 0 -82 -20 -106 -44l-58 -331h-99z" />
    <glyph glyph-name="ograve" unicode="&#xf2;" horiz-adv-x="488" 
d="M307 696l42 -160h-84l-55 160h97zM278 466c121 0 173 -78 173 -188c0 -153 -83 -288 -241 -288c-120 0 -172 80 -172 189c0 153 83 287 240 287zM216 79c89 0 134 98 134 199c0 62 -23 99 -79 99c-87 0 -132 -94 -132 -198c0 -62 23 -100 77 -100z" />
    <glyph glyph-name="oacute" unicode="&#xf3;" horiz-adv-x="484" 
d="M451 696l-111 -160h-92l98 160h105zM278 466c121 0 173 -78 173 -188c0 -153 -83 -288 -241 -288c-120 0 -172 80 -172 189c0 153 83 287 240 287zM216 79c89 0 134 98 134 199c0 62 -23 99 -79 99c-87 0 -132 -94 -132 -198c0 -62 23 -100 77 -100z" />
    <glyph glyph-name="ocircumflex" unicode="&#xf4;" horiz-adv-x="484" 
d="M378 696l67 -160h-86l-40 96l-73 -96h-92l125 160h99zM278 466c121 0 173 -78 173 -188c0 -153 -83 -288 -241 -288c-120 0 -172 80 -172 189c0 153 83 287 240 287zM216 79c89 0 134 98 134 199c0 62 -23 99 -79 99c-87 0 -132 -94 -132 -198c0 -62 23 -100 77 -100z
" />
    <glyph glyph-name="otilde" unicode="&#xf5;" horiz-adv-x="484" 
d="M441 568c-17 15 -38 26 -61 26c-40 0 -92 -40 -149 -40c-28 0 -51 12 -61 23l17 74c13 -16 30 -24 57 -24c41 0 85 39 148 39c34 0 52 -12 67 -23zM278 466c121 0 173 -78 173 -188c0 -153 -83 -288 -241 -288c-120 0 -172 80 -172 189c0 153 83 287 240 287zM216 79
c89 0 134 98 134 199c0 62 -23 99 -79 99c-87 0 -132 -94 -132 -198c0 -62 23 -100 77 -100z" />
    <glyph glyph-name="odieresis" unicode="&#xf6;" horiz-adv-x="484" 
d="M214 545c-33 0 -55 17 -55 51c0 50 29 74 71 74c28 0 56 -17 56 -52c0 -53 -36 -73 -72 -73zM395 545c-33 0 -55 17 -55 51c0 50 30 74 71 74c28 0 56 -17 56 -52c0 -53 -36 -73 -72 -73zM278 466c121 0 173 -78 173 -188c0 -153 -83 -288 -241 -288
c-120 0 -172 80 -172 189c0 153 83 287 240 287zM216 79c89 0 134 98 134 199c0 62 -23 99 -79 99c-87 0 -132 -94 -132 -198c0 -62 23 -100 77 -100z" />
    <glyph glyph-name="omacron" unicode="&#x14d;" horiz-adv-x="484" 
d="M458 646l-15 -80h-276l14 80h277zM278 466c121 0 173 -78 173 -188c0 -153 -83 -288 -241 -288c-120 0 -172 80 -172 189c0 153 83 287 240 287zM216 79c89 0 134 98 134 199c0 62 -23 99 -79 99c-87 0 -132 -94 -132 -198c0 -62 23 -100 77 -100z" />
    <glyph glyph-name="obreve" unicode="&#x14f;" horiz-adv-x="484" 
d="M464 685c-14 -81 -72 -144 -164 -144c-89 0 -128 63 -114 144h64c-2 -41 21 -72 61 -72c43 0 75 31 87 72h66zM278 466c121 0 173 -78 173 -188c0 -153 -83 -288 -241 -288c-120 0 -172 80 -172 189c0 153 83 287 240 287zM216 79c89 0 134 98 134 199
c0 62 -23 99 -79 99c-87 0 -132 -94 -132 -198c0 -62 23 -100 77 -100z" />
    <glyph glyph-name="ohungarumlaut" unicode="&#x151;" horiz-adv-x="484" 
d="M368 696l-112 -160h-90l98 160h104zM529 696l-111 -160h-91l98 160h104zM278 466c121 0 173 -78 173 -188c0 -153 -83 -288 -241 -288c-120 0 -172 80 -172 189c0 153 83 287 240 287zM216 79c89 0 134 98 134 199c0 62 -23 99 -79 99c-87 0 -132 -94 -132 -198
c0 -62 23 -100 77 -100z" />
    <glyph glyph-name="oslash" unicode="&#xf8;" horiz-adv-x="488" 
d="M493 456l-64 -71c15 -30 22 -66 22 -107c0 -153 -83 -288 -241 -288c-47 0 -83 12 -111 34l-21 -24h-76l61 67c-17 31 -25 69 -25 112c0 153 83 287 240 287c49 0 86 -13 114 -35l22 25h79zM139 179c0 -9 0 -18 2 -26l184 205c-12 12 -30 19 -54 19
c-87 0 -132 -94 -132 -198zM350 278c0 7 0 14 -1 20l-183 -202c12 -11 28 -17 50 -17c89 0 134 98 134 199z" />
    <glyph glyph-name="oslashacute" unicode="&#x1ff;" horiz-adv-x="487" 
d="M424 696l-110 -160h-93l99 160h104zM493 456l-64 -71c15 -30 22 -66 22 -107c0 -153 -83 -288 -241 -288c-47 0 -83 12 -111 34l-21 -24h-76l61 67c-17 31 -25 69 -25 112c0 153 83 287 240 287c49 0 86 -13 114 -35l22 25h79zM139 179c0 -9 0 -18 2 -26l184 205
c-12 12 -30 19 -54 19c-87 0 -132 -94 -132 -198zM350 278c0 7 0 14 -1 20l-183 -202c12 -11 28 -17 50 -17c89 0 134 98 134 199z" />
    <glyph glyph-name="oe" unicode="&#x153;" horiz-adv-x="766" 
d="M532 74c39 0 82 17 120 48l38 -70c-38 -34 -98 -62 -166 -62c-78 0 -126 28 -149 75c-38 -46 -93 -75 -168 -75c-113 0 -169 80 -169 187c0 159 76 289 244 289c79 0 119 -34 141 -82c37 48 92 82 161 82c111 0 156 -78 156 -161c0 -43 -14 -82 -24 -108h-270
c-11 -75 14 -123 86 -123zM641 269c2 7 7 16 7 39c0 49 -29 77 -72 77c-66 0 -102 -51 -117 -116h182zM218 79c96 0 132 89 132 195c0 63 -24 103 -80 103c-92 0 -131 -87 -131 -196c0 -62 25 -102 79 -102z" />
    <glyph glyph-name="racute" unicode="&#x155;" horiz-adv-x="339" 
d="M373 696l-110 -160h-93l99 160h104zM186 391c22 38 65 75 122 75c24 0 44 -3 58 -7l-26 -104c-18 6 -38 9 -57 9c-46 0 -86 -30 -111 -71l-52 -293h-99l81 456h95l-12 -65h1z" />
    <glyph glyph-name="rcaron" unicode="&#x159;" horiz-adv-x="339" 
d="M180 536l-68 160h86l40 -96l73 96h91l-123 -160h-99zM186 391c22 38 65 75 122 75c24 0 44 -3 58 -7l-26 -104c-18 6 -38 9 -57 9c-46 0 -86 -30 -111 -71l-52 -293h-99l81 456h95l-12 -65h1z" />
    <glyph glyph-name="uni0157" unicode="&#x157;" horiz-adv-x="338" 
d="M186 391c22 38 65 75 122 75c24 0 44 -3 58 -7l-26 -104c-18 6 -38 9 -57 9c-46 0 -86 -30 -111 -71l-52 -293h-99l81 456h95l-12 -65h1zM31 -216h-76l51 151h109z" />
    <glyph glyph-name="sacute" unicode="&#x15b;" horiz-adv-x="418" 
d="M412 696l-110 -160h-93l99 160h104zM342 342c-20 28 -57 48 -102 48c-56 0 -80 -31 -80 -66c0 -22 13 -39 48 -50l52 -17c71 -21 108 -59 108 -115c0 -78 -59 -152 -199 -152c-93 0 -144 43 -166 77l65 57c19 -29 49 -59 108 -59c50 0 89 22 89 64c0 26 -17 40 -57 52
l-56 19c-59 19 -94 58 -94 112c0 69 51 154 190 154c78 0 132 -35 156 -65z" />
    <glyph glyph-name="scircumflex" unicode="&#x15d;" horiz-adv-x="418" 
d="M344 696l68 -160h-86l-40 96l-73 -96h-92l125 160h98zM342 342c-20 28 -57 48 -102 48c-56 0 -80 -31 -80 -66c0 -22 13 -39 48 -50l52 -17c71 -21 108 -59 108 -115c0 -78 -59 -152 -199 -152c-93 0 -144 43 -166 77l65 57c19 -29 49 -59 108 -59c50 0 89 22 89 64
c0 26 -17 40 -57 52l-56 19c-59 19 -94 58 -94 112c0 69 51 154 190 154c78 0 132 -35 156 -65z" />
    <glyph glyph-name="scaron" unicode="&#x161;" horiz-adv-x="418" 
d="M219 536l-68 160h87l39 -96l73 96h92l-124 -160h-99zM342 342c-20 28 -57 48 -102 48c-56 0 -80 -31 -80 -66c0 -22 13 -39 48 -50l52 -17c71 -21 108 -59 108 -115c0 -78 -59 -152 -199 -152c-93 0 -144 43 -166 77l65 57c19 -29 49 -59 108 -59c50 0 89 22 89 64
c0 26 -17 40 -57 52l-56 19c-59 19 -94 58 -94 112c0 69 51 154 190 154c78 0 132 -35 156 -65z" />
    <glyph glyph-name="scedilla" unicode="&#x15f;" horiz-adv-x="418" 
d="M260 257c71 -21 108 -59 108 -115c0 -72 -51 -141 -170 -151l-24 -43c43 0 74 -20 74 -66c0 -62 -47 -98 -118 -98c-36 0 -66 10 -88 23l12 63c19 -17 48 -27 76 -27c25 0 39 12 39 30s-15 24 -41 24h-38l-4 7l47 88c-71 10 -111 46 -130 75l65 57c19 -29 49 -59 108 -59
c50 0 89 22 89 64c0 26 -17 40 -57 52l-56 19c-59 19 -94 58 -94 112c0 69 51 154 190 154c78 0 132 -35 156 -65l-62 -59c-20 28 -57 48 -102 48c-56 0 -80 -31 -80 -66c0 -22 13 -39 48 -50z" />
    <glyph glyph-name="uni0219" unicode="&#x219;" horiz-adv-x="418" 
d="M342 342c-20 28 -57 48 -102 48c-56 0 -80 -31 -80 -66c0 -22 13 -39 48 -50l52 -17c71 -21 108 -59 108 -115c0 -78 -59 -152 -199 -152c-93 0 -144 43 -166 77l65 57c19 -29 49 -59 108 -59c50 0 89 22 89 64c0 26 -17 40 -57 52l-56 19c-59 19 -94 58 -94 112
c0 69 51 154 190 154c78 0 132 -35 156 -65zM138 -216h-76l50 151h109z" />
    <glyph glyph-name="germandbls" unicode="&#xdf;" horiz-adv-x="536" 
d="M108 492c24 135 93 208 213 208c107 0 165 -63 165 -146c0 -106 -114 -171 -114 -211c0 -16 12 -32 32 -48l30 -25c34 -30 61 -65 61 -117c0 -97 -75 -164 -180 -164c-50 0 -86 10 -119 29l44 81c19 -14 41 -29 72 -29c48 0 82 35 82 78c0 26 -12 46 -36 66l-33 28
c-33 28 -54 49 -54 88c0 79 111 127 111 212c0 45 -27 71 -73 71c-70 0 -93 -54 -105 -122l-125 -707h-96z" />
    <glyph glyph-name="tcaron" unicode="&#x165;" horiz-adv-x="330" 
d="M415 539h-76l51 151h109zM179 140c-8 -41 7 -59 41 -59c17 0 39 5 57 11l-11 -86c-22 -9 -53 -16 -84 -16c-90 0 -119 57 -104 138l43 244h-80l13 74l82 10l20 113l101 16l-23 -129h105l-15 -84h-104z" />
    <glyph glyph-name="uni021B" unicode="&#x21b;" horiz-adv-x="326" 
d="M184 140c-7 -41 7 -59 42 -59c16 0 38 5 57 11l-11 -86c-22 -9 -54 -16 -84 -16c-91 0 -119 57 -105 138l43 244h-80l13 74l82 10l20 113l102 16l-23 -129h104l-14 -84h-105zM119 -216h-76l51 151h108z" />
    <glyph glyph-name="tbar" unicode="&#x167;" horiz-adv-x="328" 
d="M332 372h-105l-16 -93h74l-11 -68h-75l-12 -71c-8 -41 7 -59 41 -59c17 0 39 5 57 11l-11 -86c-22 -9 -53 -16 -84 -16c-91 0 -119 57 -104 138l15 83h-74l12 68h74l16 93h-80l13 74l82 10l19 113l102 16l-23 -129h105z" />
    <glyph glyph-name="thorn" unicode="&#xfe;" horiz-adv-x="508" 
d="M82 -216h-98l157 891h98l-44 -251c30 27 67 42 122 42c100 0 152 -75 152 -182c0 -172 -75 -295 -226 -295c-58 0 -99 24 -116 49zM367 271c0 57 -23 104 -87 104c-45 0 -80 -21 -101 -45l-37 -206c13 -20 39 -43 87 -43c108 0 138 97 138 190z" />
    <glyph glyph-name="ugrave" unicode="&#xf9;" 
d="M309 696l42 -160h-84l-54 160h96zM400 0h-96l8 46c-28 -28 -76 -56 -138 -56c-101 0 -148 60 -127 178l51 288h99l-50 -278c-11 -66 5 -97 71 -97c40 0 82 20 106 44l58 331h99z" />
    <glyph glyph-name="uacute" unicode="&#xfa;" 
d="M452 696l-110 -160h-93l99 160h104zM400 0h-96l8 46c-28 -28 -76 -56 -138 -56c-101 0 -148 60 -127 178l51 288h99l-50 -278c-11 -66 5 -97 71 -97c40 0 82 20 106 44l58 331h99z" />
    <glyph glyph-name="ucircumflex" unicode="&#xfb;" 
d="M380 696l68 -160h-87l-39 96l-73 -96h-92l124 160h99zM400 0h-96l8 46c-28 -28 -76 -56 -138 -56c-101 0 -148 60 -127 178l51 288h99l-50 -278c-11 -66 5 -97 71 -97c40 0 82 20 106 44l58 331h99z" />
    <glyph glyph-name="utilde" unicode="&#x169;" 
d="M440 568c-18 15 -39 26 -62 26c-40 0 -92 -40 -148 -40c-29 0 -52 12 -62 23l17 74c13 -16 30 -24 58 -24c40 0 84 39 147 39c34 0 52 -12 67 -23zM400 0h-96l8 46c-28 -28 -76 -56 -138 -56c-101 0 -148 60 -127 178l51 288h99l-50 -278c-11 -66 5 -97 71 -97
c40 0 82 20 106 44l58 331h99z" />
    <glyph glyph-name="udieresis" unicode="&#xfc;" 
d="M216 545c-33 0 -55 17 -55 51c0 50 29 74 71 74c28 0 56 -17 56 -52c0 -53 -36 -73 -72 -73zM397 545c-33 0 -55 17 -55 51c0 50 30 74 71 74c28 0 56 -17 56 -52c0 -53 -36 -73 -72 -73zM400 0h-96l8 46c-28 -28 -76 -56 -138 -56c-101 0 -148 60 -127 178l51 288h99
l-50 -278c-11 -66 5 -97 71 -97c40 0 82 20 106 44l58 331h99z" />
    <glyph glyph-name="umacron" unicode="&#x16b;" 
d="M464 646l-14 -80h-277l14 80h277zM400 0h-96l8 46c-28 -28 -76 -56 -138 -56c-101 0 -148 60 -127 178l51 288h99l-50 -278c-11 -66 5 -97 71 -97c40 0 82 20 106 44l58 331h99z" />
    <glyph glyph-name="ubreve" unicode="&#x16d;" 
d="M467 685c-14 -81 -72 -144 -164 -144c-89 0 -128 63 -114 144h64c-2 -41 21 -72 61 -72c43 0 75 31 87 72h66zM400 0h-96l8 46c-28 -28 -76 -56 -138 -56c-101 0 -148 60 -127 178l51 288h99l-50 -278c-11 -66 5 -97 71 -97c40 0 82 20 106 44l58 331h99z" />
    <glyph glyph-name="uring" unicode="&#x16f;" 
d="M210 608c0 58 43 111 117 111c60 0 91 -40 91 -84c0 -58 -44 -111 -120 -111c-57 0 -88 41 -88 84zM269 613c0 -19 12 -36 36 -36c33 0 53 25 53 52c0 20 -12 37 -38 37c-31 0 -51 -25 -51 -53zM400 0h-96l8 46c-28 -28 -76 -56 -138 -56c-101 0 -148 60 -127 178l51 288
h99l-50 -278c-11 -66 5 -97 71 -97c40 0 82 20 106 44l58 331h99z" />
    <glyph glyph-name="uhungarumlaut" unicode="&#x171;" 
d="M374 696l-111 -160h-91l99 160h103zM536 696l-112 -160h-90l97 160h105zM400 0h-96l8 46c-28 -28 -76 -56 -138 -56c-101 0 -148 60 -127 178l51 288h99l-50 -278c-11 -66 5 -97 71 -97c40 0 82 20 106 44l58 331h99z" />
    <glyph glyph-name="uogonek" unicode="&#x173;" 
d="M323 -54c-25 -19 -40 -35 -40 -56c0 -14 9 -27 31 -27c19 0 43 11 66 26l-14 -83c-26 -12 -53 -22 -91 -22c-59 0 -97 32 -97 80c0 46 27 75 77 113l52 41l5 28c-28 -28 -76 -56 -138 -56c-101 0 -148 60 -127 178l51 288h99l-50 -278c-11 -66 5 -97 71 -97
c40 0 82 20 106 44l58 331h99l-81 -456z" />
    <glyph glyph-name="wacute" unicode="&#x1e83;" horiz-adv-x="732" 
d="M570 696l-110 -160h-93l99 160h104zM451 456l38 -349l158 349h107l-217 -456h-109l-44 329l-160 -329h-108l-57 456h100l35 -349l161 349h96z" />
    <glyph glyph-name="wcircumflex" unicode="&#x175;" horiz-adv-x="732" 
d="M495 696l67 -160h-86l-40 96l-73 -96h-92l125 160h99zM451 456l38 -349l158 349h107l-217 -456h-109l-44 329l-160 -329h-108l-57 456h100l35 -349l161 349h96z" />
    <glyph glyph-name="wdieresis" unicode="&#x1e85;" horiz-adv-x="732" 
d="M331 545c-34 0 -56 17 -56 51c0 50 30 74 72 74c27 0 56 -17 56 -52c0 -53 -36 -73 -72 -73zM512 545c-33 0 -55 17 -55 51c0 50 29 74 71 74c28 0 56 -17 56 -52c0 -53 -36 -73 -72 -73zM451 456l38 -349l158 349h107l-217 -456h-109l-44 329l-160 -329h-108l-57 456
h100l35 -349l161 349h96z" />
    <glyph glyph-name="wgrave" unicode="&#x1e81;" horiz-adv-x="732" 
d="M419 696l42 -160h-84l-54 160h96zM451 456l38 -349l158 349h107l-217 -456h-109l-44 329l-160 -329h-108l-57 456h100l35 -349l161 349h96z" />
    <glyph glyph-name="yacute" unicode="&#xfd;" horiz-adv-x="468" 
d="M437 696l-110 -160h-93l99 160h104zM221 140l163 316h112l-377 -672h-106l141 245l-102 427h108z" />
    <glyph glyph-name="ycircumflex" unicode="&#x177;" horiz-adv-x="468" 
d="M367 696l68 -160h-87l-39 96l-73 -96h-92l125 160h98zM221 140l163 316h112l-377 -672h-106l141 245l-102 427h108z" />
    <glyph glyph-name="ydieresis" unicode="&#xff;" horiz-adv-x="468" 
d="M204 545c-34 0 -56 17 -56 51c0 50 30 74 72 74c27 0 55 -17 55 -52c0 -53 -36 -73 -71 -73zM385 545c-33 0 -55 17 -55 51c0 50 29 74 71 74c28 0 56 -17 56 -52c0 -53 -36 -73 -72 -73zM221 140l163 316h112l-377 -672h-106l141 245l-102 427h108z" />
    <glyph glyph-name="ygrave" unicode="&#x1ef3;" horiz-adv-x="468" 
d="M296 696l42 -160h-84l-55 160h97zM221 140l163 316h112l-377 -672h-106l141 245l-102 427h108z" />
    <glyph glyph-name="zacute" unicode="&#x17a;" horiz-adv-x="399" 
d="M402 696l-110 -160h-93l99 160h104zM387 389l-244 -304h192l-15 -85h-324l12 67l246 304h-183l14 85h314z" />
    <glyph glyph-name="zcaron" unicode="&#x17e;" horiz-adv-x="399" 
d="M211 536l-68 160h86l39 -96l73 96h92l-124 -160h-98zM387 389l-244 -304h192l-15 -85h-324l12 67l246 304h-183l14 85h314z" />
    <glyph glyph-name="zdotaccent" unicode="&#x17c;" horiz-adv-x="399" 
d="M273 545c-32 0 -56 15 -56 52c0 52 32 73 74 73c27 0 53 -19 53 -53c0 -51 -35 -72 -71 -72zM387 389l-244 -304h192l-15 -85h-324l12 67l246 304h-183l14 85h314z" />
    <glyph glyph-name="IJ" unicode="&#x132;" horiz-adv-x="726" 
d="M154 676h107l-119 -676h-107zM339 146c12 -42 37 -64 86 -64c77 0 113 49 131 153l78 441h102l-80 -449c-28 -161 -101 -237 -238 -237c-92 0 -148 43 -167 106z" />
    <glyph glyph-name="ij" unicode="&#x133;" horiz-adv-x="443" 
d="M167 555c-31 0 -53 15 -53 49c0 52 34 76 75 76c28 0 53 -16 53 -51c0 -53 -39 -74 -75 -74zM390 555c-32 0 -54 15 -54 49c0 52 34 76 76 76c27 0 52 -16 52 -51c0 -53 -38 -74 -74 -74zM102 456h99l-81 -456h-99zM134 -158c59 27 93 66 105 136l85 478h99l-82 -463
c-19 -104 -66 -176 -158 -219z" />
    <glyph glyph-name="acute" unicode="&#xb4;" horiz-adv-x="570" 
d="M503 696l-110 -160h-93l99 160h104z" />
    <glyph glyph-name="circumflex" unicode="&#x2c6;" horiz-adv-x="570" 
d="M466 696l68 -160h-87l-39 96l-73 -96h-92l124 160h99z" />
    <glyph glyph-name="caron" unicode="&#x2c7;" horiz-adv-x="570" 
d="M339 536l-68 160h86l40 -96l73 96h91l-123 -160h-99z" />
    <glyph glyph-name="tilde" unicode="&#x2dc;" horiz-adv-x="570" 
d="M529 568c-18 15 -39 26 -62 26c-40 0 -92 -40 -148 -40c-29 0 -52 12 -62 23l17 74c13 -16 30 -24 58 -24c40 0 84 39 147 39c34 0 52 -12 67 -23z" />
    <glyph glyph-name="dieresis" unicode="&#xa8;" horiz-adv-x="570" 
d="M302 545c-33 0 -55 17 -55 51c0 50 29 74 71 74c28 0 56 -17 56 -52c0 -53 -36 -73 -72 -73zM483 545c-33 0 -55 17 -55 51c0 50 30 74 71 74c28 0 56 -17 56 -52c0 -53 -36 -73 -72 -73z" />
    <glyph glyph-name="macron" unicode="&#xaf;" horiz-adv-x="570" 
d="M546 646l-14 -80h-277l14 80h277z" />
    <glyph glyph-name="breve" unicode="&#x2d8;" horiz-adv-x="570" 
d="M553 685c-14 -81 -72 -144 -164 -144c-89 0 -128 63 -114 144h64c-2 -41 21 -72 61 -72c43 0 75 31 87 72h66z" />
    <glyph glyph-name="ring" unicode="&#x2da;" horiz-adv-x="570" 
d="M299 608c0 58 43 111 117 111c60 0 91 -40 91 -84c0 -58 -44 -111 -120 -111c-57 0 -88 41 -88 84zM358 613c0 -19 12 -36 36 -36c33 0 53 25 53 52c0 20 -12 37 -38 37c-31 0 -51 -25 -51 -53z" />
    <glyph glyph-name="hungarumlaut" unicode="&#x2dd;" horiz-adv-x="570" 
d="M423 696l-111 -160h-91l99 160h103zM585 696l-112 -160h-90l97 160h105z" />
    <glyph glyph-name="dotaccent" unicode="&#x2d9;" horiz-adv-x="570" 
d="M393 545c-31 0 -56 15 -56 52c0 52 33 73 74 73c28 0 54 -19 54 -53c0 -51 -35 -72 -72 -72z" />
    <glyph glyph-name="cedilla" unicode="&#xb8;" horiz-adv-x="570" 
d="M333 0l-29 -52c43 0 74 -20 74 -66c0 -62 -47 -98 -118 -98c-36 0 -66 10 -88 23l12 63c19 -17 48 -27 76 -27c25 0 39 12 39 30s-15 24 -41 24h-38l-4 7l55 104z" />
    <glyph glyph-name="ogonek" unicode="&#x2db;" horiz-adv-x="570" 
d="M319 -54c-26 -19 -40 -35 -40 -56c0 -14 8 -27 31 -27c18 0 43 11 66 26l-14 -83c-26 -12 -53 -22 -91 -22c-60 0 -97 32 -97 80c0 46 26 75 76 113l55 43l90 -20z" />
    <glyph glyph-name="uniF6C3" unicode="&#xf6c3;" horiz-adv-x="0" 
d="M-304 -216h-76l51 151h108z" />
    <glyph glyph-name="ellipsis" unicode="&#x2026;" horiz-adv-x="633" 
d="M79 -6c-35 0 -60 26 -60 58c0 44 35 75 79 75c34 0 59 -27 59 -58c0 -45 -35 -75 -78 -75zM284 -6c-35 0 -60 26 -60 58c0 44 34 75 79 75c34 0 60 -27 60 -58c0 -45 -35 -75 -79 -75zM483 -6c-35 0 -59 26 -59 58c0 44 34 75 78 75c34 0 59 -27 59 -58
c0 -45 -34 -75 -78 -75z" />
    <glyph glyph-name="uni00AD" unicode="&#xad;" horiz-adv-x="403" 
d="M344 313v-85h-272v85h272z" />
    <glyph glyph-name="exclamdown" unicode="&#xa1;" horiz-adv-x="231" 
d="M154 466c35 0 61 -27 61 -59c0 -44 -35 -75 -79 -75c-35 0 -60 27 -60 59c0 44 35 75 78 75zM160 241l-63 -457h-121l101 457h83z" />
    <glyph glyph-name="questiondown" unicode="&#xbf;" horiz-adv-x="431" 
d="M263 466c35 0 59 -25 59 -56c0 -45 -36 -77 -80 -77c-35 0 -59 25 -59 57c0 44 37 76 80 76zM145 -226c-102 0 -170 60 -170 145c0 159 175 187 198 323h103c-29 -165 -199 -202 -199 -307c0 -36 23 -69 71 -69c55 0 94 33 102 77l91 -8c-14 -86 -74 -161 -196 -161z" />
    <glyph glyph-name="quoteleft" unicode="&#x2018;" horiz-adv-x="221" 
d="M179 676h74l-65 -238h-108z" />
    <glyph glyph-name="quoteright" unicode="&#x2019;" horiz-adv-x="217" 
d="M163 438h-76l66 238h109z" />
    <glyph glyph-name="quotedblleft" unicode="&#x201c;" horiz-adv-x="374" 
d="M179 676h74l-65 -238h-108zM330 676h76l-66 -238h-108z" />
    <glyph glyph-name="quotedblright" unicode="&#x201d;" horiz-adv-x="369" 
d="M163 438h-76l66 238h109zM314 438h-74l65 238h109z" />
    <glyph glyph-name="quotesinglbase" unicode="&#x201a;" horiz-adv-x="228" 
d="M60 -110h-76l66 238h109z" />
    <glyph glyph-name="quotedblbase" unicode="&#x201e;" horiz-adv-x="379" 
d="M59 -111h-75l66 239h108zM210 -111h-74l65 239h110z" />
    <glyph glyph-name="guilsinglleft" unicode="&#x2039;" horiz-adv-x="310" 
d="M254 492l52 -52l-157 -177l95 -177l-68 -39l-142 223z" />
    <glyph glyph-name="guilsinglright" unicode="&#x203a;" horiz-adv-x="310" 
d="M70 47l-51 52l157 177l-95 178l68 38l142 -223z" />
    <glyph glyph-name="guillemotleft" unicode="&#xab;" horiz-adv-x="506" 
d="M254 492l52 -52l-157 -177l95 -177l-68 -39l-142 223zM451 492l51 -52l-157 -177l95 -177l-67 -39l-143 223z" />
    <glyph glyph-name="guillemotright" unicode="&#xbb;" horiz-adv-x="507" 
d="M70 47l-51 52l157 177l-95 178l68 38l142 -223zM267 47l-51 52l157 177l-95 178l67 38l143 -223z" />
    <glyph glyph-name="endash" unicode="&#x2013;" horiz-adv-x="604" 
d="M545 313v-85h-473v85h473z" />
    <glyph glyph-name="emdash" unicode="&#x2014;" horiz-adv-x="744" 
d="M685 313v-85h-613v85h613z" />
    <glyph glyph-name="bullet" unicode="&#x2022;" horiz-adv-x="391" 
d="M203 150c-73 0 -126 50 -126 119s53 120 126 120c72 0 124 -51 124 -120s-52 -119 -124 -119z" />
    <glyph glyph-name="periodcentered" unicode="&#xb7;" horiz-adv-x="246" 
d="M129 202c-38 0 -65 28 -65 61c0 48 37 81 84 81c36 0 63 -28 63 -63c0 -47 -37 -79 -82 -79z" />
    <glyph glyph-name="uni2219" unicode="&#x2219;" horiz-adv-x="246" 
d="M128 202c-38 0 -64 28 -64 61c0 48 36 81 84 81c36 0 62 -28 62 -63c0 -47 -36 -79 -82 -79z" />
    <glyph glyph-name="dagger" unicode="&#x2020;" horiz-adv-x="404" 
d="M181 302l69 388h68l-69 -388h141l-12 -65h-140l-80 -453h-68l80 453h-141l12 65h140z" />
    <glyph glyph-name="daggerdbl" unicode="&#x2021;" horiz-adv-x="448" 
d="M232 449l43 241h68l-43 -241h140l-11 -65h-140l-51 -290h140l-12 -65h-140l-43 -245h-68l43 245h-141l12 65h141l51 290h-141l11 65h141z" />
    <glyph glyph-name="section" unicode="&#xa7;" horiz-adv-x="539" 
d="M498 290c0 -71 -48 -118 -86 -140c23 -19 43 -47 43 -89c0 -113 -98 -175 -243 -175c-109 0 -185 40 -212 97l69 63c28 -43 67 -80 156 -80c72 0 119 23 119 71c0 32 -42 54 -75 69l-66 28c-89 36 -134 72 -134 142c0 62 42 112 85 142c-26 21 -43 51 -43 91
c0 102 103 177 236 177c109 0 165 -35 199 -90l-71 -61c-29 43 -69 69 -143 69c-53 0 -111 -29 -111 -75c0 -29 31 -50 82 -70l52 -21c92 -35 143 -73 143 -148zM229 382c-30 -21 -53 -55 -53 -85c0 -34 28 -55 81 -77l80 -34c24 18 54 47 54 86c0 36 -29 58 -78 77z" />
    <glyph glyph-name="paragraph" unicode="&#xb6;" 
d="M345 456l-85 -483h-89l32 183c-110 0 -162 39 -162 117c0 106 61 183 196 183h108zM212 -164c57 31 86 65 98 133l86 487h89l-83 -469c-18 -102 -50 -172 -147 -214z" />
    <glyph glyph-name="brokenbar" unicode="&#xa6;" horiz-adv-x="253" 
d="M94 306v384h69v-384h-69zM163 170v-386h-69v386h69z" />
    <glyph glyph-name="copyright" unicode="&#xa9;" horiz-adv-x="826" 
d="M68 336c0 215 157 363 365 363c209 0 364 -148 364 -363c0 -213 -155 -365 -364 -365c-208 0 -365 152 -365 365zM145 336c0 -177 120 -291 288 -291s287 114 287 291s-119 290 -287 290s-288 -113 -288 -290zM330 334c0 -77 31 -125 102 -125c46 0 76 22 97 50l57 -55
c-36 -43 -82 -72 -157 -72c-107 0 -187 76 -187 203c0 125 82 200 187 200c76 0 120 -33 155 -69l-56 -53c-26 24 -49 45 -95 45c-69 0 -103 -48 -103 -124z" />
    <glyph glyph-name="uni2117" unicode="&#x2117;" horiz-adv-x="826" 
d="M68 336c0 215 157 363 365 363c209 0 364 -148 364 -363c0 -213 -155 -365 -364 -365c-208 0 -365 152 -365 365zM145 336c0 -177 120 -291 288 -291s287 114 287 291s-119 290 -287 290s-288 -113 -288 -290zM455 530c104 0 152 -52 152 -126c0 -75 -48 -124 -152 -124
h-78v-143h-74v393h152zM529 405c0 33 -16 64 -73 64h-79v-126h79c57 0 73 28 73 62z" />
    <glyph glyph-name="registered" unicode="&#xae;" horiz-adv-x="826" 
d="M68 336c0 215 157 363 365 363c209 0 364 -148 364 -363c0 -213 -155 -365 -364 -365c-208 0 -365 152 -365 365zM145 336c0 -177 120 -291 288 -291s287 114 287 291s-119 290 -287 290s-288 -113 -288 -290zM284 531h149c106 0 152 -40 152 -114
c0 -55 -37 -96 -101 -109l110 -172h-83l-101 164h-52v-164h-74v395zM511 415c0 28 -18 58 -75 58h-78v-116h74c59 0 79 32 79 58z" />
    <glyph glyph-name="trademark" unicode="&#x2122;" horiz-adv-x="605" 
d="M306 607l-7 -41h-73l-34 -196h-50l34 196h-73l7 41h196zM517 607h70l-17 -237h-49l18 182l-79 -182h-56l-10 180l-48 -180h-48l66 237h68l10 -181z" />
    <glyph glyph-name="currency" unicode="&#xa4;" horiz-adv-x="575" 
d="M440 351c7 -21 12 -49 12 -77c0 -29 -4 -55 -13 -78l81 -83l-68 -68l-80 77c-21 -10 -49 -17 -80 -17c-32 0 -61 7 -82 18l-74 -74l-65 64l76 79c-9 23 -14 51 -14 81c0 27 4 52 12 75l-78 82l69 67l75 -75c21 12 50 19 83 19s63 -8 84 -21l75 75l64 -64zM293 194
c51 0 73 30 73 79c0 50 -22 79 -73 79c-52 0 -73 -29 -73 -78c0 -50 21 -80 73 -80z" />
    <glyph glyph-name="Euro" unicode="&#x20ac;" horiz-adv-x="548" 
d="M402 593c-78 0 -136 -61 -168 -156h239l-37 -68h-221c-4 -22 -7 -44 -9 -68h197l-36 -68h-164c0 -89 35 -151 117 -151c39 0 88 12 142 44l11 -95c-53 -28 -104 -42 -166 -42c-139 0 -215 82 -215 244h-52l12 68h43c2 24 5 46 9 68h-40l12 68h44c47 156 152 249 292 249
c67 0 123 -17 169 -41l-47 -85c-34 18 -78 33 -132 33z" />
    <glyph glyph-name="cent" unicode="&#xa2;" horiz-adv-x="464" 
d="M230 77c42 0 77 22 104 59l64 -52c-42 -63 -106 -95 -183 -95c-11 0 -22 1 -33 2l-25 -62l-52 13l26 65c-59 31 -87 95 -87 169c0 148 68 290 239 290c11 0 23 -1 33 -2l31 76l53 -13l-31 -77c35 -16 61 -43 73 -81l-74 -48c-7 20 -19 34 -34 44l-117 -287
c4 -1 9 -1 13 -1zM146 182c0 -32 7 -60 24 -79l111 275c-100 0 -135 -101 -135 -196z" />
    <glyph glyph-name="sterling" unicode="&#xa3;" horiz-adv-x="541" 
d="M118 332l20 116c23 131 93 238 242 238c100 0 153 -39 193 -97l-74 -64c-31 50 -69 67 -124 67c-76 0 -119 -58 -134 -149l-20 -111h168l-12 -68h-168l-32 -179h265l-15 -85h-367l46 264h-60l12 68h60z" />
    <glyph glyph-name="florin" unicode="&#x192;" horiz-adv-x="339" 
d="M157 -77c-14 -82 -60 -149 -153 -149c-32 0 -66 5 -78 10l15 87c16 -5 37 -7 51 -7c45 0 64 29 72 80l76 426h-88l15 86h88l16 95c14 81 59 149 157 149c27 0 61 -5 73 -10l-15 -87c-16 4 -34 7 -51 7c-42 0 -62 -26 -71 -78l-13 -76h94l-15 -86h-94z" />
    <glyph glyph-name="yen" unicode="&#xa5;" horiz-adv-x="576" 
d="M228 301l-20 68h-119l11 68h83l-78 239h111l89 -307l196 307h122l-163 -239h85l-12 -68h-122l-45 -68h155l-12 -68h-170l-41 -233h-107l41 233h-167l12 68h151z" />
    <glyph glyph-name="uni20A8" unicode="&#x20a8;" horiz-adv-x="525" 
d="M563 677l-12 -68h-124c21 -21 31 -60 30 -100h76l-12 -68h-72c-20 -80 -89 -141 -181 -153l115 -288h-116l-105 276h-104l15 84h100c93 0 138 25 163 81h-248l12 68h249c-4 56 -35 82 -125 82h-111l15 85z" />
    <glyph glyph-name="ordfeminine" unicode="&#xaa;" horiz-adv-x="342" 
d="M241 350l5 31c-21 -19 -54 -38 -92 -38c-39 0 -78 21 -78 71c0 70 64 99 151 106l39 3l4 21c4 26 -6 41 -40 41s-50 -11 -52 -27l-3 -14h-61l3 21c7 43 51 74 120 74s113 -30 102 -97l-34 -192h-64zM148 421c0 -16 14 -25 32 -25c27 0 50 15 69 30l9 54l-33 -5
c-50 -8 -77 -22 -77 -54z" />
    <glyph glyph-name="ordmasculine" unicode="&#xba;" horiz-adv-x="351" 
d="M243 639c75 0 113 -49 113 -117c0 -98 -42 -179 -157 -179c-75 0 -113 48 -113 117c0 96 42 179 157 179zM206 404c54 0 78 53 78 114c0 35 -15 60 -48 60c-55 0 -77 -52 -77 -113c0 -36 14 -61 47 -61z" />
    <glyph glyph-name="uni00B9" unicode="&#xb9;" horiz-adv-x="237" 
d="M159 430l50 280l-97 -34l-9 63l130 48h64l-63 -357h-75z" />
    <glyph glyph-name="uni00B2" unicode="&#xb2;" horiz-adv-x="306" 
d="M253 793c59 0 108 -34 108 -97c0 -57 -42 -98 -95 -143l-74 -64h136l-10 -58h-240l9 49l134 116c40 35 64 62 64 98c0 22 -13 40 -37 40c-33 0 -52 -22 -59 -58h-72c8 71 57 117 136 117z" />
    <glyph glyph-name="uni00B3" unicode="&#xb3;" horiz-adv-x="317" 
d="M293 609c28 -7 53 -31 53 -74c0 -70 -67 -111 -146 -111c-90 0 -122 41 -111 101h70c-4 -26 13 -41 47 -41c35 0 64 21 64 54c0 27 -19 44 -58 44h-37l10 58h35c45 0 72 21 72 56c0 23 -16 37 -43 37c-31 0 -51 -17 -55 -40h-72c10 58 55 99 133 99c59 0 115 -28 115 -91
c0 -53 -36 -84 -77 -92z" />
    <glyph glyph-name="fraction" unicode="&#x2044;" horiz-adv-x="183" 
d="M-98 0h-86l502 676h88z" />
    <glyph glyph-name="uni2215" unicode="&#x2215;" horiz-adv-x="183" 
d="M-98 0h-86l502 676h88z" />
    <glyph glyph-name="onehalf" unicode="&#xbd;" horiz-adv-x="721" 
d="M158 0h-85l501 676h88zM151 318l50 281l-98 -35l-9 63l130 48h64l-62 -357h-75zM579 363c59 0 108 -34 108 -98c0 -57 -42 -98 -95 -143l-74 -64h136l-10 -58h-240l8 50l134 116c40 34 65 62 65 97c0 23 -14 40 -38 40c-33 0 -52 -21 -59 -58h-71c8 71 56 118 136 118z
" />
    <glyph glyph-name="uni2153" unicode="&#x2153;" horiz-adv-x="734" 
d="M157 0h-86l502 676h88zM165 318l50 281l-98 -35l-9 63l130 48h64l-62 -357h-75zM626 179c29 -6 54 -31 54 -73c0 -71 -67 -112 -146 -112c-90 0 -122 41 -112 101h71c-5 -25 12 -41 46 -41c35 0 64 21 64 55c0 26 -19 43 -58 43h-37l10 59h36c45 0 71 20 71 56
c0 22 -16 36 -43 36c-30 0 -51 -17 -54 -40h-72c10 59 54 100 132 100c60 0 115 -28 115 -91c0 -54 -36 -84 -77 -93z" />
    <glyph glyph-name="onequarter" unicode="&#xbc;" horiz-adv-x="678" 
d="M157 0h-86l502 676h88zM165 318l50 281l-98 -35l-9 63l130 48h64l-62 -357h-75zM622 69h-43l-11 -69h-74l12 69h-170l9 51l207 237h79l-41 -230h42zM517 127l22 128l-109 -128h87z" />
    <glyph glyph-name="oneeighth" unicode="&#x215b;" horiz-adv-x="739" 
d="M157 0h-86l502 676h88zM165 318l50 281l-98 -35l-9 63l130 48h64l-62 -357h-75zM535 -6c-77 0 -125 33 -125 93c0 52 37 87 82 99c-29 11 -46 31 -46 65c0 75 65 112 143 112c75 0 119 -33 119 -90c0 -49 -33 -80 -73 -92c28 -9 51 -30 51 -72c0 -77 -69 -115 -151 -115z
M584 303c-37 0 -61 -20 -61 -55c0 -23 18 -36 45 -36c34 0 62 17 62 55c0 22 -17 36 -46 36zM558 154c-44 0 -70 -26 -70 -59c0 -27 23 -41 53 -41c36 0 69 21 69 57c0 26 -19 43 -52 43z" />
    <glyph glyph-name="uni2154" unicode="&#x2154;" horiz-adv-x="785" 
d="M246 681c59 0 108 -34 108 -98c0 -56 -42 -97 -95 -143l-74 -64h136l-10 -58h-240l9 50l133 116c40 34 65 62 65 97c0 23 -13 40 -37 40c-34 0 -52 -21 -59 -57h-72c8 70 57 117 136 117zM218 0h-86l502 676h88zM680 179c28 -6 54 -31 54 -73c0 -71 -67 -112 -146 -112
c-91 0 -123 41 -112 101h70c-4 -25 13 -41 47 -41c35 0 64 21 64 55c0 26 -19 43 -58 43h-37l10 59h36c45 0 71 20 71 56c0 22 -16 36 -43 36c-30 0 -51 -17 -54 -40h-72c9 59 54 100 132 100c60 0 115 -28 115 -91c0 -54 -36 -84 -77 -93z" />
    <glyph glyph-name="threequarters" unicode="&#xbe;" horiz-adv-x="714" 
d="M284 497c28 -6 53 -31 53 -73c0 -71 -67 -112 -146 -112c-90 0 -122 42 -111 101h70c-4 -25 13 -40 47 -40c35 0 64 21 64 54c0 26 -19 44 -58 44h-37l10 58h35c45 0 72 20 72 56c0 22 -16 36 -43 36c-30 0 -51 -17 -55 -39h-71c9 58 54 99 132 99c59 0 115 -28 115 -91
c0 -53 -36 -84 -77 -93zM202 0h-85l502 676h87zM660 69h-42l-12 -69h-73l11 69h-169l9 51l207 237h79l-41 -230h42zM555 127l23 128l-110 -128h87z" />
    <glyph glyph-name="threeeighths" unicode="&#x215c;" horiz-adv-x="776" 
d="M285 497c28 -6 53 -31 53 -73c0 -71 -67 -112 -146 -112c-90 0 -122 42 -112 101h71c-5 -25 12 -40 46 -40c35 0 64 21 64 54c0 26 -19 44 -58 44h-37l11 58h35c45 0 71 20 71 56c0 22 -16 36 -43 36c-30 0 -51 -17 -54 -39h-72c10 58 55 99 132 99c60 0 115 -28 115 -91
c0 -53 -35 -84 -76 -93zM203 0h-86l502 676h88zM574 -6c-76 0 -124 33 -124 93c0 52 37 87 81 99c-28 11 -46 31 -46 65c0 75 65 112 144 112c75 0 118 -33 118 -90c0 -49 -33 -80 -73 -92c29 -9 51 -30 51 -72c0 -77 -68 -115 -151 -115zM624 303c-38 0 -62 -20 -62 -55
c0 -23 19 -36 45 -36c35 0 63 17 63 55c0 22 -18 36 -46 36zM597 154c-44 0 -70 -26 -70 -59c0 -27 24 -41 53 -41c36 0 69 21 69 57c0 26 -19 43 -52 43z" />
    <glyph glyph-name="fiveeighths" unicode="&#x215d;" horiz-adv-x="768" 
d="M196 0h-85l502 676h87zM337 451c0 -85 -60 -139 -150 -139c-94 0 -121 45 -111 103h71c-4 -26 12 -42 45 -42c41 0 68 27 68 71c0 27 -17 45 -47 45c-21 0 -40 -8 -54 -17l-58 9l59 194h202l-10 -58h-142l-23 -76c8 3 28 8 51 8c49 0 99 -25 99 -98zM565 -6
c-77 0 -124 33 -124 93c0 52 36 87 81 99c-28 11 -46 31 -46 65c0 75 65 112 144 112c74 0 118 -33 118 -90c0 -49 -33 -80 -73 -92c28 -9 51 -30 51 -72c0 -77 -69 -115 -151 -115zM614 303c-37 0 -61 -20 -61 -55c0 -23 18 -36 45 -36c34 0 62 17 62 55
c0 22 -17 36 -46 36zM588 154c-44 0 -70 -26 -70 -59c0 -27 23 -41 53 -41c36 0 69 21 69 57c0 26 -19 43 -52 43z" />
    <glyph glyph-name="seveneighths" unicode="&#x215e;" horiz-adv-x="696" 
d="M122 0h-85l502 676h87zM276 617h-160l11 58h243l-8 -50l-191 -307h-81zM494 -6c-77 0 -125 33 -125 93c0 52 37 87 82 99c-29 11 -46 31 -46 65c0 75 65 112 143 112c75 0 119 -33 119 -90c0 -49 -33 -80 -73 -92c28 -9 51 -30 51 -72c0 -77 -69 -115 -151 -115zM543 303
c-37 0 -61 -20 -61 -55c0 -23 18 -36 45 -36c34 0 62 17 62 55c0 22 -17 36 -46 36zM517 154c-44 0 -70 -26 -70 -59c0 -27 23 -41 53 -41c36 0 69 21 69 57c0 26 -19 43 -52 43z" />
    <glyph glyph-name="perthousand" unicode="&#x2030;" horiz-adv-x="1106" 
d="M252 681c82 0 121 -51 121 -133c0 -129 -49 -235 -176 -235c-87 0 -122 56 -122 133c0 134 54 235 177 235zM204 0h-85l502 676h87zM202 373c63 0 95 60 95 175c0 45 -14 73 -50 73c-59 0 -96 -58 -96 -175c0 -46 15 -73 51 -73zM628 363c82 0 122 -51 122 -134
c0 -129 -49 -235 -176 -235c-87 0 -122 56 -122 134c0 134 54 235 176 235zM947 363c82 0 122 -51 122 -134c0 -129 -49 -235 -176 -235c-87 0 -122 56 -122 134c0 134 53 235 176 235zM579 54c63 0 95 61 95 175c0 46 -14 74 -50 74c-59 0 -96 -58 -96 -175
c0 -46 15 -74 51 -74zM898 54c62 0 95 61 95 175c0 46 -15 74 -51 74c-58 0 -95 -58 -95 -175c0 -46 15 -74 51 -74z" />
    <glyph glyph-name="minus" unicode="&#x2212;" horiz-adv-x="560" 
d="M49 313h476v-85h-476v85z" />
    <glyph glyph-name="plusminus" unicode="&#xb1;" horiz-adv-x="560" 
d="M48 448h189v197h94v-197h192v-85h-192v-160h-94v160h-189v85zM48 115h475v-85h-475v85z" />
    <glyph glyph-name="multiply" unicode="&#xd7;" horiz-adv-x="560" 
d="M66 112l155 155l-159 159l66 67l159 -160l158 157l62 -62l-158 -157l160 -160l-66 -66l-159 160l-156 -156z" />
    <glyph glyph-name="divide" unicode="&#xf7;" horiz-adv-x="560" 
d="M290 385c-40 0 -69 29 -69 67c0 40 29 67 69 67s69 -27 69 -67c0 -38 -29 -67 -69 -67zM50 312h475v-84h-475v84zM290 20c-40 0 -69 29 -69 67s29 66 69 66s69 -28 69 -66s-29 -67 -69 -67z" />
    <glyph glyph-name="notequal" unicode="&#x2260;" horiz-adv-x="556" 
d="M499 345h-166l-37 -149h203v-85h-224l-29 -117l-52 12l26 105h-130v85h150l37 149h-187v85h207l27 110l54 -12l-24 -98h145v-85z" />
    <glyph glyph-name="approxequal" unicode="&#x2248;" horiz-adv-x="560" 
d="M495 350c-26 -28 -58 -48 -103 -48c-81 0 -146 65 -213 65c-40 0 -70 -29 -90 -41l-11 80c28 27 70 47 109 47c73 0 138 -66 208 -66c36 0 72 30 89 43zM494 135c-25 -27 -58 -47 -103 -47c-80 0 -144 66 -210 66c-41 0 -73 -29 -92 -40l-12 80c28 26 70 45 109 45
c74 0 140 -66 210 -66c35 0 70 29 87 42z" />
    <glyph glyph-name="lessequal" unicode="&#x2264;" horiz-adv-x="556" 
d="M85 454l409 163v-92l-324 -122l324 -121v-92l-409 164v100zM83 110h408v-82h-408v82z" />
    <glyph glyph-name="greaterequal" unicode="&#x2265;" horiz-adv-x="556" 
d="M514 354l-409 -164v92l323 121l-323 122v92l409 -163v-100zM91 110h408v-82h-408v82z" />
    <glyph glyph-name="logicalnot" unicode="&#xac;" horiz-adv-x="560" 
d="M44 394h476v-275h-95v190h-381v85z" />
    <glyph glyph-name="uni0394" unicode="&#x394;" horiz-adv-x="640" 
d="M339 676h120l135 -676h-628zM384 570l-255 -481h338z" />
    <glyph glyph-name="uni03A9" unicode="&#x3a9;" horiz-adv-x="699" 
d="M172 85c-49 48 -91 140 -91 233c0 174 98 369 345 369c173 0 243 -125 243 -257c0 -172 -98 -281 -189 -345h139l-14 -85h-254l16 85c91 64 190 177 190 337c0 95 -41 173 -143 173c-160 0 -223 -149 -223 -284c0 -93 42 -180 92 -226l-15 -85h-253l15 85h142z" />
    <glyph glyph-name="uni03BC" unicode="&#x3bc;" horiz-adv-x="512" 
d="M-17 -216l119 672h99l-50 -280c-11 -66 9 -95 69 -95c44 0 84 21 108 47l60 328h98l-58 -319c-6 -30 1 -50 22 -50c9 0 15 1 21 2l-14 -89c-15 -3 -30 -4 -44 -4c-46 0 -71 21 -81 52c-32 -31 -78 -58 -143 -58c-33 0 -53 7 -67 19l-40 -225h-99z" />
    <glyph glyph-name="pi" unicode="&#x3c0;" horiz-adv-x="499" 
d="M33 0l65 372h-62l15 84h473l-15 -84h-62l-40 -229c-5 -28 -9 -56 25 -56c6 0 13 1 20 2l-16 -89c-16 -3 -34 -4 -52 -4c-80 0 -92 54 -78 134l42 242h-151l-65 -372h-99z" />
    <glyph glyph-name="degree" unicode="&#xb0;" horiz-adv-x="339" 
d="M92 526c0 82 56 160 150 160c74 0 116 -53 116 -120c0 -81 -57 -158 -154 -158c-71 0 -112 53 -112 118zM152 529c0 -33 19 -63 57 -63c55 0 88 46 88 97c0 34 -20 65 -59 65c-53 0 -86 -48 -86 -99z" />
    <glyph glyph-name="estimated" unicode="&#x212e;" horiz-adv-x="743" 
d="M215 338v-230c49 -49 109 -74 183 -74c105 0 182 45 245 152l45 -27c-78 -121 -157 -171 -290 -171c-199 0 -327 154 -327 350c0 197 128 350 327 350c195 0 327 -145 328 -350h-511zM584 384v184c-54 50 -116 75 -187 75c-73 0 -133 -26 -182 -75v-184h369z" />
    <glyph glyph-name="eng" unicode="&#x14b;" horiz-adv-x="501" 
d="M102 456h95l-9 -48c30 32 79 58 144 58c102 0 144 -56 123 -174l-52 -296c-19 -109 -65 -181 -156 -225l-48 68c62 34 91 73 103 139l52 300c12 65 -4 97 -70 97c-40 0 -82 -20 -106 -44l-59 -331h-98z" />
    <glyph glyph-name="Eng" unicode="&#x14a;" horiz-adv-x="657" 
d="M328 -152c56 27 85 64 97 130l3 14l-199 509l-87 -501h-108l120 676h117l195 -499l88 499h107l-120 -680c-19 -111 -67 -182 -159 -225z" />
    <glyph glyph-name="infinity" unicode="&#x221e;" horiz-adv-x="696" 
d="M657 286c0 -103 -74 -179 -167 -179c-72 0 -117 41 -144 99c-49 -55 -97 -98 -166 -98c-72 0 -128 52 -128 134c0 101 75 177 167 177c75 0 116 -44 146 -103c45 56 96 105 166 105c71 0 126 -54 126 -135zM307 262c-18 39 -47 84 -85 84c-50 0 -91 -44 -91 -100
c0 -39 25 -65 63 -65s83 43 113 81zM578 280c0 39 -23 66 -62 66s-81 -47 -111 -85c20 -41 42 -79 83 -79c52 0 90 41 90 98z" />
    <glyph glyph-name="partialdiff" unicode="&#x2202;" horiz-adv-x="518" 
d="M405 690c52 -57 86 -171 86 -284c0 -200 -76 -417 -277 -417c-122 0 -177 81 -177 183c0 167 89 275 223 275c73 0 118 -39 134 -80c13 122 -36 241 -106 323h117zM223 76c83 0 135 90 150 185c-12 48 -48 93 -105 93c-90 0 -133 -78 -133 -174c0 -55 25 -104 88 -104z
" />
    <glyph glyph-name="integral" unicode="&#x222b;" horiz-adv-x="359" 
d="M174 -77c-15 -88 -62 -149 -167 -149c-17 0 -51 5 -63 10l14 84c17 -2 38 -4 59 -4c38 0 55 22 64 70l109 623c16 87 63 149 167 149c17 0 52 -5 63 -10l-14 -83c-16 1 -37 4 -59 4c-37 0 -55 -24 -63 -71z" />
    <glyph glyph-name="radical" unicode="&#x221a;" horiz-adv-x="591" 
d="M269 -216h-109l-74 327l-73 -33l-19 71l165 72l64 -317l334 792h104z" />
    <glyph glyph-name="summation" unicode="&#x2211;" horiz-adv-x="562" 
d="M446 -217h-485l20 107l303 356l-182 338l17 92h483l-15 -85h-383l187 -352l-313 -371h382z" />
    <glyph glyph-name="product" unicode="&#x220f;" horiz-adv-x="719" 
d="M758 676l-15 -85h-62l-143 -807h-103l143 808h-308l-142 -808h-103l142 807h-63l14 85h640z" />
    <glyph glyph-name="lozenge" unicode="&#x25ca;" horiz-adv-x="580" 
d="M296 0h-93l-156 353l279 343h93l158 -343zM362 598l-206 -256l106 -244l203 266z" />
    <glyph glyph-name="uniF8FF" unicode="&#xf8ff;" horiz-adv-x="589" 
d="M106 656h413v-656h-413v656zM481 39v578h-337v-578h337z" />
    <glyph glyph-name="exclam.sc" horiz-adv-x="228" 
d="M65 168l44 339h110l-76 -339h-78zM75 -4c-31 0 -53 22 -53 48c0 37 30 64 70 64c30 0 53 -23 53 -50c0 -36 -32 -62 -70 -62z" />
    <glyph glyph-name="numbersign.sc" horiz-adv-x="519" 
d="M18 130l27 79h76l32 96h-75l25 79h76l41 123h88l-42 -123h79l40 123h89l-40 -123h77l-26 -79h-77l-33 -96h78l-26 -79h-79l-43 -130h-90l44 130h-76l-44 -130h-90l45 130h-76zM210 209h76l32 96h-76z" />
    <glyph glyph-name="dollar.sc" horiz-adv-x="449" 
d="M288 283c58 -21 107 -61 107 -127c0 -98 -76 -155 -184 -163l-12 -70h-45l12 69c-103 6 -142 56 -156 95l77 52c11 -32 36 -61 93 -66l26 143l-25 9c-64 23 -105 60 -105 123c0 88 63 160 182 166l10 55h45l-10 -55c77 -6 117 -38 135 -74l-75 -52c-13 23 -37 40 -74 45
l-25 -141zM175 362c0 -21 9 -39 47 -55l22 126c-45 -7 -69 -34 -69 -71zM226 73c49 6 73 30 73 69c0 23 -10 41 -51 58z" />
    <glyph glyph-name="percent.sc" horiz-adv-x="673" 
d="M202 512c70 0 103 -43 103 -108c0 -97 -39 -174 -143 -174c-72 0 -104 44 -104 107c0 102 44 175 144 175zM179 0h-75l397 507h76zM166 282c44 0 70 40 70 125c0 34 -11 52 -39 52c-42 0 -69 -37 -69 -124c0 -35 11 -53 38 -53zM521 277c71 0 104 -42 104 -107
c0 -97 -40 -175 -144 -175c-72 0 -104 45 -104 108c0 102 44 174 144 174zM485 48c44 0 71 39 71 125c0 34 -12 52 -39 52c-42 0 -70 -37 -70 -125c0 -34 11 -52 38 -52z" />
    <glyph glyph-name="ampersand.sc" horiz-adv-x="523" 
d="M398 134c-6 -6 -11 -12 -17 -19l85 -109l-2 -6h-98l-44 58c-45 -37 -99 -66 -170 -66c-84 0 -133 43 -133 109c0 78 78 122 138 159l8 5l-7 9c-18 23 -51 63 -51 105c0 74 63 136 169 136c79 0 131 -48 131 -110c0 -59 -48 -100 -120 -147l-11 -7l57 -73c3 3 7 7 10 11
l78 84l60 -50zM225 316l7 -9l14 9c46 29 73 49 73 80c0 26 -17 45 -52 45c-45 0 -73 -27 -73 -61c0 -22 13 -44 31 -64zM164 67c39 0 76 22 111 53l-67 89l-16 -10c-47 -31 -84 -53 -84 -88c0 -26 21 -44 56 -44z" />
    <glyph glyph-name="section.sc" horiz-adv-x="458" 
d="M407 219c0 -50 -31 -83 -65 -104c21 -16 34 -34 34 -69c0 -79 -83 -131 -196 -131c-84 0 -152 27 -176 71l54 53c23 -32 67 -54 129 -54c57 0 85 17 85 45c0 20 -28 33 -57 45l-68 29c-58 24 -95 49 -95 101c0 46 28 82 64 107c-18 16 -34 34 -34 67c0 80 91 136 188 136
c88 0 139 -22 167 -65l-59 -53c-23 32 -66 45 -117 45c-39 0 -76 -17 -76 -45c0 -20 27 -33 60 -46l60 -25c62 -26 102 -54 102 -107zM187 279c-21 -11 -38 -29 -38 -52c0 -27 25 -40 60 -53l64 -26c15 9 38 27 38 49c0 30 -28 46 -64 59z" />
    <glyph glyph-name="paragraph.sc" horiz-adv-x="448" 
d="M289 342l-62 -350h-81l21 120c-90 0 -130 33 -130 91c0 82 50 139 161 139h91zM188 -116c43 26 67 52 75 95l64 363h82l-61 -345c-14 -81 -47 -139 -118 -169z" />
    <glyph glyph-name="parenleft.sc" horiz-adv-x="264" 
d="M92 -167c-38 72 -62 167 -62 257c0 195 69 309 179 438l71 -26c-87 -127 -154 -248 -154 -418c0 -67 14 -152 40 -224z" />
    <glyph glyph-name="slash.sc" horiz-adv-x="312" 
d="M330 498l-246 -498h-95l2 10l244 497h97z" />
    <glyph glyph-name="parenright.sc" horiz-adv-x="263" 
d="M-32 -140c117 166 151 269 151 405c0 73 -16 166 -39 237l74 26c36 -76 62 -165 62 -259c0 -180 -63 -308 -178 -436z" />
    <glyph glyph-name="bracketleft.sc" horiz-adv-x="287" 
d="M302 522l-13 -75h-92l-94 -534h92l-13 -75h-189l120 684h189z" />
    <glyph glyph-name="backslash.sc" horiz-adv-x="311" 
d="M77 507h93l75 -497l-2 -10h-91l-77 498z" />
    <glyph glyph-name="bracketright.sc" horiz-adv-x="288" 
d="M278 522l-120 -684h-188l13 75h92l94 534h-92l14 75h187z" />
    <glyph glyph-name="braceleft.sc" horiz-adv-x="283" 
d="M200 265c-10 -60 -32 -79 -60 -86c25 -11 41 -31 30 -86l-24 -138c-7 -34 5 -46 35 -46l-12 -71c-94 0 -133 32 -119 112l24 133c8 45 -17 61 -62 61l12 67c45 0 75 15 84 65l25 141c14 81 60 101 156 101l-13 -72c-30 0 -45 -7 -51 -42z" />
    <glyph glyph-name="bar.sc" horiz-adv-x="240" 
d="M83 -162v684h58v-684h-58z" />
    <glyph glyph-name="braceright.sc" horiz-adv-x="282" 
d="M65 98c11 61 33 80 61 86c-25 11 -41 31 -30 86l23 131c6 34 -5 46 -35 46l11 71c95 0 134 -32 119 -112l-23 -133c-8 -45 17 -61 62 -61l-12 -67c-46 0 -75 -15 -84 -65l-25 -141c-14 -81 -61 -101 -157 -101l14 72c29 0 45 7 51 42z" />
    <glyph glyph-name="zero.sc" horiz-adv-x="500" 
d="M292 515c104 0 168 -63 168 -189c0 -187 -69 -334 -243 -334c-104 0 -169 64 -169 190c0 189 72 333 244 333zM223 72c87 0 139 86 139 254c0 68 -22 109 -75 109c-87 0 -139 -86 -139 -253c0 -69 22 -110 75 -110z" />
    <glyph glyph-name="one.sc" horiz-adv-x="333" 
d="M128 0l72 407l-139 -50l-13 81l183 69h83l-89 -507h-97z" />
    <glyph glyph-name="two.sc" horiz-adv-x="431" 
d="M259 515c85 0 146 -48 146 -134c0 -85 -57 -140 -132 -206l-111 -98h196l-14 -77h-333l12 66l187 166c60 51 94 91 94 145c0 34 -18 58 -56 58c-48 0 -76 -33 -85 -84h-94c14 96 75 164 190 164z" />
    <glyph glyph-name="three.sc" horiz-adv-x="447" 
d="M311 255c39 -10 73 -47 73 -105c0 -92 -84 -158 -201 -158c-127 0 -169 60 -155 141h94c-7 -38 15 -61 68 -61s95 32 95 83c0 39 -29 65 -86 65h-50l14 77h49c67 0 105 30 105 83c0 33 -23 55 -63 55c-46 0 -76 -25 -82 -60h-95c11 78 70 140 184 140
c92 0 158 -45 158 -126c0 -76 -54 -119 -108 -134z" />
    <glyph glyph-name="four.sc" horiz-adv-x="466" 
d="M406 101h-62l-18 -101h-97l18 101h-238l12 68l293 338h102l-58 -329h61zM261 178l36 194l-166 -194h130z" />
    <glyph glyph-name="five.sc" horiz-adv-x="437" 
d="M385 190c0 -109 -78 -198 -211 -198c-125 0 -166 62 -152 145h94c-7 -40 15 -65 66 -65c72 0 101 52 101 108c0 40 -24 66 -69 66c-32 0 -59 -11 -79 -25l-75 12l81 274h279l-13 -77h-200l-36 -117c16 6 45 14 69 14c79 0 145 -40 145 -137z" />
    <glyph glyph-name="six.sc" horiz-adv-x="471" 
d="M347 375c7 37 -17 60 -63 60c-74 0 -115 -74 -127 -150c20 16 60 40 114 40c89 0 146 -47 146 -136c0 -108 -75 -197 -210 -197c-109 0 -161 77 -161 188c0 185 83 335 245 335c117 0 163 -63 149 -140h-93zM145 200c-9 -77 12 -128 69 -128c65 0 102 45 102 109
c0 40 -23 68 -71 68c-43 0 -80 -27 -100 -49z" />
    <glyph glyph-name="seven.sc" horiz-adv-x="396" 
d="M289 430h-222l14 77h337l-12 -67l-268 -440h-110z" />
    <glyph glyph-name="eight.sc" horiz-adv-x="474" 
d="M202 -8c-109 0 -172 50 -172 130c0 81 65 129 118 141c-39 13 -66 43 -66 96c0 91 76 156 199 156c99 0 162 -46 162 -124c0 -75 -51 -118 -106 -132c41 -15 75 -44 75 -104c0 -104 -86 -163 -210 -163zM273 435c-54 0 -92 -30 -92 -80c0 -37 29 -57 68 -57
c52 0 93 27 93 83c0 33 -26 54 -69 54zM209 72c62 0 104 32 104 87c0 41 -33 62 -78 62c-55 0 -103 -29 -103 -88c0 -38 29 -61 77 -61z" />
    <glyph glyph-name="nine.sc" horiz-adv-x="471" 
d="M132 132c-6 -37 18 -60 63 -60c75 0 116 74 128 150c-21 -16 -60 -40 -114 -40c-89 0 -147 47 -147 136c0 108 76 197 211 197c109 0 160 -77 160 -188c0 -185 -82 -335 -244 -335c-117 0 -163 63 -150 140h93zM335 307c8 77 -12 128 -69 128c-65 0 -103 -45 -103 -109
c0 -40 24 -68 72 -68c42 0 80 27 100 49z" />
    <glyph glyph-name="question.sc" horiz-adv-x="371" 
d="M222 515c90 0 142 -50 142 -120c0 -118 -141 -143 -156 -227h-95c22 119 157 148 157 218c0 27 -18 47 -52 47c-43 0 -64 -24 -68 -50l-88 10c10 63 59 122 160 122zM134 -4c-32 0 -53 22 -53 49c0 36 30 63 69 63c31 0 54 -22 54 -49c0 -37 -32 -63 -70 -63z" />
    <glyph glyph-name="a.sc" 
d="M329 116h-189l-59 -116h-109l271 507h115l93 -507h-104zM179 195h140l-33 211z" />
    <glyph glyph-name="b.sc" horiz-adv-x="491" 
d="M120 507h170c102 0 159 -38 159 -115c0 -75 -45 -115 -93 -128c43 -10 78 -45 78 -104c0 -112 -76 -160 -222 -160h-182zM249 301c75 0 94 33 94 77c0 30 -20 50 -72 50h-66l-22 -127h66zM224 79c84 0 108 36 108 85c0 35 -23 58 -85 58h-78l-26 -143h81z" />
    <glyph glyph-name="c.sc" horiz-adv-x="488" 
d="M152 200c0 -81 34 -126 100 -126c48 0 84 30 109 62l70 -51c-39 -57 -96 -93 -188 -93c-122 0 -196 69 -196 204c0 187 90 319 271 319c91 0 147 -40 169 -96l-80 -45c-14 32 -45 59 -92 59c-116 0 -163 -106 -163 -233z" />
    <glyph glyph-name="d.sc" horiz-adv-x="540" 
d="M120 507h155c145 0 226 -62 226 -196c0 -210 -93 -311 -302 -311h-169zM200 79c127 0 198 57 198 230c0 83 -42 119 -136 119h-57l-62 -349h57z" />
    <glyph glyph-name="e.sc" horiz-adv-x="453" 
d="M382 79l-14 -79h-338l90 507h334l-14 -79h-234l-24 -133h203l-14 -80h-203l-24 -136h238z" />
    <glyph glyph-name="f.sc" horiz-adv-x="435" 
d="M120 507h322l-13 -79h-223l-26 -146h188l-14 -80h-188l-36 -202h-100z" />
    <glyph glyph-name="g.sc" horiz-adv-x="531" 
d="M289 276h208c-1 -17 -4 -46 -5 -54c-20 -136 -97 -230 -245 -230c-130 0 -200 75 -200 206c0 202 108 317 281 317c84 0 145 -34 170 -92l-80 -46c-18 36 -46 56 -100 56c-97 0 -169 -80 -169 -238c0 -83 35 -121 104 -121c80 0 123 57 133 122h-111z" />
    <glyph glyph-name="h.sc" horiz-adv-x="560" 
d="M440 507h99l-89 -507h-100l40 223h-221l-39 -223h-100l90 507h99l-36 -205h221z" />
    <glyph glyph-name="i.sc" horiz-adv-x="240" 
d="M120 507h99l-89 -507h-100z" />
    <glyph glyph-name="j.sc" horiz-adv-x="401" 
d="M73 120c9 -27 27 -46 64 -46c51 0 83 29 95 100l58 333h95l-61 -341c-21 -121 -85 -174 -193 -174c-78 0 -123 33 -138 82z" />
    <glyph glyph-name="k.sc" horiz-adv-x="508" 
d="M158 157l-28 -157h-100l90 507h99l-37 -217l232 217h128l-226 -213l131 -294h-107l-99 230z" />
    <glyph glyph-name="l.sc" horiz-adv-x="395" 
d="M351 79l-14 -79h-307l90 507h99l-75 -428h207z" />
    <glyph glyph-name="m.sc" horiz-adv-x="689" 
d="M502 507h135l-34 -507h-93l31 393l-182 -393h-109l-39 389l-113 -389h-95l152 507h130l38 -387z" />
    <glyph glyph-name="n.sc" horiz-adv-x="558" 
d="M439 507h99l-90 -507h-101l-156 350l-60 -350h-102l91 507h104l154 -345z" />
    <glyph glyph-name="o.sc" horiz-adv-x="541" 
d="M504 315c0 -190 -87 -323 -269 -323c-132 0 -188 87 -188 200c0 168 70 323 269 323c130 0 188 -86 188 -200zM149 190c0 -67 24 -116 94 -116c94 0 158 78 158 239c0 68 -25 120 -93 120c-105 0 -159 -97 -159 -243z" />
    <glyph glyph-name="p.sc" horiz-adv-x="475" 
d="M163 186l-33 -186h-100l90 507h175c107 0 167 -49 167 -136c0 -118 -74 -185 -214 -185h-85zM176 265h75c78 0 107 41 107 99c0 39 -22 64 -78 64h-75z" />
    <glyph glyph-name="q.sc" horiz-adv-x="537" 
d="M509 315c0 -90 -20 -167 -60 -224l39 -41l-64 -58l-36 40c-39 -26 -89 -40 -148 -40c-132 0 -188 87 -188 200c0 168 70 323 269 323c131 0 188 -86 188 -200zM248 74c30 0 57 8 80 24l-99 109l60 56l92 -98c17 37 26 87 26 148c0 68 -25 120 -94 120
c-105 0 -159 -97 -159 -243c0 -67 25 -116 94 -116z" />
    <glyph glyph-name="r.sc" horiz-adv-x="498" 
d="M120 507h188c109 0 171 -44 171 -127c0 -97 -56 -152 -149 -166l94 -214h-106l-84 207h-68l-36 -207h-100zM375 372c0 34 -23 56 -84 56h-86l-25 -141h86c78 0 109 29 109 85z" />
    <glyph glyph-name="s.sc" horiz-adv-x="447" 
d="M362 388c-15 28 -45 45 -92 45c-58 0 -90 -33 -90 -76c0 -23 12 -42 57 -58l51 -17c58 -21 105 -60 105 -126c0 -106 -89 -164 -210 -164c-116 0 -160 54 -174 95l77 52c12 -35 33 -65 102 -65c66 0 99 28 99 74c0 25 -15 42 -64 61l-46 18c-64 23 -102 58 -102 121
c0 93 70 167 201 167c93 0 140 -35 161 -75z" />
    <glyph glyph-name="t.sc" horiz-adv-x="440" 
d="M458 507l-14 -79h-139l-76 -428h-100l76 428h-140l13 79h380z" />
    <glyph glyph-name="u.sc" horiz-adv-x="530" 
d="M231 -7c-121 0 -196 59 -172 200l55 314h100l-55 -312c-14 -82 9 -120 79 -120s108 39 122 120l55 312h100l-56 -314c-25 -141 -107 -200 -228 -200z" />
    <glyph glyph-name="v.sc" horiz-adv-x="491" 
d="M523 507l-254 -507h-128l-75 507h99l54 -407l195 407h109z" />
    <glyph glyph-name="w.sc" horiz-adv-x="778" 
d="M491 507l36 -399l169 399h106l-225 -507h-122l-40 375l-172 -375h-120l-48 507h98l29 -399l176 399h113z" />
    <glyph glyph-name="x.sc" horiz-adv-x="484" 
d="M182 507l72 -182l139 182h116l-195 -246l110 -261h-107l-76 192l-143 -192h-117l202 261l-109 246h108z" />
    <glyph glyph-name="y.sc" horiz-adv-x="476" 
d="M148 0l35 197l-121 310h104l79 -222l153 222h116l-231 -310l-35 -197h-100z" />
    <glyph glyph-name="z.sc" horiz-adv-x="428" 
d="M419 437l-286 -358h231l-14 -79h-352l11 69l288 359h-212l13 79h334z" />
    <glyph glyph-name="agrave.sc" 
d="M313 726l43 -159h-80l-55 159h92zM329 116h-189l-59 -116h-109l271 507h115l93 -507h-104zM179 195h140l-33 211z" />
    <glyph glyph-name="aacute.sc" 
d="M466 726l-110 -159h-87l98 159h99zM329 116h-189l-59 -116h-109l271 507h115l93 -507h-104zM179 195h140l-33 211z" />
    <glyph glyph-name="acircumflex.sc" 
d="M389 726l68 -160h-87l-39 96l-73 -96h-91l124 160h98zM329 116h-189l-59 -116h-109l271 507h115l93 -507h-104zM179 195h140l-33 211z" />
    <glyph glyph-name="atilde.sc" 
d="M446 598c-17 15 -39 26 -62 26c-46 0 -90 -40 -148 -40c-29 0 -52 12 -62 23l17 74c13 -16 30 -24 58 -24c46 0 82 39 148 39c33 0 51 -12 66 -23zM329 116h-189l-59 -116h-109l271 507h115l93 -507h-104zM179 195h140l-33 211z" />
    <glyph glyph-name="adieresis.sc" 
d="M228 579c-31 0 -54 16 -54 49c0 50 30 71 70 71c27 0 53 -17 53 -51c0 -51 -35 -69 -69 -69zM407 579c-31 0 -53 16 -53 49c0 50 29 71 70 71c27 0 52 -17 52 -51c0 -51 -34 -69 -69 -69zM329 116h-189l-59 -116h-109l271 507h115l93 -507h-104zM179 195h140l-33 211z
" />
    <glyph glyph-name="amacron.sc" 
d="M468 669l-14 -78h-275l14 78h275zM329 116h-189l-59 -116h-109l271 507h115l93 -507h-104zM179 195h140l-33 211z" />
    <glyph glyph-name="abreve.sc" 
d="M476 705c-15 -81 -69 -144 -164 -144c-89 0 -129 63 -114 144h64c-3 -41 20 -72 60 -72c43 0 75 31 88 72h66zM329 116h-189l-59 -116h-109l271 507h115l93 -507h-104zM179 195h140l-33 211z" />
    <glyph glyph-name="aring.sc" 
d="M224 636c0 59 42 111 116 111c60 0 91 -40 91 -84c0 -58 -44 -111 -120 -111c-57 0 -87 42 -87 84zM282 642c0 -20 12 -36 36 -36c33 0 53 24 53 51c0 20 -12 37 -38 37c-31 0 -51 -25 -51 -52zM329 116h-189l-59 -116h-109l271 507h115l93 -507h-104zM179 195h140
l-33 211z" />
    <glyph glyph-name="aringacute.sc" 
d="M214 637c0 49 32 92 85 104l65 82h97l-79 -89c24 -13 38 -42 38 -72c0 -59 -47 -109 -118 -109c-60 0 -88 42 -88 84zM270 641c0 -20 13 -37 37 -37c35 0 54 25 54 54c0 21 -12 37 -38 37c-32 0 -53 -25 -53 -54zM329 116h-189l-59 -116h-109l271 507h115l93 -507h-104z
M179 195h140l-33 211z" />
    <glyph glyph-name="aogonek.sc" horiz-adv-x="503" 
d="M335 -110c0 -14 8 -27 30 -27c19 0 44 11 66 26l-14 -83c-25 -12 -52 -22 -91 -22c-59 0 -96 32 -96 80c0 46 26 75 76 113l40 31l-17 108h-189l-59 -116h-109l271 507h115l93 -507l-77 -54c-25 -19 -39 -35 -39 -56zM179 195h140l-33 211z" />
    <glyph glyph-name="ae.sc" horiz-adv-x="782" 
d="M711 79l-14 -79h-338l20 116h-178l-100 -116h-129l444 507h367l-13 -79h-235l-24 -133h203l-14 -80h-203l-24 -136h238zM393 195l33 187l-162 -187h129z" />
    <glyph glyph-name="aeacute.sc" horiz-adv-x="782" 
d="M723 726l-111 -159h-87l98 159h100zM711 79l-14 -79h-338l20 116h-178l-100 -116h-129l444 507h367l-13 -79h-235l-24 -133h203l-14 -80h-203l-24 -136h238zM393 195l33 187l-162 -187h129z" />
    <glyph glyph-name="cacute.sc" horiz-adv-x="488" 
d="M475 734l-110 -159h-88l98 159h100zM152 200c0 -81 34 -126 100 -126c48 0 84 30 109 62l70 -51c-39 -57 -96 -93 -188 -93c-122 0 -196 69 -196 204c0 187 90 319 271 319c91 0 147 -40 169 -96l-80 -45c-14 32 -45 59 -92 59c-116 0 -163 -106 -163 -233z" />
    <glyph glyph-name="ccircumflex.sc" horiz-adv-x="485" 
d="M410 726l68 -160h-87l-39 96l-73 -96h-92l124 160h99zM157 200c0 -81 35 -126 100 -126c48 0 85 30 109 62l70 -51c-39 -57 -96 -93 -188 -93c-121 0 -196 69 -196 204c0 187 91 319 272 319c90 0 146 -40 168 -96l-80 -45c-13 32 -44 59 -92 59
c-116 0 -163 -106 -163 -233z" />
    <glyph glyph-name="ccaron.sc" horiz-adv-x="485" 
d="M284 566l-68 160h87l39 -96l73 96h92l-124 -160h-99zM157 200c0 -81 35 -126 100 -126c48 0 85 30 109 62l70 -51c-39 -57 -96 -93 -188 -93c-121 0 -196 69 -196 204c0 187 91 319 272 319c90 0 146 -40 168 -96l-80 -45c-13 32 -44 59 -92 59
c-116 0 -163 -106 -163 -233z" />
    <glyph glyph-name="cdotaccent.sc" horiz-adv-x="485" 
d="M333 579c-30 0 -53 16 -53 49c0 50 30 71 70 71c27 0 52 -17 52 -51c0 -51 -34 -69 -69 -69zM152 200c0 -81 34 -126 100 -126c48 0 84 30 109 62l70 -51c-39 -57 -96 -93 -188 -93c-122 0 -196 69 -196 204c0 187 90 319 271 319c91 0 147 -40 169 -96l-80 -45
c-14 32 -45 59 -92 59c-116 0 -163 -106 -163 -233z" />
    <glyph glyph-name="ccedilla.sc" horiz-adv-x="484" 
d="M257 74c48 0 85 30 109 62l70 -51c-35 -51 -85 -86 -162 -92l-25 -45c43 0 74 -20 74 -66c0 -62 -47 -98 -118 -98c-36 0 -66 10 -88 23l12 63c19 -17 48 -27 76 -27c25 0 39 12 39 30s-15 24 -41 24h-38l-4 7l48 91c-98 13 -157 81 -157 201c0 187 91 319 272 319
c90 0 146 -40 168 -96l-80 -45c-13 32 -44 59 -92 59c-116 0 -163 -106 -163 -233c0 -81 35 -126 100 -126z" />
    <glyph glyph-name="dcaron.sc" horiz-adv-x="540" 
d="M261 566l-68 160h87l40 -96l73 96h92l-125 -160h-99zM120 507h155c145 0 226 -62 226 -196c0 -210 -93 -311 -302 -311h-169zM200 79c127 0 198 57 198 230c0 83 -42 119 -136 119h-57l-62 -349h57z" />
    <glyph glyph-name="dcroat.sc" horiz-adv-x="546" 
d="M290 507c145 0 226 -62 226 -196c0 -210 -93 -311 -302 -311h-169l40 225h-64l13 67h63l38 215h155zM215 79c127 0 198 57 198 230c0 83 -42 119 -136 119h-57l-24 -136h84l-13 -67h-83l-26 -146h57z" />
    <glyph glyph-name="eth.sc" horiz-adv-x="546" 
d="M290 507c145 0 226 -62 226 -196c0 -210 -93 -311 -302 -311h-169l40 225h-64l13 67h63l38 215h155zM215 79c127 0 198 57 198 230c0 83 -42 119 -136 119h-57l-24 -136h84l-13 -67h-83l-26 -146h57z" />
    <glyph glyph-name="egrave.sc" horiz-adv-x="453" 
d="M300 726l43 -159h-80l-55 159h92zM382 79l-14 -79h-338l90 507h334l-14 -79h-234l-24 -133h203l-14 -80h-203l-24 -136h238z" />
    <glyph glyph-name="eacute.sc" horiz-adv-x="449" 
d="M453 726l-110 -159h-87l98 159h99zM387 79l-14 -79h-338l90 507h334l-13 -79h-235l-23 -133h202l-14 -80h-203l-24 -136h238z" />
    <glyph glyph-name="ecircumflex.sc" horiz-adv-x="449" 
d="M379 726l68 -160h-87l-39 96l-73 -96h-92l124 160h99zM387 79l-14 -79h-338l90 507h334l-13 -79h-235l-23 -133h202l-14 -80h-203l-24 -136h238z" />
    <glyph glyph-name="ecaron.sc" horiz-adv-x="449" 
d="M252 566l-67 160h86l40 -96l73 96h92l-125 -160h-99zM387 79l-14 -79h-338l90 507h334l-13 -79h-235l-23 -133h202l-14 -80h-203l-24 -136h238z" />
    <glyph glyph-name="edieresis.sc" horiz-adv-x="449" 
d="M217 579c-31 0 -54 16 -54 49c0 50 30 71 70 71c27 0 53 -17 53 -51c0 -51 -35 -69 -69 -69zM396 579c-31 0 -53 16 -53 49c0 50 29 71 70 71c27 0 52 -17 52 -51c0 -51 -34 -69 -69 -69zM387 79l-14 -79h-338l90 507h334l-13 -79h-235l-23 -133h202l-14 -80h-203
l-24 -136h238z" />
    <glyph glyph-name="emacron.sc" horiz-adv-x="449" 
d="M457 669l-14 -78h-274l14 78h274zM387 79l-14 -79h-338l90 507h334l-13 -79h-235l-23 -133h202l-14 -80h-203l-24 -136h238z" />
    <glyph glyph-name="ebreve.sc" horiz-adv-x="449" 
d="M465 705c-15 -81 -69 -144 -164 -144c-89 0 -129 63 -114 144h64c-3 -41 20 -72 60 -72c43 0 75 31 88 72h66zM387 79l-14 -79h-338l90 507h334l-13 -79h-235l-23 -133h202l-14 -80h-203l-24 -136h238z" />
    <glyph glyph-name="edotaccent.sc" horiz-adv-x="449" 
d="M302 579c-31 0 -54 16 -54 49c0 50 30 71 70 71c27 0 53 -17 53 -51c0 -51 -35 -69 -69 -69zM382 79l-14 -79h-338l90 507h334l-14 -79h-234l-24 -133h203l-14 -80h-203l-24 -136h238z" />
    <glyph glyph-name="eogonek.sc" horiz-adv-x="447" 
d="M445 428h-235l-23 -133h202l-14 -80h-203l-24 -136h238l-14 -79l-76 -54c-26 -19 -40 -35 -40 -56c0 -14 8 -27 31 -27c18 0 43 11 66 26l-14 -83c-26 -12 -53 -22 -91 -22c-60 0 -97 32 -97 80c0 46 26 75 76 113l29 23h-222l90 507h334z" />
    <glyph glyph-name="gcircumflex.sc" horiz-adv-x="531" 
d="M411 726l68 -160h-87l-39 96l-73 -96h-92l124 160h99zM289 276h208c-1 -17 -4 -46 -5 -54c-20 -136 -97 -230 -245 -230c-130 0 -200 75 -200 206c0 202 108 317 281 317c84 0 145 -34 170 -92l-80 -46c-18 36 -46 56 -100 56c-97 0 -169 -80 -169 -238
c0 -83 35 -121 104 -121c80 0 123 57 133 122h-111z" />
    <glyph glyph-name="gbreve.sc" horiz-adv-x="527" 
d="M505 705c-15 -81 -70 -144 -165 -144c-88 0 -128 63 -114 144h65c-3 -41 20 -72 60 -72c43 0 75 31 87 72h67zM294 276h208c-1 -17 -3 -46 -5 -54c-20 -136 -97 -230 -244 -230c-131 0 -201 75 -201 206c0 202 108 317 281 317c84 0 146 -34 170 -92l-80 -46
c-18 36 -46 56 -100 56c-97 0 -168 -80 -168 -238c0 -83 34 -121 104 -121c79 0 122 57 132 122h-111z" />
    <glyph glyph-name="gdotaccent.sc" horiz-adv-x="527" 
d="M340 579c-30 0 -53 16 -53 49c0 50 30 71 70 71c27 0 53 -17 53 -51c0 -51 -35 -69 -70 -69zM289 276h208c-1 -17 -4 -46 -5 -54c-20 -136 -97 -230 -245 -230c-130 0 -200 75 -200 206c0 202 108 317 281 317c84 0 145 -34 170 -92l-80 -46c-18 36 -46 56 -100 56
c-97 0 -169 -80 -169 -238c0 -83 35 -121 104 -121c80 0 123 57 133 122h-111z" />
    <glyph glyph-name="uni0123.sc" horiz-adv-x="527" 
d="M294 276h208c-1 -17 -3 -46 -5 -54c-20 -136 -97 -230 -244 -230c-131 0 -201 75 -201 206c0 202 108 317 281 317c84 0 146 -34 170 -92l-80 -46c-18 36 -46 56 -100 56c-97 0 -168 -80 -168 -238c0 -83 34 -121 104 -121c79 0 122 57 132 122h-111zM205 -216h-76
l51 151h109z" />
    <glyph glyph-name="hcircumflex.sc" horiz-adv-x="560" 
d="M417 726l68 -160h-87l-39 96l-73 -96h-91l124 160h98zM440 507h99l-89 -507h-100l40 223h-221l-39 -223h-100l90 507h99l-36 -205h221z" />
    <glyph glyph-name="hbar.sc" horiz-adv-x="562" 
d="M108 436l13 71h99l-13 -71h222l13 71h98l-12 -71h36l-12 -67h-36l-65 -369h-99l39 223h-221l-39 -223h-100l65 369h-35l12 67h35zM417 369h-222l-12 -67h223z" />
    <glyph glyph-name="igrave.sc" horiz-adv-x="240" 
d="M181 726l43 -159h-80l-55 159h92zM120 507h99l-89 -507h-100z" />
    <glyph glyph-name="iacute.sc" horiz-adv-x="240" 
d="M344 726l-111 -159h-87l98 159h100zM129 507h99l-89 -507h-100z" />
    <glyph glyph-name="ibreve.sc" horiz-adv-x="240" 
d="M353 705c-15 -81 -69 -144 -164 -144c-89 0 -129 63 -114 144h64c-3 -41 20 -72 60 -72c43 0 75 31 88 72h66zM129 507h99l-89 -507h-100z" />
    <glyph glyph-name="icircumflex.sc" horiz-adv-x="240" 
d="M266 726l68 -160h-87l-39 96l-73 -96h-91l124 160h98zM129 507h99l-89 -507h-100z" />
    <glyph glyph-name="itilde.sc" horiz-adv-x="240" 
d="M329 598c-17 15 -39 26 -62 26c-45 0 -90 -40 -148 -40c-29 0 -52 12 -62 23l17 74c13 -16 30 -24 58 -24c46 0 82 39 148 39c33 0 51 -12 66 -23zM129 507h99l-89 -507h-100z" />
    <glyph glyph-name="idieresis.sc" horiz-adv-x="240" 
d="M104 579c-31 0 -54 16 -54 49c0 50 30 71 70 71c27 0 53 -17 53 -51c0 -51 -34 -69 -69 -69zM283 579c-30 0 -53 16 -53 49c0 50 30 71 70 71c27 0 52 -17 52 -51c0 -51 -34 -69 -69 -69zM129 507h99l-89 -507h-100z" />
    <glyph glyph-name="imacron.sc" horiz-adv-x="240" 
d="M344 669l-14 -78h-274l14 78h274zM129 507h99l-89 -507h-100z" />
    <glyph glyph-name="i.sc.loclTRK" horiz-adv-x="240" 
d="M185 579c-31 0 -54 16 -54 49c0 50 30 71 70 71c27 0 53 -17 53 -51c0 -51 -35 -69 -69 -69zM120 507h99l-89 -507h-100z" />
    <glyph glyph-name="iogonek.sc" horiz-adv-x="236" 
d="M59 -54c-26 -19 -40 -35 -40 -56c0 -14 8 -27 31 -27c18 0 43 11 66 26l-14 -83c-26 -12 -53 -22 -91 -22c-60 0 -97 32 -97 80c0 46 26 75 76 113l48 37l87 493h99l-89 -507z" />
    <glyph glyph-name="jcircumflex.sc" horiz-adv-x="401" 
d="M421 726l68 -160h-87l-39 96l-73 -96h-92l124 160h99zM73 120c9 -27 27 -46 64 -46c51 0 83 29 95 100l58 333h95l-61 -341c-21 -121 -85 -174 -193 -174c-78 0 -123 33 -138 82z" />
    <glyph glyph-name="uni0137.sc" horiz-adv-x="508" 
d="M158 157l-28 -157h-100l90 507h99l-37 -217l232 217h128l-226 -213l131 -294h-107l-99 230zM171 -216h-76l51 151h108z" />
    <glyph glyph-name="lacute.sc" horiz-adv-x="395" 
d="M320 726l-110 -159h-88l98 159h100zM351 79l-14 -79h-307l90 507h99l-75 -428h207z" />
    <glyph glyph-name="lcaron.sc" horiz-adv-x="395" 
d="M351 79l-14 -79h-307l90 507h99l-75 -428h207zM371 345h-73l52 162h105z" />
    <glyph glyph-name="uni013C.sc" horiz-adv-x="391" 
d="M356 79l-14 -79h-307l90 507h100l-76 -428h207zM141 -216h-76l51 151h109z" />
    <glyph glyph-name="lslash.sc" horiz-adv-x="401" 
d="M357 79l-14 -79h-307l34 187l-56 -23l14 79l56 23l42 241h99l-34 -197l71 30l-14 -79l-71 -30l-27 -152h207z" />
    <glyph glyph-name="ldot.sc" horiz-adv-x="434" 
d="M351 79l-14 -79h-307l90 507h99l-75 -428h207zM331 230c-31 0 -53 17 -53 49c0 51 30 72 70 72c27 0 52 -18 52 -51c0 -52 -34 -70 -69 -70z" />
    <glyph glyph-name="nacute.sc" horiz-adv-x="558" 
d="M481 726l-110 -159h-88l98 159h100zM439 507h99l-90 -507h-101l-156 350l-60 -350h-102l91 507h104l154 -345z" />
    <glyph glyph-name="ncaron.sc" horiz-adv-x="558" 
d="M290 566l-68 160h86l40 -96l73 96h92l-125 -160h-98zM439 507h99l-90 -507h-101l-156 350l-60 -350h-102l91 507h104l154 -345z" />
    <glyph glyph-name="ntilde.sc" horiz-adv-x="558" 
d="M480 598c-18 15 -39 26 -63 26c-45 0 -89 -40 -147 -40c-29 0 -52 12 -62 23l17 74c12 -16 30 -24 57 -24c46 0 82 39 148 39c34 0 52 -12 66 -23zM439 507h99l-90 -507h-101l-156 350l-60 -350h-102l91 507h104l154 -345z" />
    <glyph glyph-name="uni0146.sc" horiz-adv-x="558" 
d="M439 507h99l-90 -507h-101l-156 350l-60 -350h-102l91 507h104l154 -345zM201 -216h-76l51 151h109z" />
    <glyph glyph-name="ograve.sc" horiz-adv-x="541" 
d="M334 726l43 -159h-80l-55 159h92zM504 315c0 -190 -87 -323 -269 -323c-132 0 -188 87 -188 200c0 168 70 323 269 323c130 0 188 -86 188 -200zM149 190c0 -67 24 -116 94 -116c94 0 158 78 158 239c0 68 -25 120 -93 120c-105 0 -159 -97 -159 -243z" />
    <glyph glyph-name="oacute.sc" horiz-adv-x="541" 
d="M483 726l-110 -159h-88l98 159h100zM504 315c0 -190 -87 -323 -269 -323c-132 0 -188 87 -188 200c0 168 70 323 269 323c130 0 188 -86 188 -200zM149 190c0 -67 24 -116 94 -116c94 0 158 78 158 239c0 68 -25 120 -93 120c-105 0 -159 -97 -159 -243z" />
    <glyph glyph-name="ocircumflex.sc" horiz-adv-x="541" 
d="M408 726l68 -160h-87l-39 96l-73 -96h-92l124 160h99zM504 315c0 -190 -87 -323 -269 -323c-132 0 -188 87 -188 200c0 168 70 323 269 323c130 0 188 -86 188 -200zM149 190c0 -67 24 -116 94 -116c94 0 158 78 158 239c0 68 -25 120 -93 120c-105 0 -159 -97 -159 -243
z" />
    <glyph glyph-name="otilde.sc" horiz-adv-x="541" 
d="M471 598c-17 15 -39 26 -62 26c-46 0 -90 -40 -148 -40c-29 0 -52 12 -62 23l17 74c13 -16 30 -24 58 -24c46 0 82 39 148 39c33 0 51 -12 66 -23zM504 315c0 -190 -87 -323 -269 -323c-132 0 -188 87 -188 200c0 168 70 323 269 323c130 0 188 -86 188 -200zM149 190
c0 -67 24 -116 94 -116c94 0 158 78 158 239c0 68 -25 120 -93 120c-105 0 -159 -97 -159 -243z" />
    <glyph glyph-name="odieresis.sc" horiz-adv-x="541" 
d="M246 579c-31 0 -54 16 -54 49c0 50 30 71 70 71c27 0 53 -17 53 -51c0 -51 -35 -69 -69 -69zM425 579c-31 0 -53 16 -53 49c0 50 30 71 70 71c27 0 52 -17 52 -51c0 -51 -34 -69 -69 -69zM504 315c0 -190 -87 -323 -269 -323c-132 0 -188 87 -188 200
c0 168 70 323 269 323c130 0 188 -86 188 -200zM149 190c0 -67 24 -116 94 -116c94 0 158 78 158 239c0 68 -25 120 -93 120c-105 0 -159 -97 -159 -243z" />
    <glyph glyph-name="omacron.sc" horiz-adv-x="541" 
d="M486 669l-14 -78h-274l14 78h274zM504 315c0 -190 -87 -323 -269 -323c-132 0 -188 87 -188 200c0 168 70 323 269 323c130 0 188 -86 188 -200zM149 190c0 -67 24 -116 94 -116c94 0 158 78 158 239c0 68 -25 120 -93 120c-105 0 -159 -97 -159 -243z" />
    <glyph glyph-name="obreve.sc" horiz-adv-x="541" 
d="M494 705c-14 -81 -69 -144 -164 -144c-88 0 -129 63 -114 144h64c-3 -41 20 -72 60 -72c43 0 75 31 88 72h66zM504 315c0 -190 -87 -323 -269 -323c-132 0 -188 87 -188 200c0 168 70 323 269 323c130 0 188 -86 188 -200zM149 190c0 -67 24 -116 94 -116
c94 0 158 78 158 239c0 68 -25 120 -93 120c-105 0 -159 -97 -159 -243z" />
    <glyph glyph-name="ohungarumlaut.sc" horiz-adv-x="541" 
d="M403 726l-111 -159h-87l99 159h99zM560 726l-110 -159h-88l100 159h98zM504 315c0 -190 -87 -323 -269 -323c-132 0 -188 87 -188 200c0 168 70 323 269 323c130 0 188 -86 188 -200zM149 190c0 -67 24 -116 94 -116c94 0 158 78 158 239c0 68 -25 120 -93 120
c-105 0 -159 -97 -159 -243z" />
    <glyph glyph-name="oslash.sc" horiz-adv-x="541" 
d="M542 507l-66 -73c19 -33 28 -74 28 -119c0 -190 -87 -323 -269 -323c-53 0 -94 14 -124 38l-27 -30h-79l68 76c-18 32 -26 72 -26 116c0 168 70 323 269 323c51 0 90 -13 120 -36l25 28h81zM149 190c0 -10 1 -19 2 -28l221 246c-15 16 -35 25 -64 25
c-105 0 -159 -97 -159 -243zM401 313c0 12 -1 24 -3 35l-223 -247c15 -17 37 -27 68 -27c94 0 158 78 158 239z" />
    <glyph glyph-name="oslashacute.sc" horiz-adv-x="541" 
d="M481 726l-110 -159h-88l98 159h100zM542 507l-66 -73c19 -33 28 -74 28 -119c0 -190 -87 -323 -269 -323c-53 0 -94 14 -124 38l-27 -30h-79l68 76c-18 32 -26 72 -26 116c0 168 70 323 269 323c51 0 90 -13 120 -36l25 28h81zM149 190c0 -10 1 -19 2 -28l221 246
c-15 16 -35 25 -64 25c-105 0 -159 -97 -159 -243zM401 313c0 12 -1 24 -3 35l-223 -247c15 -17 37 -27 68 -27c94 0 158 78 158 239z" />
    <glyph glyph-name="oe.sc" horiz-adv-x="710" 
d="M639 79l-14 -79h-319c-21 -5 -44 -8 -72 -8c-136 0 -187 90 -187 199c0 172 73 324 269 324c25 0 52 -3 74 -8h322l-14 -79h-235l-23 -133h203l-15 -80h-202l-24 -136h237zM243 74c24 0 43 5 59 12l59 335c-14 7 -31 12 -53 12c-104 0 -159 -93 -159 -243
c0 -65 24 -116 94 -116z" />
    <glyph glyph-name="racute.sc" horiz-adv-x="498" 
d="M443 726l-110 -159h-88l98 159h100zM120 507h188c109 0 171 -44 171 -127c0 -97 -56 -152 -149 -166l94 -214h-106l-84 207h-68l-36 -207h-100zM375 372c0 34 -23 56 -84 56h-86l-25 -141h86c78 0 109 29 109 85z" />
    <glyph glyph-name="rcaron.sc" horiz-adv-x="498" 
d="M241 566l-68 160h87l39 -96l73 96h92l-125 -160h-98zM120 507h188c109 0 171 -44 171 -127c0 -97 -56 -152 -149 -166l94 -214h-106l-84 207h-68l-36 -207h-100zM375 372c0 34 -23 56 -84 56h-86l-25 -141h86c78 0 109 29 109 85z" />
    <glyph glyph-name="uni0157.sc" horiz-adv-x="498" 
d="M120 507h188c109 0 171 -44 171 -127c0 -97 -56 -152 -149 -166l94 -214h-106l-84 207h-68l-36 -207h-100zM375 372c0 34 -23 56 -84 56h-86l-25 -141h86c78 0 109 29 109 85zM161 -216h-76l51 151h109z" />
    <glyph glyph-name="sacute.sc" horiz-adv-x="447" 
d="M441 726l-110 -159h-88l98 159h100zM362 388c-15 28 -45 45 -92 45c-58 0 -90 -33 -90 -76c0 -23 12 -42 57 -58l51 -17c58 -21 105 -60 105 -126c0 -106 -89 -164 -210 -164c-116 0 -160 54 -174 95l77 52c12 -35 33 -65 102 -65c66 0 99 28 99 74c0 25 -15 42 -64 61
l-46 18c-64 23 -102 58 -102 121c0 93 70 167 201 167c93 0 140 -35 161 -75z" />
    <glyph glyph-name="scircumflex.sc" horiz-adv-x="447" 
d="M362 726l68 -160h-87l-39 96l-73 -96h-92l124 160h99zM362 388c-15 28 -45 45 -92 45c-58 0 -90 -33 -90 -76c0 -23 12 -42 57 -58l51 -17c58 -21 105 -60 105 -126c0 -106 -89 -164 -210 -164c-116 0 -160 54 -174 95l77 52c12 -35 33 -65 102 -65c66 0 99 28 99 74
c0 25 -15 42 -64 61l-46 18c-64 23 -102 58 -102 121c0 93 70 167 201 167c93 0 140 -35 161 -75z" />
    <glyph glyph-name="scaron.sc" horiz-adv-x="447" 
d="M235 566l-68 160h87l39 -96l73 96h92l-124 -160h-99zM362 388c-15 28 -45 45 -92 45c-58 0 -90 -33 -90 -76c0 -23 12 -42 57 -58l51 -17c58 -21 105 -60 105 -126c0 -106 -89 -164 -210 -164c-116 0 -160 54 -174 95l77 52c12 -35 33 -65 102 -65c66 0 99 28 99 74
c0 25 -15 42 -64 61l-46 18c-64 23 -102 58 -102 121c0 93 70 167 201 167c93 0 140 -35 161 -75z" />
    <glyph glyph-name="scedilla.sc" horiz-adv-x="447" 
d="M288 282c58 -21 105 -60 105 -126c0 -96 -72 -152 -176 -162l-25 -46c43 0 74 -20 74 -66c0 -62 -47 -98 -118 -98c-36 0 -66 10 -88 23l12 63c19 -17 48 -27 75 -27c26 0 40 12 40 30s-15 24 -41 24h-39l-4 7l48 89c-92 9 -129 57 -142 94l77 52c12 -35 33 -65 102 -65
c66 0 99 28 99 74c0 25 -15 42 -64 61l-46 18c-64 23 -102 58 -102 121c0 93 70 167 201 167c93 0 140 -35 161 -75l-75 -52c-15 28 -45 45 -92 45c-58 0 -90 -33 -90 -76c0 -23 12 -42 57 -58z" />
    <glyph glyph-name="uni0219.sc" horiz-adv-x="447" 
d="M362 388c-15 28 -45 45 -92 45c-58 0 -90 -33 -90 -76c0 -23 12 -42 57 -58l51 -17c58 -21 105 -60 105 -126c0 -106 -89 -164 -210 -164c-116 0 -160 54 -174 95l77 52c12 -35 33 -65 102 -65c66 0 99 28 99 74c0 25 -15 42 -64 61l-46 18c-64 23 -102 58 -102 121
c0 93 70 167 201 167c93 0 140 -35 161 -75zM153 -216h-76l51 151h108z" />
    <glyph glyph-name="tcaron.sc" horiz-adv-x="440" 
d="M230 566l-68 160h86l40 -96l73 96h92l-125 -160h-98zM458 507l-14 -79h-139l-76 -428h-100l76 428h-140l13 79h380z" />
    <glyph glyph-name="uni021B.sc" horiz-adv-x="440" 
d="M458 507l-14 -79h-139l-76 -428h-100l76 428h-140l13 79h380zM137 -216h-76l51 151h109z" />
    <glyph glyph-name="tbar.sc" horiz-adv-x="440" 
d="M178 276l27 152h-140l13 79h380l-14 -79h-139l-28 -152h74l-12 -67h-73l-37 -209h-100l37 209h-73l12 67h73z" />
    <glyph glyph-name="thorn.sc" horiz-adv-x="473" 
d="M146 93l-16 -93h-100l90 507h99l-16 -93h77c104 0 166 -46 166 -135c0 -117 -75 -186 -215 -186h-85zM160 172h75c79 0 107 42 107 98c0 40 -23 65 -79 65h-74z" />
    <glyph glyph-name="ugrave.sc" horiz-adv-x="530" 
d="M326 726l43 -159h-80l-55 159h92zM231 -7c-121 0 -196 59 -172 200l55 314h100l-55 -312c-14 -82 9 -120 79 -120s108 39 122 120l55 312h100l-56 -314c-25 -141 -107 -200 -228 -200z" />
    <glyph glyph-name="uacute.sc" horiz-adv-x="530" 
d="M465 726l-110 -159h-88l98 159h100zM231 -7c-121 0 -196 59 -172 200l55 314h100l-55 -312c-14 -82 9 -120 79 -120s108 39 122 120l55 312h100l-56 -314c-25 -141 -107 -200 -228 -200z" />
    <glyph glyph-name="ucircumflex.sc" horiz-adv-x="530" 
d="M402 726l68 -160h-87l-40 96l-73 -96h-91l124 160h99zM231 -7c-121 0 -196 59 -172 200l55 314h100l-55 -312c-14 -82 9 -120 79 -120s108 39 122 120l55 312h100l-56 -314c-25 -141 -107 -200 -228 -200z" />
    <glyph glyph-name="utilde.sc" horiz-adv-x="530" 
d="M465 598c-17 15 -39 26 -62 26c-45 0 -90 -40 -148 -40c-29 0 -52 12 -62 23l17 74c13 -16 30 -24 58 -24c46 0 82 39 148 39c33 0 51 -12 66 -23zM231 -7c-121 0 -196 59 -172 200l55 314h100l-55 -312c-14 -82 9 -120 79 -120s108 39 122 120l55 312h100l-56 -314
c-25 -141 -107 -200 -228 -200z" />
    <glyph glyph-name="udieresis.sc" horiz-adv-x="530" 
d="M240 579c-31 0 -54 16 -54 49c0 50 30 71 70 71c27 0 53 -17 53 -51c0 -51 -34 -69 -69 -69zM419 579c-30 0 -53 16 -53 49c0 50 30 71 70 71c27 0 52 -17 52 -51c0 -51 -34 -69 -69 -69zM231 -7c-121 0 -196 59 -172 200l55 314h100l-55 -312c-14 -82 9 -120 79 -120
s108 39 122 120l55 312h100l-56 -314c-25 -141 -107 -200 -228 -200z" />
    <glyph glyph-name="umacron.sc" horiz-adv-x="530" 
d="M481 669l-14 -78h-275l14 78h275zM231 -7c-121 0 -196 59 -172 200l55 314h100l-55 -312c-14 -82 9 -120 79 -120s108 39 122 120l55 312h100l-56 -314c-25 -141 -107 -200 -228 -200z" />
    <glyph glyph-name="ubreve.sc" horiz-adv-x="530" 
d="M488 705c-14 -81 -69 -144 -164 -144c-88 0 -129 63 -114 144h64c-3 -41 20 -72 60 -72c43 0 75 31 88 72h66zM231 -7c-121 0 -196 59 -172 200l55 314h100l-55 -312c-14 -82 9 -120 79 -120s108 39 122 120l55 312h100l-56 -314c-25 -141 -107 -200 -228 -200z" />
    <glyph glyph-name="uring.sc" horiz-adv-x="530" 
d="M236 636c0 59 42 111 116 111c60 0 91 -40 91 -84c0 -58 -44 -111 -120 -111c-57 0 -87 42 -87 84zM294 642c0 -20 12 -36 36 -36c34 0 53 24 53 51c0 20 -12 37 -38 37c-31 0 -51 -25 -51 -52zM231 -7c-121 0 -196 59 -172 200l55 314h100l-55 -312
c-14 -82 9 -120 79 -120s108 39 122 120l55 312h100l-56 -314c-25 -141 -107 -200 -228 -200z" />
    <glyph glyph-name="uhungarumlaut.sc" horiz-adv-x="543" 
d="M399 726l-111 -159h-87l99 159h99zM556 726l-110 -159h-87l99 159h98zM231 -7c-121 0 -196 59 -172 200l55 314h100l-55 -312c-14 -82 9 -120 79 -120s108 39 122 120l55 312h100l-56 -314c-25 -141 -107 -200 -228 -200z" />
    <glyph glyph-name="uogonek.sc" horiz-adv-x="530" 
d="M415 507h100l-56 -314c-19 -110 -73 -170 -154 -191l-67 -48c-26 -18 -40 -34 -40 -56c0 -13 8 -27 30 -27c19 0 44 11 67 26l-14 -83c-26 -12 -53 -22 -91 -22c-60 0 -97 33 -97 80s26 75 76 114l14 11c-92 14 -145 75 -124 196l55 314h100l-55 -312
c-14 -82 9 -120 79 -120s108 39 122 120z" />
    <glyph glyph-name="wacute.sc" horiz-adv-x="778" 
d="M586 726l-110 -159h-88l98 159h100zM491 507l36 -399l169 399h106l-225 -507h-122l-40 375l-172 -375h-120l-48 507h98l29 -399l176 399h113z" />
    <glyph glyph-name="wcircumflex.sc" horiz-adv-x="778" 
d="M522 726l68 -160h-87l-39 96l-73 -96h-92l124 160h99zM491 507l36 -399l169 399h106l-225 -507h-122l-40 375l-172 -375h-120l-48 507h98l29 -399l176 399h113z" />
    <glyph glyph-name="wdieresis.sc" horiz-adv-x="778" 
d="M359 579c-31 0 -53 16 -53 49c0 50 30 71 70 71c27 0 52 -17 52 -51c0 -51 -34 -69 -69 -69zM539 579c-31 0 -54 16 -54 49c0 50 30 71 70 71c27 0 53 -17 53 -51c0 -51 -35 -69 -69 -69zM491 507l36 -399l169 399h106l-225 -507h-122l-40 375l-172 -375h-120l-48 507h98
l29 -399l176 399h113z" />
    <glyph glyph-name="wgrave.sc" horiz-adv-x="778" 
d="M441 726l43 -159h-81l-54 159h92zM491 507l36 -399l169 399h106l-225 -507h-122l-40 375l-172 -375h-120l-48 507h98l29 -399l176 399h113z" />
    <glyph glyph-name="yacute.sc" horiz-adv-x="476" 
d="M435 726l-110 -159h-88l98 159h100zM148 0l35 197l-121 310h104l79 -222l153 222h116l-231 -310l-35 -197h-100z" />
    <glyph glyph-name="ycircumflex.sc" horiz-adv-x="476" 
d="M372 726l68 -160h-87l-39 96l-73 -96h-92l124 160h99zM148 0l35 197l-121 310h104l79 -222l153 222h116l-231 -310l-35 -197h-100z" />
    <glyph glyph-name="ydieresis.sc" horiz-adv-x="476" 
d="M210 579c-31 0 -54 16 -54 49c0 50 30 71 70 71c27 0 53 -17 53 -51c0 -51 -35 -69 -69 -69zM389 579c-31 0 -53 16 -53 49c0 50 29 71 70 71c27 0 52 -17 52 -51c0 -51 -34 -69 -69 -69zM148 0l35 197l-121 310h104l79 -222l153 222h116l-231 -310l-35 -197h-100z" />
    <glyph glyph-name="ygrave.sc" horiz-adv-x="476" 
d="M297 726l42 -159h-80l-54 159h92zM148 0l35 197l-121 310h104l79 -222l153 222h116l-231 -310l-35 -197h-100z" />
    <glyph glyph-name="zacute.sc" horiz-adv-x="428" 
d="M416 726l-110 -159h-88l98 159h100zM419 437l-286 -358h231l-14 -79h-352l11 69l288 359h-212l13 79h334z" />
    <glyph glyph-name="zcaron.sc" horiz-adv-x="428" 
d="M224 566l-68 160h87l40 -96l73 96h92l-125 -160h-99zM419 437l-286 -358h231l-14 -79h-352l11 69l288 359h-212l13 79h334z" />
    <glyph glyph-name="zdotaccent.sc" horiz-adv-x="428" 
d="M278 579c-30 0 -53 16 -53 49c0 50 30 71 70 71c27 0 52 -17 52 -51c0 -51 -34 -69 -69 -69zM419 437l-286 -358h231l-14 -79h-352l11 69l288 359h-212l13 79h334z" />
    <glyph glyph-name="ij.sc" horiz-adv-x="641" 
d="M120 507h99l-89 -507h-100zM313 120c9 -27 27 -46 64 -46c51 0 83 29 95 100l58 333h95l-61 -341c-21 -121 -85 -174 -193 -174c-78 0 -123 33 -138 82z" />
    <glyph glyph-name="germandbls.sc" horiz-adv-x="543" 
d="M497 462l-13 -71l-128 -113l39 -17c58 -24 89 -67 89 -128c0 -87 -72 -140 -173 -140c-80 0 -126 33 -146 59l57 66c17 -25 46 -46 89 -46s68 24 68 59c0 28 -11 46 -44 62l-89 42l10 60l133 119c-24 11 -52 19 -88 19c-70 0 -106 -38 -120 -115l-56 -318h-100l58 329
c23 130 105 186 223 186c80 0 148 -22 191 -53z" />
    <glyph glyph-name="fi.sc" horiz-adv-x="675" 
d="M120 507h322l-13 -79h-223l-26 -146h188l-14 -80h-188l-36 -202h-100zM555 507h99l-89 -507h-100z" />
    <glyph glyph-name="fl.sc" horiz-adv-x="830" 
d="M120 507h322l-13 -79h-223l-26 -146h188l-14 -80h-188l-36 -202h-100zM786 79l-14 -79h-307l90 507h99l-75 -428h207z" />
    <glyph glyph-name="eng.sc" horiz-adv-x="558" 
d="M438 507h99l-91 -512c-13 -74 -46 -130 -123 -168l-55 71c42 21 64 46 76 100l-154 352l-60 -350h-102l91 507h107l150 -346z" />
    <glyph glyph-name="grave.sc" horiz-adv-x="570" 
d="M431 726l43 -159h-80l-55 159h92z" />
    <glyph glyph-name="acute.sc" horiz-adv-x="570" 
d="M508 726l-110 -159h-88l98 159h100z" />
    <glyph glyph-name="circumflex.sc" horiz-adv-x="570" 
d="M471 726l68 -160h-87l-39 96l-73 -96h-92l124 160h99z" />
    <glyph glyph-name="caron.sc" horiz-adv-x="570" 
d="M344 566l-68 160h87l39 -96l73 96h92l-124 -160h-99z" />
    <glyph glyph-name="caronalt.sc" horiz-adv-x="570" 
d="M365 345h-73l52 162h105z" />
    <glyph glyph-name="tilde.sc" horiz-adv-x="570" 
d="M534 598c-17 15 -39 26 -62 26c-45 0 -90 -40 -148 -40c-29 0 -52 12 -62 23l17 74c13 -16 30 -24 58 -24c46 0 82 39 148 39c33 0 51 -12 66 -23z" />
    <glyph glyph-name="dieresis.sc" horiz-adv-x="570" 
d="M309 579c-31 0 -54 16 -54 49c0 50 30 71 70 71c27 0 53 -17 53 -51c0 -51 -35 -69 -69 -69zM488 579c-31 0 -53 16 -53 49c0 50 30 71 70 71c27 0 52 -17 52 -51c0 -51 -34 -69 -69 -69z" />
    <glyph glyph-name="macron.sc" horiz-adv-x="570" 
d="M549 669l-14 -78h-274l13 78h275z" />
    <glyph glyph-name="breve.sc" horiz-adv-x="570" 
d="M557 705c-14 -81 -69 -144 -164 -144c-88 0 -129 63 -114 144h64c-2 -41 20 -72 60 -72c43 0 76 31 88 72h66z" />
    <glyph glyph-name="ring.sc" horiz-adv-x="570" 
d="M304 636c0 59 43 111 117 111c59 0 91 -40 91 -84c0 -58 -44 -111 -120 -111c-57 0 -88 42 -88 84zM363 642c0 -20 12 -36 36 -36c33 0 53 24 53 51c0 20 -12 37 -38 37c-31 0 -51 -25 -51 -52z" />
    <glyph glyph-name="hungarumlaut.sc" horiz-adv-x="570" 
d="M428 726l-110 -159h-87l98 159h99zM586 726l-111 -159h-87l99 159h99z" />
    <glyph glyph-name="dotaccent.sc" horiz-adv-x="570" 
d="M398 579c-30 0 -53 16 -53 49c0 50 30 71 70 71c27 0 52 -17 52 -51c0 -51 -34 -69 -69 -69z" />
    <glyph glyph-name="exclamdown.sc" horiz-adv-x="228" 
d="M161 511c32 0 54 -22 54 -49c0 -37 -30 -63 -69 -63c-31 0 -53 23 -53 50c0 37 30 62 68 62zM172 339l-44 -339h-110l77 339h77z" />
    <glyph glyph-name="questiondown.sc" horiz-adv-x="370" 
d="M246 511c32 0 52 -21 52 -47c0 -37 -31 -65 -71 -65c-30 0 -51 21 -51 48c0 37 32 64 70 64zM152 -8c-91 0 -137 51 -137 114c0 122 139 139 155 233h94c-21 -120 -155 -143 -155 -218c0 -25 17 -47 51 -47c42 0 66 24 71 50l87 -10c-12 -64 -64 -122 -166 -122z" />
    <glyph glyph-name="Euro.sc" horiz-adv-x="464" 
d="M321 431c-61 0 -99 -41 -121 -100h186l-30 -58h-172l-6 -44h158l-30 -58h-130c2 -66 37 -96 89 -96c31 0 70 9 111 31l10 -85c-40 -18 -83 -29 -133 -29c-113 0 -177 55 -180 179h-43l11 58h34c1 15 3 30 5 44h-32l11 58h35c37 115 119 184 238 184c53 0 97 -12 136 -30
l-43 -76c-26 12 -62 22 -104 22z" />
    <glyph glyph-name="cent.sc" horiz-adv-x="392" 
d="M186 68c32 0 62 18 83 46l50 -47c-33 -48 -87 -75 -151 -75c-6 0 -12 0 -18 1l-20 -47l-40 10l19 45c-58 20 -78 71 -78 132c0 106 58 217 194 217c10 0 20 -1 29 -2l24 57l41 -10l-24 -57c29 -13 51 -34 61 -64l-67 -44c-6 13 -14 24 -26 32l-82 -194h5zM121 143
c0 -28 6 -49 21 -62l81 193h-1c-66 0 -101 -57 -101 -131z" />
    <glyph glyph-name="sterling.sc" horiz-adv-x="459" 
d="M92 253l15 81c17 99 73 181 197 181c79 0 124 -30 158 -76l-67 -58c-26 34 -56 49 -97 49c-57 0 -87 -40 -96 -98l-15 -79h130l-11 -58h-129l-21 -120h206l-13 -75h-302l35 195h-48l10 58h48z" />
    <glyph glyph-name="florin.sc" horiz-adv-x="314" 
d="M138 -59c-11 -62 -52 -111 -125 -111c-30 0 -58 5 -68 9l13 78c13 -5 32 -6 42 -6c34 0 48 22 53 52l53 303h-67l13 76h68l12 72c12 65 54 111 130 111c24 0 53 -5 63 -8l-14 -77c-12 3 -28 5 -42 5c-29 0 -45 -16 -51 -51l-9 -52h74l-13 -76h-74z" />
    <glyph glyph-name="yen.sc" horiz-adv-x="490" 
d="M177 230l-16 43h-99l10 58h69l-62 176h102l65 -216l143 216h114l-126 -176h71l-10 -58h-102l-32 -43h126l-10 -59h-143l-30 -171h-95l30 171h-138l10 59h123z" />
    <glyph glyph-name="uni20A8.sc" horiz-adv-x="458" 
d="M467 507l-12 -63h-96c13 -15 20 -36 19 -65h66l-9 -51h-64c-14 -62 -62 -106 -123 -117l90 -211h-108l-82 198h-105l14 78h79c84 0 116 15 128 52h-197l9 51h197c0 34 -16 51 -79 51h-110l14 77h369z" />
    <glyph glyph-name="perthousand.sc" horiz-adv-x="937" 
d="M202 512c70 0 103 -43 103 -108c0 -97 -39 -174 -143 -174c-72 0 -104 44 -104 107c0 102 44 175 144 175zM179 0h-75l397 507h76zM166 282c44 0 70 40 70 125c0 34 -11 52 -39 52c-42 0 -69 -37 -69 -124c0 -35 11 -53 38 -53zM521 277c71 0 104 -42 104 -107
c0 -97 -40 -175 -144 -175c-72 0 -104 45 -104 108c0 102 44 174 144 174zM786 277c70 0 104 -42 104 -107c0 -97 -40 -175 -144 -175c-72 0 -104 45 -104 108c0 102 44 174 144 174zM485 48c44 0 71 39 71 125c0 34 -12 52 -39 52c-42 0 -70 -37 -70 -125
c0 -34 11 -52 38 -52zM750 48c44 0 70 39 70 125c0 34 -11 52 -39 52c-41 0 -69 -37 -69 -125c0 -34 11 -52 38 -52z" />
    <glyph glyph-name="zero.tf" horiz-adv-x="560" 
d="M352 687c124 0 186 -105 186 -243c0 -266 -91 -455 -304 -455c-124 0 -186 102 -186 243c0 268 92 455 304 455zM247 79c113 0 184 129 184 365c0 92 -28 153 -93 153c-112 0 -184 -128 -184 -365c0 -92 29 -153 93 -153z" />
    <glyph glyph-name="one.tf" horiz-adv-x="560" 
d="M73 89h157l83 466l-160 -65l-15 100l209 86h94l-104 -587h141l-15 -89h-406z" />
    <glyph glyph-name="two.tf" horiz-adv-x="560" 
d="M352 687c110 0 180 -72 180 -172c0 -112 -75 -184 -169 -276l-158 -152h262l-16 -87h-406l13 75l239 227c79 76 126 132 126 209c0 51 -27 86 -78 86c-68 0 -107 -49 -118 -121h-100c14 124 92 211 225 211z" />
    <glyph glyph-name="three.tf" horiz-adv-x="560" 
d="M395 342c48 -13 97 -58 97 -137c0 -127 -97 -216 -249 -216c-150 0 -204 80 -186 182h100c-10 -55 25 -92 94 -92c79 0 134 50 134 128c0 58 -41 95 -114 95h-60l15 87h60c86 0 144 44 144 126c0 48 -31 82 -87 82c-67 0 -108 -40 -117 -92h-102c13 99 84 182 226 182
c115 0 189 -69 189 -164c0 -105 -79 -167 -144 -181z" />
    <glyph glyph-name="four.tf" horiz-adv-x="560" 
d="M509 141h-82l-24 -141h-105l25 141h-299l13 77l375 458h110l-79 -448h82zM339 228l51 292l-232 -292h181z" />
    <glyph glyph-name="five.tf" horiz-adv-x="560" 
d="M499 255c0 -148 -96 -266 -258 -266c-151 0 -201 86 -183 192h99c-10 -59 20 -102 91 -102c96 0 141 80 141 166c0 58 -31 98 -92 98c-42 0 -77 -17 -106 -38l-83 12l103 359h339l-15 -87h-254l-52 -181c18 11 54 25 94 25c98 0 176 -59 176 -178z" />
    <glyph glyph-name="six.tf" horiz-adv-x="560" 
d="M449 505c9 57 -21 92 -82 92c-92 0 -152 -93 -173 -227c24 27 83 61 147 61c106 0 179 -67 179 -178c0 -156 -96 -264 -258 -264c-132 0 -192 106 -192 239c0 235 90 459 304 459c139 0 194 -81 176 -182h-101zM178 263c-3 -13 -4 -30 -5 -43c-2 -83 26 -141 95 -141
c93 0 143 74 143 166c0 60 -32 100 -96 100c-58 0 -109 -40 -137 -82z" />
    <glyph glyph-name="seven.tf" horiz-adv-x="560" 
d="M431 589h-283l15 87h407l-13 -76l-341 -600h-121z" />
    <glyph glyph-name="eight.tf" horiz-adv-x="560" 
d="M249 -11c-123 0 -203 61 -203 170c0 113 77 174 154 193c-49 18 -86 57 -86 127c0 126 99 208 247 208c115 0 192 -60 192 -164c0 -102 -64 -159 -137 -180c42 -15 93 -53 93 -136c0 -139 -106 -218 -260 -218zM351 597c-76 0 -129 -45 -129 -123c0 -53 38 -83 92 -83
c70 0 129 42 129 123c0 53 -34 83 -92 83zM259 79c85 0 143 49 143 133c0 60 -42 92 -103 92c-77 0 -144 -47 -144 -134c0 -58 40 -91 104 -91z" />
    <glyph glyph-name="nine.tf" horiz-adv-x="560" 
d="M161 171c-9 -57 21 -92 82 -92c92 0 152 93 173 227c-24 -27 -83 -61 -147 -61c-106 0 -179 67 -179 178c0 156 96 264 258 264c132 0 192 -106 192 -239c0 -235 -90 -459 -304 -459c-139 0 -194 81 -175 182h100zM432 413c3 13 4 30 5 43c2 83 -26 141 -95 141
c-93 0 -143 -74 -143 -166c0 -60 32 -100 96 -100c58 0 109 40 137 82z" />
    <glyph glyph-name="zero.tosf" horiz-adv-x="560" 
d="M341 586c131 0 195 -94 195 -224c0 -213 -93 -373 -292 -373c-131 0 -196 94 -196 224c0 214 93 373 293 373zM256 82c110 0 172 100 172 276c0 81 -29 135 -100 135c-110 0 -173 -100 -173 -275c0 -81 30 -136 101 -136z" />
    <glyph glyph-name="one.tosf" horiz-adv-x="560" 
d="M80 91h156l64 363l-153 -55l-16 92l204 84h89l-85 -484h131l-16 -91h-391z" />
    <glyph glyph-name="two.tosf" horiz-adv-x="560" 
d="M53 0l12 68l235 182c77 60 115 100 115 162c0 52 -31 85 -82 85c-65 0 -107 -49 -118 -114h-98c16 118 99 203 228 203c115 0 175 -77 175 -163c0 -107 -62 -161 -147 -226l-146 -116h235l-15 -81h-394z" />
    <glyph glyph-name="three.tosf" horiz-adv-x="560" 
d="M377 242c48 -13 97 -59 97 -138c0 -126 -97 -215 -249 -215c-150 0 -204 79 -186 182h100c-10 -56 25 -92 94 -92c79 0 134 49 134 128c0 57 -41 95 -114 95h-60l15 87h60c86 0 144 44 144 125c0 48 -31 82 -87 82c-67 0 -108 -40 -117 -92h-102c13 99 84 182 226 182
c115 0 189 -68 189 -164c0 -105 -79 -167 -144 -180z" />
    <glyph glyph-name="four.tosf" horiz-adv-x="560" 
d="M492 41h-83l-24 -141h-104l24 141h-299l14 77l375 458h109l-79 -448h82zM321 128l52 292l-233 -292h181z" />
    <glyph glyph-name="five.tosf" horiz-adv-x="560" 
d="M480 154c0 -148 -95 -265 -257 -265c-151 0 -202 85 -183 191h99c-10 -59 20 -102 90 -102c96 0 142 80 142 166c0 58 -32 98 -93 98c-41 0 -76 -17 -105 -38l-84 13l104 358h339l-16 -87h-254l-52 -181c19 11 55 25 95 25c98 0 175 -59 175 -178z" />
    <glyph glyph-name="six.tosf" horiz-adv-x="560" 
d="M449 505c9 57 -21 92 -82 92c-92 0 -152 -93 -173 -227c24 27 83 61 147 61c106 0 179 -67 179 -178c0 -156 -96 -264 -258 -264c-132 0 -192 106 -192 239c0 235 90 459 304 459c139 0 194 -81 176 -182h-101zM178 263c-3 -13 -4 -30 -5 -43c-2 -83 26 -141 95 -141
c93 0 143 74 143 166c0 60 -32 100 -96 100c-58 0 -109 -40 -137 -82z" />
    <glyph glyph-name="seven.tosf" horiz-adv-x="560" 
d="M415 489h-284l16 87h407l-13 -76l-341 -600h-121z" />
    <glyph glyph-name="eight.tosf" horiz-adv-x="560" 
d="M249 -11c-123 0 -203 61 -203 170c0 113 77 174 154 193c-49 18 -86 57 -86 127c0 126 99 208 247 208c115 0 192 -60 192 -164c0 -102 -64 -159 -137 -180c42 -15 93 -53 93 -136c0 -139 -106 -218 -260 -218zM351 597c-76 0 -129 -45 -129 -123c0 -53 38 -83 92 -83
c70 0 129 42 129 123c0 53 -34 83 -92 83zM259 79c85 0 143 49 143 133c0 60 -42 92 -103 92c-77 0 -144 -47 -144 -134c0 -58 40 -91 104 -91z" />
    <glyph glyph-name="nine.tosf" horiz-adv-x="560" 
d="M143 71c-9 -57 22 -92 83 -92c92 0 151 93 173 226c-25 -27 -84 -61 -148 -61c-106 0 -179 67 -179 179c0 155 96 263 258 263c132 0 193 -106 193 -239c0 -235 -90 -458 -304 -458c-140 0 -194 81 -176 182h100zM414 312c3 14 5 31 5 43c3 83 -25 142 -95 142
c-92 0 -142 -74 -142 -167c0 -60 31 -99 96 -99c57 0 109 39 136 81z" />
    <glyph glyph-name="Euro.tf" horiz-adv-x="560" 
d="M414 593c-78 0 -136 -61 -169 -156h239l-37 -68h-220c-5 -22 -8 -44 -10 -68h197l-35 -68h-165c0 -89 36 -151 117 -151c39 0 88 12 142 44l12 -95c-53 -28 -105 -42 -167 -42c-139 0 -214 82 -214 244h-53l13 68h43c2 24 5 46 8 68h-40l12 68h45c47 156 152 249 292 249
c67 0 122 -17 168 -41l-46 -85c-35 18 -78 33 -132 33z" />
    <glyph glyph-name="cent.tf" horiz-adv-x="560" 
d="M284 77c42 0 77 22 103 59l65 -52c-42 -63 -107 -95 -184 -95c-11 0 -22 1 -33 2l-25 -62l-52 13l27 66c-59 30 -87 94 -87 168c0 148 68 290 238 290c11 0 23 -1 33 -2l31 76l53 -13l-31 -77c35 -16 61 -43 73 -81l-74 -48c-7 20 -18 35 -34 44l-117 -287
c5 -1 9 -1 14 -1zM200 182c0 -31 7 -59 23 -79l111 275c-99 0 -134 -101 -134 -196z" />
    <glyph glyph-name="sterling.tf" horiz-adv-x="560" 
d="M133 332l20 116c23 131 92 238 241 238c100 0 154 -39 194 -97l-75 -64c-31 50 -69 67 -124 67c-75 0 -119 -58 -134 -149l-20 -111h168l-12 -68h-168l-32 -179h265l-15 -85h-367l46 264h-60l12 68h61z" />
    <glyph glyph-name="florin.tf" horiz-adv-x="560" 
d="M281 -77c-15 -82 -61 -149 -153 -149c-32 0 -67 5 -78 10l15 87c15 -5 36 -7 50 -7c46 0 64 29 73 80l75 426h-87l15 86h87l17 95c14 81 59 149 157 149c26 0 61 -5 73 -10l-15 -87c-17 4 -35 7 -51 7c-42 0 -62 -26 -71 -78l-14 -76h95l-15 -86h-94z" />
    <glyph glyph-name="yen.tf" horiz-adv-x="560" 
d="M224 301l-20 68h-118l11 68h83l-78 239h111l88 -307l197 307h122l-164 -239h86l-12 -68h-122l-45 -68h155l-12 -68h-170l-42 -233h-106l40 233h-167l13 68h150z" />
    <glyph glyph-name="uni20A8.tf" horiz-adv-x="560" 
d="M586 677l-12 -68h-124c21 -21 31 -60 30 -100h76l-12 -68h-73c-20 -80 -88 -141 -180 -153l114 -288h-115l-105 276h-104l14 84h101c93 0 138 25 162 81h-247l12 68h249c-5 56 -35 82 -126 82h-110l15 85z" />
    <glyph glyph-name="dollar.tf" horiz-adv-x="560" 
d="M371 369c69 -26 131 -67 131 -158c0 -121 -83 -210 -226 -221l-16 -93h-61l16 93c-121 10 -164 77 -179 127l82 57c13 -46 38 -86 114 -92l38 217l-28 10c-67 26 -121 73 -121 156c0 109 72 209 217 220l13 74h61l-13 -75c90 -8 141 -51 162 -98l-81 -57
c-15 35 -50 57 -97 63l-38 -213zM231 474c0 -35 22 -58 57 -73l33 190c-60 -12 -90 -58 -90 -117zM293 84c66 12 99 55 99 115c0 41 -27 64 -65 79z" />
    <glyph glyph-name="zero.osf" horiz-adv-x="586" 
d="M352 586c134 0 199 -95 199 -225c0 -213 -94 -372 -295 -372c-134 0 -200 95 -200 225c0 213 94 372 296 372zM268 82c112 0 176 100 176 275c0 82 -31 136 -104 136c-113 0 -177 -99 -177 -275c0 -81 31 -136 105 -136z" />
    <glyph glyph-name="one.osf" horiz-adv-x="370" 
d="M151 0l82 464l-158 -62l-13 91l203 82h90l-101 -575h-103z" />
    <glyph glyph-name="two.osf" horiz-adv-x="501" 
d="M14 0l13 68l234 182c77 60 116 100 116 162c0 52 -31 85 -82 85c-65 0 -107 -49 -118 -114h-98c15 118 98 203 227 203c116 0 176 -77 176 -163c0 -107 -63 -161 -147 -226l-146 -116h234l-14 -81h-395z" />
    <glyph glyph-name="three.osf" horiz-adv-x="522" 
d="M360 242c48 -13 97 -58 97 -137c0 -127 -98 -216 -249 -216c-150 0 -204 80 -186 182h100c-10 -55 24 -92 94 -92c78 0 134 50 134 128c0 58 -41 95 -114 95h-61l16 87h60c86 0 143 44 143 126c0 48 -31 82 -87 82c-66 0 -107 -40 -117 -92h-101c13 99 84 182 226 182
c115 0 188 -69 188 -164c0 -105 -78 -167 -143 -181z" />
    <glyph glyph-name="four.osf" horiz-adv-x="552" 
d="M490 41h-83l-24 -141h-104l24 141h-299l14 77l374 458h110l-79 -448h82zM319 128l52 292l-233 -292h181z" />
    <glyph glyph-name="five.osf" horiz-adv-x="510" 
d="M457 155c0 -148 -95 -266 -257 -266c-151 0 -202 86 -183 192h99c-10 -59 20 -102 90 -102c96 0 141 80 141 166c0 58 -31 98 -92 98c-41 0 -76 -17 -106 -38l-83 12l103 359h340l-16 -87h-254l-52 -181c19 11 55 25 95 25c98 0 175 -59 175 -178z" />
    <glyph glyph-name="six.osf" horiz-adv-x="550" 
d="M446 505c9 57 -22 92 -83 92c-92 0 -152 -93 -173 -227c25 27 84 61 147 61c107 0 179 -67 179 -178c0 -156 -96 -264 -257 -264c-132 0 -193 106 -193 239c0 235 90 459 304 459c139 0 194 -81 176 -182h-100zM174 263c-2 -13 -4 -30 -4 -43c-3 -83 25 -141 94 -141
c93 0 143 74 143 166c0 60 -32 100 -96 100c-57 0 -109 -40 -137 -82z" />
    <glyph glyph-name="seven.osf" horiz-adv-x="471" 
d="M372 489h-284l15 87h408l-13 -76l-341 -600h-121z" />
    <glyph glyph-name="eight.osf" horiz-adv-x="554" 
d="M248 -11c-123 0 -203 61 -203 170c0 113 77 174 154 193c-50 18 -86 57 -86 127c0 126 99 208 247 208c115 0 191 -60 191 -164c0 -102 -63 -159 -137 -180c43 -15 94 -53 94 -136c0 -139 -106 -218 -260 -218zM350 597c-76 0 -130 -45 -130 -123c0 -53 39 -83 93 -83
c70 0 129 42 129 123c0 53 -34 83 -92 83zM258 79c85 0 143 49 143 133c0 60 -43 92 -104 92c-76 0 -143 -47 -143 -134c0 -58 40 -91 104 -91z" />
    <glyph glyph-name="nine.osf" horiz-adv-x="550" 
d="M140 71c-9 -57 22 -92 83 -92c92 0 151 93 173 226c-25 -27 -84 -61 -148 -61c-106 0 -179 67 -179 179c0 155 96 263 258 263c132 0 192 -106 192 -239c0 -235 -89 -458 -303 -458c-140 0 -194 81 -176 182h100zM411 312c3 14 5 31 5 43c2 83 -25 142 -95 142
c-92 0 -142 -74 -142 -167c0 -60 31 -99 96 -99c57 0 109 39 136 81z" />
    <glyph glyph-name="uni2070" unicode="&#x2070;" horiz-adv-x="356" 
d="M281 792c82 0 122 -51 122 -134c0 -129 -50 -235 -176 -235c-88 0 -122 56 -122 134c0 134 53 235 176 235zM232 483c62 0 95 61 95 175c0 46 -15 74 -51 74c-58 0 -95 -58 -95 -175c0 -46 15 -74 51 -74z" />
    <glyph glyph-name="uni2074" unicode="&#x2074;" horiz-adv-x="328" 
d="M360 499h-42l-12 -69h-73l12 69h-170l9 52l207 236h79l-41 -230h42zM255 557l23 128l-110 -128h87z" />
    <glyph glyph-name="uni2075" unicode="&#x2075;" horiz-adv-x="309" 
d="M347 563c0 -85 -61 -139 -150 -139c-94 0 -122 45 -111 103h71c-5 -26 11 -42 45 -42c41 0 68 27 68 71c0 27 -17 45 -47 45c-21 0 -41 -8 -55 -17l-57 9l59 194h201l-10 -58h-141l-23 -76c8 3 28 8 51 8c49 0 99 -25 99 -98z" />
    <glyph glyph-name="uni2076" unicode="&#x2076;" horiz-adv-x="336" 
d="M276 732c-50 0 -78 -44 -88 -99c15 10 43 25 82 25c54 0 102 -29 102 -98c0 -80 -62 -137 -152 -137c-81 0 -116 59 -116 132c0 125 52 236 177 236c86 0 116 -44 107 -99h-71c4 25 -12 40 -41 40zM178 566c-6 -46 5 -83 47 -83c46 0 70 32 70 72c0 27 -16 46 -47 46
s-57 -19 -70 -35z" />
    <glyph glyph-name="uni2077" unicode="&#x2077;" horiz-adv-x="278" 
d="M275 729h-160l11 58h243l-9 -50l-191 -307h-80z" />
    <glyph glyph-name="uni2078" unicode="&#x2078;" horiz-adv-x="338" 
d="M217 424c-77 0 -125 32 -125 92c0 52 37 87 82 100c-29 10 -46 31 -46 65c0 74 65 111 143 111c75 0 119 -32 119 -89c0 -49 -33 -81 -73 -93c28 -9 51 -30 51 -72c0 -77 -69 -114 -151 -114zM266 733c-37 0 -61 -20 -61 -55c0 -24 18 -37 45 -37c34 0 62 18 62 55
c0 23 -17 37 -46 37zM240 584c-44 0 -70 -27 -70 -59c0 -27 23 -41 53 -41c36 0 69 20 69 57c0 26 -19 43 -52 43z" />
    <glyph glyph-name="uni2079" unicode="&#x2079;" horiz-adv-x="336" 
d="M211 483c50 0 78 43 88 98c-15 -10 -44 -25 -82 -25c-54 0 -102 29 -102 98c0 79 62 137 152 137c81 0 116 -59 116 -132c0 -124 -52 -236 -177 -236c-86 0 -117 44 -107 99h71c-5 -25 11 -39 41 -39zM309 649c6 45 -6 82 -47 82c-47 0 -70 -32 -70 -72
c0 -27 16 -46 46 -46c32 0 58 19 71 36z" />
    <glyph glyph-name="uni2080" unicode="&#x2080;" horiz-adv-x="356" 
d="M188 263c82 0 121 -51 121 -134c0 -129 -49 -235 -176 -235c-87 0 -122 56 -122 134c0 134 54 235 177 235zM138 -46c63 0 96 61 96 175c0 46 -15 74 -51 74c-59 0 -96 -58 -96 -175c0 -46 15 -74 51 -74z" />
    <glyph glyph-name="uni2081" unicode="&#x2081;" horiz-adv-x="237" 
d="M66 -100l50 281l-98 -35l-9 63l130 48h64l-62 -357h-75z" />
    <glyph glyph-name="uni2082" unicode="&#x2082;" horiz-adv-x="305" 
d="M159 263c59 0 108 -34 108 -98c0 -57 -42 -98 -95 -143l-74 -64h136l-10 -58h-240l9 50l133 116c40 34 65 62 65 97c0 23 -13 40 -37 40c-34 0 -52 -21 -59 -58h-72c8 71 57 118 136 118z" />
    <glyph glyph-name="uni2083" unicode="&#x2083;" horiz-adv-x="317" 
d="M199 79c29 -6 54 -31 54 -73c0 -71 -67 -112 -146 -112c-90 0 -122 41 -112 101h71c-5 -25 12 -41 46 -41c35 0 64 21 64 55c0 26 -19 43 -58 43h-37l10 59h36c45 0 71 20 71 56c0 22 -16 36 -43 36c-30 0 -51 -17 -54 -40h-72c10 59 54 100 132 100
c60 0 115 -28 115 -91c0 -54 -36 -84 -77 -93z" />
    <glyph glyph-name="uni2084" unicode="&#x2084;" horiz-adv-x="329" 
d="M267 -31h-43l-11 -69h-74l12 69h-170l9 51l207 237h79l-41 -230h42zM162 27l22 128l-109 -128h87z" />
    <glyph glyph-name="uni2085" unicode="&#x2085;" horiz-adv-x="310" 
d="M254 33c0 -85 -61 -139 -150 -139c-94 0 -122 44 -111 103h71c-5 -26 11 -43 45 -43c41 0 67 28 67 72c0 26 -17 45 -47 45c-20 0 -40 -8 -54 -17l-57 9l59 194h201l-10 -58h-141l-23 -76c8 3 28 8 51 8c48 0 99 -25 99 -98z" />
    <glyph glyph-name="uni2086" unicode="&#x2086;" horiz-adv-x="336" 
d="M183 203c-51 0 -78 -44 -88 -99c15 11 43 25 82 25c54 0 101 -28 101 -97c0 -80 -61 -138 -151 -138c-82 0 -117 60 -117 132c0 125 53 237 177 237c86 0 117 -45 108 -100h-71c4 25 -12 40 -41 40zM85 37c-7 -45 5 -83 46 -83c47 0 71 32 71 72c0 27 -16 47 -47 47
c-32 0 -58 -20 -70 -36z" />
    <glyph glyph-name="uni2087" unicode="&#x2087;" horiz-adv-x="278" 
d="M182 199h-161l11 58h243l-8 -50l-191 -307h-81z" />
    <glyph glyph-name="uni2088" unicode="&#x2088;" horiz-adv-x="338" 
d="M123 -106c-76 0 -124 33 -124 93c0 52 37 87 81 99c-28 11 -46 31 -46 65c0 75 65 112 144 112c75 0 118 -33 118 -90c0 -49 -33 -80 -73 -92c29 -9 51 -30 51 -72c0 -77 -68 -115 -151 -115zM172 203c-37 0 -61 -20 -61 -55c0 -23 19 -36 45 -36c34 0 63 17 63 55
c0 22 -18 36 -47 36zM146 54c-44 0 -70 -26 -70 -59c0 -27 24 -41 53 -41c36 0 69 21 69 57c0 26 -19 43 -52 43z" />
    <glyph glyph-name="uni2089" unicode="&#x2089;" horiz-adv-x="336" 
d="M118 -46c50 0 78 43 88 99c-15 -11 -44 -25 -82 -25c-54 0 -102 28 -102 97c0 80 62 138 152 138c81 0 116 -60 116 -133c0 -124 -52 -236 -177 -236c-86 0 -116 45 -107 99h71c-4 -24 11 -39 41 -39zM216 120c6 45 -5 83 -47 83c-46 0 -70 -32 -70 -72
c0 -28 16 -47 47 -47s57 19 70 36z" />
    <glyph glyph-name="zero.denom" horiz-adv-x="355" 
d="M196 363c82 0 122 -51 122 -134c0 -129 -50 -235 -176 -235c-88 0 -122 56 -122 134c0 134 53 235 176 235zM147 54c62 0 95 61 95 175c0 46 -15 74 -51 74c-58 0 -95 -58 -95 -175c0 -46 15 -74 51 -74z" />
    <glyph glyph-name="one.denom" horiz-adv-x="235" 
d="M75 0l50 281l-98 -35l-9 63l130 48h64l-62 -357h-75z" />
    <glyph glyph-name="two.denom" horiz-adv-x="304" 
d="M168 363c59 0 108 -34 108 -98c0 -57 -42 -98 -95 -143l-74 -64h136l-10 -58h-240l9 50l133 116c40 34 65 62 65 97c0 23 -13 40 -37 40c-34 0 -52 -21 -59 -58h-72c8 71 57 118 136 118z" />
    <glyph glyph-name="three.denom" horiz-adv-x="316" 
d="M208 179c29 -6 54 -31 54 -73c0 -71 -67 -112 -146 -112c-90 0 -122 41 -112 101h71c-5 -25 12 -41 46 -41c35 0 64 21 64 55c0 26 -19 43 -58 43h-37l10 59h36c45 0 71 20 71 56c0 22 -16 36 -43 36c-30 0 -51 -17 -54 -40h-72c10 59 54 100 132 100
c60 0 115 -28 115 -91c0 -54 -36 -84 -77 -93z" />
    <glyph glyph-name="four.denom" horiz-adv-x="328" 
d="M275 69h-43l-11 -69h-74l12 69h-170l9 51l207 237h79l-41 -230h42zM170 127l22 128l-109 -128h87z" />
    <glyph glyph-name="five.denom" horiz-adv-x="310" 
d="M263 133c0 -85 -61 -139 -150 -139c-94 0 -122 44 -111 103h71c-5 -26 11 -43 45 -43c41 0 67 28 67 72c0 26 -17 45 -47 45c-20 0 -40 -8 -54 -17l-57 9l59 194h201l-10 -58h-141l-23 -76c8 3 28 8 51 8c48 0 99 -25 99 -98z" />
    <glyph glyph-name="six.denom" horiz-adv-x="335" 
d="M192 303c-51 0 -78 -44 -88 -99c15 11 43 25 82 25c54 0 101 -28 101 -97c0 -80 -61 -138 -151 -138c-82 0 -117 60 -117 132c0 125 53 237 177 237c86 0 117 -45 108 -100h-71c4 25 -12 40 -41 40zM94 137c-7 -45 5 -83 46 -83c47 0 71 32 71 72c0 27 -16 47 -47 47
c-32 0 -58 -20 -70 -36z" />
    <glyph glyph-name="seven.denom" horiz-adv-x="277" 
d="M190 299h-160l10 58h244l-9 -50l-191 -307h-80z" />
    <glyph glyph-name="eight.denom" horiz-adv-x="336" 
d="M132 -6c-76 0 -124 33 -124 93c0 52 37 87 81 99c-28 11 -46 31 -46 65c0 75 65 112 144 112c75 0 118 -33 118 -90c0 -49 -33 -80 -73 -92c29 -9 51 -30 51 -72c0 -77 -68 -115 -151 -115zM181 303c-37 0 -61 -20 -61 -55c0 -23 19 -36 45 -36c34 0 63 17 63 55
c0 22 -18 36 -47 36zM155 154c-44 0 -70 -26 -70 -59c0 -27 24 -41 53 -41c36 0 69 21 69 57c0 26 -19 43 -52 43z" />
    <glyph glyph-name="nine.denom" horiz-adv-x="335" 
d="M126 54c50 0 79 43 89 99c-15 -11 -44 -25 -83 -25c-54 0 -102 28 -102 97c0 80 62 138 152 138c82 0 117 -60 117 -133c0 -124 -53 -236 -178 -236c-86 0 -116 45 -107 99h71c-4 -24 12 -39 41 -39zM224 220c6 45 -5 83 -47 83c-46 0 -70 -32 -70 -72
c0 -28 16 -47 47 -47s58 19 70 36z" />
    <glyph glyph-name="zero.num" horiz-adv-x="356" 
d="M262 681c82 0 121 -51 121 -133c0 -129 -49 -235 -176 -235c-87 0 -122 56 -122 133c0 134 54 235 177 235zM212 373c63 0 95 60 95 175c0 45 -14 73 -50 73c-59 0 -96 -58 -96 -175c0 -46 15 -73 51 -73z" />
    <glyph glyph-name="one.num" horiz-adv-x="237" 
d="M140 318l50 281l-98 -35l-9 63l130 48h64l-62 -357h-75z" />
    <glyph glyph-name="two.num" horiz-adv-x="305" 
d="M233 681c59 0 108 -34 108 -98c0 -56 -42 -97 -95 -143l-74 -64h136l-10 -58h-240l9 50l134 116c40 34 64 62 64 97c0 23 -13 40 -37 40c-33 0 -52 -21 -59 -57h-72c8 70 57 117 136 117z" />
    <glyph glyph-name="three.num" horiz-adv-x="316" 
d="M273 497c28 -6 53 -31 53 -73c0 -71 -67 -112 -146 -112c-90 0 -122 42 -111 101h70c-4 -25 13 -40 47 -40c35 0 64 21 64 54c0 26 -19 44 -58 44h-37l10 58h35c45 0 72 20 72 56c0 22 -16 36 -43 36c-31 0 -51 -17 -55 -39h-72c10 58 55 99 133 99c59 0 115 -28 115 -91
c0 -53 -36 -84 -77 -93z" />
    <glyph glyph-name="four.num" horiz-adv-x="325" 
d="M337 387h-43l-12 -69h-73l12 69h-170l9 52l207 236h79l-41 -230h42zM231 445l23 128l-109 -128h86z" />
    <glyph glyph-name="five.num" horiz-adv-x="306" 
d="M324 451c0 -85 -61 -139 -150 -139c-94 0 -122 45 -111 103h71c-5 -26 11 -42 44 -42c42 0 68 27 68 71c0 27 -17 45 -47 45c-21 0 -40 -8 -54 -17l-57 9l59 194h201l-10 -58h-141l-23 -76c7 3 27 8 51 8c48 0 99 -25 99 -98z" />
    <glyph glyph-name="six.num" horiz-adv-x="332" 
d="M252 621c-50 0 -78 -43 -88 -99c15 11 44 26 82 26c54 0 102 -29 102 -98c0 -80 -62 -138 -152 -138c-81 0 -116 60 -116 132c0 125 52 237 177 237c86 0 117 -45 107 -99h-71c5 24 -11 39 -41 39zM154 455c-6 -45 6 -82 47 -82c46 0 70 31 70 71c0 27 -16 47 -47 47
s-57 -19 -70 -36z" />
    <glyph glyph-name="seven.num" horiz-adv-x="278" 
d="M255 617h-160l11 58h243l-8 -50l-191 -307h-81z" />
    <glyph glyph-name="eight.num" horiz-adv-x="334" 
d="M194 312c-77 0 -125 33 -125 93c0 52 37 87 81 99c-28 11 -46 32 -46 65c0 75 65 112 144 112c75 0 119 -33 119 -89c0 -50 -33 -81 -73 -93c28 -9 51 -30 51 -72c0 -77 -69 -115 -151 -115zM243 621c-37 0 -62 -20 -62 -55c0 -23 19 -36 46 -36c34 0 62 17 62 55
c0 22 -17 36 -46 36zM216 472c-43 0 -70 -26 -70 -59c0 -26 24 -40 54 -40c36 0 69 20 69 57c0 25 -20 42 -53 42z" />
    <glyph glyph-name="nine.num" horiz-adv-x="333" 
d="M188 372c50 0 78 43 89 99c-15 -11 -44 -25 -83 -25c-54 0 -102 29 -102 97c0 80 62 138 152 138c81 0 116 -60 116 -132c0 -125 -52 -237 -177 -237c-86 0 -116 45 -107 99h71c-4 -24 12 -39 41 -39zM286 538c6 45 -5 83 -47 83c-46 0 -70 -32 -70 -72
c0 -27 16 -47 47 -47s57 19 70 36z" />
    <glyph glyph-name="arrowleft" unicode="&#x2190;" horiz-adv-x="750" 
d="M341 560l57 -57l-178 -178h466v-85h-466l177 -177l-56 -57l-277 277z" />
    <glyph glyph-name="arrowup" unicode="&#x2191;" horiz-adv-x="750" 
d="M672 339l-58 -57l-178 177v-465h-84v465l-178 -176l-57 56l277 277z" />
    <glyph glyph-name="arrowright" unicode="&#x2192;" horiz-adv-x="750" 
d="M432 15l-57 57l177 178h-465v85h465l-176 177l56 57l277 -277z" />
    <glyph glyph-name="arrowdown" unicode="&#x2193;" horiz-adv-x="750" 
d="M100 235l57 57l178 -177v466h85v-466l177 177l57 -57l-277 -277z" />
    <glyph glyph-name="uni2196" unicode="&#x2196;" horiz-adv-x="750" 
d="M555 518v-81h-251l330 -329l-61 -61l-329 330v-251h-81v392h392z" />
    <glyph glyph-name="uni2197" unicode="&#x2197;" horiz-adv-x="750" 
d="M594 126h-80v251l-330 -330l-60 61l329 329h-250v81h391v-392z" />
    <glyph glyph-name="uni2198" unicode="&#x2198;" horiz-adv-x="750" 
d="M212 57v81h252l-330 329l60 61l330 -330v251h81v-392h-393z" />
    <glyph glyph-name="uni2199" unicode="&#x2199;" horiz-adv-x="750" 
d="M179 449h81v-251l330 330l60 -61l-329 -329h250v-81h-392v392z" />
    <glyph glyph-name="parenleft.case" horiz-adv-x="290" 
d="M136 -122c-42 94 -72 215 -72 330c0 270 87 432 226 596l78 -29c-115 -174 -200 -331 -200 -573c0 -89 16 -203 45 -295z" />
    <glyph glyph-name="parenright.case" horiz-adv-x="292" 
d="M-18 -93c155 231 196 369 196 563c0 98 -18 216 -45 305l78 29c40 -95 72 -210 72 -332c0 -247 -80 -421 -231 -594z" />
    <glyph glyph-name="hyphen.case" horiz-adv-x="407" 
d="M363 373v-85h-272v85h272z" />
    <glyph glyph-name="bracketleft.case" horiz-adv-x="318" 
d="M389 790l-15 -84h-115l-130 -738h115l-14 -84h-218l159 906h218z" />
    <glyph glyph-name="bracketright.case" horiz-adv-x="321" 
d="M363 790l-160 -906h-218l15 84h116l130 738h-115l14 84h218z" />
    <glyph glyph-name="braceleft.case" horiz-adv-x="316" 
d="M262 447c-16 -89 -45 -103 -74 -111c26 -15 47 -51 34 -112l-36 -204c-9 -48 8 -63 48 -63l-13 -73c-110 0 -153 44 -135 143l33 190c11 60 -14 82 -74 82l14 76c60 0 93 27 104 91l34 192c19 105 63 132 184 132l-15 -80c-41 0 -61 -15 -69 -63z" />
    <glyph glyph-name="bar.case" horiz-adv-x="261" 
d="M125 -116v906h68v-906h-68z" />
    <glyph glyph-name="braceright.case" horiz-adv-x="312" 
d="M107 230c16 89 46 107 75 114c-26 15 -48 48 -35 109l36 201c9 48 -8 63 -48 63l13 73c110 0 153 -48 136 -146l-34 -187c-11 -60 14 -82 74 -82l-14 -76c-60 0 -91 -20 -103 -84l-35 -200c-19 -106 -63 -131 -184 -131l15 80c41 0 61 15 69 63z" />
    <glyph glyph-name="guilsinglleft.case" horiz-adv-x="333" 
d="M284 552l52 -52l-158 -177l95 -177l-67 -39l-142 223z" />
    <glyph glyph-name="guilsinglright.case" horiz-adv-x="335" 
d="M104 107l-51 52l157 177l-95 178l68 38l142 -223z" />
    <glyph glyph-name="guillemotleft.case" horiz-adv-x="526" 
d="M280 552l52 -52l-157 -177l95 -177l-68 -39l-142 223zM477 552l51 -52l-157 -177l95 -177l-67 -39l-143 223z" />
    <glyph glyph-name="guillemotright.case" horiz-adv-x="532" 
d="M104 107l-51 52l157 177l-95 178l68 38l142 -223zM301 107l-51 52l157 177l-95 178l67 38l143 -223z" />
    <glyph glyph-name="endash.case" horiz-adv-x="607" 
d="M563 373v-85h-473v85h473z" />
    <glyph glyph-name="emdash.case" horiz-adv-x="751" 
d="M707 373v-85h-613v85h613z" />
    <glyph glyph-name="bullet.case" horiz-adv-x="389" 
d="M220 210c-72 0 -125 50 -125 119s53 120 125 120c73 0 125 -51 125 -120s-52 -119 -125 -119z" />
    <glyph glyph-name="periodcentered.case" horiz-adv-x="257" 
d="M153 302c-38 0 -65 28 -65 61c0 48 37 81 85 81c36 0 62 -28 62 -63c0 -47 -37 -79 -82 -79z" />
    <glyph glyph-name="circle" unicode="&#x25cb;" horiz-adv-x="780" 
d="M71 338c0 206 140 348 339 348c200 0 340 -142 340 -348c0 -205 -140 -349 -340 -349c-199 0 -339 144 -339 349zM143 338c0 -172 105 -279 267 -279s267 107 267 279s-105 278 -267 278s-267 -106 -267 -278z" />
    <glyph glyph-name="brokenbar.sc" horiz-adv-x="251" 
d="M98 290v292h58v-292h-58zM156 188v-290h-58v290h58z" />
    <glyph glyph-name="uni1EB8" unicode="&#x1eb8;" horiz-adv-x="523" 
d="M456 89l-16 -89h-405l119 676h402l-15 -89h-296l-35 -200h258l-16 -88h-258l-37 -210h299zM204 -185c-31 0 -56 15 -56 52c0 52 33 73 74 73c28 0 54 -19 54 -53c0 -51 -35 -72 -72 -72z" />
    <glyph glyph-name="Gcaron" unicode="&#x1e6;" horiz-adv-x="629" 
d="M353 756l-68 160h86l40 -96l73 96h91l-123 -160h-99zM359 364h250c-1 -16 -3 -37 -4 -46c-15 -158 -93 -328 -308 -328c-149 0 -235 100 -235 259c0 294 138 437 351 437c110 0 174 -49 201 -118l-85 -51c-20 49 -57 77 -124 77c-147 0 -233 -116 -233 -341
c0 -110 44 -172 134 -172c119 0 173 99 183 194h-146z" />
    <glyph glyph-name="uni021E" unicode="&#x21e;" horiz-adv-x="655" 
d="M367 756l-68 160h86l40 -96l73 96h91l-123 -160h-99zM553 676h107l-120 -676h-107l55 308h-293l-53 -308h-107l119 676h107l-50 -279h293z" />
    <glyph glyph-name="uni1E24" unicode="&#x1e24;" horiz-adv-x="655" 
d="M553 676h107l-120 -676h-107l55 308h-293l-53 -308h-107l119 676h107l-50 -279h293zM267 -185c-31 0 -56 15 -56 52c0 52 33 73 74 73c28 0 54 -19 54 -53c0 -51 -35 -72 -72 -72z" />
    <glyph glyph-name="uni1ECA" unicode="&#x1eca;" horiz-adv-x="257" 
d="M154 676h107l-119 -676h-107zM68 -185c-31 0 -56 15 -56 52c0 52 33 73 74 73c28 0 54 -19 54 -53c0 -51 -35 -72 -72 -72z" />
    <glyph glyph-name="uni1E36" unicode="&#x1e36;" horiz-adv-x="460" 
d="M419 89l-15 -89h-369l119 676h107l-104 -587h262zM170 -185c-31 0 -56 15 -56 52c0 52 33 73 74 73c28 0 54 -19 54 -53c0 -51 -35 -72 -72 -72z" />
    <glyph glyph-name="uni1E44" unicode="&#x1e44;" horiz-adv-x="656" 
d="M437 749c-31 0 -56 15 -56 52c0 52 33 73 74 73c28 0 54 -19 54 -53c0 -51 -35 -72 -72 -72zM554 676h107l-120 -676h-114l-197 501l-87 -501h-109l121 676h117l195 -496z" />
    <glyph glyph-name="uni1ECC" unicode="&#x1ecc;" horiz-adv-x="645" 
d="M622 429c0 -234 -88 -439 -335 -439c-149 0 -225 103 -225 254c0 238 86 442 335 442c158 0 225 -110 225 -257zM172 244c0 -92 33 -162 124 -162c125 0 216 104 216 347c0 93 -33 165 -124 165c-154 0 -216 -152 -216 -350zM262 -185c-31 0 -56 15 -56 52
c0 52 33 73 74 73c28 0 54 -19 54 -53c0 -51 -35 -72 -72 -72z" />
    <glyph glyph-name="uni1E62" unicode="&#x1e62;" horiz-adv-x="525" 
d="M457 529c-18 42 -59 65 -121 65c-79 0 -125 -51 -125 -120c0 -39 26 -64 68 -79l70 -26c68 -26 130 -67 130 -158c0 -129 -95 -222 -256 -222c-145 0 -193 74 -210 128l82 57c15 -50 42 -93 136 -93c88 0 136 47 136 118c0 44 -32 67 -74 83l-74 27
c-67 26 -121 73 -121 156c0 116 81 221 245 221c110 0 172 -48 195 -100zM203 -185c-31 0 -56 15 -56 52c0 52 33 73 74 73c28 0 54 -19 54 -53c0 -51 -35 -72 -72 -72z" />
    <glyph glyph-name="uni1E9E" unicode="&#x1e9e;" horiz-adv-x="640" 
d="M611 608l-14 -76l-178 -158l59 -27c70 -31 112 -83 112 -156c0 -119 -79 -200 -214 -200c-109 0 -164 51 -186 95l73 69c18 -38 53 -72 114 -72c65 0 99 40 99 96c0 44 -18 70 -62 90l-123 56l12 68l191 170c-33 19 -73 31 -121 31c-100 0 -141 -57 -160 -168l-76 -426
h-107l79 441c31 178 124 245 274 245c94 0 179 -36 228 -78z" />
    <glyph glyph-name="uni0162" unicode="&#x162;" horiz-adv-x="519" 
d="M107 676h462l-16 -89h-177l-104 -587h-19l-29 -52c43 0 74 -20 74 -66c0 -62 -47 -98 -118 -98c-36 0 -66 10 -88 23l11 63c20 -17 49 -27 76 -27c26 0 39 12 39 30s-14 24 -40 24h-39l-4 7l52 96h-22l104 587h-177z" />
    <glyph glyph-name="uni01D3" unicode="&#x1d3;" horiz-adv-x="624" 
d="M343 739l-68 160h86l40 -96l73 96h91l-123 -160h-99zM281 -10c-148 0 -240 76 -207 265l74 421h107l-74 -420c-21 -122 14 -174 106 -174c91 0 145 52 167 174l73 420h107l-74 -421c-33 -190 -135 -265 -279 -265z" />
    <glyph glyph-name="uni1EE4" unicode="&#x1ee4;" horiz-adv-x="624" 
d="M281 -10c-148 0 -240 76 -207 265l74 421h107l-74 -420c-21 -122 14 -174 106 -174c91 0 145 52 167 174l73 420h107l-74 -421c-33 -190 -135 -265 -279 -265zM252 -185c-31 0 -56 15 -56 52c0 52 33 73 74 73c28 0 54 -19 54 -53c0 -51 -35 -72 -72 -72z" />
    <glyph glyph-name="uni1EB9" unicode="&#x1eb9;" horiz-adv-x="456" 
d="M223 74c39 0 82 16 119 47l37 -70c-36 -33 -94 -61 -163 -61c-130 0 -180 79 -180 182c0 164 94 294 235 294c107 0 159 -72 159 -157c0 -43 -14 -86 -24 -112h-269c-11 -73 13 -123 86 -123zM332 269c2 7 7 16 7 39c0 48 -29 77 -72 77c-66 0 -103 -51 -118 -116h183z
M168 -185c-31 0 -56 15 -56 52c0 52 33 73 74 73c28 0 54 -19 54 -53c0 -51 -35 -72 -72 -72z" />
    <glyph glyph-name="gcaron" unicode="&#x1e7;" 
d="M248 536l-68 160h86l40 -96l73 96h91l-123 -160h-99zM481 456l-86 -488c-18 -102 -97 -173 -213 -173c-119 0 -172 64 -159 144h87c-5 -32 17 -65 78 -65c59 0 97 35 107 89l13 73c-25 -24 -64 -46 -112 -46c-110 0 -157 70 -157 181c0 180 83 295 224 295
c61 0 99 -25 117 -52l7 42h94zM140 183c0 -55 22 -102 84 -102c39 0 76 19 99 44l37 207c-13 21 -40 43 -83 43c-92 0 -137 -81 -137 -192z" />
    <glyph glyph-name="uni021F" unicode="&#x21f;" 
d="M289 731l-68 160h86l40 -96l73 96h91l-123 -160h-99zM144 690h98l-47 -274c27 25 76 50 133 50c103 0 147 -62 127 -178l-51 -288h-98l49 278c11 66 -5 97 -70 97c-41 0 -82 -22 -106 -44l-59 -331h-98z" />
    <glyph glyph-name="uni1E25" unicode="&#x1e25;" 
d="M144 690h98l-47 -274c27 25 76 50 133 50c103 0 147 -62 127 -178l-51 -288h-98l49 278c11 66 -5 97 -70 97c-41 0 -82 -22 -106 -44l-59 -331h-98zM191 -185c-31 0 -56 15 -56 52c0 52 33 73 74 73c28 0 54 -19 54 -53c0 -51 -35 -72 -72 -72z" />
    <glyph glyph-name="uni1ECB" unicode="&#x1ecb;" horiz-adv-x="222" 
d="M167 555c-31 0 -53 15 -53 49c0 52 34 76 75 76c28 0 53 -16 53 -51c0 -53 -39 -74 -75 -74zM102 456h99l-81 -456h-99zM51 -185c-31 0 -56 15 -56 52c0 52 33 73 74 73c28 0 54 -19 54 -53c0 -51 -35 -72 -72 -72z" />
    <glyph glyph-name="uni1E37" unicode="&#x1e37;" horiz-adv-x="240" 
d="M240 690l-98 -552c-6 -38 1 -50 29 -50h25l-16 -91h-47c-84 0 -104 50 -91 129l99 564h99zM60 -185c-31 0 -56 15 -56 52c0 52 33 73 74 73c28 0 54 -19 54 -53c0 -51 -35 -72 -72 -72z" />
    <glyph glyph-name="uni1E45" unicode="&#x1e45;" 
d="M319 545c-31 0 -56 15 -56 52c0 52 33 73 74 73c28 0 54 -19 54 -53c0 -51 -35 -72 -72 -72zM102 456h96l-8 -46c28 28 76 56 138 56c101 0 148 -60 127 -178l-51 -288h-99l50 278c11 66 -6 97 -71 97c-40 0 -82 -20 -106 -44l-58 -331h-99z" />
    <glyph glyph-name="uni1ECD" unicode="&#x1ecd;" horiz-adv-x="488" 
d="M278 466c121 0 173 -78 173 -188c0 -153 -83 -288 -241 -288c-120 0 -172 80 -172 189c0 153 83 287 240 287zM216 79c89 0 134 98 134 199c0 62 -23 99 -79 99c-87 0 -132 -94 -132 -198c0 -62 23 -100 77 -100zM184 -185c-31 0 -56 15 -56 52c0 52 33 73 74 73
c28 0 54 -19 54 -53c0 -51 -35 -72 -72 -72z" />
    <glyph glyph-name="uni1E63" unicode="&#x1e63;" horiz-adv-x="418" 
d="M342 342c-20 28 -57 48 -102 48c-56 0 -80 -31 -80 -66c0 -22 13 -39 48 -50l52 -17c71 -21 108 -59 108 -115c0 -78 -59 -152 -199 -152c-93 0 -144 43 -166 77l65 57c19 -29 49 -59 108 -59c50 0 89 22 89 64c0 26 -17 40 -57 52l-56 19c-59 19 -94 58 -94 112
c0 69 51 154 190 154c78 0 132 -35 156 -65zM149 -185c-31 0 -56 15 -56 52c0 52 33 73 74 73c28 0 54 -19 54 -53c0 -51 -35 -72 -72 -72z" />
    <glyph glyph-name="uni0163" unicode="&#x163;" horiz-adv-x="326" 
d="M225 372l-41 -232c-7 -41 7 -59 42 -59c16 0 38 5 57 11l-11 -86c-21 -9 -52 -16 -81 -16l-23 -42c42 0 73 -20 73 -66c0 -62 -47 -98 -118 -98c-36 0 -65 10 -88 23l12 63c19 -17 48 -27 76 -27c25 0 39 12 39 30s-15 24 -40 24h-39l-4 7l51 97c-45 20 -57 67 -47 127
l43 244h-80l13 74l82 10l20 113l102 16l-23 -129h104l-14 -84h-105z" />
    <glyph glyph-name="uni01D4" unicode="&#x1d4;" 
d="M242 536l-68 160h86l40 -96l73 96h91l-123 -160h-99zM400 0h-96l8 46c-28 -28 -76 -56 -138 -56c-101 0 -148 60 -127 178l51 288h99l-50 -278c-11 -66 5 -97 71 -97c40 0 82 20 106 44l58 331h99z" />
    <glyph glyph-name="uni1EE5" unicode="&#x1ee5;" 
d="M400 0h-96l8 46c-28 -28 -76 -56 -138 -56c-101 0 -148 60 -127 178l51 288h99l-50 -278c-11 -66 5 -97 71 -97c40 0 82 20 106 44l58 331h99zM172 -185c-31 0 -56 15 -56 52c0 52 33 73 74 73c28 0 54 -19 54 -53c0 -51 -35 -72 -72 -72z" />
    <glyph glyph-name="uni0163.sc" horiz-adv-x="440" 
d="M78 507h380l-14 -79h-139l-76 -428h-15l-29 -52c43 0 74 -20 74 -66c0 -62 -47 -98 -118 -98c-36 0 -66 10 -88 23l11 63c20 -17 49 -27 76 -27c26 0 39 12 39 30s-14 24 -40 24h-39l-4 7l52 96h-19l76 428h-140z" />
    <glyph glyph-name="uni0410" unicode="&#x410;" horiz-adv-x="590" 
d="M411 166h-245l-81 -166h-119l347 676h123l109 -676h-112zM209 255h191l-40 311z" />
    <glyph glyph-name="uni0411" unicode="&#x411;" horiz-adv-x="562" 
d="M311 408c126 0 206 -70 206 -181c0 -139 -90 -227 -263 -227h-219l119 676h375l-15 -89h-268l-31 -179h96zM263 89c98 0 141 53 141 132c0 60 -34 98 -109 98h-96l-41 -230h105z" />
    <glyph glyph-name="uni0412" unicode="&#x412;" horiz-adv-x="571" 
d="M154 676h208c115 0 184 -53 184 -151c0 -96 -56 -157 -123 -174c55 -15 100 -59 100 -138c0 -159 -106 -213 -274 -213h-214zM303 393c103 0 130 56 130 121c0 44 -27 73 -96 73h-92l-34 -194h92zM262 89c115 0 151 47 151 130c0 51 -32 86 -112 86h-106l-38 -216h105z
" />
    <glyph glyph-name="uni0413" unicode="&#x413;" horiz-adv-x="486" 
d="M154 676h385l-16 -89h-278l-103 -587h-107z" />
    <glyph glyph-name="uni0403" unicode="&#x403;" horiz-adv-x="486" 
d="M548 916l-110 -160h-93l99 160h104zM154 676h385l-16 -89h-278l-103 -587h-107z" />
    <glyph glyph-name="uni0490" unicode="&#x490;" 
d="M35 0l119 676h294l22 124h106l-38 -213h-293l-103 -587h-107z" />
    <glyph glyph-name="uni0414" unicode="&#x414;" horiz-adv-x="647" 
d="M-58 -123l38 212h46c35 19 62 81 90 196l96 391h426l-103 -587h67l-37 -212h-106l21 123h-409l-22 -123h-107zM150 89h278l88 498h-219l-80 -328c-18 -75 -40 -131 -67 -170z" />
    <glyph glyph-name="uni0415" unicode="&#x415;" horiz-adv-x="523" 
d="M456 89l-16 -89h-405l119 676h402l-15 -89h-296l-35 -200h258l-16 -88h-258l-37 -210h299z" />
    <glyph glyph-name="uni0400" unicode="&#x400;" horiz-adv-x="523" 
d="M360 916l42 -160h-84l-55 160h97zM456 89l-16 -89h-405l119 676h402l-15 -89h-296l-35 -200h258l-16 -88h-258l-37 -210h299z" />
    <glyph glyph-name="uni0401" unicode="&#x401;" horiz-adv-x="523" 
d="M270 765c-33 0 -55 17 -55 51c0 50 29 74 71 74c28 0 56 -17 56 -52c0 -53 -36 -73 -72 -73zM451 765c-33 0 -55 17 -55 51c0 50 30 74 71 74c28 0 56 -17 56 -52c0 -53 -36 -73 -72 -73zM456 89l-16 -89h-405l119 676h402l-15 -89h-296l-35 -200h258l-16 -88h-258
l-37 -210h299z" />
    <glyph glyph-name="uni0416" unicode="&#x416;" horiz-adv-x="871" 
d="M936 676l-285 -343l168 -333h-122l-142 295h-54l-52 -295h-107l52 295h-54l-236 -295h-132l288 351l-164 325h115l144 -293h55l51 293h107l-51 -293h54l238 293h127z" />
    <glyph glyph-name="uni0417" unicode="&#x417;" horiz-adv-x="522" 
d="M368 342c51 -13 105 -58 105 -140c0 -124 -101 -213 -259 -213c-152 0 -214 82 -198 182h100c-10 -55 32 -92 104 -92c86 0 146 50 146 127c0 61 -50 96 -124 96h-64l14 87h64c91 0 154 44 154 124c0 50 -35 84 -97 84c-76 0 -120 -41 -127 -92h-102
c11 98 84 182 236 182c120 0 199 -69 199 -166c0 -103 -82 -165 -151 -179z" />
    <glyph glyph-name="uni0418" unicode="&#x418;" horiz-adv-x="679" 
d="M559 676h113l-120 -676h-107l87 490l-398 -490h-111l120 676h107l-86 -487z" />
    <glyph glyph-name="uni0419" unicode="&#x419;" horiz-adv-x="679" 
d="M396 761c-90 0 -133 63 -119 144h73c-7 -45 9 -78 52 -78c46 0 71 33 78 78h75c-14 -81 -65 -144 -159 -144zM559 676h113l-120 -676h-107l87 490l-398 -490h-111l120 676h107l-86 -487z" />
    <glyph glyph-name="uni040D" unicode="&#x40d;" horiz-adv-x="679" 
d="M445 756h-84l-55 160h97zM559 676h113l-120 -676h-107l87 490l-398 -490h-111l120 676h107l-86 -487z" />
    <glyph glyph-name="uni041A" unicode="&#x41a;" horiz-adv-x="563" 
d="M35 0l119 676h107l-52 -293h60l233 293h129l-281 -342l160 -334h-121l-132 295h-64l-51 -295h-107z" />
    <glyph glyph-name="uni040C" unicode="&#x40c;" horiz-adv-x="563" 
d="M519 916l-110 -160h-93l99 160h104zM35 0l119 676h107l-52 -293h60l233 293h129l-281 -342l160 -334h-121l-132 295h-64l-51 -295h-107z" />
    <glyph glyph-name="uni041B" unicode="&#x41b;" horiz-adv-x="654" 
d="M-3 87c7 -3 17 -5 29 -5c42 0 71 43 106 186l99 408h427l-119 -676h-107l103 587h-218l-83 -341c-49 -201 -108 -256 -195 -256c-31 0 -52 5 -61 11z" />
    <glyph glyph-name="uni041C" unicode="&#x41c;" horiz-adv-x="823" 
d="M637 676h146l-44 -676h-102l42 551l-251 -551h-116l-51 548l-157 -548h-102l200 676h139l50 -543z" />
    <glyph glyph-name="uni041D" unicode="&#x41d;" horiz-adv-x="655" 
d="M553 676h107l-120 -676h-107l55 308h-293l-53 -308h-107l119 676h107l-50 -279h293z" />
    <glyph glyph-name="uni041E" unicode="&#x41e;" horiz-adv-x="645" 
d="M622 429c0 -234 -88 -439 -335 -439c-149 0 -225 103 -225 254c0 238 86 442 335 442c158 0 225 -110 225 -257zM172 244c0 -92 33 -162 124 -162c125 0 216 104 216 347c0 93 -33 165 -124 165c-154 0 -216 -152 -216 -350z" />
    <glyph glyph-name="uni041F" unicode="&#x41f;" horiz-adv-x="639" 
d="M643 676l-119 -676h-107l103 587h-275l-103 -587h-107l119 676h489z" />
    <glyph glyph-name="uni0420" unicode="&#x420;" horiz-adv-x="554" 
d="M186 257l-44 -257h-107l119 676h214c126 0 194 -68 194 -177c0 -152 -92 -242 -265 -242h-111zM202 346h102c115 0 146 70 146 149c0 53 -28 92 -103 92h-102z" />
    <glyph glyph-name="uni0421" unicode="&#x421;" horiz-adv-x="572" 
d="M173 258c0 -102 39 -176 131 -176c58 0 110 36 143 83l78 -56c-52 -68 -123 -119 -233 -119c-152 0 -230 108 -230 264c0 270 122 432 337 432c105 0 176 -51 202 -123l-87 -50c-16 48 -61 81 -119 81c-143 0 -222 -130 -222 -336z" />
    <glyph glyph-name="uni0422" unicode="&#x422;" horiz-adv-x="519" 
d="M569 676l-16 -89h-177l-104 -587h-107l104 587h-177l15 89h462z" />
    <glyph glyph-name="uni0423" unicode="&#x423;" horiz-adv-x="532" 
d="M487 676h119l-424 -676h-117l159 254l-132 422h108l95 -319z" />
    <glyph glyph-name="uni040E" unicode="&#x40e;" horiz-adv-x="532" 
d="M352 761c-90 0 -133 63 -119 144h73c-7 -45 9 -78 52 -78c46 0 71 33 78 78h75c-14 -81 -65 -144 -159 -144zM487 676h119l-424 -676h-117l159 254l-132 422h108l95 -319z" />
    <glyph glyph-name="uni0424" unicode="&#x424;" horiz-adv-x="731" 
d="M58 290c0 212 122 330 324 334l13 72h107l-13 -72c139 -4 223 -100 223 -237c0 -213 -123 -331 -324 -335l-12 -72h-107l12 72c-133 4 -223 97 -223 238zM169 292c0 -87 43 -145 130 -148l68 388c-126 -4 -198 -87 -198 -240zM404 144c127 4 197 84 197 236
c0 88 -43 148 -129 152z" />
    <glyph glyph-name="uni0425" unicode="&#x425;" horiz-adv-x="562" 
d="M215 676l95 -256l185 256h126l-247 -327l135 -349h-114l-100 271l-194 -271h-127l258 349l-132 327h115z" />
    <glyph glyph-name="uni0427" unicode="&#x427;" horiz-adv-x="557" 
d="M454 676h107l-119 -676h-107l48 271c-30 -12 -77 -24 -139 -24c-120 0 -184 73 -161 199l41 230h106l-40 -223c-12 -68 12 -111 95 -111c49 0 90 10 114 22z" />
    <glyph glyph-name="uni0426" unicode="&#x426;" horiz-adv-x="653" 
d="M35 0l119 676h107l-104 -587h276l103 587h107l-103 -587h67l-37 -212h-106l21 123h-450z" />
    <glyph glyph-name="uni0428" unicode="&#x428;" horiz-adv-x="1003" 
d="M35 0l119 676h107l-104 -587h267l103 587h107l-103 -587h267l103 587h107l-119 -676h-854z" />
    <glyph glyph-name="uni0429" unicode="&#x429;" horiz-adv-x="1017" 
d="M1008 676l-103 -587h67l-37 -212h-106l21 123h-815l119 676h107l-104 -587h267l103 587h107l-103 -587h267l103 587h107z" />
    <glyph glyph-name="uni040F" unicode="&#x40f;" horiz-adv-x="639" 
d="M643 676l-119 -676h-182l-22 -123h-107l22 123h-200l119 676h107l-104 -587h276l103 587h107z" />
    <glyph glyph-name="uni042C" unicode="&#x42c;" horiz-adv-x="552" 
d="M214 408h96c126 0 206 -70 206 -181c0 -139 -90 -227 -263 -227h-218l119 676h107zM198 319l-41 -230h105c98 0 142 53 142 132c0 60 -35 98 -110 98h-96z" />
    <glyph glyph-name="uni042A" unicode="&#x42a;" horiz-adv-x="658" 
d="M416 408c126 0 206 -70 206 -181c0 -139 -90 -227 -263 -227h-218l103 587h-152l15 89h260l-47 -268h96zM368 89c98 0 142 53 142 132c0 60 -35 98 -110 98h-96l-41 -230h105z" />
    <glyph glyph-name="uni042B" unicode="&#x42b;" horiz-adv-x="807" 
d="M214 408h96c126 0 206 -70 206 -181c0 -139 -90 -227 -263 -227h-218l119 676h107zM704 676h107l-119 -676h-107zM198 319l-41 -230h105c98 0 142 53 142 132c0 60 -35 98 -110 98h-96z" />
    <glyph glyph-name="uni0409" unicode="&#x409;" horiz-adv-x="949" 
d="M707 408c126 0 206 -70 206 -181c0 -139 -90 -227 -263 -227h-218l103 587h-218l-83 -341c-49 -201 -108 -256 -195 -256c-31 0 -52 5 -61 11l19 86c7 -3 17 -5 29 -5c42 0 71 43 106 186l99 408h427l-47 -268h96zM659 89c98 0 142 53 142 132c0 60 -35 98 -110 98h-96
l-40 -230h104z" />
    <glyph glyph-name="uni040A" unicode="&#x40a;" horiz-adv-x="950" 
d="M708 408c127 0 206 -70 206 -181c0 -139 -89 -227 -262 -227h-219l54 308h-292l-53 -308h-107l119 676h107l-50 -279h292l49 279h108l-48 -268h96zM660 89c99 0 142 53 142 132c0 60 -35 98 -109 98h-96l-41 -230h104z" />
    <glyph glyph-name="uni0405" unicode="&#x405;" horiz-adv-x="525" 
d="M457 529c-18 42 -59 65 -121 65c-79 0 -125 -51 -125 -120c0 -39 26 -64 68 -79l70 -26c68 -26 130 -67 130 -158c0 -129 -95 -222 -256 -222c-145 0 -193 74 -210 128l82 57c15 -50 42 -93 136 -93c88 0 136 47 136 118c0 44 -32 67 -74 83l-74 27
c-67 26 -121 73 -121 156c0 116 81 221 245 221c110 0 172 -48 195 -100z" />
    <glyph glyph-name="uni0404" unicode="&#x404;" horiz-adv-x="572" 
d="M304 82c58 0 110 36 143 83l78 -56c-52 -68 -123 -119 -233 -119c-152 0 -230 108 -230 264c0 270 122 432 337 432c105 0 176 -51 202 -123l-87 -50c-16 48 -61 81 -119 81c-110 0 -182 -76 -209 -205h243l-15 -88h-240c-1 -14 -1 -28 -1 -43c0 -102 39 -176 131 -176z
" />
    <glyph glyph-name="uni042D" unicode="&#x42d;" horiz-adv-x="559" 
d="M319 686c182 0 250 -144 214 -348c-39 -221 -148 -348 -330 -348c-107 0 -171 52 -197 123l90 51c16 -47 59 -82 120 -82c105 0 168 84 199 219h-254l16 88h253c10 123 -29 205 -129 205c-59 0 -111 -35 -143 -83l-73 52c51 72 130 123 234 123z" />
    <glyph glyph-name="uni0406" unicode="&#x406;" horiz-adv-x="257" 
d="M154 676h107l-119 -676h-107z" />
    <glyph glyph-name="uni0407" unicode="&#x407;" horiz-adv-x="257" 
d="M130 749c-33 0 -55 17 -55 51c0 50 29 74 71 74c28 0 56 -17 56 -52c0 -53 -36 -73 -72 -73zM311 749c-33 0 -55 17 -55 51c0 50 30 74 71 74c28 0 56 -17 56 -52c0 -53 -36 -73 -72 -73zM154 676h107l-119 -676h-107z" />
    <glyph glyph-name="uni0408" unicode="&#x408;" horiz-adv-x="469" 
d="M82 146c12 -42 37 -64 86 -64c77 0 113 49 131 153l78 441h102l-80 -449c-28 -161 -101 -237 -238 -237c-92 0 -148 43 -167 106z" />
    <glyph glyph-name="uni040B" unicode="&#x40b;" horiz-adv-x="693" 
d="M488 429c120 0 184 -73 161 -199l-41 -230h-106l40 223c12 68 -12 111 -95 111c-49 0 -90 -10 -114 -22l-55 -312h-107l103 587h-183l16 89h484l-16 -89h-194l-32 -182c30 12 77 24 139 24z" />
    <glyph glyph-name="uni042E" unicode="&#x42e;" horiz-adv-x="881" 
d="M634 686c158 0 224 -110 224 -257c0 -234 -87 -439 -334 -439c-149 0 -225 103 -225 254c0 20 1 40 2 59h-105l-53 -303h-107l119 676h107l-51 -288h100c31 171 126 298 323 298zM533 82c125 0 216 104 216 347c0 93 -33 165 -124 165c-154 0 -216 -152 -216 -350
c0 -92 32 -162 124 -162z" />
    <glyph glyph-name="uni042F" unicode="&#x42f;" horiz-adv-x="571" 
d="M328 676h248l-126 -676h-107l54 287h-100l-196 -287h-127l216 303c-75 25 -114 84 -114 167c0 123 82 206 252 206zM413 376l39 211h-130c-92 0 -135 -42 -135 -114c0 -68 37 -97 118 -97h108z" />
    <glyph glyph-name="uni0402" unicode="&#x402;" horiz-adv-x="705" 
d="M461 426c140 0 205 -80 205 -190c0 -147 -91 -241 -234 -241c-38 0 -64 6 -84 12l24 87c16 -4 34 -7 51 -7c79 0 131 44 131 138c0 58 -33 109 -122 109c-45 0 -90 -10 -116 -21l-55 -313h-107l104 587h-167l16 89h467l-16 -89h-193l-32 -181c26 9 70 20 128 20z" />
    <glyph glyph-name="uni0492" unicode="&#x492;" horiz-adv-x="513" 
d="M523 587h-278l-41 -233h172l-15 -85h-172l-47 -269h-107l47 269h-73l15 85h73l57 322h385z" />
    <glyph glyph-name="uni049A" unicode="&#x49a;" horiz-adv-x="563" 
d="M350 334l117 -245h82l-37 -212h-107l22 123h-38l-132 295h-64l-51 -295h-107l119 676h107l-52 -293h60l233 293h129z" />
    <glyph glyph-name="uni04B2" unicode="&#x4b2;" horiz-adv-x="562" 
d="M374 349l101 -260h82l-37 -212h-107l22 123h-40l-100 271l-194 -271h-127l258 349l-132 327h115l95 -256l185 256h126z" />
    <glyph glyph-name="uni04D4" unicode="&#x4d4;" horiz-adv-x="911" 
d="M-34 0l515 676h464l-16 -89h-296l-35 -200h258l-15 -88h-258l-38 -214h298l-14 -85h-407l30 167h-232l-127 -167h-127zM467 254l59 326l-245 -326h186z" />
    <glyph glyph-name="uni0430" unicode="&#x430;" horiz-adv-x="504" 
d="M384 456h99l-80 -456h-95l7 39c-29 -28 -68 -49 -122 -49c-101 0 -154 66 -154 182c0 188 90 294 221 294c59 0 99 -26 117 -49zM141 184c0 -60 22 -103 85 -103c45 0 79 21 101 44l36 206c-13 20 -39 44 -85 44c-99 0 -137 -87 -137 -191z" />
    <glyph glyph-name="uni0431" unicode="&#x431;" horiz-adv-x="487" 
d="M342 550c-99 -20 -144 -68 -174 -168c33 42 79 62 128 62c94 0 153 -66 153 -175c0 -166 -97 -279 -235 -279c-111 0 -169 68 -169 196c0 209 71 406 256 446c96 19 104 32 106 58h91c2 -74 -22 -113 -156 -140zM266 356c-70 0 -123 -79 -123 -184c0 -61 25 -94 82 -94
c69 0 123 78 123 182c0 63 -29 96 -82 96z" />
    <glyph glyph-name="uni0432" unicode="&#x432;" horiz-adv-x="447" 
d="M21 0l80 456h164c114 0 149 -48 149 -107c0 -52 -33 -95 -79 -109c39 -15 66 -49 66 -97c0 -88 -54 -143 -184 -143h-196zM167 270h66c46 0 78 23 78 65c0 36 -26 46 -69 46h-55zM133 75h83c45 0 84 20 84 72c0 35 -29 51 -74 51h-71z" />
    <glyph glyph-name="uni0433" unicode="&#x433;" horiz-adv-x="382" 
d="M101 456h305l-15 -84h-206l-65 -372h-99z" />
    <glyph glyph-name="uni0453" unicode="&#x453;" horiz-adv-x="382" 
d="M408 696l-110 -160h-93l99 160h104zM101 456h305l-15 -84h-206l-65 -372h-99z" />
    <glyph glyph-name="uni0491" unicode="&#x491;" horiz-adv-x="391" 
d="M21 0l80 456h216l20 117h99l-35 -201h-216l-65 -372h-99z" />
    <glyph glyph-name="uni0434" unicode="&#x434;" horiz-adv-x="518" 
d="M-49 -117l36 201h41c24 17 44 57 65 141l58 231h334l-65 -372h61l-35 -201h-99l20 117h-297l-20 -117h-99zM135 84h186l51 288h-144l-42 -166c-12 -47 -28 -90 -51 -122z" />
    <glyph glyph-name="uni0435" unicode="&#x435;" horiz-adv-x="456" 
d="M223 74c39 0 82 16 119 47l37 -70c-36 -33 -94 -61 -163 -61c-130 0 -180 79 -180 182c0 164 94 294 235 294c107 0 159 -72 159 -157c0 -43 -14 -86 -24 -112h-269c-11 -73 13 -123 86 -123zM332 269c2 7 7 16 7 39c0 48 -29 77 -72 77c-66 0 -103 -51 -118 -116h183z
" />
    <glyph glyph-name="uni0450" unicode="&#x450;" horiz-adv-x="456" 
d="M283 696l42 -160h-84l-55 160h97zM223 74c39 0 82 16 119 47l37 -70c-36 -33 -94 -61 -163 -61c-130 0 -180 79 -180 182c0 164 94 294 235 294c107 0 159 -72 159 -157c0 -43 -14 -86 -24 -112h-269c-11 -73 13 -123 86 -123zM332 269c2 7 7 16 7 39c0 48 -29 77 -72 77
c-66 0 -103 -51 -118 -116h183z" />
    <glyph glyph-name="uni0451" unicode="&#x451;" horiz-adv-x="456" 
d="M192 545c-33 0 -55 17 -55 51c0 50 29 74 71 74c28 0 56 -17 56 -52c0 -53 -36 -73 -72 -73zM373 545c-33 0 -55 17 -55 51c0 50 30 74 71 74c28 0 56 -17 56 -52c0 -53 -36 -73 -72 -73zM223 74c39 0 82 16 119 47l37 -70c-36 -33 -94 -61 -163 -61
c-130 0 -180 79 -180 182c0 164 94 294 235 294c107 0 159 -72 159 -157c0 -43 -14 -86 -24 -112h-269c-11 -73 13 -123 86 -123zM332 269c2 7 7 16 7 39c0 48 -29 77 -72 77c-66 0 -103 -51 -118 -116h183z" />
    <glyph glyph-name="uni0436" unicode="&#x436;" horiz-adv-x="644" 
d="M-34 0l191 236l-108 220h107l85 -186h39l33 186h98l-32 -186h36l144 186h119l-190 -234l108 -222h-108l-84 186h-40l-33 -186h-98l32 186h-37l-143 -186h-119z" />
    <glyph glyph-name="uni0437" unicode="&#x437;" horiz-adv-x="414" 
d="M286 232c35 -11 68 -41 68 -93c0 -86 -75 -146 -194 -146c-120 0 -175 52 -159 139h92c-7 -40 23 -60 69 -60c54 0 90 27 90 69c0 39 -33 55 -79 55h-66l12 71h64c52 0 95 23 95 67c0 34 -27 50 -65 50c-42 0 -71 -19 -78 -58h-95c14 82 75 137 184 137
c96 0 153 -50 153 -119c0 -51 -40 -99 -91 -112z" />
    <glyph glyph-name="uni0438" unicode="&#x438;" horiz-adv-x="489" 
d="M373 456h95l-80 -456h-96l52 289l-231 -289h-92l80 456h96l-51 -284z" />
    <glyph glyph-name="uni0439" unicode="&#x439;" horiz-adv-x="489" 
d="M292 541c-90 0 -133 63 -119 144h73c-7 -45 9 -78 52 -78c46 0 71 33 78 78h75c-14 -81 -65 -144 -159 -144zM373 456h95l-80 -456h-96l52 289l-231 -289h-92l80 456h96l-51 -284z" />
    <glyph glyph-name="uni045D" unicode="&#x45d;" horiz-adv-x="489" 
d="M341 536h-84l-55 160h97zM373 456h95l-80 -456h-96l52 289l-231 -289h-92l80 456h96l-51 -284z" />
    <glyph glyph-name="uni043A" unicode="&#x43a;" horiz-adv-x="427" 
d="M21 0l80 456h99l-33 -186h33l142 186h119l-184 -231l101 -225h-108l-81 186h-37l-32 -186h-99z" />
    <glyph glyph-name="uni045C" unicode="&#x45c;" horiz-adv-x="427" 
d="M416 696l-110 -160h-93l99 160h104zM21 0l80 456h99l-33 -186h33l142 186h119l-184 -231l101 -225h-108l-81 186h-37l-32 -186h-99z" />
    <glyph glyph-name="uni043B" unicode="&#x43b;" horiz-adv-x="516" 
d="M162 456h333l-81 -456h-98l65 372h-143l-47 -185c-35 -135 -91 -193 -162 -193c-25 0 -46 5 -56 9l31 84c5 -2 11 -3 20 -3c31 0 52 34 77 132z" />
    <glyph glyph-name="uni043C" unicode="&#x43c;" horiz-adv-x="611" 
d="M437 456h130l-33 -456h-90l31 345l-156 -345h-106l-29 341l-96 -341h-91l134 456h125l28 -340z" />
    <glyph glyph-name="uni043D" unicode="&#x43d;" horiz-adv-x="491" 
d="M371 456h99l-80 -456h-99l34 192h-171l-34 -192h-99l80 456h99l-32 -180h172z" />
    <glyph glyph-name="uni043E" unicode="&#x43e;" horiz-adv-x="488" 
d="M278 466c121 0 173 -78 173 -188c0 -153 -83 -288 -241 -288c-120 0 -172 80 -172 189c0 153 83 287 240 287zM216 79c89 0 134 98 134 199c0 62 -23 99 -79 99c-87 0 -132 -94 -132 -198c0 -62 23 -100 77 -100z" />
    <glyph glyph-name="uni043F" unicode="&#x43f;" horiz-adv-x="493" 
d="M472 456l-80 -456h-99l65 372h-173l-65 -372h-99l80 456h371z" />
    <glyph glyph-name="uni0440" unicode="&#x440;" horiz-adv-x="508" 
d="M82 -216h-99l119 672h94l-7 -40c26 25 70 50 124 50c100 0 156 -71 156 -184c0 -181 -83 -292 -223 -292c-62 0 -103 24 -120 48zM366 271c0 57 -22 104 -86 104c-46 0 -81 -21 -102 -45l-36 -206c13 -20 38 -43 86 -43c101 0 138 87 138 190z" />
    <glyph glyph-name="uni0441" unicode="&#x441;" horiz-adv-x="438" 
d="M37 172c0 160 78 294 237 294c81 0 138 -33 161 -97l-75 -48c-13 38 -43 57 -86 57c-100 0 -135 -101 -135 -196c0 -58 25 -105 84 -105c43 0 78 22 104 59l64 -52c-43 -61 -104 -94 -181 -94c-116 0 -173 79 -173 182z" />
    <glyph glyph-name="uni0442" unicode="&#x442;" horiz-adv-x="385" 
d="M414 456l-15 -84h-132l-65 -372h-99l66 372h-133l15 84h363z" />
    <glyph glyph-name="uni0443" unicode="&#x443;" horiz-adv-x="468" 
d="M221 140l163 316h112l-377 -672h-106l141 245l-102 427h108z" />
    <glyph glyph-name="uni045E" unicode="&#x45e;" horiz-adv-x="468" 
d="M425 685c-14 -81 -65 -144 -159 -144c-90 0 -133 63 -119 144h73c-7 -45 9 -78 52 -78c46 0 71 33 78 78h75zM221 140l163 316h112l-377 -672h-106l141 245l-102 427h108z" />
    <glyph glyph-name="uni0444" unicode="&#x444;" horiz-adv-x="634" 
d="M594 266c0 -173 -101 -275 -270 -277l-36 -205h-99l36 206c-115 4 -186 83 -186 201c0 172 99 272 270 275l40 225h99l-40 -225c115 -4 186 -81 186 -200zM241 79l53 298c-101 -3 -153 -65 -153 -181c0 -70 33 -113 100 -117zM340 79c101 3 153 67 153 181
c0 70 -33 112 -101 116z" />
    <glyph glyph-name="uni0445" unicode="&#x445;" horiz-adv-x="452" 
d="M393 0h-109l-64 160l-122 -160h-119l185 229l-105 227h109l65 -160l121 160h120l-186 -228z" />
    <glyph glyph-name="uni0447" unicode="&#x447;" horiz-adv-x="446" 
d="M326 456h99l-81 -456h-99l30 169c-22 -7 -60 -15 -103 -15c-94 0 -141 62 -123 157l26 145h98l-25 -140c-8 -45 7 -76 66 -76c28 0 59 6 76 11z" />
    <glyph glyph-name="uni0446" unicode="&#x446;" horiz-adv-x="506" 
d="M21 0l80 456h99l-65 -372h173l65 372h99l-66 -372h62l-35 -201h-99l21 117h-334z" />
    <glyph glyph-name="uni0448" unicode="&#x448;" horiz-adv-x="763" 
d="M21 0l80 456h99l-65 -372h172l65 372h99l-65 -372h172l65 372h99l-80 -456h-641z" />
    <glyph glyph-name="uni0449" unicode="&#x449;" horiz-adv-x="776" 
d="M21 0l80 456h99l-65 -372h172l65 372h99l-65 -372h172l65 372h99l-65 -372h61l-35 -201h-98l20 117h-604z" />
    <glyph glyph-name="uni045F" unicode="&#x45f;" horiz-adv-x="493" 
d="M472 456l-80 -456h-128l-21 -123h-99l21 123h-144l80 456h99l-65 -372h173l65 372h99z" />
    <glyph glyph-name="uni044C" unicode="&#x44c;" horiz-adv-x="446" 
d="M173 304h68c104 0 161 -43 161 -131c0 -106 -66 -173 -198 -173h-183l80 456h99zM160 229l-27 -154h76c64 0 92 37 92 95c0 40 -23 59 -77 59h-64z" />
    <glyph glyph-name="uni044A" unicode="&#x44a;" horiz-adv-x="538" 
d="M332 304c104 0 162 -43 162 -131c0 -106 -67 -173 -199 -173h-183l65 372h-135l14 84h235l-26 -152h67zM300 75c64 0 92 37 92 95c0 40 -23 59 -76 59h-64l-28 -154h76z" />
    <glyph glyph-name="uni044B" unicode="&#x44b;" horiz-adv-x="645" 
d="M173 304h68c104 0 161 -43 161 -131c0 -106 -66 -173 -198 -173h-183l80 456h99zM525 456h99l-81 -456h-99zM160 229l-27 -154h76c64 0 92 37 92 95c0 40 -23 59 -77 59h-64z" />
    </font>
</defs>
</svg>
