<?xml version="1.0" standalone="no"?>
<!DOCTYPE svg PUBLIC "-//W3C//DTD SVG 1.1//EN" "http://www.w3.org/Graphics/SVG/1.1/DTD/svg11.dtd" >
<svg xmlns="http://www.w3.org/2000/svg" xmlns:xlink="http://www.w3.org/1999/xlink" version="1.1">
<metadata>
Created by FontForge 20190801 at Thu Sep 13 21:38:41 2018
 By Jimmy Wärting
Copyright \(c\) 2014-2018 by Hannes von Doehren, Livius Dietzel. All rights reserved.
</metadata>
<defs>
<font id="BrixSans-ExtraLight" horiz-adv-x="600" >
  <font-face 
    font-family="Brix Sans ExtraLight"
    font-weight="250"
    font-stretch="normal"
    units-per-em="1000"
    panose-1="2 11 2 0 0 0 0 0 0 0"
    ascent="720"
    descent="-280"
    x-height="456"
    cap-height="676"
    bbox="-431 -226 1086 990"
    underline-thickness="30"
    underline-position="-85"
    stemh="39"
    stemv="40"
    unicode-range="U+0020-FB02"
  />
<missing-glyph horiz-adv-x="513" 
d="M50 656h413v-656h-413v656zM425 40v576h-337v-576h337z" />
    <glyph glyph-name="fi" unicode="fi" horiz-adv-x="550" 
d="M430 420h-282v-420h-38v420h-84v26l84 10v79c0 86 29 155 125 155h41v-36h-41c-68 0 -87 -47 -87 -119v-79h320v-456h-38v420zM449 591c-22 0 -39 12 -39 39c0 28 17 40 39 40c20 0 39 -12 39 -40c0 -27 -19 -39 -39 -39z" />
    <glyph glyph-name="fl" unicode="fl" horiz-adv-x="529" 
d="M276 654h-41c-68 0 -87 -47 -87 -119v-79h149v-36h-149v-420h-38v420h-84v26l84 10v79c0 86 29 155 125 155h41v-36zM431 690v-580c0 -49 11 -74 52 -74h29v-36h-31c-66 0 -88 36 -88 110v580h38z" />
    <glyph glyph-name="f_f" unicode="ff" horiz-adv-x="609" 
d="M570 654h-41c-68 0 -87 -47 -87 -119v-79h149v-36h-149v-420h-38v420h-256v-420h-38v420h-84v26l84 10v79c0 86 29 155 125 155h41v-36h-41c-68 0 -87 -47 -87 -119v-79h256v79c0 86 29 155 125 155h41v-36z" />
    <glyph glyph-name=".notdef" horiz-adv-x="513" 
d="M50 656h413v-656h-413v656zM425 40v576h-337v-576h337z" />
    <glyph glyph-name=".null" horiz-adv-x="0" 
 />
    <glyph glyph-name="space" unicode=" " horiz-adv-x="236" 
 />
    <glyph glyph-name="exclam" unicode="!" horiz-adv-x="215" 
d="M91 199l-8 477h49l-10 -477h-31zM108 -7c-24 0 -42 18 -42 42s18 42 42 42c25 0 43 -18 43 -42s-18 -42 -43 -42z" />
    <glyph glyph-name="quotedbl" unicode="&#x22;" horiz-adv-x="331" 
d="M70 676h52l-10 -244h-32zM211 676h50l-10 -244h-32z" />
    <glyph glyph-name="numbersign" unicode="#" horiz-adv-x="598" 
d="M51 227v36h108l27 180h-101v36h107l31 197h38l-30 -197h167l31 197h38l-30 -197h110v-36h-116l-28 -180h110v-36h-116l-34 -227h-39l35 227h-168l-34 -227h-39l35 227h-102zM197 263h168l27 180h-167z" />
    <glyph glyph-name="dollar" unicode="$" horiz-adv-x="548" 
d="M489 177c0 -98 -65 -180 -199 -188v-92h-38v92c-140 6 -179 78 -202 132l39 16c20 -52 54 -103 163 -109v298l-29 8c-84 25 -151 71 -151 165c0 93 63 176 180 186v74h38v-73c94 -4 161 -49 187 -98l-37 -22c-29 50 -80 78 -150 81v-290l40 -11c81 -24 159 -63 159 -169z
M235 373l17 -5v278c-94 -9 -139 -71 -139 -147c0 -74 44 -103 122 -126zM290 29c107 6 158 65 158 148c0 77 -58 110 -129 130l-29 8v-286z" />
    <glyph glyph-name="percent" unicode="%" horiz-adv-x="764" 
d="M163 685c91 0 131 -67 131 -173c0 -105 -40 -173 -131 -173c-90 0 -130 68 -130 173c0 106 40 173 130 173zM171 0h-42l409 676h44zM163 371c66 0 93 52 93 141c0 90 -27 142 -93 142s-93 -52 -93 -142c0 -89 27 -141 93 -141zM548 341c91 0 131 -67 131 -173
c0 -105 -40 -173 -131 -173c-90 0 -130 68 -130 173c0 106 40 173 130 173zM548 27c66 0 93 52 93 141c0 90 -27 142 -93 142s-93 -52 -93 -142c0 -89 27 -141 93 -141z" />
    <glyph glyph-name="ampersand" unicode="&#x26;" horiz-adv-x="650" 
d="M467 143l139 -138v-5h-55l-109 109c-54 -68 -117 -120 -216 -120c-113 0 -171 71 -171 142c0 88 72 143 136 190l22 17l-39 39c-36 37 -86 86 -86 159c0 83 70 150 185 150c108 0 178 -67 178 -150c0 -73 -51 -110 -117 -160l-57 -42l160 -160l17 24l107 155l33 -28
l-108 -155c-6 -9 -12 -18 -19 -27zM204 406l43 -43l60 44c58 43 103 73 103 129s-45 111 -137 111s-144 -55 -144 -111c0 -57 37 -92 75 -130zM226 28c82 0 135 48 185 112l-168 168l-24 -17c-60 -44 -123 -90 -123 -160c0 -56 58 -103 130 -103z" />
    <glyph glyph-name="quotesingle" unicode="'" horiz-adv-x="191" 
d="M71 676h50l-10 -244h-32z" />
    <glyph glyph-name="parenleft" unicode="(" horiz-adv-x="252" 
d="M189 -222c-81 137 -130 260 -130 462c0 222 61 346 130 463l34 -10c-67 -123 -122 -244 -122 -453c0 -182 44 -308 120 -452z" />
    <glyph glyph-name="parenright" unicode=")" horiz-adv-x="252" 
d="M31 -212c76 144 120 270 120 452c0 209 -55 330 -122 453l34 10c69 -117 130 -241 130 -463c0 -202 -49 -325 -130 -462z" />
    <glyph glyph-name="asterisk" unicode="*" horiz-adv-x="473" 
d="M106 377l105 125l-154 46l17 37l151 -53l-2 164h41l-6 -163l146 50l13 -41l-147 -42l97 -128l-35 -24l-93 134l-102 -133z" />
    <glyph glyph-name="plus" unicode="+" horiz-adv-x="560" 
d="M61 288h198v203h38v-203h201v-36h-201v-202h-38v202h-198v36z" />
    <glyph glyph-name="comma" unicode="," horiz-adv-x="206" 
d="M89 -115h-34l25 193h51z" />
    <glyph glyph-name="hyphen" unicode="-" horiz-adv-x="380" 
d="M306 287v-36h-232v36h232z" />
    <glyph glyph-name="period" unicode="." horiz-adv-x="219" 
d="M109 -7c-24 0 -42 18 -42 42s18 42 42 42c25 0 43 -18 43 -42s-18 -42 -43 -42z" />
    <glyph glyph-name="slash" unicode="/" horiz-adv-x="320" 
d="M75 0h-38l206 676h41z" />
    <glyph glyph-name="zero" unicode="0" horiz-adv-x="592" 
d="M296 686c158 0 230 -134 230 -348s-72 -348 -230 -348s-230 134 -230 348s72 348 230 348zM296 29c131 0 189 116 189 309s-58 309 -189 309s-189 -116 -189 -309s58 -309 189 -309z" />
    <glyph glyph-name="one" unicode="1" horiz-adv-x="372" 
d="M237 0v636l-200 -84l-13 35l213 89h39v-676h-39z" />
    <glyph glyph-name="two" unicode="2" horiz-adv-x="517" 
d="M249 686c122 0 192 -79 192 -187c0 -99 -54 -165 -129 -245l-201 -216h352v-38h-406v36l225 243c74 80 118 143 118 220c0 86 -54 148 -151 148c-94 0 -145 -62 -145 -149h-41c0 109 68 188 186 188z" />
    <glyph glyph-name="three" unicode="3" horiz-adv-x="549" 
d="M340 351c66 -11 144 -67 144 -173c0 -110 -82 -189 -214 -189c-143 0 -210 80 -210 165h41c0 -70 61 -126 169 -126c112 0 173 63 173 150c0 94 -81 153 -186 153h-59v38h59c97 0 174 50 174 138c0 81 -59 140 -161 140c-106 0 -159 -61 -159 -129h-41
c0 83 63 168 200 168c126 0 202 -79 202 -179c0 -95 -66 -141 -132 -156z" />
    <glyph glyph-name="four" unicode="4" horiz-adv-x="579" 
d="M535 161h-114v-161h-40v161h-340v36l340 479h40v-477h114v-38zM381 199v411l-292 -411h292z" />
    <glyph glyph-name="five" unicode="5" horiz-adv-x="530" 
d="M471 217c0 -122 -69 -228 -211 -228c-149 0 -207 92 -207 187h41c0 -78 47 -148 166 -148c115 0 170 85 170 189s-58 168 -163 168c-57 0 -106 -21 -146 -49h-37l40 340h330v-38h-295l-33 -261c24 16 81 47 144 47c124 0 201 -77 201 -207z" />
    <glyph glyph-name="six" unicode="6" horiz-adv-x="564" 
d="M446 518c0 78 -59 129 -154 129c-120 0 -185 -128 -185 -324c23 40 94 101 182 101c139 0 215 -88 215 -212c0 -119 -70 -223 -215 -223c-154 0 -223 131 -223 330c0 229 81 367 226 367c127 0 195 -76 195 -168h-41zM112 270c0 -121 51 -242 177 -242
c114 0 174 75 174 184c0 107 -61 173 -174 173c-78 0 -148 -56 -177 -115z" />
    <glyph glyph-name="seven" unicode="7" horiz-adv-x="463" 
d="M386 638h-348v38h392v-36l-251 -640h-46z" />
    <glyph glyph-name="eight" unicode="8" horiz-adv-x="572" 
d="M287 -11c-131 0 -222 67 -222 190c0 106 75 158 141 172c-66 15 -127 61 -127 154c0 109 83 181 207 181s207 -72 207 -181c0 -93 -61 -139 -127 -154c66 -14 141 -66 141 -172c0 -123 -92 -190 -220 -190zM286 647c-100 0 -166 -49 -166 -142c0 -84 71 -135 166 -135
c93 0 166 50 166 135c0 93 -66 142 -166 142zM285 28c109 0 181 54 181 155c0 93 -79 148 -181 148s-179 -56 -179 -148c0 -101 72 -155 179 -155z" />
    <glyph glyph-name="nine" unicode="9" horiz-adv-x="564" 
d="M118 158c0 -78 59 -129 152 -129c123 0 187 129 187 325c-22 -37 -94 -102 -182 -102c-139 0 -215 88 -215 212c0 119 70 223 215 223c154 0 223 -131 223 -330c0 -229 -81 -367 -228 -367c-125 0 -193 76 -193 168h41zM452 406c0 121 -51 242 -177 242
c-114 0 -174 -75 -174 -184c0 -107 61 -173 174 -173c78 0 148 56 177 115z" />
    <glyph glyph-name="colon" unicode=":" horiz-adv-x="233" 
d="M116 381c-24 0 -42 18 -42 42c0 25 18 43 42 43c25 0 43 -18 43 -43c0 -24 -18 -42 -43 -42zM116 -7c-24 0 -42 18 -42 42s18 42 42 42c25 0 43 -18 43 -42s-18 -42 -43 -42z" />
    <glyph glyph-name="semicolon" unicode=";" horiz-adv-x="228" 
d="M114 381c-24 0 -42 18 -42 42c0 25 18 43 42 43c25 0 43 -18 43 -43c0 -24 -18 -42 -43 -42zM103 -115h-34l25 193h51z" />
    <glyph glyph-name="less" unicode="&#x3c;" horiz-adv-x="560" 
d="M90 288l362 172v-42l-321 -148l321 -147v-43l-362 172v36z" />
    <glyph glyph-name="equal" unicode="=" horiz-adv-x="560" 
d="M461 403v-36h-362v36h362zM461 174v-36h-362v36h362z" />
    <glyph glyph-name="greater" unicode="&#x3e;" horiz-adv-x="560" 
d="M470 252l-362 -172v43l321 147l-321 148v42l362 -172v-36z" />
    <glyph glyph-name="question" unicode="?" horiz-adv-x="445" 
d="M213 686c116 0 184 -73 184 -163c0 -139 -161 -172 -161 -324h-41c0 160 159 204 159 321c0 63 -47 126 -138 126c-72 0 -129 -40 -129 -113h-42c0 87 57 153 168 153zM213 -7c-24 0 -42 18 -42 42s18 42 42 42c25 0 43 -18 43 -42s-18 -42 -43 -42z" />
    <glyph glyph-name="at" unicode="@" horiz-adv-x="891" 
d="M535 83c-27 -33 -86 -61 -146 -61c-93 0 -144 55 -144 165c0 138 77 264 216 264c63 0 98 -25 121 -58l9 49h36l-55 -309c-9 -52 -1 -74 35 -74c82 0 179 93 179 304c0 126 -75 249 -290 249c-253 0 -394 -192 -394 -435c0 -184 78 -313 289 -313c80 0 147 18 204 47
l12 -37c-53 -26 -128 -49 -216 -49c-232 0 -329 143 -329 353c0 264 160 473 434 473c240 0 330 -143 330 -288c0 -232 -116 -341 -221 -341c-52 0 -68 23 -70 61zM574 349c-15 28 -44 65 -112 65c-104 0 -177 -104 -177 -227c0 -87 45 -128 105 -128c69 0 117 38 144 71z
" />
    <glyph glyph-name="A" unicode="A" 
d="M457 202h-315l-74 -202h-44l249 676h53l251 -676h-47zM156 240h287l-143 394z" />
    <glyph glyph-name="B" unicode="B" horiz-adv-x="572" 
d="M96 676h191c126 0 193 -63 193 -165c0 -90 -47 -148 -113 -158c74 -10 146 -59 146 -171c0 -128 -79 -182 -215 -182h-202v676zM277 369c119 0 160 59 160 142c0 80 -44 127 -160 127h-141v-269h141zM284 38c127 0 188 39 188 144c0 91 -57 149 -187 149h-149v-293h148z
" />
    <glyph glyph-name="C" unicode="C" horiz-adv-x="581" 
d="M106 337c0 -169 56 -308 221 -308c71 0 142 29 172 91l34 -23c-32 -62 -112 -107 -206 -107c-183 0 -262 136 -262 347c0 212 79 349 262 349c94 0 174 -45 206 -107l-34 -23c-30 62 -101 91 -172 91c-165 0 -221 -140 -221 -310z" />
    <glyph glyph-name="D" unicode="D" horiz-adv-x="644" 
d="M96 676h170c234 0 312 -96 312 -338c0 -239 -77 -338 -312 -338h-170v676zM266 38c214 0 271 85 271 300c0 212 -57 300 -271 300h-130v-600h130z" />
    <glyph glyph-name="E" unicode="E" horiz-adv-x="532" 
d="M476 38v-38h-380v676h376v-38h-336v-268h306v-38h-306v-294h340z" />
    <glyph glyph-name="F" unicode="F" horiz-adv-x="517" 
d="M96 676h377v-38h-337v-289h292v-38h-292v-311h-40v676z" />
    <glyph glyph-name="G" unicode="G" horiz-adv-x="632" 
d="M343 354h230c2 -7 3 -25 3 -33c0 -185 -56 -331 -246 -331c-187 0 -265 128 -265 347c0 203 66 349 276 349c106 0 165 -43 203 -105l-32 -24c-40 63 -87 90 -171 90c-190 0 -235 -139 -235 -310c0 -182 56 -310 223 -310c161 0 206 127 206 287h-192v40z" />
    <glyph glyph-name="H" unicode="H" horiz-adv-x="667" 
d="M531 676h40v-676h-40v340h-395v-340h-40v676h40v-298h395v298z" />
    <glyph glyph-name="I" unicode="I" horiz-adv-x="232" 
d="M96 676h40v-676h-40v676z" />
    <glyph glyph-name="J" unicode="J" horiz-adv-x="490" 
d="M65 106c34 -59 74 -77 135 -77c96 0 159 51 159 212v435h40v-430c0 -190 -83 -256 -199 -256c-81 0 -136 37 -168 93z" />
    <glyph glyph-name="K" unicode="K" horiz-adv-x="593" 
d="M136 245v-245h-40v676h40v-376l369 376h58l-274 -280l274 -396h-55l-250 367z" />
    <glyph glyph-name="L" unicode="L" horiz-adv-x="472" 
d="M446 38v-38h-350v676h40v-638h310z" />
    <glyph glyph-name="M" unicode="M" horiz-adv-x="861" 
d="M649 676h55l103 -676h-44l-92 626l-219 -626h-44l-220 630l-91 -630h-43l102 676h59l216 -619z" />
    <glyph glyph-name="N" unicode="N" horiz-adv-x="680" 
d="M545 676h39v-676h-46l-402 613v-613h-40v676h45l403 -613z" />
    <glyph glyph-name="O" unicode="O" horiz-adv-x="656" 
d="M591 337c0 -205 -75 -347 -265 -347c-188 0 -261 142 -261 347s74 349 262 349c189 0 264 -145 264 -349zM106 337c0 -184 55 -308 220 -308c172 0 224 124 224 308c0 182 -52 310 -223 310c-166 0 -221 -128 -221 -310z" />
    <glyph glyph-name="P" unicode="P" horiz-adv-x="549" 
d="M136 285v-285h-40v676h194c152 0 212 -80 212 -195c0 -114 -60 -196 -212 -196h-154zM136 323h154c129 0 171 67 171 158s-42 157 -171 157h-154v-315z" />
    <glyph glyph-name="Q" unicode="Q" horiz-adv-x="656" 
d="M65 337c0 205 74 349 262 349c189 0 264 -145 264 -349c0 -90 -14 -167 -46 -226l92 -93l-26 -29l-88 89c-42 -56 -107 -88 -197 -88c-188 0 -261 142 -261 347zM106 337c0 -184 55 -308 220 -308c81 0 135 28 170 76l-180 182l26 27l174 -175c25 52 34 119 34 198
c0 182 -52 310 -223 310c-166 0 -221 -128 -221 -310z" />
    <glyph glyph-name="R" unicode="R" horiz-adv-x="587" 
d="M96 676h213c151 0 221 -67 221 -177c0 -109 -72 -171 -192 -178l214 -321h-50l-210 319h-156l-1 -319h-39v676zM489 499c0 88 -50 139 -180 139h-173v-281h173c130 0 180 53 180 142z" />
    <glyph glyph-name="S" unicode="S" horiz-adv-x="546" 
d="M440 566c-31 53 -86 81 -163 81c-111 0 -164 -66 -164 -148c0 -74 44 -103 122 -126l95 -27c81 -24 159 -62 159 -168c0 -103 -71 -188 -218 -188c-155 0 -197 76 -221 132l39 16c21 -55 58 -109 182 -109c120 0 177 61 177 149c0 77 -58 109 -129 129l-96 27
c-84 25 -151 71 -151 165c0 99 72 187 205 187c101 0 173 -47 200 -98z" />
    <glyph glyph-name="T" unicode="T" horiz-adv-x="530" 
d="M493 676v-38h-208v-638h-40v638h-208v38h456z" />
    <glyph glyph-name="U" unicode="U" horiz-adv-x="657" 
d="M328 -10c-138 0 -237 66 -237 256v430h40v-435c0 -158 75 -212 197 -212c120 0 198 53 198 212v435h40v-430c0 -191 -100 -256 -238 -256z" />
    <glyph glyph-name="V" unicode="V" horiz-adv-x="588" 
d="M561 676l-242 -676h-50l-242 676h45l222 -632l222 632h45z" />
    <glyph glyph-name="W" unicode="W" horiz-adv-x="967" 
d="M508 676l190 -624l192 624h46l-212 -676h-52l-189 619l-188 -619h-52l-212 676h46l192 -624l190 624h49z" />
    <glyph glyph-name="X" unicode="X" horiz-adv-x="555" 
d="M91 676l186 -294l187 294h50l-209 -326l224 -350h-50l-202 317l-201 -317h-50l224 350l-209 326h50z" />
    <glyph glyph-name="Y" unicode="Y" horiz-adv-x="558" 
d="M259 0v277l-234 399h47l207 -358l207 358h48l-235 -399v-277h-40z" />
    <glyph glyph-name="Z" unicode="Z" horiz-adv-x="508" 
d="M457 641l-367 -603h371v-38h-421v35l367 603h-345v38h395v-35z" />
    <glyph glyph-name="bracketleft" unicode="[" horiz-adv-x="272" 
d="M239 690v-36h-122v-834h122v-36h-160v906h160z" />
    <glyph glyph-name="backslash" unicode="\" horiz-adv-x="320" 
d="M36 676h41l206 -676h-38z" />
    <glyph glyph-name="bracketright" unicode="]" horiz-adv-x="272" 
d="M193 690v-906h-160v36h122v834h-122v36h160z" />
    <glyph glyph-name="asciicircum" unicode="^" horiz-adv-x="560" 
d="M280 698l220 -220l-28 -28l-192 192l-192 -192l-28 28z" />
    <glyph glyph-name="underscore" unicode="_" horiz-adv-x="518" 
d="M459 -31v-36h-400v36h400z" />
    <glyph glyph-name="grave" unicode="`" 
d="M290 696l79 -147h-41l-87 147h49z" />
    <glyph glyph-name="a" unicode="a" horiz-adv-x="467" 
d="M351 0v60c-26 -30 -80 -70 -161 -70c-91 0 -142 46 -142 125c0 87 80 126 198 141l105 13v60c0 68 -29 100 -116 100c-80 0 -119 -26 -119 -68v-34h-37c-2 12 -3 20 -3 34c0 59 47 105 159 105c109 0 154 -50 154 -135v-331h-38zM88 115c0 -55 31 -88 102 -88
s128 35 161 73v133l-101 -13c-99 -13 -162 -40 -162 -105z" />
    <glyph glyph-name="b" unicode="b" horiz-adv-x="513" 
d="M120 404c28 35 72 62 140 62c142 0 198 -97 198 -237c0 -144 -57 -239 -198 -239c-66 0 -111 26 -139 60l-8 -50h-31v690h38v-286zM418 229c0 117 -37 200 -158 200c-77 0 -121 -45 -140 -80v-242c19 -36 64 -80 140 -80c122 0 158 86 158 202z" />
    <glyph glyph-name="c" unicode="c" horiz-adv-x="447" 
d="M55 227c0 138 61 239 194 239c72 0 125 -29 157 -84l-32 -21c-28 49 -69 68 -125 68c-112 0 -154 -86 -154 -202s42 -200 154 -200c56 0 98 19 125 67l32 -21c-31 -53 -85 -83 -157 -83c-133 0 -194 97 -194 237z" />
    <glyph glyph-name="d" unicode="d" horiz-adv-x="512" 
d="M393 690h38v-690h-38v49c-25 -32 -75 -59 -142 -59c-139 0 -196 97 -196 239c0 141 58 237 197 237c68 0 114 -27 141 -62v286zM95 229c0 -115 37 -202 156 -202c73 0 121 36 142 79v243c-19 35 -64 80 -141 80c-121 0 -157 -82 -157 -200z" />
    <glyph glyph-name="e" unicode="e" horiz-adv-x="470" 
d="M248 27c42 0 102 16 137 55l23 -29c-24 -32 -92 -63 -160 -63c-141 0 -193 99 -193 239c0 135 56 237 190 237c116 0 172 -89 172 -186c0 -18 -2 -44 -5 -63h-318c1 -112 42 -190 154 -190zM375 253c1 6 2 18 2 25c0 84 -42 151 -132 151c-106 0 -144 -76 -150 -176h280z
" />
    <glyph glyph-name="f" unicode="f" horiz-adv-x="315" 
d="M276 654h-41c-68 0 -87 -47 -87 -119v-79h149v-36h-149v-420h-38v420h-84v26l84 10v79c0 86 29 155 125 155h41v-36z" />
    <glyph glyph-name="g" unicode="g" horiz-adv-x="507" 
d="M426 456v-498c0 -85 -66 -159 -175 -159c-112 0 -169 66 -169 125h40c0 -42 49 -88 129 -88c87 0 136 56 136 124v96c-25 -36 -72 -66 -137 -66c-142 0 -195 103 -195 238c0 139 57 238 195 238c67 0 109 -26 137 -62v52h39zM95 228c0 -111 35 -201 155 -201
c65 0 111 35 137 80v241c-19 35 -61 81 -137 81c-119 0 -155 -83 -155 -201z" />
    <glyph glyph-name="h" unicode="h" horiz-adv-x="520" 
d="M82 690h38v-291c31 41 98 67 159 67c123 0 164 -59 164 -169v-297h-38v297c0 87 -29 132 -126 132c-73 0 -127 -29 -159 -72v-357h-38v690z" />
    <glyph glyph-name="i" unicode="i" horiz-adv-x="202" 
d="M101 591c-22 0 -39 12 -39 39c0 28 17 40 39 40c20 0 39 -12 39 -40c0 -27 -19 -39 -39 -39zM82 456h38v-456h-38v456z" />
    <glyph glyph-name="j" unicode="j" horiz-adv-x="202" 
d="M100 591c-22 0 -39 12 -39 39c0 28 17 40 39 40c20 0 39 -12 39 -40c0 -27 -19 -39 -39 -39zM-5 -192c73 23 87 59 87 154v494h38v-494c0 -123 -35 -168 -112 -188z" />
    <glyph glyph-name="k" unicode="k" horiz-adv-x="453" 
d="M377 0l-170 248l-87 -83v-165h-38v690h38v-474l254 240h55l-192 -182l189 -274h-49z" />
    <glyph glyph-name="l" unicode="l" horiz-adv-x="214" 
d="M116 690v-580c0 -49 11 -74 52 -74h29v-36h-31c-66 0 -88 36 -88 110v580h38z" />
    <glyph glyph-name="m" unicode="m" horiz-adv-x="808" 
d="M81 456h38v-55c35 37 86 65 142 65c76 0 119 -25 151 -73c41 46 98 73 158 73c114 0 161 -60 161 -169v-297h-38v297c0 90 -33 132 -122 132c-65 0 -111 -30 -143 -72v-357h-38v357c-24 49 -65 72 -128 72c-64 0 -111 -34 -143 -71v-358h-38v456z" />
    <glyph glyph-name="n" unicode="n" horiz-adv-x="519" 
d="M81 456h38v-57c31 41 98 67 159 67c123 0 164 -59 164 -169v-297h-38v297c0 87 -29 132 -126 132c-73 0 -127 -29 -159 -72v-357h-38v456z" />
    <glyph glyph-name="o" unicode="o" horiz-adv-x="502" 
d="M251 466c142 0 196 -103 196 -237c0 -138 -54 -239 -198 -239c-136 0 -194 101 -194 239c0 134 58 237 196 237zM249 27c116 0 158 84 158 202c0 117 -42 200 -156 200c-112 0 -156 -83 -156 -200c0 -118 44 -202 154 -202z" />
    <glyph glyph-name="p" unicode="p" horiz-adv-x="512" 
d="M119 -216h-38v672h38v-50c25 32 75 60 142 60c139 0 196 -98 196 -240c0 -141 -58 -236 -197 -236c-68 0 -114 26 -141 61v-267zM417 226c0 115 -37 203 -156 203c-73 0 -121 -37 -142 -80v-243c19 -35 64 -79 141 -79c121 0 157 81 157 199z" />
    <glyph glyph-name="q" unicode="q" horiz-adv-x="512" 
d="M393 51c-28 -35 -72 -61 -140 -61c-142 0 -198 96 -198 236c0 144 57 240 198 240c66 0 111 -27 139 -61l8 51h31v-672h-38v267zM95 226c0 -117 37 -199 158 -199c77 0 121 44 140 79v242c-19 36 -64 81 -140 81c-122 0 -158 -87 -158 -203z" />
    <glyph glyph-name="r" unicode="r" horiz-adv-x="327" 
d="M120 378c25 49 63 88 133 88c21 0 43 -2 59 -7l-9 -41c-16 5 -35 8 -50 8c-71 0 -107 -51 -134 -117v-309h-38v456h38v-78h1z" />
    <glyph glyph-name="s" unicode="s" horiz-adv-x="424" 
d="M336 378c-22 27 -60 51 -121 51c-83 0 -114 -44 -114 -94c0 -36 16 -64 71 -77l79 -19c78 -19 124 -54 124 -120c0 -79 -66 -129 -168 -129c-94 0 -137 42 -162 76l29 26c24 -31 47 -65 133 -65c75 0 128 30 128 92c0 47 -37 67 -91 81l-81 20c-69 17 -102 60 -102 115
c0 64 45 131 154 131c75 0 126 -32 150 -62z" />
    <glyph glyph-name="t" unicode="t" horiz-adv-x="326" 
d="M151 114c0 -50 18 -87 72 -87c25 0 51 9 72 21l13 -34c-22 -13 -51 -24 -89 -24c-72 0 -106 45 -106 123v307h-90v26l90 10v118l38 10v-128h142v-36h-142v-306z" />
    <glyph glyph-name="u" unicode="u" horiz-adv-x="519" 
d="M438 0h-38v57c-31 -41 -98 -67 -159 -67c-123 0 -164 59 -164 169v297h38v-297c0 -87 29 -132 126 -132c73 0 127 29 159 72v357h38v-456z" />
    <glyph glyph-name="v" unicode="v" horiz-adv-x="459" 
d="M428 456l-175 -456h-47l-176 456h43l157 -419l155 419h43z" />
    <glyph glyph-name="w" unicode="w" horiz-adv-x="746" 
d="M395 456l138 -409l135 409h45l-157 -456h-46l-137 406l-137 -406h-46l-157 456h45l135 -409l138 409h44z" />
    <glyph glyph-name="x" unicode="x" horiz-adv-x="424" 
d="M391 0h-47l-132 197l-133 -197h-46l154 229l-154 227h47l132 -196l133 196h46l-155 -228z" />
    <glyph glyph-name="y" unicode="y" horiz-adv-x="472" 
d="M245 87l155 369h45l-288 -672h-44l110 254l-197 418h45z" />
    <glyph glyph-name="z" unicode="z" horiz-adv-x="403" 
d="M352 422l-261 -386h267v-36h-316v34l261 386h-248v36h297v-34z" />
    <glyph glyph-name="braceleft" unicode="{" horiz-adv-x="270" 
d="M150 334c0 -79 -37 -94 -58 -97c21 -3 58 -18 58 -100v-219c0 -77 23 -98 83 -98v-36c-83 0 -121 26 -121 133v220c0 63 -18 82 -85 82v36c67 0 85 19 85 79v223c0 101 38 133 121 133v-36c-59 0 -83 -21 -83 -97v-223z" />
    <glyph glyph-name="bar" unicode="|" horiz-adv-x="195" 
d="M79 -216v906h37v-906h-37z" />
    <glyph glyph-name="braceright" unicode="}" horiz-adv-x="270" 
d="M37 -216v36c60 0 83 21 83 98v219c0 82 37 97 58 100c-21 3 -58 18 -58 97v223c0 76 -24 97 -83 97v36c83 0 121 -32 121 -133v-223c0 -60 18 -79 85 -79v-36c-67 0 -85 -19 -85 -82v-220c0 -107 -38 -133 -121 -133z" />
    <glyph glyph-name="asciitilde" unicode="~" horiz-adv-x="560" 
d="M433 252c-18 18 -43 40 -73 40c-53 0 -99 -83 -166 -83c-33 0 -72 24 -84 40l11 37c16 -16 39 -40 73 -40c62 0 98 83 165 83c40 0 78 -31 90 -43z" />
    <glyph glyph-name="Agrave" unicode="&#xc0;" 
d="M246 899l79 -147h-41l-87 147h49zM457 202h-315l-74 -202h-44l249 676h53l251 -676h-47zM156 240h287l-143 394z" />
    <glyph glyph-name="Aacute" unicode="&#xc1;" 
d="M402 899l-87 -147h-41l79 147h49zM457 202h-315l-74 -202h-44l249 676h53l251 -676h-47zM156 240h287l-143 394z" />
    <glyph glyph-name="Acircumflex" unicode="&#xc2;" 
d="M320 899l103 -147h-41l-83 113l-82 -113h-41l103 147h41zM457 202h-315l-74 -202h-44l249 676h53l251 -676h-47zM156 240h287l-143 394z" />
    <glyph glyph-name="Atilde" unicode="&#xc3;" 
d="M420 784c-15 16 -35 26 -54 26c-43 0 -76 -36 -131 -36c-27 0 -54 14 -64 27l10 34c13 -14 31 -24 54 -24c49 0 76 36 131 36c32 0 54 -17 64 -27zM457 202h-315l-74 -202h-44l249 676h53l251 -676h-47zM156 240h287l-143 394z" />
    <glyph glyph-name="Adieresis" unicode="&#xc4;" 
d="M215 784c-22 0 -39 12 -39 39c0 28 17 40 39 40c20 0 39 -12 39 -40c0 -27 -19 -39 -39 -39zM385 784c-22 0 -39 12 -39 39c0 28 17 40 39 40c20 0 39 -12 39 -40c0 -27 -19 -39 -39 -39zM457 202h-315l-74 -202h-44l249 676h53l251 -676h-47zM156 240h287l-143 394z" />
    <glyph glyph-name="Amacron" unicode="&#x100;" 
d="M432 832v-36h-262v36h262zM457 202h-315l-74 -202h-44l249 676h53l251 -676h-47zM156 240h287l-143 394z" />
    <glyph glyph-name="Abreve" unicode="&#x102;" 
d="M422 882c0 -74 -50 -125 -122 -125c-71 0 -121 51 -121 125h35c0 -51 29 -90 86 -90c58 0 86 39 86 90h36zM457 202h-315l-74 -202h-44l249 676h53l251 -676h-47zM156 240h287l-143 394z" />
    <glyph glyph-name="Aring" unicode="&#xc5;" 
d="M202 808c0 54 40 89 98 89c59 0 99 -35 99 -89s-40 -90 -99 -90c-58 0 -98 36 -98 90zM239 808c0 -36 24 -59 61 -59c38 0 62 23 62 59s-24 58 -62 58c-37 0 -61 -22 -61 -58zM457 202h-315l-74 -202h-44l249 676h53l251 -676h-47zM156 240h287l-143 394z" />
    <glyph glyph-name="Aringacute" unicode="&#x1fa;" 
d="M202 808c0 52 37 87 92 89l59 72h49l-69 -76c40 -11 66 -42 66 -85c0 -54 -40 -90 -99 -90c-58 0 -98 36 -98 90zM239 808c0 -36 24 -58 61 -58c38 0 62 22 62 58s-24 58 -62 58c-37 0 -61 -22 -61 -58zM457 202h-315l-74 -202h-44l249 676h53l251 -676h-47zM156 240h287
l-143 394z" />
    <glyph glyph-name="Aogonek" unicode="&#x104;" 
d="M462 -130c0 -23 16 -50 56 -50c22 0 41 11 59 25v-40c-12 -9 -32 -21 -63 -21c-59 0 -92 38 -92 84c0 38 21 65 45 85l62 50l-72 199h-315l-74 -202h-44l249 676h53l251 -676l-80 -66c-24 -21 -35 -39 -35 -64zM156 240h287l-143 394z" />
    <glyph glyph-name="AE" unicode="&#xc6;" horiz-adv-x="936" 
d="M7 0l471 676h398v-38h-336v-268h307v-38h-307v-294h340v-38h-380v201h-303l-142 -201h-48zM500 239v399l-278 -399h278z" />
    <glyph glyph-name="AEacute" unicode="&#x1fc;" horiz-adv-x="936" 
d="M756 899l-87 -147h-41l79 147h49zM7 0l471 676h398v-38h-336v-268h307v-38h-307v-294h340v-38h-380v201h-303l-142 -201h-48zM500 239v399l-278 -399h278z" />
    <glyph glyph-name="Cacute" unicode="&#x106;" horiz-adv-x="581" 
d="M428 899l-87 -147h-41l79 147h49zM106 337c0 -169 56 -308 221 -308c71 0 142 29 172 91l34 -23c-32 -62 -112 -107 -206 -107c-183 0 -262 136 -262 347c0 212 79 349 262 349c94 0 174 -45 206 -107l-34 -23c-30 62 -101 91 -172 91c-165 0 -221 -140 -221 -310z" />
    <glyph glyph-name="Ccircumflex" unicode="&#x108;" horiz-adv-x="581" 
d="M346 899l103 -147h-41l-83 113l-82 -113h-41l103 147h41zM106 337c0 -169 56 -308 221 -308c71 0 142 29 172 91l34 -23c-32 -62 -112 -107 -206 -107c-183 0 -262 136 -262 347c0 212 79 349 262 349c94 0 174 -45 206 -107l-34 -23c-30 62 -101 91 -172 91
c-165 0 -221 -140 -221 -310z" />
    <glyph glyph-name="Ccaron" unicode="&#x10c;" horiz-adv-x="581" 
d="M305 752l-103 147h41l83 -113l82 113h41l-103 -147h-41zM106 337c0 -169 56 -308 221 -308c71 0 142 29 172 91l34 -23c-32 -62 -112 -107 -206 -107c-183 0 -262 136 -262 347c0 212 79 349 262 349c94 0 174 -45 206 -107l-34 -23c-30 62 -101 91 -172 91
c-165 0 -221 -140 -221 -310z" />
    <glyph glyph-name="Cdotaccent" unicode="&#x10a;" horiz-adv-x="581" 
d="M326 784c-22 0 -39 12 -39 39c0 28 17 40 39 40c20 0 39 -12 39 -40c0 -27 -19 -39 -39 -39zM106 337c0 -169 56 -308 221 -308c71 0 142 29 172 91l34 -23c-32 -62 -112 -107 -206 -107c-183 0 -262 136 -262 347c0 212 79 349 262 349c94 0 174 -45 206 -107l-34 -23
c-30 62 -101 91 -172 91c-165 0 -221 -140 -221 -310z" />
    <glyph glyph-name="Ccedilla" unicode="&#xc7;" horiz-adv-x="581" 
d="M327 29c71 0 142 29 172 91l34 -23c-30 -58 -103 -102 -190 -107l-19 -51c47 0 88 -21 88 -81c0 -31 -27 -74 -91 -74c-28 0 -55 11 -75 22v40c21 -15 47 -26 75 -26c34 0 50 19 50 38c0 37 -28 45 -66 45h-26l-2 4l26 84c-166 11 -238 144 -238 346
c0 212 79 349 262 349c94 0 174 -45 206 -107l-34 -23c-30 62 -101 91 -172 91c-165 0 -221 -140 -221 -310c0 -169 56 -308 221 -308z" />
    <glyph glyph-name="Dcaron" unicode="&#x10e;" horiz-adv-x="644" 
d="M281 752l-103 147h41l83 -113l82 113h41l-103 -147h-41zM96 676h170c234 0 312 -96 312 -338c0 -239 -77 -338 -312 -338h-170v676zM266 38c214 0 271 85 271 300c0 212 -57 300 -271 300h-130v-600h130z" />
    <glyph glyph-name="Dcroat" unicode="&#x110;" horiz-adv-x="650" 
d="M102 364v312h170c234 0 312 -96 312 -338c0 -239 -77 -338 -312 -338h-170v328h-73v36h73zM272 38c214 0 271 85 271 300c0 212 -57 300 -271 300h-130v-274h119v-36h-119v-290h130z" />
    <glyph glyph-name="Eth" unicode="&#xd0;" horiz-adv-x="650" 
d="M102 364v312h170c234 0 312 -96 312 -338c0 -239 -77 -338 -312 -338h-170v328h-73v36h73zM272 38c214 0 271 85 271 300c0 212 -57 300 -271 300h-130v-274h119v-36h-119v-290h130z" />
    <glyph glyph-name="Egrave" unicode="&#xc8;" horiz-adv-x="532" 
d="M231 899l79 -147h-41l-87 147h49zM476 38v-38h-380v676h376v-38h-336v-268h306v-38h-306v-294h340z" />
    <glyph glyph-name="Eacute" unicode="&#xc9;" horiz-adv-x="532" 
d="M387 899l-87 -147h-41l79 147h49zM476 38v-38h-380v676h376v-38h-336v-268h306v-38h-306v-294h340z" />
    <glyph glyph-name="Ecircumflex" unicode="&#xca;" horiz-adv-x="532" 
d="M305 899l103 -147h-41l-83 113l-82 -113h-41l103 147h41zM476 38v-38h-380v676h376v-38h-336v-268h306v-38h-306v-294h340z" />
    <glyph glyph-name="Ecaron" unicode="&#x11a;" horiz-adv-x="532" 
d="M264 752l-103 147h41l83 -113l82 113h41l-103 -147h-41zM476 38v-38h-380v676h376v-38h-336v-268h306v-38h-306v-294h340z" />
    <glyph glyph-name="Edieresis" unicode="&#xcb;" horiz-adv-x="532" 
d="M200 784c-22 0 -39 12 -39 39c0 28 17 40 39 40c20 0 39 -12 39 -40c0 -27 -19 -39 -39 -39zM370 784c-22 0 -39 12 -39 39c0 28 17 40 39 40c20 0 39 -12 39 -40c0 -27 -19 -39 -39 -39zM476 38v-38h-380v676h376v-38h-336v-268h306v-38h-306v-294h340z" />
    <glyph glyph-name="Emacron" unicode="&#x112;" horiz-adv-x="532" 
d="M417 832v-36h-262v36h262zM476 38v-38h-380v676h376v-38h-336v-268h306v-38h-306v-294h340z" />
    <glyph glyph-name="Ebreve" unicode="&#x114;" horiz-adv-x="532" 
d="M407 882c0 -74 -50 -125 -122 -125c-71 0 -121 51 -121 125h35c0 -51 29 -90 86 -90c58 0 86 39 86 90h36zM476 38v-38h-380v676h376v-38h-336v-268h306v-38h-306v-294h340z" />
    <glyph glyph-name="Edotaccent" unicode="&#x116;" horiz-adv-x="532" 
d="M285 784c-22 0 -39 12 -39 39c0 28 17 40 39 40c20 0 39 -12 39 -40c0 -27 -19 -39 -39 -39zM476 38v-38h-380v676h376v-38h-336v-268h306v-38h-306v-294h340z" />
    <glyph glyph-name="Eogonek" unicode="&#x118;" horiz-adv-x="532" 
d="M396 -66c-24 -21 -35 -39 -35 -64c0 -23 16 -50 56 -50c22 0 41 11 59 25v-40c-12 -9 -32 -21 -63 -21c-59 0 -92 38 -92 84c0 38 21 65 45 85l58 47h-328v676h376v-38h-336v-268h306v-38h-306v-294h340v-38z" />
    <glyph glyph-name="Gcircumflex" unicode="&#x11c;" horiz-adv-x="632" 
d="M362 899l103 -147h-41l-83 113l-82 -113h-41l103 147h41zM343 354h230c2 -7 3 -25 3 -33c0 -185 -56 -331 -246 -331c-187 0 -265 128 -265 347c0 203 66 349 276 349c106 0 165 -43 203 -105l-32 -24c-40 63 -87 90 -171 90c-190 0 -235 -139 -235 -310
c0 -182 56 -310 223 -310c161 0 206 127 206 287h-192v40z" />
    <glyph glyph-name="Gbreve" unicode="&#x11e;" horiz-adv-x="632" 
d="M464 882c0 -74 -50 -125 -122 -125c-71 0 -121 51 -121 125h35c0 -51 29 -90 86 -90c58 0 86 39 86 90h36zM343 354h230c2 -7 3 -25 3 -33c0 -185 -56 -331 -246 -331c-187 0 -265 128 -265 347c0 203 66 349 276 349c106 0 165 -43 203 -105l-32 -24
c-40 63 -87 90 -171 90c-190 0 -235 -139 -235 -310c0 -182 56 -310 223 -310c161 0 206 127 206 287h-192v40z" />
    <glyph glyph-name="Gdotaccent" unicode="&#x120;" horiz-adv-x="632" 
d="M342 784c-22 0 -39 12 -39 39c0 28 17 40 39 40c20 0 39 -12 39 -40c0 -27 -19 -39 -39 -39zM343 354h230c2 -7 3 -25 3 -33c0 -185 -56 -331 -246 -331c-187 0 -265 128 -265 347c0 203 66 349 276 349c106 0 165 -43 203 -105l-32 -24c-40 63 -87 90 -171 90
c-190 0 -235 -139 -235 -310c0 -182 56 -310 223 -310c161 0 206 127 206 287h-192v40z" />
    <glyph glyph-name="uni0122" unicode="&#x122;" horiz-adv-x="632" 
d="M343 354h230c2 -7 3 -25 3 -33c0 -185 -56 -331 -246 -331c-187 0 -265 128 -265 347c0 203 66 349 276 349c106 0 165 -43 203 -105l-32 -24c-40 63 -87 90 -171 90c-190 0 -235 -139 -235 -310c0 -182 56 -310 223 -310c161 0 206 127 206 287h-192v40zM327 -216h-34
l25 143h51z" />
    <glyph glyph-name="Hcircumflex" unicode="&#x124;" horiz-adv-x="667" 
d="M354 899l103 -147h-41l-83 113l-82 -113h-41l103 147h41zM531 676h40v-676h-40v340h-395v-340h-40v676h40v-298h395v298z" />
    <glyph glyph-name="Hbar" unicode="&#x126;" horiz-adv-x="668" 
d="M624 549v-35h-53v-514h-40v340h-395v-340h-40v514h-47v35h47v127h40v-127h395v127h40v-127h53zM531 378v136h-395v-136h395z" />
    <glyph glyph-name="Igrave" unicode="&#xcc;" horiz-adv-x="232" 
d="M62 899l79 -147h-41l-87 147h49zM96 676h40v-676h-40v676z" />
    <glyph glyph-name="Iacute" unicode="&#xcd;" horiz-adv-x="232" 
d="M218 899l-87 -147h-41l79 147h49zM96 676h40v-676h-40v676z" />
    <glyph glyph-name="Ibreve" unicode="&#x12c;" horiz-adv-x="232" 
d="M238 882c0 -74 -50 -125 -122 -125c-71 0 -121 51 -121 125h35c0 -51 29 -90 86 -90c58 0 86 39 86 90h36zM96 676h40v-676h-40v676z" />
    <glyph glyph-name="Icircumflex" unicode="&#xce;" horiz-adv-x="232" 
d="M136 899l103 -147h-41l-83 113l-82 -113h-41l103 147h41zM96 676h40v-676h-40v676z" />
    <glyph glyph-name="Itilde" unicode="&#x128;" horiz-adv-x="232" 
d="M236 784c-15 16 -35 26 -54 26c-43 0 -76 -36 -131 -36c-27 0 -54 14 -64 27l10 34c13 -14 31 -24 54 -24c49 0 76 36 131 36c32 0 54 -17 64 -27zM96 676h40v-676h-40v676z" />
    <glyph glyph-name="Idieresis" unicode="&#xcf;" horiz-adv-x="232" 
d="M31 784c-22 0 -39 12 -39 39c0 28 17 40 39 40c20 0 39 -12 39 -40c0 -27 -19 -39 -39 -39zM201 784c-22 0 -39 12 -39 39c0 28 17 40 39 40c20 0 39 -12 39 -40c0 -27 -19 -39 -39 -39zM96 676h40v-676h-40v676z" />
    <glyph glyph-name="Imacron" unicode="&#x12a;" horiz-adv-x="232" 
d="M248 832v-36h-262v36h262zM96 676h40v-676h-40v676z" />
    <glyph glyph-name="Idotaccent" unicode="&#x130;" horiz-adv-x="232" 
d="M116 784c-22 0 -39 12 -39 39c0 28 17 40 39 40c20 0 39 -12 39 -40c0 -27 -19 -39 -39 -39zM96 676h40v-676h-40v676z" />
    <glyph glyph-name="Iogonek" unicode="&#x12e;" horiz-adv-x="232" 
d="M56 -66c-24 -21 -35 -39 -35 -64c0 -23 16 -50 56 -50c22 0 41 11 59 25v-40c-12 -9 -32 -21 -63 -21c-59 0 -92 38 -92 84c0 38 21 65 45 85l70 57v666h40v-676z" />
    <glyph glyph-name="Jcircumflex" unicode="&#x134;" horiz-adv-x="490" 
d="M399 899l103 -147h-41l-83 113l-82 -113h-41l103 147h41zM65 106c34 -59 74 -77 135 -77c96 0 159 51 159 212v435h40v-430c0 -190 -83 -256 -199 -256c-81 0 -136 37 -168 93z" />
    <glyph glyph-name="uni0136" unicode="&#x136;" horiz-adv-x="593" 
d="M136 245v-245h-40v676h40v-376l369 376h58l-274 -280l274 -396h-55l-250 367zM267 -216h-34l25 143h51z" />
    <glyph glyph-name="Lacute" unicode="&#x139;" horiz-adv-x="472" 
d="M218 899l-87 -147h-41l79 147h49zM446 38v-38h-350v676h40v-638h310z" />
    <glyph glyph-name="Lcaron" unicode="&#x13d;" horiz-adv-x="472" 
d="M446 38v-38h-350v676h40v-638h310zM441 533h-34l25 143h51z" />
    <glyph glyph-name="uni013B" unicode="&#x13b;" horiz-adv-x="472" 
d="M446 38v-38h-350v676h40v-638h310zM256 -216h-34l25 143h51z" />
    <glyph glyph-name="Lslash" unicode="&#x141;" horiz-adv-x="487" 
d="M27 235v40l84 35v366h40v-350l95 39v-39l-95 -39v-249h310v-38h-350v270z" />
    <glyph glyph-name="Ldot" unicode="&#x13f;" horiz-adv-x="498" 
d="M446 38v-38h-350v676h40v-638h310zM357 315c-24 0 -42 18 -42 42s18 42 42 42c25 0 43 -18 43 -42s-18 -42 -43 -42z" />
    <glyph glyph-name="Nacute" unicode="&#x143;" horiz-adv-x="680" 
d="M442 899l-87 -147h-41l79 147h49zM545 676h39v-676h-46l-402 613v-613h-40v676h45l403 -613z" />
    <glyph glyph-name="Ncaron" unicode="&#x147;" horiz-adv-x="680" 
d="M319 752l-103 147h41l83 -113l82 113h41l-103 -147h-41zM545 676h39v-676h-46l-402 613v-613h-40v676h45l403 -613z" />
    <glyph glyph-name="Ntilde" unicode="&#xd1;" horiz-adv-x="680" 
d="M460 784c-15 16 -35 26 -54 26c-43 0 -76 -36 -131 -36c-27 0 -54 14 -64 27l10 34c13 -14 31 -24 54 -24c49 0 76 36 131 36c32 0 54 -17 64 -27zM545 676h39v-676h-46l-402 613v-613h-40v676h45l403 -613z" />
    <glyph glyph-name="uni0145" unicode="&#x145;" horiz-adv-x="680" 
d="M545 676h39v-676h-46l-402 613v-613h-40v676h45l403 -613zM328 -216h-34l25 143h51z" />
    <glyph glyph-name="Ograve" unicode="&#xd2;" horiz-adv-x="656" 
d="M273 899l79 -147h-41l-87 147h49zM591 337c0 -205 -75 -347 -265 -347c-188 0 -261 142 -261 347s74 349 262 349c189 0 264 -145 264 -349zM106 337c0 -184 55 -308 220 -308c172 0 224 124 224 308c0 182 -52 310 -223 310c-166 0 -221 -128 -221 -310z" />
    <glyph glyph-name="Oacute" unicode="&#xd3;" horiz-adv-x="656" 
d="M429 899l-87 -147h-41l79 147h49zM591 337c0 -205 -75 -347 -265 -347c-188 0 -261 142 -261 347s74 349 262 349c189 0 264 -145 264 -349zM106 337c0 -184 55 -308 220 -308c172 0 224 124 224 308c0 182 -52 310 -223 310c-166 0 -221 -128 -221 -310z" />
    <glyph glyph-name="Ocircumflex" unicode="&#xd4;" horiz-adv-x="656" 
d="M347 899l103 -147h-41l-83 113l-82 -113h-41l103 147h41zM591 337c0 -205 -75 -347 -265 -347c-188 0 -261 142 -261 347s74 349 262 349c189 0 264 -145 264 -349zM106 337c0 -184 55 -308 220 -308c172 0 224 124 224 308c0 182 -52 310 -223 310
c-166 0 -221 -128 -221 -310z" />
    <glyph glyph-name="Otilde" unicode="&#xd5;" horiz-adv-x="656" 
d="M447 784c-15 16 -35 26 -54 26c-43 0 -76 -36 -131 -36c-27 0 -54 14 -64 27l10 34c13 -14 31 -24 54 -24c49 0 76 36 131 36c32 0 54 -17 64 -27zM591 337c0 -205 -75 -347 -265 -347c-188 0 -261 142 -261 347s74 349 262 349c189 0 264 -145 264 -349zM106 337
c0 -184 55 -308 220 -308c172 0 224 124 224 308c0 182 -52 310 -223 310c-166 0 -221 -128 -221 -310z" />
    <glyph glyph-name="Odieresis" unicode="&#xd6;" horiz-adv-x="656" 
d="M242 784c-22 0 -39 12 -39 39c0 28 17 40 39 40c20 0 39 -12 39 -40c0 -27 -19 -39 -39 -39zM412 784c-22 0 -39 12 -39 39c0 28 17 40 39 40c20 0 39 -12 39 -40c0 -27 -19 -39 -39 -39zM591 337c0 -205 -75 -347 -265 -347c-188 0 -261 142 -261 347s74 349 262 349
c189 0 264 -145 264 -349zM106 337c0 -184 55 -308 220 -308c172 0 224 124 224 308c0 182 -52 310 -223 310c-166 0 -221 -128 -221 -310z" />
    <glyph glyph-name="Omacron" unicode="&#x14c;" horiz-adv-x="656" 
d="M459 832v-36h-262v36h262zM591 337c0 -205 -75 -347 -265 -347c-188 0 -261 142 -261 347s74 349 262 349c189 0 264 -145 264 -349zM106 337c0 -184 55 -308 220 -308c172 0 224 124 224 308c0 182 -52 310 -223 310c-166 0 -221 -128 -221 -310z" />
    <glyph glyph-name="Obreve" unicode="&#x14e;" horiz-adv-x="656" 
d="M449 882c0 -74 -50 -125 -122 -125c-71 0 -121 51 -121 125h35c0 -51 29 -90 86 -90c58 0 86 39 86 90h36zM591 337c0 -205 -75 -347 -265 -347c-188 0 -261 142 -261 347s74 349 262 349c189 0 264 -145 264 -349zM106 337c0 -184 55 -308 220 -308
c172 0 224 124 224 308c0 182 -52 310 -223 310c-166 0 -221 -128 -221 -310z" />
    <glyph glyph-name="Ohungarumlaut" unicode="&#x150;" horiz-adv-x="656" 
d="M360 899l-87 -147h-41l79 147h49zM490 899l-87 -147h-41l79 147h49zM591 337c0 -205 -75 -347 -265 -347c-188 0 -261 142 -261 347s74 349 262 349c189 0 264 -145 264 -349zM106 337c0 -184 55 -308 220 -308c172 0 224 124 224 308c0 182 -52 310 -223 310
c-166 0 -221 -128 -221 -310z" />
    <glyph glyph-name="Oslash" unicode="&#xd8;" horiz-adv-x="658" 
d="M592 337c0 -205 -75 -347 -265 -347c-81 0 -141 26 -182 72l-47 -62h-45l69 92c-39 61 -56 145 -56 245c0 205 74 349 262 349c82 0 143 -28 185 -76l50 66h47l-74 -97c39 -61 56 -145 56 -242zM107 337c0 -86 12 -158 41 -211l342 453c-35 43 -87 68 -162 68
c-166 0 -221 -128 -221 -310zM551 337c0 83 -11 155 -40 209l-342 -452c35 -42 86 -65 158 -65c172 0 224 124 224 308z" />
    <glyph glyph-name="Oslashacute" unicode="&#x1fe;" horiz-adv-x="658" 
d="M431 899l-87 -147h-41l79 147h49zM592 337c0 -205 -75 -347 -265 -347c-81 0 -141 26 -182 72l-47 -62h-45l69 92c-39 61 -56 145 -56 245c0 205 74 349 262 349c82 0 143 -28 185 -76l50 66h47l-74 -97c39 -61 56 -145 56 -242zM107 337c0 -86 12 -158 41 -211l342 453
c-35 43 -87 68 -162 68c-166 0 -221 -128 -221 -310zM551 337c0 83 -11 155 -40 209l-342 -452c35 -42 86 -65 158 -65c172 0 224 124 224 308z" />
    <glyph glyph-name="OE" unicode="&#x152;" horiz-adv-x="866" 
d="M810 38v-38h-379c-28 -6 -68 -10 -105 -10c-188 0 -261 142 -261 347s74 349 262 349c35 0 74 -4 106 -10h373v-38h-336v-268h306v-38h-306v-294h340zM326 29c35 0 73 3 104 10v595c-33 9 -68 13 -103 13c-166 0 -220 -128 -220 -310c0 -184 54 -308 219 -308z" />
    <glyph glyph-name="Racute" unicode="&#x154;" horiz-adv-x="587" 
d="M374 899l-87 -147h-41l79 147h49zM96 676h213c151 0 221 -67 221 -177c0 -109 -72 -171 -192 -178l214 -321h-50l-210 319h-156l-1 -319h-39v676zM489 499c0 88 -50 139 -180 139h-173v-281h173c130 0 180 53 180 142z" />
    <glyph glyph-name="Rcaron" unicode="&#x158;" horiz-adv-x="587" 
d="M251 752l-103 147h41l83 -113l82 113h41l-103 -147h-41zM96 676h213c151 0 221 -67 221 -177c0 -109 -72 -171 -192 -178l214 -321h-50l-210 319h-156l-1 -319h-39v676zM489 499c0 88 -50 139 -180 139h-173v-281h173c130 0 180 53 180 142z" />
    <glyph glyph-name="uni0156" unicode="&#x156;" horiz-adv-x="587" 
d="M96 676h213c151 0 221 -67 221 -177c0 -109 -72 -171 -192 -178l214 -321h-50l-210 319h-156l-1 -319h-39v676zM489 499c0 88 -50 139 -180 139h-173v-281h173c130 0 180 53 180 142zM262 -216h-34l25 143h51z" />
    <glyph glyph-name="Sacute" unicode="&#x15a;" horiz-adv-x="546" 
d="M376 899l-87 -147h-41l79 147h49zM440 566c-31 53 -86 81 -163 81c-111 0 -164 -66 -164 -148c0 -74 44 -103 122 -126l95 -27c81 -24 159 -62 159 -168c0 -103 -71 -188 -218 -188c-155 0 -197 76 -221 132l39 16c21 -55 58 -109 182 -109c120 0 177 61 177 149
c0 77 -58 109 -129 129l-96 27c-84 25 -151 71 -151 165c0 99 72 187 205 187c101 0 173 -47 200 -98z" />
    <glyph glyph-name="Scircumflex" unicode="&#x15c;" horiz-adv-x="546" 
d="M294 899l103 -147h-41l-83 113l-82 -113h-41l103 147h41zM440 566c-31 53 -86 81 -163 81c-111 0 -164 -66 -164 -148c0 -74 44 -103 122 -126l95 -27c81 -24 159 -62 159 -168c0 -103 -71 -188 -218 -188c-155 0 -197 76 -221 132l39 16c21 -55 58 -109 182 -109
c120 0 177 61 177 149c0 77 -58 109 -129 129l-96 27c-84 25 -151 71 -151 165c0 99 72 187 205 187c101 0 173 -47 200 -98z" />
    <glyph glyph-name="Scaron" unicode="&#x160;" horiz-adv-x="546" 
d="M253 752l-103 147h41l83 -113l82 113h41l-103 -147h-41zM440 566c-31 53 -86 81 -163 81c-111 0 -164 -66 -164 -148c0 -74 44 -103 122 -126l95 -27c81 -24 159 -62 159 -168c0 -103 -71 -188 -218 -188c-155 0 -197 76 -221 132l39 16c21 -55 58 -109 182 -109
c120 0 177 61 177 149c0 77 -58 109 -129 129l-96 27c-84 25 -151 71 -151 165c0 99 72 187 205 187c101 0 173 -47 200 -98z" />
    <glyph glyph-name="Scedilla" unicode="&#x15e;" horiz-adv-x="546" 
d="M489 178c0 -100 -67 -183 -206 -188l-19 -51c47 0 88 -21 88 -81c0 -31 -27 -74 -91 -74c-28 0 -55 11 -75 22v40c21 -15 47 -26 75 -26c34 0 50 19 50 38c0 37 -28 45 -66 45h-26l-2 4l26 84c-132 8 -171 79 -193 131l39 16c21 -55 58 -109 182 -109
c120 0 177 61 177 149c0 77 -58 109 -129 129l-96 27c-84 25 -151 71 -151 165c0 99 72 187 205 187c101 0 173 -47 200 -98l-37 -22c-31 53 -86 81 -163 81c-111 0 -164 -66 -164 -148c0 -74 44 -103 122 -126l95 -27c81 -24 159 -62 159 -168z" />
    <glyph glyph-name="uni0218" unicode="&#x218;" horiz-adv-x="546" 
d="M440 566c-31 53 -86 81 -163 81c-111 0 -164 -66 -164 -148c0 -74 44 -103 122 -126l95 -27c81 -24 159 -62 159 -168c0 -103 -71 -188 -218 -188c-155 0 -197 76 -221 132l39 16c21 -55 58 -109 182 -109c120 0 177 61 177 149c0 77 -58 109 -129 129l-96 27
c-84 25 -151 71 -151 165c0 99 72 187 205 187c101 0 173 -47 200 -98zM261 -216h-34l25 143h51z" />
    <glyph glyph-name="Tcaron" unicode="&#x164;" horiz-adv-x="530" 
d="M244 752l-103 147h41l83 -113l82 113h41l-103 -147h-41zM493 676v-38h-208v-638h-40v638h-208v38h456z" />
    <glyph glyph-name="uni021A" unicode="&#x21a;" horiz-adv-x="530" 
d="M493 676v-38h-208v-638h-40v638h-208v38h456zM248 -216h-34l25 143h51z" />
    <glyph glyph-name="Tbar" unicode="&#x166;" horiz-adv-x="535" 
d="M493 638h-208v-274h98v-36h-98v-328h-40v328h-94v36h94v274h-208v38h456v-38z" />
    <glyph glyph-name="Thorn" unicode="&#xde;" horiz-adv-x="551" 
d="M136 147v-147h-40v677h39v-139h155c152 0 212 -80 212 -195c0 -114 -60 -196 -212 -196h-154zM136 185h154c129 0 171 67 171 158s-42 157 -171 157h-154v-315z" />
    <glyph glyph-name="Ugrave" unicode="&#xd9;" horiz-adv-x="657" 
d="M275 899l79 -147h-41l-87 147h49zM328 -10c-138 0 -237 66 -237 256v430h40v-435c0 -158 75 -212 197 -212c120 0 198 53 198 212v435h40v-430c0 -191 -100 -256 -238 -256z" />
    <glyph glyph-name="Uacute" unicode="&#xda;" horiz-adv-x="657" 
d="M431 899l-87 -147h-41l79 147h49zM328 -10c-138 0 -237 66 -237 256v430h40v-435c0 -158 75 -212 197 -212c120 0 198 53 198 212v435h40v-430c0 -191 -100 -256 -238 -256z" />
    <glyph glyph-name="Ucircumflex" unicode="&#xdb;" horiz-adv-x="657" 
d="M349 899l103 -147h-41l-83 113l-82 -113h-41l103 147h41zM328 -10c-138 0 -237 66 -237 256v430h40v-435c0 -158 75 -212 197 -212c120 0 198 53 198 212v435h40v-430c0 -191 -100 -256 -238 -256z" />
    <glyph glyph-name="Utilde" unicode="&#x168;" horiz-adv-x="657" 
d="M449 784c-15 16 -35 26 -54 26c-43 0 -76 -36 -131 -36c-27 0 -54 14 -64 27l10 34c13 -14 31 -24 54 -24c49 0 76 36 131 36c32 0 54 -17 64 -27zM328 -10c-138 0 -237 66 -237 256v430h40v-435c0 -158 75 -212 197 -212c120 0 198 53 198 212v435h40v-430
c0 -191 -100 -256 -238 -256z" />
    <glyph glyph-name="Udieresis" unicode="&#xdc;" horiz-adv-x="657" 
d="M244 784c-22 0 -39 12 -39 39c0 28 17 40 39 40c20 0 39 -12 39 -40c0 -27 -19 -39 -39 -39zM414 784c-22 0 -39 12 -39 39c0 28 17 40 39 40c20 0 39 -12 39 -40c0 -27 -19 -39 -39 -39zM328 -10c-138 0 -237 66 -237 256v430h40v-435c0 -158 75 -212 197 -212
c120 0 198 53 198 212v435h40v-430c0 -191 -100 -256 -238 -256z" />
    <glyph glyph-name="Umacron" unicode="&#x16a;" horiz-adv-x="657" 
d="M461 832v-36h-262v36h262zM328 -10c-138 0 -237 66 -237 256v430h40v-435c0 -158 75 -212 197 -212c120 0 198 53 198 212v435h40v-430c0 -191 -100 -256 -238 -256z" />
    <glyph glyph-name="Ubreve" unicode="&#x16c;" horiz-adv-x="657" 
d="M451 882c0 -74 -50 -125 -122 -125c-71 0 -121 51 -121 125h35c0 -51 29 -90 86 -90c58 0 86 39 86 90h36zM328 -10c-138 0 -237 66 -237 256v430h40v-435c0 -158 75 -212 197 -212c120 0 198 53 198 212v435h40v-430c0 -191 -100 -256 -238 -256z" />
    <glyph glyph-name="Uring" unicode="&#x16e;" horiz-adv-x="657" 
d="M231 828c0 54 40 89 98 89c59 0 99 -35 99 -89s-40 -90 -99 -90c-58 0 -98 36 -98 90zM268 828c0 -36 24 -59 61 -59c38 0 62 23 62 59s-24 58 -62 58c-37 0 -61 -22 -61 -58zM328 -10c-138 0 -237 66 -237 256v430h40v-435c0 -158 75 -212 197 -212
c120 0 198 53 198 212v435h40v-430c0 -191 -100 -256 -238 -256z" />
    <glyph glyph-name="Uhungarumlaut" unicode="&#x170;" horiz-adv-x="657" 
d="M362 899l-87 -147h-41l79 147h49zM492 899l-87 -147h-41l79 147h49zM328 -10c-138 0 -237 66 -237 256v430h40v-435c0 -158 75 -212 197 -212c120 0 198 53 198 212v435h40v-430c0 -191 -100 -256 -238 -256z" />
    <glyph glyph-name="Uogonek" unicode="&#x172;" horiz-adv-x="657" 
d="M526 676h40v-430c0 -176 -85 -245 -207 -255l-69 -57c-24 -21 -35 -39 -35 -64c0 -23 16 -50 56 -50c22 0 41 11 59 25v-40c-12 -9 -32 -21 -63 -21c-59 0 -92 38 -92 84c0 38 21 65 45 85l46 38c-126 6 -215 75 -215 255v430h40v-435c0 -158 75 -212 197 -212
c120 0 198 53 198 212v435z" />
    <glyph glyph-name="Wacute" unicode="&#x1e82;" horiz-adv-x="967" 
d="M586 899l-87 -147h-41l79 147h49zM508 676l190 -624l192 624h46l-212 -676h-52l-189 619l-188 -619h-52l-212 676h46l192 -624l190 624h49z" />
    <glyph glyph-name="Wcircumflex" unicode="&#x174;" horiz-adv-x="967" 
d="M504 899l103 -147h-41l-83 113l-82 -113h-41l103 147h41zM508 676l190 -624l192 624h46l-212 -676h-52l-189 619l-188 -619h-52l-212 676h46l192 -624l190 624h49z" />
    <glyph glyph-name="Wdieresis" unicode="&#x1e84;" horiz-adv-x="967" 
d="M399 784c-22 0 -39 12 -39 39c0 28 17 40 39 40c20 0 39 -12 39 -40c0 -27 -19 -39 -39 -39zM569 784c-22 0 -39 12 -39 39c0 28 17 40 39 40c20 0 39 -12 39 -40c0 -27 -19 -39 -39 -39zM508 676l190 -624l192 624h46l-212 -676h-52l-189 619l-188 -619h-52l-212 676h46
l192 -624l190 624h49z" />
    <glyph glyph-name="Wgrave" unicode="&#x1e80;" horiz-adv-x="967" 
d="M430 899l79 -147h-41l-87 147h49zM508 676l190 -624l192 624h46l-212 -676h-52l-189 619l-188 -619h-52l-212 676h46l192 -624l190 624h49z" />
    <glyph glyph-name="Yacute" unicode="&#xdd;" horiz-adv-x="558" 
d="M381 899l-87 -147h-41l79 147h49zM259 0v277l-234 399h47l207 -358l207 358h48l-235 -399v-277h-40z" />
    <glyph glyph-name="Ycircumflex" unicode="&#x176;" horiz-adv-x="558" 
d="M299 899l103 -147h-41l-83 113l-82 -113h-41l103 147h41zM259 0v277l-234 399h47l207 -358l207 358h48l-235 -399v-277h-40z" />
    <glyph glyph-name="Ydieresis" unicode="&#x178;" horiz-adv-x="558" 
d="M194 784c-22 0 -39 12 -39 39c0 28 17 40 39 40c20 0 39 -12 39 -40c0 -27 -19 -39 -39 -39zM364 784c-22 0 -39 12 -39 39c0 28 17 40 39 40c20 0 39 -12 39 -40c0 -27 -19 -39 -39 -39zM259 0v277l-234 399h47l207 -358l207 358h48l-235 -399v-277h-40z" />
    <glyph glyph-name="Ygrave" unicode="&#x1ef2;" horiz-adv-x="558" 
d="M225 899l79 -147h-41l-87 147h49zM259 0v277l-234 399h47l207 -358l207 358h48l-235 -399v-277h-40z" />
    <glyph glyph-name="Zacute" unicode="&#x179;" horiz-adv-x="508" 
d="M360 899l-87 -147h-41l79 147h49zM457 641l-367 -603h371v-38h-421v35l367 603h-345v38h395v-35z" />
    <glyph glyph-name="Zcaron" unicode="&#x17d;" horiz-adv-x="508" 
d="M237 752l-103 147h41l83 -113l82 113h41l-103 -147h-41zM457 641l-367 -603h371v-38h-421v35l367 603h-345v38h395v-35z" />
    <glyph glyph-name="Zdotaccent" unicode="&#x17b;" horiz-adv-x="508" 
d="M258 784c-22 0 -39 12 -39 39c0 28 17 40 39 40c20 0 39 -12 39 -40c0 -27 -19 -39 -39 -39zM457 641l-367 -603h371v-38h-421v35l367 603h-345v38h395v-35z" />
    <glyph glyph-name="agrave" unicode="&#xe0;" horiz-adv-x="467" 
d="M185 696l79 -147h-41l-87 147h49zM351 0v60c-26 -30 -80 -70 -161 -70c-91 0 -142 46 -142 125c0 87 80 126 198 141l105 13v60c0 68 -29 100 -116 100c-80 0 -119 -26 -119 -68v-34h-37c-2 12 -3 20 -3 34c0 59 47 105 159 105c109 0 154 -50 154 -135v-331h-38zM88 115
c0 -55 31 -88 102 -88s128 35 161 73v133l-101 -13c-99 -13 -162 -40 -162 -105z" />
    <glyph glyph-name="aacute" unicode="&#xe1;" horiz-adv-x="467" 
d="M341 696l-87 -147h-41l79 147h49zM351 0v60c-26 -30 -80 -70 -161 -70c-91 0 -142 46 -142 125c0 87 80 126 198 141l105 13v60c0 68 -29 100 -116 100c-80 0 -119 -26 -119 -68v-34h-37c-2 12 -3 20 -3 34c0 59 47 105 159 105c109 0 154 -50 154 -135v-331h-38zM88 115
c0 -55 31 -88 102 -88s128 35 161 73v133l-101 -13c-99 -13 -162 -40 -162 -105z" />
    <glyph glyph-name="acircumflex" unicode="&#xe2;" horiz-adv-x="467" 
d="M259 696l103 -147h-41l-83 113l-82 -113h-41l103 147h41zM351 0v60c-26 -30 -80 -70 -161 -70c-91 0 -142 46 -142 125c0 87 80 126 198 141l105 13v60c0 68 -29 100 -116 100c-80 0 -119 -26 -119 -68v-34h-37c-2 12 -3 20 -3 34c0 59 47 105 159 105
c109 0 154 -50 154 -135v-331h-38zM88 115c0 -55 31 -88 102 -88s128 35 161 73v133l-101 -13c-99 -13 -162 -40 -162 -105z" />
    <glyph glyph-name="atilde" unicode="&#xe3;" horiz-adv-x="467" 
d="M359 581c-15 16 -35 26 -54 26c-43 0 -76 -36 -131 -36c-27 0 -54 14 -64 27l10 34c13 -14 31 -24 54 -24c49 0 76 36 131 36c32 0 54 -17 64 -27zM351 0v60c-26 -30 -80 -70 -161 -70c-91 0 -142 46 -142 125c0 87 80 126 198 141l105 13v60c0 68 -29 100 -116 100
c-80 0 -119 -26 -119 -68v-34h-37c-2 12 -3 20 -3 34c0 59 47 105 159 105c109 0 154 -50 154 -135v-331h-38zM88 115c0 -55 31 -88 102 -88s128 35 161 73v133l-101 -13c-99 -13 -162 -40 -162 -105z" />
    <glyph glyph-name="adieresis" unicode="&#xe4;" horiz-adv-x="467" 
d="M154 581c-22 0 -39 12 -39 39c0 28 17 40 39 40c20 0 39 -12 39 -40c0 -27 -19 -39 -39 -39zM324 581c-22 0 -39 12 -39 39c0 28 17 40 39 40c20 0 39 -12 39 -40c0 -27 -19 -39 -39 -39zM351 0v60c-26 -30 -80 -70 -161 -70c-91 0 -142 46 -142 125c0 87 80 126 198 141
l105 13v60c0 68 -29 100 -116 100c-80 0 -119 -26 -119 -68v-34h-37c-2 12 -3 20 -3 34c0 59 47 105 159 105c109 0 154 -50 154 -135v-331h-38zM88 115c0 -55 31 -88 102 -88s128 35 161 73v133l-101 -13c-99 -13 -162 -40 -162 -105z" />
    <glyph glyph-name="amacron" unicode="&#x101;" horiz-adv-x="467" 
d="M371 629v-36h-262v36h262zM351 0v60c-26 -30 -80 -70 -161 -70c-91 0 -142 46 -142 125c0 87 80 126 198 141l105 13v60c0 68 -29 100 -116 100c-80 0 -119 -26 -119 -68v-34h-37c-2 12 -3 20 -3 34c0 59 47 105 159 105c109 0 154 -50 154 -135v-331h-38zM88 115
c0 -55 31 -88 102 -88s128 35 161 73v133l-101 -13c-99 -13 -162 -40 -162 -105z" />
    <glyph glyph-name="abreve" unicode="&#x103;" horiz-adv-x="467" 
d="M361 679c0 -74 -50 -125 -122 -125c-71 0 -121 51 -121 125h35c0 -51 29 -90 86 -90c58 0 86 39 86 90h36zM351 0v60c-26 -30 -80 -70 -161 -70c-91 0 -142 46 -142 125c0 87 80 126 198 141l105 13v60c0 68 -29 100 -116 100c-80 0 -119 -26 -119 -68v-34h-37
c-2 12 -3 20 -3 34c0 59 47 105 159 105c109 0 154 -50 154 -135v-331h-38zM88 115c0 -55 31 -88 102 -88s128 35 161 73v133l-101 -13c-99 -13 -162 -40 -162 -105z" />
    <glyph glyph-name="aring" unicode="&#xe5;" horiz-adv-x="467" 
d="M141 625c0 54 40 89 98 89c59 0 99 -35 99 -89s-40 -90 -99 -90c-58 0 -98 36 -98 90zM178 625c0 -36 24 -59 61 -59c38 0 62 23 62 59s-24 58 -62 58c-37 0 -61 -22 -61 -58zM351 0v60c-26 -30 -80 -70 -161 -70c-91 0 -142 46 -142 125c0 87 80 126 198 141l105 13v60
c0 68 -29 100 -116 100c-80 0 -119 -26 -119 -68v-34h-37c-2 12 -3 20 -3 34c0 59 47 105 159 105c109 0 154 -50 154 -135v-331h-38zM88 115c0 -55 31 -88 102 -88s128 35 161 73v133l-101 -13c-99 -13 -162 -40 -162 -105z" />
    <glyph glyph-name="aringacute" unicode="&#x1fb;" horiz-adv-x="467" 
d="M142 615c0 51 36 85 89 89l57 69h49l-65 -73c41 -10 67 -42 67 -85c0 -54 -40 -90 -99 -90c-58 0 -98 36 -98 90zM179 615c0 -36 24 -58 61 -58c38 0 62 22 62 58s-24 58 -62 58c-37 0 -61 -22 -61 -58zM351 0v60c-26 -30 -80 -70 -161 -70c-91 0 -142 46 -142 125
c0 87 80 126 198 141l105 13v60c0 68 -29 100 -116 100c-80 0 -119 -26 -119 -68v-34h-37c-2 12 -3 20 -3 34c0 59 47 105 159 105c109 0 154 -50 154 -135v-331h-38zM88 115c0 -55 31 -88 102 -88s128 35 161 73v133l-101 -13c-99 -13 -162 -40 -162 -105z" />
    <glyph glyph-name="aogonek" unicode="&#x105;" horiz-adv-x="467" 
d="M48 115c0 87 80 126 198 141l105 13v60c0 68 -29 100 -116 100c-80 0 -119 -26 -119 -68v-34h-37c-2 12 -3 20 -3 34c0 59 47 105 159 105c109 0 154 -50 154 -135v-331l-58 -55c-21 -19 -29 -40 -29 -64c0 -23 14 -40 45 -40c23 0 41 9 53 17l12 -33
c-12 -6 -37 -19 -69 -19c-12 0 -23 2 -33 5c-30 10 -49 33 -49 68c0 38 24 69 46 90l44 42v49c-26 -30 -80 -70 -161 -70c-91 0 -142 46 -142 125zM88 115c0 -55 31 -88 102 -88s128 35 161 73v133l-101 -13c-99 -13 -162 -40 -162 -105z" />
    <glyph glyph-name="ae" unicode="&#xe6;" horiz-adv-x="765" 
d="M543 27c42 0 102 16 137 55l23 -29c-24 -32 -92 -63 -160 -63c-85 0 -136 35 -163 94c-38 -52 -110 -94 -190 -94c-91 0 -142 46 -142 125c0 87 80 126 198 141l105 13v60c0 68 -29 100 -116 100c-80 0 -119 -26 -119 -68v-34h-37c-2 12 -3 20 -3 34c0 59 47 105 159 105
c88 0 134 -33 149 -90c28 55 78 90 156 90c116 0 172 -89 172 -186c0 -18 -2 -44 -5 -63h-318c1 -112 42 -190 154 -190zM670 253c1 6 2 18 2 25c0 84 -42 151 -132 151c-106 0 -144 -76 -150 -176h280zM88 115c0 -55 31 -88 102 -88s128 35 161 73v133l-101 -13
c-99 -13 -162 -40 -162 -105z" />
    <glyph glyph-name="aeacute" unicode="&#x1fd;" horiz-adv-x="765" 
d="M510 696l-87 -147h-41l79 147h49zM543 27c42 0 102 16 137 55l23 -29c-24 -32 -92 -63 -160 -63c-85 0 -136 35 -163 94c-38 -52 -110 -94 -190 -94c-91 0 -142 46 -142 125c0 87 80 126 198 141l105 13v60c0 68 -29 100 -116 100c-80 0 -119 -26 -119 -68v-34h-37
c-2 12 -3 20 -3 34c0 59 47 105 159 105c88 0 134 -33 149 -90c28 55 78 90 156 90c116 0 172 -89 172 -186c0 -18 -2 -44 -5 -63h-318c1 -112 42 -190 154 -190zM670 253c1 6 2 18 2 25c0 84 -42 151 -132 151c-106 0 -144 -76 -150 -176h280zM88 115c0 -55 31 -88 102 -88
s128 35 161 73v133l-101 -13c-99 -13 -162 -40 -162 -105z" />
    <glyph glyph-name="cacute" unicode="&#x107;" horiz-adv-x="447" 
d="M354 696l-87 -147h-41l79 147h49zM55 227c0 138 61 239 194 239c72 0 125 -29 157 -84l-32 -21c-28 49 -69 68 -125 68c-112 0 -154 -86 -154 -202s42 -200 154 -200c56 0 98 19 125 67l32 -21c-31 -53 -85 -83 -157 -83c-133 0 -194 97 -194 237z" />
    <glyph glyph-name="ccircumflex" unicode="&#x109;" horiz-adv-x="447" 
d="M272 696l103 -147h-41l-83 113l-82 -113h-41l103 147h41zM55 227c0 138 61 239 194 239c72 0 125 -29 157 -84l-32 -21c-28 49 -69 68 -125 68c-112 0 -154 -86 -154 -202s42 -200 154 -200c56 0 98 19 125 67l32 -21c-31 -53 -85 -83 -157 -83c-133 0 -194 97 -194 237z
" />
    <glyph glyph-name="ccaron" unicode="&#x10d;" horiz-adv-x="447" 
d="M231 549l-103 147h41l83 -113l82 113h41l-103 -147h-41zM55 227c0 138 61 239 194 239c72 0 125 -29 157 -84l-32 -21c-28 49 -69 68 -125 68c-112 0 -154 -86 -154 -202s42 -200 154 -200c56 0 98 19 125 67l32 -21c-31 -53 -85 -83 -157 -83c-133 0 -194 97 -194 237z
" />
    <glyph glyph-name="cdotaccent" unicode="&#x10b;" horiz-adv-x="447" 
d="M252 581c-22 0 -39 12 -39 39c0 28 17 40 39 40c20 0 39 -12 39 -40c0 -27 -19 -39 -39 -39zM55 227c0 138 61 239 194 239c72 0 125 -29 157 -84l-32 -21c-28 49 -69 68 -125 68c-112 0 -154 -86 -154 -202s42 -200 154 -200c56 0 98 19 125 67l32 -21
c-31 -53 -85 -83 -157 -83c-133 0 -194 97 -194 237z" />
    <glyph glyph-name="ccedilla" unicode="&#xe7;" horiz-adv-x="447" 
d="M249 27c56 0 98 19 125 67l32 -21c-29 -50 -79 -79 -145 -83l-19 -51c47 0 88 -21 88 -81c0 -31 -27 -74 -91 -74c-28 0 -55 11 -75 22v40c21 -15 47 -26 75 -26c34 0 50 19 50 38c0 37 -28 45 -66 45h-26l-2 4l26 84c-113 13 -166 106 -166 236c0 138 61 239 194 239
c72 0 125 -29 157 -84l-32 -21c-28 49 -69 68 -125 68c-112 0 -154 -86 -154 -202s42 -200 154 -200z" />
    <glyph glyph-name="dcaron" unicode="&#x10f;" horiz-adv-x="512" 
d="M393 690h38v-690h-38v49c-25 -32 -75 -59 -142 -59c-139 0 -196 97 -196 239c0 141 58 237 197 237c68 0 114 -27 141 -62v286zM525 547h-34l25 143h51zM95 229c0 -115 37 -202 156 -202c73 0 121 36 142 79v243c-19 35 -64 80 -141 80c-121 0 -157 -82 -157 -200z" />
    <glyph glyph-name="dcroat" unicode="&#x111;" horiz-adv-x="513" 
d="M508 578v-36h-77v-542h-38v49c-25 -32 -75 -59 -142 -59c-139 0 -196 97 -196 239c0 141 58 237 197 237c68 0 114 -27 141 -62v138h-117v36h117v112h38v-112h77zM393 106v243c-19 35 -64 80 -141 80c-121 0 -157 -82 -157 -200c0 -115 37 -202 156 -202
c73 0 121 36 142 79z" />
    <glyph glyph-name="eth" unicode="&#xf0;" horiz-adv-x="523" 
d="M400 570c37 -68 60 -154 60 -256c0 -183 -49 -324 -207 -324c-134 0 -198 99 -198 229c0 131 64 228 194 228c92 0 146 -59 172 -121c0 87 -19 161 -56 226l-92 -47l-15 32l88 45c-28 39 -63 75 -107 108h60c30 -23 59 -53 83 -90l61 31l15 -32zM253 27
c131 0 156 125 163 234c-25 70 -75 149 -167 149c-108 0 -154 -80 -154 -191c0 -101 41 -192 158 -192z" />
    <glyph glyph-name="egrave" unicode="&#xe8;" horiz-adv-x="470" 
d="M193 696l79 -147h-41l-87 147h49zM248 27c42 0 102 16 137 55l23 -29c-24 -32 -92 -63 -160 -63c-141 0 -193 99 -193 239c0 135 56 237 190 237c116 0 172 -89 172 -186c0 -18 -2 -44 -5 -63h-318c1 -112 42 -190 154 -190zM375 253c1 6 2 18 2 25
c0 84 -42 151 -132 151c-106 0 -144 -76 -150 -176h280z" />
    <glyph glyph-name="eacute" unicode="&#xe9;" horiz-adv-x="470" 
d="M349 696l-87 -147h-41l79 147h49zM248 27c42 0 102 16 137 55l23 -29c-24 -32 -92 -63 -160 -63c-141 0 -193 99 -193 239c0 135 56 237 190 237c116 0 172 -89 172 -186c0 -18 -2 -44 -5 -63h-318c1 -112 42 -190 154 -190zM375 253c1 6 2 18 2 25
c0 84 -42 151 -132 151c-106 0 -144 -76 -150 -176h280z" />
    <glyph glyph-name="ecircumflex" unicode="&#xea;" horiz-adv-x="470" 
d="M267 696l103 -147h-41l-83 113l-82 -113h-41l103 147h41zM248 27c42 0 102 16 137 55l23 -29c-24 -32 -92 -63 -160 -63c-141 0 -193 99 -193 239c0 135 56 237 190 237c116 0 172 -89 172 -186c0 -18 -2 -44 -5 -63h-318c1 -112 42 -190 154 -190zM375 253
c1 6 2 18 2 25c0 84 -42 151 -132 151c-106 0 -144 -76 -150 -176h280z" />
    <glyph glyph-name="ecaron" unicode="&#x11b;" horiz-adv-x="470" 
d="M226 549l-103 147h41l83 -113l82 113h41l-103 -147h-41zM248 27c42 0 102 16 137 55l23 -29c-24 -32 -92 -63 -160 -63c-141 0 -193 99 -193 239c0 135 56 237 190 237c116 0 172 -89 172 -186c0 -18 -2 -44 -5 -63h-318c1 -112 42 -190 154 -190zM375 253c1 6 2 18 2 25
c0 84 -42 151 -132 151c-106 0 -144 -76 -150 -176h280z" />
    <glyph glyph-name="edieresis" unicode="&#xeb;" horiz-adv-x="470" 
d="M162 581c-22 0 -39 12 -39 39c0 28 17 40 39 40c20 0 39 -12 39 -40c0 -27 -19 -39 -39 -39zM332 581c-22 0 -39 12 -39 39c0 28 17 40 39 40c20 0 39 -12 39 -40c0 -27 -19 -39 -39 -39zM248 27c42 0 102 16 137 55l23 -29c-24 -32 -92 -63 -160 -63
c-141 0 -193 99 -193 239c0 135 56 237 190 237c116 0 172 -89 172 -186c0 -18 -2 -44 -5 -63h-318c1 -112 42 -190 154 -190zM375 253c1 6 2 18 2 25c0 84 -42 151 -132 151c-106 0 -144 -76 -150 -176h280z" />
    <glyph glyph-name="emacron" unicode="&#x113;" horiz-adv-x="470" 
d="M379 629v-36h-262v36h262zM248 27c42 0 102 16 137 55l23 -29c-24 -32 -92 -63 -160 -63c-141 0 -193 99 -193 239c0 135 56 237 190 237c116 0 172 -89 172 -186c0 -18 -2 -44 -5 -63h-318c1 -112 42 -190 154 -190zM375 253c1 6 2 18 2 25c0 84 -42 151 -132 151
c-106 0 -144 -76 -150 -176h280z" />
    <glyph glyph-name="ebreve" unicode="&#x115;" horiz-adv-x="470" 
d="M369 679c0 -74 -50 -125 -122 -125c-71 0 -121 51 -121 125h35c0 -51 29 -90 86 -90c58 0 86 39 86 90h36zM248 27c42 0 102 16 137 55l23 -29c-24 -32 -92 -63 -160 -63c-141 0 -193 99 -193 239c0 135 56 237 190 237c116 0 172 -89 172 -186c0 -18 -2 -44 -5 -63h-318
c1 -112 42 -190 154 -190zM375 253c1 6 2 18 2 25c0 84 -42 151 -132 151c-106 0 -144 -76 -150 -176h280z" />
    <glyph glyph-name="edotaccent" unicode="&#x117;" horiz-adv-x="470" 
d="M247 581c-22 0 -39 12 -39 39c0 28 17 40 39 40c20 0 39 -12 39 -40c0 -27 -19 -39 -39 -39zM248 27c42 0 102 16 137 55l23 -29c-24 -32 -92 -63 -160 -63c-141 0 -193 99 -193 239c0 135 56 237 190 237c116 0 172 -89 172 -186c0 -18 -2 -44 -5 -63h-318
c1 -112 42 -190 154 -190zM375 253c1 6 2 18 2 25c0 84 -42 151 -132 151c-106 0 -144 -76 -150 -176h280z" />
    <glyph glyph-name="eogonek" unicode="&#x119;" horiz-adv-x="470" 
d="M55 229c0 135 56 237 190 237c116 0 172 -89 172 -186c0 -18 -2 -44 -5 -63h-318c1 -112 42 -190 154 -190c42 0 102 16 137 55l23 -29l-107 -119c-21 -24 -33 -39 -33 -64c0 -23 16 -50 56 -50c22 0 41 11 59 25v-40c-12 -9 -32 -21 -63 -21c-59 0 -92 38 -92 84
c0 38 22 61 43 85l40 45c-20 -5 -42 -8 -63 -8c-141 0 -193 99 -193 239zM95 253h280c1 6 2 18 2 25c0 84 -42 151 -132 151c-106 0 -144 -76 -150 -176z" />
    <glyph glyph-name="gcircumflex" unicode="&#x11d;" horiz-adv-x="507" 
d="M273 696l103 -147h-41l-83 113l-82 -113h-41l103 147h41zM426 456v-498c0 -85 -66 -159 -175 -159c-112 0 -169 66 -169 125h40c0 -42 49 -88 129 -88c87 0 136 56 136 124v96c-25 -36 -72 -66 -137 -66c-142 0 -195 103 -195 238c0 139 57 238 195 238
c67 0 109 -26 137 -62v52h39zM95 228c0 -111 35 -201 155 -201c65 0 111 35 137 80v241c-19 35 -61 81 -137 81c-119 0 -155 -83 -155 -201z" />
    <glyph glyph-name="gbreve" unicode="&#x11f;" horiz-adv-x="507" 
d="M375 679c0 -74 -50 -125 -122 -125c-71 0 -121 51 -121 125h35c0 -51 29 -90 86 -90c58 0 86 39 86 90h36zM426 456v-498c0 -85 -66 -159 -175 -159c-112 0 -169 66 -169 125h40c0 -42 49 -88 129 -88c87 0 136 56 136 124v96c-25 -36 -72 -66 -137 -66
c-142 0 -195 103 -195 238c0 139 57 238 195 238c67 0 109 -26 137 -62v52h39zM95 228c0 -111 35 -201 155 -201c65 0 111 35 137 80v241c-19 35 -61 81 -137 81c-119 0 -155 -83 -155 -201z" />
    <glyph glyph-name="gdotaccent" unicode="&#x121;" horiz-adv-x="507" 
d="M253 581c-22 0 -39 12 -39 39c0 28 17 40 39 40c20 0 39 -12 39 -40c0 -27 -19 -39 -39 -39zM426 456v-498c0 -85 -66 -159 -175 -159c-112 0 -169 66 -169 125h40c0 -42 49 -88 129 -88c87 0 136 56 136 124v96c-25 -36 -72 -66 -137 -66c-142 0 -195 103 -195 238
c0 139 57 238 195 238c67 0 109 -26 137 -62v52h39zM95 228c0 -111 35 -201 155 -201c65 0 111 35 137 80v241c-19 35 -61 81 -137 81c-119 0 -155 -83 -155 -201z" />
    <glyph glyph-name="uni0123" unicode="&#x123;" horiz-adv-x="507" 
d="M273 721h34l-25 -163h-51zM426 456v-498c0 -85 -66 -159 -175 -159c-112 0 -169 66 -169 125h40c0 -42 49 -88 129 -88c87 0 136 56 136 124v96c-25 -36 -72 -66 -137 -66c-142 0 -195 103 -195 238c0 139 57 238 195 238c67 0 109 -26 137 -62v52h39zM95 228
c0 -111 35 -201 155 -201c65 0 111 35 137 80v241c-19 35 -61 81 -137 81c-119 0 -155 -83 -155 -201z" />
    <glyph glyph-name="hcircumflex" unicode="&#x125;" horiz-adv-x="520" 
d="M290 884l103 -147h-41l-83 113l-82 -113h-41l103 147h41zM82 690h38v-291c31 41 98 67 159 67c123 0 164 -59 164 -169v-297h-38v297c0 87 -29 132 -126 132c-73 0 -127 -29 -159 -72v-357h-38v690z" />
    <glyph glyph-name="hbar" unicode="&#x127;" horiz-adv-x="520" 
d="M279 466c123 0 164 -59 164 -169v-297h-38v297c0 87 -29 132 -126 132c-73 0 -127 -29 -159 -72v-357h-38v542h-72v36h72v112h38v-112h122v-36h-122v-143c31 41 98 67 159 67z" />
    <glyph glyph-name="dotlessi" unicode="&#x131;" horiz-adv-x="202" 
d="M82 456h38v-456h-38v456z" />
    <glyph glyph-name="igrave" unicode="&#xec;" horiz-adv-x="202" 
d="M47 696l79 -147h-41l-87 147h49zM82 456h38v-456h-38v456z" />
    <glyph glyph-name="iacute" unicode="&#xed;" horiz-adv-x="202" 
d="M203 696l-87 -147h-41l79 147h49zM82 456h38v-456h-38v456z" />
    <glyph glyph-name="ibreve" unicode="&#x12d;" horiz-adv-x="202" 
d="M223 679c0 -74 -50 -125 -122 -125c-71 0 -121 51 -121 125h35c0 -51 29 -90 86 -90c58 0 86 39 86 90h36zM82 456h38v-456h-38v456z" />
    <glyph glyph-name="icircumflex" unicode="&#xee;" horiz-adv-x="202" 
d="M121 696l103 -147h-41l-83 113l-82 -113h-41l103 147h41zM82 456h38v-456h-38v456z" />
    <glyph glyph-name="itilde" unicode="&#x129;" horiz-adv-x="202" 
d="M221 581c-15 16 -35 26 -54 26c-43 0 -76 -36 -131 -36c-27 0 -54 14 -64 27l10 34c13 -14 31 -24 54 -24c49 0 76 36 131 36c32 0 54 -17 64 -27zM82 456h38v-456h-38v456z" />
    <glyph glyph-name="idieresis" unicode="&#xef;" horiz-adv-x="202" 
d="M16 581c-22 0 -39 12 -39 39c0 28 17 40 39 40c20 0 39 -12 39 -40c0 -27 -19 -39 -39 -39zM186 581c-22 0 -39 12 -39 39c0 28 17 40 39 40c20 0 39 -12 39 -40c0 -27 -19 -39 -39 -39zM82 456h38v-456h-38v456z" />
    <glyph glyph-name="imacron" unicode="&#x12b;" horiz-adv-x="202" 
d="M233 629v-36h-262v36h262zM82 456h38v-456h-38v456z" />
    <glyph glyph-name="iogonek" unicode="&#x12f;" horiz-adv-x="202" 
d="M101 670c20 0 39 -12 39 -40c0 -27 -19 -39 -39 -39c-22 0 -39 12 -39 39c0 28 17 40 39 40zM82 12v444h38v-456l-80 -66c-24 -21 -35 -39 -35 -64c0 -23 16 -50 56 -50c22 0 41 11 59 25v-40c-12 -9 -32 -21 -63 -21c-59 0 -92 38 -92 84c0 38 21 65 45 85z" />
    <glyph glyph-name="uni0237" unicode="&#x237;" horiz-adv-x="202" 
d="M-5 -192c73 23 87 59 87 154v494h38v-494c0 -123 -35 -168 -112 -188z" />
    <glyph glyph-name="jcircumflex" unicode="&#x135;" horiz-adv-x="202" 
d="M123 696l103 -147h-41l-83 113l-82 -113h-41l103 147h41zM-5 -192c73 23 87 59 87 154v494h38v-494c0 -123 -35 -168 -112 -188z" />
    <glyph glyph-name="uni0137" unicode="&#x137;" horiz-adv-x="453" 
d="M377 0l-170 248l-87 -83v-165h-38v690h38v-474l254 240h55l-192 -182l189 -274h-49zM222 -216h-34l25 143h51z" />
    <glyph glyph-name="kgreenlandic" unicode="&#x138;" horiz-adv-x="452" 
d="M376 0l-170 248l-87 -83v-165h-38v456h38v-240l254 240h55l-192 -182l189 -274h-49z" />
    <glyph glyph-name="lacute" unicode="&#x13a;" horiz-adv-x="214" 
d="M209 990l-87 -147h-41l79 147h49zM116 690v-580c0 -49 11 -74 52 -74h29v-36h-31c-66 0 -88 36 -88 110v580h38z" />
    <glyph glyph-name="lcaron" unicode="&#x13e;" horiz-adv-x="214" 
d="M116 690v-580c0 -49 11 -74 52 -74h29v-36h-31c-66 0 -88 36 -88 110v580h38zM220 547h-34l25 143h51z" />
    <glyph glyph-name="uni013C" unicode="&#x13c;" horiz-adv-x="214" 
d="M116 690v-580c0 -49 11 -74 52 -74h29v-36h-31c-66 0 -88 36 -88 110v580h38zM122 -216h-34l25 143h51z" />
    <glyph glyph-name="lslash" unicode="&#x142;" horiz-adv-x="245" 
d="M192 36h29v-36h-31c-66 0 -88 36 -88 110v223l-74 -30v40l74 30v317h38v-301l78 32v-40l-78 -32v-239c0 -49 11 -74 52 -74z" />
    <glyph glyph-name="ldot" unicode="&#x140;" horiz-adv-x="326" 
d="M116 690v-580c0 -49 11 -74 52 -74h29v-36h-31c-66 0 -88 36 -88 110v580h38zM261 319c-24 0 -42 18 -42 42s18 42 42 42c25 0 43 -18 43 -42s-18 -42 -43 -42z" />
    <glyph glyph-name="nacute" unicode="&#x144;" horiz-adv-x="519" 
d="M362 696l-87 -147h-41l79 147h49zM81 456h38v-57c31 41 98 67 159 67c123 0 164 -59 164 -169v-297h-38v297c0 87 -29 132 -126 132c-73 0 -127 -29 -159 -72v-357h-38v456z" />
    <glyph glyph-name="ncaron" unicode="&#x148;" horiz-adv-x="519" 
d="M239 549l-103 147h41l83 -113l82 113h41l-103 -147h-41zM81 456h38v-57c31 41 98 67 159 67c123 0 164 -59 164 -169v-297h-38v297c0 87 -29 132 -126 132c-73 0 -127 -29 -159 -72v-357h-38v456z" />
    <glyph glyph-name="ntilde" unicode="&#xf1;" horiz-adv-x="519" 
d="M380 581c-15 16 -35 26 -54 26c-43 0 -76 -36 -131 -36c-27 0 -54 14 -64 27l10 34c13 -14 31 -24 54 -24c49 0 76 36 131 36c32 0 54 -17 64 -27zM81 456h38v-57c31 41 98 67 159 67c123 0 164 -59 164 -169v-297h-38v297c0 87 -29 132 -126 132
c-73 0 -127 -29 -159 -72v-357h-38v456z" />
    <glyph glyph-name="uni0146" unicode="&#x146;" horiz-adv-x="519" 
d="M81 456h38v-57c31 41 98 67 159 67c123 0 164 -59 164 -169v-297h-38v297c0 87 -29 132 -126 132c-73 0 -127 -29 -159 -72v-357h-38v456zM245 -216h-34l25 143h51z" />
    <glyph glyph-name="napostrophe" unicode="&#x149;" horiz-adv-x="519" 
d="M38 553h-34l25 143h51zM81 456h38v-57c31 41 98 67 159 67c123 0 164 -59 164 -169v-297h-38v297c0 87 -29 132 -126 132c-73 0 -127 -29 -159 -72v-357h-38v456z" />
    <glyph glyph-name="ograve" unicode="&#xf2;" horiz-adv-x="502" 
d="M197 696l79 -147h-41l-87 147h49zM251 466c142 0 196 -103 196 -237c0 -138 -54 -239 -198 -239c-136 0 -194 101 -194 239c0 134 58 237 196 237zM249 27c116 0 158 84 158 202c0 117 -42 200 -156 200c-112 0 -156 -83 -156 -200c0 -118 44 -202 154 -202z" />
    <glyph glyph-name="oacute" unicode="&#xf3;" horiz-adv-x="502" 
d="M353 696l-87 -147h-41l79 147h49zM251 466c142 0 196 -103 196 -237c0 -138 -54 -239 -198 -239c-136 0 -194 101 -194 239c0 134 58 237 196 237zM249 27c116 0 158 84 158 202c0 117 -42 200 -156 200c-112 0 -156 -83 -156 -200c0 -118 44 -202 154 -202z" />
    <glyph glyph-name="ocircumflex" unicode="&#xf4;" horiz-adv-x="502" 
d="M271 696l103 -147h-41l-83 113l-82 -113h-41l103 147h41zM251 466c142 0 196 -103 196 -237c0 -138 -54 -239 -198 -239c-136 0 -194 101 -194 239c0 134 58 237 196 237zM249 27c116 0 158 84 158 202c0 117 -42 200 -156 200c-112 0 -156 -83 -156 -200
c0 -118 44 -202 154 -202z" />
    <glyph glyph-name="otilde" unicode="&#xf5;" horiz-adv-x="502" 
d="M371 581c-15 16 -35 26 -54 26c-43 0 -76 -36 -131 -36c-27 0 -54 14 -64 27l10 34c13 -14 31 -24 54 -24c49 0 76 36 131 36c32 0 54 -17 64 -27zM251 466c142 0 196 -103 196 -237c0 -138 -54 -239 -198 -239c-136 0 -194 101 -194 239c0 134 58 237 196 237zM249 27
c116 0 158 84 158 202c0 117 -42 200 -156 200c-112 0 -156 -83 -156 -200c0 -118 44 -202 154 -202z" />
    <glyph glyph-name="odieresis" unicode="&#xf6;" horiz-adv-x="502" 
d="M166 581c-22 0 -39 12 -39 39c0 28 17 40 39 40c20 0 39 -12 39 -40c0 -27 -19 -39 -39 -39zM336 581c-22 0 -39 12 -39 39c0 28 17 40 39 40c20 0 39 -12 39 -40c0 -27 -19 -39 -39 -39zM251 466c142 0 196 -103 196 -237c0 -138 -54 -239 -198 -239
c-136 0 -194 101 -194 239c0 134 58 237 196 237zM249 27c116 0 158 84 158 202c0 117 -42 200 -156 200c-112 0 -156 -83 -156 -200c0 -118 44 -202 154 -202z" />
    <glyph glyph-name="omacron" unicode="&#x14d;" horiz-adv-x="502" 
d="M383 629v-36h-262v36h262zM251 466c142 0 196 -103 196 -237c0 -138 -54 -239 -198 -239c-136 0 -194 101 -194 239c0 134 58 237 196 237zM249 27c116 0 158 84 158 202c0 117 -42 200 -156 200c-112 0 -156 -83 -156 -200c0 -118 44 -202 154 -202z" />
    <glyph glyph-name="obreve" unicode="&#x14f;" horiz-adv-x="502" 
d="M373 679c0 -74 -50 -125 -122 -125c-71 0 -121 51 -121 125h35c0 -51 29 -90 86 -90c58 0 86 39 86 90h36zM251 466c142 0 196 -103 196 -237c0 -138 -54 -239 -198 -239c-136 0 -194 101 -194 239c0 134 58 237 196 237zM249 27c116 0 158 84 158 202
c0 117 -42 200 -156 200c-112 0 -156 -83 -156 -200c0 -118 44 -202 154 -202z" />
    <glyph glyph-name="ohungarumlaut" unicode="&#x151;" horiz-adv-x="502" 
d="M284 696l-87 -147h-41l79 147h49zM414 696l-87 -147h-41l79 147h49zM251 466c142 0 196 -103 196 -237c0 -138 -54 -239 -198 -239c-136 0 -194 101 -194 239c0 134 58 237 196 237zM249 27c116 0 158 84 158 202c0 117 -42 200 -156 200c-112 0 -156 -83 -156 -200
c0 -118 44 -202 154 -202z" />
    <glyph glyph-name="oslash" unicode="&#xf8;" horiz-adv-x="502" 
d="M402 398c31 -42 45 -102 45 -169c0 -138 -54 -239 -198 -239c-53 0 -95 16 -125 43l-25 -33h-43l44 59c-31 42 -45 101 -45 170c0 134 58 237 196 237c54 0 96 -15 126 -41l24 31h45zM95 229c0 -55 9 -102 31 -137l228 302c-25 22 -58 35 -103 35
c-112 0 -156 -83 -156 -200zM249 27c116 0 158 84 158 202c0 54 -9 101 -30 136l-229 -301c24 -24 57 -37 101 -37z" />
    <glyph glyph-name="oslashacute" unicode="&#x1ff;" horiz-adv-x="502" 
d="M347 696l-87 -147h-41l79 147h49zM402 398c31 -42 45 -102 45 -169c0 -138 -54 -239 -198 -239c-53 0 -95 16 -125 43l-25 -33h-43l44 59c-31 42 -45 101 -45 170c0 134 58 237 196 237c54 0 96 -15 126 -41l24 31h45zM95 229c0 -55 9 -102 31 -137l228 302
c-25 22 -58 35 -103 35c-112 0 -156 -83 -156 -200zM249 27c116 0 158 84 158 202c0 54 -9 101 -30 136l-229 -301c24 -24 57 -37 101 -37z" />
    <glyph glyph-name="oe" unicode="&#x153;" horiz-adv-x="820" 
d="M598 27c42 0 102 16 137 55l23 -29c-24 -32 -92 -63 -160 -63c-96 0 -149 45 -173 118c-25 -72 -79 -118 -176 -118c-136 0 -194 101 -194 239c0 134 58 237 196 237c96 0 150 -48 175 -120c24 73 78 120 169 120c116 0 172 -89 172 -186c0 -18 -2 -44 -5 -63h-318
c1 -112 42 -190 154 -190zM249 27c116 0 158 84 158 202c0 117 -42 200 -156 200c-112 0 -156 -83 -156 -200c0 -118 44 -202 154 -202zM725 253c1 6 2 18 2 25c0 84 -42 151 -132 151c-106 0 -144 -76 -150 -176h280z" />
    <glyph glyph-name="racute" unicode="&#x155;" horiz-adv-x="327" 
d="M266 696l-87 -147h-41l79 147h49zM120 378c25 49 63 88 133 88c21 0 43 -2 59 -7l-9 -41c-16 5 -35 8 -50 8c-71 0 -107 -51 -134 -117v-309h-38v456h38v-78h1z" />
    <glyph glyph-name="rcaron" unicode="&#x159;" horiz-adv-x="327" 
d="M143 549l-103 147h41l83 -113l82 113h41l-103 -147h-41zM120 378c25 49 63 88 133 88c21 0 43 -2 59 -7l-9 -41c-16 5 -35 8 -50 8c-71 0 -107 -51 -134 -117v-309h-38v456h38v-78h1z" />
    <glyph glyph-name="uni0157" unicode="&#x157;" horiz-adv-x="327" 
d="M120 378c25 49 63 88 133 88c21 0 43 -2 59 -7l-9 -41c-16 5 -35 8 -50 8c-71 0 -107 -51 -134 -117v-309h-38v456h38v-78h1zM82 -216h-34l25 143h51z" />
    <glyph glyph-name="sacute" unicode="&#x15b;" horiz-adv-x="424" 
d="M314 696l-87 -147h-41l79 147h49zM336 378c-22 27 -60 51 -121 51c-83 0 -114 -44 -114 -94c0 -36 16 -64 71 -77l79 -19c78 -19 124 -54 124 -120c0 -79 -66 -129 -168 -129c-94 0 -137 42 -162 76l29 26c24 -31 47 -65 133 -65c75 0 128 30 128 92c0 47 -37 67 -91 81
l-81 20c-69 17 -102 60 -102 115c0 64 45 131 154 131c75 0 126 -32 150 -62z" />
    <glyph glyph-name="scircumflex" unicode="&#x15d;" horiz-adv-x="424" 
d="M232 696l103 -147h-41l-83 113l-82 -113h-41l103 147h41zM336 378c-22 27 -60 51 -121 51c-83 0 -114 -44 -114 -94c0 -36 16 -64 71 -77l79 -19c78 -19 124 -54 124 -120c0 -79 -66 -129 -168 -129c-94 0 -137 42 -162 76l29 26c24 -31 47 -65 133 -65
c75 0 128 30 128 92c0 47 -37 67 -91 81l-81 20c-69 17 -102 60 -102 115c0 64 45 131 154 131c75 0 126 -32 150 -62z" />
    <glyph glyph-name="scaron" unicode="&#x161;" horiz-adv-x="424" 
d="M191 549l-103 147h41l83 -113l82 113h41l-103 -147h-41zM336 378c-22 27 -60 51 -121 51c-83 0 -114 -44 -114 -94c0 -36 16 -64 71 -77l79 -19c78 -19 124 -54 124 -120c0 -79 -66 -129 -168 -129c-94 0 -137 42 -162 76l29 26c24 -31 47 -65 133 -65
c75 0 128 30 128 92c0 47 -37 67 -91 81l-81 20c-69 17 -102 60 -102 115c0 64 45 131 154 131c75 0 126 -32 150 -62z" />
    <glyph glyph-name="scedilla" unicode="&#x15f;" horiz-adv-x="424" 
d="M375 119c0 -73 -56 -121 -145 -128l-20 -52c47 0 88 -21 88 -81c0 -31 -27 -74 -91 -74c-28 0 -55 11 -75 22v40c21 -15 47 -26 75 -26c34 0 50 19 50 38c0 37 -28 45 -66 45h-26l-2 4l26 84c-82 4 -121 43 -144 75l29 26c24 -31 47 -65 133 -65c75 0 128 30 128 92
c0 47 -37 67 -91 81l-81 20c-69 17 -102 60 -102 115c0 64 45 131 154 131c75 0 126 -32 150 -62l-29 -26c-22 27 -60 51 -121 51c-83 0 -114 -44 -114 -94c0 -36 16 -64 71 -77l79 -19c78 -19 124 -54 124 -120z" />
    <glyph glyph-name="uni0219" unicode="&#x219;" horiz-adv-x="424" 
d="M336 378c-22 27 -60 51 -121 51c-83 0 -114 -44 -114 -94c0 -36 16 -64 71 -77l79 -19c78 -19 124 -54 124 -120c0 -79 -66 -129 -168 -129c-94 0 -137 42 -162 76l29 26c24 -31 47 -65 133 -65c75 0 128 30 128 92c0 47 -37 67 -91 81l-81 20c-69 17 -102 60 -102 115
c0 64 45 131 154 131c75 0 126 -32 150 -62zM201 -216h-34l25 143h51z" />
    <glyph glyph-name="germandbls" unicode="&#xdf;" horiz-adv-x="537" 
d="M81 502c0 100 30 198 156 198c125 0 164 -77 164 -152c0 -89 -101 -142 -101 -187c0 -30 31 -51 63 -69l43 -25c74 -43 92 -88 92 -139c0 -74 -58 -139 -164 -139c-31 0 -73 11 -101 28l14 35c24 -12 52 -25 87 -25c79 0 124 44 124 101c0 40 -16 72 -70 105l-46 28
c-47 29 -82 51 -82 100c0 57 101 109 101 187c0 77 -44 115 -124 115c-100 0 -117 -72 -117 -161v-502h-39v502z" />
    <glyph glyph-name="tcaron" unicode="&#x165;" horiz-adv-x="326" 
d="M318 547h-34l25 143h51zM151 114c0 -50 18 -87 72 -87c25 0 51 9 72 21l13 -34c-22 -13 -51 -24 -89 -24c-72 0 -106 45 -106 123v307h-90v26l90 10v118l38 10v-128h142v-36h-142v-306z" />
    <glyph glyph-name="uni021B" unicode="&#x21b;" horiz-adv-x="326" 
d="M151 114c0 -50 18 -87 72 -87c25 0 51 9 72 21l13 -34c-22 -13 -51 -24 -89 -24c-72 0 -106 45 -106 123v307h-90v26l90 10v118l38 10v-128h142v-36h-142v-306zM177 -216h-34l25 143h51z" />
    <glyph glyph-name="tbar" unicode="&#x167;" horiz-adv-x="333" 
d="M295 48l13 -34c-22 -13 -51 -24 -89 -24c-72 0 -106 45 -106 123v121h-73v36h73v150h-90v26l90 10v118l38 10v-128h142v-36h-142v-150h121v-36h-121v-120c0 -50 18 -87 72 -87c25 0 51 9 72 21z" />
    <glyph glyph-name="thorn" unicode="&#xfe;" horiz-adv-x="513" 
d="M120 -216h-38v892h38v-270c25 32 75 60 142 60c139 0 196 -98 196 -240c0 -141 -58 -236 -197 -236c-68 0 -114 26 -141 61v-267zM418 226c0 115 -37 203 -156 203c-73 0 -121 -37 -142 -80v-243c19 -35 64 -79 141 -79c121 0 157 81 157 199z" />
    <glyph glyph-name="ugrave" unicode="&#xf9;" horiz-adv-x="519" 
d="M213 696l79 -147h-41l-87 147h49zM438 0h-38v57c-31 -41 -98 -67 -159 -67c-123 0 -164 59 -164 169v297h38v-297c0 -87 29 -132 126 -132c73 0 127 29 159 72v357h38v-456z" />
    <glyph glyph-name="uacute" unicode="&#xfa;" horiz-adv-x="519" 
d="M361 696l-87 -147h-41l79 147h49zM438 0h-38v57c-31 -41 -98 -67 -159 -67c-123 0 -164 59 -164 169v297h38v-297c0 -87 29 -132 126 -132c73 0 127 29 159 72v357h38v-456z" />
    <glyph glyph-name="ucircumflex" unicode="&#xfb;" horiz-adv-x="519" 
d="M276 696l103 -147h-41l-83 113l-82 -113h-41l103 147h41zM438 0h-38v57c-31 -41 -98 -67 -159 -67c-123 0 -164 59 -164 169v297h38v-297c0 -87 29 -132 126 -132c73 0 127 29 159 72v357h38v-456z" />
    <glyph glyph-name="utilde" unicode="&#x169;" horiz-adv-x="519" 
d="M380 581c-15 16 -35 26 -54 26c-43 0 -76 -36 -131 -36c-27 0 -54 14 -64 27l10 34c13 -14 31 -24 54 -24c49 0 76 36 131 36c32 0 54 -17 64 -27zM438 0h-38v57c-31 -41 -98 -67 -159 -67c-123 0 -164 59 -164 169v297h38v-297c0 -87 29 -132 126 -132
c73 0 127 29 159 72v357h38v-456z" />
    <glyph glyph-name="udieresis" unicode="&#xfc;" horiz-adv-x="519" 
d="M174 581c-22 0 -39 12 -39 39c0 28 17 40 39 40c20 0 39 -12 39 -40c0 -27 -19 -39 -39 -39zM344 581c-22 0 -39 12 -39 39c0 28 17 40 39 40c20 0 39 -12 39 -40c0 -27 -19 -39 -39 -39zM438 0h-38v57c-31 -41 -98 -67 -159 -67c-123 0 -164 59 -164 169v297h38v-297
c0 -87 29 -132 126 -132c73 0 127 29 159 72v357h38v-456z" />
    <glyph glyph-name="umacron" unicode="&#x16b;" horiz-adv-x="519" 
d="M389 629v-36h-262v36h262zM438 0h-38v57c-31 -41 -98 -67 -159 -67c-123 0 -164 59 -164 169v297h38v-297c0 -87 29 -132 126 -132c73 0 127 29 159 72v357h38v-456z" />
    <glyph glyph-name="ubreve" unicode="&#x16d;" horiz-adv-x="519" 
d="M384 679c0 -74 -50 -125 -122 -125c-71 0 -121 51 -121 125h35c0 -51 29 -90 86 -90c58 0 86 39 86 90h36zM438 0h-38v57c-31 -41 -98 -67 -159 -67c-123 0 -164 59 -164 169v297h38v-297c0 -87 29 -132 126 -132c73 0 127 29 159 72v357h38v-456z" />
    <glyph glyph-name="uring" unicode="&#x16f;" horiz-adv-x="519" 
d="M159 625c0 54 40 89 98 89c59 0 99 -35 99 -89s-40 -90 -99 -90c-58 0 -98 36 -98 90zM196 625c0 -36 24 -59 61 -59c38 0 62 23 62 59s-24 58 -62 58c-37 0 -61 -22 -61 -58zM438 0h-38v57c-31 -41 -98 -67 -159 -67c-123 0 -164 59 -164 169v297h38v-297
c0 -87 29 -132 126 -132c73 0 127 29 159 72v357h38v-456z" />
    <glyph glyph-name="uhungarumlaut" unicode="&#x171;" horiz-adv-x="519" 
d="M292 696l-87 -147h-41l79 147h49zM422 696l-87 -147h-41l79 147h49zM438 0h-38v57c-31 -41 -98 -67 -159 -67c-123 0 -164 59 -164 169v297h38v-297c0 -87 29 -132 126 -132c73 0 127 29 159 72v357h38v-456z" />
    <glyph glyph-name="uogonek" unicode="&#x173;" horiz-adv-x="519" 
d="M358 -66c-24 -21 -35 -39 -35 -64c0 -23 16 -50 56 -50c22 0 41 11 59 25v-40c-12 -9 -32 -21 -63 -21c-59 0 -92 38 -92 84c0 38 21 65 45 85l72 59v45c-31 -41 -98 -67 -159 -67c-123 0 -164 59 -164 169v297h38v-297c0 -87 29 -132 126 -132c73 0 127 29 159 72v357
h38v-456z" />
    <glyph glyph-name="wacute" unicode="&#x1e83;" horiz-adv-x="746" 
d="M475 696l-87 -147h-41l79 147h49zM395 456l138 -409l135 409h45l-157 -456h-46l-137 406l-137 -406h-46l-157 456h45l135 -409l138 409h44z" />
    <glyph glyph-name="wcircumflex" unicode="&#x175;" horiz-adv-x="746" 
d="M393 696l103 -147h-41l-83 113l-82 -113h-41l103 147h41zM395 456l138 -409l135 409h45l-157 -456h-46l-137 406l-137 -406h-46l-157 456h45l135 -409l138 409h44z" />
    <glyph glyph-name="wdieresis" unicode="&#x1e85;" horiz-adv-x="746" 
d="M288 581c-22 0 -39 12 -39 39c0 28 17 40 39 40c20 0 39 -12 39 -40c0 -27 -19 -39 -39 -39zM458 581c-22 0 -39 12 -39 39c0 28 17 40 39 40c20 0 39 -12 39 -40c0 -27 -19 -39 -39 -39zM395 456l138 -409l135 409h45l-157 -456h-46l-137 406l-137 -406h-46l-157 456h45
l135 -409l138 409h44z" />
    <glyph glyph-name="wgrave" unicode="&#x1e81;" horiz-adv-x="746" 
d="M319 696l79 -147h-41l-87 147h49zM395 456l138 -409l135 409h45l-157 -456h-46l-137 406l-137 -406h-46l-157 456h45l135 -409l138 409h44z" />
    <glyph glyph-name="yacute" unicode="&#xfd;" horiz-adv-x="472" 
d="M338 696l-87 -147h-41l79 147h49zM245 87l155 369h45l-288 -672h-44l110 254l-197 418h45z" />
    <glyph glyph-name="ycircumflex" unicode="&#x177;" horiz-adv-x="472" 
d="M256 696l103 -147h-41l-83 113l-82 -113h-41l103 147h41zM245 87l155 369h45l-288 -672h-44l110 254l-197 418h45z" />
    <glyph glyph-name="ydieresis" unicode="&#xff;" horiz-adv-x="472" 
d="M151 581c-22 0 -39 12 -39 39c0 28 17 40 39 40c20 0 39 -12 39 -40c0 -27 -19 -39 -39 -39zM321 581c-22 0 -39 12 -39 39c0 28 17 40 39 40c20 0 39 -12 39 -40c0 -27 -19 -39 -39 -39zM245 87l155 369h45l-288 -672h-44l110 254l-197 418h45z" />
    <glyph glyph-name="ygrave" unicode="&#x1ef3;" horiz-adv-x="472" 
d="M182 696l79 -147h-41l-87 147h49zM245 87l155 369h45l-288 -672h-44l110 254l-197 418h45z" />
    <glyph glyph-name="zacute" unicode="&#x17a;" horiz-adv-x="403" 
d="M304 696l-87 -147h-41l79 147h49zM352 422l-261 -386h267v-36h-316v34l261 386h-248v36h297v-34z" />
    <glyph glyph-name="zcaron" unicode="&#x17e;" horiz-adv-x="403" 
d="M181 549l-103 147h41l83 -113l82 113h41l-103 -147h-41zM352 422l-261 -386h267v-36h-316v34l261 386h-248v36h297v-34z" />
    <glyph glyph-name="zdotaccent" unicode="&#x17c;" horiz-adv-x="403" 
d="M202 581c-22 0 -39 12 -39 39c0 28 17 40 39 40c20 0 39 -12 39 -40c0 -27 -19 -39 -39 -39zM352 422l-261 -386h267v-36h-316v34l261 386h-248v36h297v-34z" />
    <glyph glyph-name="IJ" unicode="&#x132;" horiz-adv-x="722" 
d="M96 676h40v-676h-40v676zM297 106c34 -59 74 -77 135 -77c96 0 159 51 159 212v435h40v-430c0 -190 -83 -256 -199 -256c-81 0 -136 37 -168 93z" />
    <glyph glyph-name="ij" unicode="&#x133;" horiz-adv-x="404" 
d="M101 591c-22 0 -39 12 -39 39c0 28 17 40 39 40c20 0 39 -12 39 -40c0 -27 -19 -39 -39 -39zM302 591c-22 0 -39 12 -39 39c0 28 17 40 39 40c20 0 39 -12 39 -40c0 -27 -19 -39 -39 -39zM82 456h38v-456h-38v456zM197 -192c73 23 87 59 87 154v494h38v-494
c0 -123 -35 -168 -112 -188z" />
    <glyph glyph-name="acute" unicode="&#xb4;" 
d="M359 696l-87 -147h-41l79 147h49z" />
    <glyph glyph-name="circumflex" unicode="&#x2c6;" 
d="M320 696l103 -147h-41l-83 113l-82 -113h-41l103 147h41z" />
    <glyph glyph-name="caron" unicode="&#x2c7;" 
d="M279 549l-103 147h41l83 -113l82 113h41l-103 -147h-41z" />
    <glyph glyph-name="tilde" unicode="&#x2dc;" 
d="M418 581c-15 16 -35 26 -54 26c-43 0 -76 -36 -131 -36c-27 0 -54 14 -64 27l10 34c13 -14 31 -24 54 -24c49 0 76 36 131 36c32 0 54 -17 64 -27z" />
    <glyph glyph-name="dieresis" unicode="&#xa8;" 
d="M215 581c-22 0 -39 12 -39 39c0 28 17 40 39 40c20 0 39 -12 39 -40c0 -27 -19 -39 -39 -39zM385 581c-22 0 -39 12 -39 39c0 28 17 40 39 40c20 0 39 -12 39 -40c0 -27 -19 -39 -39 -39z" />
    <glyph glyph-name="macron" unicode="&#xaf;" 
d="M431 629v-36h-262v36h262z" />
    <glyph glyph-name="breve" unicode="&#x2d8;" 
d="M421 679c0 -74 -50 -125 -122 -125c-71 0 -121 51 -121 125h35c0 -51 29 -90 86 -90c58 0 86 39 86 90h36z" />
    <glyph glyph-name="ring" unicode="&#x2da;" 
d="M201 625c0 54 40 89 98 89c59 0 99 -35 99 -89s-40 -90 -99 -90c-58 0 -98 36 -98 90zM238 625c0 -36 24 -59 61 -59c38 0 62 23 62 59s-24 58 -62 58c-37 0 -61 -22 -61 -58z" />
    <glyph glyph-name="hungarumlaut" unicode="&#x2dd;" 
d="M299 696l-87 -147h-41l79 147h49zM429 696l-87 -147h-41l79 147h49z" />
    <glyph glyph-name="dotaccent" unicode="&#x2d9;" 
d="M299 581c-22 0 -39 12 -39 39c0 28 17 40 39 40c20 0 39 -12 39 -40c0 -27 -19 -39 -39 -39z" />
    <glyph glyph-name="cedilla" unicode="&#xb8;" 
d="M327 0l-23 -61c47 0 88 -21 88 -81c0 -31 -27 -74 -91 -74c-28 0 -55 11 -75 22v40c21 -15 47 -26 75 -26c34 0 50 19 50 38c0 37 -28 45 -66 45h-26l-2 4l30 96z" />
    <glyph glyph-name="ogonek" unicode="&#x2db;" 
d="M291 -66c-24 -21 -35 -39 -35 -64c0 -23 16 -50 56 -50c22 0 41 11 59 25v-40c-12 -9 -32 -21 -63 -21c-59 0 -92 38 -92 84c0 38 21 65 45 85l75 61l35 -14z" />
    <glyph glyph-name="uniF6C3" unicode="&#xf6c3;" horiz-adv-x="0" 
d="M-304 -216h-34l25 143h51z" />
    <glyph glyph-name="ellipsis" unicode="&#x2026;" horiz-adv-x="545" 
d="M109 -7c-24 0 -42 18 -42 42s18 42 42 42c25 0 43 -18 43 -42s-18 -42 -43 -42zM272 -7c-24 0 -42 18 -42 42s18 42 42 42c25 0 43 -18 43 -42s-18 -42 -43 -42zM435 -7c-24 0 -42 18 -42 42s18 42 42 42c25 0 43 -18 43 -42s-18 -42 -43 -42z" />
    <glyph glyph-name="uni00AD" unicode="&#xad;" horiz-adv-x="380" 
d="M306 287v-36h-232v36h232z" />
    <glyph glyph-name="exclamdown" unicode="&#xa1;" horiz-adv-x="205" 
d="M102 466c24 0 42 -18 42 -42s-18 -42 -42 -42c-25 0 -43 18 -43 42s18 42 43 42zM119 260l8 -477h-49l10 477h31z" />
    <glyph glyph-name="questiondown" unicode="&#xbf;" horiz-adv-x="436" 
d="M228 467c24 0 42 -18 42 -42s-18 -42 -42 -42c-25 0 -43 18 -43 42s18 42 43 42zM228 -226c-116 0 -184 73 -184 163c0 139 161 172 161 324h41c0 -160 -159 -204 -159 -321c0 -63 47 -126 138 -126c72 0 129 40 129 113h42c0 -87 -57 -153 -168 -153z" />
    <glyph glyph-name="quoteleft" unicode="&#x2018;" horiz-adv-x="197" 
d="M104 676h34l-25 -193h-51z" />
    <glyph glyph-name="quoteright" unicode="&#x2019;" horiz-adv-x="194" 
d="M100 483h-34l25 193h51z" />
    <glyph glyph-name="quotedblleft" unicode="&#x201c;" horiz-adv-x="300" 
d="M104 676h34l-25 -193h-51zM207 676h34l-25 -193h-51z" />
    <glyph glyph-name="quotedblright" unicode="&#x201d;" horiz-adv-x="297" 
d="M100 483h-34l25 193h51zM203 483h-34l25 193h51z" />
    <glyph glyph-name="quotesinglbase" unicode="&#x201a;" horiz-adv-x="206" 
d="M89 -115h-34l25 193h51z" />
    <glyph glyph-name="quotedblbase" unicode="&#x201e;" horiz-adv-x="309" 
d="M89 -115h-34l25 193h51zM192 -115h-34l25 193h51z" />
    <glyph glyph-name="guilsinglleft" unicode="&#x2039;" horiz-adv-x="282" 
d="M198 470l28 -22l-137 -178l137 -178l-28 -22l-160 200z" />
    <glyph glyph-name="guilsinglright" unicode="&#x203a;" horiz-adv-x="282" 
d="M84 70l-28 22l137 178l-137 178l28 22l160 -200z" />
    <glyph glyph-name="guillemotleft" unicode="&#xab;" horiz-adv-x="445" 
d="M198 470l28 -22l-137 -178l137 -178l-28 -22l-160 200zM361 470l28 -22l-137 -178l137 -178l-28 -22l-160 200z" />
    <glyph glyph-name="guillemotright" unicode="&#xbb;" horiz-adv-x="445" 
d="M84 70l-28 22l137 178l-137 178l28 22l160 -200zM247 70l-28 22l137 178l-137 178l28 22l160 -200z" />
    <glyph glyph-name="endash" unicode="&#x2013;" horiz-adv-x="580" 
d="M506 287v-36h-432v36h432z" />
    <glyph glyph-name="emdash" unicode="&#x2014;" horiz-adv-x="720" 
d="M646 287v-36h-572v36h572z" />
    <glyph glyph-name="bullet" unicode="&#x2022;" horiz-adv-x="364" 
d="M182 183c-50 0 -88 36 -88 86s38 86 88 86c52 0 88 -36 88 -86s-36 -86 -88 -86z" />
    <glyph glyph-name="periodcentered" unicode="&#xb7;" horiz-adv-x="233" 
d="M116 227c-24 0 -42 18 -42 42s18 42 42 42c25 0 43 -18 43 -42s-18 -42 -43 -42z" />
    <glyph glyph-name="uni2219" unicode="&#x2219;" horiz-adv-x="233" 
d="M116 227c-24 0 -42 18 -42 42s18 42 42 42c25 0 43 -18 43 -42s-18 -42 -43 -42z" />
    <glyph glyph-name="dagger" unicode="&#x2020;" horiz-adv-x="421" 
d="M193 287v403h38v-403h156v-36h-156v-467h-38v467h-158v36h158z" />
    <glyph glyph-name="daggerdbl" unicode="&#x2021;" horiz-adv-x="486" 
d="M224 449v241h38v-241h157v-36h-157v-348h157v-36h-157v-245h-38v245h-157v36h157v348h-157v36h157z" />
    <glyph glyph-name="section" unicode="&#xa7;" horiz-adv-x="556" 
d="M489 257c0 -55 -40 -100 -88 -129c51 -27 83 -58 83 -110c0 -82 -87 -133 -209 -133c-114 0 -181 45 -221 100l31 28c36 -50 100 -89 190 -89c88 0 168 28 168 95c0 49 -56 74 -122 101l-119 49c-67 28 -126 66 -126 138c0 51 35 100 83 127c-46 26 -78 64 -78 115
c0 68 72 137 199 137c63 0 153 -13 210 -100l-32 -25c-58 75 -129 86 -178 86c-89 0 -158 -40 -158 -98c0 -57 68 -86 141 -114l77 -30c87 -34 149 -67 149 -148zM197 417c-49 -22 -80 -69 -80 -110c0 -50 43 -81 106 -106l139 -55c40 20 86 60 86 111c0 61 -60 87 -126 112
z" />
    <glyph glyph-name="paragraph" unicode="&#xb6;" horiz-adv-x="468" 
d="M286 456v-530h-39v249c-146 0 -208 33 -208 142c0 81 46 139 152 139h95zM268 -191c67 22 86 54 86 153v494h39v-494c0 -97 -17 -163 -112 -188z" />
    <glyph glyph-name="brokenbar" unicode="&#xa6;" horiz-adv-x="202" 
d="M82 306v384h38v-384h-38zM120 170v-386h-38v386h38z" />
    <glyph glyph-name="copyright" unicode="&#xa9;" horiz-adv-x="802" 
d="M63 339c0 214 147 347 339 347c191 0 337 -133 337 -347s-146 -350 -337 -350c-192 0 -339 136 -339 350zM104 339c0 -193 126 -311 298 -311c171 0 296 118 296 311s-125 308 -296 308c-172 0 -298 -115 -298 -308zM262 335c0 -101 37 -173 133 -173c49 0 86 17 115 59
l32 -23c-39 -52 -81 -75 -147 -75c-115 0 -174 84 -174 212c0 129 66 213 177 213c63 0 107 -29 137 -63l-29 -25c-29 32 -59 49 -108 49c-96 0 -136 -71 -136 -174z" />
    <glyph glyph-name="uni2117" unicode="&#x2117;" horiz-adv-x="802" 
d="M63 339c0 214 147 347 339 347c191 0 337 -133 337 -347s-146 -350 -337 -350c-192 0 -339 136 -339 350zM104 339c0 -193 126 -311 298 -311c171 0 296 118 296 311s-125 308 -296 308c-172 0 -298 -115 -298 -308zM415 544c100 0 145 -53 145 -125
c0 -71 -46 -124 -145 -124h-99v-167h-39v416h138zM519 419c0 51 -27 90 -103 90h-100v-178h100c76 0 103 38 103 88z" />
    <glyph glyph-name="registered" unicode="&#xae;" horiz-adv-x="802" 
d="M63 339c0 214 147 347 339 347c191 0 337 -133 337 -347s-146 -350 -337 -350c-192 0 -339 136 -339 350zM104 339c0 -193 126 -311 298 -311c171 0 296 118 296 311s-125 308 -296 308c-172 0 -298 -115 -298 -308zM263 545h141c98 0 144 -42 144 -116
c0 -65 -46 -110 -126 -117l141 -184h-50l-136 182h-74v-182h-40v417zM509 429c0 41 -24 81 -103 81h-103v-165h98c81 0 108 46 108 84z" />
    <glyph glyph-name="trademark" unicode="&#x2122;" horiz-adv-x="654" 
d="M252 607v-29h-79v-208h-33v208h-77v29h189zM501 607h45l32 -237h-33l-24 200l-67 -200h-36l-63 199l-27 -199h-32l33 237h47l61 -198z" />
    <glyph glyph-name="currency" unicode="&#xa4;" horiz-adv-x="519" 
d="M376 359c12 -23 17 -50 17 -81c0 -33 -6 -63 -19 -87l79 -79l-28 -29l-79 75c-21 -19 -51 -29 -89 -29c-37 0 -68 10 -89 28l-72 -72l-29 29l75 75c-14 24 -20 55 -20 89c0 31 6 59 19 83l-76 77l28 28l72 -73c22 20 54 32 93 32c40 0 73 -12 94 -32l73 72l28 -28z
M257 166c69 0 97 46 97 112c0 65 -27 110 -96 110s-97 -45 -97 -110c0 -66 27 -112 96 -112z" />
    <glyph glyph-name="Euro" unicode="&#x20ac;" horiz-adv-x="586" 
d="M108 422c19 159 98 264 244 264c66 0 124 -19 171 -46l-18 -38c-43 27 -89 45 -153 45c-124 0 -186 -94 -202 -225h279l-19 -38h-264c-1 -14 -1 -30 -1 -44c0 -19 1 -38 2 -55h225l-18 -38h-204c17 -124 73 -219 202 -219c52 0 114 17 168 55l13 -40
c-55 -33 -113 -54 -181 -54c-154 0 -225 100 -243 258h-56v38h52c-1 17 -1 36 -1 55c0 14 0 30 1 44h-52v38h55z" />
    <glyph glyph-name="cent" unicode="&#xa2;" horiz-adv-x="480" 
d="M258 27c56 0 98 19 125 67l32 -21c-31 -53 -85 -83 -157 -83c-15 0 -30 1 -43 4l-15 -61l-36 9l15 62c-78 32 -115 115 -115 223c0 138 61 239 194 239c11 0 22 -1 32 -2l18 76l37 -9l-18 -76c38 -13 67 -37 88 -73l-32 -21c-17 29 -38 48 -65 58l-94 -389
c10 -2 22 -3 34 -3zM104 227c0 -88 24 -157 84 -186l93 387c-7 1 -15 1 -23 1c-112 0 -154 -86 -154 -202z" />
    <glyph glyph-name="sterling" unicode="&#xa3;" horiz-adv-x="556" 
d="M114 318v129c0 133 56 239 199 239c87 0 156 -32 196 -87l-30 -27c-46 59 -100 75 -166 75c-120 0 -159 -92 -159 -204v-125h216v-38h-216v-242h323v-38h-362l-1 280h-71v38h71z" />
    <glyph glyph-name="florin" unicode="&#x192;" horiz-adv-x="335" 
d="M181 -68c0 -86 -30 -158 -126 -158c-19 0 -35 3 -46 6v40c16 -4 29 -7 47 -7c68 0 85 47 85 119v485h-106v38h106v87c0 86 29 158 125 158c19 0 35 -3 46 -6v-40c-16 4 -29 7 -47 7c-68 0 -84 -47 -84 -119v-87h115v-38h-115v-485z" />
    <glyph glyph-name="yen" unicode="&#xa5;" horiz-adv-x="568" 
d="M260 286l-57 99h-110v38h88l-148 253h46l204 -357l207 357h47l-152 -253h87v-38h-110l-59 -99h169v-38h-171v-248h-40v248h-168v38h167z" />
    <glyph glyph-name="uni20A8" unicode="&#x20a8;" horiz-adv-x="513" 
d="M458 676v-38h-130c40 -28 61 -76 65 -129h65v-38h-65c-7 -94 -72 -162 -183 -170l201 -301h-50l-198 299h-94v39h107c116 0 167 53 174 133h-281v38h281c-8 76 -48 129 -156 129h-125v38h389z" />
    <glyph glyph-name="ordfeminine" unicode="&#xaa;" horiz-adv-x="365" 
d="M250 350v34c-22 -22 -54 -41 -96 -41c-65 0 -93 29 -93 78c0 55 51 83 132 93l57 7v32c0 35 -18 52 -64 52c-51 0 -66 -13 -66 -32v-21h-40c-1 9 -1 13 -1 21c0 36 33 66 107 66c71 0 103 -34 103 -85v-204h-39zM101 421c0 -29 20 -43 53 -43c41 0 73 19 96 49v61l-52 -7
c-60 -7 -97 -24 -97 -60z" />
    <glyph glyph-name="ordmasculine" unicode="&#xba;" horiz-adv-x="381" 
d="M191 639c91 0 132 -66 132 -147c0 -84 -42 -149 -133 -149c-89 0 -132 65 -132 149c0 81 44 147 133 147zM190 377c66 0 93 49 93 115c0 65 -26 113 -92 113s-93 -48 -93 -113c0 -66 26 -115 92 -115z" />
    <glyph glyph-name="uni00B9" unicode="&#xb9;" horiz-adv-x="216" 
d="M124 450v301l-105 -39l-10 30l118 44h33v-336h-36z" />
    <glyph glyph-name="uni00B2" unicode="&#xb2;" horiz-adv-x="296" 
d="M143 792c68 0 110 -40 110 -96c0 -49 -32 -84 -73 -123l-96 -90h178v-32h-227v28l120 116c38 36 60 66 60 101c0 37 -26 65 -72 65c-47 0 -71 -28 -71 -68h-36c0 58 37 99 107 99z" />
    <glyph glyph-name="uni00B3" unicode="&#xb3;" horiz-adv-x="311" 
d="M196 623c36 -5 75 -34 75 -84c0 -55 -46 -95 -120 -95c-81 0 -118 41 -118 87h36c0 -31 29 -54 82 -54s84 25 84 63c0 42 -38 67 -93 67h-32v32h32c50 0 87 21 87 60c0 35 -29 61 -78 61c-51 0 -76 -26 -76 -56h-37c0 45 35 87 113 87c71 0 114 -39 114 -91
c0 -43 -33 -69 -69 -77z" />
    <glyph glyph-name="fraction" unicode="&#x2044;" horiz-adv-x="160" 
d="M-104 0h-42l409 676h44z" />
    <glyph glyph-name="uni2215" unicode="&#x2215;" horiz-adv-x="160" 
d="M-104 0h-42l409 676h44z" />
    <glyph glyph-name="onehalf" unicode="&#xbd;" horiz-adv-x="691" 
d="M144 0h-42l409 676h44zM152 338v301l-105 -39l-10 30l118 44h33v-336h-36zM519 341c68 0 110 -40 110 -96c0 -49 -32 -84 -73 -123l-96 -90h178v-32h-227v28l120 116c38 36 60 66 60 101c0 37 -26 65 -72 65c-47 0 -71 -28 -71 -68h-36c0 58 37 99 107 99z" />
    <glyph glyph-name="uni2153" unicode="&#x2153;" horiz-adv-x="702" 
d="M145 0h-42l409 676h44zM153 338v301l-105 -39l-10 30l118 44h33v-336h-36zM572 173c36 -5 75 -34 75 -84c0 -55 -46 -95 -120 -95c-81 0 -118 41 -118 87h36c0 -31 29 -54 82 -54s84 25 84 63c0 42 -38 67 -93 67h-32v32h32c50 0 87 21 87 60c0 35 -29 61 -78 61
c-51 0 -76 -26 -76 -56h-37c0 45 35 87 113 87c71 0 114 -39 114 -91c0 -43 -33 -69 -69 -77z" />
    <glyph glyph-name="onequarter" unicode="&#xbc;" horiz-adv-x="672" 
d="M144 0h-42l409 676h44zM152 338v301l-105 -39l-10 30l118 44h33v-336h-36zM625 74h-57v-74h-36v74h-181v30l181 232h36v-230h57v-32zM532 106v178l-141 -178h141z" />
    <glyph glyph-name="oneeighth" unicode="&#x215b;" horiz-adv-x="707" 
d="M145 0h-42l409 676h44zM153 338v301l-105 -39l-10 30l118 44h33v-336h-36zM529 -6c-75 0 -126 35 -126 96c0 50 31 74 68 84c-36 11 -61 32 -61 75c0 57 47 92 118 92c72 0 117 -35 117 -92c0 -43 -25 -64 -61 -75c37 -10 69 -34 69 -84c0 -61 -51 -96 -124 -96zM528 310
c-48 0 -80 -22 -80 -62c0 -37 34 -59 80 -59c45 0 80 22 80 59c0 40 -31 62 -80 62zM528 158c-51 0 -88 -25 -88 -66c0 -43 36 -65 89 -65c51 0 86 22 86 65c0 41 -36 66 -87 66z" />
    <glyph glyph-name="uni2154" unicode="&#x2154;" horiz-adv-x="758" 
d="M168 679c68 0 110 -40 110 -96c0 -49 -32 -84 -73 -123l-96 -90h178v-32h-227v28l120 116c38 36 60 66 60 101c0 37 -26 65 -72 65c-47 0 -71 -28 -71 -68h-36c0 58 37 99 107 99zM201 0h-42l409 676h44zM628 173c36 -5 75 -34 75 -84c0 -55 -46 -95 -120 -95
c-81 0 -118 41 -118 87h36c0 -31 29 -54 82 -54s84 25 84 63c0 42 -38 67 -93 67h-32v32h32c50 0 87 21 87 60c0 35 -29 61 -78 61c-51 0 -76 -26 -76 -56h-37c0 45 35 87 113 87c71 0 114 -39 114 -91c0 -43 -33 -69 -69 -77z" />
    <glyph glyph-name="threequarters" unicode="&#xbe;" horiz-adv-x="723" 
d="M218 511c36 -5 75 -34 75 -84c0 -55 -46 -95 -120 -95c-81 0 -118 41 -118 87h36c0 -31 29 -54 82 -54s84 25 84 63c0 42 -38 67 -93 67h-32v32h32c50 0 87 21 87 60c0 35 -29 61 -78 61c-51 0 -76 -26 -76 -56h-37c0 45 35 87 113 87c71 0 114 -39 114 -91
c0 -43 -33 -69 -69 -77zM195 0h-42l409 676h44zM676 74h-57v-74h-36v74h-181v30l181 232h36v-230h57v-32zM583 106v178l-141 -178h141z" />
    <glyph glyph-name="threeeighths" unicode="&#x215c;" horiz-adv-x="758" 
d="M218 511c36 -5 75 -34 75 -84c0 -55 -46 -95 -120 -95c-81 0 -118 41 -118 87h36c0 -31 29 -54 82 -54s84 25 84 63c0 42 -38 67 -93 67h-32v32h32c50 0 87 21 87 60c0 35 -29 61 -78 61c-51 0 -76 -26 -76 -56h-37c0 45 35 87 113 87c71 0 114 -39 114 -91
c0 -43 -33 -69 -69 -77zM196 0h-42l409 676h44zM580 -6c-75 0 -126 35 -126 96c0 50 31 74 68 84c-36 11 -61 32 -61 75c0 57 47 92 118 92c72 0 117 -35 117 -92c0 -43 -25 -64 -61 -75c37 -10 69 -34 69 -84c0 -61 -51 -96 -124 -96zM579 310c-48 0 -80 -22 -80 -62
c0 -37 34 -59 80 -59c45 0 80 22 80 59c0 40 -31 62 -80 62zM579 158c-51 0 -88 -25 -88 -66c0 -43 36 -65 89 -65c51 0 86 22 86 65c0 41 -36 66 -87 66z" />
    <glyph glyph-name="fiveeighths" unicode="&#x215d;" horiz-adv-x="745" 
d="M183 0h-42l409 676h44zM283 447c0 -63 -39 -115 -119 -115c-84 0 -117 45 -117 95h37c0 -34 23 -62 80 -62c56 0 83 36 83 82c0 43 -29 72 -80 72c-28 0 -53 -9 -72 -21l-31 2l23 174h186v-32h-156l-16 -110c13 7 41 20 71 20c65 0 111 -37 111 -105zM567 -6
c-75 0 -126 35 -126 96c0 50 31 74 68 84c-36 11 -61 32 -61 75c0 57 47 92 118 92c72 0 117 -35 117 -92c0 -43 -25 -64 -61 -75c37 -10 69 -34 69 -84c0 -61 -51 -96 -124 -96zM566 310c-48 0 -80 -22 -80 -62c0 -37 34 -59 80 -59c45 0 80 22 80 59c0 40 -31 62 -80 62z
M566 158c-51 0 -88 -25 -88 -66c0 -43 36 -65 89 -65c51 0 86 22 86 65c0 41 -36 66 -87 66z" />
    <glyph glyph-name="seveneighths" unicode="&#x215e;" horiz-adv-x="668" 
d="M106 0h-42l409 676h44zM235 642h-182v32h221v-28l-136 -308h-40zM490 -6c-75 0 -126 35 -126 96c0 50 31 74 68 84c-36 11 -61 32 -61 75c0 57 47 92 118 92c72 0 117 -35 117 -92c0 -43 -25 -64 -61 -75c37 -10 69 -34 69 -84c0 -61 -51 -96 -124 -96zM489 310
c-48 0 -80 -22 -80 -62c0 -37 34 -59 80 -59c45 0 80 22 80 59c0 40 -31 62 -80 62zM489 158c-51 0 -88 -25 -88 -66c0 -43 36 -65 89 -65c51 0 86 22 86 65c0 41 -36 66 -87 66z" />
    <glyph glyph-name="perthousand" unicode="&#x2030;" horiz-adv-x="1031" 
d="M165 679c91 0 131 -67 131 -173c0 -105 -40 -173 -131 -173c-90 0 -130 68 -130 173c0 106 40 173 130 173zM183 0h-42l409 676h44zM165 365c66 0 93 52 93 141c0 90 -27 142 -93 142s-93 -52 -93 -142c0 -89 27 -141 93 -141zM566 341c91 0 131 -67 131 -173
c0 -105 -40 -173 -131 -173c-90 0 -130 68 -130 173c0 106 40 173 130 173zM865 341c91 0 131 -67 131 -173c0 -105 -40 -173 -131 -173c-90 0 -130 68 -130 173c0 106 40 173 130 173zM566 27c66 0 93 52 93 141c0 90 -27 142 -93 142s-93 -52 -93 -142
c0 -89 27 -141 93 -141zM865 27c66 0 93 52 93 141c0 90 -27 142 -93 142s-93 -52 -93 -142c0 -89 27 -141 93 -141z" />
    <glyph glyph-name="minus" unicode="&#x2212;" horiz-adv-x="560" 
d="M61 288h437v-36h-437v36z" />
    <glyph glyph-name="plusminus" unicode="&#xb1;" horiz-adv-x="560" 
d="M61 418h198v203h38v-203h201v-36h-201v-202h-38v202h-198v36zM61 75h437v-36h-437v36z" />
    <glyph glyph-name="multiply" unicode="&#xd7;" horiz-adv-x="560" 
d="M91 109l161 160l-164 163l28 29l164 -164l162 163l29 -28l-163 -163l163 -163l-29 -28l-162 163l-161 -161z" />
    <glyph glyph-name="divide" unicode="&#xf7;" horiz-adv-x="560" 
d="M282 402c-24 0 -42 18 -42 42c0 25 18 43 42 43c25 0 43 -18 43 -43c0 -24 -18 -42 -43 -42zM61 288h437v-36h-437v36zM282 50c-24 0 -42 18 -42 42s18 42 42 42c25 0 43 -18 43 -42s-18 -42 -43 -42z" />
    <glyph glyph-name="notequal" unicode="&#x2260;" horiz-adv-x="560" 
d="M99 138v36h139l49 193h-188v36h197l35 136l34 -8l-33 -128h129v-36h-138l-49 -193h187v-36h-197l-36 -142l-33 8l34 134h-130z" />
    <glyph glyph-name="approxequal" unicode="&#x2248;" horiz-adv-x="560" 
d="M473 377c-23 -37 -54 -60 -97 -60c-65 0 -150 70 -191 70c-46 0 -69 -47 -69 -47l-27 26c21 37 52 60 98 60c54 0 144 -73 189 -73c44 0 70 50 70 50zM471 177c-23 -37 -54 -60 -97 -60c-63 0 -148 73 -189 73c-46 0 -71 -50 -71 -50l-27 26c21 37 52 60 98 60
c56 0 146 -73 189 -73c44 0 70 50 70 50z" />
    <glyph glyph-name="lessequal" unicode="&#x2264;" horiz-adv-x="560" 
d="M93 388l362 172v-42l-321 -148l321 -147v-43l-362 172v36zM93 76h362v-36h-362v36z" />
    <glyph glyph-name="greaterequal" unicode="&#x2265;" horiz-adv-x="560" 
d="M472 352l-362 -172v43l321 147l-321 148v42l362 -172v-36zM95 76h362v-36h-362v36z" />
    <glyph glyph-name="logicalnot" unicode="&#xac;" horiz-adv-x="560" 
d="M58 353h437v-229h-38v193h-399v36z" />
    <glyph glyph-name="uni0394" unicode="&#x394;" horiz-adv-x="632" 
d="M341 676l268 -676h-585l269 676h48zM317 632l-235 -594h470z" />
    <glyph glyph-name="uni03A9" unicode="&#x3a9;" horiz-adv-x="652" 
d="M431 38h166v-38h-229v35c100 60 181 175 181 329c0 165 -68 283 -223 283s-223 -118 -223 -283c0 -154 81 -269 181 -329v-35h-229v38h166c-82 53 -159 176 -159 324c0 180 81 324 264 324s264 -144 264 -324c0 -148 -77 -271 -159 -324z" />
    <glyph glyph-name="uni03BC" unicode="&#x3bc;" horiz-adv-x="525" 
d="M475 36c8 0 16 1 24 2v-35c-10 -2 -18 -3 -28 -3c-40 0 -64 16 -73 60c-30 -42 -99 -70 -158 -70c-57 0 -96 14 -121 40v-246h-38v672h38v-297c0 -87 28 -132 121 -132c68 0 122 29 154 74v9v346h38v-346c0 -44 7 -74 43 -74z" />
    <glyph glyph-name="pi" unicode="&#x3c0;" horiz-adv-x="521" 
d="M16 420v36h484v-36h-86v-299c0 -57 6 -88 48 -88c8 0 17 1 25 2v-35c-10 -2 -19 -3 -29 -3c-57 0 -82 29 -82 124v299h-238v-420h-38v420h-84z" />
    <glyph glyph-name="degree" unicode="&#xb0;" horiz-adv-x="381" 
d="M55 547c0 83 56 139 135 139c80 0 136 -56 136 -139c0 -82 -56 -139 -136 -139c-79 0 -135 57 -135 139zM92 547c0 -62 40 -104 98 -104c59 0 99 42 99 104s-40 104 -99 104c-58 0 -98 -42 -98 -104z" />
    <glyph glyph-name="estimated" unicode="&#x212e;" horiz-adv-x="768" 
d="M207 338v-230c49 -49 109 -74 183 -74c105 0 182 45 245 152l45 -27c-78 -121 -157 -171 -290 -171c-199 0 -327 154 -327 350c0 197 128 350 327 350c195 0 327 -145 328 -350h-511zM576 384v184c-54 50 -116 75 -187 75c-73 0 -133 -26 -182 -75v-184h369z" />
    <glyph glyph-name="eng" unicode="&#x14b;" horiz-adv-x="519" 
d="M81 456h38v-57c31 41 98 67 159 67c123 0 164 -59 164 -169v-335c0 -123 -35 -168 -112 -188l-13 34c73 23 87 59 87 154v335c0 87 -29 132 -126 132c-73 0 -127 -29 -159 -72v-357h-38v456z" />
    <glyph glyph-name="Eng" unicode="&#x14a;" horiz-adv-x="679" 
d="M457 -190c72 24 86 62 86 152v28l-408 623v-613h-40v676h45l403 -613v613h40v-714c0 -123 -35 -168 -112 -188z" />
    <glyph glyph-name="infinity" unicode="&#x221e;" horiz-adv-x="766" 
d="M702 264c0 -90 -62 -154 -154 -154c-68 0 -120 53 -164 119c-37 -58 -95 -118 -166 -118c-89 0 -154 60 -154 152c0 89 62 154 152 154c72 0 124 -59 168 -123c37 58 92 125 163 125c90 0 155 -62 155 -155zM362 262c-37 51 -91 118 -146 118c-64 0 -113 -50 -113 -117
c0 -71 50 -116 115 -116c64 0 110 66 144 115zM663 264c0 70 -48 116 -116 116c-64 0 -103 -68 -140 -118c38 -56 79 -115 141 -115c68 0 115 49 115 117z" />
    <glyph glyph-name="partialdiff" unicode="&#x2202;" horiz-adv-x="523" 
d="M299 690c89 -66 161 -197 161 -376c0 -183 -49 -324 -207 -324c-134 0 -198 99 -198 229c0 131 64 228 194 228c92 0 146 -59 172 -121c0 156 -60 272 -182 364h60zM253 27c131 0 156 125 163 234c-25 70 -75 149 -167 149c-108 0 -155 -80 -155 -191
c0 -101 42 -192 159 -192z" />
    <glyph glyph-name="integral" unicode="&#x222b;" horiz-adv-x="359" 
d="M198 -68c0 -86 -28 -158 -124 -158c-19 0 -35 3 -46 6v40c16 -4 28 -7 46 -7c68 0 86 47 86 119v616c0 86 29 158 125 158c19 0 35 -3 46 -6v-40c-16 4 -28 7 -46 7c-68 0 -87 -47 -87 -119v-616z" />
    <glyph glyph-name="radical" unicode="&#x221a;" horiz-adv-x="610" 
d="M343 -216h-51l-170 376l-76 -39l-19 40l116 58l171 -394l230 871h42z" />
    <glyph glyph-name="summation" unicode="&#x2211;" horiz-adv-x="584" 
d="M536 -216h-488v55l276 400l-275 382v55h483v-38h-447l288 -399l-288 -417h451v-38z" />
    <glyph glyph-name="product" unicode="&#x220f;" horiz-adv-x="739" 
d="M690 676v-38h-68v-854h-38v854h-429v-854h-38v854h-68v38h641z" />
    <glyph glyph-name="lozenge" unicode="&#x25ca;" horiz-adv-x="592" 
d="M314 0h-35l-247 348l247 348h35l246 -348zM296 656l-217 -308l217 -309l217 309z" />
    <glyph glyph-name="uniF8FF" unicode="&#xf8ff;" horiz-adv-x="621" 
d="M104 656h413v-656h-413v656zM479 40v576h-337v-576h337z" />
    <glyph glyph-name="exclam.sc" horiz-adv-x="211" 
d="M89 152l-7 355h47l-9 -355h-31zM106 -5c-22 0 -37 15 -37 35s15 35 37 35s38 -15 38 -35s-16 -35 -38 -35z" />
    <glyph glyph-name="numbersign.sc" horiz-adv-x="514" 
d="M52 163l1 37h87l21 128h-82l2 36h86l24 143h38l-24 -143h130l25 143h38l-24 -143h88l-1 -36h-93l-22 -128h88l-1 -37h-93l-27 -163h-38l27 163h-130l-27 -163h-39l28 163h-82zM178 200h130l21 128h-130z" />
    <glyph glyph-name="dollar.sc" horiz-adv-x="470" 
d="M411 135c0 -77 -55 -137 -163 -143v-69h-36v70c-109 5 -142 57 -161 97l36 18c16 -37 43 -73 125 -78v211l-19 5c-71 20 -123 57 -123 126s48 132 142 142v55h36v-54c78 -3 132 -38 153 -74l-34 -22c-24 36 -63 56 -119 58v-205l33 -9c69 -19 130 -51 130 -128zM205 284
l7 -2v193c-68 -8 -101 -50 -101 -102s33 -73 94 -89zM248 29c82 5 122 46 122 105c0 54 -45 77 -101 92l-21 6v-203z" />
    <glyph glyph-name="percent.sc" horiz-adv-x="647" 
d="M158 511c77 0 109 -52 109 -132c0 -81 -32 -132 -109 -132c-76 0 -108 51 -108 132c0 80 32 132 108 132zM177 0h-39l331 507h40zM158 276c52 0 72 37 72 103c0 65 -20 102 -72 102c-51 0 -72 -37 -72 -102c0 -66 21 -103 72 -103zM489 260c76 0 109 -51 109 -132
c0 -80 -33 -132 -109 -132s-109 52 -109 132c0 81 33 132 109 132zM489 26c51 0 71 37 71 102c0 66 -20 103 -71 103s-72 -37 -72 -103c0 -65 21 -102 72 -102z" />
    <glyph glyph-name="ampersand.sc" horiz-adv-x="553" 
d="M396 109l112 -105v-4h-51l-85 79c-43 -49 -95 -87 -175 -87c-92 0 -140 53 -140 109c0 66 59 108 111 143l15 10l-28 27c-29 28 -70 65 -70 119c0 63 57 115 151 115c88 0 145 -52 145 -115c0 -54 -41 -83 -95 -122l-42 -28l123 -114c4 6 9 12 14 18l84 112l31 -25
l-85 -112c-5 -7 -10 -14 -15 -20zM184 306l32 -30l45 31c46 31 80 53 80 93s-34 79 -105 79s-110 -39 -110 -79s28 -66 58 -94zM197 27c64 0 106 34 146 79l-131 122l-19 -13c-47 -32 -96 -63 -96 -113c0 -40 45 -75 100 -75z" />
    <glyph glyph-name="section.sc" horiz-adv-x="475" 
d="M410 195c0 -39 -31 -73 -69 -95c40 -21 65 -44 65 -83c0 -61 -68 -103 -172 -103c-91 0 -147 33 -180 74l28 27c30 -37 80 -66 153 -66c69 0 130 20 130 67c0 35 -44 53 -95 71l-95 35c-56 22 -103 51 -103 106c0 37 26 74 65 95c-37 19 -62 47 -62 85
c0 52 58 107 164 107c55 0 126 -13 171 -74l-30 -24c-45 51 -100 62 -142 62c-69 0 -122 -28 -122 -69c0 -40 52 -60 110 -80l62 -22c72 -26 122 -52 122 -113zM172 307c-37 -15 -60 -48 -60 -76c0 -37 35 -59 85 -77l108 -38c30 14 65 42 65 77c0 45 -49 63 -99 80z" />
    <glyph glyph-name="paragraph.sc" horiz-adv-x="424" 
d="M257 342v-390h-38v176c-117 0 -167 27 -167 108c0 62 38 106 126 106h79zM241 -139c53 18 69 42 69 112v369h38v-367c0 -71 -14 -123 -92 -145z" />
    <glyph glyph-name="parenleft.sc" horiz-adv-x="242" 
d="M168 -167c-67 103 -107 197 -107 347c0 164 49 258 107 347l32 -10c-54 -93 -98 -187 -98 -337c0 -134 35 -228 97 -336z" />
    <glyph glyph-name="slash.sc" horiz-adv-x="282" 
d="M243 499l-167 -499h-36v9l164 498h39v-8z" />
    <glyph glyph-name="parenright.sc" horiz-adv-x="242" 
d="M43 -156c62 108 97 202 97 336c0 150 -44 244 -98 337l32 10c57 -89 107 -183 107 -347c0 -150 -41 -244 -107 -347z" />
    <glyph glyph-name="bracketleft.sc" horiz-adv-x="263" 
d="M214 522v-37h-98v-610h98v-37h-137v684h137z" />
    <glyph glyph-name="backslash.sc" horiz-adv-x="282" 
d="M39 507h38l165 -498v-9h-36l-167 499v8z" />
    <glyph glyph-name="bracketright.sc" horiz-adv-x="263" 
d="M186 522v-684h-137v37h98v610h-98v37h137z" />
    <glyph glyph-name="braceleft.sc" horiz-adv-x="264" 
d="M149 253c0 -60 -31 -73 -50 -75c19 -3 50 -16 50 -77v-162c0 -53 18 -68 65 -68v-33c-71 0 -103 20 -103 101v161c0 47 -17 61 -70 61v33c54 0 70 15 70 60v163c0 76 32 101 103 101v-34c-46 0 -65 -14 -65 -67v-164z" />
    <glyph glyph-name="bar.sc" horiz-adv-x="189" 
d="M77 -162v684h35v-684h-35z" />
    <glyph glyph-name="braceright.sc" horiz-adv-x="264" 
d="M50 -162v33c47 0 65 15 65 68v162c0 61 31 74 50 77c-19 2 -50 15 -50 75v164c0 53 -19 67 -65 67v34c71 0 103 -25 103 -101v-163c0 -45 16 -60 70 -60v-33c-54 0 -70 -14 -70 -61v-161c0 -81 -32 -101 -103 -101z" />
    <glyph glyph-name="zero.sc" horiz-adv-x="505" 
d="M253 515c130 0 188 -101 188 -261c0 -161 -58 -262 -188 -262s-189 101 -189 262c0 160 59 261 189 261zM253 29c103 0 148 84 148 225c0 140 -45 224 -148 224s-148 -84 -148 -224c0 -141 45 -225 148 -225z" />
    <glyph glyph-name="one.sc" horiz-adv-x="328" 
d="M201 0v468l-160 -61l-12 33l173 67h38v-507h-39z" />
    <glyph glyph-name="two.sc" horiz-adv-x="446" 
d="M216 515c100 0 158 -60 158 -143c0 -73 -44 -124 -105 -184l-156 -152h278v-36h-331v33l180 180c59 57 93 103 93 159c0 62 -41 106 -117 106c-73 0 -112 -45 -112 -108h-41c0 84 55 145 153 145z" />
    <glyph glyph-name="three.sc" horiz-adv-x="472" 
d="M294 263c53 -9 115 -52 115 -129c0 -83 -68 -142 -175 -142c-118 0 -172 60 -172 126h40c0 -50 48 -89 132 -89c86 0 134 44 134 106c0 67 -62 109 -146 109h-48v36h48c77 0 136 35 136 99c0 57 -45 99 -124 99c-82 0 -124 -43 -124 -91h-40c0 64 51 128 164 128
c103 0 165 -60 165 -136c0 -69 -52 -105 -105 -116z" />
    <glyph glyph-name="four.sc" horiz-adv-x="493" 
d="M446 118h-89v-118h-40v118h-273v33l272 356h41v-353h89v-36zM317 154v292l-227 -292h227z" />
    <glyph glyph-name="five.sc" horiz-adv-x="454" 
d="M396 163c0 -92 -57 -171 -174 -171c-121 0 -169 68 -169 141h40c0 -56 38 -104 129 -104c90 0 133 59 133 134c0 74 -45 119 -127 119c-45 0 -84 -15 -115 -35l-35 2l33 258h270v-36h-236l-26 -184c19 11 64 32 113 32c99 0 164 -56 164 -156z" />
    <glyph glyph-name="six.sc" horiz-adv-x="480" 
d="M368 387c0 55 -46 91 -119 91c-95 0 -145 -91 -145 -230c19 29 75 71 145 71c111 0 173 -66 173 -159c0 -90 -57 -168 -176 -168c-127 0 -183 99 -183 247c0 170 65 276 186 276c105 0 159 -58 159 -128h-40zM108 201c0 -87 40 -172 138 -172c89 0 135 53 135 130
s-47 124 -135 124c-62 0 -116 -40 -138 -82z" />
    <glyph glyph-name="seven.sc" horiz-adv-x="399" 
d="M319 471h-277v36h321v-33l-203 -474h-45z" />
    <glyph glyph-name="eight.sc" horiz-adv-x="488" 
d="M245 -8c-108 0 -182 50 -182 143c0 78 59 117 113 128c-54 12 -102 47 -102 115c0 82 68 137 170 137s170 -55 170 -137c0 -68 -48 -103 -102 -115c54 -11 113 -50 113 -128c0 -93 -75 -143 -180 -143zM244 478c-78 0 -129 -35 -129 -101c0 -60 55 -96 129 -96
c72 0 129 35 129 96c0 66 -51 101 -129 101zM243 29c85 0 141 38 141 110c0 66 -61 105 -141 105c-79 0 -139 -39 -139 -105c0 -72 56 -110 139 -110z" />
    <glyph glyph-name="nine.sc" horiz-adv-x="481" 
d="M112 121c0 -56 46 -92 118 -92c97 0 146 92 146 231c-18 -27 -75 -72 -145 -72c-111 0 -173 66 -173 159c0 90 58 168 176 168c127 0 183 -99 183 -247c0 -170 -65 -276 -187 -276c-104 0 -158 58 -158 129h40zM372 305c0 88 -40 173 -138 173c-89 0 -135 -53 -135 -130
s47 -124 135 -124c62 0 116 40 138 81z" />
    <glyph glyph-name="question.sc" horiz-adv-x="384" 
d="M185 515c95 0 151 -56 151 -124c0 -105 -130 -129 -130 -239h-40c0 119 128 151 128 237c0 44 -36 88 -106 88c-57 0 -101 -29 -101 -80l-40 2c0 65 46 116 138 116zM184 -5c-21 0 -37 15 -37 35s16 35 37 35c22 0 38 -15 38 -35s-16 -35 -38 -35z" />
    <glyph glyph-name="a.sc" horiz-adv-x="507" 
d="M378 146h-249l-58 -146h-44l201 507h51l202 -507h-46zM142 182h223l-111 283z" />
    <glyph glyph-name="b.sc" horiz-adv-x="488" 
d="M88 507h158c105 0 159 -48 159 -125c0 -66 -37 -108 -90 -117c59 -8 117 -45 117 -127c0 -98 -66 -138 -178 -138h-166v507zM237 280c93 0 125 42 125 101c0 56 -34 90 -125 90h-109v-191h109zM244 36c100 0 147 29 147 103c0 64 -44 105 -146 105h-117v-208h116z" />
    <glyph glyph-name="c.sc" horiz-adv-x="494" 
d="M101 253c0 -125 44 -224 174 -224c56 0 111 23 135 67l33 -22c-27 -48 -91 -82 -169 -82c-149 0 -214 102 -214 261c0 160 65 262 214 262c78 0 142 -35 169 -83l-33 -22c-24 45 -79 67 -135 67c-130 0 -174 -99 -174 -224z" />
    <glyph glyph-name="d.sc" horiz-adv-x="545" 
d="M88 507h141c185 0 255 -73 255 -253c0 -179 -70 -254 -255 -254h-141v507zM229 36c163 0 214 61 214 218c0 154 -51 217 -214 217h-101v-435h101z" />
    <glyph glyph-name="e.sc" horiz-adv-x="461" 
d="M401 36v-36h-313v507h310v-36h-270v-191h244v-36h-244v-208h273z" />
    <glyph glyph-name="f.sc" horiz-adv-x="447" 
d="M88 507h309v-36h-269v-206h233v-36h-233v-229h-40v507z" />
    <glyph glyph-name="g.sc" horiz-adv-x="532" 
d="M287 267h190c1 -7 2 -22 2 -28c0 -137 -47 -247 -202 -247c-151 0 -217 95 -217 261c0 156 57 262 227 262c85 0 135 -33 166 -81l-32 -23c-31 46 -68 66 -135 66c-148 0 -185 -97 -185 -224c0 -135 45 -225 176 -225c125 0 161 90 161 202h-151v37z" />
    <glyph glyph-name="h.sc" horiz-adv-x="567" 
d="M439 507h40v-507h-40v250h-312v-250h-39v507h39v-221h312v221z" />
    <glyph glyph-name="i.sc" horiz-adv-x="216" 
d="M88 507h40v-507h-40v507z" />
    <glyph glyph-name="j.sc" horiz-adv-x="418" 
d="M66 85c26 -42 57 -56 106 -56c75 0 124 37 124 150v328h39v-326c0 -138 -67 -189 -163 -189c-67 0 -112 29 -138 72z" />
    <glyph glyph-name="k.sc" horiz-adv-x="505" 
d="M128 180v-180h-40v507h40v-273l290 273h55l-219 -210l219 -297h-53l-196 268z" />
    <glyph glyph-name="l.sc" horiz-adv-x="405" 
d="M376 36v-36h-288v507h40v-471h248z" />
    <glyph glyph-name="m.sc" horiz-adv-x="718" 
d="M530 507h55l80 -507h-42l-71 458l-171 -458h-44l-171 460l-71 -460h-42l81 507h57l169 -453z" />
    <glyph glyph-name="n.sc" horiz-adv-x="576" 
d="M448 507h40v-507h-44l-316 444v-444h-40v507h44l316 -443v443z" />
    <glyph glyph-name="o.sc" horiz-adv-x="550" 
d="M490 253c0 -153 -61 -261 -217 -261c-154 0 -213 108 -213 261s60 262 214 262c155 0 216 -110 216 -262zM101 253c0 -133 42 -224 172 -224c135 0 176 91 176 224c0 132 -41 224 -175 224c-130 0 -173 -92 -173 -224z" />
    <glyph glyph-name="p.sc" horiz-adv-x="469" 
d="M128 210v-210h-40v507h161c123 0 174 -60 174 -148s-51 -149 -174 -149h-121zM128 246h120c101 0 134 47 134 113c0 65 -33 112 -134 112h-120v-225z" />
    <glyph glyph-name="q.sc" horiz-adv-x="550" 
d="M60 253c0 153 60 262 214 262c155 0 216 -110 216 -262c0 -66 -11 -123 -36 -167l72 -67l-25 -27l-69 64c-34 -41 -86 -64 -159 -64c-154 0 -213 108 -213 261zM101 253c0 -133 42 -224 172 -224c62 0 104 19 131 53l-142 132l24 26l138 -127c18 37 25 85 25 140
c0 132 -41 224 -175 224c-130 0 -173 -92 -173 -224z" />
    <glyph glyph-name="r.sc" horiz-adv-x="501" 
d="M88 507h176c123 0 181 -51 181 -135c0 -80 -57 -128 -153 -135l170 -237h-48l-166 234h-120l-1 -234h-39v507zM404 372c0 62 -39 99 -141 99h-135v-200h135c102 0 141 37 141 101z" />
    <glyph glyph-name="s.sc" horiz-adv-x="464" 
d="M365 419c-25 38 -68 58 -129 58c-86 0 -127 -46 -127 -104c0 -52 33 -73 94 -89l76 -21c69 -19 130 -51 130 -128c0 -81 -61 -143 -179 -143c-125 0 -161 56 -181 98l36 18c17 -40 47 -79 145 -79c93 0 137 42 137 105c0 54 -44 77 -100 92l-76 20
c-71 20 -124 57 -124 126c0 75 58 143 169 143c83 0 141 -36 163 -74z" />
    <glyph glyph-name="t.sc" horiz-adv-x="445" 
d="M409 507v-36h-166v-471h-40v471h-167v36h373z" />
    <glyph glyph-name="u.sc" horiz-adv-x="555" 
d="M277 -8c-113 0 -194 51 -194 193v322h40v-325c0 -113 58 -153 154 -153c95 0 155 40 155 153v325h40v-322c0 -143 -82 -193 -195 -193z" />
    <glyph glyph-name="v.sc" horiz-adv-x="497" 
d="M467 507l-193 -507h-51l-193 507h44l175 -464l174 464h44z" />
    <glyph glyph-name="w.sc" horiz-adv-x="803" 
d="M425 507l150 -458l150 458h44l-168 -507h-52l-148 451l-148 -451h-51l-169 507h45l150 -458l149 458h48z" />
    <glyph glyph-name="x.sc" horiz-adv-x="475" 
d="M90 507l147 -215l147 215h49l-169 -245l180 -262h-49l-158 231l-158 -231h-49l180 262l-168 245h48z" />
    <glyph glyph-name="y.sc" horiz-adv-x="476" 
d="M218 0v206l-189 301h46l163 -262l163 262h47l-190 -301v-206h-40z" />
    <glyph glyph-name="z.sc" horiz-adv-x="435" 
d="M383 474l-292 -438h295v-36h-344v33l291 438h-274v36h324v-33z" />
    <glyph glyph-name="agrave.sc" horiz-adv-x="507" 
d="M196 726l79 -147h-41l-87 147h49zM378 146h-249l-58 -146h-44l201 507h51l202 -507h-46zM142 182h223l-111 283z" />
    <glyph glyph-name="aacute.sc" horiz-adv-x="507" 
d="M362 726l-87 -147h-41l79 147h49zM378 146h-249l-58 -146h-44l201 507h51l202 -507h-46zM142 182h223l-111 283z" />
    <glyph glyph-name="acircumflex.sc" horiz-adv-x="507" 
d="M275 726l103 -147h-41l-83 113l-82 -113h-41l103 147h41zM378 146h-249l-58 -146h-44l201 507h51l202 -507h-46zM142 182h223l-111 283z" />
    <glyph glyph-name="atilde.sc" horiz-adv-x="507" 
d="M374 611c-15 16 -35 26 -54 26c-43 0 -76 -36 -131 -36c-27 0 -54 14 -64 27l10 34c13 -14 31 -24 54 -24c49 0 76 36 131 36c32 0 54 -17 64 -27zM378 146h-249l-58 -146h-44l201 507h51l202 -507h-46zM142 182h223l-111 283z" />
    <glyph glyph-name="adieresis.sc" horiz-adv-x="507" 
d="M169 611c-22 0 -39 12 -39 39c0 28 17 40 39 40c20 0 39 -12 39 -40c0 -27 -19 -39 -39 -39zM339 611c-22 0 -39 12 -39 39c0 28 17 40 39 40c20 0 39 -12 39 -40c0 -27 -19 -39 -39 -39zM378 146h-249l-58 -146h-44l201 507h51l202 -507h-46zM142 182h223l-111 283z" />
    <glyph glyph-name="amacron.sc" horiz-adv-x="507" 
d="M385 660v-40h-262v40h262zM378 146h-249l-58 -146h-44l201 507h51l202 -507h-46zM142 182h223l-111 283z" />
    <glyph glyph-name="abreve.sc" horiz-adv-x="507" 
d="M376 699c0 -74 -50 -125 -122 -125c-71 0 -121 51 -121 125h35c0 -51 29 -90 86 -90c58 0 86 39 86 90h36zM378 146h-249l-58 -146h-44l201 507h51l202 -507h-46zM142 182h223l-111 283z" />
    <glyph glyph-name="aring.sc" horiz-adv-x="507" 
d="M156 652c0 54 40 89 98 89c59 0 99 -35 99 -89s-40 -90 -99 -90c-58 0 -98 36 -98 90zM193 652c0 -36 24 -58 61 -58c38 0 62 22 62 58s-24 58 -62 58c-37 0 -61 -22 -61 -58zM378 146h-249l-58 -146h-44l201 507h51l202 -507h-46zM142 182h223l-111 283z" />
    <glyph glyph-name="aringacute.sc" horiz-adv-x="507" 
d="M156 652c0 52 37 86 91 89l60 73h49l-69 -77c40 -11 66 -42 66 -85c0 -54 -40 -90 -99 -90c-58 0 -98 36 -98 90zM193 652c0 -36 24 -58 61 -58c38 0 62 22 62 58s-24 58 -62 58c-37 0 -61 -22 -61 -58zM378 146h-249l-58 -146h-44l201 507h51l202 -507h-46zM142 182h223
l-111 283z" />
    <glyph glyph-name="aogonek.sc" horiz-adv-x="506" 
d="M400 -66c-24 -21 -35 -39 -35 -64c0 -23 16 -50 56 -50c22 0 41 11 59 25v-40c-12 -9 -32 -21 -63 -21c-59 0 -92 38 -92 84c0 38 21 65 45 85l63 51l-55 142h-249l-58 -146h-44l201 507h51l202 -507h-1zM142 182h223l-111 283z" />
    <glyph glyph-name="ae.sc" horiz-adv-x="794" 
d="M734 36v-36h-313v146h-241l-117 -146h-52l410 507h310v-36h-270v-191h244v-36h-244v-208h273zM421 182v264l-212 -264h212z" />
    <glyph glyph-name="aeacute.sc" horiz-adv-x="794" 
d="M654 726l-87 -147h-41l79 147h49zM734 36v-36h-313v146h-241l-117 -146h-52l410 507h310v-36h-270v-191h244v-36h-244v-208h273zM421 182v264l-212 -264h212z" />
    <glyph glyph-name="cacute.sc" horiz-adv-x="494" 
d="M389 726l-87 -147h-41l79 147h49zM101 253c0 -125 44 -224 174 -224c56 0 111 23 135 67l33 -22c-27 -48 -91 -82 -169 -82c-149 0 -214 102 -214 261c0 160 65 262 214 262c78 0 142 -35 169 -83l-33 -22c-24 45 -79 67 -135 67c-130 0 -174 -99 -174 -224z" />
    <glyph glyph-name="ccircumflex.sc" horiz-adv-x="494" 
d="M291 726l103 -147h-41l-83 113l-82 -113h-41l103 147h41zM101 253c0 -125 44 -224 174 -224c56 0 111 23 135 67l33 -22c-27 -48 -91 -82 -169 -82c-149 0 -214 102 -214 261c0 160 65 262 214 262c78 0 142 -35 169 -83l-33 -22c-24 45 -79 67 -135 67
c-130 0 -174 -99 -174 -224z" />
    <glyph glyph-name="ccaron.sc" horiz-adv-x="494" 
d="M250 579l-103 147h41l83 -113l82 113h41l-103 -147h-41zM101 253c0 -125 44 -224 174 -224c56 0 111 23 135 67l33 -22c-27 -48 -91 -82 -169 -82c-149 0 -214 102 -214 261c0 160 65 262 214 262c78 0 142 -35 169 -83l-33 -22c-24 45 -79 67 -135 67
c-130 0 -174 -99 -174 -224z" />
    <glyph glyph-name="cdotaccent.sc" horiz-adv-x="494" 
d="M270 611c-22 0 -39 12 -39 39c0 28 17 40 39 40c20 0 39 -12 39 -40c0 -27 -19 -39 -39 -39zM101 253c0 -125 44 -224 174 -224c56 0 111 23 135 67l33 -22c-27 -48 -91 -82 -169 -82c-149 0 -214 102 -214 261c0 160 65 262 214 262c78 0 142 -35 169 -83l-33 -22
c-24 45 -79 67 -135 67c-130 0 -174 -99 -174 -224z" />
    <glyph glyph-name="ccedilla.sc" horiz-adv-x="494" 
d="M275 29c56 0 111 23 135 67l33 -22c-24 -43 -78 -75 -145 -81l-20 -54c47 0 88 -21 88 -81c0 -31 -27 -74 -91 -74c-28 0 -55 11 -75 22v40c21 -15 47 -26 75 -26c34 0 50 19 50 38c0 37 -28 45 -66 45h-26l-2 4l27 85c-138 8 -198 108 -198 261c0 160 65 262 214 262
c78 0 142 -35 169 -83l-33 -22c-24 45 -79 67 -135 67c-130 0 -174 -99 -174 -224s44 -224 174 -224z" />
    <glyph glyph-name="dcaron.sc" horiz-adv-x="545" 
d="M232 579l-103 147h41l83 -113l82 113h41l-103 -147h-41zM88 507h141c185 0 255 -73 255 -253c0 -179 -70 -254 -255 -254h-141v507zM229 36c163 0 214 61 214 218c0 154 -51 217 -214 217h-101v-435h101z" />
    <glyph glyph-name="dcroat.sc" horiz-adv-x="553" 
d="M229 507c185 0 255 -73 255 -253c0 -179 -70 -254 -255 -254h-141v240h-59v36h59v231h141zM229 36c163 0 214 61 214 218c0 154 -51 217 -214 217h-101v-195h133v-36h-133v-204h101z" />
    <glyph glyph-name="eth.sc" horiz-adv-x="553" 
d="M229 507c185 0 255 -73 255 -253c0 -179 -70 -254 -255 -254h-141v240h-59v36h59v231h141zM229 36c163 0 214 61 214 218c0 154 -51 217 -214 217h-101v-195h133v-36h-133v-204h101z" />
    <glyph glyph-name="egrave.sc" horiz-adv-x="461" 
d="M195 726l79 -147h-41l-87 147h49zM401 36v-36h-313v507h310v-36h-270v-191h244v-36h-244v-208h273z" />
    <glyph glyph-name="eacute.sc" horiz-adv-x="461" 
d="M361 726l-87 -147h-41l79 147h49zM401 36v-36h-313v507h310v-36h-270v-191h244v-36h-244v-208h273z" />
    <glyph glyph-name="ecircumflex.sc" horiz-adv-x="461" 
d="M260 726l103 -147h-41l-83 113l-82 -113h-41l103 147h41zM401 36v-36h-313v507h310v-36h-270v-191h244v-36h-244v-208h273z" />
    <glyph glyph-name="ecaron.sc" horiz-adv-x="461" 
d="M219 579l-103 147h41l83 -113l82 113h41l-103 -147h-41zM401 36v-36h-313v507h310v-36h-270v-191h244v-36h-244v-208h273z" />
    <glyph glyph-name="edieresis.sc" horiz-adv-x="461" 
d="M154 611c-22 0 -39 12 -39 39c0 28 17 40 39 40c20 0 39 -12 39 -40c0 -27 -19 -39 -39 -39zM324 611c-22 0 -39 12 -39 39c0 28 17 40 39 40c20 0 39 -12 39 -40c0 -27 -19 -39 -39 -39zM401 36v-36h-313v507h310v-36h-270v-191h244v-36h-244v-208h273z" />
    <glyph glyph-name="emacron.sc" horiz-adv-x="461" 
d="M370 660v-40h-262v40h262zM401 36v-36h-313v507h310v-36h-270v-191h244v-36h-244v-208h273z" />
    <glyph glyph-name="ebreve.sc" horiz-adv-x="461" 
d="M361 699c0 -74 -50 -125 -122 -125c-71 0 -121 51 -121 125h35c0 -51 29 -90 86 -90c58 0 86 39 86 90h36zM401 36v-36h-313v507h310v-36h-270v-191h244v-36h-244v-208h273z" />
    <glyph glyph-name="edotaccent.sc" horiz-adv-x="461" 
d="M239 611c-22 0 -39 12 -39 39c0 28 17 40 39 40c20 0 39 -12 39 -40c0 -27 -19 -39 -39 -39zM401 36v-36h-313v507h310v-36h-270v-191h244v-36h-244v-208h273z" />
    <glyph glyph-name="eogonek.sc" horiz-adv-x="460" 
d="M128 36h273v-36h-1l-80 -66c-24 -21 -35 -39 -35 -64c0 -23 16 -50 56 -50c22 0 41 11 59 25v-40c-12 -9 -32 -21 -63 -21c-59 0 -92 38 -92 84c0 38 21 65 45 85l58 47h-260v507h310v-36h-270v-191h244v-36h-244v-208z" />
    <glyph glyph-name="gcircumflex.sc" horiz-adv-x="532" 
d="M295 726l103 -147h-41l-83 113l-82 -113h-41l103 147h41zM287 267h190c1 -7 2 -22 2 -28c0 -137 -47 -247 -202 -247c-151 0 -217 95 -217 261c0 156 57 262 227 262c85 0 135 -33 166 -81l-32 -23c-31 46 -68 66 -135 66c-148 0 -185 -97 -185 -224
c0 -135 45 -225 176 -225c125 0 161 90 161 202h-151v37z" />
    <glyph glyph-name="gbreve.sc" horiz-adv-x="532" 
d="M396 699c0 -74 -50 -125 -122 -125c-71 0 -121 51 -121 125h35c0 -51 29 -90 86 -90c58 0 86 39 86 90h36zM287 267h190c1 -7 2 -22 2 -28c0 -137 -47 -247 -202 -247c-151 0 -217 95 -217 261c0 156 57 262 227 262c85 0 135 -33 166 -81l-32 -23c-31 46 -68 66 -135 66
c-148 0 -185 -97 -185 -224c0 -135 45 -225 176 -225c125 0 161 90 161 202h-151v37z" />
    <glyph glyph-name="gdotaccent.sc" horiz-adv-x="532" 
d="M274 611c-22 0 -39 12 -39 39c0 28 17 40 39 40c20 0 39 -12 39 -40c0 -27 -19 -39 -39 -39zM287 267h190c1 -7 2 -22 2 -28c0 -137 -47 -247 -202 -247c-151 0 -217 95 -217 261c0 156 57 262 227 262c85 0 135 -33 166 -81l-32 -23c-31 46 -68 66 -135 66
c-148 0 -185 -97 -185 -224c0 -135 45 -225 176 -225c125 0 161 90 161 202h-151v37z" />
    <glyph glyph-name="uni0123.sc" horiz-adv-x="532" 
d="M287 267h190c1 -7 2 -22 2 -28c0 -137 -47 -247 -202 -247c-151 0 -217 95 -217 261c0 156 57 262 227 262c85 0 135 -33 166 -81l-32 -23c-31 46 -68 66 -135 66c-148 0 -185 -97 -185 -224c0 -135 45 -225 176 -225c125 0 161 90 161 202h-151v37zM262 -216h-34l25 143
h51z" />
    <glyph glyph-name="hcircumflex.sc" horiz-adv-x="567" 
d="M304 726l103 -147h-41l-83 113l-82 -113h-41l103 147h41zM439 507h40v-507h-40v250h-312v-250h-39v507h39v-221h312v221z" />
    <glyph glyph-name="hbar.sc" horiz-adv-x="568" 
d="M89 411v96h39v-96h312v96h40v-96h43v-36h-43v-375h-40v250h-312v-250h-39v375h-49v36h49zM440 375h-312v-89h312v89z" />
    <glyph glyph-name="igrave.sc" horiz-adv-x="216" 
d="M50 726l79 -147h-41l-87 147h49zM88 507h40v-507h-40v507z" />
    <glyph glyph-name="iacute.sc" horiz-adv-x="216" 
d="M216 726l-87 -147h-41l79 147h49zM88 507h40v-507h-40v507z" />
    <glyph glyph-name="ibreve.sc" horiz-adv-x="216" 
d="M230 699c0 -74 -50 -125 -122 -125c-71 0 -121 51 -121 125h35c0 -51 29 -90 86 -90c58 0 86 39 86 90h36zM88 507h40v-507h-40v507z" />
    <glyph glyph-name="icircumflex.sc" horiz-adv-x="216" 
d="M129 726l103 -147h-41l-83 113l-82 -113h-41l103 147h41zM88 507h40v-507h-40v507z" />
    <glyph glyph-name="itilde.sc" horiz-adv-x="216" 
d="M228 611c-15 16 -35 26 -54 26c-43 0 -76 -36 -131 -36c-27 0 -54 14 -64 27l10 34c13 -14 31 -24 54 -24c49 0 76 36 131 36c32 0 54 -17 64 -27zM88 507h40v-507h-40v507z" />
    <glyph glyph-name="idieresis.sc" horiz-adv-x="216" 
d="M23 611c-22 0 -39 12 -39 39c0 28 17 40 39 40c20 0 39 -12 39 -40c0 -27 -19 -39 -39 -39zM193 611c-22 0 -39 12 -39 39c0 28 17 40 39 40c20 0 39 -12 39 -40c0 -27 -19 -39 -39 -39zM88 507h40v-507h-40v507z" />
    <glyph glyph-name="imacron.sc" horiz-adv-x="216" 
d="M239 660v-40h-262v40h262zM88 507h40v-507h-40v507z" />
    <glyph glyph-name="i.sc.loclTRK" horiz-adv-x="216" 
d="M108 611c-22 0 -39 12 -39 39c0 28 17 40 39 40c20 0 39 -12 39 -40c0 -27 -19 -39 -39 -39zM88 507h40v-507h-40v507z" />
    <glyph glyph-name="iogonek.sc" horiz-adv-x="216" 
d="M48 -66c-24 -21 -35 -39 -35 -64c0 -23 16 -50 56 -50c22 0 41 11 59 25v-40c-12 -9 -32 -21 -63 -21c-59 0 -92 38 -92 84c0 38 21 65 45 85l70 57v497h40v-507z" />
    <glyph glyph-name="jcircumflex.sc" horiz-adv-x="419" 
d="M334 726l103 -147h-41l-83 113l-82 -113h-41l103 147h41zM66 85c26 -42 57 -56 106 -56c75 0 124 37 124 150v328h39v-326c0 -138 -67 -189 -163 -189c-67 0 -112 29 -138 72z" />
    <glyph glyph-name="uni0137.sc" horiz-adv-x="505" 
d="M128 180v-180h-40v507h40v-273l290 273h55l-219 -210l219 -297h-53l-196 268zM227 -216h-34l25 143h51z" />
    <glyph glyph-name="lacute.sc" horiz-adv-x="405" 
d="M216 726l-87 -147h-41l79 147h49zM376 36v-36h-288v507h40v-471h248z" />
    <glyph glyph-name="lcaron.sc" horiz-adv-x="405" 
d="M376 36v-36h-288v507h40v-471h248zM321 364h-34l25 143h51z" />
    <glyph glyph-name="uni013C.sc" horiz-adv-x="405" 
d="M376 36v-36h-288v507h40v-471h248zM206 -216h-34l25 143h51z" />
    <glyph glyph-name="lslash.sc" horiz-adv-x="415" 
d="M29 185v40l69 29v253h40v-237l81 34v-40l-81 -34v-194h248v-36h-288v214z" />
    <glyph glyph-name="ldot.sc" horiz-adv-x="430" 
d="M376 36v-36h-288v507h40v-471h248zM317 231c-22 0 -39 12 -39 39c0 28 17 40 39 40c20 0 39 -12 39 -40c0 -27 -19 -39 -39 -39z" />
    <glyph glyph-name="nacute.sc" horiz-adv-x="576" 
d="M397 726l-87 -147h-41l79 147h49zM448 507h40v-507h-44l-316 444v-444h-40v507h44l316 -443v443z" />
    <glyph glyph-name="ncaron.sc" horiz-adv-x="576" 
d="M268 579l-103 147h41l83 -113l82 113h41l-103 -147h-41zM448 507h40v-507h-44l-316 444v-444h-40v507h44l316 -443v443z" />
    <glyph glyph-name="ntilde.sc" horiz-adv-x="576" 
d="M408 611c-15 16 -35 26 -54 26c-43 0 -76 -36 -131 -36c-27 0 -54 14 -64 27l10 34c13 -14 31 -24 54 -24c49 0 76 36 131 36c32 0 54 -17 64 -27zM448 507h40v-507h-44l-316 444v-444h-40v507h44l316 -443v443z" />
    <glyph glyph-name="uni0146.sc" horiz-adv-x="576" 
d="M448 507h40v-507h-44l-316 444v-444h-40v507h44l316 -443v443zM275 -216h-34l25 143h51z" />
    <glyph glyph-name="ograve.sc" horiz-adv-x="550" 
d="M216 726l79 -147h-41l-87 147h49zM490 253c0 -153 -61 -261 -217 -261c-154 0 -213 108 -213 261s60 262 214 262c155 0 216 -110 216 -262zM101 253c0 -133 42 -224 172 -224c135 0 176 91 176 224c0 132 -41 224 -175 224c-130 0 -173 -92 -173 -224z" />
    <glyph glyph-name="oacute.sc" horiz-adv-x="550" 
d="M382 726l-87 -147h-41l79 147h49zM490 253c0 -153 -61 -261 -217 -261c-154 0 -213 108 -213 261s60 262 214 262c155 0 216 -110 216 -262zM101 253c0 -133 42 -224 172 -224c135 0 176 91 176 224c0 132 -41 224 -175 224c-130 0 -173 -92 -173 -224z" />
    <glyph glyph-name="ocircumflex.sc" horiz-adv-x="550" 
d="M296 726l103 -147h-41l-83 113l-82 -113h-41l103 147h41zM490 253c0 -153 -61 -261 -217 -261c-154 0 -213 108 -213 261s60 262 214 262c155 0 216 -110 216 -262zM101 253c0 -133 42 -224 172 -224c135 0 176 91 176 224c0 132 -41 224 -175 224
c-130 0 -173 -92 -173 -224z" />
    <glyph glyph-name="otilde.sc" horiz-adv-x="550" 
d="M395 611c-15 16 -35 26 -54 26c-43 0 -76 -36 -131 -36c-27 0 -54 14 -64 27l10 34c13 -14 31 -24 54 -24c49 0 76 36 131 36c32 0 54 -17 64 -27zM490 253c0 -153 -61 -261 -217 -261c-154 0 -213 108 -213 261s60 262 214 262c155 0 216 -110 216 -262zM101 253
c0 -133 42 -224 172 -224c135 0 176 91 176 224c0 132 -41 224 -175 224c-130 0 -173 -92 -173 -224z" />
    <glyph glyph-name="odieresis.sc" horiz-adv-x="550" 
d="M190 611c-22 0 -39 12 -39 39c0 28 17 40 39 40c20 0 39 -12 39 -40c0 -27 -19 -39 -39 -39zM360 611c-22 0 -39 12 -39 39c0 28 17 40 39 40c20 0 39 -12 39 -40c0 -27 -19 -39 -39 -39zM490 253c0 -153 -61 -261 -217 -261c-154 0 -213 108 -213 261s60 262 214 262
c155 0 216 -110 216 -262zM101 253c0 -133 42 -224 172 -224c135 0 176 91 176 224c0 132 -41 224 -175 224c-130 0 -173 -92 -173 -224z" />
    <glyph glyph-name="omacron.sc" horiz-adv-x="550" 
d="M406 660v-40h-262v40h262zM490 253c0 -153 -61 -261 -217 -261c-154 0 -213 108 -213 261s60 262 214 262c155 0 216 -110 216 -262zM101 253c0 -133 42 -224 172 -224c135 0 176 91 176 224c0 132 -41 224 -175 224c-130 0 -173 -92 -173 -224z" />
    <glyph glyph-name="obreve.sc" horiz-adv-x="550" 
d="M397 699c0 -74 -50 -125 -122 -125c-71 0 -121 51 -121 125h35c0 -51 29 -90 86 -90c58 0 86 39 86 90h36zM490 253c0 -153 -61 -261 -217 -261c-154 0 -213 108 -213 261s60 262 214 262c155 0 216 -110 216 -262zM101 253c0 -133 42 -224 172 -224
c135 0 176 91 176 224c0 132 -41 224 -175 224c-130 0 -173 -92 -173 -224z" />
    <glyph glyph-name="ohungarumlaut.sc" horiz-adv-x="550" 
d="M315 726l-87 -147h-41l79 147h49zM445 726l-87 -147h-41l79 147h49zM490 253c0 -153 -61 -261 -217 -261c-154 0 -213 108 -213 261s60 262 214 262c155 0 216 -110 216 -262zM101 253c0 -133 42 -224 172 -224c135 0 176 91 176 224c0 132 -41 224 -175 224
c-130 0 -173 -92 -173 -224z" />
    <glyph glyph-name="oslash.sc" horiz-adv-x="550" 
d="M439 442c36 -47 51 -112 51 -189c0 -153 -61 -261 -217 -261c-61 0 -108 17 -141 47l-30 -39h-47l52 68c-33 46 -47 110 -47 185c0 153 60 262 214 262c59 0 105 -16 138 -44l28 36h49zM101 253c0 -61 9 -113 31 -152l257 339c-27 24 -64 37 -115 37
c-130 0 -173 -92 -173 -224zM273 29c135 0 176 91 176 224c0 63 -9 118 -34 157l-259 -340c26 -26 65 -41 117 -41z" />
    <glyph glyph-name="oslashacute.sc" horiz-adv-x="550" 
d="M380 726l-87 -147h-41l79 147h49zM439 442c36 -47 51 -112 51 -189c0 -153 -61 -261 -217 -261c-61 0 -108 17 -141 47l-30 -39h-47l52 68c-33 46 -47 110 -47 185c0 153 60 262 214 262c59 0 105 -16 138 -44l28 36h49zM101 253c0 -61 9 -113 31 -152l257 339
c-27 24 -64 37 -115 37c-130 0 -173 -92 -173 -224zM273 29c135 0 176 91 176 224c0 63 -9 118 -34 157l-259 -340c26 -26 65 -41 117 -41z" />
    <glyph glyph-name="oe.sc" horiz-adv-x="725" 
d="M665 36v-36h-313c-23 -6 -49 -8 -79 -8c-154 0 -213 108 -213 261s60 262 214 262c29 0 55 -2 78 -8h310v-36h-270v-191h244v-36h-244v-208h273zM273 29c31 0 57 3 79 11v425c-22 8 -48 12 -78 12c-130 0 -173 -92 -173 -224c0 -133 42 -224 172 -224z" />
    <glyph glyph-name="racute.sc" horiz-adv-x="501" 
d="M364 726l-87 -147h-41l79 147h49zM88 507h176c123 0 181 -51 181 -135c0 -80 -57 -128 -153 -135l170 -237h-48l-166 234h-120l-1 -234h-39v507zM404 372c0 62 -39 99 -141 99h-135v-200h135c102 0 141 37 141 101z" />
    <glyph glyph-name="rcaron.sc" horiz-adv-x="501" 
d="M211 579l-103 147h41l83 -113l82 113h41l-103 -147h-41zM88 507h176c123 0 181 -51 181 -135c0 -80 -57 -128 -153 -135l170 -237h-48l-166 234h-120l-1 -234h-39v507zM404 372c0 62 -39 99 -141 99h-135v-200h135c102 0 141 37 141 101z" />
    <glyph glyph-name="uni0157.sc" horiz-adv-x="501" 
d="M88 507h176c123 0 181 -51 181 -135c0 -80 -57 -128 -153 -135l170 -237h-48l-166 234h-120l-1 -234h-39v507zM404 372c0 62 -39 99 -141 99h-135v-200h135c102 0 141 37 141 101zM222 -216h-34l25 143h51z" />
    <glyph glyph-name="sacute.sc" horiz-adv-x="464" 
d="M344 726l-87 -147h-41l79 147h49zM365 419c-25 38 -68 58 -129 58c-86 0 -127 -46 -127 -104c0 -52 33 -73 94 -89l76 -21c69 -19 130 -51 130 -128c0 -81 -61 -143 -179 -143c-125 0 -161 56 -181 98l36 18c17 -40 47 -79 145 -79c93 0 137 42 137 105
c0 54 -44 77 -100 92l-76 20c-71 20 -124 57 -124 126c0 75 58 143 169 143c83 0 141 -36 163 -74z" />
    <glyph glyph-name="scircumflex.sc" horiz-adv-x="464" 
d="M253 726l103 -147h-41l-83 113l-82 -113h-41l103 147h41zM365 419c-25 38 -68 58 -129 58c-86 0 -127 -46 -127 -104c0 -52 33 -73 94 -89l76 -21c69 -19 130 -51 130 -128c0 -81 -61 -143 -179 -143c-125 0 -161 56 -181 98l36 18c17 -40 47 -79 145 -79
c93 0 137 42 137 105c0 54 -44 77 -100 92l-76 20c-71 20 -124 57 -124 126c0 75 58 143 169 143c83 0 141 -36 163 -74z" />
    <glyph glyph-name="scaron.sc" horiz-adv-x="464" 
d="M212 579l-103 147h41l83 -113l82 113h41l-103 -147h-41zM365 419c-25 38 -68 58 -129 58c-86 0 -127 -46 -127 -104c0 -52 33 -73 94 -89l76 -21c69 -19 130 -51 130 -128c0 -81 -61 -143 -179 -143c-125 0 -161 56 -181 98l36 18c17 -40 47 -79 145 -79
c93 0 137 42 137 105c0 54 -44 77 -100 92l-76 20c-71 20 -124 57 -124 126c0 75 58 143 169 143c83 0 141 -36 163 -74z" />
    <glyph glyph-name="scedilla.sc" horiz-adv-x="464" 
d="M409 135c0 -75 -52 -133 -153 -142l-20 -54c47 0 88 -21 88 -81c0 -31 -27 -74 -91 -74c-28 0 -55 11 -75 22v40c21 -15 47 -26 75 -26c34 0 50 19 50 38c0 37 -28 45 -66 45h-26l-2 4l27 85c-114 4 -148 58 -167 98l36 18c17 -40 47 -79 145 -79c93 0 137 42 137 105
c0 54 -44 77 -100 92l-76 20c-71 20 -124 57 -124 126c0 75 58 143 169 143c83 0 141 -36 163 -74l-34 -22c-25 38 -68 58 -129 58c-86 0 -127 -46 -127 -104c0 -52 33 -73 94 -89l76 -21c69 -19 130 -51 130 -128z" />
    <glyph glyph-name="uni0219.sc" horiz-adv-x="464" 
d="M365 419c-25 38 -68 58 -129 58c-86 0 -127 -46 -127 -104c0 -52 33 -73 94 -89l76 -21c69 -19 130 -51 130 -128c0 -81 -61 -143 -179 -143c-125 0 -161 56 -181 98l36 18c17 -40 47 -79 145 -79c93 0 137 42 137 105c0 54 -44 77 -100 92l-76 20
c-71 20 -124 57 -124 126c0 75 58 143 169 143c83 0 141 -36 163 -74zM218 -216h-34l25 143h51z" />
    <glyph glyph-name="tcaron.sc" horiz-adv-x="446" 
d="M203 579l-103 147h41l83 -113l82 113h41l-103 -147h-41zM409 507v-36h-166v-471h-40v471h-167v36h373z" />
    <glyph glyph-name="uni021B.sc" horiz-adv-x="451" 
d="M412 507v-36h-166v-471h-40v471h-167v36h373zM208 -216h-34l25 143h51z" />
    <glyph glyph-name="tbar.sc" horiz-adv-x="454" 
d="M409 471h-166v-201h99v-36h-99v-234h-40v234h-93v36h93v201h-167v36h373v-36z" />
    <glyph glyph-name="thorn.sc" horiz-adv-x="471" 
d="M128 105v-105h-40v507h40v-105h121c123 0 174 -60 174 -148s-51 -149 -174 -149h-121zM128 141h120c101 0 134 47 134 113c0 65 -33 112 -134 112h-120v-225z" />
    <glyph glyph-name="ugrave.sc" horiz-adv-x="555" 
d="M220 726l79 -147h-41l-87 147h49zM277 -8c-113 0 -194 51 -194 193v322h40v-325c0 -113 58 -153 154 -153c95 0 155 40 155 153v325h40v-322c0 -143 -82 -193 -195 -193z" />
    <glyph glyph-name="uacute.sc" horiz-adv-x="555" 
d="M386 726l-87 -147h-41l79 147h49zM277 -8c-113 0 -194 51 -194 193v322h40v-325c0 -113 58 -153 154 -153c95 0 155 40 155 153v325h40v-322c0 -143 -82 -193 -195 -193z" />
    <glyph glyph-name="ucircumflex.sc" horiz-adv-x="555" 
d="M298 726l103 -147h-41l-83 113l-82 -113h-41l103 147h41zM277 -8c-113 0 -194 51 -194 193v322h40v-325c0 -113 58 -153 154 -153c95 0 155 40 155 153v325h40v-322c0 -143 -82 -193 -195 -193z" />
    <glyph glyph-name="utilde.sc" horiz-adv-x="555" 
d="M397 611c-15 16 -35 26 -54 26c-43 0 -76 -36 -131 -36c-27 0 -54 14 -64 27l10 34c13 -14 31 -24 54 -24c49 0 76 36 131 36c32 0 54 -17 64 -27zM277 -8c-113 0 -194 51 -194 193v322h40v-325c0 -113 58 -153 154 -153c95 0 155 40 155 153v325h40v-322
c0 -143 -82 -193 -195 -193z" />
    <glyph glyph-name="udieresis.sc" horiz-adv-x="555" 
d="M192 611c-22 0 -39 12 -39 39c0 28 17 40 39 40c20 0 39 -12 39 -40c0 -27 -19 -39 -39 -39zM362 611c-22 0 -39 12 -39 39c0 28 17 40 39 40c20 0 39 -12 39 -40c0 -27 -19 -39 -39 -39zM277 -8c-113 0 -194 51 -194 193v322h40v-325c0 -113 58 -153 154 -153
c95 0 155 40 155 153v325h40v-322c0 -143 -82 -193 -195 -193z" />
    <glyph glyph-name="umacron.sc" horiz-adv-x="555" 
d="M408 660v-40h-262v40h262zM277 -8c-113 0 -194 51 -194 193v322h40v-325c0 -113 58 -153 154 -153c95 0 155 40 155 153v325h40v-322c0 -143 -82 -193 -195 -193z" />
    <glyph glyph-name="ubreve.sc" horiz-adv-x="555" 
d="M399 699c0 -74 -50 -125 -122 -125c-71 0 -121 51 -121 125h35c0 -51 29 -90 86 -90c58 0 86 39 86 90h36zM277 -8c-113 0 -194 51 -194 193v322h40v-325c0 -113 58 -153 154 -153c95 0 155 40 155 153v325h40v-322c0 -143 -82 -193 -195 -193z" />
    <glyph glyph-name="uring.sc" horiz-adv-x="555" 
d="M179 652c0 54 40 89 98 89c59 0 99 -35 99 -89s-40 -90 -99 -90c-58 0 -98 36 -98 90zM216 652c0 -36 24 -58 61 -58c38 0 62 22 62 58s-24 58 -62 58c-37 0 -61 -22 -61 -58zM277 -8c-113 0 -194 51 -194 193v322h40v-325c0 -113 58 -153 154 -153c95 0 155 40 155 153
v325h40v-322c0 -143 -82 -193 -195 -193z" />
    <glyph glyph-name="uhungarumlaut.sc" horiz-adv-x="555" 
d="M316 726l-87 -147h-41l79 147h49zM446 726l-87 -147h-41l79 147h49zM277 -8c-113 0 -194 51 -194 193v322h40v-325c0 -113 58 -153 154 -153c95 0 155 40 155 153v325h40v-322c0 -143 -82 -193 -195 -193z" />
    <glyph glyph-name="uogonek.sc" horiz-adv-x="555" 
d="M432 507h40v-322c0 -116 -54 -170 -134 -187l-71 -59c-24 -21 -35 -39 -35 -64c0 -23 16 -50 56 -50c22 0 41 11 59 25v-40c-12 -9 -32 -21 -63 -21c-59 0 -92 38 -92 84c0 38 21 65 45 85l42 34h-2c-113 0 -194 51 -194 193v322h40v-325c0 -113 58 -153 154 -153
c95 0 155 40 155 153v325z" />
    <glyph glyph-name="wacute.sc" horiz-adv-x="803" 
d="M509 726l-87 -147h-41l79 147h49zM425 507l150 -458l150 458h44l-168 -507h-52l-148 451l-148 -451h-51l-169 507h45l150 -458l149 458h48z" />
    <glyph glyph-name="wcircumflex.sc" horiz-adv-x="803" 
d="M423 726l103 -147h-41l-83 113l-82 -113h-41l103 147h41zM425 507l150 -458l150 458h44l-168 -507h-52l-148 451l-148 -451h-51l-169 507h45l150 -458l149 458h48z" />
    <glyph glyph-name="wdieresis.sc" horiz-adv-x="803" 
d="M317 611c-22 0 -39 12 -39 39c0 28 17 40 39 40c20 0 39 -12 39 -40c0 -27 -19 -39 -39 -39zM487 611c-22 0 -39 12 -39 39c0 28 17 40 39 40c20 0 39 -12 39 -40c0 -27 -19 -39 -39 -39zM425 507l150 -458l150 458h44l-168 -507h-52l-148 451l-148 -451h-51l-169 507h45
l150 -458l149 458h48z" />
    <glyph glyph-name="wgrave.sc" horiz-adv-x="803" 
d="M343 726l79 -147h-41l-87 147h49zM425 507l150 -458l150 458h44l-168 -507h-52l-148 451l-148 -451h-51l-169 507h45l150 -458l149 458h48z" />
    <glyph glyph-name="yacute.sc" horiz-adv-x="476" 
d="M346 726l-87 -147h-41l79 147h49zM218 0v206l-189 301h46l163 -262l163 262h47l-190 -301v-206h-40z" />
    <glyph glyph-name="ycircumflex.sc" horiz-adv-x="477" 
d="M259 726l103 -147h-41l-83 113l-82 -113h-41l103 147h41zM218 0v206l-189 301h46l163 -262l163 262h47l-190 -301v-206h-40z" />
    <glyph glyph-name="ydieresis.sc" horiz-adv-x="477" 
d="M153 611c-22 0 -39 12 -39 39c0 28 17 40 39 40c20 0 39 -12 39 -40c0 -27 -19 -39 -39 -39zM323 611c-22 0 -39 12 -39 39c0 28 17 40 39 40c20 0 39 -12 39 -40c0 -27 -19 -39 -39 -39zM218 0v206l-189 301h46l163 -262l163 262h47l-190 -301v-206h-40z" />
    <glyph glyph-name="ygrave.sc" horiz-adv-x="476" 
d="M180 726l79 -147h-41l-87 147h49zM218 0v206l-189 301h46l163 -262l163 262h47l-190 -301v-206h-40z" />
    <glyph glyph-name="zacute.sc" horiz-adv-x="435" 
d="M329 726l-87 -147h-41l79 147h49zM383 474l-292 -438h295v-36h-344v33l291 438h-274v36h324v-33z" />
    <glyph glyph-name="zcaron.sc" horiz-adv-x="435" 
d="M196 579l-103 147h41l83 -113l82 113h41l-103 -147h-41zM383 474l-292 -438h295v-36h-344v33l291 438h-274v36h324v-33z" />
    <glyph glyph-name="zdotaccent.sc" horiz-adv-x="435" 
d="M216 611c-22 0 -39 12 -39 39c0 28 17 40 39 40c20 0 39 -12 39 -40c0 -27 -19 -39 -39 -39zM383 474l-292 -438h295v-36h-344v33l291 438h-274v36h324v-33z" />
    <glyph glyph-name="ij.sc" horiz-adv-x="634" 
d="M88 507h40v-507h-40v507zM282 85c26 -42 57 -56 106 -56c75 0 124 37 124 150v328h39v-326c0 -138 -67 -189 -163 -189c-67 0 -112 29 -138 72z" />
    <glyph glyph-name="germandbls.sc" horiz-adv-x="537" 
d="M380 256c59 -23 102 -62 102 -135c0 -76 -55 -127 -153 -127c-107 0 -143 45 -163 79l35 21c17 -31 45 -64 127 -64c74 0 113 34 113 89c0 50 -22 81 -76 102l-122 47v32l164 138c-33 26 -77 39 -130 39c-108 0 -154 -52 -154 -153v-324h-40v321c0 142 81 194 194 194
c68 0 123 -16 168 -59v-32l-156 -132z" />
    <glyph glyph-name="fi.sc" horiz-adv-x="663" 
d="M88 507h309v-36h-269v-206h233v-36h-233v-229h-40v507zM535 507h40v-507h-40v507z" />
    <glyph glyph-name="fl.sc" horiz-adv-x="852" 
d="M88 507h309v-36h-269v-206h233v-36h-233v-229h-40v507zM823 36v-36h-288v507h40v-471h248z" />
    <glyph glyph-name="eng.sc" horiz-adv-x="575" 
d="M447 507h40v-532c0 -71 -15 -126 -91 -149l-17 34c58 20 68 50 68 135l-320 449v-444h-40v507h44l316 -443v443z" />
    <glyph glyph-name="grave.sc" 
d="M286 726l79 -147h-41l-87 147h49z" />
    <glyph glyph-name="acute.sc" 
d="M365 726l-87 -147h-41l79 147h49z" />
    <glyph glyph-name="circumflex.sc" 
d="M320 726l103 -147h-41l-83 113l-82 -113h-41l103 147h41z" />
    <glyph glyph-name="caron.sc" 
d="M279 579l-103 147h41l83 -113l82 113h41l-103 -147h-41z" />
    <glyph glyph-name="caronalt.sc" 
d="M296 364h-34l25 143h51z" />
    <glyph glyph-name="tilde.sc" 
d="M419 611c-15 16 -35 26 -54 26c-43 0 -76 -36 -131 -36c-27 0 -54 14 -64 27l10 34c13 -14 31 -24 54 -24c49 0 76 36 131 36c32 0 54 -17 64 -27z" />
    <glyph glyph-name="dieresis.sc" 
d="M215 611c-22 0 -39 12 -39 39c0 28 17 40 39 40c20 0 39 -12 39 -40c0 -27 -19 -39 -39 -39zM385 611c-22 0 -39 12 -39 39c0 28 17 40 39 40c20 0 39 -12 39 -40c0 -27 -19 -39 -39 -39z" />
    <glyph glyph-name="macron.sc" 
d="M431 660v-40h-262v40h262z" />
    <glyph glyph-name="breve.sc" 
d="M421 699c0 -74 -50 -125 -122 -125c-71 0 -121 51 -121 125h35c0 -51 29 -90 86 -90c58 0 86 39 86 90h36z" />
    <glyph glyph-name="ring.sc" 
d="M201 652c0 54 40 89 98 89c59 0 99 -35 99 -89s-40 -90 -99 -90c-58 0 -98 36 -98 90zM238 652c0 -36 24 -58 61 -58c38 0 62 22 62 58s-24 58 -62 58c-37 0 -61 -22 -61 -58z" />
    <glyph glyph-name="hungarumlaut.sc" 
d="M299 726l-87 -147h-41l79 147h49zM429 726l-87 -147h-41l79 147h49z" />
    <glyph glyph-name="dotaccent.sc" 
d="M300 611c-22 0 -39 12 -39 39c0 28 17 40 39 40c20 0 39 -12 39 -40c0 -27 -19 -39 -39 -39z" />
    <glyph glyph-name="exclamdown.sc" horiz-adv-x="210" 
d="M105 512c22 0 37 -15 37 -35s-15 -35 -37 -35s-38 15 -38 35s16 35 38 35zM122 355l7 -355h-47l9 355h31z" />
    <glyph glyph-name="questiondown.sc" horiz-adv-x="384" 
d="M200 512c21 0 37 -15 37 -35s-16 -35 -37 -35c-22 0 -38 15 -38 35s16 35 38 35zM199 -8c-95 0 -151 56 -151 124c0 105 130 129 130 239h40c0 -119 -128 -151 -128 -237c0 -44 36 -88 106 -88c57 0 101 29 101 80l40 -2c0 -65 -46 -116 -138 -116z" />
    <glyph glyph-name="Euro.sc" horiz-adv-x="502" 
d="M99 319c15 118 79 196 199 196c54 0 100 -14 139 -34l-16 -36c-34 19 -72 32 -123 32c-97 0 -145 -66 -158 -158h223l-16 -33h-210c-1 -10 -1 -21 -1 -31c0 -13 0 -27 1 -39h181l-15 -33h-162c14 -88 58 -154 158 -154c41 0 90 12 133 40l12 -38
c-44 -24 -91 -39 -146 -39c-124 0 -183 73 -198 191h-46v33h42c-1 12 -1 26 -1 39c0 10 0 19 1 31h-42v33h45z" />
    <glyph glyph-name="cent.sc" horiz-adv-x="412" 
d="M220 28c44 0 77 14 99 49l30 -20c-25 -42 -70 -65 -130 -65c-12 0 -23 1 -33 3l-12 -46l-31 7l12 47c-64 24 -94 87 -94 167c0 103 49 180 158 180c9 0 18 -1 26 -2l15 57l32 -7l-15 -57c31 -10 55 -29 72 -56l-31 -20c-12 21 -29 34 -50 42l-73 -277c8 -1 16 -2 25 -2z
M100 170c0 -61 19 -111 65 -131l71 274c-5 1 -10 1 -16 1c-87 0 -120 -61 -120 -144z" />
    <glyph glyph-name="sterling.sc" horiz-adv-x="480" 
d="M105 241v94c0 99 46 180 163 180c72 0 127 -25 159 -68l-27 -25c-36 42 -79 55 -131 55c-94 0 -124 -65 -124 -145v-91h171v-33h-171v-173h257v-35h-296l-1 208h-57v33h57z" />
    <glyph glyph-name="florin.sc" horiz-adv-x="312" 
d="M161 -52c0 -64 -26 -118 -104 -118c-17 0 -31 3 -40 6v37c13 -4 24 -6 38 -6c53 0 67 33 67 84v355h-85v35h85v66c0 64 25 118 103 118c16 0 31 -3 40 -5v-37c-13 3 -25 5 -39 5c-52 0 -65 -32 -65 -83v-64h91v-35h-91v-358z" />
    <glyph glyph-name="yen.sc" horiz-adv-x="486" 
d="M217 217l-43 69h-91v33h71l-117 188h45l159 -260l162 260h46l-121 -188h71v-33h-91l-45 -69h136v-33h-140v-184h-39v184h-137v33h134z" />
    <glyph glyph-name="uni20A8.sc" horiz-adv-x="442" 
d="M386 507v-36h-101c29 -22 44 -50 47 -88h54v-36h-54c-6 -68 -57 -113 -139 -123l157 -224h-51l-154 221h-78v36h86c89 0 129 32 137 90h-223v36h223c-7 54 -39 88 -124 88h-99v36h319z" />
    <glyph glyph-name="perthousand.sc" horiz-adv-x="892" 
d="M158 511c77 0 109 -52 109 -132c0 -81 -32 -132 -109 -132c-76 0 -108 51 -108 132c0 80 32 132 108 132zM177 0h-39l331 507h40zM158 276c52 0 72 37 72 103c0 65 -20 102 -72 102c-51 0 -72 -37 -72 -102c0 -66 21 -103 72 -103zM489 260c76 0 109 -51 109 -132
c0 -80 -33 -132 -109 -132s-109 52 -109 132c0 81 33 132 109 132zM735 260c76 0 109 -51 109 -132c0 -80 -33 -132 -109 -132s-109 52 -109 132c0 81 33 132 109 132zM489 26c51 0 71 37 71 102c0 66 -20 103 -71 103s-72 -37 -72 -103c0 -65 21 -102 72 -102zM735 26
c51 0 72 37 72 102c0 66 -21 103 -72 103s-72 -37 -72 -103c0 -65 21 -102 72 -102z" />
    <glyph glyph-name="zero.tf" horiz-adv-x="560" 
d="M280 686c158 0 230 -134 230 -348s-72 -348 -230 -348s-230 134 -230 348s72 348 230 348zM280 29c131 0 189 116 189 309s-58 309 -189 309s-189 -116 -189 -309s58 -309 189 -309z" />
    <glyph glyph-name="one.tf" horiz-adv-x="560" 
d="M97 38h192v598l-188 -79l-13 35l201 84h39v-638h163v-38h-394v38z" />
    <glyph glyph-name="two.tf" horiz-adv-x="560" 
d="M270 686c122 0 192 -79 192 -187c0 -99 -54 -165 -129 -245l-201 -216h352v-38h-406v36l225 243c74 80 118 143 118 220c0 86 -54 148 -151 148c-94 0 -145 -62 -145 -149h-41c0 109 68 188 186 188z" />
    <glyph glyph-name="three.tf" horiz-adv-x="560" 
d="M345 351c66 -11 144 -67 144 -173c0 -110 -82 -189 -214 -189c-143 0 -210 80 -210 165h41c0 -70 61 -126 169 -126c112 0 173 63 173 150c0 94 -81 153 -186 153h-59v38h59c97 0 174 50 174 138c0 81 -59 140 -161 140c-106 0 -159 -61 -159 -129h-41
c0 83 63 168 200 168c126 0 202 -79 202 -179c0 -95 -66 -141 -132 -156z" />
    <glyph glyph-name="four.tf" horiz-adv-x="560" 
d="M525 161h-114v-161h-40v161h-340v36l340 479h40v-477h114v-38zM371 199v411l-292 -411h292z" />
    <glyph glyph-name="five.tf" horiz-adv-x="560" 
d="M486 217c0 -122 -69 -228 -211 -228c-149 0 -207 92 -207 187h41c0 -78 47 -148 166 -148c115 0 170 85 170 189s-58 168 -163 168c-57 0 -106 -21 -146 -49h-37l40 340h330v-38h-295l-33 -261c24 16 81 47 144 47c124 0 201 -77 201 -207z" />
    <glyph glyph-name="six.tf" horiz-adv-x="560" 
d="M444 518c0 78 -59 129 -154 129c-120 0 -185 -128 -185 -324c23 40 94 101 182 101c139 0 215 -88 215 -212c0 -119 -70 -223 -215 -223c-154 0 -223 131 -223 330c0 229 81 367 226 367c127 0 195 -76 195 -168h-41zM110 270c0 -121 51 -242 177 -242
c114 0 174 75 174 184c0 107 -61 173 -174 173c-78 0 -148 -56 -177 -115z" />
    <glyph glyph-name="seven.tf" horiz-adv-x="560" 
d="M434 638h-348v38h392v-36l-251 -640h-46z" />
    <glyph glyph-name="eight.tf" horiz-adv-x="560" 
d="M281 -11c-131 0 -222 67 -222 190c0 106 75 158 141 172c-66 15 -127 61 -127 154c0 109 83 181 207 181s207 -72 207 -181c0 -93 -61 -139 -127 -154c66 -14 141 -66 141 -172c0 -123 -92 -190 -220 -190zM280 647c-100 0 -166 -49 -166 -142c0 -84 71 -135 166 -135
c93 0 166 50 166 135c0 93 -66 142 -166 142zM279 28c109 0 181 54 181 155c0 93 -79 148 -181 148s-179 -56 -179 -148c0 -101 72 -155 179 -155z" />
    <glyph glyph-name="nine.tf" horiz-adv-x="560" 
d="M116 158c0 -78 59 -129 152 -129c123 0 187 129 187 325c-22 -37 -94 -102 -182 -102c-139 0 -215 88 -215 212c0 119 70 223 215 223c154 0 223 -131 223 -330c0 -229 -81 -367 -228 -367c-125 0 -193 76 -193 168h41zM450 406c0 121 -51 242 -177 242
c-114 0 -174 -75 -174 -184c0 -107 61 -173 174 -173c78 0 148 56 177 115z" />
    <glyph glyph-name="zero.tosf" horiz-adv-x="560" 
d="M280 586c158 0 230 -115 230 -298s-72 -298 -230 -298s-230 115 -230 298s72 298 230 298zM280 29c131 0 189 98 189 259s-58 259 -189 259s-189 -98 -189 -259s58 -259 189 -259z" />
    <glyph glyph-name="one.tosf" horiz-adv-x="560" 
d="M118 38h173v495l-179 -65l-13 35l192 72h39v-537h153v-38h-365v38z" />
    <glyph glyph-name="two.tosf" horiz-adv-x="560" 
d="M97 0v34l240 217c62 56 86 92 86 156c0 65 -40 140 -150 140c-105 0 -145 -67 -145 -156h-40c0 111 68 195 185 195c138 0 193 -93 193 -179s-52 -139 -107 -189l-201 -180h311v-38h-372z" />
    <glyph glyph-name="three.tosf" horiz-adv-x="560" 
d="M345 251c66 -11 144 -67 144 -173c0 -110 -82 -189 -214 -189c-143 0 -210 80 -210 165h41c0 -70 61 -126 169 -126c112 0 173 63 173 150c0 94 -81 153 -186 153h-59v38h59c97 0 174 50 174 138c0 81 -59 140 -161 140c-106 0 -159 -61 -159 -129h-41
c0 83 63 168 200 168c126 0 202 -79 202 -179c0 -95 -66 -141 -132 -156z" />
    <glyph glyph-name="four.tosf" horiz-adv-x="560" 
d="M523 61h-114v-161h-40v161h-340v36l340 479h40v-477h114v-38zM369 99v411l-292 -411h292z" />
    <glyph glyph-name="five.tosf" horiz-adv-x="560" 
d="M483 115c0 -122 -69 -228 -211 -228c-149 0 -207 92 -207 187h41c0 -78 47 -148 166 -148c115 0 170 85 170 189s-58 168 -163 168c-57 0 -106 -21 -146 -49h-37l40 340h330v-38h-295l-33 -261c24 16 81 47 144 47c124 0 201 -77 201 -207z" />
    <glyph glyph-name="six.tosf" horiz-adv-x="560" 
d="M444 518c0 78 -59 129 -154 129c-120 0 -185 -128 -185 -324c23 40 94 101 182 101c139 0 215 -88 215 -212c0 -119 -70 -223 -215 -223c-154 0 -223 131 -223 330c0 229 81 367 226 367c127 0 195 -76 195 -168h-41zM110 270c0 -121 51 -242 177 -242
c114 0 174 75 174 184c0 107 -61 173 -174 173c-78 0 -148 -56 -177 -115z" />
    <glyph glyph-name="seven.tosf" horiz-adv-x="560" 
d="M436 538h-348v38h392v-36l-251 -640h-46z" />
    <glyph glyph-name="eight.tosf" horiz-adv-x="560" 
d="M281 -11c-131 0 -222 67 -222 190c0 106 75 158 141 172c-66 15 -127 61 -127 154c0 109 83 181 207 181s207 -72 207 -181c0 -93 -61 -139 -127 -154c66 -14 141 -66 141 -172c0 -123 -92 -190 -220 -190zM280 647c-100 0 -166 -49 -166 -142c0 -84 71 -135 166 -135
c93 0 166 50 166 135c0 93 -66 142 -166 142zM279 28c109 0 181 54 181 155c0 93 -79 148 -181 148s-179 -56 -179 -148c0 -101 72 -155 179 -155z" />
    <glyph glyph-name="nine.tosf" horiz-adv-x="560" 
d="M115 58c0 -78 59 -129 152 -129c123 0 187 129 187 325c-22 -37 -94 -102 -182 -102c-139 0 -215 88 -215 212c0 119 70 223 215 223c154 0 223 -131 223 -330c0 -229 -81 -367 -228 -367c-125 0 -193 76 -193 168h41zM449 306c0 121 -51 242 -177 242
c-114 0 -174 -75 -174 -184c0 -107 61 -173 174 -173c78 0 148 56 177 115z" />
    <glyph glyph-name="Euro.tf" horiz-adv-x="560" 
d="M95 422c19 159 98 264 244 264c66 0 124 -19 171 -46l-18 -38c-43 27 -89 45 -153 45c-124 0 -186 -94 -202 -225h279l-19 -38h-264c-1 -14 -1 -30 -1 -44c0 -19 1 -38 2 -55h225l-18 -38h-204c17 -124 73 -219 202 -219c52 0 114 17 168 55l13 -40
c-55 -33 -113 -54 -181 -54c-154 0 -225 100 -243 258h-56v38h52c-1 17 -1 36 -1 55c0 14 0 30 1 44h-52v38h55z" />
    <glyph glyph-name="cent.tf" horiz-adv-x="560" 
d="M298 27c56 0 98 19 125 67l32 -21c-31 -53 -85 -83 -157 -83c-15 0 -30 1 -43 4l-15 -61l-36 9l15 62c-78 32 -115 115 -115 223c0 138 61 239 194 239c11 0 22 -1 32 -2l18 76l37 -9l-18 -76c38 -13 67 -37 88 -73l-32 -21c-17 29 -38 48 -65 58l-94 -389
c10 -2 22 -3 34 -3zM144 227c0 -88 24 -157 84 -186l93 387c-7 1 -15 1 -23 1c-112 0 -154 -86 -154 -202z" />
    <glyph glyph-name="sterling.tf" horiz-adv-x="560" 
d="M116 318v129c0 133 56 239 199 239c87 0 156 -32 196 -87l-30 -27c-46 59 -100 75 -166 75c-120 0 -159 -92 -159 -204v-125h216v-38h-216v-242h323v-38h-362l-1 280h-71v38h71z" />
    <glyph glyph-name="florin.tf" horiz-adv-x="560" 
d="M292 -68c0 -86 -30 -158 -126 -158c-19 0 -35 3 -46 6v40c16 -4 29 -7 47 -7c68 0 85 47 85 119v485h-106v38h106v87c0 86 29 158 125 158c19 0 35 -3 46 -6v-40c-16 4 -29 7 -47 7c-68 0 -84 -47 -84 -119v-87h115v-38h-115v-485z" />
    <glyph glyph-name="yen.tf" horiz-adv-x="560" 
d="M256 286l-57 99h-110v38h88l-148 253h46l204 -357l207 357h47l-152 -253h87v-38h-110l-59 -99h169v-38h-171v-248h-40v248h-168v38h167z" />
    <glyph glyph-name="uni20A8.tf" horiz-adv-x="560" 
d="M481 676v-38h-130c40 -28 61 -76 65 -129h65v-38h-65c-7 -94 -72 -162 -183 -170l201 -301h-50l-198 299h-94v39h107c116 0 167 53 174 133h-281v38h281c-8 76 -48 129 -156 129h-125v38h389z" />
    <glyph glyph-name="dollar.tf" horiz-adv-x="560" 
d="M495 177c0 -98 -65 -180 -199 -188v-92h-38v92c-140 6 -179 78 -202 132l39 16c20 -52 54 -103 163 -109v298l-29 8c-84 25 -151 71 -151 165c0 93 63 176 180 186v74h38v-73c94 -4 161 -49 187 -98l-37 -22c-29 50 -80 78 -150 81v-290l40 -11c81 -24 159 -63 159 -169z
M241 373l17 -5v278c-94 -9 -139 -71 -139 -147c0 -74 44 -103 122 -126zM296 29c107 6 158 65 158 148c0 77 -58 110 -129 130l-29 8v-286z" />
    <glyph glyph-name="zero.osf" horiz-adv-x="594" 
d="M297 586c158 0 230 -115 230 -298s-72 -298 -230 -298s-230 115 -230 298s72 298 230 298zM297 29c131 0 189 98 189 259s-58 259 -189 259s-189 -98 -189 -259s58 -259 189 -259z" />
    <glyph glyph-name="one.osf" horiz-adv-x="360" 
d="M224 0v535l-178 -75l-13 35l191 80h39v-575h-39z" />
    <glyph glyph-name="two.osf" horiz-adv-x="508" 
d="M71 0v34l240 217c62 56 86 92 86 156c0 65 -40 140 -150 140c-105 0 -145 -67 -145 -156h-40c0 111 68 195 185 195c138 0 193 -93 193 -179s-52 -139 -107 -189l-201 -180h311v-38h-372z" />
    <glyph glyph-name="three.osf" horiz-adv-x="548" 
d="M339 251c66 -11 144 -67 144 -173c0 -110 -82 -189 -214 -189c-143 0 -210 80 -210 165h41c0 -70 61 -126 169 -126c112 0 173 63 173 150c0 94 -81 153 -186 153h-59v38h59c97 0 174 50 174 138c0 81 -59 140 -161 140c-106 0 -159 -61 -159 -129h-41
c0 83 63 168 200 168c126 0 202 -79 202 -179c0 -95 -66 -141 -132 -156z" />
    <glyph glyph-name="four.osf" horiz-adv-x="585" 
d="M536 61h-114v-161h-40v161h-340v36l340 479h40v-477h114v-38zM382 99v411l-292 -411h292z" />
    <glyph glyph-name="five.osf" horiz-adv-x="535" 
d="M471 117c0 -122 -69 -228 -211 -228c-149 0 -207 92 -207 187h41c0 -78 47 -148 166 -148c115 0 170 85 170 189s-58 168 -163 168c-57 0 -106 -21 -146 -49h-37l40 340h330v-38h-295l-33 -261c24 16 81 47 144 47c124 0 201 -77 201 -207z" />
    <glyph glyph-name="six.osf" horiz-adv-x="564" 
d="M446 518c0 78 -59 129 -154 129c-120 0 -185 -128 -185 -324c23 40 94 101 182 101c139 0 215 -88 215 -212c0 -119 -70 -223 -215 -223c-154 0 -223 131 -223 330c0 229 81 367 226 367c127 0 195 -76 195 -168h-41zM112 270c0 -121 51 -242 177 -242
c114 0 174 75 174 184c0 107 -61 173 -174 173c-78 0 -148 -56 -177 -115z" />
    <glyph glyph-name="seven.osf" horiz-adv-x="481" 
d="M396 538h-348v38h392v-36l-251 -640h-46z" />
    <glyph glyph-name="eight.osf" horiz-adv-x="572" 
d="M287 -11c-131 0 -222 67 -222 190c0 106 75 158 141 172c-66 15 -127 61 -127 154c0 109 83 181 207 181s207 -72 207 -181c0 -93 -61 -139 -127 -154c66 -14 141 -66 141 -172c0 -123 -92 -190 -220 -190zM286 647c-100 0 -166 -49 -166 -142c0 -84 71 -135 166 -135
c93 0 166 50 166 135c0 93 -66 142 -166 142zM285 28c109 0 181 54 181 155c0 93 -79 148 -181 148s-179 -56 -179 -148c0 -101 72 -155 179 -155z" />
    <glyph glyph-name="nine.osf" horiz-adv-x="563" 
d="M117 58c0 -78 59 -129 152 -129c123 0 187 129 187 325c-22 -37 -94 -102 -182 -102c-139 0 -215 88 -215 212c0 119 70 223 215 223c154 0 223 -131 223 -330c0 -229 -81 -367 -228 -367c-125 0 -193 76 -193 168h41zM451 306c0 121 -51 242 -177 242
c-114 0 -174 -75 -174 -184c0 -107 61 -173 174 -173c78 0 148 56 177 115z" />
    <glyph glyph-name="uni2070" unicode="&#x2070;" horiz-adv-x="338" 
d="M167 791c91 0 131 -67 131 -173c0 -105 -40 -173 -131 -173c-90 0 -130 68 -130 173c0 106 40 173 130 173zM167 477c66 0 93 52 93 141c0 90 -27 142 -93 142s-93 -52 -93 -142c0 -89 27 -141 93 -141z" />
    <glyph glyph-name="uni2074" unicode="&#x2074;" horiz-adv-x="320" 
d="M295 524h-57v-74h-36v74h-181v30l181 232h36v-230h57v-32zM202 556v178l-141 -178h141z" />
    <glyph glyph-name="uni2075" unicode="&#x2075;" horiz-adv-x="301" 
d="M265 559c0 -63 -39 -115 -119 -115c-84 0 -117 45 -117 95h37c0 -34 23 -62 80 -62c56 0 83 36 83 82c0 43 -29 72 -80 72c-28 0 -53 -9 -72 -21l-31 2l23 174h186v-32h-156l-16 -110c13 7 41 20 71 20c65 0 111 -37 111 -105z" />
    <glyph glyph-name="uni2076" unicode="&#x2076;" horiz-adv-x="320" 
d="M168 759c-61 0 -94 -57 -94 -139c13 17 49 42 94 42c75 0 116 -43 116 -107c0 -59 -39 -112 -121 -112c-88 0 -126 67 -126 163c0 112 44 184 131 184c73 0 107 -39 107 -87h-36c0 34 -26 56 -71 56zM76 582c0 -55 25 -106 87 -106c55 0 84 33 84 79s-29 76 -84 76
c-40 0 -73 -25 -87 -49z" />
    <glyph glyph-name="uni2077" unicode="&#x2077;" horiz-adv-x="262" 
d="M202 754h-182v32h221v-28l-136 -308h-40z" />
    <glyph glyph-name="uni2078" unicode="&#x2078;" horiz-adv-x="326" 
d="M163 444c-75 0 -126 35 -126 96c0 50 31 74 68 84c-36 11 -61 32 -61 75c0 57 47 92 118 92c72 0 117 -35 117 -92c0 -43 -25 -64 -61 -75c37 -10 69 -34 69 -84c0 -61 -51 -96 -124 -96zM162 760c-48 0 -80 -22 -80 -62c0 -37 34 -59 80 -59c45 0 80 22 80 59
c0 40 -31 62 -80 62zM162 608c-51 0 -88 -25 -88 -66c0 -43 36 -65 89 -65c51 0 86 22 86 65c0 41 -36 66 -87 66z" />
    <glyph glyph-name="uni2079" unicode="&#x2079;" horiz-adv-x="321" 
d="M79 531c0 -34 30 -55 71 -55c64 0 94 56 94 139c-12 -16 -49 -43 -94 -43c-74 0 -116 44 -116 106c0 61 40 112 122 112c88 0 125 -67 125 -163c0 -111 -42 -184 -131 -184c-69 0 -108 40 -108 88h37zM242 653c0 53 -25 106 -86 106c-57 0 -85 -33 -85 -80s29 -75 85 -75
c38 0 72 23 86 49z" />
    <glyph glyph-name="uni2080" unicode="&#x2080;" horiz-adv-x="338" 
d="M167 241c91 0 131 -67 131 -173c0 -105 -40 -173 -131 -173c-90 0 -130 68 -130 173c0 106 40 173 130 173zM167 -73c66 0 93 52 93 141c0 90 -27 142 -93 142s-93 -52 -93 -142c0 -89 27 -141 93 -141z" />
    <glyph glyph-name="uni2081" unicode="&#x2081;" horiz-adv-x="216" 
d="M124 -100v301l-105 -39l-10 30l118 44h33v-336h-36z" />
    <glyph glyph-name="uni2082" unicode="&#x2082;" horiz-adv-x="296" 
d="M143 241c68 0 110 -40 110 -96c0 -49 -32 -84 -73 -123l-96 -90h178v-32h-227v28l120 116c38 36 60 66 60 101c0 37 -26 65 -72 65c-47 0 -71 -28 -71 -68h-36c0 58 37 99 107 99z" />
    <glyph glyph-name="uni2083" unicode="&#x2083;" horiz-adv-x="310" 
d="M196 73c36 -5 75 -34 75 -84c0 -55 -46 -95 -120 -95c-81 0 -118 41 -118 87h36c0 -31 29 -54 82 -54s84 25 84 63c0 42 -38 67 -93 67h-32v32h32c50 0 87 21 87 60c0 35 -29 61 -78 61c-51 0 -76 -26 -76 -56h-37c0 45 35 87 113 87c71 0 114 -39 114 -91
c0 -43 -33 -69 -69 -77z" />
    <glyph glyph-name="uni2084" unicode="&#x2084;" horiz-adv-x="321" 
d="M295 -26h-57v-74h-36v74h-181v30l181 232h36v-230h57v-32zM202 6v178l-141 -178h141z" />
    <glyph glyph-name="uni2085" unicode="&#x2085;" horiz-adv-x="300" 
d="M265 9c0 -63 -39 -115 -119 -115c-84 0 -117 45 -117 95h37c0 -34 23 -62 80 -62c56 0 83 36 83 82c0 43 -29 72 -80 72c-28 0 -53 -9 -72 -21l-31 2l23 174h186v-32h-156l-16 -110c13 7 41 20 71 20c65 0 111 -37 111 -105z" />
    <glyph glyph-name="uni2086" unicode="&#x2086;" horiz-adv-x="319" 
d="M168 210c-61 0 -94 -57 -94 -139c13 17 49 42 94 42c75 0 116 -43 116 -107c0 -59 -39 -112 -121 -112c-88 0 -126 67 -126 163c0 112 44 184 131 184c73 0 107 -39 107 -87h-36c0 34 -26 56 -71 56zM76 33c0 -55 25 -106 87 -106c55 0 84 33 84 79s-29 76 -84 76
c-40 0 -73 -25 -87 -49z" />
    <glyph glyph-name="uni2087" unicode="&#x2087;" horiz-adv-x="263" 
d="M202 204h-182v32h221v-28l-136 -308h-40z" />
    <glyph glyph-name="uni2088" unicode="&#x2088;" horiz-adv-x="326" 
d="M163 -106c-75 0 -126 35 -126 96c0 50 31 74 68 84c-36 11 -61 32 -61 75c0 57 47 92 118 92c72 0 117 -35 117 -92c0 -43 -25 -64 -61 -75c37 -10 69 -34 69 -84c0 -61 -51 -96 -124 -96zM162 210c-48 0 -80 -22 -80 -62c0 -37 34 -59 80 -59c45 0 80 22 80 59
c0 40 -31 62 -80 62zM162 58c-51 0 -88 -25 -88 -66c0 -43 36 -65 89 -65c51 0 86 22 86 65c0 41 -36 66 -87 66z" />
    <glyph glyph-name="uni2089" unicode="&#x2089;" horiz-adv-x="320" 
d="M79 -18c0 -34 30 -55 71 -55c64 0 94 56 94 139c-12 -16 -49 -43 -94 -43c-74 0 -116 44 -116 106c0 61 40 112 122 112c88 0 125 -67 125 -163c0 -111 -42 -184 -131 -184c-69 0 -108 40 -108 88h37zM242 104c0 53 -25 106 -86 106c-57 0 -85 -33 -85 -80s29 -75 85 -75
c38 0 72 23 86 49z" />
    <glyph glyph-name="zero.denom" horiz-adv-x="331" 
d="M165 341c91 0 131 -67 131 -173c0 -105 -40 -173 -131 -173c-90 0 -130 68 -130 173c0 106 40 173 130 173zM165 27c66 0 93 52 93 141c0 90 -27 142 -93 142s-93 -52 -93 -142c0 -89 27 -141 93 -141z" />
    <glyph glyph-name="one.denom" horiz-adv-x="208" 
d="M121 0v301l-105 -39l-10 30l118 44h33v-336h-36z" />
    <glyph glyph-name="two.denom" horiz-adv-x="289" 
d="M140 341c68 0 110 -40 110 -96c0 -49 -32 -84 -73 -123l-96 -90h178v-32h-227v28l120 116c38 36 60 66 60 101c0 37 -26 65 -72 65c-47 0 -71 -28 -71 -68h-36c0 58 37 99 107 99z" />
    <glyph glyph-name="three.denom" horiz-adv-x="302" 
d="M193 173c36 -5 75 -34 75 -84c0 -55 -46 -95 -120 -95c-81 0 -118 41 -118 87h36c0 -31 29 -54 82 -54s84 25 84 63c0 42 -38 67 -93 67h-32v32h32c50 0 87 21 87 60c0 35 -29 61 -78 61c-51 0 -76 -26 -76 -56h-37c0 45 35 87 113 87c71 0 114 -39 114 -91
c0 -43 -33 -69 -69 -77z" />
    <glyph glyph-name="four.denom" horiz-adv-x="312" 
d="M292 74h-57v-74h-36v74h-181v30l181 232h36v-230h57v-32zM199 106v178l-141 -178h141z" />
    <glyph glyph-name="five.denom" horiz-adv-x="292" 
d="M262 109c0 -63 -39 -115 -119 -115c-84 0 -117 45 -117 95h37c0 -34 23 -62 80 -62c56 0 83 36 83 82c0 43 -29 72 -80 72c-28 0 -53 -9 -72 -21l-31 2l23 174h186v-32h-156l-16 -110c13 7 41 20 71 20c65 0 111 -37 111 -105z" />
    <glyph glyph-name="six.denom" horiz-adv-x="312" 
d="M165 310c-61 0 -94 -57 -94 -139c13 17 49 42 94 42c75 0 116 -43 116 -107c0 -59 -39 -112 -121 -112c-88 0 -126 67 -126 163c0 112 44 184 131 184c73 0 107 -39 107 -87h-36c0 34 -26 56 -71 56zM73 133c0 -55 25 -106 87 -106c55 0 84 33 84 79s-29 76 -84 76
c-40 0 -73 -25 -87 -49z" />
    <glyph glyph-name="seven.denom" horiz-adv-x="254" 
d="M199 304h-182v32h221v-28l-136 -308h-40z" />
    <glyph glyph-name="eight.denom" horiz-adv-x="318" 
d="M160 -6c-75 0 -126 35 -126 96c0 50 31 74 68 84c-36 11 -61 32 -61 75c0 57 47 92 118 92c72 0 117 -35 117 -92c0 -43 -25 -64 -61 -75c37 -10 69 -34 69 -84c0 -61 -51 -96 -124 -96zM159 310c-48 0 -80 -22 -80 -62c0 -37 34 -59 80 -59c45 0 80 22 80 59
c0 40 -31 62 -80 62zM159 158c-51 0 -88 -25 -88 -66c0 -43 36 -65 89 -65c51 0 86 22 86 65c0 41 -36 66 -87 66z" />
    <glyph glyph-name="nine.denom" horiz-adv-x="312" 
d="M76 82c0 -34 30 -55 71 -55c64 0 94 56 94 139c-12 -16 -49 -43 -94 -43c-74 0 -116 44 -116 106c0 61 40 112 122 112c88 0 125 -67 125 -163c0 -111 -42 -184 -131 -184c-69 0 -108 40 -108 88h37zM239 204c0 53 -25 106 -86 106c-57 0 -85 -33 -85 -80s29 -75 85 -75
c38 0 72 23 86 49z" />
    <glyph glyph-name="zero.num" horiz-adv-x="338" 
d="M167 679c91 0 131 -67 131 -173c0 -105 -40 -173 -131 -173c-90 0 -130 68 -130 173c0 106 40 173 130 173zM167 365c66 0 93 52 93 141c0 90 -27 142 -93 142s-93 -52 -93 -142c0 -89 27 -141 93 -141z" />
    <glyph glyph-name="one.num" horiz-adv-x="216" 
d="M124 338v301l-105 -39l-10 30l118 44h33v-336h-36z" />
    <glyph glyph-name="two.num" horiz-adv-x="297" 
d="M143 679c68 0 110 -40 110 -96c0 -49 -32 -84 -73 -123l-96 -90h178v-32h-227v28l120 116c38 36 60 66 60 101c0 37 -26 65 -72 65c-47 0 -71 -28 -71 -68h-36c0 58 37 99 107 99z" />
    <glyph glyph-name="three.num" horiz-adv-x="311" 
d="M196 511c36 -5 75 -34 75 -84c0 -55 -46 -95 -120 -95c-81 0 -118 41 -118 87h36c0 -31 29 -54 82 -54s84 25 84 63c0 42 -38 67 -93 67h-32v32h32c50 0 87 21 87 60c0 35 -29 61 -78 61c-51 0 -76 -26 -76 -56h-37c0 45 35 87 113 87c71 0 114 -39 114 -91
c0 -43 -33 -69 -69 -77z" />
    <glyph glyph-name="four.num" horiz-adv-x="320" 
d="M295 412h-57v-74h-36v74h-181v30l181 232h36v-230h57v-32zM202 444v178l-141 -178h141z" />
    <glyph glyph-name="five.num" horiz-adv-x="302" 
d="M265 447c0 -63 -39 -115 -119 -115c-84 0 -117 45 -117 95h37c0 -34 23 -62 80 -62c56 0 83 36 83 82c0 43 -29 72 -80 72c-28 0 -53 -9 -72 -21l-31 2l23 174h186v-32h-156l-16 -110c13 7 41 20 71 20c65 0 111 -37 111 -105z" />
    <glyph glyph-name="six.num" horiz-adv-x="321" 
d="M168 648c-61 0 -94 -57 -94 -139c13 17 49 42 94 42c75 0 116 -43 116 -107c0 -59 -39 -112 -121 -112c-88 0 -126 67 -126 163c0 112 44 184 131 184c73 0 107 -39 107 -87h-36c0 34 -26 56 -71 56zM76 471c0 -55 25 -106 87 -106c55 0 84 33 84 79s-29 76 -84 76
c-40 0 -73 -25 -87 -49z" />
    <glyph glyph-name="seven.num" horiz-adv-x="263" 
d="M202 642h-182v32h221v-28l-136 -308h-40z" />
    <glyph glyph-name="eight.num" horiz-adv-x="327" 
d="M163 332c-75 0 -126 35 -126 96c0 50 31 74 68 84c-36 11 -61 32 -61 75c0 57 47 92 118 92c72 0 117 -35 117 -92c0 -43 -25 -64 -61 -75c37 -10 69 -34 69 -84c0 -61 -51 -96 -124 -96zM162 648c-48 0 -80 -22 -80 -62c0 -37 34 -59 80 -59c45 0 80 22 80 59
c0 40 -31 62 -80 62zM162 496c-51 0 -88 -25 -88 -66c0 -43 36 -65 89 -65c51 0 86 22 86 65c0 41 -36 66 -87 66z" />
    <glyph glyph-name="nine.num" horiz-adv-x="321" 
d="M79 420c0 -34 30 -55 71 -55c64 0 94 56 94 139c-12 -16 -49 -43 -94 -43c-74 0 -116 44 -116 106c0 61 40 112 122 112c88 0 125 -67 125 -163c0 -111 -42 -184 -131 -184c-69 0 -108 40 -108 88h37zM242 542c0 53 -25 106 -86 106c-57 0 -85 -33 -85 -80s29 -75 85 -75
c38 0 72 23 86 49z" />
    <glyph glyph-name="arrowleft" unicode="&#x2190;" horiz-adv-x="750" 
d="M310 523l28 -28l-204 -205h538v-37h-538l203 -204l-27 -28l-249 250z" />
    <glyph glyph-name="arrowup" unicode="&#x2191;" horiz-adv-x="750" 
d="M626 337l-28 -28l-205 204v-538h-37v538l-204 -203l-28 27l250 249z" />
    <glyph glyph-name="arrowright" unicode="&#x2192;" horiz-adv-x="750" 
d="M440 20l-28 28l204 205h-538v37h538l-203 204l27 28l249 -250z" />
    <glyph glyph-name="arrowdown" unicode="&#x2193;" horiz-adv-x="750" 
d="M124 204l28 28l205 -204v538h37v-538l204 203l28 -27l-250 -249z" />
    <glyph glyph-name="uni2196" unicode="&#x2196;" horiz-adv-x="750" 
d="M522 495v-39h-289l381 -381l-27 -27l-381 381v-288h-39v354h355z" />
    <glyph glyph-name="uni2197" unicode="&#x2197;" horiz-adv-x="750" 
d="M583 140h-39v289l-381 -381l-27 27l381 381h-288v39h354v-355z" />
    <glyph glyph-name="uni2198" unicode="&#x2198;" horiz-adv-x="750" 
d="M222 48v39h289l-381 381l27 27l381 -381v288h39v-354h-355z" />
    <glyph glyph-name="uni2199" unicode="&#x2199;" horiz-adv-x="750" 
d="M173 403h39v-289l381 381l27 -27l-381 -381h288v-39h-354v355z" />
    <glyph glyph-name="parenleft.case" horiz-adv-x="267" 
d="M194 -122c-81 137 -130 260 -130 462c0 222 61 346 130 463l34 -10c-67 -123 -122 -244 -122 -453c0 -182 44 -308 120 -452z" />
    <glyph glyph-name="parenright.case" horiz-adv-x="268" 
d="M42 -112c76 144 120 270 120 452c0 209 -55 330 -122 453l34 10c69 -117 130 -241 130 -463c0 -202 -49 -325 -130 -462z" />
    <glyph glyph-name="hyphen.case" horiz-adv-x="388" 
d="M310 347v-36h-232v36h232z" />
    <glyph glyph-name="bracketleft.case" horiz-adv-x="290" 
d="M243 790v-36h-122v-834h122v-36h-160v906h160z" />
    <glyph glyph-name="bracketright.case" horiz-adv-x="290" 
d="M207 790v-906h-160v36h122v834h-122v36h160z" />
    <glyph glyph-name="braceleft.case" horiz-adv-x="291" 
d="M159 434c0 -79 -37 -94 -58 -97c21 -3 58 -18 58 -100v-219c0 -77 23 -98 83 -98v-36c-83 0 -121 26 -121 133v220c0 63 -18 82 -85 82v36c67 0 85 19 85 79v223c0 101 38 133 121 133v-36c-59 0 -83 -21 -83 -97v-223z" />
    <glyph glyph-name="bar.case" horiz-adv-x="203" 
d="M83 -116v906h37v-906h-37z" />
    <glyph glyph-name="braceright.case" horiz-adv-x="291" 
d="M49 -116v36c60 0 83 21 83 98v219c0 82 37 97 58 100c-21 3 -58 18 -58 97v223c0 76 -24 97 -83 97v36c83 0 121 -32 121 -133v-223c0 -60 18 -79 85 -79v-36c-67 0 -85 -19 -85 -82v-220c0 -107 -38 -133 -121 -133z" />
    <glyph glyph-name="guilsinglleft.case" horiz-adv-x="317" 
d="M215 530l28 -22l-137 -178l137 -178l-28 -22l-160 200z" />
    <glyph glyph-name="guilsinglright.case" horiz-adv-x="317" 
d="M102 130l-28 22l137 178l-137 178l28 22l160 -200z" />
    <glyph glyph-name="guillemotleft.case" horiz-adv-x="480" 
d="M215 530l28 -22l-137 -178l137 -178l-28 -22l-160 200zM378 530l28 -22l-137 -178l137 -178l-28 -22l-160 200z" />
    <glyph glyph-name="guillemotright.case" horiz-adv-x="480" 
d="M102 130l-28 22l137 178l-137 178l28 22l160 -200zM265 130l-28 22l137 178l-137 178l28 22l160 -200z" />
    <glyph glyph-name="endash.case" horiz-adv-x="588" 
d="M510 347v-36h-432v36h432z" />
    <glyph glyph-name="emdash.case" horiz-adv-x="728" 
d="M650 347v-36h-572v36h572z" />
    <glyph glyph-name="bullet.case" horiz-adv-x="360" 
d="M180 243c-50 0 -88 36 -88 86s38 86 88 86c52 0 88 -36 88 -86s-36 -86 -88 -86z" />
    <glyph glyph-name="periodcentered.case" horiz-adv-x="241" 
d="M120 327c-24 0 -42 18 -42 42s18 42 42 42c25 0 43 -18 43 -42s-18 -42 -43 -42z" />
    <glyph glyph-name="circle" unicode="&#x25cb;" horiz-adv-x="802" 
d="M63 339c0 214 147 347 339 347c191 0 337 -133 337 -347s-146 -350 -337 -350c-192 0 -339 136 -339 350zM103 339c0 -199 124 -311 299 -311c174 0 297 112 297 311s-123 308 -297 308c-175 0 -299 -109 -299 -308z" />
    <glyph glyph-name="brokenbar.sc" horiz-adv-x="206" 
d="M86 290v292h34v-292h-34zM120 188v-290h-34v290h34z" />
    <glyph glyph-name="uni1EB8" unicode="&#x1eb8;" horiz-adv-x="532" 
d="M476 38v-38h-380v676h376v-38h-336v-268h306v-38h-306v-294h340zM266 -149c-22 0 -39 12 -39 39c0 28 17 40 39 40c20 0 39 -12 39 -40c0 -27 -19 -39 -39 -39z" />
    <glyph glyph-name="Gcaron" unicode="&#x1e6;" horiz-adv-x="632" 
d="M321 752l-103 147h41l83 -113l82 113h41l-103 -147h-41zM343 354h230c2 -7 3 -25 3 -33c0 -185 -56 -331 -246 -331c-187 0 -265 128 -265 347c0 203 66 349 276 349c106 0 165 -43 203 -105l-32 -24c-40 63 -87 90 -171 90c-190 0 -235 -139 -235 -310
c0 -182 56 -310 223 -310c161 0 206 127 206 287h-192v40z" />
    <glyph glyph-name="uni021E" unicode="&#x21e;" horiz-adv-x="667" 
d="M313 752l-103 147h41l83 -113l82 113h41l-103 -147h-41zM531 676h40v-676h-40v340h-395v-340h-40v676h40v-298h395v298z" />
    <glyph glyph-name="uni1E24" unicode="&#x1e24;" horiz-adv-x="667" 
d="M531 676h40v-676h-40v340h-395v-340h-40v676h40v-298h395v298zM334 -149c-22 0 -39 12 -39 39c0 28 17 40 39 40c20 0 39 -12 39 -40c0 -27 -19 -39 -39 -39z" />
    <glyph glyph-name="uni1ECA" unicode="&#x1eca;" horiz-adv-x="232" 
d="M96 676h40v-676h-40v676zM116 -149c-22 0 -39 12 -39 39c0 28 17 40 39 40c20 0 39 -12 39 -40c0 -27 -19 -39 -39 -39z" />
    <glyph glyph-name="uni1E36" unicode="&#x1e36;" horiz-adv-x="472" 
d="M446 38v-38h-350v676h40v-638h310zM259 -149c-22 0 -39 12 -39 39c0 28 17 40 39 40c20 0 39 -12 39 -40c0 -27 -19 -39 -39 -39z" />
    <glyph glyph-name="uni1E44" unicode="&#x1e44;" horiz-adv-x="680" 
d="M340 784c-22 0 -39 12 -39 39c0 28 17 40 39 40c20 0 39 -12 39 -40c0 -27 -19 -39 -39 -39zM545 676h39v-676h-46l-402 613v-613h-40v676h45l403 -613z" />
    <glyph glyph-name="uni1ECC" unicode="&#x1ecc;" horiz-adv-x="656" 
d="M591 337c0 -205 -75 -347 -265 -347c-188 0 -261 142 -261 347s74 349 262 349c189 0 264 -145 264 -349zM106 337c0 -184 55 -308 220 -308c172 0 224 124 224 308c0 182 -52 310 -223 310c-166 0 -221 -128 -221 -310zM328 -149c-22 0 -39 12 -39 39c0 28 17 40 39 40
c20 0 39 -12 39 -40c0 -27 -19 -39 -39 -39z" />
    <glyph glyph-name="uni1E62" unicode="&#x1e62;" horiz-adv-x="546" 
d="M440 566c-31 53 -86 81 -163 81c-111 0 -164 -66 -164 -148c0 -74 44 -103 122 -126l95 -27c81 -24 159 -62 159 -168c0 -103 -71 -188 -218 -188c-155 0 -197 76 -221 132l39 16c21 -55 58 -109 182 -109c120 0 177 61 177 149c0 77 -58 109 -129 129l-96 27
c-84 25 -151 71 -151 165c0 99 72 187 205 187c101 0 173 -47 200 -98zM273 -149c-22 0 -39 12 -39 39c0 28 17 40 39 40c20 0 39 -12 39 -40c0 -27 -19 -39 -39 -39z" />
    <glyph glyph-name="uni1E9E" unicode="&#x1e9e;" horiz-adv-x="633" 
d="M451 340c78 -33 125 -89 125 -182c0 -97 -65 -166 -188 -166c-136 0 -177 62 -201 108l39 18c21 -45 58 -89 162 -89c97 0 147 49 147 128c0 73 -29 116 -99 146l-149 64v35l208 188c-41 37 -96 57 -167 57c-122 0 -197 -54 -197 -212v-435h-40v430c0 190 99 256 237 256
c81 0 149 -19 204 -78v-35l-200 -182z" />
    <glyph glyph-name="uni0162" unicode="&#x162;" horiz-adv-x="530" 
d="M285 638v-638l-23 -61c47 0 88 -21 88 -81c0 -31 -27 -74 -91 -74c-28 0 -55 11 -75 22v40c21 -15 47 -26 75 -26c34 0 50 19 50 38c0 37 -28 45 -66 45h-26l-2 4l30 96v635h-208v38h456v-38h-208z" />
    <glyph glyph-name="uni01D3" unicode="&#x1d3;" horiz-adv-x="657" 
d="M308 752l-103 147h41l83 -113l82 113h41l-103 -147h-41zM328 -10c-138 0 -237 66 -237 256v430h40v-435c0 -158 75 -212 197 -212c120 0 198 53 198 212v435h40v-430c0 -191 -100 -256 -238 -256z" />
    <glyph glyph-name="uni1EE4" unicode="&#x1ee4;" horiz-adv-x="657" 
d="M328 -10c-138 0 -237 66 -237 256v430h40v-435c0 -158 75 -212 197 -212c120 0 198 53 198 212v435h40v-430c0 -191 -100 -256 -238 -256zM329 -149c-22 0 -39 12 -39 39c0 28 17 40 39 40c20 0 39 -12 39 -40c0 -27 -19 -39 -39 -39z" />
    <glyph glyph-name="uni1EB9" unicode="&#x1eb9;" horiz-adv-x="470" 
d="M248 27c42 0 102 16 137 55l23 -29c-24 -32 -92 -63 -160 -63c-141 0 -193 99 -193 239c0 135 56 237 190 237c116 0 172 -89 172 -186c0 -18 -2 -44 -5 -63h-318c1 -112 42 -190 154 -190zM375 253c1 6 2 18 2 25c0 84 -42 151 -132 151c-106 0 -144 -76 -150 -176h280z
M235 -149c-22 0 -39 12 -39 39c0 28 17 40 39 40c20 0 39 -12 39 -40c0 -27 -19 -39 -39 -39z" />
    <glyph glyph-name="gcaron" unicode="&#x1e7;" horiz-adv-x="507" 
d="M239 549l-103 147h41l83 -113l82 113h41l-103 -147h-41zM426 456v-498c0 -85 -66 -159 -175 -159c-112 0 -169 66 -169 125h40c0 -42 49 -88 129 -88c87 0 136 56 136 124v96c-25 -36 -72 -66 -137 -66c-142 0 -195 103 -195 238c0 139 57 238 195 238
c67 0 109 -26 137 -62v52h39zM95 228c0 -111 35 -201 155 -201c65 0 111 35 137 80v241c-19 35 -61 81 -137 81c-119 0 -155 -83 -155 -201z" />
    <glyph glyph-name="uni021F" unicode="&#x21f;" horiz-adv-x="520" 
d="M249 737l-103 147h41l83 -113l82 113h41l-103 -147h-41zM82 690h38v-291c31 41 98 67 159 67c123 0 164 -59 164 -169v-297h-38v297c0 87 -29 132 -126 132c-73 0 -127 -29 -159 -72v-357h-38v690z" />
    <glyph glyph-name="uni1E25" unicode="&#x1e25;" horiz-adv-x="520" 
d="M82 690h38v-291c31 41 98 67 159 67c123 0 164 -59 164 -169v-297h-38v297c0 87 -29 132 -126 132c-73 0 -127 -29 -159 -72v-357h-38v690zM260 -149c-22 0 -39 12 -39 39c0 28 17 40 39 40c20 0 39 -12 39 -40c0 -27 -19 -39 -39 -39z" />
    <glyph glyph-name="uni1ECB" unicode="&#x1ecb;" horiz-adv-x="202" 
d="M101 591c-22 0 -39 12 -39 39c0 28 17 40 39 40c20 0 39 -12 39 -40c0 -27 -19 -39 -39 -39zM82 456h38v-456h-38v456zM101 -149c-22 0 -39 12 -39 39c0 28 17 40 39 40c20 0 39 -12 39 -40c0 -27 -19 -39 -39 -39z" />
    <glyph glyph-name="uni1E37" unicode="&#x1e37;" horiz-adv-x="214" 
d="M116 690v-580c0 -49 11 -74 52 -74h29v-36h-31c-66 0 -88 36 -88 110v580h38zM107 -149c-22 0 -39 12 -39 39c0 28 17 40 39 40c20 0 39 -12 39 -40c0 -27 -19 -39 -39 -39z" />
    <glyph glyph-name="uni1E45" unicode="&#x1e45;" horiz-adv-x="519" 
d="M260 581c-22 0 -39 12 -39 39c0 28 17 40 39 40c20 0 39 -12 39 -40c0 -27 -19 -39 -39 -39zM81 456h38v-57c31 41 98 67 159 67c123 0 164 -59 164 -169v-297h-38v297c0 87 -29 132 -126 132c-73 0 -127 -29 -159 -72v-357h-38v456z" />
    <glyph glyph-name="uni1ECD" unicode="&#x1ecd;" horiz-adv-x="502" 
d="M251 466c142 0 196 -103 196 -237c0 -138 -54 -239 -198 -239c-136 0 -194 101 -194 239c0 134 58 237 196 237zM249 27c116 0 158 84 158 202c0 117 -42 200 -156 200c-112 0 -156 -83 -156 -200c0 -118 44 -202 154 -202zM251 -149c-22 0 -39 12 -39 39
c0 28 17 40 39 40c20 0 39 -12 39 -40c0 -27 -19 -39 -39 -39z" />
    <glyph glyph-name="uni1E63" unicode="&#x1e63;" horiz-adv-x="424" 
d="M336 378c-22 27 -60 51 -121 51c-83 0 -114 -44 -114 -94c0 -36 16 -64 71 -77l79 -19c78 -19 124 -54 124 -120c0 -79 -66 -129 -168 -129c-94 0 -137 42 -162 76l29 26c24 -31 47 -65 133 -65c75 0 128 30 128 92c0 47 -37 67 -91 81l-81 20c-69 17 -102 60 -102 115
c0 64 45 131 154 131c75 0 126 -32 150 -62zM212 -149c-22 0 -39 12 -39 39c0 28 17 40 39 40c20 0 39 -12 39 -40c0 -27 -19 -39 -39 -39z" />
    <glyph glyph-name="uni0163" unicode="&#x163;" horiz-adv-x="326" 
d="M201 -61c47 0 88 -21 88 -81c0 -31 -27 -74 -91 -74c-28 0 -55 11 -75 22v40c21 -15 47 -26 75 -26c34 0 50 19 50 38c0 37 -28 45 -66 45h-26l-2 4l27 88c-46 14 -68 55 -68 118v307h-90v26l90 10v118l38 10v-128h142v-36h-142v-306c0 -50 18 -87 72 -87
c25 0 51 9 72 21l13 -34c-22 -13 -50 -24 -88 -24z" />
    <glyph glyph-name="uni01D4" unicode="&#x1d4;" horiz-adv-x="519" 
d="M239 549l-103 147h41l83 -113l82 113h41l-103 -147h-41zM438 0h-38v57c-31 -41 -98 -67 -159 -67c-123 0 -164 59 -164 169v297h38v-297c0 -87 29 -132 126 -132c73 0 127 29 159 72v357h38v-456z" />
    <glyph glyph-name="uni1EE5" unicode="&#x1ee5;" horiz-adv-x="519" 
d="M438 0h-38v57c-31 -41 -98 -67 -159 -67c-123 0 -164 59 -164 169v297h38v-297c0 -87 29 -132 126 -132c73 0 127 29 159 72v357h38v-456zM260 -149c-22 0 -39 12 -39 39c0 28 17 40 39 40c20 0 39 -12 39 -40c0 -27 -19 -39 -39 -39z" />
    <glyph glyph-name="a.ss01" horiz-adv-x="513" 
d="M393 456h38v-456h-38v49c-25 -32 -75 -59 -142 -59c-139 0 -196 97 -196 239c0 141 57 237 196 237c68 0 115 -25 142 -60v50zM95 229c0 -115 37 -202 156 -202c73 0 121 36 142 79v244c-23 42 -65 79 -142 79c-121 0 -156 -87 -156 -200z" />
    <glyph glyph-name="aacute.ss01" horiz-adv-x="513" 
d="M361 696l-87 -147h-41l79 147h49zM393 456h38v-456h-38v49c-25 -32 -75 -59 -142 -59c-139 0 -196 97 -196 239c0 141 57 237 196 237c68 0 115 -25 142 -60v50zM95 229c0 -115 37 -202 156 -202c73 0 121 36 142 79v244c-23 42 -65 79 -142 79
c-121 0 -156 -87 -156 -200z" />
    <glyph glyph-name="abreve.ss01" horiz-adv-x="513" 
d="M383 679c0 -74 -50 -125 -122 -125c-71 0 -121 51 -121 125h35c0 -51 29 -90 86 -90c58 0 86 39 86 90h36zM393 456h38v-456h-38v49c-25 -32 -75 -59 -142 -59c-139 0 -196 97 -196 239c0 141 57 237 196 237c68 0 115 -25 142 -60v50zM95 229c0 -115 37 -202 156 -202
c73 0 121 36 142 79v244c-23 42 -65 79 -142 79c-121 0 -156 -87 -156 -200z" />
    <glyph glyph-name="acircumflex.ss01" horiz-adv-x="513" 
d="M282 696l103 -147h-41l-83 113l-82 -113h-41l103 147h41zM393 456h38v-456h-38v49c-25 -32 -75 -59 -142 -59c-139 0 -196 97 -196 239c0 141 57 237 196 237c68 0 115 -25 142 -60v50zM95 229c0 -115 37 -202 156 -202c73 0 121 36 142 79v244c-23 42 -65 79 -142 79
c-121 0 -156 -87 -156 -200z" />
    <glyph glyph-name="adieresis.ss01" horiz-adv-x="513" 
d="M176 581c-22 0 -39 12 -39 39c0 28 17 40 39 40c20 0 39 -12 39 -40c0 -27 -19 -39 -39 -39zM346 581c-22 0 -39 12 -39 39c0 28 17 40 39 40c20 0 39 -12 39 -40c0 -27 -19 -39 -39 -39zM393 456h38v-456h-38v49c-25 -32 -75 -59 -142 -59c-139 0 -196 97 -196 239
c0 141 57 237 196 237c68 0 115 -25 142 -60v50zM95 229c0 -115 37 -202 156 -202c73 0 121 36 142 79v244c-23 42 -65 79 -142 79c-121 0 -156 -87 -156 -200z" />
    <glyph glyph-name="agrave.ss01" horiz-adv-x="513" 
d="M211 696l79 -147h-41l-87 147h49zM393 456h38v-456h-38v49c-25 -32 -75 -59 -142 -59c-139 0 -196 97 -196 239c0 141 57 237 196 237c68 0 115 -25 142 -60v50zM95 229c0 -115 37 -202 156 -202c73 0 121 36 142 79v244c-23 42 -65 79 -142 79
c-121 0 -156 -87 -156 -200z" />
    <glyph glyph-name="amacron.ss01" horiz-adv-x="513" 
d="M392 629v-36h-262v36h262zM393 456h38v-456h-38v49c-25 -32 -75 -59 -142 -59c-139 0 -196 97 -196 239c0 141 57 237 196 237c68 0 115 -25 142 -60v50zM95 229c0 -115 37 -202 156 -202c73 0 121 36 142 79v244c-23 42 -65 79 -142 79c-121 0 -156 -87 -156 -200z" />
    <glyph glyph-name="aring.ss01" horiz-adv-x="513" 
d="M163 625c0 54 40 89 98 89c59 0 99 -35 99 -89s-40 -90 -99 -90c-58 0 -98 36 -98 90zM200 625c0 -36 24 -59 61 -59c38 0 62 23 62 59s-24 58 -62 58c-37 0 -61 -22 -61 -58zM393 456h38v-456h-38v49c-25 -32 -75 -59 -142 -59c-139 0 -196 97 -196 239
c0 141 57 237 196 237c68 0 115 -25 142 -60v50zM95 229c0 -115 37 -202 156 -202c73 0 121 36 142 79v244c-23 42 -65 79 -142 79c-121 0 -156 -87 -156 -200z" />
    <glyph glyph-name="aringacute.ss01" horiz-adv-x="513" 
d="M163 615c0 51 36 85 89 89l57 69h49l-65 -73c41 -10 67 -42 67 -85c0 -54 -40 -90 -99 -90c-58 0 -98 36 -98 90zM200 615c0 -36 24 -58 61 -58c38 0 62 22 62 58s-24 58 -62 58c-37 0 -61 -22 -61 -58zM393 456h38v-456h-38v49c-25 -32 -75 -59 -142 -59
c-139 0 -196 97 -196 239c0 141 57 237 196 237c68 0 115 -25 142 -60v50zM95 229c0 -115 37 -202 156 -202c73 0 121 36 142 79v244c-23 42 -65 79 -142 79c-121 0 -156 -87 -156 -200z" />
    <glyph glyph-name="atilde.ss01" horiz-adv-x="513" 
d="M380 581c-15 16 -35 26 -54 26c-43 0 -76 -36 -131 -36c-27 0 -54 14 -64 27l10 34c13 -14 31 -24 54 -24c49 0 76 36 131 36c32 0 54 -17 64 -27zM393 456h38v-456h-38v49c-25 -32 -75 -59 -142 -59c-139 0 -196 97 -196 239c0 141 57 237 196 237c68 0 115 -25 142 -60
v50zM95 229c0 -115 37 -202 156 -202c73 0 121 36 142 79v244c-23 42 -65 79 -142 79c-121 0 -156 -87 -156 -200z" />
    <glyph glyph-name="aogonek.ss02" horiz-adv-x="513" 
d="M317 -130c0 -23 16 -50 56 -50c22 0 41 11 59 25v-40c-12 -9 -32 -21 -63 -21c-59 0 -92 38 -92 84c0 38 21 65 45 85l71 58v38c-25 -32 -75 -59 -142 -59c-139 0 -196 97 -196 239c0 141 57 237 196 237c68 0 115 -25 142 -60v50h38v-456h1l-80 -66
c-24 -21 -35 -39 -35 -64zM251 27c73 0 121 36 142 79v244c-23 42 -65 79 -142 79c-121 0 -156 -87 -156 -200c0 -115 37 -202 156 -202z" />
    <glyph glyph-name="g.ss02" horiz-adv-x="481" 
d="M443 419h-77c30 -29 45 -65 45 -114c0 -99 -63 -157 -177 -157c-28 0 -60 5 -73 9c-12 -14 -27 -31 -27 -54c0 -26 14 -44 48 -44h96c106 0 155 -46 155 -117c0 -92 -82 -148 -209 -148c-129 0 -185 58 -185 125c0 55 38 97 80 112c-19 8 -30 36 -30 57c0 34 25 61 43 81
c-46 25 -75 67 -75 137c0 101 61 160 175 160c48 0 81 -8 98 -18l113 17v-46zM234 186c92 0 132 41 132 119c0 72 -34 123 -133 123c-102 0 -133 -53 -133 -121c0 -73 36 -121 134 -121zM147 21c-42 -22 -64 -53 -64 -96c0 -57 41 -92 141 -92c97 0 165 33 165 106
c0 48 -28 82 -111 82h-131z" />
    <glyph glyph-name="gbreve.ss02" horiz-adv-x="481" 
d="M357 679c0 -74 -50 -125 -122 -125c-71 0 -121 51 -121 125h35c0 -51 29 -90 86 -90c58 0 86 39 86 90h36zM443 419h-77c30 -29 45 -65 45 -114c0 -99 -63 -157 -177 -157c-28 0 -60 5 -73 9c-12 -14 -27 -31 -27 -54c0 -26 14 -44 48 -44h96c106 0 155 -46 155 -117
c0 -92 -82 -148 -209 -148c-129 0 -185 58 -185 125c0 55 38 97 80 112c-19 8 -30 36 -30 57c0 34 25 61 43 81c-46 25 -75 67 -75 137c0 101 61 160 175 160c48 0 81 -8 98 -18l113 17v-46zM234 186c92 0 132 41 132 119c0 72 -34 123 -133 123c-102 0 -133 -53 -133 -121
c0 -73 36 -121 134 -121zM147 21c-42 -22 -64 -53 -64 -96c0 -57 41 -92 141 -92c97 0 165 33 165 106c0 48 -28 82 -111 82h-131z" />
    <glyph glyph-name="gcircumflex.ss02" horiz-adv-x="481" 
d="M264 696l103 -147h-41l-83 113l-82 -113h-41l103 147h41zM443 419h-77c30 -29 45 -65 45 -114c0 -99 -63 -157 -177 -157c-28 0 -60 5 -73 9c-12 -14 -27 -31 -27 -54c0 -26 14 -44 48 -44h96c106 0 155 -46 155 -117c0 -92 -82 -148 -209 -148c-129 0 -185 58 -185 125
c0 55 38 97 80 112c-19 8 -30 36 -30 57c0 34 25 61 43 81c-46 25 -75 67 -75 137c0 101 61 160 175 160c48 0 81 -8 98 -18l113 17v-46zM234 186c92 0 132 41 132 119c0 72 -34 123 -133 123c-102 0 -133 -53 -133 -121c0 -73 36 -121 134 -121zM147 21
c-42 -22 -64 -53 -64 -96c0 -57 41 -92 141 -92c97 0 165 33 165 106c0 48 -28 82 -111 82h-131z" />
    <glyph glyph-name="uni0123.ss02" horiz-adv-x="481" 
d="M254 721h34l-25 -163h-51zM443 419h-77c30 -29 45 -65 45 -114c0 -99 -63 -157 -177 -157c-28 0 -60 5 -73 9c-12 -14 -27 -31 -27 -54c0 -26 14 -44 48 -44h96c106 0 155 -46 155 -117c0 -92 -82 -148 -209 -148c-129 0 -185 58 -185 125c0 55 38 97 80 112
c-19 8 -30 36 -30 57c0 34 25 61 43 81c-46 25 -75 67 -75 137c0 101 61 160 175 160c48 0 81 -8 98 -18l113 17v-46zM234 186c92 0 132 41 132 119c0 72 -34 123 -133 123c-102 0 -133 -53 -133 -121c0 -73 36 -121 134 -121zM147 21c-42 -22 -64 -53 -64 -96
c0 -57 41 -92 141 -92c97 0 165 33 165 106c0 48 -28 82 -111 82h-131z" />
    <glyph glyph-name="gdotaccent.ss02" horiz-adv-x="481" 
d="M228 581c-22 0 -39 12 -39 39c0 28 17 40 39 40c20 0 39 -12 39 -40c0 -27 -19 -39 -39 -39zM443 419h-77c30 -29 45 -65 45 -114c0 -99 -63 -157 -177 -157c-28 0 -60 5 -73 9c-12 -14 -27 -31 -27 -54c0 -26 14 -44 48 -44h96c106 0 155 -46 155 -117
c0 -92 -82 -148 -209 -148c-129 0 -185 58 -185 125c0 55 38 97 80 112c-19 8 -30 36 -30 57c0 34 25 61 43 81c-46 25 -75 67 -75 137c0 101 61 160 175 160c48 0 81 -8 98 -18l113 17v-46zM234 186c92 0 132 41 132 119c0 72 -34 123 -133 123c-102 0 -133 -53 -133 -121
c0 -73 36 -121 134 -121zM147 21c-42 -22 -64 -53 -64 -96c0 -57 41 -92 141 -92c97 0 165 33 165 106c0 48 -28 82 -111 82h-131z" />
    <glyph glyph-name="uni0163.sc" horiz-adv-x="445" 
d="M243 471v-471l-23 -61c47 0 88 -21 88 -81c0 -31 -27 -74 -91 -74c-28 0 -55 11 -75 22v40c21 -15 47 -26 75 -26c34 0 50 19 50 38c0 37 -28 45 -66 45h-26l-2 4l30 96v468h-167v36h373v-36h-166z" />
    <glyph glyph-name="uni0410" unicode="&#x410;" 
d="M457 202h-315l-74 -202h-44l249 676h53l251 -676h-47zM156 240h287l-143 394z" />
    <glyph glyph-name="uni0411" unicode="&#x411;" horiz-adv-x="565" 
d="M96 0v676h357v-38h-317v-251h157c152 0 213 -82 213 -194c0 -113 -61 -193 -213 -193h-197zM136 38h157c129 0 172 66 172 155s-43 156 -172 156h-157v-311z" />
    <glyph glyph-name="uni0412" unicode="&#x412;" horiz-adv-x="572" 
d="M96 676h191c126 0 193 -63 193 -165c0 -90 -47 -148 -113 -158c74 -10 146 -59 146 -171c0 -128 -79 -182 -215 -182h-202v676zM277 369c119 0 160 59 160 142c0 80 -44 127 -160 127h-141v-269h141zM284 38c127 0 188 39 188 144c0 91 -57 149 -187 149h-149v-293h148z
" />
    <glyph glyph-name="uni0413" unicode="&#x413;" horiz-adv-x="510" 
d="M96 676h377v-38h-337v-638h-40v676z" />
    <glyph glyph-name="uni0403" unicode="&#x403;" horiz-adv-x="510" 
d="M391 899l-87 -147h-41l79 147h49zM96 676h377v-38h-337v-638h-40v676z" />
    <glyph glyph-name="uni0490" unicode="&#x490;" horiz-adv-x="528" 
d="M96 0v676h355v122h40v-160h-355v-638h-40z" />
    <glyph glyph-name="uni0414" unicode="&#x414;" horiz-adv-x="627" 
d="M523 38h79v-160h-40v122h-529v-122h-40v160h52c34 19 56 70 64 183l32 455h382v-638zM98 38h385v600h-305l-29 -424c-6 -87 -23 -143 -51 -176z" />
    <glyph glyph-name="uni0415" unicode="&#x415;" horiz-adv-x="532" 
d="M476 38v-38h-380v676h376v-38h-336v-268h306v-38h-306v-294h340z" />
    <glyph glyph-name="uni0400" unicode="&#x400;" horiz-adv-x="532" 
d="M231 899l79 -147h-41l-87 147h49zM476 38v-38h-380v676h376v-38h-336v-268h306v-38h-306v-294h340z" />
    <glyph glyph-name="uni0401" unicode="&#x401;" horiz-adv-x="532" 
d="M200 784c-22 0 -39 12 -39 39c0 28 17 40 39 40c20 0 39 -12 39 -40c0 -27 -19 -39 -39 -39zM370 784c-22 0 -39 12 -39 39c0 28 17 40 39 40c20 0 39 -12 39 -40c0 -27 -19 -39 -39 -39zM476 38v-38h-380v676h376v-38h-336v-268h306v-38h-306v-294h340z" />
    <glyph glyph-name="uni0416" unicode="&#x416;" horiz-adv-x="854" 
d="M30 0l257 341l-257 335h52l239 -316h86v316h40v-316h86l239 316h52l-257 -335l257 -341h-52l-240 324h-85v-324h-40v324h-85l-240 -324h-52z" />
    <glyph glyph-name="uni0417" unicode="&#x417;" horiz-adv-x="541" 
d="M335 351c66 -11 147 -67 147 -173c0 -110 -85 -189 -219 -189c-145 0 -215 80 -215 165h41c0 -70 64 -126 174 -126c114 0 178 63 178 150c0 94 -84 153 -191 153h-61v38h61c97 0 179 50 179 138c0 81 -62 140 -166 140c-108 0 -164 -61 -164 -129h-41
c0 83 66 168 205 168c128 0 207 -79 207 -179c0 -95 -69 -141 -135 -156z" />
    <glyph glyph-name="uni0418" unicode="&#x418;" horiz-adv-x="680" 
d="M135 676l1 -613l403 613h45v-676h-40v613l-402 -613h-46v676h39z" />
    <glyph glyph-name="uni0419" unicode="&#x419;" horiz-adv-x="680" 
d="M447 876c0 -74 -50 -125 -122 -125c-71 0 -121 51 -121 125h35c0 -51 29 -90 86 -90c58 0 86 39 86 90h36zM135 676l1 -613l403 613h45v-676h-40v613l-402 -613h-46v676h39z" />
    <glyph glyph-name="uni040D" unicode="&#x40d;" horiz-adv-x="680" 
d="M272 899l79 -147h-41l-87 147h49zM135 676l1 -613l403 613h45v-676h-40v613l-402 -613h-46v676h39z" />
    <glyph glyph-name="uni041A" unicode="&#x41a;" horiz-adv-x="557" 
d="M527 676l-257 -334l257 -342h-51l-241 324h-99v-324h-40v676h40v-316h100l241 316h50z" />
    <glyph glyph-name="uni040C" unicode="&#x40c;" horiz-adv-x="557" 
d="M384 899l-87 -147h-41l79 147h49zM527 676l-257 -334l257 -342h-51l-241 324h-99v-324h-40v676h40v-316h100l241 316h50z" />
    <glyph glyph-name="uni041B" unicode="&#x41b;" horiz-adv-x="661" 
d="M2 36c14 -5 29 -7 45 -7c58 0 93 41 104 192l32 455h382v-676h-40v638h-305l-29 -424c-12 -175 -68 -224 -146 -224c-22 0 -42 3 -57 9z" />
    <glyph glyph-name="uni041C" unicode="&#x41c;" horiz-adv-x="861" 
d="M649 676h55l103 -676h-44l-92 626l-219 -626h-44l-220 630l-91 -630h-43l102 676h59l216 -619z" />
    <glyph glyph-name="uni041D" unicode="&#x41d;" horiz-adv-x="667" 
d="M531 676h40v-676h-40v340h-395v-340h-40v676h40v-298h395v298z" />
    <glyph glyph-name="uni041E" unicode="&#x41e;" horiz-adv-x="656" 
d="M591 337c0 -205 -75 -347 -265 -347c-188 0 -261 142 -261 347s74 349 262 349c189 0 264 -145 264 -349zM106 337c0 -184 55 -308 220 -308c172 0 224 124 224 308c0 182 -52 310 -223 310c-166 0 -221 -128 -221 -310z" />
    <glyph glyph-name="uni041F" unicode="&#x41f;" horiz-adv-x="650" 
d="M554 676v-676h-40v638h-378v-638h-40v676h458z" />
    <glyph glyph-name="uni0420" unicode="&#x420;" horiz-adv-x="549" 
d="M136 285v-285h-40v676h194c152 0 212 -80 212 -195c0 -114 -60 -196 -212 -196h-154zM136 323h154c129 0 171 67 171 158s-42 157 -171 157h-154v-315z" />
    <glyph glyph-name="uni0421" unicode="&#x421;" horiz-adv-x="581" 
d="M106 337c0 -169 56 -308 221 -308c71 0 142 29 172 91l34 -23c-32 -62 -112 -107 -206 -107c-183 0 -262 136 -262 347c0 212 79 349 262 349c94 0 174 -45 206 -107l-34 -23c-30 62 -101 91 -172 91c-165 0 -221 -140 -221 -310z" />
    <glyph glyph-name="uni0422" unicode="&#x422;" horiz-adv-x="530" 
d="M493 676v-38h-208v-638h-40v638h-208v38h456z" />
    <glyph glyph-name="uni0423" unicode="&#x423;" horiz-adv-x="531" 
d="M466 676h45l-336 -676h-45l128 257l-229 419h46l205 -375z" />
    <glyph glyph-name="uni040E" unicode="&#x40e;" horiz-adv-x="531" 
d="M269 751c-71 0 -121 51 -121 125h35c0 -51 29 -90 86 -90c58 0 86 39 86 90h36c0 -74 -50 -125 -122 -125zM466 676h45l-336 -676h-45l128 257l-229 419h46l205 -375z" />
    <glyph glyph-name="uni0424" unicode="&#x424;" horiz-adv-x="700" 
d="M641 337c0 -168 -81 -282 -271 -283v-74h-40v74c-191 0 -271 114 -271 283c0 170 81 285 271 285v74h40v-74c190 -1 271 -117 271 -285zM100 337c0 -148 62 -244 230 -244v490c-168 0 -230 -99 -230 -246zM370 93c172 1 230 97 230 244c0 146 -58 245 -230 246v-490z" />
    <glyph glyph-name="uni0425" unicode="&#x425;" horiz-adv-x="555" 
d="M91 676l186 -294l187 294h50l-209 -326l224 -350h-50l-202 317l-201 -317h-50l224 350l-209 326h50z" />
    <glyph glyph-name="uni0427" unicode="&#x427;" horiz-adv-x="563" 
d="M427 676h40v-676h-40v295c-34 -16 -108 -33 -175 -33c-156 0 -195 74 -195 197v217h40v-216c0 -108 34 -159 154 -159c76 0 140 15 176 33v342z" />
    <glyph glyph-name="uni0426" unicode="&#x426;" horiz-adv-x="658" 
d="M96 0v676h40v-638h378v638h40v-638h79v-160h-40v122h-497z" />
    <glyph glyph-name="uni0428" unicode="&#x428;" horiz-adv-x="1016" 
d="M96 0v676h40v-638h352v638h40v-638h352v638h40v-676h-824z" />
    <glyph glyph-name="uni0429" unicode="&#x429;" horiz-adv-x="1024" 
d="M920 38h79v-160h-40v122h-863v676h40v-638h352v638h40v-638h352v638h40v-638z" />
    <glyph glyph-name="uni040F" unicode="&#x40f;" horiz-adv-x="650" 
d="M96 0v676h40v-638h378v638h40v-676h-209v-122h-40v122h-209z" />
    <glyph glyph-name="uni042C" unicode="&#x42c;" horiz-adv-x="548" 
d="M136 387h157c152 0 213 -82 213 -194c0 -113 -61 -193 -213 -193h-197v676h40v-289zM136 349v-311h157c129 0 172 66 172 155s-43 156 -172 156h-157z" />
    <glyph glyph-name="uni042A" unicode="&#x42a;" horiz-adv-x="617" 
d="M37 638v38h168v-289h157c152 0 213 -82 213 -194c0 -113 -61 -193 -213 -193h-197v638h-128zM205 38h157c129 0 172 66 172 155s-43 156 -172 156h-157v-311z" />
    <glyph glyph-name="uni042B" unicode="&#x42b;" horiz-adv-x="755" 
d="M136 387h157c152 0 213 -82 213 -194c0 -113 -61 -193 -213 -193h-197v676h40v-289zM619 676h40v-676h-40v676zM136 349v-311h157c129 0 172 66 172 155s-43 156 -172 156h-157z" />
    <glyph glyph-name="uni0409" unicode="&#x409;" horiz-adv-x="965" 
d="M-12 -1l14 37c14 -5 29 -7 45 -7c58 0 93 41 104 192l32 455h370v-289h157c152 0 213 -82 213 -194c0 -113 -61 -193 -213 -193h-197v638h-293l-29 -424c-12 -175 -68 -224 -146 -224c-22 0 -42 3 -57 9zM553 38h157c129 0 172 66 172 155s-43 156 -172 156h-157v-311z
" />
    <glyph glyph-name="uni040A" unicode="&#x40a;" horiz-adv-x="968" 
d="M713 387c152 0 213 -82 213 -194c0 -113 -61 -193 -213 -193h-197v340h-380v-340h-40v676h40v-298h380v298h40v-289h157zM713 38c129 0 172 66 172 155s-43 156 -172 156h-157v-311h157z" />
    <glyph glyph-name="uni0405" unicode="&#x405;" horiz-adv-x="546" 
d="M440 566c-31 53 -86 81 -163 81c-111 0 -164 -66 -164 -148c0 -74 44 -103 122 -126l95 -27c81 -24 159 -62 159 -168c0 -103 -71 -188 -218 -188c-155 0 -197 76 -221 132l39 16c21 -55 58 -109 182 -109c120 0 177 61 177 149c0 77 -58 109 -129 129l-96 27
c-84 25 -151 71 -151 165c0 99 72 187 205 187c101 0 173 -47 200 -98z" />
    <glyph glyph-name="uni0404" unicode="&#x404;" horiz-adv-x="581" 
d="M533 97c-32 -62 -112 -107 -206 -107c-183 0 -262 137 -262 349c0 211 79 347 262 347c94 0 174 -45 206 -107l-34 -23c-30 62 -101 91 -172 91c-155 0 -214 -122 -220 -277h304v-38h-305c2 -167 58 -303 221 -303c71 0 142 29 172 91z" />
    <glyph glyph-name="uni042D" unicode="&#x42d;" horiz-adv-x="581" 
d="M48 97l34 23c30 -62 101 -91 172 -91c163 0 219 136 221 303h-305v38h304c-6 155 -65 277 -220 277c-71 0 -142 -29 -172 -91l-34 23c32 62 112 107 206 107c183 0 262 -136 262 -347c0 -212 -79 -349 -262 -349c-94 0 -174 45 -206 107z" />
    <glyph glyph-name="uni0406" unicode="&#x406;" horiz-adv-x="232" 
d="M96 676h40v-676h-40v676z" />
    <glyph glyph-name="uni0407" unicode="&#x407;" horiz-adv-x="232" 
d="M31 784c-22 0 -39 12 -39 39c0 28 17 40 39 40c20 0 39 -12 39 -40c0 -27 -19 -39 -39 -39zM201 784c-22 0 -39 12 -39 39c0 28 17 40 39 40c20 0 39 -12 39 -40c0 -27 -19 -39 -39 -39zM96 676h40v-676h-40v676z" />
    <glyph glyph-name="uni0408" unicode="&#x408;" horiz-adv-x="490" 
d="M65 106c34 -59 74 -77 135 -77c96 0 159 51 159 212v435h40v-430c0 -190 -83 -256 -199 -256c-81 0 -136 37 -168 93z" />
    <glyph glyph-name="uni040B" unicode="&#x40b;" horiz-adv-x="694" 
d="M37 638v38h456v-38h-226v-257c34 16 108 33 175 33c156 0 195 -74 195 -197v-217h-40v216c0 108 -34 159 -154 159c-76 0 -140 -15 -176 -33v-342h-40v638h-190z" />
    <glyph glyph-name="uni042E" unicode="&#x42e;" horiz-adv-x="864" 
d="M535 686c189 0 264 -145 264 -349c0 -205 -75 -347 -265 -347c-185 0 -258 137 -261 336h-137v-326h-40v676h40v-314h137c6 192 82 324 262 324zM534 29c172 0 224 124 224 308c0 182 -52 310 -223 310c-166 0 -221 -128 -221 -310c0 -184 55 -308 220 -308z" />
    <glyph glyph-name="uni042F" unicode="&#x42f;" horiz-adv-x="587" 
d="M491 676v-676h-39l-1 319h-156l-210 -319h-50l214 321c-120 7 -192 69 -192 178c0 110 70 177 221 177h213zM98 499c0 -89 50 -142 180 -142h173v281h-173c-130 0 -180 -51 -180 -139z" />
    <glyph glyph-name="uni0402" unicode="&#x402;" horiz-adv-x="712" 
d="M436 413c168 0 226 -97 226 -208c0 -115 -57 -208 -215 -208c-13 0 -25 1 -36 3l3 38c8 -1 21 -2 33 -2c138 0 174 83 174 169s-38 169 -185 169c-80 0 -138 -18 -169 -34v-340h-40v638h-190v38h456v-38h-226v-257c30 14 87 32 169 32z" />
    <glyph glyph-name="uni0492" unicode="&#x492;" horiz-adv-x="510" 
d="M473 638h-337v-292h188v-36h-188v-310h-40v310h-80v36h80v330h377v-38z" />
    <glyph glyph-name="uni049A" unicode="&#x49a;" horiz-adv-x="557" 
d="M498 38h59v-160h-40v122h-41l-241 324h-99v-324h-40v676h40v-316h100l241 316h50l-257 -334z" />
    <glyph glyph-name="uni04B2" unicode="&#x4b2;" horiz-adv-x="555" 
d="M505 38h59v-160h-40v122h-45l-202 317l-201 -317h-50l224 350l-209 326h50l186 -294l187 294h50l-209 -326z" />
    <glyph glyph-name="uni04D4" unicode="&#x4d4;" horiz-adv-x="936" 
d="M7 0l471 676h398v-38h-336v-268h307v-38h-307v-294h340v-38h-380v201h-303l-142 -201h-48zM500 239v399l-278 -399h278z" />
    <glyph glyph-name="uni041F.rotated" horiz-adv-x="638" 
d="M96 0v676h40v-638h366v638h40v-676h-446z" />
    <glyph glyph-name="uni0430" unicode="&#x430;" horiz-adv-x="467" 
d="M351 0v60c-26 -30 -80 -70 -161 -70c-91 0 -142 46 -142 125c0 87 80 126 198 141l105 13v60c0 68 -29 100 -116 100c-80 0 -119 -26 -119 -68v-34h-37c-2 12 -3 20 -3 34c0 59 47 105 159 105c109 0 154 -50 154 -135v-331h-38zM88 115c0 -55 31 -88 102 -88
s128 35 161 73v133l-101 -13c-99 -13 -162 -40 -162 -105z" />
    <glyph glyph-name="uni0431" unicode="&#x431;" horiz-adv-x="500" 
d="M254 453c140 0 193 -101 193 -231c0 -133 -54 -232 -197 -232c-137 0 -196 89 -196 264c0 257 66 354 202 379c110 20 123 30 122 57h35c1 -6 1 -12 1 -16c0 -40 -27 -56 -151 -79c-102 -18 -144 -74 -169 -232c33 66 88 90 160 90zM250 27c115 0 157 82 157 195
s-42 194 -157 194c-111 0 -155 -81 -155 -194s44 -195 155 -195z" />
    <glyph glyph-name="uni0432" unicode="&#x432;" horiz-adv-x="465" 
d="M323 237c51 -10 92 -45 92 -113c0 -88 -60 -124 -153 -124h-181v456h177c90 0 140 -45 140 -113c0 -57 -31 -93 -75 -106zM119 420v-166h134c77 0 105 36 105 87c0 60 -47 79 -105 79h-134zM251 36c51 0 124 8 124 90c0 56 -39 92 -123 92h-133v-182h132z" />
    <glyph glyph-name="uni0433" unicode="&#x433;" horiz-adv-x="401" 
d="M81 456h303v-36h-265v-420h-38v456z" />
    <glyph glyph-name="uni0453" unicode="&#x453;" horiz-adv-x="401" 
d="M335 696l-87 -147h-41l79 147h49zM81 456h303v-36h-265v-420h-38v456z" />
    <glyph glyph-name="uni0491" unicode="&#x491;" horiz-adv-x="411" 
d="M81 0v456h275v122h38v-158h-275v-420h-38z" />
    <glyph glyph-name="uni0434" unicode="&#x434;" horiz-adv-x="505" 
d="M420 36h63v-158h-38v122h-406v-122h-38v158h45c25 13 42 52 48 125l24 295h302v-420zM98 36h284v384h-229l-21 -264c-5 -60 -16 -97 -34 -120z" />
    <glyph glyph-name="uni0435" unicode="&#x435;" horiz-adv-x="470" 
d="M248 27c42 0 102 16 137 55l23 -29c-24 -32 -92 -63 -160 -63c-141 0 -193 99 -193 239c0 135 56 237 190 237c116 0 172 -89 172 -186c0 -18 -2 -44 -5 -63h-318c1 -112 42 -190 154 -190zM375 253c1 6 2 18 2 25c0 84 -42 151 -132 151c-106 0 -144 -76 -150 -176h280z
" />
    <glyph glyph-name="uni0450" unicode="&#x450;" horiz-adv-x="470" 
d="M181 696l79 -147h-41l-87 147h49zM248 27c42 0 102 16 137 55l23 -29c-24 -32 -92 -63 -160 -63c-141 0 -193 99 -193 239c0 135 56 237 190 237c116 0 172 -89 172 -186c0 -18 -2 -44 -5 -63h-318c1 -112 42 -190 154 -190zM375 253c1 6 2 18 2 25
c0 84 -42 151 -132 151c-106 0 -144 -76 -150 -176h280z" />
    <glyph glyph-name="uni0451" unicode="&#x451;" horiz-adv-x="470" 
d="M150 581c-22 0 -39 12 -39 39c0 28 17 40 39 40c20 0 39 -12 39 -40c0 -27 -19 -39 -39 -39zM320 581c-22 0 -39 12 -39 39c0 28 17 40 39 40c20 0 39 -12 39 -40c0 -27 -19 -39 -39 -39zM248 27c42 0 102 16 137 55l23 -29c-24 -32 -92 -63 -160 -63
c-141 0 -193 99 -193 239c0 135 56 237 190 237c116 0 172 -89 172 -186c0 -18 -2 -44 -5 -63h-318c1 -112 42 -190 154 -190zM375 253c1 6 2 18 2 25c0 84 -42 151 -132 151c-106 0 -144 -76 -150 -176h280z" />
    <glyph glyph-name="uni0436" unicode="&#x436;" horiz-adv-x="660" 
d="M636 456l-184 -226l184 -230h-50l-166 212h-71v-212h-38v212h-71l-166 -212h-50l184 230l-184 226h50l166 -208h71v208h38v-208h71l166 208h50z" />
    <glyph glyph-name="uni0437" unicode="&#x437;" horiz-adv-x="449" 
d="M289 236c41 -8 98 -48 98 -115c0 -75 -68 -128 -171 -128c-113 0 -166 50 -166 108h41c0 -42 47 -71 125 -71c82 0 131 37 131 92c0 59 -62 95 -140 95h-64v37h64c71 0 131 30 131 86c0 51 -49 86 -122 86c-76 0 -117 -32 -117 -73h-42c0 57 52 110 159 110
c98 0 162 -53 162 -122c0 -60 -48 -95 -89 -105z" />
    <glyph glyph-name="uni0438" unicode="&#x438;" horiz-adv-x="512" 
d="M390 456h41v-456h-38v397l-270 -397h-42v456h38v-394z" />
    <glyph glyph-name="uni0439" unicode="&#x439;" horiz-adv-x="512" 
d="M255 548c-71 0 -121 51 -121 125h35c0 -51 29 -90 86 -90c58 0 86 39 86 90h36c0 -74 -50 -125 -122 -125zM390 456h41v-456h-38v397l-270 -397h-42v456h38v-394z" />
    <glyph glyph-name="uni045D" unicode="&#x45d;" horiz-adv-x="512" 
d="M281 549h-41l-87 147h49zM390 456h41v-456h-38v397l-270 -397h-42v456h38v-394z" />
    <glyph glyph-name="uni043A" unicode="&#x43a;" horiz-adv-x="437" 
d="M413 456l-188 -226l188 -230h-50l-170 212h-74v-212h-38v456h38v-208h73l171 208h50z" />
    <glyph glyph-name="uni045C" unicode="&#x45c;" horiz-adv-x="437" 
d="M321 696l-87 -147h-41l79 147h49zM413 456l-188 -226l188 -230h-50l-170 212h-74v-212h-38v456h38v-208h73l171 208h50z" />
    <glyph glyph-name="uni043B" unicode="&#x43b;" horiz-adv-x="513" 
d="M125 456h307v-456h-38v420h-233l-22 -265c-9 -109 -44 -160 -106 -160c-17 0 -30 3 -41 7l11 34c9 -3 17 -4 27 -4c40 0 65 40 72 132z" />
    <glyph glyph-name="uni043C" unicode="&#x43c;" horiz-adv-x="623" 
d="M455 456h51l68 -456h-40l-58 410l-144 -410h-42l-143 411l-59 -411h-39l69 456h53l141 -405z" />
    <glyph glyph-name="uni043D" unicode="&#x43d;" horiz-adv-x="518" 
d="M399 456h38v-456h-38v222h-280v-222h-38v456h38v-198h280v198z" />
    <glyph glyph-name="uni043E" unicode="&#x43e;" horiz-adv-x="502" 
d="M251 466c142 0 196 -103 196 -237c0 -138 -54 -239 -198 -239c-136 0 -194 101 -194 239c0 134 58 237 196 237zM249 27c116 0 158 84 158 202c0 117 -42 200 -156 200c-112 0 -156 -83 -156 -200c0 -118 44 -202 154 -202z" />
    </font>
</defs>
</svg>
